<?xml version="1.0" encoding="iso-8859-1"?>
<!-- Generator: Adobe Illustrator 26.0.1, SVG Export Plug-In . SVG Version: 6.00 Build 0)  -->
<svg version="1.1" id="Layer_1" xmlns="http://www.w3.org/2000/svg" xmlns:xlink="http://www.w3.org/1999/xlink" x="0px" y="0px"
	 viewBox="0 0 100 100" style="enable-background:new 0 0 100 100;" xml:space="preserve">
<g id="G_x28__T2_T2_T2_T1_x29__1_" style="display:none;">
	<g style="display:inline;">
		<defs>
			<rect id="SVGID_1_" x="1.387" y="2.616" width="97.227" height="94.768"/>
		</defs>
		<clipPath id="SVGID_00000048459281546192120580000003732566468637957002_">
			<use xlink:href="#SVGID_1_"  style="overflow:visible;"/>
		</clipPath>
		<polygon style="clip-path:url(#SVGID_00000048459281546192120580000003732566468637957002_);fill:#523742;" points="46.1,40.296 
			43.915,41.436 41.883,42.874 40.516,44.972 39.601,48.219 39.665,50.589 40.207,52.888 41.706,54.706 42.987,55.968 
			44.456,56.987 44.763,57.351 45.576,57.756 46.044,57.817 48.516,58.456 50.701,58.615 52.758,57.896 54.681,56.895 56.113,55.25 
			57.121,53.98 58.009,52.195 58.385,50.32 58.32,47.858 57.722,45.517 56.221,43.599 54.163,41.387 52.605,40.612 50.657,40.298 
			48.557,39.983 		"/>
		<g style="clip-path:url(#SVGID_00000048459281546192120580000003732566468637957002_);">
			<defs>
				
					<rect id="SVGID_00000019673673279493838580000013170603295537426871_" x="4.929" y="67.339" transform="matrix(0.9874 -0.1584 0.1584 0.9874 -12.7882 3.111)" width="16.398" height="28.929"/>
			</defs>
			<clipPath id="SVGID_00000180361195198659159490000012477103453937845387_">
				<use xlink:href="#SVGID_00000019673673279493838580000013170603295537426871_"  style="overflow:visible;"/>
			</clipPath>
			<path style="clip-path:url(#SVGID_00000180361195198659159490000012477103453937845387_);fill:#E33A3A;" d="M18.442,90.932
				c-2.233,1.798-9.557,3.558-9.557,3.558c-1.303-1.816-0.879-2.017-1.779-4.778c-0.037-0.114-0.275-1.871-0.317-1.974
				c-0.242-0.59-0.854-5.423,0.357-8.936c0.176-0.515,0.239-1.067,0.368-1.672c-1.144-0.302-2.226-0.589-3.329-0.879
				c0.897-1.832,8.338-7.764,11.648-9.277c1.983,3.882,3.646,7.887,5.033,12.295c-1.419-0.193-2.536-0.344-3.886-0.526
				c-0.361,2.286-0.627,4.178-0.475,6.423C16.636,87.126,17.138,89.116,18.442,90.932"/>
		</g>
		<g style="clip-path:url(#SVGID_00000048459281546192120580000003732566468637957002_);">
			<defs>
				
					<rect id="SVGID_00000019671550497641950650000017071508883065139097_" x="10.26" y="50.059" transform="matrix(0.7018 -0.7123 0.7123 0.7018 -34.128 34.9821)" width="28.929" height="16.4"/>
			</defs>
			<clipPath id="SVGID_00000116953611667144183110000015710549467188531363_">
				<use xlink:href="#SVGID_00000019671550497641950650000017071508883065139097_"  style="overflow:visible;"/>
			</clipPath>
			<path style="clip-path:url(#SVGID_00000116953611667144183110000015710549467188531363_);fill:#5699DE;" d="M20.515,67.947
				c-2.771-0.735-8.527-5.595-8.527-5.595c0.692-2.126,1.106-1.902,2.798-4.262c0.069-0.098,1.345-1.331,1.403-1.425
				c0.332-0.544,3.864-3.9,7.411-5.005c0.519-0.162,1.002-0.439,1.566-0.692c-0.434-1.101-0.844-2.142-1.262-3.204
				c2.006-0.361,11.192,2.122,14.372,3.893c-1.954,3.897-4.197,7.608-6.927,11.338c-0.686-1.259-1.225-2.248-1.877-3.444
				c-2.056,1.062-3.739,1.969-5.458,3.42C22.513,64.238,21.206,65.82,20.515,67.947"/>
		</g>
		<g style="clip-path:url(#SVGID_00000048459281546192120580000003732566468637957002_);">
			<defs>
				
					<rect id="SVGID_00000098214122551098628920000002132762055791809670_" x="2.601" y="5.028" transform="matrix(0.9845 -0.1756 0.1756 0.9845 -2.0573 3.2017)" width="28.929" height="16.399"/>
			</defs>
			<clipPath id="SVGID_00000021078393803673893160000014387150053928127916_">
				<use xlink:href="#SVGID_00000098214122551098628920000002132762055791809670_"  style="overflow:visible;"/>
			</clipPath>
			<path style="clip-path:url(#SVGID_00000021078393803673893160000014387150053928127916_);fill:#F26C2B;" d="M8.032,18.7
				c-1.836-2.201-3.724-9.493-3.724-9.493c1.793-1.335,2.001-0.914,4.746-1.862c0.113-0.04,1.866-0.308,1.969-0.352
				c0.585-0.251,5.406-0.948,8.94,0.201c0.518,0.168,1.072,0.221,1.678,0.34c0.282-1.149,0.55-2.236,0.822-3.344
				c1.846,0.864,7.907,8.2,9.478,11.484c-3.847,2.05-7.822,3.783-12.206,5.247c0.169-1.423,0.3-2.542,0.459-3.895
				c-2.291-0.321-4.189-0.555-6.431-0.363C11.806,16.828,9.825,17.365,8.032,18.7"/>
		</g>
		<g style="clip-path:url(#SVGID_00000048459281546192120580000003732566468637957002_);">
			<defs>
				
					<rect id="SVGID_00000104702858539781235060000009399426731180910478_" x="32.609" y="9.947" transform="matrix(0.6894 -0.7244 0.7244 0.6894 -5.0078 37.1456)" width="16.4" height="28.93"/>
			</defs>
			<clipPath id="SVGID_00000103256437888508892730000014333440589371597759_">
				<use xlink:href="#SVGID_00000104702858539781235060000009399426731180910478_"  style="overflow:visible;"/>
			</clipPath>
			<path style="clip-path:url(#SVGID_00000103256437888508892730000014333440589371597759_);fill:#E1D153;" d="M31.049,20.372
				c0.687-2.783,5.445-8.623,5.445-8.623c2.138,0.655,1.922,1.072,4.311,2.723c0.099,0.067,1.353,1.321,1.449,1.379
				c0.549,0.322,3.966,3.794,5.133,7.322c0.171,0.516,0.456,0.994,0.719,1.553c1.093-0.452,2.128-0.88,3.181-1.317
				c0.397,1.999-1.926,11.227-3.641,14.437c-3.93-1.885-7.68-4.063-11.456-6.727c1.246-0.708,2.226-1.265,3.41-1.937
				c-1.097-2.038-2.034-3.705-3.515-5.398C34.792,22.305,33.187,21.026,31.049,20.372"/>
		</g>
		<g style="clip-path:url(#SVGID_00000048459281546192120580000003732566468637957002_);">
			<defs>
				
					<rect id="SVGID_00000160907022562755072070000011603284027267957689_" x="75.686" y="11.775" transform="matrix(0.0182 -0.9998 0.9998 0.0182 68.5356 109.7472)" width="28.929" height="16.4"/>
			</defs>
			<clipPath id="SVGID_00000083799470456000716290000013560715995871406724_">
				<use xlink:href="#SVGID_00000160907022562755072070000011603284027267957689_"  style="overflow:visible;"/>
			</clipPath>
			<path style="clip-path:url(#SVGID_00000083799470456000716290000013560715995871406724_);fill:#55C95A;" d="M86.53,10.054
				c2.515-1.376,10.034-1.816,10.034-1.816c0.963,2.017,0.509,2.14,0.909,5.016c0.016,0.118-0.059,1.89-0.037,2
				c0.134,0.622-0.115,5.488-1.927,8.732c-0.264,0.475-0.423,1.009-0.658,1.58c1.074,0.5,2.088,0.973,3.122,1.453
				c-1.205,1.645-9.575,6.172-13.1,7.077c-1.268-4.17-2.198-8.406-2.787-12.99c1.363,0.441,2.436,0.786,3.732,1.204
				c0.76-2.186,1.356-4.003,1.602-6.239C87.635,14.119,87.493,12.072,86.53,10.054"/>
		</g>
		<g style="clip-path:url(#SVGID_00000048459281546192120580000003732566468637957002_);">
			<defs>
				
					<rect id="SVGID_00000159457452967896017680000016114940386082485647_" x="60.119" y="32.905" transform="matrix(0.8165 -0.5773 0.5773 0.8165 -10.0463 50.6002)" width="28.93" height="16.4"/>
			</defs>
			<clipPath id="SVGID_00000130636656835176266770000012978025583884208812_">
				<use xlink:href="#SVGID_00000159457452967896017680000016114940386082485647_"  style="overflow:visible;"/>
			</clipPath>
			<path style="clip-path:url(#SVGID_00000130636656835176266770000012978025583884208812_);fill:#AD70D6;" d="M80.435,32.312
				c2.598,1.213,7.406,7.011,7.406,7.011c-1.055,1.971-1.423,1.677-3.505,3.703c-0.085,0.083-1.558,1.071-1.632,1.155
				c-0.423,0.476-4.492,3.156-8.178,3.618c-0.539,0.069-1.064,0.256-1.663,0.405c0.232,1.161,0.452,2.258,0.677,3.377
				c-2.039,0.002-10.643-4.062-13.459-6.367c2.609-3.491,5.472-6.749,8.817-9.938c0.453,1.36,0.808,2.429,1.24,3.721
				c2.211-0.683,4.027-1.279,5.976-2.404C77.815,35.61,79.379,34.283,80.435,32.312"/>
		</g>
		<g style="clip-path:url(#SVGID_00000048459281546192120580000003732566468637957002_);">
			<defs>
				
					<rect id="SVGID_00000034063736620200585280000002569545317449007270_" x="50.425" y="59.85" transform="matrix(0.734 -0.6792 0.6792 0.734 -34.8768 59.5869)" width="16.4" height="28.929"/>
			</defs>
			<clipPath id="SVGID_00000099651132104306504540000003296179997203427256_">
				<use xlink:href="#SVGID_00000034063736620200585280000002569545317449007270_"  style="overflow:visible;"/>
			</clipPath>
			<path style="clip-path:url(#SVGID_00000099651132104306504540000003296179997203427256_);fill:#9F9EB1;" d="M68.109,78.965
				c-0.862,2.734-5.981,8.26-5.981,8.26c-2.093-0.788-1.85-1.192-4.13-2.99c-0.094-0.075-1.266-1.406-1.359-1.468
				c-0.527-0.357-3.717-4.039-4.657-7.634c-0.139-0.526-0.393-1.022-0.619-1.596c-1.12,0.382-2.18,0.744-3.259,1.114
				c-0.269-2.022,2.635-11.083,4.55-14.178c3.804,2.131,7.407,4.543,11.007,7.441c-1.289,0.627-2.302,1.12-3.527,1.717
				c0.966,2.103,1.795,3.825,3.165,5.609C64.496,76.799,66.016,78.177,68.109,78.965"/>
		</g>
	</g>
</g>
<g id="G_x28__T2_T2_T2_T1_x29__00000074417995424661078420000013009054798904441257_">
	<g>
		<defs>
			<rect id="SVGID_00000049927551116075993170000004610894700285029782_" x="1.387" y="2.616" width="97.227" height="94.768"/>
		</defs>
		<clipPath id="SVGID_00000032627538180487364270000013780355851984602295_">
			<use xlink:href="#SVGID_00000049927551116075993170000004610894700285029782_"  style="overflow:visible;"/>
		</clipPath>
		<polygon style="clip-path:url(#SVGID_00000032627538180487364270000013780355851984602295_);fill:#523742;" points="46.1,40.296 
			43.915,41.436 41.883,42.874 40.516,44.972 39.601,48.219 39.665,50.589 40.207,52.888 41.706,54.706 42.987,55.968 
			44.456,56.987 44.763,57.351 45.576,57.756 46.044,57.817 48.516,58.456 50.701,58.615 52.758,57.896 54.681,56.895 56.113,55.25 
			57.121,53.98 58.009,52.195 58.385,50.32 58.32,47.858 57.722,45.517 56.221,43.599 54.163,41.387 52.605,40.612 50.657,40.298 
			48.557,39.983 		"/>
		<g style="clip-path:url(#SVGID_00000032627538180487364270000013780355851984602295_);">
			<defs>
				
					<rect id="SVGID_00000165940220589695097490000000548160716282949015_" x="4.929" y="67.339" transform="matrix(0.9874 -0.1584 0.1584 0.9874 -12.7882 3.111)" width="16.398" height="28.929"/>
			</defs>
			<clipPath id="SVGID_00000072996716748479550110000000866970152936449191_">
				<use xlink:href="#SVGID_00000165940220589695097490000000548160716282949015_"  style="overflow:visible;"/>
			</clipPath>
			<path style="clip-path:url(#SVGID_00000072996716748479550110000000866970152936449191_);fill:#E33A3A;" d="M18.442,90.932
				c-2.233,1.798-9.557,3.558-9.557,3.558c-1.303-1.816-0.879-2.017-1.779-4.778c-0.037-0.114-0.275-1.871-0.317-1.974
				c-0.242-0.59-0.854-5.423,0.357-8.936c0.176-0.515,0.239-1.067,0.368-1.672c-1.144-0.302-2.226-0.589-3.329-0.879
				c0.897-1.832,8.338-7.764,11.648-9.277c1.983,3.882,3.646,7.887,5.033,12.295c-1.419-0.193-2.536-0.344-3.886-0.526
				c-0.361,2.286-0.627,4.178-0.475,6.423C16.636,87.126,17.138,89.116,18.442,90.932"/>
		</g>
		<g style="clip-path:url(#SVGID_00000032627538180487364270000013780355851984602295_);">
			<defs>
				
					<rect id="SVGID_00000055671257465965090770000015287946188979361708_" x="10.26" y="50.059" transform="matrix(0.7018 -0.7123 0.7123 0.7018 -34.128 34.9821)" width="28.929" height="16.4"/>
			</defs>
			<clipPath id="SVGID_00000031919955984248628130000007931292402227396007_">
				<use xlink:href="#SVGID_00000055671257465965090770000015287946188979361708_"  style="overflow:visible;"/>
			</clipPath>
			<path style="clip-path:url(#SVGID_00000031919955984248628130000007931292402227396007_);fill:#5699DE;" d="M20.515,67.947
				c-2.771-0.735-8.527-5.595-8.527-5.595c0.692-2.126,1.106-1.902,2.798-4.262c0.069-0.098,1.345-1.331,1.403-1.425
				c0.332-0.544,3.864-3.9,7.411-5.005c0.519-0.162,1.002-0.439,1.566-0.692c-0.434-1.101-0.844-2.142-1.262-3.204
				c2.006-0.361,11.192,2.122,14.372,3.893c-1.954,3.897-4.197,7.608-6.927,11.338c-0.686-1.259-1.225-2.248-1.877-3.444
				c-2.056,1.062-3.739,1.969-5.458,3.42C22.513,64.238,21.206,65.82,20.515,67.947"/>
		</g>
		<g style="clip-path:url(#SVGID_00000032627538180487364270000013780355851984602295_);">
			<defs>
				
					<rect id="SVGID_00000142173929681609093110000012943257632037651621_" x="2.601" y="5.028" transform="matrix(0.9845 -0.1756 0.1756 0.9845 -2.0573 3.2017)" width="28.929" height="16.399"/>
			</defs>
			<clipPath id="SVGID_00000015316135224544042810000011869372391510358929_">
				<use xlink:href="#SVGID_00000142173929681609093110000012943257632037651621_"  style="overflow:visible;"/>
			</clipPath>
			<path style="clip-path:url(#SVGID_00000015316135224544042810000011869372391510358929_);fill:#F26C2B;" d="M8.032,18.7
				c-1.836-2.201-3.724-9.493-3.724-9.493c1.793-1.335,2.001-0.914,4.746-1.862c0.113-0.04,1.866-0.308,1.969-0.352
				c0.585-0.251,5.406-0.948,8.94,0.201c0.518,0.168,1.072,0.221,1.678,0.34c0.282-1.149,0.55-2.236,0.822-3.344
				c1.846,0.864,7.907,8.2,9.478,11.484c-3.847,2.05-7.822,3.783-12.206,5.247c0.169-1.423,0.3-2.542,0.459-3.895
				c-2.291-0.321-4.189-0.555-6.431-0.363C11.806,16.828,9.825,17.365,8.032,18.7"/>
		</g>
		<g style="clip-path:url(#SVGID_00000032627538180487364270000013780355851984602295_);">
			<defs>
				
					<rect id="SVGID_00000000221488639083759410000013938563038581874848_" x="32.609" y="9.947" transform="matrix(0.6894 -0.7244 0.7244 0.6894 -5.0078 37.1456)" width="16.4" height="28.93"/>
			</defs>
			<clipPath id="SVGID_00000067215356467825556470000002655825014248646557_">
				<use xlink:href="#SVGID_00000000221488639083759410000013938563038581874848_"  style="overflow:visible;"/>
			</clipPath>
			<path style="clip-path:url(#SVGID_00000067215356467825556470000002655825014248646557_);fill:#E1D153;" d="M31.049,20.372
				c0.687-2.783,5.445-8.623,5.445-8.623c2.138,0.655,1.922,1.072,4.311,2.723c0.099,0.067,1.353,1.321,1.449,1.379
				c0.549,0.322,3.966,3.794,5.133,7.322c0.171,0.516,0.456,0.994,0.719,1.553c1.093-0.452,2.128-0.88,3.181-1.317
				c0.397,1.999-1.926,11.227-3.641,14.437c-3.93-1.885-7.68-4.063-11.456-6.727c1.246-0.708,2.226-1.265,3.41-1.937
				c-1.097-2.038-2.034-3.705-3.515-5.398C34.792,22.305,33.187,21.026,31.049,20.372"/>
		</g>
		<g style="clip-path:url(#SVGID_00000032627538180487364270000013780355851984602295_);">
			<defs>
				
					<rect id="SVGID_00000129898546803998083710000017407524618679949202_" x="75.686" y="11.775" transform="matrix(0.0182 -0.9998 0.9998 0.0182 68.5356 109.7472)" width="28.929" height="16.4"/>
			</defs>
			<clipPath id="SVGID_00000106119799780530822040000015932057300949911998_">
				<use xlink:href="#SVGID_00000129898546803998083710000017407524618679949202_"  style="overflow:visible;"/>
			</clipPath>
			<path style="clip-path:url(#SVGID_00000106119799780530822040000015932057300949911998_);fill:#55C95A;" d="M86.53,10.054
				c2.515-1.376,10.034-1.816,10.034-1.816c0.963,2.017,0.509,2.14,0.909,5.016c0.016,0.118-0.059,1.89-0.037,2
				c0.134,0.622-0.115,5.488-1.927,8.732c-0.264,0.475-0.423,1.009-0.658,1.58c1.074,0.5,2.088,0.973,3.122,1.453
				c-1.205,1.645-9.575,6.172-13.1,7.077c-1.268-4.17-2.198-8.406-2.787-12.99c1.363,0.441,2.436,0.786,3.732,1.204
				c0.76-2.186,1.356-4.003,1.602-6.239C87.635,14.119,87.493,12.072,86.53,10.054"/>
		</g>
		<g style="clip-path:url(#SVGID_00000032627538180487364270000013780355851984602295_);">
			<defs>
				
					<rect id="SVGID_00000060012445690360053350000009843861186280111794_" x="60.119" y="32.905" transform="matrix(0.8165 -0.5773 0.5773 0.8165 -10.0463 50.6002)" width="28.93" height="16.4"/>
			</defs>
			<clipPath id="SVGID_00000041983292283585385910000015700771731931664022_">
				<use xlink:href="#SVGID_00000060012445690360053350000009843861186280111794_"  style="overflow:visible;"/>
			</clipPath>
			<path style="clip-path:url(#SVGID_00000041983292283585385910000015700771731931664022_);fill:#AD70D6;" d="M80.435,32.312
				c2.598,1.213,7.406,7.011,7.406,7.011c-1.055,1.971-1.423,1.677-3.505,3.703c-0.085,0.083-1.558,1.071-1.632,1.155
				c-0.423,0.476-4.492,3.156-8.178,3.618c-0.539,0.069-1.064,0.256-1.663,0.405c0.232,1.161,0.452,2.258,0.677,3.377
				c-2.039,0.002-10.643-4.062-13.459-6.367c2.609-3.491,5.472-6.749,8.817-9.938c0.453,1.36,0.808,2.429,1.24,3.721
				c2.211-0.683,4.027-1.279,5.976-2.404C77.815,35.61,79.379,34.283,80.435,32.312"/>
		</g>
		<g style="clip-path:url(#SVGID_00000032627538180487364270000013780355851984602295_);">
			<defs>
				
					<rect id="SVGID_00000081608598017514693910000016725571631152971966_" x="50.425" y="59.85" transform="matrix(0.734 -0.6792 0.6792 0.734 -34.8768 59.5869)" width="16.4" height="28.929"/>
			</defs>
			<clipPath id="SVGID_00000012467804210970963700000008972408402706036621_">
				<use xlink:href="#SVGID_00000081608598017514693910000016725571631152971966_"  style="overflow:visible;"/>
			</clipPath>
			<path style="clip-path:url(#SVGID_00000012467804210970963700000008972408402706036621_);fill:#9F9EB1;" d="M68.109,79.447
				c-0.862,2.734-5.981,8.26-5.981,8.26c-2.093-0.788-1.85-1.192-4.13-2.99c-0.094-0.075-1.266-1.406-1.359-1.468
				c-0.527-0.357-3.717-4.039-4.657-7.634c-0.139-0.526-0.393-1.022-0.619-1.596c-1.12,0.382-2.18,0.744-3.259,1.114
				c-0.269-2.022,2.635-11.083,4.55-14.178c3.804,2.131,7.407,4.543,11.007,7.441c-1.289,0.627-2.302,1.12-3.527,1.717
				c0.966,2.103,1.795,3.825,3.165,5.609C64.496,77.281,66.016,78.659,68.109,79.447"/>
		</g>
	</g>
</g>
</svg>
