<?xml version="1.0" encoding="iso-8859-1"?>
<!-- Generator: Adobe Illustrator 26.0.1, SVG Export Plug-In . SVG Version: 6.00 Build 0)  -->
<svg version="1.1" xmlns="http://www.w3.org/2000/svg" xmlns:xlink="http://www.w3.org/1999/xlink" x="0px" y="0px"
	 viewBox="0 0 100 100" style="enable-background:new 0 0 100 100;" xml:space="preserve">
<g id="Layer_1">
	<g id="G_x28__tree_x28__T3_T2_T2__x29__L1__x29__00000083076316036497303620000011057631686345673647_">
		<g>
			<defs>
				<rect id="SVGID_1_" x="9" y="4" width="97.423" height="93.307"/>
			</defs>
			<clipPath id="SVGID_00000118372152670329291520000001399252602916843911_">
				<use xlink:href="#SVGID_1_"  style="overflow:visible;"/>
			</clipPath>
			<polygon style="clip-path:url(#SVGID_00000118372152670329291520000001399252602916843911_);fill:#523742;" points="
				77.235,73.832 75.123,74.049 72.82,74.963 70.988,76.61 69.377,78.508 68.575,80.877 68.574,80.882 68.494,84.252 69.145,86.533 
				70.242,88.625 72.145,90.013 73.7,90.918 75.376,91.54 75.765,91.816 76.649,92.005 77.121,91.948 79.672,91.954 81.829,91.565 
				83.643,90.357 85.258,88.91 86.237,86.959 86.896,85.48 87.313,83.532 87.212,81.621 86.536,79.251 85.376,77.133 83.446,75.647 
				80.9,74.016 79.201,73.653 			"/>
			<g style="clip-path:url(#SVGID_00000118372152670329291520000001399252602916843911_);">
				<defs>
					
						<rect id="SVGID_00000080187921919180213060000000007923654874019227_" x="63.722" y="38.546" transform="matrix(0.4671 -0.8842 0.8842 0.4671 0.3332 94.0458)" width="28.928" height="16.4"/>
				</defs>
				<clipPath id="SVGID_00000149349301561115272140000009131707759837257364_">
					<use xlink:href="#SVGID_00000080187921919180213060000000007923654874019227_"  style="overflow:visible;"/>
				</clipPath>
				<path style="clip-path:url(#SVGID_00000149349301561115272140000009131707759837257364_);fill:#55C95A;" d="M79.426,36.257
					c2.866-0.094,9.777,2.902,9.777,2.902c-0.049,2.235-0.51,2.14-1.451,4.888c-0.038,0.112-0.905,1.66-0.932,1.769
					c-0.163,0.615-2.579,4.846-5.657,6.925c-0.45,0.306-0.834,0.71-1.3,1.115c0.732,0.929,1.424,1.808,2.131,2.705
					c-1.817,0.924-11.329,1.192-14.882,0.41c0.747-4.293,1.826-8.494,3.367-12.852c1.018,1.009,1.819,1.801,2.789,2.758
					c1.662-1.609,3.012-2.962,4.241-4.848C78.582,40.383,79.376,38.492,79.426,36.257"/>
			</g>
			<g style="clip-path:url(#SVGID_00000118372152670329291520000001399252602916843911_);">
				<defs>
					<polygon id="SVGID_00000103227987021815955090000007144867403454259093_" points="21.647,28.472 50.373,31.891 52.312,15.607 
						23.634,12.193 23.585,12.189 					"/>
				</defs>
				<clipPath id="SVGID_00000180335252602039583640000006995609850858915756_">
					<use xlink:href="#SVGID_00000103227987021815955090000007144867403454259093_"  style="overflow:visible;"/>
				</clipPath>
				<path style="clip-path:url(#SVGID_00000180335252602039583640000006995609850858915756_);fill:#5699DE;" d="M26.744,24.65
					c-1.118-2.64-0.804-10.165-0.804-10.165c2.104-0.757,2.18-0.293,5.082-0.403c0.119-0.004,1.875,0.248,1.987,0.237
					c0.632-0.071,5.448,0.663,8.495,2.79c0.446,0.311,0.962,0.522,1.506,0.813c0.605-1.019,1.177-1.98,1.758-2.961
					c1.517,1.364,5.184,10.145,5.732,13.742c-4.276,0.845-8.584,1.346-13.204,1.474c0.575-1.312,1.026-2.345,1.571-3.593
					c-2.099-0.975-3.847-1.749-6.047-2.218C30.899,23.957,28.848,23.894,26.744,24.65"/>
			</g>
			<g style="clip-path:url(#SVGID_00000118372152670329291520000001399252602916843911_);">
				<defs>
					
						<rect id="SVGID_00000023966087911396920380000007635105666777527739_" x="48.246" y="25.179" transform="matrix(0.8702 -0.4928 0.4928 0.8702 -12.2059 32.9623)" width="16.399" height="28.928"/>
				</defs>
				<clipPath id="SVGID_00000049915836328542575530000010296403535345386384_">
					<use xlink:href="#SVGID_00000023966087911396920380000007635105666777527739_"  style="overflow:visible;"/>
				</clipPath>
				<path style="clip-path:url(#SVGID_00000049915836328542575530000010296403535345386384_);fill:#F26C2B;" d="M48.282,32.941
					c1.467-2.464,7.716-6.668,7.716-6.668c1.856,1.247,1.527,1.584,3.334,3.858c0.075,0.093,0.91,1.657,0.987,1.739
					c0.43,0.468,2.69,4.785,2.781,8.499c0.015,0.543,0.148,1.084,0.237,1.695c1.178-0.115,2.292-0.224,3.428-0.336
					c-0.202,2.029-5.107,10.184-7.682,12.755c-3.212-2.945-6.168-6.12-9.006-9.767c1.399-0.315,2.497-0.561,3.827-0.861
					c-0.458-2.268-0.871-4.135-1.795-6.187C51.301,35.878,50.137,34.189,48.282,32.941"/>
			</g>
			<g style="clip-path:url(#SVGID_00000118372152670329291520000001399252602916843911_);">
				<defs>
					<polygon id="SVGID_00000054248967817043954370000009893850393968915856_" points="17.177,62.191 17.135,62.215 25.214,76.487 
						50.389,62.237 42.311,47.965 					"/>
				</defs>
				<clipPath id="SVGID_00000041256051786610971740000018183146057144986296_">
					<use xlink:href="#SVGID_00000054248967817043954370000009893850393968915856_"  style="overflow:visible;"/>
				</clipPath>
				<path style="clip-path:url(#SVGID_00000041256051786610971740000018183146057144986296_);fill:#E33A3A;" d="M27.058,70.389
					c-2.463-1.466-6.665-7.717-6.665-7.717c1.247-1.855,1.584-1.526,3.857-3.333c0.094-0.074,1.658-0.91,1.741-0.985
					c0.468-0.432,4.784-2.692,8.499-2.78c0.544-0.014,1.084-0.149,1.695-0.237c-0.115-1.178-0.223-2.293-0.336-3.427
					c2.029,0.202,10.183,5.107,12.754,7.682c-2.945,3.212-6.121,6.167-9.768,9.005c-0.314-1.398-0.562-2.497-0.861-3.826
					c-2.269,0.457-4.136,0.867-6.187,1.793C29.997,67.37,28.307,68.534,27.058,70.389"/>
			</g>
			<g style="clip-path:url(#SVGID_00000118372152670329291520000001399252602916843911_);">
				<defs>
					
						<rect id="SVGID_00000147927266999285948150000009355216849185386655_" x="51.672" y="50.424" transform="matrix(0.4096 -0.9123 0.9123 0.4096 -23.8477 92.928)" width="16.4" height="28.929"/>
				</defs>
				<clipPath id="SVGID_00000070086108869166750710000001138957081500015528_">
					<use xlink:href="#SVGID_00000147927266999285948150000009355216849185386655_"  style="overflow:visible;"/>
				</clipPath>
				<path style="clip-path:url(#SVGID_00000070086108869166750710000001138957081500015528_);fill:#9F9EB1;" d="M49.325,64.321
					c-0.276-2.854,2.272-9.942,2.272-9.942c2.233-0.093,2.168,0.373,4.971,1.135c0.115,0.032,1.715,0.798,1.824,0.819
					c0.625,0.122,5.002,2.263,7.273,5.203c0.334,0.429,0.762,0.786,1.195,1.225c0.882-0.79,1.715-1.537,2.563-2.299
					c1.039,1.755,1.913,11.23,1.36,14.827c-4.333-0.472-8.593-1.281-13.04-2.54c0.941-1.082,1.681-1.931,2.574-2.96
					c-1.712-1.557-3.149-2.818-5.109-3.924C53.496,64.9,51.558,64.228,49.325,64.321"/>
			</g>
			<g style="clip-path:url(#SVGID_00000118372152670329291520000001399252602916843911_);">
				<defs>
					<rect id="SVGID_00000127004073942715062550000009944425957825116332_" x="9" y="4" width="97.423" height="93.307"/>
				</defs>
				<clipPath id="SVGID_00000038389378029659903620000014451780112086281614_">
					<use xlink:href="#SVGID_00000127004073942715062550000009944425957825116332_"  style="overflow:visible;"/>
				</clipPath>
				<path style="clip-path:url(#SVGID_00000038389378029659903620000014451780112086281614_);fill:#AD70D6;" d="M19.932,91.518
					c-2.581,1.248-10.112,1.31-10.112,1.31c-0.861-2.064-0.402-2.163-0.656-5.056c-0.01-0.118,0.154-1.885,0.137-1.996
					c-0.102-0.628,0.391-5.474,2.363-8.624c0.289-0.46,0.474-0.986,0.737-1.544c-1.048-0.554-2.036-1.077-3.045-1.608
					c1.287-1.583,9.874-5.684,13.439-6.411c1.057,4.229,1.773,8.507,2.131,13.114c-1.339-0.508-2.393-0.907-3.667-1.389
					c-0.869,2.145-1.555,3.929-1.914,6.15C19.033,87.403,19.072,89.454,19.932,91.518"/>
				<path style="clip-path:url(#SVGID_00000038389378029659903620000014451780112086281614_);fill:#E1D153;" d="M71.719,15.811
					c1.156-2.624,6.849-7.556,6.849-7.556c1.994,1.012,1.709,1.386,3.778,3.424c0.085,0.083,1.105,1.535,1.191,1.606
					c0.484,0.414,3.251,4.423,3.793,8.098c0.081,0.538,0.278,1.059,0.442,1.655c1.154-0.258,2.246-0.501,3.361-0.75
					c0.046,2.038-3.831,10.728-6.075,13.592c-3.546-2.532-6.866-5.324-10.127-8.6c1.351-0.481,2.412-0.86,3.694-1.32
					c-0.73-2.194-1.365-3.997-2.533-5.922C75.073,18.358,73.712,16.824,71.719,15.811"/>
			</g>
		</g>
	</g>
</g>
<g id="Layer_2">
	<g id="Layer_3">
	</g>
</g>
</svg>
