<?xml version="1.0" encoding="iso-8859-1"?>
<!-- Generator: Adobe Illustrator 26.0.1, SVG Export Plug-In . SVG Version: 6.00 Build 0)  -->
<svg version="1.1" xmlns="http://www.w3.org/2000/svg" xmlns:xlink="http://www.w3.org/1999/xlink" x="0px" y="0px"
	 viewBox="0 0 100 100" style="enable-background:new 0 0 100 100;" xml:space="preserve">
<g id="Layer_1">
	<g>
		<defs>
			<rect id="SVGID_1_" x="5" y="8" width="88.96" height="83.48"/>
		</defs>
		<clipPath id="SVGID_00000153698675986783636870000016234897864658135701_">
			<use xlink:href="#SVGID_1_"  style="overflow:visible;"/>
		</clipPath>
		<polygon style="clip-path:url(#SVGID_00000153698675986783636870000016234897864658135701_);fill:#F26C2B;" points="38.959,28 
			37.076,28.587 35.057,29.24 32.997,30.615 31.548,32.61 30.37,34.801 30.081,37.29 30.709,40.604 31.82,42.698 33.331,44.514 
			35.483,45.474 37.192,46.032 38.962,46.291 39.4,46.48 40.306,46.48 40.754,46.326 43.25,45.798 45.279,44.966 46.8,43.405 
			48.074,41.652 48.625,39.541 48.96,37.96 48.96,35.962 48.461,34.116 47.307,31.94 45.728,30.111 43.529,29.063 40.701,28 		"/>
		<g style="clip-path:url(#SVGID_00000153698675986783636870000016234897864658135701_);">
			<defs>
				
					<rect id="SVGID_00000154401384936881708150000000522600024949284744_" x="13.026" y="5.595" transform="matrix(0.2915 -0.9566 0.9566 0.2915 -4.1493 34.5182)" width="16.4" height="28.929"/>
			</defs>
			<clipPath id="SVGID_00000119814743303751259580000001613535917280425357_">
				<use xlink:href="#SVGID_00000154401384936881708150000000522600024949284744_"  style="overflow:visible;"/>
			</clipPath>
			<path style="clip-path:url(#SVGID_00000119814743303751259580000001613535917280425357_);fill:#E1D153;" d="M10.692,20.824
				c-0.634-2.796,1.001-10.148,1.001-10.148c2.205-0.374,2.199,0.096,5.075,0.5c0.118,0.017,1.801,0.575,1.913,0.583
				c0.635,0.042,5.246,1.614,7.87,4.244c0.385,0.385,0.854,0.685,1.34,1.067c0.774-0.895,1.507-1.741,2.253-2.604
				c1.251,1.609,3.312,10.899,3.217,14.538c-4.358,0.076-8.687-0.19-13.256-0.878c0.796-1.192,1.422-2.128,2.179-3.26
				c-1.894-1.329-3.479-2.399-5.561-3.25C14.904,20.874,12.897,20.45,10.692,20.824"/>
		</g>
		<polygon style="clip-path:url(#SVGID_00000153698675986783636870000016234897864658135701_);fill:#55C95A;" points="82.958,28 
			81.076,28.587 79.056,29.24 76.996,30.615 75.548,32.61 74.37,34.801 74.081,37.29 74.709,40.604 75.82,42.698 77.331,44.514 
			79.483,45.474 81.192,46.032 82.962,46.291 83.399,46.48 84.306,46.48 84.754,46.326 87.25,45.798 89.279,44.966 90.8,43.405 
			92.074,41.652 92.624,39.541 92.96,37.96 92.96,35.962 92.461,34.116 91.306,31.94 89.728,30.111 87.529,29.063 84.7,28 		"/>
		<g style="clip-path:url(#SVGID_00000153698675986783636870000016234897864658135701_);">
			<defs>
				
					<rect id="SVGID_00000180343286586934369540000003122074885206232741_" x="57.026" y="5.595" transform="matrix(0.2915 -0.9566 0.9566 0.2915 27.0264 76.6078)" width="16.4" height="28.929"/>
			</defs>
			<clipPath id="SVGID_00000114062630234767189520000001673712622872253870_">
				<use xlink:href="#SVGID_00000180343286586934369540000003122074885206232741_"  style="overflow:visible;"/>
			</clipPath>
			<path style="clip-path:url(#SVGID_00000114062630234767189520000001673712622872253870_);fill:#AD70D6;" d="M54.692,20.824
				c-0.634-2.796,1.001-10.148,1.001-10.148c2.205-0.374,2.199,0.096,5.075,0.5c0.118,0.017,1.801,0.575,1.913,0.583
				c0.635,0.042,5.246,1.614,7.87,4.244c0.385,0.385,0.854,0.685,1.34,1.067c0.774-0.895,1.507-1.741,2.253-2.604
				c1.251,1.609,3.312,10.899,3.217,14.538c-4.358,0.076-8.687-0.19-13.256-0.878c0.796-1.192,1.422-2.128,2.179-3.26
				c-1.894-1.329-3.479-2.399-5.561-3.25C58.904,20.874,56.897,20.45,54.692,20.824"/>
		</g>
		<g style="clip-path:url(#SVGID_00000153698675986783636870000016234897864658135701_);">
			<defs>
				
					<rect id="SVGID_00000034811711297227186420000007198988447997717679_" x="14.026" y="50.595" transform="matrix(0.2915 -0.9566 0.9566 0.2915 -46.4869 67.3589)" width="16.4" height="28.929"/>
			</defs>
			<clipPath id="SVGID_00000003794361304171821550000018396605068145838515_">
				<use xlink:href="#SVGID_00000034811711297227186420000007198988447997717679_"  style="overflow:visible;"/>
			</clipPath>
		</g>
		<polygon style="clip-path:url(#SVGID_00000153698675986783636870000016234897864658135701_);fill:#E33A3A;" points="83.959,73 
			82.076,73.587 80.057,74.24 77.997,75.615 76.548,77.61 75.37,79.801 75.081,82.29 75.709,85.604 76.82,87.698 78.331,89.514 
			80.483,90.474 82.192,91.032 83.962,91.291 84.4,91.48 85.306,91.48 85.754,91.326 88.25,90.798 90.279,89.966 91.8,88.405 
			93.074,86.652 93.625,84.541 93.96,82.96 93.96,80.962 93.461,79.116 92.307,76.94 90.728,75.111 88.529,74.063 85.701,73 		"/>
		<g style="clip-path:url(#SVGID_00000153698675986783636870000016234897864658135701_);">
			<defs>
				
					<rect id="SVGID_00000137120936791081405250000017707212559805380260_" x="58.026" y="50.595" transform="matrix(0.2915 -0.9566 0.9566 0.2915 -15.3113 109.4486)" width="16.4" height="28.929"/>
			</defs>
			<clipPath id="SVGID_00000141414938165005824950000015109898651532796288_">
				<use xlink:href="#SVGID_00000137120936791081405250000017707212559805380260_"  style="overflow:visible;"/>
			</clipPath>
			<path style="clip-path:url(#SVGID_00000141414938165005824950000015109898651532796288_);fill:#5699DE;" d="M55.692,65.824
				c-0.634-2.796,1.001-10.148,1.001-10.148c2.205-0.374,2.199,0.096,5.075,0.5c0.118,0.017,1.801,0.575,1.913,0.583
				c0.635,0.042,5.246,1.614,7.87,4.244c0.385,0.385,0.854,0.685,1.34,1.067c0.774-0.895,1.507-1.741,2.253-2.604
				c1.251,1.609,3.312,10.899,3.217,14.538c-4.358,0.076-8.687-0.19-13.256-0.878c0.796-1.192,1.422-2.128,2.179-3.26
				c-1.894-1.329-3.479-2.399-5.561-3.25C59.904,65.874,57.897,65.45,55.692,65.824"/>
		</g>
	</g>
	
		<image style="display:none;overflow:visible;" width="80" height="80" xlink:href="../old_images/xrule13.jpg"  transform="matrix(0.2 0 0 0.2 1.5223 81.0468)">
	</image>
	<g id="L2_00000137854956210956361070000017490682129561228165_">
		<g>
			<defs>
				<rect id="SVGID_00000134238242426548459100000010436305303486562212_" x="12" y="55" width="31.359" height="34.868"/>
			</defs>
			<clipPath id="SVGID_00000095332729192419723730000008016262215529686657_">
				<use xlink:href="#SVGID_00000134238242426548459100000010436305303486562212_"  style="overflow:visible;"/>
			</clipPath>
			<g style="clip-path:url(#SVGID_00000095332729192419723730000008016262215529686657_);">
				<defs>
					<rect id="SVGID_00000065034005014158379050000005015154926378874499_" x="12" y="55" width="31.359" height="34.868"/>
				</defs>
				<clipPath id="SVGID_00000026151499522312689330000014228405404769479345_">
					<use xlink:href="#SVGID_00000065034005014158379050000005015154926378874499_"  style="overflow:visible;"/>
				</clipPath>
				<g style="clip-path:url(#SVGID_00000026151499522312689330000014228405404769479345_);">
					<defs>
						
							<rect id="SVGID_00000085949353865477659020000001591070460094161827_" x="13.264" y="54.997" width="30.098" height="18.779"/>
					</defs>
					<clipPath id="SVGID_00000147932426892518651870000014710557190881673642_">
						<use xlink:href="#SVGID_00000085949353865477659020000001591070460094161827_"  style="overflow:visible;"/>
					</clipPath>
					<g style="clip-path:url(#SVGID_00000147932426892518651870000014710557190881673642_);">
						<defs>
							
								<rect id="SVGID_00000168801463779512285610000001640735088095481515_" x="13.264" y="54.997" width="30.098" height="18.779"/>
						</defs>
						<clipPath id="SVGID_00000001665038696375797880000009709397845850868135_">
							<use xlink:href="#SVGID_00000168801463779512285610000001640735088095481515_"  style="overflow:visible;"/>
						</clipPath>
						<path style="clip-path:url(#SVGID_00000001665038696375797880000009709397845850868135_);fill:#523742;" d="M39.693,61.496
							c1.33-0.04,2.04-2.21,3.67-1.07c-0.27,4.39-0.53,8.73-0.81,13.35c-4.26-0.64-8.21-2.15-12.23-3.33
							c-0.22-0.34-0.4-0.63-0.63-0.97c1.08-0.93,2.19-1.87,3.32-2.84c-0.9-2.8-3.33-3.45-5.51-3.8c-3.55-0.57-4.85,2.27-5.92,4.63
							c-0.1,0.96-0.16,1.62-0.25,2.5c-2.83-0.65-5.4-1.24-8.01-1.85c-0.02-0.25-0.1-0.47-0.03-0.62c0.78-1.91,1.3-4.01,2.45-5.66
							c2.89-4.13,6.85-6.66,12.07-6.83c3.34-0.1,6.39,0.64,8.85,3.01C37.743,59.056,38.643,60.276,39.693,61.496"/>
					</g>
				</g>
				<g style="clip-path:url(#SVGID_00000026151499522312689330000014228405404769479345_);">
					<defs>
						<rect id="SVGID_00000070830650048918326630000005573836934924321201_" x="12.003" y="71.656" width="29.36" height="18.213"/>
					</defs>
					<clipPath id="SVGID_00000178908057118761478850000013327371590884876194_">
						<use xlink:href="#SVGID_00000070830650048918326630000005573836934924321201_"  style="overflow:visible;"/>
					</clipPath>
					<g style="clip-path:url(#SVGID_00000178908057118761478850000013327371590884876194_);">
						<defs>
							
								<rect id="SVGID_00000178885626425878292840000004918072609780296367_" x="12.003" y="71.656" width="29.36" height="18.213"/>
						</defs>
						<clipPath id="SVGID_00000019658927079321892680000014812118561901799345_">
							<use xlink:href="#SVGID_00000178885626425878292840000004918072609780296367_"  style="overflow:visible;"/>
						</clipPath>
						<path style="clip-path:url(#SVGID_00000019658927079321892680000014812118561901799345_);fill:#9F9EB1;" d="M41.363,77.446
							c-0.1,0.3-0.17,0.6-0.29,0.87c-1.52,3.45-3.13,6.93-6.51,8.9c-1.9,1.11-4.16,1.59-6.26,2.36c-2.15,0.78-4.14-0.2-6.16-0.61
							c-1.67-0.33-2.86-1.56-4-2.76c-0.82-0.86-1.62-1.74-2.62-2.83c-1.02,0.3-2.14,0.63-3.52,1.04c0.24-4.15,0.49-8.3,0.76-12.76
							c4,1.19,7.88,2.35,12.16,3.63c-1.18,1.02-2.12,1.83-3.03,2.63v1.59c1.49,2.59,3.87,3.08,6.63,3.14
							c3.42,0.08,4.13-2.66,5.59-4.93v-1.92C36.563,76.356,38.923,76.886,41.363,77.446"/>
					</g>
				</g>
			</g>
		</g>
	</g>
</g>
<g id="Layer_2">
</g>
</svg>
