<?xml version="1.0" encoding="iso-8859-1"?>
<!-- Generator: Adobe Illustrator 26.0.1, SVG Export Plug-In . SVG Version: 6.00 Build 0)  -->
<svg version="1.1" xmlns="http://www.w3.org/2000/svg" xmlns:xlink="http://www.w3.org/1999/xlink" x="0px" y="0px"
	 viewBox="0 0 100 100" style="enable-background:new 0 0 100 100;" xml:space="preserve">
<g id="Layer_1" style="display:none;">
	
		<image style="display:inline;overflow:visible;" width="80" height="80" xlink:href="../old_images/xrule2.jpg"  transform="matrix(0.2 0 0 0.2 1.5223 81.0468)">
	</image>
</g>
<g id="Layer_2">
	<g>
		<defs>
			
				<rect id="SVGID_1_" x="62.976" y="51.803" transform="matrix(0.0225 -0.9997 0.9997 0.0225 8.7934 148.2654)" width="34.479" height="35.665"/>
		</defs>
		<clipPath id="SVGID_00000134246855839844405200000001650207959545175214_">
			<use xlink:href="#SVGID_1_"  style="overflow:visible;"/>
		</clipPath>
		<g style="clip-path:url(#SVGID_00000134246855839844405200000001650207959545175214_);">
			<defs>
				
					<rect id="SVGID_00000159441363388719886950000000528249082265333383_" x="62.976" y="51.803" transform="matrix(0.0225 -0.9997 0.9997 0.0225 8.7935 148.2652)" width="34.479" height="35.665"/>
			</defs>
			<clipPath id="SVGID_00000011719432541626652870000014772888321237628575_">
				<use xlink:href="#SVGID_00000159441363388719886950000000528249082265333383_"  style="overflow:visible;"/>
			</clipPath>
			<g style="clip-path:url(#SVGID_00000011719432541626652870000014772888321237628575_);">
				<defs>
					
						<rect id="SVGID_00000078736738644460093380000003008471933075225516_" x="62.977" y="51.808" transform="matrix(0.0225 -0.9997 0.9997 0.0225 8.7923 148.2693)" width="34.48" height="35.662"/>
				</defs>
				<clipPath id="SVGID_00000124146118636768159860000008014507505386367372_">
					<use xlink:href="#SVGID_00000078736738644460093380000003008471933075225516_"  style="overflow:visible;"/>
				</clipPath>
				<g style="clip-path:url(#SVGID_00000124146118636768159860000008014507505386367372_);">
					<defs>
						
							<rect id="SVGID_00000050643878340168085710000006148194004095187088_" x="62.977" y="51.808" transform="matrix(0.0225 -0.9997 0.9997 0.0225 8.7923 148.2693)" width="34.48" height="35.662"/>
					</defs>
					<clipPath id="SVGID_00000080187657547504238120000015355298228713600434_">
						<use xlink:href="#SVGID_00000050643878340168085710000006148194004095187088_"  style="overflow:visible;"/>
					</clipPath>
					<path style="clip-path:url(#SVGID_00000080187657547504238120000015355298228713600434_);fill:#55C95A;" d="M98.066,69.067
						l-0.086,3.804c-0.092,0.28-0.175,0.56-0.266,0.84c-0.567,1.696-1.015,3.448-1.734,5.071c-0.377,0.855-1.103,1.649-1.848,2.214
						c-1.509,1.147-3.133,2.114-4.794,3.205c0.442,0.82,0.924,1.721,1.424,2.64c-2.293,0.75-12.211-0.53-13.284-1.717
						c0.904-2.279,1.689-4.614,2.654-6.962c0.585-1.396,1.231-2.809,1.995-4.201c0.786,1.048,1.432,1.909,2.094,2.796
						c1.576-1.11,3.109-2.194,4.703-3.321c0.227-1.766,2.258-2.997,1.313-5.309c0.68,0.077,1.148,0.14,1.615,0.186
						c1.879,0.192,3.759,0.375,5.638,0.567C97.686,68.9,97.88,69.002,98.066,69.067"/>
					<path style="clip-path:url(#SVGID_00000080187657547504238120000015355298228713600434_);fill:#F26C2B;" d="M92.05,52.66
						c1.4,1.062,5.222,8.452,5.979,11.561c-2.644,0.822-5.326,1.475-8.124,1.958c-0.976,0.172-1.959,0.326-2.959,0.453
						c0.385-1.198,0.679-2.143,1.045-3.28c-1.86-0.676-3.678-1.695-5.582-1.923c-1.658-0.196-3.632-0.337-5.008,1.35
						c-0.245-0.472-0.49-0.936-0.727-1.391c-0.899-1.712-1.757-3.352-2.64-5.037c1.898-1.402,3.856-2.794,6.301-3.135
						c0.103-0.015,0.221,0.014,0.307-0.02c3.299-1.52,6.06,0.013,8.819,1.626c0.404,0.229,0.853,0.372,1.342,0.585
						C91.234,54.457,91.638,53.567,92.05,52.66"/>
					<path style="clip-path:url(#SVGID_00000080187657547504238120000015355298228713600434_);fill:#E33A3A;" d="M65.389,73.873
						c-0.173-1.387-0.022-2.828-0.015-4.255c0.001-0.405,0.018-0.819,0.028-1.242c-1.089-0.086-2.042-0.16-2.987-0.226
						c0.217-2.065,6.437-10.304,8.249-10.897c1.317,1.721,2.702,3.417,3.998,5.261c1.008,1.423,1.954,2.942,2.785,4.635
						c-1.291,0.156-2.239,0.267-3.333,0.401c0.103,1.879-0.138,3.873,0.42,5.577c0.542,1.651,1.475,3.372,3.526,4.29
						c-1.575,2.185-3.035,4.213-4.558,6.329c-2.203-1.353-4.365-2.609-5.737-4.895c-0.263-0.438-0.647-0.799-0.997-1.168
						C65.762,76.622,65.563,75.216,65.389,73.873"/>
				</g>
			</g>
		</g>
	</g>
	<g id="T1_x5F_1_00000143606701565146813330000016883594104613274518_">
		<g>
			<defs>
				
					<rect id="SVGID_00000029759056013891341090000005909035571066027658_" x="20.44" y="3.877" transform="matrix(0.5188 -0.8549 0.8549 0.5188 -1.9185 34.9396)" width="19.273" height="30.593"/>
			</defs>
			<clipPath id="SVGID_00000031917810730228588430000014161407541616087448_">
				<use xlink:href="#SVGID_00000029759056013891341090000005909035571066027658_"  style="overflow:visible;"/>
			</clipPath>
			<g style="clip-path:url(#SVGID_00000031917810730228588430000014161407541616087448_);">
				<defs>
					
						<rect id="SVGID_00000106131345513934992160000001459668967049775788_" x="20.44" y="3.877" transform="matrix(0.5188 -0.8549 0.8549 0.5188 -1.9186 34.9395)" width="19.273" height="30.593"/>
				</defs>
				<clipPath id="SVGID_00000152949162811268061460000009099530026950619796_">
					<use xlink:href="#SVGID_00000106131345513934992160000001459668967049775788_"  style="overflow:visible;"/>
				</clipPath>
				<g style="clip-path:url(#SVGID_00000152949162811268061460000009099530026950619796_);">
					<defs>
						
							<rect id="SVGID_00000151541795737305480740000002390987942908248734_" x="20.688" y="4.125" transform="matrix(0.5188 -0.8549 0.8549 0.5188 -1.9185 34.9407)" width="18.779" height="30.098"/>
					</defs>
					<clipPath id="SVGID_00000171694303651389132450000018348338562013988758_">
						<use xlink:href="#SVGID_00000151541795737305480740000002390987942908248734_"  style="overflow:visible;"/>
					</clipPath>
					<g style="clip-path:url(#SVGID_00000171694303651389132450000018348338562013988758_);">
						<defs>
							
								<rect id="SVGID_00000123435628375655031370000008098741854737738927_" x="20.688" y="4.125" transform="matrix(0.5188 -0.8549 0.8549 0.5188 -1.9185 34.9407)" width="18.779" height="30.098"/>
						</defs>
						<clipPath id="SVGID_00000098908712891439260470000012693200015742121880_">
							<use xlink:href="#SVGID_00000123435628375655031370000008098741854737738927_"  style="overflow:visible;"/>
						</clipPath>
						<path style="clip-path:url(#SVGID_00000098908712891439260470000012693200015742121880_);fill:#E1D153;" d="M41.305,22.606
							c1.158,0.656,2.891-0.831,3.693,0.989c-2.508,3.613-4.982,7.188-7.618,10.993c-3.31-2.757-5.903-6.097-8.728-9.191
							c-0.012-0.405-0.015-0.746-0.035-1.156c1.406-0.235,2.842-0.463,4.312-0.706c0.683-2.861-1.057-4.677-2.739-6.107
							c-2.739-2.329-5.324-0.575-7.463,0.887c-0.584,0.769-0.977,1.302-1.511,2.008c-2.082-2.024-3.973-3.861-5.888-5.737
							c0.113-0.224,0.158-0.454,0.296-0.546c1.658-1.228,3.192-2.754,5.031-3.568c4.613-2.032,9.311-2.14,13.862,0.423
							c2.907,1.647,5.131,3.862,6.004,7.164C40.904,19.509,41.04,21.019,41.305,22.606"/>
					</g>
				</g>
			</g>
		</g>
	</g>
	<g id="T1_x5F_1_00000121246366851674905880000008008750538157539225_">
		<g>
			<defs>
				
					<rect id="SVGID_00000162314692384942658740000010158113988601101471_" x="49.197" y="25.361" transform="matrix(0.4504 -0.8928 0.8928 0.4504 4.1982 76.8151)" width="30.593" height="19.273"/>
			</defs>
			<clipPath id="SVGID_00000081609184187904344180000017783797333911664028_">
				<use xlink:href="#SVGID_00000162314692384942658740000010158113988601101471_"  style="overflow:visible;"/>
			</clipPath>
			<g style="clip-path:url(#SVGID_00000081609184187904344180000017783797333911664028_);">
				<defs>
					
						<rect id="SVGID_00000033337354975417619920000010074674218766622117_" x="49.197" y="25.361" transform="matrix(0.4504 -0.8928 0.8928 0.4504 4.1982 76.815)" width="30.593" height="19.273"/>
				</defs>
				<clipPath id="SVGID_00000011002302716489946310000006797173915758988979_">
					<use xlink:href="#SVGID_00000033337354975417619920000010074674218766622117_"  style="overflow:visible;"/>
				</clipPath>
				<g style="clip-path:url(#SVGID_00000011002302716489946310000006797173915758988979_);">
					<defs>
						
							<rect id="SVGID_00000179640013963790849380000010014042466926975388_" x="49.444" y="25.609" transform="matrix(0.4504 -0.8928 0.8928 0.4504 4.197 76.8152)" width="30.098" height="18.779"/>
					</defs>
					<clipPath id="SVGID_00000138537807303284765950000009433764496574948236_">
						<use xlink:href="#SVGID_00000179640013963790849380000010014042466926975388_"  style="overflow:visible;"/>
					</clipPath>
					<g style="clip-path:url(#SVGID_00000138537807303284765950000009433764496574948236_);">
						<defs>
							
								<rect id="SVGID_00000077295136434915124100000009420456559093581472_" x="49.444" y="25.609" transform="matrix(0.4504 -0.8928 0.8928 0.4504 4.197 76.8152)" width="30.098" height="18.779"/>
						</defs>
						<clipPath id="SVGID_00000050641655969895319780000017969592824565706630_">
							<use xlink:href="#SVGID_00000077295136434915124100000009420456559093581472_"  style="overflow:visible;"/>
						</clipPath>
						<path style="clip-path:url(#SVGID_00000050641655969895319780000017969592824565706630_);fill:#5699DE;" d="M61.949,46.46
							c-0.563,1.205,1.054,2.817-0.698,3.759c-3.798-2.218-7.556-4.405-11.554-6.736c2.49-3.515,5.617-6.362,8.482-9.419
							c0.403-0.043,0.743-0.073,1.15-0.126c0.344,1.383,0.683,2.798,1.04,4.243c2.905,0.458,4.58-1.419,5.875-3.208
							c2.108-2.913,0.158-5.353-1.467-7.371c-0.812-0.522-1.374-0.873-2.119-1.349c1.855-2.234,3.539-4.263,5.26-6.318
							c0.232,0.095,0.465,0.122,0.567,0.252c1.354,1.557,2.995,2.967,3.95,4.737c2.386,4.44,2.861,9.116,0.661,13.853
							c-1.415,3.027-3.45,5.417-6.674,6.546C65.005,45.818,63.511,46.072,61.949,46.46"/>
					</g>
				</g>
			</g>
		</g>
	</g>
	<g id="T1_x5F_1_00000142133837764507095400000017118945349906490252_">
		<g>
			<defs>
				
					<rect id="SVGID_00000000187201585173992280000002925121103111475378_" x="-2.794" y="46.362" transform="matrix(0.4512 -0.8924 0.8924 0.4512 -43.113 41.8869)" width="30.593" height="19.273"/>
			</defs>
			<clipPath id="SVGID_00000145765293026961387490000008204236770268320433_">
				<use xlink:href="#SVGID_00000000187201585173992280000002925121103111475378_"  style="overflow:visible;"/>
			</clipPath>
			<g style="clip-path:url(#SVGID_00000145765293026961387490000008204236770268320433_);">
				<defs>
					
						<rect id="SVGID_00000145034611386879052320000001284361117197129120_" x="-2.794" y="46.363" transform="matrix(0.4512 -0.8924 0.8924 0.4512 -43.113 41.887)" width="30.593" height="19.273"/>
				</defs>
				<clipPath id="SVGID_00000183238061962696862880000001147866070892011912_">
					<use xlink:href="#SVGID_00000145034611386879052320000001284361117197129120_"  style="overflow:visible;"/>
				</clipPath>
				<g style="clip-path:url(#SVGID_00000183238061962696862880000001147866070892011912_);">
					<defs>
						
							<rect id="SVGID_00000072963863527833384770000010225804742589482399_" x="-2.546" y="46.609" transform="matrix(0.4512 -0.8924 0.8924 0.4512 -43.1118 41.8868)" width="30.098" height="18.779"/>
					</defs>
					<clipPath id="SVGID_00000094611571936590593110000001990639591156423051_">
						<use xlink:href="#SVGID_00000072963863527833384770000010225804742589482399_"  style="overflow:visible;"/>
					</clipPath>
					<g style="clip-path:url(#SVGID_00000094611571936590593110000001990639591156423051_);">
						<defs>
							
								<rect id="SVGID_00000116233696993253615250000015668962813196649912_" x="-2.546" y="46.609" transform="matrix(0.4512 -0.8924 0.8924 0.4512 -43.1118 41.8868)" width="30.098" height="18.779"/>
						</defs>
						<clipPath id="SVGID_00000084514556479941773510000012907873846025514158_">
							<use xlink:href="#SVGID_00000116233696993253615250000015668962813196649912_"  style="overflow:visible;"/>
						</clipPath>
						<path style="clip-path:url(#SVGID_00000084514556479941773510000012907873846025514158_);fill:#523742;" d="M15.058,44.539
							c0.564-1.205-1.052-2.818,0.701-3.758c3.796,2.222,7.552,4.412,11.548,6.747c-2.493,3.513-5.623,6.356-8.49,9.411
							c-0.403,0.043-0.743,0.073-1.15,0.125c-0.343-1.383-0.681-2.798-1.036-4.244c-2.905-0.46-4.581,1.415-5.877,3.202
							c-2.111,2.911-0.163,5.352,1.46,7.372c0.812,0.522,1.373,0.874,2.118,1.351c-1.857,2.232-3.543,4.259-5.265,6.313
							c-0.232-0.095-0.465-0.123-0.567-0.253c-1.353-1.558-2.992-2.97-3.945-4.74c-2.382-4.443-2.852-9.118-0.649-13.853
							c1.418-3.026,3.455-5.414,6.68-6.54C12,45.178,13.495,44.925,15.058,44.539"/>
					</g>
				</g>
			</g>
		</g>
	</g>
	<g id="T1_x5F_1_00000148656989697417420260000008316534716421061517_">
		<g>
			<defs>
				
					<rect id="SVGID_00000071539631793917340060000001583412409572277639_" x="36.429" y="56.294" transform="matrix(0.5646 -0.8253 0.8253 0.5646 -39.031 69.188)" width="19.273" height="30.593"/>
			</defs>
			<clipPath id="SVGID_00000163760894495842468120000010995039150456767929_">
				<use xlink:href="#SVGID_00000071539631793917340060000001583412409572277639_"  style="overflow:visible;"/>
			</clipPath>
			<g style="clip-path:url(#SVGID_00000163760894495842468120000010995039150456767929_);">
				<defs>
					
						<rect id="SVGID_00000129203672337698767000000003943109441860070311_" x="36.43" y="56.294" transform="matrix(0.5646 -0.8253 0.8253 0.5646 -39.0309 69.188)" width="19.273" height="30.593"/>
				</defs>
				<clipPath id="SVGID_00000067237441331106983280000018022428116024054416_">
					<use xlink:href="#SVGID_00000129203672337698767000000003943109441860070311_"  style="overflow:visible;"/>
				</clipPath>
				<g style="clip-path:url(#SVGID_00000067237441331106983280000018022428116024054416_);">
					<defs>
						
							<rect id="SVGID_00000016794847146408156680000000511025686236598434_" x="36.676" y="56.541" transform="matrix(0.5646 -0.8253 0.8253 0.5646 -39.0309 69.1868)" width="18.779" height="30.098"/>
					</defs>
					<clipPath id="SVGID_00000179637213992517058770000018101396947365424048_">
						<use xlink:href="#SVGID_00000016794847146408156680000000511025686236598434_"  style="overflow:visible;"/>
					</clipPath>
					<g style="clip-path:url(#SVGID_00000179637213992517058770000018101396947365424048_);">
						<defs>
							
								<rect id="SVGID_00000088843905047118855260000011103846619779405727_" x="36.676" y="56.541" transform="matrix(0.5646 -0.8253 0.8253 0.5646 -39.0309 69.1868)" width="18.779" height="30.098"/>
						</defs>
						<clipPath id="SVGID_00000049185392970547095930000005482333902795458212_">
							<use xlink:href="#SVGID_00000088843905047118855260000011103846619779405727_"  style="overflow:visible;"/>
						</clipPath>
						<path style="clip-path:url(#SVGID_00000049185392970547095930000005482333902795458212_);fill:#AD70D6;" d="M35.041,67.551
							c-1.12-0.718-2.932,0.672-3.633-1.189c2.702-3.471,5.367-6.906,8.206-10.561c3.155,2.934,5.562,6.41,8.214,9.654
							c-0.01,0.405-0.026,0.746-0.028,1.156c-1.416,0.158-2.863,0.307-4.344,0.469c-0.838,2.819,0.8,4.728,2.402,6.247
							c2.608,2.475,5.285,0.865,7.5-0.479c0.625-0.736,1.047-1.247,1.618-1.922c1.969,2.134,3.757,4.072,5.566,6.05
							c-0.125,0.218-0.183,0.444-0.325,0.529c-1.722,1.136-3.337,2.576-5.218,3.288c-4.717,1.777-9.414,1.629-13.818-1.178
							c-2.813-1.803-4.913-4.136-5.605-7.481C35.273,70.665,35.219,69.15,35.041,67.551"/>
					</g>
				</g>
			</g>
		</g>
	</g>
	<g id="L1_00000029036117395874720540000004058481968983362973_">
		<g>
			<defs>
				
					<rect id="SVGID_00000039121416076711791470000003311657110175381141_" x="28.966" y="35.674" transform="matrix(0.5188 -0.8549 0.8549 0.5188 -20.2169 54.3919)" width="18.48" height="18.96"/>
			</defs>
			<clipPath id="SVGID_00000021115502237562220010000009737357827855522445_">
				<use xlink:href="#SVGID_00000039121416076711791470000003311657110175381141_"  style="overflow:visible;"/>
			</clipPath>
			<g style="clip-path:url(#SVGID_00000021115502237562220010000009737357827855522445_);">
				<defs>
					
						<rect id="SVGID_00000020380262621322984750000015499818349384263808_" x="28.966" y="35.674" transform="matrix(0.5188 -0.8549 0.8549 0.5188 -20.2169 54.3919)" width="18.48" height="18.96"/>
				</defs>
				<clipPath id="SVGID_00000132046604592717469420000003333733395380454075_">
					<use xlink:href="#SVGID_00000020380262621322984750000015499818349384263808_"  style="overflow:visible;"/>
				</clipPath>
				<g style="clip-path:url(#SVGID_00000132046604592717469420000003333733395380454075_);">
					<defs>
						
							<rect id="SVGID_00000035511710142026447370000000038866440111302841_" x="28.931" y="35.746" transform="matrix(0.5188 -0.8549 0.8549 0.5188 -20.2807 54.5158)" width="18.706" height="19.053"/>
					</defs>
					<clipPath id="SVGID_00000052783273073129487670000004963842000381219751_">
						<use xlink:href="#SVGID_00000035511710142026447370000000038866440111302841_"  style="overflow:visible;"/>
					</clipPath>
					<g style="clip-path:url(#SVGID_00000052783273073129487670000004963842000381219751_);">
						<defs>
							
								<rect id="SVGID_00000009559903892090543130000005498436027557291150_" x="28.931" y="35.746" transform="matrix(0.5188 -0.8549 0.8549 0.5188 -20.2807 54.5158)" width="18.706" height="19.053"/>
						</defs>
						<clipPath id="SVGID_00000046340530721226612540000014737067568144955027_">
							<use xlink:href="#SVGID_00000009559903892090543130000005498436027557291150_"  style="overflow:visible;"/>
						</clipPath>
						<polygon style="clip-path:url(#SVGID_00000046340530721226612540000014737067568144955027_);fill:#9F9EB1;" points="
							46.786,49.627 46.18,50.428 44.83,51.865 43.265,53.386 41.265,54.222 39.155,54.767 36.99,54.426 34.581,53.582 
							33.597,53.369 33.067,52.622 31.689,51.484 30.518,50.12 29.175,48.183 28.827,45.847 28.962,43.479 30.145,40.321 
							31.683,38.344 33.827,37.081 36.099,36.127 38.574,36.02 40.64,36.509 42.699,37.021 43.951,37.771 45.91,40.264 
							47.245,42.301 47.646,44.684 47.505,47.142 						"/>
					</g>
				</g>
			</g>
		</g>
	</g>
</g>
</svg>
