<?xml version="1.0" encoding="iso-8859-1"?>
<!-- Generator: Adobe Illustrator 26.0.1, SVG Export Plug-In . SVG Version: 6.00 Build 0)  -->
<svg version="1.1" xmlns="http://www.w3.org/2000/svg" xmlns:xlink="http://www.w3.org/1999/xlink" x="0px" y="0px"
	 viewBox="0 0 100 100" style="enable-background:new 0 0 100 100;" xml:space="preserve">
<g id="Layer_1">
	<g>
		<defs>
			<rect id="SVGID_1_" x="71" y="10" width="18.96" height="18.48"/>
		</defs>
		<clipPath id="SVGID_00000072966669627875333780000015120508861434092683_">
			<use xlink:href="#SVGID_1_"  style="overflow:visible;"/>
		</clipPath>
		<g style="clip-path:url(#SVGID_00000072966669627875333780000015120508861434092683_);">
			<defs>
				<rect id="SVGID_00000139998826831841583360000008702882581990000318_" x="71" y="10" width="18.96" height="18.48"/>
			</defs>
			<clipPath id="SVGID_00000173849281858699668020000011849239257026053310_">
				<use xlink:href="#SVGID_00000139998826831841583360000008702882581990000318_"  style="overflow:visible;"/>
			</clipPath>
			<g style="clip-path:url(#SVGID_00000173849281858699668020000011849239257026053310_);">
				<defs>
					<rect id="SVGID_00000070105458551705069860000000316757120486439357_" x="71.082" y="9.948" width="19.053" height="18.706"/>
				</defs>
				<clipPath id="SVGID_00000115488164611217974180000009858872067028946099_">
					<use xlink:href="#SVGID_00000070105458551705069860000000316757120486439357_"  style="overflow:visible;"/>
				</clipPath>
				<g style="clip-path:url(#SVGID_00000115488164611217974180000009858872067028946099_);">
					<defs>
						<rect id="SVGID_00000026142681836712331980000011242961991256627844_" x="71.082" y="9.948" width="19.053" height="18.706"/>
					</defs>
					<clipPath id="SVGID_00000166647642346585820410000015294524289864176271_">
						<use xlink:href="#SVGID_00000026142681836712331980000011242961991256627844_"  style="overflow:visible;"/>
					</clipPath>
					<g id="XMLID_3_" style="clip-path:url(#SVGID_00000166647642346585820410000015294524289864176271_);">
						<g>
							<polygon style="fill:#AD70D6;" points="89.46,16.12 90.14,18.61 90.03,19.61 89.62,21.54 89.08,23.65 87.8,25.41 
								86.28,26.97 84.25,27.8 81.75,28.33 80.8,28.65 79.96,28.29 78.19,28.03 76.48,27.47 74.33,26.51 72.82,24.7 71.71,22.6 
								71.08,19.29 71.37,16.8 72.55,14.61 74,12.62 76.06,11.24 78.08,10.59 80.1,9.96 81.56,9.95 84.53,11.06 86.73,12.11 
								88.31,13.94 							"/>
						</g>
						<g>
						</g>
					</g>
				</g>
			</g>
		</g>
	</g>
	<g>
		<defs>
			<rect id="SVGID_00000029014696890601184910000010081178459900251816_" x="11" y="10" width="18.96" height="18.48"/>
		</defs>
		<clipPath id="SVGID_00000060009540159110211250000014572344835998474667_">
			<use xlink:href="#SVGID_00000029014696890601184910000010081178459900251816_"  style="overflow:visible;"/>
		</clipPath>
		<g style="clip-path:url(#SVGID_00000060009540159110211250000014572344835998474667_);">
			<defs>
				<rect id="SVGID_00000151517030348872556550000003610495110347116710_" x="11" y="10" width="18.96" height="18.48"/>
			</defs>
			<clipPath id="SVGID_00000149382102704666464860000004195549219393685130_">
				<use xlink:href="#SVGID_00000151517030348872556550000003610495110347116710_"  style="overflow:visible;"/>
			</clipPath>
			<g style="clip-path:url(#SVGID_00000149382102704666464860000004195549219393685130_);">
				<defs>
					<rect id="SVGID_00000113313623494135735770000015762960906717276058_" x="11.082" y="9.948" width="19.053" height="18.706"/>
				</defs>
				<clipPath id="SVGID_00000180368623368526422450000002603187282203245741_">
					<use xlink:href="#SVGID_00000113313623494135735770000015762960906717276058_"  style="overflow:visible;"/>
				</clipPath>
				<g style="clip-path:url(#SVGID_00000180368623368526422450000002603187282203245741_);">
					<defs>
						<rect id="SVGID_00000021807789848192040870000009055930521534320277_" x="11.082" y="9.948" width="19.053" height="18.706"/>
					</defs>
					<clipPath id="SVGID_00000036236333806859220630000006860492871435854777_">
						<use xlink:href="#SVGID_00000021807789848192040870000009055930521534320277_"  style="overflow:visible;"/>
					</clipPath>
					<g id="XMLID_1_" style="clip-path:url(#SVGID_00000036236333806859220630000006860492871435854777_);">
						<g>
							<polygon style="fill:#5699DE;" points="29.46,16.12 30.14,18.61 30.03,19.61 29.62,21.54 29.08,23.65 27.8,25.41 
								26.28,26.97 24.25,27.8 21.75,28.33 20.8,28.65 19.96,28.29 18.19,28.03 16.48,27.47 14.33,26.51 12.82,24.7 11.71,22.6 
								11.08,19.29 11.37,16.8 12.55,14.61 14,12.62 16.06,11.24 18.08,10.59 20.1,9.96 21.56,9.95 24.53,11.06 26.73,12.11 
								28.31,13.94 							"/>
						</g>
						<g>
						</g>
					</g>
				</g>
			</g>
		</g>
	</g>
	<g>
		<defs>
			<rect id="SVGID_00000107584656722100982470000004598423512703626659_" x="42" y="17" width="18.96" height="18.48"/>
		</defs>
		<clipPath id="SVGID_00000083053325865532566890000009112714353173921175_">
			<use xlink:href="#SVGID_00000107584656722100982470000004598423512703626659_"  style="overflow:visible;"/>
		</clipPath>
		<g style="clip-path:url(#SVGID_00000083053325865532566890000009112714353173921175_);">
			<defs>
				<rect id="SVGID_00000178166992017297218740000013392317592862201996_" x="42" y="17" width="18.96" height="18.48"/>
			</defs>
			<clipPath id="SVGID_00000165204629689524149280000006798694935975609485_">
				<use xlink:href="#SVGID_00000178166992017297218740000013392317592862201996_"  style="overflow:visible;"/>
			</clipPath>
			<g style="clip-path:url(#SVGID_00000165204629689524149280000006798694935975609485_);">
				<defs>
					<rect id="SVGID_00000026862434131445065160000007452861269228510869_" x="42.082" y="16.948" width="19.053" height="18.706"/>
				</defs>
				<clipPath id="SVGID_00000114044670865597333080000017719583387931917713_">
					<use xlink:href="#SVGID_00000026862434131445065160000007452861269228510869_"  style="overflow:visible;"/>
				</clipPath>
				<g style="clip-path:url(#SVGID_00000114044670865597333080000017719583387931917713_);">
					<defs>
						
							<rect id="SVGID_00000003814137418404584690000008868848393869765821_" x="42.082" y="16.948" width="19.053" height="18.706"/>
					</defs>
					<clipPath id="SVGID_00000127745311163414833040000004438366530276196773_">
						<use xlink:href="#SVGID_00000003814137418404584690000008868848393869765821_"  style="overflow:visible;"/>
					</clipPath>
					<g id="XMLID_2_" style="clip-path:url(#SVGID_00000127745311163414833040000004438366530276196773_);">
						<g>
							<polygon style="fill:#E1D153;" points="60.46,23.12 61.14,25.61 61.03,26.61 60.62,28.54 60.08,30.65 58.8,32.41 
								57.28,33.97 55.25,34.8 52.75,35.33 51.8,35.65 50.96,35.29 49.19,35.03 47.48,34.47 45.33,33.51 43.82,31.7 42.71,29.6 
								42.08,26.29 42.37,23.8 43.55,21.61 45,19.62 47.06,18.24 49.08,17.59 51.1,16.96 52.56,16.95 55.53,18.06 57.73,19.11 
								59.31,20.94 							"/>
						</g>
						<g>
						</g>
					</g>
				</g>
			</g>
		</g>
	</g>
	<g>
		<defs>
			<rect id="SVGID_00000044158527428999112770000012969220208532597928_" x="5" y="48" width="47" height="43.96"/>
		</defs>
		<clipPath id="SVGID_00000016768540685704660110000014511935849883841727_">
			<use xlink:href="#SVGID_00000044158527428999112770000012969220208532597928_"  style="overflow:visible;"/>
		</clipPath>
		<g style="clip-path:url(#SVGID_00000016768540685704660110000014511935849883841727_);">
			<defs>
				<rect id="SVGID_00000159450298763278254230000007724075212205313682_" x="5" y="48" width="47" height="43.96"/>
			</defs>
			<clipPath id="SVGID_00000128445363984025700680000017350421098819349431_">
				<use xlink:href="#SVGID_00000159450298763278254230000007724075212205313682_"  style="overflow:visible;"/>
			</clipPath>
			<g style="clip-path:url(#SVGID_00000128445363984025700680000017350421098819349431_);">
				<defs>
					<rect id="SVGID_00000060031676548263215100000016350501976583795117_" x="5.004" y="48.002" width="46.996" height="43.961"/>
				</defs>
				<clipPath id="SVGID_00000147182703371367425200000001205147341746356105_">
					<use xlink:href="#SVGID_00000060031676548263215100000016350501976583795117_"  style="overflow:visible;"/>
				</clipPath>
				<g style="clip-path:url(#SVGID_00000147182703371367425200000001205147341746356105_);">
					<defs>
						<rect id="SVGID_00000066511921752521731430000017019561295445827259_" x="5.004" y="48.002" width="46.996" height="43.961"/>
					</defs>
					<clipPath id="SVGID_00000141453715246242934320000010482842870700862862_">
						<use xlink:href="#SVGID_00000066511921752521731430000017019561295445827259_"  style="overflow:visible;"/>
					</clipPath>
					<g id="XMLID_4_" style="clip-path:url(#SVGID_00000141453715246242934320000010482842870700862862_);">
						<g>
							<path style="fill:#E33A3A;" d="M43.59,48c1.87,1.32,7.13,10.63,8.22,14.57c-3.46,1.12-6.97,2.03-10.65,2.73
								c-1.28,0.24-2.57,0.47-3.88,0.66c0.47-1.54,0.83-2.75,1.28-4.21c-2.47-0.81-4.9-2.06-7.41-2.29
								c-2.19-0.21-4.8-0.33-6.56,1.86c-0.34-0.59-0.68-1.18-1-1.75c-1.24-2.16-2.42-4.22-3.63-6.35c2.46-1.84,5-3.67,8.21-4.17
								c0.14-0.03,0.29,0.01,0.41-0.04c4.3-2.03,7.98-0.15,11.66,1.82c0.54,0.28,1.14,0.45,1.79,0.71
								C42.57,50.32,43.07,49.17,43.59,48z"/>
						</g>
						<g>
						</g>
					</g>
					<g id="XMLID_5_" style="clip-path:url(#SVGID_00000141453715246242934320000010482842870700862862_);">
						<g>
							<path style="fill:#F26C2B;" d="M52,68.74v4.85c-0.11,0.36-0.21,0.72-0.33,1.08c-0.69,2.18-1.23,4.43-2.13,6.52
								c-0.47,1.1-1.4,2.13-2.37,2.87c-1.95,1.51-4.06,2.79-6.22,4.22c0.61,1.04,1.27,2.17,1.95,3.33
								c-2.99,1.02-16.1-0.33-17.55-1.81c1.13-2.93,2.09-5.93,3.29-8.95c0.73-1.8,1.54-3.62,2.51-5.41c1.06,1.31,1.94,2.39,2.84,3.5
								c2.04-1.46,4.03-2.89,6.1-4.37c0.24-2.26,2.88-3.88,1.57-6.8c0.9,0.08,1.51,0.14,2.13,0.19c2.48,0.19,4.96,0.37,7.45,0.56
								C51.49,68.54,51.75,68.66,52,68.74z"/>
						</g>
						<g>
						</g>
					</g>
					<g id="XMLID_6_" style="clip-path:url(#SVGID_00000141453715246242934320000010482842870700862862_);">
						<g>
							<path style="fill:#55C95A;" d="M21.12,74.59c0.76,2.09,2.04,4.26,4.77,5.37c-2.01,2.83-3.87,5.46-5.82,8.2
								c-2.94-1.66-5.82-3.2-7.7-6.08c-0.36-0.55-0.88-1-1.35-1.46c-1.36-1.32-1.66-3.11-1.93-4.81c-0.27-1.77-0.11-3.61-0.14-5.43
								c-0.02-0.51,0-1.04,0-1.58c-1.44-0.08-2.7-0.15-3.95-0.2c0.23-2.64,8.18-13.32,10.55-14.13c1.78,2.16,3.66,4.28,5.42,6.59
								c1.37,1.79,2.66,3.7,3.81,5.83c-1.7,0.24-2.94,0.4-4.38,0.61C20.59,69.89,20.33,72.44,21.12,74.59z"/>
						</g>
						<g>
						</g>
					</g>
				</g>
			</g>
		</g>
	</g>
	<g id="G_x28__T1_L1__x29__1_">
		<g>
			<defs>
				
					<rect id="SVGID_00000071548313655523111500000001010436978944774283_" x="59.206" y="47.336" transform="matrix(0.4703 -0.8825 0.8825 0.4703 -19.6183 105.9487)" width="38.48" height="43.96"/>
			</defs>
			<clipPath id="SVGID_00000037656884378383499760000000320367850552325540_">
				<use xlink:href="#SVGID_00000071548313655523111500000001010436978944774283_"  style="overflow:visible;"/>
			</clipPath>
			<polygon style="clip-path:url(#SVGID_00000037656884378383499760000000320367850552325540_);fill:#9F9EB1;" points="88.66,75.62 
				86.723,75.253 84.633,74.88 82.168,75.124 79.952,76.204 77.882,77.584 76.457,79.644 75.451,82.864 75.448,85.235 
				75.927,87.548 77.375,89.407 78.621,90.704 80.06,91.764 80.358,92.137 81.158,92.563 81.625,92.638 84.077,93.346 
				86.258,93.565 88.335,92.903 90.284,91.956 91.763,90.351 92.802,89.114 93.741,87.35 94.17,85.487 94.174,83.023 93.641,80.667 
				92.194,78.708 90.197,76.44 			"/>
			<g style="clip-path:url(#SVGID_00000037656884378383499760000000320367850552325540_);">
				<defs>
					
						<rect id="SVGID_00000022539622702623489410000013092608681389500587_" x="68.545" y="45.81" transform="matrix(0.7071 -0.7071 0.7071 0.7071 -20.1418 71.9238)" width="16.4" height="28.929"/>
				</defs>
				<clipPath id="SVGID_00000072251659966561454530000003817352202290996100_">
					<use xlink:href="#SVGID_00000022539622702623489410000013092608681389500587_"  style="overflow:visible;"/>
				</clipPath>
				<path style="clip-path:url(#SVGID_00000072251659966561454530000003817352202290996100_);fill:#523742;" d="M67.088,55.994
					c0.755-2.766,5.656-8.485,5.656-8.485c2.122,0.707,1.896,1.119,4.244,2.828c0.096,0.07,1.319,1.354,1.414,1.414
					c0.541,0.336,3.871,3.891,4.95,7.446c0.159,0.521,0.432,1.006,0.681,1.572c1.104-0.426,2.149-0.828,3.213-1.239
					c0.347,2.008-2.203,11.176-3.998,14.343c-3.882-1.982-7.577-4.253-11.286-7.009c1.263-0.678,2.256-1.209,3.456-1.852
					c-1.046-2.064-1.942-3.753-3.379-5.483C70.782,58.019,69.21,56.701,67.088,55.994"/>
			</g>
		</g>
	</g>
</g>
<g id="Layer_2">
</g>
</svg>
