<?xml version="1.0" encoding="iso-8859-1"?>
<!-- Generator: Adobe Illustrator 26.0.1, SVG Export Plug-In . SVG Version: 6.00 Build 0)  -->
<svg version="1.1" xmlns="http://www.w3.org/2000/svg" xmlns:xlink="http://www.w3.org/1999/xlink" x="0px" y="0px"
	 viewBox="0 0 100 100" style="enable-background:new 0 0 100 100;" xml:space="preserve">
<g id="Layer_1">
	<g id="G_x28__T1_T1_T1_T1_L1__x29__00000155107678199877172430000006601692312518733494_">
		<g>
			<defs>
				
					<rect id="SVGID_1_" x="8.059" y="20.717" transform="matrix(0.9619 -0.2732 0.2732 0.9619 -15.4127 15.9491)" width="82.987" height="85.181"/>
			</defs>
			<clipPath id="SVGID_00000047755259683932680270000002481457333870516900_">
				<use xlink:href="#SVGID_1_"  style="overflow:visible;"/>
			</clipPath>
			<g style="clip-path:url(#SVGID_00000047755259683932680270000002481457333870516900_);">
				<defs>
					
						<rect id="SVGID_00000039132263435273725530000014901420273085877134_" x="24.849" y="25.148" transform="matrix(0.2654 -0.9641 0.9641 0.2654 -13.6043 62.5382)" width="18.779" height="30.098"/>
				</defs>
				<clipPath id="SVGID_00000013903895737653720550000008297238734661724848_">
					<use xlink:href="#SVGID_00000039132263435273725530000014901420273085877134_"  style="overflow:visible;"/>
				</clipPath>
				<path style="clip-path:url(#SVGID_00000013903895737653720550000008297238734661724848_);fill:#F26C2B;" d="M45.976,40.43
					c1.293,0.315,2.554-1.589,3.823-0.058c-1.426,4.161-2.828,8.277-4.325,12.657c-3.936-1.748-7.344-4.252-10.907-6.456
					c-0.121-0.387-0.219-0.714-0.35-1.103c1.289-0.609,2.608-1.221,3.955-1.856c-0.125-2.939-2.295-4.21-4.304-5.126
					c-3.271-1.492-5.278,0.9-6.937,2.892c-0.351,0.899-0.584,1.519-0.904,2.343c-2.556-1.377-4.877-2.628-7.232-3.91
					c0.047-0.246,0.028-0.479,0.136-0.605c1.258-1.634,2.317-3.521,3.864-4.807c3.883-3.215,8.373-4.603,13.451-3.381
					c3.246,0.79,5.99,2.313,7.733,5.251C44.744,37.559,45.288,38.975,45.976,40.43"/>
			</g>
			<g style="clip-path:url(#SVGID_00000047755259683932680270000002481457333870516900_);">
				<defs>
					
						<rect id="SVGID_00000032612241010254688470000005601067631797732481_" x="56.619" y="36.625" transform="matrix(0.1893 -0.9819 0.9819 0.1893 12.9194 107.6772)" width="30.098" height="18.779"/>
				</defs>
				<clipPath id="SVGID_00000143603852024001517120000003810377045150797233_">
					<use xlink:href="#SVGID_00000032612241010254688470000005601067631797732481_"  style="overflow:visible;"/>
				</clipPath>
				<path style="clip-path:url(#SVGID_00000143603852024001517120000003810377045150797233_);fill:#55C95A;" d="M72.352,57.735
					c-0.212,1.313,1.784,2.422,0.356,3.807c-4.26-1.097-8.471-2.174-12.955-3.324c1.435-4.062,3.665-7.654,5.586-11.378
					c0.375-0.151,0.694-0.273,1.071-0.435c0.709,1.237,1.423,2.505,2.161,3.798c2.919-0.354,4.018-2.616,4.774-4.691
					c1.232-3.378-1.311-5.192-3.425-6.69c-0.924-0.28-1.56-0.463-2.408-0.718c1.174-2.656,2.24-5.068,3.333-7.515
					c0.249,0.027,0.481-0.01,0.614,0.087c1.728,1.128,3.692,2.036,5.094,3.477c3.508,3.619,5.243,7.986,4.421,13.144
					c-0.534,3.299-1.838,6.153-4.63,8.12C75.117,56.282,73.749,56.935,72.352,57.735"/>
			</g>
			<g style="clip-path:url(#SVGID_00000047755259683932680270000002481457333870516900_);">
				<defs>
					
						<rect id="SVGID_00000150078762595333312450000006139894899642478490_" x="12.345" y="71.031" transform="matrix(0.1902 -0.9817 0.9817 0.1902 -56.7695 92.0155)" width="30.098" height="18.779"/>
				</defs>
				<clipPath id="SVGID_00000070091704114725209920000015829690940681363849_">
					<use xlink:href="#SVGID_00000150078762595333312450000006139894899642478490_"  style="overflow:visible;"/>
				</clipPath>
				<path style="clip-path:url(#SVGID_00000070091704114725209920000015829690940681363849_);fill:#E33A3A;" d="M26.721,68.7
					c0.213-1.313-1.782-2.423-0.353-3.807c4.259,1.1,8.47,2.181,12.952,3.335c-1.438,4.061-3.672,7.651-5.595,11.373
					c-0.376,0.151-0.695,0.273-1.072,0.434c-0.708-1.238-1.42-2.505-2.156-3.799c-2.92,0.35-4.021,2.613-4.779,4.686
					c-1.234,3.377,1.306,5.194,3.42,6.692c0.923,0.281,1.56,0.466,2.407,0.722c-1.176,2.654-2.244,5.065-3.341,7.512
					c-0.249-0.028-0.48,0.008-0.614-0.089c-1.727-1.129-3.69-2.039-5.091-3.482c-3.504-3.622-5.235-7.992-4.409-13.149
					c0.536-3.298,1.843-6.151,4.638-8.115C23.955,70.15,25.323,69.499,26.721,68.7"/>
			</g>
			<g style="clip-path:url(#SVGID_00000047755259683932680270000002481457333870516900_);">
				<defs>
					
						<rect id="SVGID_00000052803654836339455440000002614784486067659691_" x="54.55" y="71.2" transform="matrix(0.3176 -0.9482 0.9482 0.3176 -38.1508 119.4846)" width="18.779" height="30.098"/>
				</defs>
				<clipPath id="SVGID_00000162334130667774620470000015616118883173809556_">
					<use xlink:href="#SVGID_00000052803654836339455440000002614784486067659691_"  style="overflow:visible;"/>
				</clipPath>
				<path style="clip-path:url(#SVGID_00000162334130667774620470000015616118883173809556_);fill:#9F9EB1;" d="M52.232,85.375
					c-1.274-0.385-2.637,1.448-3.82-0.151c1.65-4.077,3.276-8.11,5.008-12.401c3.837,1.96,7.102,4.646,10.539,7.042
					c0.101,0.392,0.179,0.725,0.289,1.12c-1.319,0.539-2.67,1.078-4.05,1.639c-0.036,2.941,2.062,4.328,4.019,5.353
					c3.185,1.668,5.319-0.612,7.084-2.51c0.399-0.878,0.667-1.485,1.031-2.291c2.476,1.515,4.726,2.892,7.007,4.299
					c-0.061,0.243-0.055,0.477-0.168,0.597c-1.346,1.563-2.506,3.39-4.121,4.589c-4.052,2.998-8.611,4.139-13.614,2.643
					c-3.2-0.965-5.856-2.636-7.436-5.665C53.306,88.308,52.84,86.866,52.232,85.375"/>
			</g>
			<polygon style="clip-path:url(#SVGID_00000047755259683932680270000002481457333870516900_);fill:#523742;" points="
				44.664,54.859 42.738,56.396 41.021,58.197 40.082,60.518 40.081,60.52 39.806,63.881 40.323,66.195 41.296,68.347 
				43.117,69.844 44.617,70.837 46.254,71.555 46.626,71.853 47.5,72.094 47.973,72.064 50.52,72.218 52.696,71.953 54.576,70.853 
				56.272,69.502 57.361,67.612 58.106,66.173 58.635,64.25 58.645,62.338 58.108,59.934 57.072,57.751 55.23,56.157 52.786,54.381 
				51.109,53.92 49.136,53.985 47.014,54.08 			"/>
		</g>
	</g>
	<g id="L1_00000075851430452470541840000000883902974391592374_">
		<g>
			<defs>
				<rect id="SVGID_00000101818988936144952110000015203726112454545288_" x="10" y="7" width="18.96" height="18.48"/>
			</defs>
			<clipPath id="SVGID_00000141455537777941184000000014835549414661754275_">
				<use xlink:href="#SVGID_00000101818988936144952110000015203726112454545288_"  style="overflow:visible;"/>
			</clipPath>
			<g style="clip-path:url(#SVGID_00000141455537777941184000000014835549414661754275_);">
				<defs>
					<rect id="SVGID_00000167396571271755698520000009857504571346738611_" x="10" y="7" width="18.96" height="18.48"/>
				</defs>
				<clipPath id="SVGID_00000145748596411754604750000011081722160015046329_">
					<use xlink:href="#SVGID_00000167396571271755698520000009857504571346738611_"  style="overflow:visible;"/>
				</clipPath>
				<g style="clip-path:url(#SVGID_00000145748596411754604750000011081722160015046329_);">
					<defs>
						<rect id="SVGID_00000142134664160600874140000002655499438870722710_" x="10.082" y="6.948" width="19.053" height="18.706"/>
					</defs>
					<clipPath id="SVGID_00000117640616850202662430000009040645628421958842_">
						<use xlink:href="#SVGID_00000142134664160600874140000002655499438870722710_"  style="overflow:visible;"/>
					</clipPath>
					<g style="clip-path:url(#SVGID_00000117640616850202662430000009040645628421958842_);">
						<defs>
							
								<rect id="SVGID_00000119081793313164921670000017328026785408180896_" x="10.082" y="6.948" width="19.053" height="18.706"/>
						</defs>
						<clipPath id="SVGID_00000038378124285164502190000008384592448448571816_">
							<use xlink:href="#SVGID_00000119081793313164921670000017328026785408180896_"  style="overflow:visible;"/>
						</clipPath>
						<polygon style="clip-path:url(#SVGID_00000038378124285164502190000008384592448448571816_);fill:#E1D153;" points="
							29.135,15.613 29.033,16.612 28.624,18.541 28.075,20.653 26.799,22.406 25.278,23.966 23.25,24.798 20.753,25.326 
							19.801,25.654 18.961,25.291 17.192,25.033 15.483,24.474 13.331,23.515 11.821,21.698 10.708,19.604 10.081,16.29 
							10.37,13.802 11.548,11.61 12.996,9.616 15.056,8.241 17.076,7.587 19.102,6.956 20.561,6.948 23.529,8.063 25.727,9.112 
							27.306,10.941 28.461,13.116 						"/>
					</g>
				</g>
			</g>
		</g>
	</g>
	<g id="L1_00000042015878835816908760000001209449033846684846_">
		<g>
			<defs>
				<rect id="SVGID_00000074428192812890592930000004115687529026882713_" x="39" y="6" width="18.96" height="18.48"/>
			</defs>
			<clipPath id="SVGID_00000131360171068505346310000001081185076898164655_">
				<use xlink:href="#SVGID_00000074428192812890592930000004115687529026882713_"  style="overflow:visible;"/>
			</clipPath>
			<g style="clip-path:url(#SVGID_00000131360171068505346310000001081185076898164655_);">
				<defs>
					<rect id="SVGID_00000162334095946794247190000017514419505296430218_" x="39" y="6" width="18.96" height="18.48"/>
				</defs>
				<clipPath id="SVGID_00000031901492104754293380000013776385719728491935_">
					<use xlink:href="#SVGID_00000162334095946794247190000017514419505296430218_"  style="overflow:visible;"/>
				</clipPath>
				<g style="clip-path:url(#SVGID_00000031901492104754293380000013776385719728491935_);">
					<defs>
						<rect id="SVGID_00000094618464571778614800000001508679059547523514_" x="39.082" y="5.948" width="19.053" height="18.706"/>
					</defs>
					<clipPath id="SVGID_00000057850557564925011610000008289171614478042782_">
						<use xlink:href="#SVGID_00000094618464571778614800000001508679059547523514_"  style="overflow:visible;"/>
					</clipPath>
					<g style="clip-path:url(#SVGID_00000057850557564925011610000008289171614478042782_);">
						<defs>
							
								<rect id="SVGID_00000095319106821711868200000006009164110294090381_" x="39.082" y="5.948" width="19.053" height="18.706"/>
						</defs>
						<clipPath id="SVGID_00000114767377704448854760000005495170658265835449_">
							<use xlink:href="#SVGID_00000095319106821711868200000006009164110294090381_"  style="overflow:visible;"/>
						</clipPath>
						<polygon style="clip-path:url(#SVGID_00000114767377704448854760000005495170658265835449_);fill:#5699DE;" points="
							58.135,14.613 58.033,15.612 57.624,17.541 57.075,19.653 55.799,21.406 54.278,22.966 52.25,23.798 49.753,24.326 
							48.801,24.654 47.961,24.291 46.192,24.033 44.483,23.474 42.331,22.515 40.821,20.698 39.708,18.604 39.081,15.29 
							39.37,12.802 40.548,10.61 41.996,8.616 44.056,7.241 46.076,6.587 48.102,5.956 49.561,5.948 52.529,7.063 54.727,8.112 
							56.306,9.941 57.461,12.116 						"/>
					</g>
				</g>
			</g>
		</g>
	</g>
	<g id="L1_00000111170671866302534930000001671299153714296975_">
		<g>
			<defs>
				<rect id="SVGID_00000044899055079183426470000009448453918365977239_" x="69" y="7" width="18.96" height="18.48"/>
			</defs>
			<clipPath id="SVGID_00000158019263285219770890000005457805828669419438_">
				<use xlink:href="#SVGID_00000044899055079183426470000009448453918365977239_"  style="overflow:visible;"/>
			</clipPath>
			<g style="clip-path:url(#SVGID_00000158019263285219770890000005457805828669419438_);">
				<defs>
					<rect id="SVGID_00000135675697605531302690000013795429097422380721_" x="69" y="7" width="18.96" height="18.48"/>
				</defs>
				<clipPath id="SVGID_00000090263662482894355760000004227657858980620476_">
					<use xlink:href="#SVGID_00000135675697605531302690000013795429097422380721_"  style="overflow:visible;"/>
				</clipPath>
				<g style="clip-path:url(#SVGID_00000090263662482894355760000004227657858980620476_);">
					<defs>
						<rect id="SVGID_00000109740253766202980970000017926998873752772274_" x="69.082" y="6.948" width="19.053" height="18.706"/>
					</defs>
					<clipPath id="SVGID_00000053506910684190907440000017873299645986725564_">
						<use xlink:href="#SVGID_00000109740253766202980970000017926998873752772274_"  style="overflow:visible;"/>
					</clipPath>
					<g style="clip-path:url(#SVGID_00000053506910684190907440000017873299645986725564_);">
						<defs>
							
								<rect id="SVGID_00000036250853275464647080000013855492382683391934_" x="69.082" y="6.948" width="19.053" height="18.706"/>
						</defs>
						<clipPath id="SVGID_00000004539854350593866630000018015052811169663403_">
							<use xlink:href="#SVGID_00000036250853275464647080000013855492382683391934_"  style="overflow:visible;"/>
						</clipPath>
						<polygon style="clip-path:url(#SVGID_00000004539854350593866630000018015052811169663403_);fill:#AD70D6;" points="
							88.135,15.613 88.033,16.612 87.624,18.541 87.075,20.653 85.799,22.406 84.278,23.966 82.25,24.798 79.753,25.326 
							78.801,25.654 77.961,25.291 76.192,25.033 74.483,24.474 72.331,23.515 70.821,21.698 69.708,19.604 69.081,16.29 
							69.37,13.802 70.548,11.61 71.996,9.616 74.056,8.241 76.076,7.587 78.102,6.956 79.561,6.948 82.529,8.063 84.727,9.112 
							86.306,10.941 87.461,13.116 						"/>
					</g>
				</g>
			</g>
		</g>
	</g>
</g>
<g id="Layer_2">
	<g id="Layer_3">
	</g>
</g>
</svg>
