<?xml version="1.0" encoding="iso-8859-1"?>
<!-- Generator: Adobe Illustrator 26.0.1, SVG Export Plug-In . SVG Version: 6.00 Build 0)  -->
<svg version="1.1" xmlns="http://www.w3.org/2000/svg" xmlns:xlink="http://www.w3.org/1999/xlink" x="0px" y="0px"
	 viewBox="0 0 100 100" style="enable-background:new 0 0 100 100;" xml:space="preserve">
<g id="Layer_1">
	<g id="G_x28__T1_L1__x29_3_L1_L1_00000036233419639292674990000017611352424534137258_">
		<g>
			<defs>
				<rect id="SVGID_1_" x="4" y="10" width="88.96" height="83.48"/>
			</defs>
			<clipPath id="SVGID_00000165235651426247306920000007723740204297969567_">
				<use xlink:href="#SVGID_1_"  style="overflow:visible;"/>
			</clipPath>
			<polygon style="clip-path:url(#SVGID_00000165235651426247306920000007723740204297969567_);fill:#5699DE;" points="37.959,30 
				36.076,30.587 34.057,31.24 31.997,32.615 30.548,34.61 29.37,36.801 29.081,39.29 29.709,42.604 30.82,44.698 32.331,46.514 
				34.483,47.474 36.192,48.032 37.962,48.291 38.4,48.48 39.306,48.48 39.754,48.326 42.25,47.798 44.279,46.966 45.8,45.405 
				47.074,43.652 47.625,41.541 47.96,39.96 47.96,37.962 47.461,36.116 46.307,33.94 44.728,32.111 42.529,31.063 39.701,30 			"/>
			<g style="clip-path:url(#SVGID_00000165235651426247306920000007723740204297969567_);">
				<defs>
					
						<rect id="SVGID_00000087399267768521952370000011851737905644458889_" x="12.026" y="7.595" transform="matrix(0.2915 -0.9566 0.9566 0.2915 -6.771 34.9787)" width="16.4" height="28.929"/>
				</defs>
				<clipPath id="SVGID_00000148638776451519425380000016415022890879241625_">
					<use xlink:href="#SVGID_00000087399267768521952370000011851737905644458889_"  style="overflow:visible;"/>
				</clipPath>
				<path style="clip-path:url(#SVGID_00000148638776451519425380000016415022890879241625_);fill:#E33A3A;" d="M9.692,22.824
					c-0.634-2.796,1.001-10.148,1.001-10.148c2.205-0.374,2.199,0.096,5.075,0.5c0.118,0.017,1.801,0.575,1.913,0.583
					c0.635,0.042,5.246,1.614,7.87,4.244c0.385,0.385,0.854,0.685,1.34,1.067c0.774-0.895,1.507-1.741,2.253-2.604
					c1.251,1.609,3.312,10.899,3.217,14.538c-4.358,0.076-8.687-0.19-13.256-0.878c0.796-1.192,1.422-2.128,2.179-3.26
					c-1.894-1.329-3.479-2.399-5.561-3.25C13.904,22.874,11.897,22.45,9.692,22.824"/>
			</g>
			<polygon style="clip-path:url(#SVGID_00000165235651426247306920000007723740204297969567_);fill:#E1D153;" points="81.958,30 
				80.076,30.587 78.056,31.24 75.996,32.615 74.548,34.61 73.37,36.801 73.081,39.29 73.709,42.604 74.82,44.698 76.331,46.514 
				78.483,47.474 80.192,48.032 81.962,48.291 82.399,48.48 83.306,48.48 83.754,48.326 86.25,47.798 88.279,46.966 89.8,45.405 
				91.074,43.652 91.624,41.541 91.96,39.96 91.96,37.962 91.461,36.116 90.306,33.94 88.728,32.111 86.529,31.063 83.7,30 			"/>
			<g style="clip-path:url(#SVGID_00000165235651426247306920000007723740204297969567_);">
				<defs>
					
						<rect id="SVGID_00000183938826430593835990000004375171126874081206_" x="56.026" y="7.595" transform="matrix(0.2915 -0.9566 0.9566 0.2915 24.4047 77.0683)" width="16.4" height="28.929"/>
				</defs>
				<clipPath id="SVGID_00000113334742155482785890000008900564007440028080_">
					<use xlink:href="#SVGID_00000183938826430593835990000004375171126874081206_"  style="overflow:visible;"/>
				</clipPath>
				<path style="clip-path:url(#SVGID_00000113334742155482785890000008900564007440028080_);fill:#F26C2B;" d="M53.692,22.824
					c-0.634-2.796,1.001-10.148,1.001-10.148c2.205-0.374,2.199,0.096,5.075,0.5c0.118,0.017,1.801,0.575,1.913,0.583
					c0.635,0.042,5.246,1.614,7.87,4.244c0.385,0.385,0.854,0.685,1.34,1.067c0.774-0.895,1.507-1.741,2.253-2.604
					c1.251,1.609,3.312,10.899,3.217,14.538c-4.358,0.076-8.687-0.19-13.256-0.878c0.796-1.192,1.422-2.128,2.179-3.26
					c-1.894-1.329-3.479-2.399-5.561-3.25C57.904,22.874,55.897,22.45,53.692,22.824"/>
			</g>
			<polygon style="clip-path:url(#SVGID_00000165235651426247306920000007723740204297969567_);fill:#AD70D6;" points="38.959,75 
				37.077,75.587 35.057,76.24 32.997,77.615 31.548,79.61 30.37,81.801 30.081,84.29 30.709,87.604 31.821,89.698 33.331,91.514 
				35.484,92.474 37.192,93.032 38.962,93.291 39.4,93.48 40.306,93.48 40.754,93.326 43.251,92.798 45.279,91.966 46.8,90.405 
				48.075,88.652 48.625,86.541 48.96,84.96 48.96,82.962 48.462,81.116 47.307,78.94 45.728,77.111 43.53,76.063 40.701,75 			"/>
			<g style="clip-path:url(#SVGID_00000165235651426247306920000007723740204297969567_);">
				<defs>
					
						<rect id="SVGID_00000014609920912967101740000010651999439168461469_" x="13.026" y="52.595" transform="matrix(0.2915 -0.9566 0.9566 0.2915 -49.1087 67.8188)" width="16.4" height="28.929"/>
				</defs>
				<clipPath id="SVGID_00000023244322664772713790000018327509022949216905_">
					<use xlink:href="#SVGID_00000014609920912967101740000010651999439168461469_"  style="overflow:visible;"/>
				</clipPath>
				<path style="clip-path:url(#SVGID_00000023244322664772713790000018327509022949216905_);fill:#55C95A;" d="M10.692,67.824
					c-0.634-2.796,1.001-10.148,1.001-10.148c2.205-0.374,2.199,0.096,5.075,0.5c0.118,0.017,1.801,0.575,1.913,0.583
					c0.635,0.042,5.246,1.614,7.87,4.244c0.385,0.385,0.854,0.685,1.34,1.067c0.774-0.895,1.507-1.741,2.253-2.604
					c1.251,1.609,3.312,10.899,3.217,14.538c-4.358,0.076-8.687-0.19-13.256-0.878c0.796-1.192,1.422-2.128,2.179-3.26
					c-1.894-1.329-3.479-2.399-5.561-3.25C14.904,67.874,12.897,67.45,10.692,67.824"/>
			</g>
			<polygon style="clip-path:url(#SVGID_00000165235651426247306920000007723740204297969567_);fill:#9F9EB1;" points="81.959,75 
				80.076,75.587 78.057,76.24 75.996,77.615 74.548,79.61 73.37,81.801 73.08,84.29 73.709,87.604 74.82,89.698 76.331,91.514 
				78.483,92.474 80.192,93.032 81.962,93.291 82.4,93.48 83.306,93.48 83.754,93.326 86.25,92.798 88.279,91.966 89.8,90.405 
				91.074,88.652 91.625,86.541 91.96,84.96 91.96,82.962 91.461,81.116 90.306,78.94 88.728,77.111 86.529,76.063 83.701,75 			"/>
			<polygon style="clip-path:url(#SVGID_00000165235651426247306920000007723740204297969567_);fill:#523742;" points="
				58.811,52.807 56.928,53.394 54.909,54.047 52.849,55.422 51.4,57.417 50.222,59.608 49.933,62.097 50.561,65.411 51.672,67.505 
				53.183,69.321 55.335,70.281 57.044,70.839 58.814,71.098 59.252,71.287 60.158,71.287 60.606,71.133 63.102,70.605 
				65.131,69.773 66.652,68.212 67.926,66.459 68.477,64.348 68.812,62.767 68.812,60.769 68.313,58.923 67.159,56.747 
				65.58,54.918 63.381,53.87 60.553,52.807 			"/>
		</g>
	</g>
</g>
<g id="Layer_2">
	<g id="Layer_3">
	</g>
</g>
</svg>
