<?xml version="1.0" encoding="iso-8859-1"?>
<!-- Generator: Adobe Illustrator 26.0.1, SVG Export Plug-In . SVG Version: 6.00 Build 0)  -->
<svg version="1.1" xmlns="http://www.w3.org/2000/svg" xmlns:xlink="http://www.w3.org/1999/xlink" x="0px" y="0px"
	 viewBox="0 0 100 100" style="enable-background:new 0 0 100 100;" xml:space="preserve">
<g id="Layer_1">
</g>
<g id="Layer_2">
	<g id="G_x28__T1_L1__x29__4_00000041252983284351028710000008729737580215578023_">
		<g>
			<defs>
				<rect id="SVGID_1_" x="4" y="8" width="88.96" height="83.48"/>
			</defs>
			<clipPath id="SVGID_00000111912494369365592050000010064716270768319895_">
				<use xlink:href="#SVGID_1_"  style="overflow:visible;"/>
			</clipPath>
			<polygon style="clip-path:url(#SVGID_00000111912494369365592050000010064716270768319895_);fill:#E1D153;" points="37.959,28 
				36.076,28.587 34.057,29.24 31.997,30.615 30.548,32.61 29.37,34.801 29.081,37.29 29.709,40.604 30.82,42.698 32.331,44.514 
				34.483,45.474 36.192,46.032 37.962,46.291 38.4,46.48 39.306,46.48 39.754,46.326 42.25,45.798 44.279,44.966 45.8,43.405 
				47.074,41.652 47.625,39.541 47.96,37.96 47.96,35.962 47.461,34.116 46.307,31.94 44.728,30.111 42.529,29.063 39.701,28 			"/>
			<g style="clip-path:url(#SVGID_00000111912494369365592050000010064716270768319895_);">
				<defs>
					
						<rect id="SVGID_00000121959969550503437360000006521300690532146354_" x="12.026" y="5.595" transform="matrix(0.2915 -0.9566 0.9566 0.2915 -4.8578 33.5616)" width="16.4" height="28.929"/>
				</defs>
				<clipPath id="SVGID_00000135659699290195243070000001687608408168368258_">
					<use xlink:href="#SVGID_00000121959969550503437360000006521300690532146354_"  style="overflow:visible;"/>
				</clipPath>
				<path style="clip-path:url(#SVGID_00000135659699290195243070000001687608408168368258_);fill:#E33A3A;" d="M9.692,20.824
					c-0.634-2.796,1.001-10.148,1.001-10.148c2.205-0.374,2.199,0.096,5.075,0.5c0.118,0.017,1.801,0.575,1.913,0.583
					c0.635,0.042,5.246,1.614,7.87,4.244c0.385,0.385,0.854,0.685,1.34,1.067c0.774-0.895,1.507-1.741,2.253-2.604
					c1.251,1.609,3.312,10.899,3.217,14.538c-4.358,0.076-8.687-0.19-13.256-0.878c0.796-1.192,1.422-2.128,2.179-3.26
					c-1.894-1.329-3.479-2.399-5.561-3.25C13.904,20.874,11.897,20.45,9.692,20.824"/>
			</g>
			<polygon style="clip-path:url(#SVGID_00000111912494369365592050000010064716270768319895_);fill:#5699DE;" points="81.958,28 
				80.076,28.587 78.056,29.24 75.996,30.615 74.548,32.61 73.37,34.801 73.081,37.29 73.709,40.604 74.82,42.698 76.331,44.514 
				78.483,45.474 80.192,46.032 81.962,46.291 82.399,46.48 83.306,46.48 83.754,46.326 86.25,45.798 88.279,44.966 89.8,43.405 
				91.074,41.652 91.624,39.541 91.96,37.96 91.96,35.962 91.461,34.116 90.306,31.94 88.728,30.111 86.529,29.063 83.7,28 			"/>
			<g style="clip-path:url(#SVGID_00000111912494369365592050000010064716270768319895_);">
				<defs>
					
						<rect id="SVGID_00000111900762460766303860000000044814233571128449_" x="56.026" y="5.595" transform="matrix(0.2915 -0.9566 0.9566 0.2915 26.3178 75.6512)" width="16.4" height="28.929"/>
				</defs>
				<clipPath id="SVGID_00000039093862755990894970000008003375094782698112_">
					<use xlink:href="#SVGID_00000111900762460766303860000000044814233571128449_"  style="overflow:visible;"/>
				</clipPath>
				<path style="clip-path:url(#SVGID_00000039093862755990894970000008003375094782698112_);fill:#55C95A;" d="M53.692,20.824
					c-0.634-2.796,1.001-10.148,1.001-10.148c2.205-0.374,2.199,0.096,5.075,0.5c0.118,0.017,1.801,0.575,1.913,0.583
					c0.635,0.042,5.246,1.614,7.87,4.244c0.385,0.385,0.854,0.685,1.34,1.067c0.774-0.895,1.507-1.741,2.253-2.604
					c1.251,1.609,3.312,10.899,3.217,14.538c-4.358,0.076-8.687-0.19-13.256-0.878c0.796-1.192,1.422-2.128,2.179-3.26
					c-1.894-1.329-3.479-2.399-5.561-3.25C57.904,20.874,55.897,20.45,53.692,20.824"/>
			</g>
			<polygon style="clip-path:url(#SVGID_00000111912494369365592050000010064716270768319895_);fill:#AD70D6;" points="38.959,73 
				37.077,73.587 35.057,74.24 32.997,75.615 31.548,77.61 30.37,79.801 30.081,82.29 30.709,85.604 31.821,87.698 33.331,89.514 
				35.484,90.474 37.192,91.032 38.962,91.291 39.4,91.48 40.306,91.48 40.754,91.326 43.251,90.798 45.279,89.966 46.8,88.405 
				48.075,86.652 48.625,84.541 48.96,82.96 48.96,80.962 48.462,79.116 47.307,76.94 45.728,75.111 43.53,74.063 40.701,73 			"/>
			<g style="clip-path:url(#SVGID_00000111912494369365592050000010064716270768319895_);">
				<defs>
					
						<rect id="SVGID_00000079471231982723317330000018297953386510910871_" x="13.026" y="50.595" transform="matrix(0.2915 -0.9566 0.9566 0.2915 -47.1955 66.4024)" width="16.4" height="28.929"/>
				</defs>
				<clipPath id="SVGID_00000013886648029827691080000002141480051769446826_">
					<use xlink:href="#SVGID_00000079471231982723317330000018297953386510910871_"  style="overflow:visible;"/>
				</clipPath>
				<path style="clip-path:url(#SVGID_00000013886648029827691080000002141480051769446826_);fill:#F26C2B;" d="M10.692,65.824
					c-0.634-2.796,1.001-10.148,1.001-10.148c2.205-0.374,2.199,0.096,5.075,0.5c0.118,0.017,1.801,0.575,1.913,0.583
					c0.635,0.042,5.246,1.614,7.87,4.244c0.385,0.385,0.854,0.685,1.34,1.067c0.774-0.895,1.507-1.741,2.253-2.604
					c1.251,1.609,3.312,10.899,3.217,14.538c-4.358,0.076-8.687-0.19-13.256-0.878c0.796-1.192,1.422-2.128,2.179-3.26
					c-1.894-1.329-3.479-2.399-5.561-3.25C14.904,65.874,12.897,65.45,10.692,65.824"/>
			</g>
			<polygon style="clip-path:url(#SVGID_00000111912494369365592050000010064716270768319895_);fill:#523742;" points="82.959,73 
				81.076,73.587 79.057,74.24 76.997,75.615 75.548,77.61 74.37,79.801 74.081,82.29 74.709,85.604 75.82,87.698 77.331,89.514 
				79.483,90.474 81.192,91.032 82.962,91.291 83.4,91.48 84.306,91.48 84.754,91.326 87.25,90.798 89.279,89.966 90.8,88.405 
				92.074,86.652 92.625,84.541 92.96,82.96 92.96,80.962 92.461,79.116 91.307,76.94 89.728,75.111 87.529,74.063 84.701,73 			"/>
			<g style="clip-path:url(#SVGID_00000111912494369365592050000010064716270768319895_);">
				<defs>
					
						<rect id="SVGID_00000090992646628484940850000011021912878838105993_" x="57.026" y="50.595" transform="matrix(0.2915 -0.9566 0.9566 0.2915 -16.0198 108.492)" width="16.4" height="28.929"/>
				</defs>
				<clipPath id="SVGID_00000096019615028419284700000004191304038104299685_">
					<use xlink:href="#SVGID_00000090992646628484940850000011021912878838105993_"  style="overflow:visible;"/>
				</clipPath>
				<path style="clip-path:url(#SVGID_00000096019615028419284700000004191304038104299685_);fill:#9F9EB1;" d="M54.692,65.824
					c-0.634-2.796,1.001-10.148,1.001-10.148c2.205-0.374,2.199,0.096,5.075,0.5c0.118,0.017,1.801,0.575,1.913,0.583
					c0.635,0.042,5.246,1.614,7.87,4.244c0.385,0.385,0.854,0.685,1.34,1.067c0.774-0.895,1.507-1.741,2.253-2.604
					c1.251,1.609,3.312,10.899,3.217,14.538c-4.358,0.076-8.687-0.19-13.256-0.878c0.796-1.192,1.422-2.128,2.179-3.26
					c-1.894-1.329-3.479-2.399-5.561-3.25C58.904,65.874,56.897,65.45,54.692,65.824"/>
			</g>
		</g>
	</g>
</g>
</svg>
