<svg id="Layer_1" data-name="Layer 1" xmlns="http://www.w3.org/2000/svg" xmlns:xlink="http://www.w3.org/1999/xlink" viewBox="0 0 84.85 80.15"><defs><style>.cls-1{fill:none;}.cls-2{clip-path:url(#clip-path);}.cls-3{clip-path:url(#clip-path-3);}.cls-4{fill:#523742;}.cls-5{clip-path:url(#clip-path-5);}.cls-6{clip-path:url(#clip-path-7);}.cls-7{fill:#9f9eb1;}.cls-8{clip-path:url(#clip-path-9);}.cls-9{clip-path:url(#clip-path-11);}.cls-10{fill:#e33a3a;}.cls-11{fill:#55c95a;}.cls-12{fill:#f26c2b;}.cls-13{clip-path:url(#clip-path-13);}.cls-14{clip-path:url(#clip-path-15);}.cls-15{fill:#5699de;}.cls-16{fill:#e1d153;}.cls-17{fill:#ad70d6;}</style><clipPath id="clip-path" transform="translate(-6 -11)"><rect class="cls-1" x="66" y="16" width="18.96" height="18.48"/></clipPath><clipPath id="clip-path-3" transform="translate(-6 -11)"><rect class="cls-1" x="66.08" y="15.95" width="19.05" height="18.71"/></clipPath><clipPath id="clip-path-5" transform="translate(-6 -11)"><rect class="cls-1" x="14" y="68" width="18.96" height="18.48"/></clipPath><clipPath id="clip-path-7" transform="translate(-6 -11)"><rect class="cls-1" x="14.08" y="67.95" width="19.05" height="18.71"/></clipPath><clipPath id="clip-path-9" transform="translate(-6 -11)"><rect class="cls-1" x="6" y="11" width="41.85" height="39.15"/></clipPath><clipPath id="clip-path-11" transform="translate(-6 -11)"><rect class="cls-1" x="6" y="11" width="41.85" height="39.15"/></clipPath><clipPath id="clip-path-13" transform="translate(-6 -11)"><rect class="cls-1" x="49" y="52" width="41.85" height="39.15"/></clipPath><clipPath id="clip-path-15" transform="translate(-6 -11)"><rect class="cls-1" x="49" y="52" width="41.85" height="39.15"/></clipPath></defs><g id="L1"><g class="cls-2"><g class="cls-2"><g class="cls-3"><g class="cls-3"><polygon class="cls-4" points="79.13 13.61 79.03 14.61 78.62 16.54 78.07 18.65 76.8 20.4 75.28 21.96 73.25 22.8 70.75 23.32 69.8 23.65 68.96 23.29 67.19 23.03 65.48 22.47 63.33 21.51 61.82 19.7 60.7 17.6 60.08 14.29 60.37 11.8 61.55 9.61 62.99 7.61 65.05 6.24 67.07 5.58 69.1 4.95 70.56 4.95 73.53 6.06 75.72 7.11 77.3 8.94 78.46 11.11 79.13 13.61"/></g></g></g></g></g><g id="L1-2" data-name="L1"><g class="cls-5"><g class="cls-5"><g class="cls-6"><g class="cls-6"><polygon class="cls-7" points="27.13 65.61 27.03 66.61 26.62 68.54 26.07 70.65 24.8 72.4 23.27 73.96 21.25 74.8 18.75 75.32 17.8 75.65 16.96 75.29 15.19 75.03 13.48 74.47 11.33 73.51 9.82 71.7 8.71 69.6 8.08 66.29 8.37 63.8 9.54 61.61 10.99 59.61 13.05 58.24 15.07 57.59 17.1 56.95 18.56 56.95 21.53 58.06 23.72 59.11 25.3 60.94 26.46 63.11 27.13 65.61"/></g></g></g></g></g><g id="L3"><g class="cls-8"><g class="cls-8"><g class="cls-9"><g class="cls-9"><path class="cls-10" d="M47.85,29.47v4.32c-.1.32-.19.64-.29,1-.62,1.94-1.1,3.94-1.9,5.8a6.86,6.86,0,0,1-2.11,2.56c-1.74,1.34-3.62,2.48-5.54,3.76l1.74,3c-2.67.91-14.34-.29-15.63-1.61,1-2.61,1.86-5.28,2.93-8a49.36,49.36,0,0,1,2.23-4.82l2.53,3.12,5.43-3.89c.22-2,2.57-3.46,1.4-6.06l1.9.17,6.63.5a3.31,3.31,0,0,1,.68.2" transform="translate(-6 -11)"/><path class="cls-11" d="M40.36,11c1.67,1.17,6.35,9.46,7.32,13A77,77,0,0,1,38.2,26.4c-1.14.22-2.29.42-3.46.59.42-1.37.74-2.45,1.14-3.75-2.2-.72-4.36-1.83-6.6-2-2-.18-4.27-.29-5.84,1.66l-.89-1.56-3.23-5.65c2.19-1.64,4.45-3.27,7.31-3.72a2,2,0,0,0,.36,0c3.83-1.81,7.11-.14,10.39,1.62.48.25,1,.4,1.59.63L40.36,11" transform="translate(-6 -11)"/><path class="cls-12" d="M9.64,35.76a36.87,36.87,0,0,1-.13-4.83c0-.46,0-.93,0-1.41L6,29.34c.2-2.35,7.28-11.86,9.39-12.58,1.59,1.92,3.26,3.81,4.83,5.87a38.06,38.06,0,0,1,3.39,5.19l-3.9.54c.17,2.13-.06,4.4.64,6.32a7.56,7.56,0,0,0,4.25,4.78l-5.18,7.3c-2.62-1.48-5.19-2.85-6.86-5.41a8.19,8.19,0,0,0-1.2-1.3,7.13,7.13,0,0,1-1.72-4.29" transform="translate(-6 -11)"/></g></g></g></g></g><g id="L3-2" data-name="L3"><g class="cls-13"><g class="cls-13"><g class="cls-14"><g class="cls-14"><path class="cls-15" d="M90.85,70.47v4.32c-.1.32-.19.64-.29,1-.62,1.94-1.1,3.94-1.9,5.8a6.86,6.86,0,0,1-2.11,2.56c-1.74,1.34-3.62,2.48-5.54,3.76l1.74,3c-2.67.91-14.34-.29-15.63-1.61,1-2.61,1.86-5.28,2.93-8a49.36,49.36,0,0,1,2.23-4.82l2.53,3.12,5.43-3.89c.22-2,2.57-3.46,1.4-6.06l1.9.17,6.63.5a3.31,3.31,0,0,1,.68.2" transform="translate(-6 -11)"/><path class="cls-16" d="M83.36,52c1.67,1.17,6.35,9.46,7.32,13A77,77,0,0,1,81.2,67.4c-1.14.22-2.29.42-3.46.59.42-1.37.74-2.45,1.14-3.75-2.2-.72-4.36-1.83-6.6-2-2-.18-4.27-.29-5.84,1.66l-.89-1.56-3.23-5.65c2.19-1.64,4.45-3.27,7.31-3.72a2,2,0,0,0,.36,0c3.83-1.81,7.11-.14,10.39,1.62.48.25,1,.4,1.59.63L83.36,52" transform="translate(-6 -11)"/><path class="cls-17" d="M52.64,76.76a36.87,36.87,0,0,1-.13-4.83c0-.46,0-.93,0-1.41L49,70.34c.2-2.35,7.28-11.86,9.39-12.58,1.59,1.92,3.26,3.81,4.83,5.87a38.06,38.06,0,0,1,3.39,5.19l-3.9.54c.17,2.13-.06,4.4.64,6.32a7.56,7.56,0,0,0,4.25,4.78l-5.18,7.3c-2.62-1.48-5.19-2.85-6.86-5.41a8.19,8.19,0,0,0-1.2-1.3,7.13,7.13,0,0,1-1.72-4.29" transform="translate(-6 -11)"/></g></g></g></g></g></svg>