<?xml version="1.0" encoding="iso-8859-1"?>
<!-- Generator: Adobe Illustrator 26.0.1, SVG Export Plug-In . SVG Version: 6.00 Build 0)  -->
<svg version="1.1" xmlns="http://www.w3.org/2000/svg" xmlns:xlink="http://www.w3.org/1999/xlink" x="0px" y="0px"
	 viewBox="0 0 100 100" style="enable-background:new 0 0 100 100;" xml:space="preserve">
<g id="Layer_1">
</g>
<g id="Layer_2">
	<g id="L2_L2_L2_L1_L1_00000002383912481715047000000016339060204545683881_">
		<g>
			<defs>
				<rect id="SVGID_1_" x="11" y="10" width="79.96" height="81.48"/>
			</defs>
			<clipPath id="SVGID_00000038377492776816060950000009582756922636515243_">
				<use xlink:href="#SVGID_1_"  style="overflow:visible;"/>
			</clipPath>
			<g style="clip-path:url(#SVGID_00000038377492776816060950000009582756922636515243_);">
				<defs>
					<rect id="SVGID_00000152235404071845760160000001431936717623071648_" x="11" y="10" width="79.96" height="81.48"/>
				</defs>
				<clipPath id="SVGID_00000168795128036179890840000008134127896984929949_">
					<use xlink:href="#SVGID_00000152235404071845760160000001431936717623071648_"  style="overflow:visible;"/>
				</clipPath>
				<g style="clip-path:url(#SVGID_00000168795128036179890840000008134127896984929949_);">
					<defs>
						<rect id="SVGID_00000021103827238846799530000004362527522772460935_" x="11" y="10" width="79.96" height="81.48"/>
					</defs>
					<clipPath id="SVGID_00000175314049916683124320000010843968663520997512_">
						<use xlink:href="#SVGID_00000021103827238846799530000004362527522772460935_"  style="overflow:visible;"/>
					</clipPath>
					<g style="opacity:0.96;clip-path:url(#SVGID_00000175314049916683124320000010843968663520997512_);">
						<g>
							<defs>
								<rect id="SVGID_00000067946571912306445740000016615939691476698778_" x="12" y="9.997" width="31.363" height="34.872"/>
							</defs>
							<clipPath id="SVGID_00000000214905908693130960000005599176600358683310_">
								<use xlink:href="#SVGID_00000067946571912306445740000016615939691476698778_"  style="overflow:visible;"/>
							</clipPath>
							<g style="clip-path:url(#SVGID_00000000214905908693130960000005599176600358683310_);">
								<defs>
									<rect id="SVGID_00000034783821722556526150000004785668096450514600_" x="13.264" y="10" width="30.094" height="18.776"/>
								</defs>
								<clipPath id="SVGID_00000081620756362029357690000000667931214963338932_">
									<use xlink:href="#SVGID_00000034783821722556526150000004785668096450514600_"  style="overflow:visible;"/>
								</clipPath>
								<path style="clip-path:url(#SVGID_00000081620756362029357690000000667931214963338932_);fill:#E33A3A;" d="M39.693,16.496
									c1.33-0.04,2.04-2.21,3.67-1.07c-0.27,4.39-0.53,8.73-0.81,13.35c-4.26-0.64-8.21-2.15-12.23-3.33
									c-0.22-0.34-0.4-0.63-0.63-0.97c1.08-0.93,2.19-1.87,3.32-2.84c-0.9-2.8-3.33-3.45-5.51-3.8c-3.55-0.57-4.85,2.27-5.92,4.63
									c-0.1,0.96-0.16,1.62-0.25,2.5c-2.83-0.65-5.4-1.24-8.01-1.85c-0.02-0.25-0.1-0.47-0.03-0.62c0.78-1.91,1.3-4.01,2.45-5.66
									c2.89-4.13,6.85-6.66,12.07-6.83c3.34-0.1,6.39,0.64,8.85,3.01C37.743,14.056,38.643,15.276,39.693,16.496"/>
							</g>
							<g style="clip-path:url(#SVGID_00000000214905908693130960000005599176600358683310_);">
								<defs>
									
										<rect id="SVGID_00000137114969533269551370000005165950965213344947_" x="12.003" y="26.656" width="29.36" height="18.213"/>
								</defs>
								<clipPath id="SVGID_00000090984180577884201930000014070964288495808684_">
									<use xlink:href="#SVGID_00000137114969533269551370000005165950965213344947_"  style="overflow:visible;"/>
								</clipPath>
								<path style="clip-path:url(#SVGID_00000090984180577884201930000014070964288495808684_);fill:#5699DE;" d="M41.363,32.446
									c-0.1,0.3-0.17,0.6-0.29,0.87c-1.52,3.45-3.13,6.93-6.51,8.9c-1.9,1.11-4.16,1.59-6.26,2.36c-2.15,0.78-4.14-0.2-6.16-0.61
									c-1.67-0.33-2.86-1.56-4-2.76c-0.82-0.86-1.62-1.74-2.62-2.83c-1.02,0.3-2.14,0.63-3.52,1.04c0.24-4.15,0.49-8.3,0.76-12.76
									c4,1.19,7.88,2.35,12.16,3.63c-1.18,1.02-2.12,1.83-3.03,2.63v1.59c1.49,2.59,3.87,3.08,6.63,3.14
									c3.42,0.08,4.13-2.66,5.59-4.93v-1.92C36.563,31.356,38.923,31.886,41.363,32.446"/>
							</g>
						</g>
					</g>
					<g style="opacity:0.96;clip-path:url(#SVGID_00000175314049916683124320000010843968663520997512_);">
						<g>
							<defs>
								<rect id="SVGID_00000182503726111358279830000018432535439738742462_" x="57" y="9.997" width="31.363" height="34.872"/>
							</defs>
							<clipPath id="SVGID_00000127045475632888473740000017185044070216673978_">
								<use xlink:href="#SVGID_00000182503726111358279830000018432535439738742462_"  style="overflow:visible;"/>
							</clipPath>
							<g style="clip-path:url(#SVGID_00000127045475632888473740000017185044070216673978_);">
								<defs>
									<rect id="SVGID_00000143612237512568827320000008789552628306924971_" x="58.264" y="10" width="30.095" height="18.776"/>
								</defs>
								<clipPath id="SVGID_00000119119083536579454610000011351092085286223269_">
									<use xlink:href="#SVGID_00000143612237512568827320000008789552628306924971_"  style="overflow:visible;"/>
								</clipPath>
								<path style="clip-path:url(#SVGID_00000119119083536579454610000011351092085286223269_);fill:#55C95A;" d="M84.692,16.496
									c1.33-0.04,2.04-2.21,3.67-1.07c-0.27,4.39-0.529,8.73-0.81,13.35c-4.259-0.64-8.21-2.15-12.23-3.33
									c-0.22-0.34-0.4-0.63-0.63-0.97c1.08-0.93,2.19-1.87,3.32-2.84c-0.9-2.8-3.33-3.45-5.509-3.8
									c-3.55-0.57-4.851,2.27-5.92,4.63c-0.101,0.96-0.161,1.62-0.25,2.5c-2.83-0.65-5.401-1.24-8.011-1.85
									c-0.02-0.25-0.1-0.47-0.029-0.62c0.779-1.91,1.299-4.01,2.45-5.66c2.889-4.13,6.849-6.66,12.069-6.83
									c3.34-0.1,6.391,0.64,8.851,3.01C82.743,14.056,83.642,15.276,84.692,16.496"/>
							</g>
							<g style="clip-path:url(#SVGID_00000127045475632888473740000017185044070216673978_);">
								<defs>
									
										<rect id="SVGID_00000170994320238934265760000016225629151327587502_" x="57.003" y="26.656" width="29.36" height="18.213"/>
								</defs>
								<clipPath id="SVGID_00000164473550188246291260000015896594858269934475_">
									<use xlink:href="#SVGID_00000170994320238934265760000016225629151327587502_"  style="overflow:visible;"/>
								</clipPath>
								<path style="clip-path:url(#SVGID_00000164473550188246291260000015896594858269934475_);fill:#AD70D6;" d="M86.362,32.446
									c-0.1,0.3-0.17,0.6-0.29,0.87c-1.52,3.45-3.13,6.93-6.51,8.9c-1.899,1.11-4.16,1.59-6.26,2.36
									c-2.15,0.78-4.139-0.2-6.16-0.61c-1.67-0.33-2.86-1.56-4-2.76c-0.82-0.86-1.62-1.74-2.62-2.83
									c-1.019,0.3-2.139,0.63-3.519,1.04c0.239-4.15,0.489-8.3,0.759-12.76c4,1.19,7.88,2.35,12.161,3.63
									c-1.181,1.02-2.121,1.83-3.031,2.63v1.59c1.491,2.59,3.87,3.08,6.63,3.14c3.42,0.08,4.13-2.66,5.59-4.93v-1.92
									C81.562,31.356,83.923,31.886,86.362,32.446"/>
							</g>
						</g>
					</g>
					<g style="opacity:0.96;clip-path:url(#SVGID_00000175314049916683124320000010843968663520997512_);">
						<g>
							<defs>
								<rect id="SVGID_00000147218956119987129000000007995242828243114423_" x="11" y="53.997" width="31.363" height="34.872"/>
							</defs>
							<clipPath id="SVGID_00000085952098696782119680000016175214329759492784_">
								<use xlink:href="#SVGID_00000147218956119987129000000007995242828243114423_"  style="overflow:visible;"/>
							</clipPath>
							<g style="clip-path:url(#SVGID_00000085952098696782119680000016175214329759492784_);">
								<defs>
									
										<rect id="SVGID_00000036218219174914124480000016342618591525324943_" x="12.264" y="54.001" width="30.094" height="18.775"/>
								</defs>
								<clipPath id="SVGID_00000124845119872559082310000009396877577173834163_">
									<use xlink:href="#SVGID_00000036218219174914124480000016342618591525324943_"  style="overflow:visible;"/>
								</clipPath>
								<path style="clip-path:url(#SVGID_00000124845119872559082310000009396877577173834163_);fill:#F26C2B;" d="M38.693,60.496
									c1.33-0.04,2.04-2.21,3.67-1.07c-0.27,4.389-0.53,8.73-0.81,13.349c-4.26-0.639-8.21-2.149-12.23-3.33
									c-0.22-0.34-0.4-0.63-0.63-0.97c1.08-0.929,2.19-1.87,3.32-2.839c-0.9-2.8-3.33-3.451-5.51-3.8
									c-3.55-0.57-4.85,2.269-5.92,4.63c-0.1,0.96-0.16,1.62-0.25,2.5c-2.83-0.651-5.4-1.241-8.01-1.85
									c-0.02-0.25-0.1-0.471-0.03-0.62c0.78-1.91,1.3-4.011,2.45-5.66c2.89-4.13,6.85-6.66,12.07-6.83
									c3.34-0.1,6.39,0.639,8.85,3.01C36.743,58.056,37.643,59.275,38.693,60.496"/>
							</g>
							<g style="clip-path:url(#SVGID_00000085952098696782119680000016175214329759492784_);">
								<defs>
									
										<rect id="SVGID_00000012440243897270879050000016428316364243657118_" x="11.003" y="70.656" width="29.36" height="18.212"/>
								</defs>
								<clipPath id="SVGID_00000067200155332732377420000010603746043161844892_">
									<use xlink:href="#SVGID_00000012440243897270879050000016428316364243657118_"  style="overflow:visible;"/>
								</clipPath>
								<path style="clip-path:url(#SVGID_00000067200155332732377420000010603746043161844892_);fill:#E1D153;" d="M40.363,76.446
									c-0.1,0.3-0.17,0.6-0.29,0.87c-1.52,3.449-3.13,6.93-6.51,8.9c-1.9,1.11-4.16,1.589-6.26,2.36
									c-2.15,0.78-4.14-0.2-6.16-0.61c-1.67-0.331-2.86-1.56-4-2.76c-0.82-0.861-1.62-1.74-2.62-2.83
									c-1.02,0.299-2.14,0.63-3.52,1.04c0.24-4.151,0.49-8.3,0.76-12.76c4,1.189,7.88,2.35,12.16,3.63
									c-1.18,1.019-2.12,1.83-3.03,2.63v1.59c1.49,2.589,3.87,3.08,6.63,3.14c3.42,0.079,4.13-2.66,5.59-4.93v-1.92
									C35.563,75.356,37.923,75.885,40.363,76.446"/>
							</g>
						</g>
					</g>
					<g style="opacity:0.96;clip-path:url(#SVGID_00000175314049916683124320000010843968663520997512_);">
						<g>
							<defs>
								<rect id="SVGID_00000173843351659106018950000012479972163651640981_" x="72" y="49.948" width="19.135" height="18.706"/>
							</defs>
							<clipPath id="SVGID_00000173839063394784174930000009685515566746286773_">
								<use xlink:href="#SVGID_00000173843351659106018950000012479972163651640981_"  style="overflow:visible;"/>
							</clipPath>
							<polygon style="clip-path:url(#SVGID_00000173839063394784174930000009685515566746286773_);fill:#523742;" points="
								80.961,50 79.076,50.587 77.056,51.241 74.996,52.616 73.548,54.61 72.37,56.802 72.082,59.282 72.082,59.295 72.707,62.604 
								73.821,64.698 75.331,66.515 77.483,67.473 79.192,68.033 80.96,68.291 81.401,68.481 82.305,68.481 82.752,68.327 
								85.25,67.798 87.278,66.966 88.799,65.406 90.075,63.652 90.624,61.541 90.959,59.959 90.959,57.961 90.461,56.116 
								89.306,53.94 87.728,52.111 85.529,51.063 82.7,50 							"/>
						</g>
					</g>
					<g style="opacity:0.96;clip-path:url(#SVGID_00000175314049916683124320000010843968663520997512_);">
						<g>
							<defs>
								<rect id="SVGID_00000103966685072010578980000001709787029538852259_" x="54" y="72.948" width="19.135" height="18.706"/>
							</defs>
							<clipPath id="SVGID_00000168091912923579735040000007774838626268075913_">
								<use xlink:href="#SVGID_00000103966685072010578980000001709787029538852259_"  style="overflow:visible;"/>
							</clipPath>
							<polygon style="clip-path:url(#SVGID_00000168091912923579735040000007774838626268075913_);fill:#9F9EB1;" points="
								62.961,73 61.076,73.587 59.056,74.241 56.996,75.616 55.548,77.609 54.37,79.801 54.082,82.282 54.082,82.295 
								54.707,85.604 55.821,87.698 57.331,89.514 59.483,90.474 61.192,91.033 62.96,91.291 63.401,91.481 64.303,91.481 
								64.752,91.326 67.25,90.798 69.278,89.966 70.799,88.406 72.075,86.652 72.624,84.541 72.959,82.959 72.959,80.96 
								72.461,79.116 71.306,76.94 69.728,75.111 67.529,74.062 64.701,73 							"/>
						</g>
					</g>
				</g>
			</g>
		</g>
	</g>
</g>
</svg>
