<?xml version="1.0" encoding="iso-8859-1"?>
<!-- Generator: Adobe Illustrator 26.0.1, SVG Export Plug-In . SVG Version: 6.00 Build 0)  -->
<svg version="1.1" id="Layer_1" xmlns="http://www.w3.org/2000/svg" xmlns:xlink="http://www.w3.org/1999/xlink" x="0px" y="0px"
	 viewBox="0 0 100 100" style="enable-background:new 0 0 100 100;" xml:space="preserve">
<g id="G_x28__T1_T1_T1_L3__x29__L2_1_" style="display:none;">
	<g style="display:inline;">
		<defs>
			<rect id="SVGID_1_" x="-1" y="4" width="102.767" height="94.335"/>
		</defs>
		<clipPath id="SVGID_00000062885175533017096850000004429274948149312399_">
			<use xlink:href="#SVGID_1_"  style="overflow:visible;"/>
		</clipPath>
		<g style="clip-path:url(#SVGID_00000062885175533017096850000004429274948149312399_);">
			<defs>
				<polygon id="SVGID_00000124872095474774799060000001799470408075503017_" points="19.412,18.375 21.774,67.739 67.17,65.011 
					64.809,15.647 				"/>
			</defs>
			<clipPath id="SVGID_00000047738930212804639960000009118567530483753378_">
				<use xlink:href="#SVGID_00000124872095474774799060000001799470408075503017_"  style="overflow:visible;"/>
			</clipPath>
			<path style="clip-path:url(#SVGID_00000047738930212804639960000009118567530483753378_);fill:#AD70D6;" d="M45.75,66.299
				L40.74,66.6c-0.377-0.096-0.753-0.18-1.13-0.276c-2.284-0.595-4.631-1.022-6.833-1.837c-1.16-0.426-2.274-1.341-3.088-2.31
				c-1.652-1.959-3.081-4.097-4.673-6.273c-1.037,0.702-2.175,1.468-3.335,2.259c-1.206-3.086-0.473-16.935,0.985-18.549
				c3.084,0.998,6.229,1.827,9.408,2.901c1.893,0.655,3.812,1.391,5.716,2.295c-1.303,1.202-2.373,2.189-3.476,3.201
				c1.611,2.057,3.184,4.056,4.818,6.134c2.344,0.12,4.158,2.791,7.107,1.229c-0.036,0.948-0.074,1.602-0.09,2.253
				c-0.072,2.619-0.133,5.236-0.205,7.856C45.934,65.755,45.819,66.034,45.75,66.299"/>
			<path style="clip-path:url(#SVGID_00000047738930212804639960000009118567530483753378_);fill:#5699DE;" d="M66.748,56.176
				c-1.263,2.052-10.613,8.149-14.629,9.539c-1.333-3.563-2.45-7.199-3.353-11.014c-0.319-1.329-0.616-2.671-0.879-4.04
				c1.612,0.4,2.882,0.703,4.413,1.084c0.711-2.645,1.876-5.271,1.993-7.927c0.099-2.313,0.096-5.058-2.254-6.773
				c0.597-0.391,1.184-0.781,1.759-1.159c2.164-1.431,4.238-2.798,6.37-4.204c2.025,2.469,4.043,5.021,4.726,8.364
				c0.03,0.14,0.003,0.307,0.055,0.422c2.316,4.392,0.564,8.377-1.292,12.369c-0.263,0.584-0.407,1.219-0.641,1.919
				C64.308,55.246,65.516,55.706,66.748,56.176"/>
			<path style="clip-path:url(#SVGID_00000047738930212804639960000009118567530483753378_);fill:#E1D153;" d="M36.3,21.665
				c1.807-0.392,3.717-0.341,5.594-0.49c0.533-0.044,1.078-0.065,1.635-0.098c0.009-1.515,0.016-2.84,0.011-4.153
				c2.737,0.073,14.165,7.761,15.119,10.199c-2.137,2.01-4.235,4.111-6.535,6.107c-1.775,1.55-3.682,3.025-5.827,4.36
				c-0.33-1.766-0.566-3.065-0.847-4.562c-2.461,0.348-5.106,0.236-7.294,1.195c-2.118,0.932-4.292,2.411-5.303,5.346
				c-3.023-1.935-5.831-3.731-8.758-5.601c1.568-3.194,3.012-6.321,5.887-8.469c0.55-0.412,0.988-0.982,1.44-1.506
				C32.722,22.483,34.55,22.054,36.3,21.665"/>
		</g>
		<g style="clip-path:url(#SVGID_00000062885175533017096850000004429274948149312399_);">
			<defs>
				<polygon id="SVGID_00000127011881753474811050000009774971853075381154_" points="64.154,39.849 77.044,53.974 101.767,30.573 
					88.876,16.448 				"/>
			</defs>
			<clipPath id="SVGID_00000109730073308412282350000002243224858869260951_">
				<use xlink:href="#SVGID_00000127011881753474811050000009774971853075381154_"  style="overflow:visible;"/>
			</clipPath>
			<path style="clip-path:url(#SVGID_00000109730073308412282350000002243224858869260951_);fill:#55C95A;" d="M88.394,23.965
				c3.171,0.995,9.569,6.996,9.569,6.996c-0.923,2.479-1.39,2.195-3.487,4.905c-0.086,0.112-1.636,1.508-1.709,1.618
				c-0.416,0.627-4.703,4.427-8.88,5.57c-0.611,0.167-1.187,0.472-1.855,0.745c0.44,1.32,0.856,2.568,1.281,3.841
				c-2.347,0.335-12.858-3.017-16.445-5.254c2.488-4.512,5.3-8.792,8.679-13.069c0.724,1.517,1.292,2.71,1.981,4.151
				c2.444-1.159,4.448-2.154,6.524-3.788C85.866,28.253,87.47,26.444,88.394,23.965"/>
		</g>
		<g style="clip-path:url(#SVGID_00000062885175533017096850000004429274948149312399_);">
			<defs>
				<polygon id="SVGID_00000042729390749620901460000004077072523684509856_" points="0.385,4.001 -1,23.342 32.5,25.474 
					33.886,6.133 				"/>
			</defs>
			<clipPath id="SVGID_00000104666069688231355950000006627033218099166106_">
				<use xlink:href="#SVGID_00000042729390749620901460000004077072523684509856_"  style="overflow:visible;"/>
			</clipPath>
			<path style="clip-path:url(#SVGID_00000104666069688231355950000006627033218099166106_);fill:#E33A3A;" d="M4.71,18.494
				C3.275,15.452,3.239,6.553,3.239,6.553c2.4-1.032,2.513-0.489,5.874-0.81c0.139-0.014,2.188,0.168,2.316,0.147
				c0.73-0.125,6.355,0.422,10.002,2.729c0.534,0.337,1.142,0.554,1.791,0.86c0.647-1.24,1.259-2.414,1.882-3.61
				c1.83,1.509,6.548,11.626,7.376,15.834c-4.916,1.28-9.886,2.156-15.237,2.613c0.596-1.588,1.065-2.835,1.631-4.343
				c-2.485-1.011-4.555-1.808-7.131-2.216C9.493,17.4,7.11,17.462,4.71,18.494"/>
		</g>
		<g style="clip-path:url(#SVGID_00000062885175533017096850000004429274948149312399_);">
			<defs>
				<polygon id="SVGID_00000168815401317307688170000000260247037906235823_" points="12.557,97.479 31.57,98.335 33.402,64.185 
					14.387,63.33 				"/>
			</defs>
			<clipPath id="SVGID_00000000940657948219836440000013516712494106991020_">
				<use xlink:href="#SVGID_00000168815401317307688170000000260247037906235823_"  style="overflow:visible;"/>
			</clipPath>
			<path style="clip-path:url(#SVGID_00000000940657948219836440000013516712494106991020_);fill:#F26C2B;" d="M26.763,92.664
				c-2.977,1.547-11.72,1.839-11.72,1.839c-1.033-2.413-0.501-2.544-0.843-5.954c-0.015-0.141,0.148-2.232,0.126-2.362
				c-0.128-0.739,0.365-6.478,2.603-10.255c0.327-0.553,0.535-1.178,0.831-1.847c-1.225-0.623-2.382-1.212-3.561-1.812
				c1.467-1.905,11.37-6.997,15.498-7.959c1.296,4.966,2.196,9.997,2.687,15.43c-1.564-0.561-2.793-1.003-4.28-1.536
				c-0.973,2.559-1.74,4.687-2.121,7.32C25.651,87.828,25.73,90.251,26.763,92.664"/>
		</g>
		<g style="clip-path:url(#SVGID_00000062885175533017096850000004429274948149312399_);">
			<defs>
				<rect id="SVGID_00000114054463635997137370000010967815702357979269_" x="64.995" y="62.978" width="29.231" height="18.238"/>
			</defs>
			<clipPath id="SVGID_00000176750265685029963210000013704687927677335709_">
				<use xlink:href="#SVGID_00000114054463635997137370000010967815702357979269_"  style="overflow:visible;"/>
			</clipPath>
			<path style="clip-path:url(#SVGID_00000176750265685029963210000013704687927677335709_);fill:#523742;" d="M90.665,69.288
				c1.292-0.039,1.981-2.146,3.564-1.039c-0.261,4.264-0.514,8.479-0.786,12.967c-4.137-0.622-7.974-2.088-11.88-3.235
				c-0.212-0.33-0.388-0.612-0.611-0.942c1.049-0.903,2.127-1.816,3.225-2.759c-0.874-2.72-3.235-3.35-5.353-3.69
				c-3.447-0.554-4.71,2.205-5.75,4.497c-0.096,0.932-0.155,1.573-0.242,2.428c-2.749-0.631-5.245-1.205-7.78-1.797
				c-0.02-0.243-0.098-0.456-0.03-0.602c0.758-1.855,1.263-3.895,2.38-5.498c2.807-4.012,6.654-6.469,11.724-6.634
				c3.244-0.097,6.207,0.621,8.596,2.924C88.771,66.918,89.645,68.102,90.665,69.288"/>
		</g>
		<g style="clip-path:url(#SVGID_00000062885175533017096850000004429274948149312399_);">
			<defs>
				<rect id="SVGID_00000050621829371536235830000007562481036113323926_" x="63.769" y="79.156" width="28.517" height="17.69"/>
			</defs>
			<clipPath id="SVGID_00000048495618687728955050000002660674130741753995_">
				<use xlink:href="#SVGID_00000050621829371536235830000007562481036113323926_"  style="overflow:visible;"/>
			</clipPath>
			<path style="clip-path:url(#SVGID_00000048495618687728955050000002660674130741753995_);fill:#9F9EB1;" d="M92.287,84.781
				c-0.097,0.291-0.165,0.582-0.281,0.845c-1.477,3.35-3.041,6.731-6.324,8.644c-1.845,1.078-4.041,1.545-6.081,2.292
				c-2.087,0.758-4.021-0.194-5.983-0.592c-1.622-0.321-2.777-1.515-3.885-2.68c-0.797-0.836-1.574-1.691-2.545-2.749
				c-0.991,0.291-2.079,0.611-3.419,1.01c0.233-4.032,0.476-8.062,0.739-12.394c3.884,1.155,7.653,2.282,11.81,3.525
				c-1.145,0.992-2.058,1.778-2.942,2.555v1.544c1.447,2.517,3.759,2.992,6.439,3.051c3.323,0.077,4.012-2.584,5.43-4.789v-1.866
				C87.625,83.721,89.917,84.237,92.287,84.781"/>
		</g>
	</g>
</g>
<g id="G_x28__T1_T1_T1_L3__x29__L2_00000049198435539137650720000017302247173634914209_">
	<g>
		<defs>
			<rect id="SVGID_00000043449541564520361850000002992005773039400358_" x="-1" y="4" width="102.767" height="94.335"/>
		</defs>
		<clipPath id="SVGID_00000031897066889659213080000015118631002162481069_">
			<use xlink:href="#SVGID_00000043449541564520361850000002992005773039400358_"  style="overflow:visible;"/>
		</clipPath>
		<g style="clip-path:url(#SVGID_00000031897066889659213080000015118631002162481069_);">
			<defs>
				<polygon id="SVGID_00000034789999842721576200000008577119478850078872_" points="19.412,18.375 21.774,67.739 67.17,65.011 
					64.809,15.647 				"/>
			</defs>
			<clipPath id="SVGID_00000039102192337216876370000003847420819254304388_">
				<use xlink:href="#SVGID_00000034789999842721576200000008577119478850078872_"  style="overflow:visible;"/>
			</clipPath>
			<path style="clip-path:url(#SVGID_00000039102192337216876370000003847420819254304388_);fill:#AD70D6;" d="M45.75,66.299
				L40.74,66.6c-0.377-0.096-0.753-0.18-1.13-0.276c-2.284-0.595-4.631-1.022-6.833-1.837c-1.16-0.426-2.274-1.341-3.088-2.31
				c-1.652-1.959-3.081-4.097-4.673-6.273c-1.037,0.702-2.175,1.468-3.335,2.259c-1.206-3.086-0.473-16.935,0.985-18.549
				c3.084,0.998,6.229,1.827,9.408,2.901c1.893,0.655,3.812,1.391,5.716,2.295c-1.303,1.202-2.373,2.189-3.476,3.201
				c1.611,2.057,3.184,4.056,4.818,6.134c2.344,0.12,4.158,2.791,7.107,1.229c-0.036,0.948-0.074,1.602-0.09,2.253
				c-0.072,2.619-0.133,5.236-0.205,7.856C45.934,65.755,45.819,66.034,45.75,66.299"/>
			<path style="clip-path:url(#SVGID_00000039102192337216876370000003847420819254304388_);fill:#5699DE;" d="M66.748,56.176
				c-1.263,2.052-10.613,8.149-14.629,9.539c-1.333-3.563-2.45-7.199-3.353-11.014c-0.319-1.329-0.616-2.671-0.879-4.04
				c1.612,0.4,2.882,0.703,4.413,1.084c0.711-2.645,1.876-5.271,1.993-7.927c0.099-2.313,0.096-5.058-2.254-6.773
				c0.597-0.391,1.184-0.781,1.759-1.159c2.164-1.431,4.238-2.798,6.37-4.204c2.025,2.469,4.043,5.021,4.726,8.364
				c0.03,0.14,0.003,0.307,0.055,0.422c2.316,4.392,0.564,8.377-1.292,12.369c-0.263,0.584-0.407,1.219-0.641,1.919
				C64.308,55.246,65.516,55.706,66.748,56.176"/>
			<path style="clip-path:url(#SVGID_00000039102192337216876370000003847420819254304388_);fill:#E1D153;" d="M36.3,21.665
				c1.807-0.392,3.717-0.341,5.594-0.49c0.533-0.044,1.078-0.065,1.635-0.098c0.009-1.515,0.016-2.84,0.011-4.153
				c2.737,0.073,14.165,7.761,15.119,10.199c-2.137,2.01-4.235,4.111-6.535,6.107c-1.775,1.55-3.682,3.025-5.827,4.36
				c-0.33-1.766-0.566-3.065-0.847-4.562c-2.461,0.348-5.106,0.236-7.294,1.195c-2.118,0.932-4.292,2.411-5.303,5.346
				c-3.023-1.935-5.831-3.731-8.758-5.601c1.568-3.194,3.012-6.321,5.887-8.469c0.55-0.412,0.988-0.982,1.44-1.506
				C32.722,22.483,34.55,22.054,36.3,21.665"/>
		</g>
		<g style="clip-path:url(#SVGID_00000031897066889659213080000015118631002162481069_);">
			<defs>
				<polygon id="SVGID_00000065039173762378554120000010539222036240029854_" points="64.154,39.849 77.044,53.974 101.767,30.573 
					88.876,16.448 				"/>
			</defs>
			<clipPath id="SVGID_00000049904867385074823460000009510846012751106742_">
				<use xlink:href="#SVGID_00000065039173762378554120000010539222036240029854_"  style="overflow:visible;"/>
			</clipPath>
			<path style="clip-path:url(#SVGID_00000049904867385074823460000009510846012751106742_);fill:#55C95A;" d="M88.394,23.965
				c3.171,0.995,9.569,6.996,9.569,6.996c-0.923,2.479-1.39,2.195-3.487,4.905c-0.086,0.112-1.636,1.508-1.709,1.618
				c-0.416,0.627-4.703,4.427-8.88,5.57c-0.611,0.167-1.187,0.472-1.855,0.745c0.44,1.32,0.856,2.568,1.281,3.841
				c-2.347,0.335-12.858-3.017-16.445-5.254c2.488-4.512,5.3-8.792,8.679-13.069c0.724,1.517,1.292,2.71,1.981,4.151
				c2.444-1.159,4.448-2.154,6.524-3.788C85.866,28.253,87.47,26.444,88.394,23.965"/>
		</g>
		<g style="clip-path:url(#SVGID_00000031897066889659213080000015118631002162481069_);">
			<defs>
				<polygon id="SVGID_00000132086740841586506270000018262835468719212971_" points="0.385,4.001 -1,23.342 32.5,25.474 
					33.886,6.133 				"/>
			</defs>
			<clipPath id="SVGID_00000151505193230840545250000007351777156341153167_">
				<use xlink:href="#SVGID_00000132086740841586506270000018262835468719212971_"  style="overflow:visible;"/>
			</clipPath>
			<path style="clip-path:url(#SVGID_00000151505193230840545250000007351777156341153167_);fill:#E33A3A;" d="M4.71,18.494
				C3.275,15.452,3.239,6.553,3.239,6.553c2.4-1.032,2.513-0.489,5.874-0.81c0.139-0.014,2.188,0.168,2.316,0.147
				c0.73-0.125,6.355,0.422,10.002,2.729c0.534,0.337,1.142,0.554,1.791,0.86c0.647-1.24,1.259-2.414,1.882-3.61
				c1.83,1.509,6.548,11.626,7.376,15.834c-4.916,1.28-9.886,2.156-15.237,2.613c0.596-1.588,1.065-2.835,1.631-4.343
				c-2.485-1.011-4.555-1.808-7.131-2.216C9.493,17.4,7.11,17.462,4.71,18.494"/>
		</g>
		<g style="clip-path:url(#SVGID_00000031897066889659213080000015118631002162481069_);">
			<defs>
				<polygon id="SVGID_00000091693715283670084440000003501170978119597478_" points="12.557,97.479 31.57,98.335 33.402,64.185 
					14.387,63.33 				"/>
			</defs>
			<clipPath id="SVGID_00000040561727026514497230000001652280730683004037_">
				<use xlink:href="#SVGID_00000091693715283670084440000003501170978119597478_"  style="overflow:visible;"/>
			</clipPath>
			<path style="clip-path:url(#SVGID_00000040561727026514497230000001652280730683004037_);fill:#F26C2B;" d="M26.763,92.664
				c-2.977,1.547-11.72,1.839-11.72,1.839c-1.033-2.413-0.501-2.544-0.843-5.954c-0.015-0.141,0.148-2.232,0.126-2.362
				c-0.128-0.739,0.365-6.478,2.603-10.255c0.327-0.553,0.535-1.178,0.831-1.847c-1.225-0.623-2.382-1.212-3.561-1.812
				c1.467-1.905,11.37-6.997,15.498-7.959c1.296,4.966,2.196,9.997,2.687,15.43c-1.564-0.561-2.793-1.003-4.28-1.536
				c-0.973,2.559-1.74,4.687-2.121,7.32C25.651,87.828,25.73,90.251,26.763,92.664"/>
		</g>
		<g style="clip-path:url(#SVGID_00000031897066889659213080000015118631002162481069_);">
			<defs>
				<rect id="SVGID_00000018959861226324934070000012760835661870767807_" x="64.995" y="62.978" width="29.231" height="18.238"/>
			</defs>
			<clipPath id="SVGID_00000119821562167875004250000010170161314189744005_">
				<use xlink:href="#SVGID_00000018959861226324934070000012760835661870767807_"  style="overflow:visible;"/>
			</clipPath>
			<path style="clip-path:url(#SVGID_00000119821562167875004250000010170161314189744005_);fill:#523742;" d="M90.665,69.288
				c1.292-0.039,1.981-2.146,3.564-1.039c-0.261,4.264-0.514,8.479-0.786,12.967c-4.137-0.622-7.974-2.088-11.88-3.235
				c-0.212-0.33-0.388-0.612-0.611-0.942c1.049-0.903,2.127-1.816,3.225-2.759c-0.874-2.72-3.235-3.35-5.353-3.69
				c-3.447-0.554-4.71,2.205-5.75,4.497c-0.096,0.932-0.155,1.573-0.242,2.428c-2.749-0.631-5.245-1.205-7.78-1.797
				c-0.02-0.243-0.098-0.456-0.03-0.602c0.758-1.855,1.263-3.895,2.38-5.498c2.807-4.012,6.654-6.469,11.724-6.634
				c3.244-0.097,6.207,0.621,8.596,2.924C88.771,66.918,89.645,68.102,90.665,69.288"/>
		</g>
		<g style="clip-path:url(#SVGID_00000031897066889659213080000015118631002162481069_);">
			<defs>
				<rect id="SVGID_00000029007352112791297070000003598668796556415930_" x="63.769" y="79.156" width="28.517" height="17.69"/>
			</defs>
			<clipPath id="SVGID_00000107588527099915475600000001205765412255471532_">
				<use xlink:href="#SVGID_00000029007352112791297070000003598668796556415930_"  style="overflow:visible;"/>
			</clipPath>
			<path style="clip-path:url(#SVGID_00000107588527099915475600000001205765412255471532_);fill:#9F9EB1;" d="M92.287,84.781
				c-0.097,0.291-0.165,0.582-0.281,0.845c-1.477,3.35-3.041,6.731-6.324,8.644c-1.845,1.078-4.041,1.545-6.081,2.292
				c-2.087,0.758-4.021-0.194-5.983-0.592c-1.622-0.321-2.777-1.515-3.885-2.68c-0.797-0.836-1.574-1.691-2.545-2.749
				c-0.991,0.291-2.079,0.611-3.419,1.01c0.233-4.032,0.476-8.062,0.739-12.394c3.884,1.155,7.653,2.282,11.81,3.525
				c-1.145,0.992-2.058,1.778-2.942,2.555v1.544c1.447,2.517,3.759,2.992,6.439,3.051c3.323,0.077,4.012-2.584,5.43-4.789v-1.866
				C87.625,83.721,89.917,84.237,92.287,84.781"/>
		</g>
	</g>
</g>
</svg>
