<?xml version="1.0" encoding="iso-8859-1"?>
<!-- Generator: Adobe Illustrator 26.0.1, SVG Export Plug-In . SVG Version: 6.00 Build 0)  -->
<svg version="1.1" xmlns="http://www.w3.org/2000/svg" xmlns:xlink="http://www.w3.org/1999/xlink" x="0px" y="0px"
	 viewBox="0 0 100 100" style="enable-background:new 0 0 100 100;" xml:space="preserve">
<g id="Layer_1">
	<g id="L1_L1_L1_L1_00000116920799934836204420000011566724382851937201_">
		<g>
			<defs>
				<rect id="SVGID_1_" x="11" y="11" width="82" height="81.48"/>
			</defs>
			<clipPath id="SVGID_00000160159906003968561740000003273563306077235386_">
				<use xlink:href="#SVGID_1_"  style="overflow:visible;"/>
			</clipPath>
			<g style="clip-path:url(#SVGID_00000160159906003968561740000003273563306077235386_);">
				<defs>
					<rect id="SVGID_00000150062605486809806480000018025168738136801206_" x="11" y="11" width="82" height="81.48"/>
				</defs>
				<clipPath id="SVGID_00000148658273232395896820000017356675754546620076_">
					<use xlink:href="#SVGID_00000150062605486809806480000018025168738136801206_"  style="overflow:visible;"/>
				</clipPath>
				<g style="clip-path:url(#SVGID_00000148658273232395896820000017356675754546620076_);">
					<defs>
						<rect id="SVGID_00000009550080491021080510000003522487142723003825_" x="11" y="11" width="79.96" height="81.48"/>
					</defs>
					<clipPath id="SVGID_00000033355409456644812490000007493430644722216333_">
						<use xlink:href="#SVGID_00000009550080491021080510000003522487142723003825_"  style="overflow:visible;"/>
					</clipPath>
					<g style="opacity:0.96;clip-path:url(#SVGID_00000033355409456644812490000007493430644722216333_);">
						<g>
							<defs>
								<rect id="SVGID_00000109746595843959570920000000444492287210992283_" x="12" y="10.997" width="31.363" height="34.872"/>
							</defs>
							<clipPath id="SVGID_00000044147767992831823320000004859765448859686564_">
								<use xlink:href="#SVGID_00000109746595843959570920000000444492287210992283_"  style="overflow:visible;"/>
							</clipPath>
							<g style="clip-path:url(#SVGID_00000044147767992831823320000004859765448859686564_);">
								<defs>
									<rect id="SVGID_00000044135791602292379830000014252807969744014270_" x="13.264" y="11" width="30.092" height="18.776"/>
								</defs>
								<clipPath id="SVGID_00000090293661042758642620000000652730067449436043_">
									<use xlink:href="#SVGID_00000044135791602292379830000014252807969744014270_"  style="overflow:visible;"/>
								</clipPath>
								<path style="clip-path:url(#SVGID_00000090293661042758642620000000652730067449436043_);fill:#E1D153;" d="M39.693,17.496
									c1.33-0.04,2.04-2.21,3.67-1.07c-0.27,4.39-0.53,8.73-0.81,13.35c-4.26-0.64-8.21-2.15-12.23-3.33
									c-0.22-0.34-0.4-0.63-0.63-0.97c1.08-0.93,2.19-1.87,3.32-2.84c-0.9-2.8-3.33-3.45-5.51-3.8c-3.55-0.57-4.85,2.27-5.92,4.63
									c-0.1,0.96-0.16,1.62-0.25,2.5c-2.83-0.65-5.4-1.24-8.01-1.85c-0.02-0.25-0.1-0.47-0.03-0.62c0.78-1.91,1.3-4.01,2.45-5.66
									c2.89-4.13,6.85-6.66,12.07-6.83c3.34-0.1,6.39,0.64,8.85,3.01C37.743,15.056,38.643,16.276,39.693,17.496"/>
							</g>
							<g style="clip-path:url(#SVGID_00000044147767992831823320000004859765448859686564_);">
								<defs>
									
										<rect id="SVGID_00000177471855301661910770000009136665607773207441_" x="12.003" y="27.656" width="29.362" height="18.213"/>
								</defs>
								<clipPath id="SVGID_00000132085700912489658970000011119761712752568239_">
									<use xlink:href="#SVGID_00000177471855301661910770000009136665607773207441_"  style="overflow:visible;"/>
								</clipPath>
								<path style="clip-path:url(#SVGID_00000132085700912489658970000011119761712752568239_);fill:#55C95A;" d="M41.363,33.446
									c-0.1,0.3-0.17,0.6-0.29,0.87c-1.52,3.45-3.13,6.93-6.51,8.9c-1.9,1.11-4.16,1.59-6.26,2.36c-2.15,0.78-4.14-0.2-6.16-0.61
									c-1.67-0.33-2.86-1.56-4-2.76c-0.82-0.86-1.62-1.74-2.62-2.83c-1.02,0.3-2.14,0.63-3.52,1.04c0.24-4.15,0.49-8.3,0.76-12.76
									c4,1.19,7.88,2.35,12.16,3.63c-1.18,1.02-2.12,1.83-3.03,2.63v1.59c1.49,2.59,3.87,3.08,6.63,3.14
									c3.42,0.08,4.13-2.66,5.59-4.93v-1.92C36.563,32.356,38.923,32.886,41.363,33.446"/>
							</g>
						</g>
					</g>
					<g style="opacity:0.96;clip-path:url(#SVGID_00000033355409456644812490000007493430644722216333_);">
						<g>
							<defs>
								<rect id="SVGID_00000011719385609545226320000007281689497223672233_" x="57" y="10.997" width="31.363" height="34.872"/>
							</defs>
							<clipPath id="SVGID_00000144296372289130823950000004187709604054708386_">
								<use xlink:href="#SVGID_00000011719385609545226320000007281689497223672233_"  style="overflow:visible;"/>
							</clipPath>
							<g style="clip-path:url(#SVGID_00000144296372289130823950000004187709604054708386_);">
								<defs>
									<rect id="SVGID_00000029736236305296484490000017478830685158479532_" x="58.264" y="11" width="30.093" height="18.776"/>
								</defs>
								<clipPath id="SVGID_00000155845802707603763070000017164073371353100463_">
									<use xlink:href="#SVGID_00000029736236305296484490000017478830685158479532_"  style="overflow:visible;"/>
								</clipPath>
								<path style="clip-path:url(#SVGID_00000155845802707603763070000017164073371353100463_);fill:#5699DE;" d="M84.692,17.496
									c1.33-0.04,2.04-2.21,3.67-1.07c-0.27,4.39-0.529,8.73-0.81,13.35c-4.259-0.64-8.21-2.15-12.23-3.33
									c-0.22-0.34-0.4-0.63-0.63-0.97c1.08-0.93,2.19-1.87,3.32-2.84c-0.9-2.8-3.33-3.45-5.509-3.8
									c-3.55-0.57-4.851,2.27-5.92,4.63c-0.101,0.96-0.161,1.62-0.25,2.5c-2.83-0.65-5.401-1.24-8.011-1.85
									c-0.02-0.25-0.1-0.47-0.029-0.62c0.779-1.91,1.299-4.01,2.45-5.66c2.889-4.13,6.849-6.66,12.069-6.83
									c3.34-0.1,6.391,0.64,8.851,3.01C82.743,15.056,83.642,16.276,84.692,17.496"/>
							</g>
							<g style="clip-path:url(#SVGID_00000144296372289130823950000004187709604054708386_);">
								<defs>
									
										<rect id="SVGID_00000036227884915641148930000016908842075477702320_" x="57.003" y="27.656" width="29.362" height="18.213"/>
								</defs>
								<clipPath id="SVGID_00000154423912715024957530000015107773465657522072_">
									<use xlink:href="#SVGID_00000036227884915641148930000016908842075477702320_"  style="overflow:visible;"/>
								</clipPath>
								<path style="clip-path:url(#SVGID_00000154423912715024957530000015107773465657522072_);fill:#F26C2B;" d="M86.362,33.446
									c-0.1,0.3-0.17,0.6-0.29,0.87c-1.52,3.45-3.13,6.93-6.51,8.9c-1.899,1.11-4.16,1.59-6.26,2.36
									c-2.15,0.78-4.139-0.2-6.16-0.61c-1.67-0.33-2.86-1.56-4-2.76c-0.82-0.86-1.62-1.74-2.62-2.83
									c-1.019,0.3-2.139,0.63-3.519,1.04c0.239-4.15,0.489-8.3,0.759-12.76c4,1.19,7.88,2.35,12.161,3.63
									c-1.181,1.02-2.121,1.83-3.031,2.63v1.59c1.491,2.59,3.87,3.08,6.63,3.14c3.42,0.08,4.13-2.66,5.59-4.93v-1.92
									C81.562,32.356,83.923,32.886,86.362,33.446"/>
							</g>
						</g>
					</g>
					<g style="opacity:0.96;clip-path:url(#SVGID_00000033355409456644812490000007493430644722216333_);">
						<g>
							<defs>
								<rect id="SVGID_00000075145440725149817880000008663442355952103587_" x="11" y="54.997" width="31.363" height="34.872"/>
							</defs>
							<clipPath id="SVGID_00000010993194098435350750000014741503714833211559_">
								<use xlink:href="#SVGID_00000075145440725149817880000008663442355952103587_"  style="overflow:visible;"/>
							</clipPath>
							<g style="clip-path:url(#SVGID_00000010993194098435350750000014741503714833211559_);">
								<defs>
									
										<rect id="SVGID_00000132052516592480714850000014905596750739492507_" x="12.264" y="55.001" width="30.094" height="18.775"/>
								</defs>
								<clipPath id="SVGID_00000125590801368047871900000005773627738435947152_">
									<use xlink:href="#SVGID_00000132052516592480714850000014905596750739492507_"  style="overflow:visible;"/>
								</clipPath>
								<path style="clip-path:url(#SVGID_00000125590801368047871900000005773627738435947152_);fill:#E33A3A;" d="M38.693,61.496
									c1.33-0.04,2.04-2.21,3.67-1.07c-0.27,4.389-0.53,8.73-0.81,13.349c-4.26-0.639-8.21-2.149-12.23-3.33
									c-0.22-0.34-0.4-0.63-0.63-0.97c1.08-0.929,2.19-1.87,3.32-2.839c-0.9-2.8-3.33-3.451-5.51-3.8
									c-3.55-0.57-4.85,2.269-5.92,4.63c-0.1,0.96-0.16,1.62-0.25,2.5c-2.83-0.651-5.4-1.241-8.01-1.85
									c-0.02-0.25-0.1-0.471-0.03-0.62c0.78-1.91,1.3-4.011,2.45-5.66c2.89-4.13,6.85-6.66,12.07-6.83
									c3.34-0.1,6.39,0.639,8.85,3.01C36.743,59.056,37.643,60.275,38.693,61.496"/>
							</g>
							<g style="clip-path:url(#SVGID_00000010993194098435350750000014741503714833211559_);">
								<defs>
									
										<rect id="SVGID_00000052081423286702843890000003270644257300377264_" x="11.003" y="71.656" width="29.362" height="18.212"/>
								</defs>
								<clipPath id="SVGID_00000008132274541276995160000011755243085162513043_">
									<use xlink:href="#SVGID_00000052081423286702843890000003270644257300377264_"  style="overflow:visible;"/>
								</clipPath>
								<path style="clip-path:url(#SVGID_00000008132274541276995160000011755243085162513043_);fill:#AD70D6;" d="M40.363,77.446
									c-0.1,0.3-0.17,0.6-0.29,0.87c-1.52,3.449-3.13,6.93-6.51,8.9c-1.9,1.11-4.16,1.589-6.26,2.36
									c-2.15,0.78-4.14-0.2-6.16-0.61c-1.67-0.331-2.86-1.56-4-2.76c-0.82-0.861-1.62-1.74-2.62-2.83
									c-1.02,0.299-2.14,0.63-3.52,1.04c0.24-4.151,0.49-8.3,0.76-12.76c4,1.189,7.88,2.35,12.16,3.63
									c-1.18,1.019-2.12,1.83-3.03,2.63v1.59c1.49,2.589,3.87,3.08,6.63,3.14c3.42,0.079,4.13-2.66,5.59-4.93v-1.92
									C35.563,76.356,37.923,76.885,40.363,77.446"/>
							</g>
						</g>
					</g>
					<g style="opacity:0.96;clip-path:url(#SVGID_00000033355409456644812490000007493430644722216333_);">
						<g>
							<defs>
								<rect id="SVGID_00000156548523569426385440000000496698959278047402_" x="72" y="50.948" width="19.135" height="18.706"/>
							</defs>
							<clipPath id="SVGID_00000131352645402056685400000007926848120817301419_">
								<use xlink:href="#SVGID_00000156548523569426385440000000496698959278047402_"  style="overflow:visible;"/>
							</clipPath>
						</g>
					</g>
					<g style="opacity:0.96;clip-path:url(#SVGID_00000033355409456644812490000007493430644722216333_);">
						<g>
							<defs>
								<rect id="SVGID_00000179631009036957204260000012485425717404710569_" x="54" y="73.948" width="19.135" height="18.706"/>
							</defs>
							<clipPath id="SVGID_00000110472146163013388200000012975690554335884931_">
								<use xlink:href="#SVGID_00000179631009036957204260000012485425717404710569_"  style="overflow:visible;"/>
							</clipPath>
						</g>
					</g>
				</g>
				<g style="clip-path:url(#SVGID_00000148658273232395896820000017356675754546620076_);">
					<defs>
						<rect id="SVGID_00000099663723642759893070000000512874907615645325_" x="57.264" y="55" width="30.094" height="18.776"/>
					</defs>
					<clipPath id="SVGID_00000157301490112730729590000002240354379163769517_">
						<use xlink:href="#SVGID_00000099663723642759893070000000512874907615645325_"  style="overflow:visible;"/>
					</clipPath>
					<path style="clip-path:url(#SVGID_00000157301490112730729590000002240354379163769517_);fill:#523742;" d="M83.693,61.496
						c1.33-0.04,2.04-2.21,3.67-1.07c-0.27,4.39-0.53,8.73-0.81,13.35c-4.26-0.64-8.21-2.15-12.23-3.33
						c-0.22-0.34-0.4-0.63-0.63-0.97c1.08-0.93,2.19-1.87,3.32-2.84c-0.9-2.8-3.33-3.45-5.51-3.8c-3.55-0.57-4.85,2.27-5.92,4.63
						c-0.1,0.96-0.16,1.62-0.25,2.5c-2.83-0.65-5.4-1.24-8.01-1.85c-0.02-0.25-0.1-0.47-0.03-0.62c0.78-1.91,1.3-4.01,2.45-5.66
						c2.89-4.13,6.85-6.66,12.07-6.83c3.34-0.1,6.39,0.64,8.85,3.01C81.743,59.056,82.643,60.276,83.693,61.496"/>
				</g>
				<g style="clip-path:url(#SVGID_00000148658273232395896820000017356675754546620076_);">
					<defs>
						<rect id="SVGID_00000077300398369341049970000010133227528832751785_" x="56.003" y="71.656" width="29.36" height="18.212"/>
					</defs>
					<clipPath id="SVGID_00000028301290555690224740000008997153531123692967_">
						<use xlink:href="#SVGID_00000077300398369341049970000010133227528832751785_"  style="overflow:visible;"/>
					</clipPath>
					<path style="clip-path:url(#SVGID_00000028301290555690224740000008997153531123692967_);fill:#9F9EB1;" d="M85.363,77.446
						c-0.1,0.3-0.17,0.6-0.29,0.87c-1.52,3.45-3.13,6.93-6.51,8.9c-1.9,1.11-4.16,1.59-6.26,2.36c-2.15,0.78-4.14-0.2-6.16-0.61
						c-1.67-0.33-2.86-1.56-4-2.76c-0.82-0.86-1.62-1.74-2.62-2.83c-1.02,0.3-2.14,0.63-3.52,1.04c0.24-4.15,0.49-8.3,0.76-12.76
						c4,1.19,7.88,2.35,12.16,3.63c-1.18,1.02-2.12,1.83-3.03,2.63v1.59c1.49,2.59,3.87,3.08,6.63,3.14
						c3.42,0.08,4.13-2.66,5.59-4.93v-1.92C80.563,76.356,82.923,76.886,85.363,77.446"/>
				</g>
			</g>
		</g>
	</g>
</g>
<g id="Layer_2">
	<g id="Layer_3">
	</g>
</g>
</svg>
