<?xml version="1.0" encoding="iso-8859-1"?>
<!-- Generator: Adobe Illustrator 26.0.1, SVG Export Plug-In . SVG Version: 6.00 Build 0)  -->
<svg version="1.1" xmlns="http://www.w3.org/2000/svg" xmlns:xlink="http://www.w3.org/1999/xlink" x="0px" y="0px"
	 viewBox="0 0 100 100" style="enable-background:new 0 0 100 100;" xml:space="preserve">
<g id="Layer_1">
	<g id="G_x28__T1_L1__x29__4_00000137813589922143490250000002909158256082877873_">
		<g>
			<defs>
				<rect id="SVGID_1_" x="5.52" y="8.26" width="88.96" height="83.48"/>
			</defs>
			<clipPath id="SVGID_00000095298364205840876710000015231685460987166141_">
				<use xlink:href="#SVGID_1_"  style="overflow:visible;"/>
			</clipPath>
			<polygon style="clip-path:url(#SVGID_00000095298364205840876710000015231685460987166141_);fill:#E33A3A;" points="
				39.479,28.26 37.596,28.847 35.577,29.5 33.517,30.875 32.068,32.87 30.89,35.061 30.601,37.55 31.229,40.864 32.34,42.958 
				33.851,44.774 36.003,45.734 37.712,46.292 39.482,46.551 39.92,46.74 40.826,46.74 41.274,46.586 43.77,46.058 45.799,45.226 
				47.32,43.665 48.594,41.912 49.145,39.801 49.48,38.22 49.48,36.222 48.981,34.376 47.827,32.2 46.248,30.371 44.049,29.323 
				41.221,28.26 			"/>
			<g style="clip-path:url(#SVGID_00000095298364205840876710000015231685460987166141_);">
				<defs>
					
						<rect id="SVGID_00000094581934222744304070000008672001964220405897_" x="13.546" y="5.855" transform="matrix(0.2915 -0.9566 0.9566 0.2915 -4.0295 35.1998)" width="16.4" height="28.929"/>
				</defs>
				<clipPath id="SVGID_00000005244098310578954860000014315562357157907387_">
					<use xlink:href="#SVGID_00000094581934222744304070000008672001964220405897_"  style="overflow:visible;"/>
				</clipPath>
				<path style="clip-path:url(#SVGID_00000005244098310578954860000014315562357157907387_);fill:#E1D153;" d="M11.212,21.084
					c-0.634-2.796,1.001-10.148,1.001-10.148c2.205-0.374,2.199,0.096,5.075,0.5c0.118,0.017,1.801,0.575,1.913,0.583
					c0.635,0.042,5.246,1.614,7.87,4.244c0.385,0.385,0.854,0.685,1.34,1.067c0.774-0.895,1.507-1.741,2.253-2.604
					c1.251,1.609,3.312,10.899,3.217,14.538c-4.358,0.076-8.687-0.19-13.256-0.878c0.796-1.192,1.422-2.128,2.179-3.26
					c-1.894-1.329-3.479-2.399-5.561-3.25C15.424,21.134,13.417,20.71,11.212,21.084"/>
			</g>
			<polygon style="clip-path:url(#SVGID_00000095298364205840876710000015231685460987166141_);fill:#55C95A;" points="
				83.478,28.26 81.596,28.847 79.576,29.5 77.516,30.875 76.068,32.87 74.89,35.061 74.601,37.55 75.229,40.864 76.34,42.958 
				77.851,44.774 80.003,45.734 81.712,46.292 83.482,46.551 83.919,46.74 84.826,46.74 85.274,46.586 87.77,46.058 89.799,45.226 
				91.32,43.665 92.594,41.912 93.144,39.801 93.48,38.22 93.48,36.222 92.981,34.376 91.826,32.2 90.248,30.371 88.049,29.323 
				85.22,28.26 			"/>
			<g style="clip-path:url(#SVGID_00000095298364205840876710000015231685460987166141_);">
				<defs>
					
						<rect id="SVGID_00000152224289464157276130000007819938840824354707_" x="57.546" y="5.855" transform="matrix(0.2915 -0.9566 0.9566 0.2915 27.1461 77.2894)" width="16.4" height="28.929"/>
				</defs>
				<clipPath id="SVGID_00000078017522302861801380000017821921715129318275_">
					<use xlink:href="#SVGID_00000152224289464157276130000007819938840824354707_"  style="overflow:visible;"/>
				</clipPath>
				<path style="clip-path:url(#SVGID_00000078017522302861801380000017821921715129318275_);fill:#5699DE;" d="M55.212,21.084
					c-0.634-2.796,1.001-10.148,1.001-10.148c2.205-0.374,2.199,0.096,5.075,0.5c0.118,0.017,1.801,0.575,1.913,0.583
					c0.635,0.042,5.246,1.614,7.87,4.244c0.385,0.385,0.854,0.685,1.34,1.067c0.774-0.895,1.507-1.741,2.253-2.604
					c1.251,1.609,3.312,10.899,3.217,14.538c-4.358,0.076-8.687-0.19-13.256-0.878c0.796-1.192,1.422-2.128,2.179-3.26
					c-1.894-1.329-3.479-2.399-5.561-3.25C59.424,21.134,57.417,20.71,55.212,21.084"/>
			</g>
			<polygon style="clip-path:url(#SVGID_00000095298364205840876710000015231685460987166141_);fill:#F26C2B;" points="
				40.479,73.26 38.597,73.847 36.577,74.5 34.517,75.875 33.068,77.87 31.89,80.061 31.601,82.55 32.229,85.864 33.341,87.958 
				34.851,89.774 37.004,90.734 38.712,91.292 40.482,91.551 40.92,91.74 41.826,91.74 42.274,91.586 44.771,91.058 46.799,90.226 
				48.32,88.665 49.595,86.912 50.145,84.801 50.48,83.22 50.48,81.222 49.982,79.376 48.827,77.2 47.248,75.371 45.05,74.323 
				42.221,73.26 			"/>
			<g style="clip-path:url(#SVGID_00000095298364205840876710000015231685460987166141_);">
				<defs>
					
						<rect id="SVGID_00000136391162091651216790000002904684794737835695_" x="14.546" y="50.855" transform="matrix(0.2915 -0.9566 0.9566 0.2915 -46.3672 68.0406)" width="16.4" height="28.929"/>
				</defs>
				<clipPath id="SVGID_00000024723026650744724530000011322422616462069921_">
					<use xlink:href="#SVGID_00000136391162091651216790000002904684794737835695_"  style="overflow:visible;"/>
				</clipPath>
				<path style="clip-path:url(#SVGID_00000024723026650744724530000011322422616462069921_);fill:#AD70D6;" d="M12.212,66.084
					c-0.634-2.796,1.001-10.148,1.001-10.148c2.205-0.374,2.199,0.096,5.075,0.5c0.118,0.017,1.801,0.575,1.913,0.583
					c0.635,0.042,5.246,1.614,7.87,4.244c0.385,0.385,0.854,0.685,1.34,1.067c0.774-0.895,1.507-1.741,2.253-2.604
					c1.251,1.609,3.312,10.899,3.217,14.538c-4.358,0.076-8.687-0.19-13.256-0.878c0.796-1.192,1.422-2.128,2.179-3.26
					c-1.894-1.329-3.479-2.399-5.561-3.25C16.424,66.134,14.417,65.71,12.212,66.084"/>
			</g>
			<polygon style="clip-path:url(#SVGID_00000095298364205840876710000015231685460987166141_);fill:#9F9EB1;" points="
				84.479,73.26 82.596,73.847 80.577,74.5 78.517,75.875 77.068,77.87 75.89,80.061 75.601,82.55 76.229,85.864 77.34,87.958 
				78.851,89.774 81.003,90.734 82.712,91.292 84.482,91.551 84.92,91.74 85.826,91.74 86.274,91.586 88.77,91.058 90.799,90.226 
				92.32,88.665 93.594,86.912 94.145,84.801 94.48,83.22 94.48,81.222 93.981,79.376 92.827,77.2 91.248,75.371 89.049,74.323 
				86.221,73.26 			"/>
			<g style="clip-path:url(#SVGID_00000095298364205840876710000015231685460987166141_);">
				<defs>
					
						<rect id="SVGID_00000106853023135670224810000009573270834668862897_" x="58.546" y="50.855" transform="matrix(0.2915 -0.9566 0.9566 0.2915 -15.1916 110.1302)" width="16.4" height="28.929"/>
				</defs>
				<clipPath id="SVGID_00000183962381751492926440000006622181583087356816_">
					<use xlink:href="#SVGID_00000106853023135670224810000009573270834668862897_"  style="overflow:visible;"/>
				</clipPath>
				<path style="clip-path:url(#SVGID_00000183962381751492926440000006622181583087356816_);fill:#523742;" d="M56.212,66.084
					c-0.634-2.796,1.001-10.148,1.001-10.148c2.205-0.374,2.199,0.096,5.075,0.5c0.118,0.017,1.801,0.575,1.913,0.583
					c0.635,0.042,5.246,1.614,7.87,4.244c0.385,0.385,0.854,0.685,1.34,1.067c0.774-0.895,1.507-1.741,2.253-2.604
					c1.251,1.609,3.312,10.899,3.217,14.538c-4.358,0.076-8.687-0.19-13.256-0.878c0.796-1.192,1.422-2.128,2.179-3.26
					c-1.894-1.329-3.479-2.399-5.561-3.25C60.424,66.134,58.417,65.71,56.212,66.084"/>
			</g>
		</g>
	</g>
</g>
<g id="Layer_2">
	<g id="Layer_3">
	</g>
</g>
</svg>
