<?xml version="1.0" encoding="iso-8859-1"?>
<!-- Generator: Adobe Illustrator 26.0.1, SVG Export Plug-In . SVG Version: 6.00 Build 0)  -->
<svg version="1.1" xmlns="http://www.w3.org/2000/svg" xmlns:xlink="http://www.w3.org/1999/xlink" x="0px" y="0px"
	 viewBox="0 0 100 100" style="enable-background:new 0 0 100 100;" xml:space="preserve">
<g id="Layer_1">
	<g id="G_x28__T1_T1_T1_T1_L1__x29__L1_L1_L1_00000079465981545779411340000000671229909375732112_">
		<g>
			<defs>
				<rect id="SVGID_1_" x="-1" y="5" width="103.104" height="109.615"/>
			</defs>
			<clipPath id="SVGID_00000092414831060456364770000001467846580312997276_">
				<use xlink:href="#SVGID_1_"  style="overflow:visible;"/>
			</clipPath>
			<g style="clip-path:url(#SVGID_00000092414831060456364770000001467846580312997276_);">
				<defs>
					
						<rect id="SVGID_00000127744251369269694230000009530096363337624765_" x="25.849" y="24.148" transform="matrix(0.2654 -0.9641 0.9641 0.2654 -11.906 62.7673)" width="18.779" height="30.098"/>
				</defs>
				<clipPath id="SVGID_00000137132351119602982670000009672956197959286684_">
					<use xlink:href="#SVGID_00000127744251369269694230000009530096363337624765_"  style="overflow:visible;"/>
				</clipPath>
				<path style="clip-path:url(#SVGID_00000137132351119602982670000009672956197959286684_);fill:#E1D153;" d="M46.976,39.43
					c1.293,0.315,2.554-1.589,3.823-0.058c-1.427,4.161-2.828,8.277-4.326,12.657c-3.936-1.748-7.344-4.252-10.907-6.457
					c-0.121-0.386-0.218-0.714-0.35-1.103c1.289-0.609,2.608-1.221,3.956-1.856c-0.125-2.939-2.295-4.211-4.305-5.126
					c-3.271-1.492-5.278,0.9-6.936,2.892c-0.351,0.899-0.584,1.52-0.905,2.343c-2.555-1.377-4.876-2.628-7.231-3.909
					c0.046-0.246,0.028-0.479,0.136-0.606c1.258-1.634,2.317-3.521,3.863-4.806c3.884-3.216,8.373-4.603,13.451-3.381
					c3.247,0.79,5.99,2.313,7.733,5.251C45.744,36.559,46.287,37.975,46.976,39.43"/>
			</g>
			<g style="clip-path:url(#SVGID_00000092414831060456364770000001467846580312997276_);">
				<defs>
					
						<rect id="SVGID_00000020384743457422508310000004972744247185297808_" x="57.62" y="35.625" transform="matrix(0.1893 -0.9819 0.9819 0.1893 14.7109 107.8479)" width="30.097" height="18.779"/>
				</defs>
				<clipPath id="SVGID_00000163071284164672414690000011483243183821356430_">
					<use xlink:href="#SVGID_00000020384743457422508310000004972744247185297808_"  style="overflow:visible;"/>
				</clipPath>
				<path style="clip-path:url(#SVGID_00000163071284164672414690000011483243183821356430_);fill:#5699DE;" d="M73.352,56.735
					c-0.212,1.313,1.784,2.422,0.356,3.807c-4.26-1.097-8.472-2.174-12.955-3.324c1.434-4.061,3.665-7.654,5.585-11.378
					c0.375-0.151,0.694-0.273,1.071-0.435c0.709,1.237,1.422,2.504,2.161,3.798c2.919-0.354,4.018-2.617,4.774-4.691
					c1.232-3.378-1.311-5.193-3.425-6.69c-0.924-0.28-1.56-0.463-2.408-0.718c1.174-2.656,2.24-5.068,3.333-7.515
					c0.249,0.027,0.481-0.01,0.614,0.087c1.728,1.128,3.692,2.036,5.094,3.478c3.509,3.619,5.243,7.986,4.421,13.144
					c-0.534,3.3-1.837,6.153-4.63,8.12C76.117,55.282,74.749,55.935,73.352,56.735"/>
			</g>
			<g style="clip-path:url(#SVGID_00000092414831060456364770000001467846580312997276_);">
				<defs>
					
						<rect id="SVGID_00000074437241305214974920000009819052405917326234_" x="13.346" y="70.031" transform="matrix(0.1902 -0.9817 0.9817 0.1902 -54.9774 92.191)" width="30.098" height="18.78"/>
				</defs>
				<clipPath id="SVGID_00000139989863298292973310000013988154210251655062_">
					<use xlink:href="#SVGID_00000074437241305214974920000009819052405917326234_"  style="overflow:visible;"/>
				</clipPath>
				<path style="clip-path:url(#SVGID_00000139989863298292973310000013988154210251655062_);fill:#AD70D6;" d="M27.721,67.7
					c0.213-1.313-1.782-2.423-0.353-3.807c4.259,1.101,8.471,2.181,12.953,3.335c-1.439,4.061-3.673,7.651-5.596,11.373
					c-0.376,0.151-0.695,0.273-1.072,0.434c-0.708-1.237-1.42-2.505-2.156-3.799c-2.921,0.35-4.021,2.613-4.779,4.686
					c-1.235,3.377,1.305,5.194,3.419,6.693c0.923,0.281,1.56,0.465,2.407,0.721c-1.176,2.655-2.244,5.065-3.341,7.512
					c-0.249-0.028-0.479,0.009-0.613-0.089c-1.727-1.129-3.69-2.039-5.091-3.482c-3.505-3.622-5.235-7.992-4.409-13.149
					c0.536-3.298,1.843-6.151,4.638-8.115C24.955,69.15,26.323,68.499,27.721,67.7"/>
			</g>
			<g style="clip-path:url(#SVGID_00000092414831060456364770000001467846580312997276_);">
				<defs>
					
						<rect id="SVGID_00000181778119495998682960000001179787129623972486_" x="55.55" y="70.199" transform="matrix(0.3176 -0.9482 0.9482 0.3176 -36.5198 119.7522)" width="18.779" height="30.098"/>
				</defs>
				<clipPath id="SVGID_00000044178719799624612540000009664137681235017880_">
					<use xlink:href="#SVGID_00000181778119495998682960000001179787129623972486_"  style="overflow:visible;"/>
				</clipPath>
				<path style="clip-path:url(#SVGID_00000044178719799624612540000009664137681235017880_);fill:#9F9EB1;" d="M53.231,84.375
					c-1.274-0.385-2.637,1.448-3.82-0.151c1.65-4.077,3.276-8.11,5.008-12.401c3.837,1.96,7.102,4.646,10.54,7.042
					c0.101,0.392,0.178,0.724,0.289,1.119c-1.319,0.539-2.671,1.078-4.051,1.64c-0.035,2.94,2.062,4.328,4.019,5.352
					c3.185,1.668,5.319-0.612,7.084-2.51c0.399-0.878,0.666-1.485,1.031-2.291c2.476,1.515,4.726,2.892,7.007,4.299
					c-0.061,0.243-0.055,0.477-0.168,0.597c-1.346,1.563-2.506,3.389-4.121,4.588c-4.052,2.999-8.611,4.14-13.614,2.643
					c-3.2-0.966-5.856-2.636-7.436-5.665C54.305,87.308,53.839,85.865,53.231,84.375"/>
			</g>
			<polygon style="clip-path:url(#SVGID_00000092414831060456364770000001467846580312997276_);fill:#523742;" points="
				50.136,52.986 48.014,53.08 45.663,53.859 43.738,55.397 42.021,57.197 41.081,59.518 41.081,59.521 40.806,62.881 
				41.323,65.195 42.296,67.347 44.117,68.844 45.616,69.837 47.254,70.555 47.626,70.854 48.5,71.094 48.972,71.064 51.519,71.218 
				53.696,70.954 55.576,69.853 57.271,68.503 58.361,66.612 59.105,65.174 59.635,63.25 59.645,61.338 59.108,58.935 
				58.072,56.752 56.23,55.157 53.786,53.381 52.109,52.92 			"/>
			<polygon style="clip-path:url(#SVGID_00000092414831060456364770000001467846580312997276_);fill:#E33A3A;" points="19.961,6 
				18.077,6.587 16.056,7.24 13.997,8.615 12.549,10.61 11.371,12.801 11.082,15.29 11.708,18.604 12.822,20.698 14.332,22.514 
				16.484,23.473 18.193,24.032 19.961,24.291 20.399,24.48 21.306,24.48 21.753,24.326 24.251,23.798 26.278,22.966 27.799,21.405 
				29.076,19.652 29.625,17.541 29.96,15.955 29.96,13.962 29.462,12.115 28.307,9.94 26.728,8.111 24.53,7.063 21.7,6 			"/>
			<polygon style="clip-path:url(#SVGID_00000092414831060456364770000001467846580312997276_);fill:#F26C2B;" points="48.958,5 
				47.076,5.587 45.057,6.24 42.997,7.615 41.549,9.61 40.37,11.801 40.082,14.29 40.709,17.604 41.821,19.697 43.331,21.514 
				45.483,22.474 47.192,23.032 48.962,23.291 49.399,23.48 50.306,23.48 50.754,23.326 53.25,22.798 55.278,21.965 56.799,20.405 
				58.075,18.652 58.624,16.541 58.96,14.959 58.96,12.962 58.461,11.116 57.307,8.94 55.727,7.111 53.529,6.062 50.7,5 			"/>
			<polygon style="clip-path:url(#SVGID_00000092414831060456364770000001467846580312997276_);fill:#55C95A;" points="78.961,6 
				77.076,6.587 75.056,7.24 72.996,8.615 71.548,10.61 70.37,12.801 70.082,15.282 70.082,15.295 70.708,18.604 71.822,20.698 
				73.331,22.514 75.483,23.473 77.192,24.032 78.961,24.291 79.399,24.48 80.306,24.48 80.753,24.326 83.25,23.798 85.278,22.966 
				86.799,21.405 88.076,19.652 88.625,17.541 88.96,15.955 88.96,13.965 88.461,12.115 87.306,9.94 85.728,8.111 83.529,7.063 
				80.7,6 			"/>
		</g>
	</g>
</g>
<g id="Layer_2">
	<g id="Layer_3">
	</g>
</g>
</svg>
