<?xml version="1.0" encoding="iso-8859-1"?>
<!-- Generator: Adobe Illustrator 26.0.1, SVG Export Plug-In . SVG Version: 6.00 Build 0)  -->
<svg version="1.1" id="Layer_1" xmlns="http://www.w3.org/2000/svg" xmlns:xlink="http://www.w3.org/1999/xlink" x="0px" y="0px"
	 viewBox="0 0 100 100" style="enable-background:new 0 0 100 100;" xml:space="preserve">
<g id="G_x28__T_x5F_1_T_x5F_1_T_x5F_1_L3__x29__L2_1_" style="display:none;">
	<g style="display:inline;">
		<defs>
			<rect id="SVGID_1_" x="-1" y="4" width="102.767" height="94.335"/>
		</defs>
		<clipPath id="SVGID_00000094595241389108056140000006061948217232381374_">
			<use xlink:href="#SVGID_1_"  style="overflow:visible;"/>
		</clipPath>
		<g style="clip-path:url(#SVGID_00000094595241389108056140000006061948217232381374_);">
			<defs>
				<polygon id="SVGID_00000126316950975292648690000003787238853968803458_" points="19.412,18.375 21.774,67.739 67.17,65.011 
					64.809,15.647 				"/>
			</defs>
			<clipPath id="SVGID_00000054977219967317195860000016745729083656888222_">
				<use xlink:href="#SVGID_00000126316950975292648690000003787238853968803458_"  style="overflow:visible;"/>
			</clipPath>
			<path style="clip-path:url(#SVGID_00000054977219967317195860000016745729083656888222_);fill:#E1D153;" d="M45.75,66.299
				L40.74,66.6c-0.377-0.096-0.753-0.18-1.13-0.276c-2.284-0.595-4.631-1.022-6.833-1.837c-1.16-0.426-2.274-1.341-3.088-2.31
				c-1.652-1.959-3.081-4.097-4.673-6.273c-1.037,0.702-2.175,1.468-3.335,2.259c-1.206-3.086-0.473-16.935,0.985-18.549
				c3.084,0.998,6.229,1.827,9.408,2.901c1.893,0.655,3.812,1.391,5.716,2.295c-1.303,1.202-2.373,2.189-3.476,3.201
				c1.611,2.057,3.184,4.056,4.818,6.134c2.344,0.12,4.158,2.791,7.107,1.229c-0.036,0.948-0.074,1.602-0.09,2.253
				c-0.072,2.619-0.133,5.236-0.205,7.856C45.934,65.755,45.819,66.034,45.75,66.299"/>
			<path style="clip-path:url(#SVGID_00000054977219967317195860000016745729083656888222_);fill:#5699DE;" d="M66.748,56.176
				c-1.263,2.052-10.613,8.149-14.629,9.539c-1.333-3.563-2.45-7.199-3.353-11.014c-0.319-1.329-0.616-2.671-0.879-4.04
				c1.612,0.4,2.882,0.703,4.413,1.084c0.711-2.645,1.876-5.271,1.993-7.927c0.099-2.313,0.096-5.058-2.254-6.773
				c0.597-0.391,1.184-0.781,1.759-1.159c2.164-1.431,4.238-2.798,6.37-4.204c2.025,2.469,4.043,5.021,4.726,8.364
				c0.03,0.14,0.003,0.307,0.055,0.422c2.316,4.392,0.564,8.377-1.292,12.369c-0.263,0.584-0.407,1.219-0.641,1.919
				C64.308,55.246,65.516,55.706,66.748,56.176"/>
			<path style="clip-path:url(#SVGID_00000054977219967317195860000016745729083656888222_);fill:#AD70D6;" d="M36.3,21.665
				c1.807-0.392,3.717-0.341,5.594-0.49c0.533-0.044,1.078-0.065,1.635-0.098c0.009-1.515,0.016-2.84,0.011-4.153
				c2.737,0.073,14.165,7.761,15.119,10.199c-2.137,2.01-4.235,4.111-6.535,6.107c-1.775,1.55-3.682,3.025-5.827,4.36
				c-0.33-1.766-0.566-3.065-0.847-4.562c-2.461,0.348-5.106,0.236-7.294,1.195c-2.118,0.932-4.292,2.411-5.303,5.346
				c-3.023-1.935-5.831-3.731-8.758-5.601c1.568-3.194,3.012-6.321,5.887-8.469c0.55-0.412,0.988-0.982,1.44-1.506
				C32.722,22.483,34.55,22.054,36.3,21.665"/>
		</g>
		<g style="clip-path:url(#SVGID_00000094595241389108056140000006061948217232381374_);">
			<defs>
				<polygon id="SVGID_00000093152584940340611090000014741977804172090042_" points="64.154,39.849 77.044,53.974 101.767,30.573 
					88.876,16.448 				"/>
			</defs>
			<clipPath id="SVGID_00000120520724319258127140000004833529527156342940_">
				<use xlink:href="#SVGID_00000093152584940340611090000014741977804172090042_"  style="overflow:visible;"/>
			</clipPath>
			<path style="clip-path:url(#SVGID_00000120520724319258127140000004833529527156342940_);fill:#55C95A;" d="M88.394,23.965
				c3.171,0.995,9.569,6.996,9.569,6.996c-0.923,2.479-1.39,2.195-3.487,4.905c-0.086,0.112-1.636,1.508-1.709,1.618
				c-0.416,0.627-4.703,4.427-8.88,5.57c-0.611,0.167-1.187,0.472-1.855,0.745c0.44,1.32,0.856,2.568,1.281,3.841
				c-2.347,0.335-12.858-3.017-16.445-5.254c2.488-4.512,5.3-8.792,8.679-13.069c0.724,1.517,1.292,2.71,1.981,4.151
				c2.444-1.159,4.448-2.154,6.524-3.788C85.866,28.253,87.47,26.444,88.394,23.965"/>
		</g>
		<g style="clip-path:url(#SVGID_00000094595241389108056140000006061948217232381374_);">
			<defs>
				<polygon id="SVGID_00000096762104551640109770000017660268180678645645_" points="0.385,4.001 -1,23.342 32.5,25.474 
					33.886,6.133 				"/>
			</defs>
			<clipPath id="SVGID_00000119817091712801667630000000260833854402535588_">
				<use xlink:href="#SVGID_00000096762104551640109770000017660268180678645645_"  style="overflow:visible;"/>
			</clipPath>
			<path style="clip-path:url(#SVGID_00000119817091712801667630000000260833854402535588_);fill:#F26C2B;" d="M4.71,18.494
				C3.275,15.452,3.239,6.553,3.239,6.553c2.4-1.032,2.513-0.489,5.874-0.81c0.139-0.014,2.188,0.168,2.316,0.147
				c0.73-0.125,6.355,0.422,10.002,2.729c0.534,0.337,1.142,0.554,1.791,0.86c0.647-1.24,1.259-2.414,1.882-3.61
				c1.83,1.509,6.548,11.626,7.376,15.834c-4.916,1.28-9.886,2.156-15.237,2.613c0.596-1.588,1.065-2.835,1.631-4.343
				c-2.485-1.011-4.555-1.808-7.131-2.216C9.493,17.4,7.11,17.462,4.71,18.494"/>
		</g>
		<g style="clip-path:url(#SVGID_00000094595241389108056140000006061948217232381374_);">
			<defs>
				<polygon id="SVGID_00000086675213058200139730000018065757817233927826_" points="12.557,97.479 31.57,98.335 33.402,64.185 
					14.387,63.33 				"/>
			</defs>
			<clipPath id="SVGID_00000049941068012174788600000006227122995533777047_">
				<use xlink:href="#SVGID_00000086675213058200139730000018065757817233927826_"  style="overflow:visible;"/>
			</clipPath>
			<path style="clip-path:url(#SVGID_00000049941068012174788600000006227122995533777047_);fill:#E33A3A;" d="M26.763,92.664
				c-2.977,1.547-11.72,1.839-11.72,1.839c-1.033-2.413-0.501-2.544-0.843-5.954c-0.015-0.141,0.148-2.232,0.126-2.362
				c-0.128-0.739,0.365-6.478,2.603-10.255c0.327-0.553,0.535-1.178,0.831-1.847c-1.225-0.623-2.382-1.212-3.561-1.812
				c1.467-1.905,11.37-6.997,15.498-7.959c1.296,4.966,2.196,9.997,2.687,15.43c-1.564-0.561-2.793-1.003-4.28-1.536
				c-0.973,2.559-1.74,4.687-2.121,7.32C25.651,87.828,25.73,90.251,26.763,92.664"/>
		</g>
		<g style="clip-path:url(#SVGID_00000094595241389108056140000006061948217232381374_);">
			<defs>
				<rect id="SVGID_00000111886113231155554590000010163908935807069829_" x="63.769" y="79.156" width="28.517" height="17.69"/>
			</defs>
			<clipPath id="SVGID_00000181801247393041135650000016589101507572041378_">
				<use xlink:href="#SVGID_00000111886113231155554590000010163908935807069829_"  style="overflow:visible;"/>
			</clipPath>
		</g>
	</g>
</g>
<g id="T2_x5F_4_1_" style="display:none;">
	<g style="display:inline;">
		<defs>
			<rect id="SVGID_00000103979636583640152250000011117883155654340794_" x="42" y="65" width="51.96" height="34.743"/>
		</defs>
		<clipPath id="SVGID_00000118395275672076554060000005371285893562598055_">
			<use xlink:href="#SVGID_00000103979636583640152250000011117883155654340794_"  style="overflow:visible;"/>
		</clipPath>
		<polygon style="clip-path:url(#SVGID_00000118395275672076554060000005371285893562598055_);fill:#9F9EB1;" points="83.964,77 
			82.076,77.588 80.056,78.242 77.996,79.616 76.548,81.61 75.37,83.802 75.082,86.283 75.082,86.295 75.708,89.604 76.821,91.699 
			78.331,93.515 80.483,94.474 82.192,95.033 83.961,95.292 84.4,95.481 85.305,95.481 85.752,95.327 88.25,94.798 90.279,93.966 
			91.799,92.407 93.075,90.653 93.624,88.542 93.96,86.96 93.96,84.961 93.461,83.116 92.306,80.941 90.728,79.111 88.529,78.063 
			85.698,77 		"/>
		<g style="clip-path:url(#SVGID_00000118395275672076554060000005371285893562598055_);">
			<defs>
				
					<rect id="SVGID_00000178893034734073298380000016582730587039330234_" x="44.783" y="72.982" transform="matrix(0.7465 -0.6653 0.6653 0.7465 -39.6397 60.6857)" width="30.098" height="18.779"/>
			</defs>
			<clipPath id="SVGID_00000022524302325443393940000012520540277523933073_">
				<use xlink:href="#SVGID_00000178893034734073298380000016582730587039330234_"  style="overflow:visible;"/>
			</clipPath>
			<path style="clip-path:url(#SVGID_00000022524302325443393940000012520540277523933073_);fill:#523742;" d="M66.404,72.642
				c0.966-0.915,0.053-3.007,2.027-3.24c2.72,3.457,5.413,6.87,8.278,10.506c-3.606,2.355-7.56,3.856-11.346,5.65
				c-0.391-0.107-0.718-0.204-1.115-0.306c0.187-1.412,0.39-2.852,0.589-4.329c-2.536-1.491-4.782-0.359-6.642,0.829
				c-3.03,1.937-2.111,4.922-1.34,7.396c0.565,0.783,0.959,1.315,1.477,2.033c-2.545,1.398-4.857,2.666-7.211,3.947
				c-0.181-0.173-0.387-0.284-0.435-0.442c-0.688-1.945-1.697-3.859-1.936-5.856c-0.591-5.006,0.683-9.53,4.466-13.129
				c2.427-2.297,5.197-3.774,8.611-3.641C63.325,72.118,64.808,72.43,66.404,72.642"/>
		</g>
	</g>
</g>
<g id="G_x28__T1_T1_T1_L3__x29__T1_L1_00000091733631212012444130000008291941123108310191_">
	<g>
		<defs>
			<rect id="SVGID_00000068636301840607085250000017741560193389729177_" x="-1" y="3" width="102.767" height="96.721"/>
		</defs>
		<clipPath id="SVGID_00000090990594435347693330000015119118707132806579_">
			<use xlink:href="#SVGID_00000068636301840607085250000017741560193389729177_"  style="overflow:visible;"/>
		</clipPath>
		<g style="clip-path:url(#SVGID_00000090990594435347693330000015119118707132806579_);">
			<defs>
				<rect id="SVGID_00000183245417650037217890000011298688351443892632_" x="-1" y="3" width="102.767" height="96.721"/>
			</defs>
			<clipPath id="SVGID_00000080927068010692284570000015363400106293648800_">
				<use xlink:href="#SVGID_00000183245417650037217890000011298688351443892632_"  style="overflow:visible;"/>
			</clipPath>
			<g style="clip-path:url(#SVGID_00000080927068010692284570000015363400106293648800_);">
				<defs>
					<rect id="SVGID_00000081624518373488541050000001577768821142297741_" x="-1" y="3" width="102.767" height="96.721"/>
				</defs>
				<clipPath id="SVGID_00000007403390719090093300000006782263331285996210_">
					<use xlink:href="#SVGID_00000081624518373488541050000001577768821142297741_"  style="overflow:visible;"/>
				</clipPath>
				<g style="opacity:0.99;clip-path:url(#SVGID_00000007403390719090093300000006782263331285996210_);">
					<g>
						<defs>
							
								<rect id="SVGID_00000005955876580242844220000015795947853669040555_" x="19.408" y="14.642" width="47.766" height="52.098"/>
						</defs>
						<clipPath id="SVGID_00000023281948081889783080000007668154123007290496_">
							<use xlink:href="#SVGID_00000005955876580242844220000015795947853669040555_"  style="overflow:visible;"/>
						</clipPath>
						<g style="clip-path:url(#SVGID_00000023281948081889783080000007668154123007290496_);">
							<defs>
								<polygon id="SVGID_00000103249437777296267340000009659425705666537620_" points="19.412,17.375 21.774,66.739 
									67.17,64.011 64.809,14.647 								"/>
							</defs>
							<clipPath id="SVGID_00000173840993249184331390000014410012505805046951_">
								<use xlink:href="#SVGID_00000103249437777296267340000009659425705666537620_"  style="overflow:visible;"/>
							</clipPath>
							<g style="clip-path:url(#SVGID_00000173840993249184331390000014410012505805046951_);">
								<defs>
									
										<rect id="SVGID_00000066493246223235515310000003881096500547294142_" x="24.097" y="15.928" width="34.56" height="22.64"/>
								</defs>
								<clipPath id="SVGID_00000125565448939588439740000005040260395812184207_">
									<use xlink:href="#SVGID_00000066493246223235515310000003881096500547294142_"  style="overflow:visible;"/>
								</clipPath>
								<g style="clip-path:url(#SVGID_00000125565448939588439740000005040260395812184207_);">
									<defs>
										
											<rect id="SVGID_00000165207648234575833180000010376813738957103493_" x="24.097" y="15.928" width="34.56" height="22.64"/>
									</defs>
									<clipPath id="SVGID_00000183961315397851979890000003677420367559376807_">
										<use xlink:href="#SVGID_00000165207648234575833180000010376813738957103493_"  style="overflow:visible;"/>
									</clipPath>
									<path style="clip-path:url(#SVGID_00000183961315397851979890000003677420367559376807_);fill:#AD70D6;" d="M58.656,26.128
										c-2.13,2-4.229,4.11-6.53,6.1c-1.78,1.55-3.679,3.03-5.83,4.36c-0.329-1.76-0.57-3.06-0.849-4.56
										c-2.46,0.35-5.101,0.24-7.291,1.19c-2.12,0.94-4.29,2.42-5.3,5.35c-3.03-1.93-5.83-3.73-8.76-5.6
										c1.57-3.19,3.01-6.32,5.88-8.47c0.56-0.41,0.991-0.98,1.44-1.51c1.31-1.5,3.13-1.93,4.88-2.32c1.81-0.4,3.72-0.34,5.6-0.49
										c0.531-0.05,1.08-0.07,1.63-0.1c0.01-1.52,0.02-2.84,0.01-4.15C46.276,15.998,57.707,23.688,58.656,26.128"/>
								</g>
							</g>
							<g style="clip-path:url(#SVGID_00000173840993249184331390000014410012505805046951_);">
								<defs>
									
										<rect id="SVGID_00000035490345892771358130000015983215654811682694_" x="21.074" y="38.618" width="25.162" height="26.98"/>
								</defs>
								<clipPath id="SVGID_00000018236627654906945450000014702620172296317844_">
									<use xlink:href="#SVGID_00000035490345892771358130000015983215654811682694_"  style="overflow:visible;"/>
								</clipPath>
								<g style="clip-path:url(#SVGID_00000018236627654906945450000014702620172296317844_);">
									<defs>
										
											<rect id="SVGID_00000001648826944249165940000011588001480360098452_" x="21.074" y="38.618" width="25.162" height="26.98"/>
									</defs>
									<clipPath id="SVGID_00000016046894412597086160000002633390253122406051_">
										<use xlink:href="#SVGID_00000001648826944249165940000011588001480360098452_"  style="overflow:visible;"/>
									</clipPath>
									<path style="clip-path:url(#SVGID_00000016046894412597086160000002633390253122406051_);fill:#E1D153;" d="M46.237,54.379
										c-0.03,0.939-0.07,1.6-0.09,2.25c-0.07,2.619-0.13,5.239-0.2,7.85c-0.01,0.28-0.13,0.559-0.2,0.82l-5.01,0.3
										c-0.37-0.09-0.75-0.18-1.13-0.271c-2.28-0.599-4.63-1.029-6.83-1.84c-1.16-0.429-2.27-1.339-3.09-2.309
										c-1.65-1.96-3.08-4.101-4.67-6.271c-1.04,0.7-2.18,1.46-3.34,2.25c-1.2-3.08-0.47-16.929,0.99-18.539
										c3.08,0.989,6.23,1.82,9.41,2.9c1.89,0.65,3.81,1.39,5.71,2.29c-1.3,1.199-2.37,2.19-3.47,3.199
										c1.61,2.06,3.18,4.06,4.82,6.141C41.477,53.269,43.287,55.939,46.237,54.379"/>
								</g>
							</g>
							<g style="clip-path:url(#SVGID_00000173840993249184331390000014410012505805046951_);">
								<defs>
									
										<rect id="SVGID_00000068637645080938694140000014291713452103382959_" x="47.887" y="30.678" width="18.86" height="34.04"/>
								</defs>
								<clipPath id="SVGID_00000060751875709723088520000000455890212488626354_">
									<use xlink:href="#SVGID_00000068637645080938694140000014291713452103382959_"  style="overflow:visible;"/>
								</clipPath>
								<g style="clip-path:url(#SVGID_00000060751875709723088520000000455890212488626354_);">
									<defs>
										
											<rect id="SVGID_00000061455212081629519430000000375405300483737736_" x="47.887" y="30.678" width="18.86" height="34.04"/>
									</defs>
									<clipPath id="SVGID_00000154394266414587429230000016709094399203305889_">
										<use xlink:href="#SVGID_00000061455212081629519430000000375405300483737736_"  style="overflow:visible;"/>
									</clipPath>
									<path style="clip-path:url(#SVGID_00000154394266414587429230000016709094399203305889_);fill:#5699DE;" d="M64.946,39.469
										c2.32,4.39,0.57,8.38-1.29,12.37c-0.26,0.58-0.409,1.22-0.64,1.92c1.29,0.489,2.5,0.95,3.731,1.42
										c-1.261,2.05-10.611,8.149-14.631,9.54c-1.33-3.57-2.45-7.2-3.35-11.02c-0.32-1.33-0.62-2.67-0.88-4.04
										c1.61,0.4,2.88,0.7,4.41,1.09c0.711-2.65,1.88-5.27,2.001-7.93c0.099-2.31,0.089-5.06-2.261-6.77
										c0.6-0.39,1.19-0.79,1.761-1.16c2.17-1.43,4.239-2.8,6.37-4.21c2.029,2.47,4.04,5.02,4.729,8.37
										C64.926,39.189,64.896,39.349,64.946,39.469"/>
								</g>
							</g>
						</g>
					</g>
				</g>
			</g>
			<g style="clip-path:url(#SVGID_00000080927068010692284570000015363400106293648800_);">
				<defs>
					<polygon id="SVGID_00000093146452465820167000000018012024650922519436_" points="64.154,38.848 77.044,52.974 101.767,29.573 
						88.876,15.447 					"/>
				</defs>
				<clipPath id="SVGID_00000176736554473822660330000011983234079913487515_">
					<use xlink:href="#SVGID_00000093146452465820167000000018012024650922519436_"  style="overflow:visible;"/>
				</clipPath>
				<g style="clip-path:url(#SVGID_00000176736554473822660330000011983234079913487515_);">
					<defs>
						<rect id="SVGID_00000090291439242051907260000015667059349786974387_" x="66.867" y="22.968" width="31.1" height="23.694"/>
					</defs>
					<clipPath id="SVGID_00000169530539568320236110000010659803373486169000_">
						<use xlink:href="#SVGID_00000090291439242051907260000015667059349786974387_"  style="overflow:visible;"/>
					</clipPath>
					<g style="clip-path:url(#SVGID_00000169530539568320236110000010659803373486169000_);">
						<defs>
							<rect id="SVGID_00000062881706432315561390000017205905886163859356_" x="66.867" y="22.968" width="31.1" height="23.694"/>
						</defs>
						<clipPath id="SVGID_00000061446882793535586630000000211458391488068233_">
							<use xlink:href="#SVGID_00000062881706432315561390000017205905886163859356_"  style="overflow:visible;"/>
						</clipPath>
						<path style="clip-path:url(#SVGID_00000061446882793535586630000000211458391488068233_);fill:#55C95A;" d="M97.967,29.958
							c-0.931,2.48-1.391,2.2-3.49,4.91c-0.09,0.11-1.64,1.51-1.71,1.62c-0.42,0.62-4.7,4.42-8.88,5.57
							c-0.61,0.16-1.191,0.47-1.86,0.74c0.45,1.32,0.86,2.57,1.29,3.84c-2.35,0.34-12.86-3.02-16.451-5.25
							c2.491-4.51,5.301-8.79,8.681-13.07c0.72,1.52,1.29,2.71,1.98,4.15c2.45-1.16,4.45-2.15,6.53-3.79
							c1.809-1.43,3.41-3.23,4.34-5.71C91.567,23.958,97.967,29.958,97.967,29.958"/>
					</g>
				</g>
			</g>
			<g style="clip-path:url(#SVGID_00000080927068010692284570000015363400106293648800_);">
				<defs>
					<polygon id="SVGID_00000003089082189082387240000011725982877286270080_" points="-1,22.341 32.5,24.474 33.886,5.133 
						0.385,3.001 					"/>
				</defs>
				<clipPath id="SVGID_00000155142425796189017110000003198816490366354859_">
					<use xlink:href="#SVGID_00000003089082189082387240000011725982877286270080_"  style="overflow:visible;"/>
				</clipPath>
				<g style="clip-path:url(#SVGID_00000155142425796189017110000003198816490366354859_);">
					<defs>
						<rect id="SVGID_00000073681384745925952090000013479537418709471161_" x="3.237" y="4.738" width="29.24" height="18.58"/>
					</defs>
					<clipPath id="SVGID_00000126288185969607092660000009549420175522397342_">
						<use xlink:href="#SVGID_00000073681384745925952090000013479537418709471161_"  style="overflow:visible;"/>
					</clipPath>
					<g style="clip-path:url(#SVGID_00000126288185969607092660000009549420175522397342_);">
						<defs>
							<rect id="SVGID_00000182504197963927286890000011881017548565516676_" x="3.237" y="4.738" width="29.24" height="18.58"/>
						</defs>
						<clipPath id="SVGID_00000086687981186300993480000018319301990206110376_">
							<use xlink:href="#SVGID_00000182504197963927286890000011881017548565516676_"  style="overflow:visible;"/>
						</clipPath>
						<path style="clip-path:url(#SVGID_00000086687981186300993480000018319301990206110376_);fill:#F26C2B;" d="M25.107,4.868
							c1.83,1.51,6.55,11.63,7.37,15.83c-4.91,1.28-9.88,2.16-15.23,2.62c0.59-1.59,1.06-2.84,1.63-4.35
							c-2.49-1.01-4.56-1.8-7.13-2.21c-2.25-0.36-4.64-0.3-7.04,0.74c-1.43-3.05-1.47-11.95-1.47-11.95
							c2.4-1.03,2.52-0.48,5.88-0.81c0.13-0.01,2.18,0.17,2.31,0.15c0.73-0.12,6.36,0.42,10,2.73c0.54,0.34,1.15,0.55,1.79,0.86
							C23.866,7.239,24.476,6.069,25.107,4.868"/>
					</g>
				</g>
			</g>
			<g style="clip-path:url(#SVGID_00000080927068010692284570000015363400106293648800_);">
				<defs>
					<polygon id="SVGID_00000069399016766553986660000004852113804979446428_" points="12.557,97.479 31.57,98.335 33.402,64.185 
						14.387,63.33 					"/>
				</defs>
				<clipPath id="SVGID_00000084526797652196157060000011265689175743554205_">
					<use xlink:href="#SVGID_00000069399016766553986660000004852113804979446428_"  style="overflow:visible;"/>
				</clipPath>
				<g style="clip-path:url(#SVGID_00000084526797652196157060000011265689175743554205_);">
					<defs>
						<rect id="SVGID_00000143606852081632871270000000194250142712011404_" x="14.196" y="64.318" width="18.19" height="30.18"/>
					</defs>
					<clipPath id="SVGID_00000067223409880269558390000014038512523865729977_">
						<use xlink:href="#SVGID_00000143606852081632871270000000194250142712011404_"  style="overflow:visible;"/>
					</clipPath>
					<g style="clip-path:url(#SVGID_00000067223409880269558390000014038512523865729977_);">
						<defs>
							<rect id="SVGID_00000033351288445493866390000013659308140339798958_" x="14.196" y="64.318" width="18.19" height="30.18"/>
						</defs>
						<clipPath id="SVGID_00000168796905435370632390000002188449934710631325_">
							<use xlink:href="#SVGID_00000033351288445493866390000013659308140339798958_"  style="overflow:visible;"/>
						</clipPath>
						<path style="clip-path:url(#SVGID_00000168796905435370632390000002188449934710631325_);fill:#E33A3A;" d="M29.697,64.318
							c1.3,4.96,2.2,9.99,2.69,15.43c-1.57-0.57-2.8-1.01-4.28-1.539c-0.98,2.559-1.74,4.689-2.12,7.319
							c-0.34,2.3-0.26,4.72,0.78,7.141c-2.98,1.54-11.72,1.829-11.72,1.829c-1.04-2.409-0.5-2.539-0.85-5.95
							c-0.01-0.14,0.15-2.23,0.13-2.36c-0.13-0.74,0.36-6.479,2.6-10.26c0.33-0.549,0.54-1.17,0.83-1.839
							c-1.22-0.63-2.38-1.221-3.56-1.821C15.667,70.368,25.567,65.278,29.697,64.318"/>
					</g>
				</g>
			</g>
			<polygon style="clip-path:url(#SVGID_00000080927068010692284570000015363400106293648800_);fill:#9F9EB1;" points="
				82.73,76.978 80.842,77.566 78.823,78.22 76.762,79.594 75.314,81.588 74.136,83.78 73.848,86.261 73.848,86.273 74.474,89.582 
				75.588,91.677 77.097,93.493 79.25,94.452 80.959,95.011 82.727,95.27 83.167,95.459 84.071,95.459 84.519,95.305 87.016,94.776 
				89.045,93.944 90.565,92.385 91.842,90.631 92.39,88.52 92.726,86.934 92.726,84.943 92.227,83.094 91.073,80.919 89.494,79.089 
				87.296,78.041 84.464,76.978 			"/>
			<g style="clip-path:url(#SVGID_00000080927068010692284570000015363400106293648800_);">
				<defs>
					
						<rect id="SVGID_00000070110864004890791300000012042488918270571653_" x="43.549" y="72.96" transform="matrix(0.7465 -0.6653 0.6653 0.7465 -39.9379 59.8595)" width="30.098" height="18.779"/>
				</defs>
				<clipPath id="SVGID_00000129202549535466148150000013094742836776578988_">
					<use xlink:href="#SVGID_00000070110864004890791300000012042488918270571653_"  style="overflow:visible;"/>
				</clipPath>
				<path style="clip-path:url(#SVGID_00000129202549535466148150000013094742836776578988_);fill:#523742;" d="M65.171,72.62
					c0.966-0.915,0.053-3.007,2.027-3.24c2.72,3.457,5.413,6.87,8.278,10.506c-3.606,2.355-7.56,3.856-11.346,5.65
					c-0.391-0.107-0.718-0.204-1.115-0.306c0.187-1.412,0.39-2.852,0.589-4.329c-2.536-1.491-4.782-0.359-6.642,0.829
					c-3.03,1.937-2.111,4.922-1.34,7.396c0.565,0.783,0.959,1.315,1.477,2.033c-2.545,1.398-4.857,2.666-7.211,3.947
					c-0.181-0.173-0.387-0.284-0.435-0.442c-0.688-1.945-1.697-3.859-1.936-5.856c-0.591-5.006,0.683-9.53,4.466-13.129
					c2.427-2.297,5.197-3.774,8.611-3.641C62.092,72.096,63.575,72.408,65.171,72.62"/>
			</g>
		</g>
	</g>
</g>
</svg>
