<?xml version="1.0" encoding="iso-8859-1"?>
<!-- Generator: Adobe Illustrator 26.0.1, SVG Export Plug-In . SVG Version: 6.00 Build 0)  -->
<svg version="1.1" id="Layer_1" xmlns="http://www.w3.org/2000/svg" xmlns:xlink="http://www.w3.org/1999/xlink" x="0px" y="0px"
	 viewBox="0 0 100 100" style="enable-background:new 0 0 100 100;" xml:space="preserve">
<g id="L3_1_" style="display:none;">
	<g style="display:inline;">
		<defs>
			<rect id="SVGID_1_" x="4" y="30" width="41.854" height="39.147"/>
		</defs>
		<clipPath id="SVGID_00000147929164504313466640000018035784785367245720_">
			<use xlink:href="#SVGID_1_"  style="overflow:visible;"/>
		</clipPath>
		<g style="clip-path:url(#SVGID_00000147929164504313466640000018035784785367245720_);">
			<defs>
				<rect id="SVGID_00000022531707789509889910000003280042291013298334_" x="4" y="30" width="41.854" height="39.147"/>
			</defs>
			<clipPath id="SVGID_00000075864855275725091280000001761579272345279111_">
				<use xlink:href="#SVGID_00000022531707789509889910000003280042291013298334_"  style="overflow:visible;"/>
			</clipPath>
			<g style="clip-path:url(#SVGID_00000075864855275725091280000001761579272345279111_);">
				<defs>
					<rect id="SVGID_00000000908999054790760150000003502004254588937646_" x="4.004" y="30.002" width="41.85" height="39.148"/>
				</defs>
				<clipPath id="SVGID_00000090984749060252759090000001580627728124291244_">
					<use xlink:href="#SVGID_00000000908999054790760150000003502004254588937646_"  style="overflow:visible;"/>
				</clipPath>
				<g style="clip-path:url(#SVGID_00000090984749060252759090000001580627728124291244_);">
					<defs>
						<rect id="SVGID_00000097489477412570068360000003701422928771074179_" x="4.004" y="30.002" width="41.85" height="39.148"/>
					</defs>
					<clipPath id="SVGID_00000080197194339709148910000010782791012663704508_">
						<use xlink:href="#SVGID_00000097489477412570068360000003701422928771074179_"  style="overflow:visible;"/>
					</clipPath>
					<path style="clip-path:url(#SVGID_00000080197194339709148910000010782791012663704508_);fill:#F26C2B;" d="M45.854,48.472
						v4.32c-0.1,0.32-0.19,0.64-0.29,0.96c-0.62,1.94-1.1,3.94-1.9,5.8c-0.42,0.98-1.25,1.9-2.11,2.56
						c-1.74,1.34-3.62,2.48-5.54,3.76c0.54,0.92,1.13,1.93,1.74,2.96c-2.67,0.91-14.34-0.29-15.63-1.61c1-2.61,1.86-5.28,2.93-7.97
						c0.65-1.6,1.37-3.22,2.23-4.82c0.95,1.17,1.73,2.13,2.53,3.12c1.82-1.3,3.59-2.57,5.43-3.89c0.22-2.01,2.57-3.46,1.4-6.06
						c0.8,0.07,1.35,0.13,1.9,0.17c2.21,0.17,4.42,0.33,6.63,0.5C45.404,48.292,45.634,48.402,45.854,48.472"/>
					<path style="clip-path:url(#SVGID_00000080197194339709148910000010782791012663704508_);fill:#E33A3A;" d="M38.364,30.002
						c1.67,1.17,6.35,9.46,7.32,12.97c-3.08,1-6.21,1.81-9.48,2.43c-1.14,0.22-2.29,0.42-3.46,0.59c0.42-1.37,0.74-2.45,1.14-3.75
						c-2.2-0.72-4.36-1.83-6.6-2.04c-1.95-0.18-4.27-0.29-5.84,1.66c-0.3-0.53-0.6-1.05-0.89-1.56c-1.1-1.92-2.15-3.76-3.23-5.65
						c2.19-1.64,4.45-3.27,7.31-3.72c0.12-0.02,0.26,0.01,0.36-0.03c3.83-1.81,7.11-0.14,10.39,1.62c0.48,0.25,1.01,0.4,1.59,0.63
						C37.454,32.062,37.904,31.042,38.364,30.002"/>
					<path style="clip-path:url(#SVGID_00000080197194339709148910000010782791012663704508_);fill:#55C95A;" d="M7.644,54.762
						c-0.24-1.57-0.1-3.21-0.13-4.83c-0.01-0.46,0-0.93,0-1.41c-1.28-0.07-2.4-0.13-3.51-0.18c0.2-2.35,7.28-11.86,9.39-12.58
						c1.59,1.92,3.26,3.81,4.83,5.87c1.22,1.59,2.37,3.29,3.39,5.19c-1.51,0.21-2.62,0.36-3.9,0.54c0.17,2.13-0.06,4.4,0.64,6.32
						c0.68,1.86,1.82,3.79,4.25,4.78c-1.79,2.52-3.45,4.86-5.18,7.3c-2.62-1.48-5.19-2.85-6.86-5.41c-0.32-0.49-0.78-0.89-1.2-1.3
						C8.154,57.872,7.884,56.282,7.644,54.762"/>
				</g>
			</g>
		</g>
	</g>
</g>
<g id="L3_2_" style="display:none;">
	<g style="display:inline;">
		<defs>
			<rect id="SVGID_00000070084977270483747380000006827772188484854669_" x="50" y="5" width="41.854" height="39.147"/>
		</defs>
		<clipPath id="SVGID_00000013171859469384654460000014128791279732456868_">
			<use xlink:href="#SVGID_00000070084977270483747380000006827772188484854669_"  style="overflow:visible;"/>
		</clipPath>
		<g style="clip-path:url(#SVGID_00000013171859469384654460000014128791279732456868_);">
			<defs>
				<rect id="SVGID_00000101088356865071892960000010102573524606055825_" x="50" y="5" width="41.854" height="39.147"/>
			</defs>
			<clipPath id="SVGID_00000078007538561312866060000010330683252706643370_">
				<use xlink:href="#SVGID_00000101088356865071892960000010102573524606055825_"  style="overflow:visible;"/>
			</clipPath>
			<g style="clip-path:url(#SVGID_00000078007538561312866060000010330683252706643370_);">
				<defs>
					<rect id="SVGID_00000009590157838030748960000011388559113947521468_" x="50.004" y="5.002" width="41.85" height="39.148"/>
				</defs>
				<clipPath id="SVGID_00000101075149851711398490000007066977021542969245_">
					<use xlink:href="#SVGID_00000009590157838030748960000011388559113947521468_"  style="overflow:visible;"/>
				</clipPath>
				<g style="clip-path:url(#SVGID_00000101075149851711398490000007066977021542969245_);">
					<defs>
						<rect id="SVGID_00000067942004168204409940000011356261102960967322_" x="50.004" y="5.002" width="41.85" height="39.148"/>
					</defs>
					<clipPath id="SVGID_00000023965604221669232660000009202133562784847249_">
						<use xlink:href="#SVGID_00000067942004168204409940000011356261102960967322_"  style="overflow:visible;"/>
					</clipPath>
					<path style="clip-path:url(#SVGID_00000023965604221669232660000009202133562784847249_);fill:#E1D153;" d="M91.854,23.472
						v4.32c-0.1,0.32-0.19,0.64-0.29,0.96c-0.62,1.94-1.1,3.94-1.9,5.8c-0.42,0.98-1.25,1.9-2.11,2.56
						c-1.74,1.34-3.62,2.48-5.54,3.76c0.54,0.92,1.13,1.93,1.74,2.96c-2.67,0.91-14.34-0.29-15.63-1.61c1-2.61,1.86-5.28,2.93-7.97
						c0.65-1.6,1.37-3.22,2.23-4.82c0.95,1.17,1.73,2.13,2.53,3.12c1.82-1.3,3.59-2.57,5.43-3.89c0.22-2.01,2.57-3.46,1.4-6.06
						c0.8,0.07,1.35,0.13,1.9,0.17c2.21,0.17,4.42,0.33,6.63,0.5C91.404,23.292,91.634,23.402,91.854,23.472"/>
					<path style="clip-path:url(#SVGID_00000023965604221669232660000009202133562784847249_);fill:#AD70D6;" d="M84.364,5.002
						c1.67,1.17,6.35,9.46,7.32,12.97c-3.08,1-6.21,1.81-9.48,2.43c-1.14,0.22-2.29,0.42-3.46,0.59c0.42-1.37,0.74-2.45,1.14-3.75
						c-2.2-0.72-4.36-1.83-6.6-2.04c-1.95-0.18-4.27-0.29-5.84,1.66c-0.3-0.53-0.6-1.05-0.89-1.56c-1.1-1.92-2.15-3.76-3.23-5.65
						c2.19-1.64,4.45-3.27,7.31-3.72c0.12-0.02,0.26,0.01,0.36-0.03c3.83-1.81,7.11-0.14,10.39,1.62c0.48,0.25,1.01,0.4,1.59,0.63
						C83.454,7.062,83.904,6.042,84.364,5.002"/>
					<path style="clip-path:url(#SVGID_00000023965604221669232660000009202133562784847249_);fill:#5699DE;" d="M53.644,29.762
						c-0.24-1.57-0.1-3.21-0.13-4.83c-0.01-0.46,0-0.93,0-1.41c-1.28-0.07-2.4-0.13-3.51-0.18c0.2-2.35,7.28-11.86,9.39-12.58
						c1.59,1.92,3.26,3.81,4.83,5.87c1.22,1.59,2.37,3.29,3.39,5.19c-1.51,0.21-2.62,0.36-3.9,0.54c0.17,2.13-0.06,4.4,0.64,6.32
						c0.68,1.86,1.82,3.79,4.25,4.78c-1.79,2.52-3.45,4.86-5.18,7.3c-2.62-1.48-5.19-2.85-6.86-5.41c-0.32-0.49-0.78-0.89-1.2-1.3
						C54.154,32.872,53.884,31.282,53.644,29.762"/>
				</g>
			</g>
		</g>
	</g>
</g>
<g id="T2_x5F_4_1_" style="display:none;">
	<g style="display:inline;">
		<defs>
			<rect id="SVGID_00000021831719433171488990000007738208765291425682_" x="41" y="61" width="51.96" height="34.743"/>
		</defs>
		<clipPath id="SVGID_00000104669830440713878820000014555678897127167400_">
			<use xlink:href="#SVGID_00000021831719433171488990000007738208765291425682_"  style="overflow:visible;"/>
		</clipPath>
		<polygon style="clip-path:url(#SVGID_00000104669830440713878820000014555678897127167400_);fill:#523742;" points="82.964,73 
			81.076,73.588 79.056,74.242 76.996,75.616 75.548,77.61 74.37,79.802 74.082,82.283 74.082,82.295 74.708,85.604 75.821,87.699 
			77.331,89.515 79.483,90.474 81.192,91.033 82.961,91.292 83.4,91.481 84.305,91.481 84.752,91.327 87.25,90.798 89.279,89.966 
			90.799,88.407 92.075,86.653 92.624,84.542 92.96,82.96 92.96,80.961 92.461,79.116 91.306,76.941 89.728,75.111 87.529,74.063 
			84.698,73 		"/>
		<g style="clip-path:url(#SVGID_00000104669830440713878820000014555678897127167400_);">
			<defs>
				
					<rect id="SVGID_00000110438182371705545840000015177208736767707315_" x="43.783" y="68.982" transform="matrix(0.7465 -0.6653 0.6653 0.7465 -37.2318 59.0065)" width="30.098" height="18.779"/>
			</defs>
			<clipPath id="SVGID_00000082357001941471264300000003669414071353567912_">
				<use xlink:href="#SVGID_00000110438182371705545840000015177208736767707315_"  style="overflow:visible;"/>
			</clipPath>
			<path style="clip-path:url(#SVGID_00000082357001941471264300000003669414071353567912_);fill:#9F9EB1;" d="M65.404,68.642
				c0.966-0.915,0.053-3.007,2.027-3.24c2.72,3.457,5.413,6.87,8.278,10.506c-3.606,2.355-7.56,3.856-11.346,5.65
				c-0.391-0.107-0.718-0.204-1.115-0.306c0.187-1.412,0.39-2.852,0.589-4.329c-2.536-1.491-4.782-0.359-6.642,0.829
				c-3.03,1.937-2.111,4.922-1.34,7.396c0.565,0.783,0.959,1.315,1.477,2.033c-2.545,1.398-4.857,2.666-7.211,3.947
				c-0.181-0.173-0.387-0.284-0.435-0.442c-0.688-1.945-1.697-3.859-1.936-5.856c-0.591-5.006,0.683-9.53,4.466-13.129
				c2.427-2.297,5.197-3.774,8.611-3.641C62.325,68.118,63.808,68.43,65.404,68.642"/>
		</g>
	</g>
</g>
<g id="L3_L3_T2_00000134209854024569650130000017260384385553624989_">
	<g>
		<defs>
			<rect id="SVGID_00000159442953027419295460000017024881233561402504_" x="5" y="5" width="88.96" height="90.743"/>
		</defs>
		<clipPath id="SVGID_00000100380100535463465520000006493724443579732916_">
			<use xlink:href="#SVGID_00000159442953027419295460000017024881233561402504_"  style="overflow:visible;"/>
		</clipPath>
		<g style="clip-path:url(#SVGID_00000100380100535463465520000006493724443579732916_);">
			<defs>
				<rect id="SVGID_00000126322661918949819410000012607280600385665705_" x="5.004" y="30.002" width="41.85" height="39.145"/>
			</defs>
			<clipPath id="SVGID_00000125588888211295681830000002905091144790802848_">
				<use xlink:href="#SVGID_00000126322661918949819410000012607280600385665705_"  style="overflow:visible;"/>
			</clipPath>
			<path style="clip-path:url(#SVGID_00000125588888211295681830000002905091144790802848_);fill:#F26C2B;" d="M46.854,48.472v4.32
				c-0.1,0.32-0.19,0.64-0.29,0.96c-0.62,1.94-1.1,3.94-1.9,5.8c-0.42,0.98-1.25,1.9-2.11,2.56c-1.74,1.34-3.62,2.48-5.54,3.76
				c0.54,0.92,1.13,1.93,1.74,2.96c-2.67,0.91-14.34-0.29-15.63-1.61c1-2.61,1.86-5.28,2.93-7.97c0.65-1.6,1.37-3.22,2.23-4.82
				c0.95,1.17,1.73,2.13,2.53,3.12c1.82-1.3,3.59-2.57,5.43-3.89c0.22-2.01,2.57-3.46,1.4-6.06c0.8,0.07,1.35,0.13,1.9,0.17
				c2.21,0.17,4.42,0.33,6.63,0.5C46.404,48.292,46.634,48.402,46.854,48.472"/>
			<path style="clip-path:url(#SVGID_00000125588888211295681830000002905091144790802848_);fill:#E33A3A;" d="M39.364,30.002
				c1.67,1.17,6.35,9.46,7.32,12.97c-3.08,1-6.21,1.81-9.48,2.43c-1.14,0.22-2.29,0.42-3.46,0.59c0.42-1.37,0.74-2.45,1.14-3.75
				c-2.2-0.72-4.36-1.83-6.6-2.04c-1.95-0.18-4.27-0.29-5.84,1.66c-0.3-0.53-0.6-1.05-0.89-1.56c-1.1-1.92-2.15-3.76-3.23-5.65
				c2.19-1.64,4.45-3.27,7.31-3.72c0.12-0.02,0.26,0.01,0.36-0.03c3.83-1.81,7.11-0.14,10.39,1.62c0.48,0.25,1.01,0.4,1.59,0.63
				C38.454,32.062,38.904,31.042,39.364,30.002"/>
			<path style="clip-path:url(#SVGID_00000125588888211295681830000002905091144790802848_);fill:#55C95A;" d="M8.644,54.762
				c-0.24-1.57-0.1-3.21-0.13-4.83c-0.01-0.46,0-0.93,0-1.41c-1.28-0.07-2.4-0.13-3.51-0.18c0.2-2.35,7.28-11.86,9.39-12.58
				c1.59,1.92,3.26,3.81,4.83,5.87c1.22,1.59,2.37,3.29,3.39,5.19c-1.51,0.21-2.62,0.36-3.9,0.54c0.17,2.13-0.06,4.4,0.64,6.32
				c0.68,1.86,1.82,3.79,4.25,4.78c-1.79,2.52-3.45,4.86-5.18,7.3c-2.62-1.48-5.19-2.85-6.86-5.41c-0.32-0.49-0.78-0.89-1.2-1.3
				C9.154,57.872,8.884,56.282,8.644,54.762"/>
		</g>
		<g style="clip-path:url(#SVGID_00000100380100535463465520000006493724443579732916_);">
			<defs>
				<rect id="SVGID_00000143601969045330399890000017395250019731433870_" x="51.003" y="5.002" width="41.85" height="39.145"/>
			</defs>
			<clipPath id="SVGID_00000115474957170228018670000009651136208232313265_">
				<use xlink:href="#SVGID_00000143601969045330399890000017395250019731433870_"  style="overflow:visible;"/>
			</clipPath>
			<path style="clip-path:url(#SVGID_00000115474957170228018670000009651136208232313265_);fill:#E1D153;" d="M92.854,23.472v4.32
				c-0.1,0.32-0.189,0.64-0.289,0.96c-0.62,1.94-1.101,3.94-1.9,5.8c-0.42,0.98-1.25,1.9-2.111,2.56
				c-1.739,1.34-3.62,2.48-5.54,3.76c0.54,0.92,1.13,1.93,1.74,2.96c-2.67,0.91-14.339-0.29-15.629-1.61
				c1-2.61,1.86-5.28,2.929-7.97c0.651-1.6,1.37-3.22,2.231-4.82c0.95,1.17,1.729,2.13,2.53,3.12c1.819-1.3,3.59-2.57,5.43-3.89
				c0.219-2.01,2.57-3.46,1.399-6.06c0.801,0.07,1.351,0.13,1.9,0.17c2.21,0.17,4.42,0.33,6.63,0.5
				C92.404,23.292,92.633,23.402,92.854,23.472"/>
			<path style="clip-path:url(#SVGID_00000115474957170228018670000009651136208232313265_);fill:#AD70D6;" d="M85.364,5.002
				c1.67,1.17,6.35,9.46,7.319,12.97c-3.08,1-6.21,1.81-9.479,2.43c-1.141,0.22-2.29,0.42-3.46,0.59c0.42-1.37,0.739-2.45,1.14-3.75
				c-2.201-0.72-4.361-1.83-6.6-2.04c-1.95-0.18-4.271-0.29-5.841,1.66c-0.3-0.53-0.6-1.05-0.89-1.56
				c-1.099-1.92-2.15-3.76-3.229-5.65c2.189-1.64,4.449-3.27,7.31-3.72c0.12-0.02,0.259,0.01,0.36-0.03
				c3.83-1.81,7.109-0.14,10.39,1.62c0.48,0.25,1.009,0.4,1.589,0.63C84.454,7.062,84.903,6.042,85.364,5.002"/>
			<path style="clip-path:url(#SVGID_00000115474957170228018670000009651136208232313265_);fill:#5699DE;" d="M54.644,29.762
				c-0.24-1.57-0.1-3.21-0.13-4.83c-0.01-0.46,0-0.93,0-1.41c-1.28-0.07-2.4-0.13-3.51-0.18c0.2-2.35,7.28-11.86,9.39-12.58
				c1.59,1.92,3.26,3.81,4.83,5.87c1.22,1.59,2.37,3.29,3.39,5.19c-1.51,0.21-2.62,0.36-3.9,0.54c0.17,2.13-0.06,4.4,0.64,6.32
				c0.68,1.86,1.82,3.79,4.25,4.78c-1.79,2.52-3.45,4.86-5.18,7.3c-2.62-1.48-5.19-2.85-6.86-5.41c-0.32-0.49-0.78-0.89-1.2-1.3
				C55.154,32.872,54.884,31.282,54.644,29.762"/>
		</g>
		<polygon style="clip-path:url(#SVGID_00000100380100535463465520000006493724443579732916_);fill:#523742;" points="83.964,73 
			82.076,73.589 80.055,74.242 77.996,75.615 76.548,77.61 75.37,79.802 75.082,82.283 75.082,82.295 75.707,85.604 76.821,87.699 
			78.331,89.515 80.483,90.474 82.192,91.032 83.96,91.292 84.4,91.481 85.304,91.481 85.751,91.327 88.25,90.798 90.279,89.966 
			91.799,88.407 93.075,86.653 93.624,84.542 93.959,82.96 93.959,80.961 93.461,79.115 92.305,76.941 90.728,75.11 88.529,74.063 
			85.698,73 		"/>
		<g style="clip-path:url(#SVGID_00000100380100535463465520000006493724443579732916_);">
			<defs>
				
					<rect id="SVGID_00000013162654178003542070000003306085828396066471_" x="44.783" y="68.982" transform="matrix(0.7465 -0.6654 0.6654 0.7465 -36.9791 59.6754)" width="30.098" height="18.778"/>
			</defs>
			<clipPath id="SVGID_00000070801870483138149070000001542494710526036114_">
				<use xlink:href="#SVGID_00000013162654178003542070000003306085828396066471_"  style="overflow:visible;"/>
			</clipPath>
			<path style="clip-path:url(#SVGID_00000070801870483138149070000001542494710526036114_);fill:#9F9EB1;" d="M66.404,68.642
				c0.966-0.915,0.053-3.007,2.027-3.24c2.72,3.457,5.413,6.87,8.278,10.506c-3.606,2.355-7.56,3.856-11.346,5.65
				c-0.391-0.107-0.718-0.204-1.115-0.306c0.187-1.412,0.39-2.852,0.589-4.329c-2.536-1.491-4.782-0.359-6.642,0.829
				c-3.03,1.937-2.111,4.922-1.34,7.396c0.565,0.783,0.959,1.315,1.477,2.033c-2.545,1.398-4.857,2.666-7.211,3.947
				c-0.181-0.173-0.387-0.284-0.435-0.442c-0.688-1.945-1.697-3.859-1.936-5.856c-0.591-5.006,0.683-9.53,4.466-13.129
				c2.427-2.297,5.197-3.774,8.611-3.641C63.325,68.118,64.808,68.43,66.404,68.642"/>
		</g>
	</g>
</g>
</svg>
