<?xml version="1.0" encoding="iso-8859-1"?>
<!-- Generator: Adobe Illustrator 26.0.1, SVG Export Plug-In . SVG Version: 6.00 Build 0)  -->
<svg version="1.1" xmlns="http://www.w3.org/2000/svg" xmlns:xlink="http://www.w3.org/1999/xlink" x="0px" y="0px"
	 viewBox="0 0 100 100" style="enable-background:new 0 0 100 100;" xml:space="preserve">
<g id="Layer_1">
	
		<image style="display:none;overflow:visible;" width="80" height="80" xlink:href="../old_images/xrule37.jpg"  transform="matrix(0.2 0 0 0.2 2.3721 80.0468)">
	</image>
	<g id="G_x28__T1_L1__x29__4_00000006702437782964321010000017757545934583768463_">
		<g>
			<defs>
				<rect id="SVGID_1_" x="5" y="8" width="88.96" height="83.48"/>
			</defs>
			<clipPath id="SVGID_00000012452943110992145520000008218527154501971123_">
				<use xlink:href="#SVGID_1_"  style="overflow:visible;"/>
			</clipPath>
			<polygon style="clip-path:url(#SVGID_00000012452943110992145520000008218527154501971123_);fill:#55C95A;" points="38.959,28 
				37.076,28.587 35.057,29.24 32.997,30.615 31.548,32.61 30.37,34.801 30.081,37.29 30.709,40.604 31.82,42.698 33.331,44.514 
				35.483,45.474 37.192,46.032 38.962,46.291 39.4,46.48 40.306,46.48 40.754,46.326 43.25,45.798 45.279,44.966 46.8,43.405 
				48.074,41.652 48.625,39.541 48.96,37.96 48.96,35.962 48.461,34.116 47.307,31.94 45.728,30.111 43.529,29.063 40.701,28 			"/>
			<g style="clip-path:url(#SVGID_00000012452943110992145520000008218527154501971123_);">
				<defs>
					
						<rect id="SVGID_00000025431117862552732950000005920144833067133858_" x="13.026" y="5.595" transform="matrix(0.2915 -0.9566 0.9566 0.2915 -4.1493 34.5182)" width="16.4" height="28.929"/>
				</defs>
				<clipPath id="SVGID_00000118392086047140481780000016550595173153373346_">
					<use xlink:href="#SVGID_00000025431117862552732950000005920144833067133858_"  style="overflow:visible;"/>
				</clipPath>
				<path style="clip-path:url(#SVGID_00000118392086047140481780000016550595173153373346_);fill:#E1D153;" d="M10.692,20.824
					c-0.634-2.796,1.001-10.148,1.001-10.148c2.205-0.374,2.199,0.096,5.075,0.5c0.118,0.017,1.801,0.575,1.913,0.583
					c0.635,0.042,5.246,1.614,7.87,4.244c0.385,0.385,0.854,0.685,1.34,1.067c0.774-0.895,1.507-1.741,2.253-2.604
					c1.251,1.609,3.312,10.899,3.217,14.538c-4.358,0.076-8.687-0.19-13.256-0.878c0.796-1.192,1.422-2.128,2.179-3.26
					c-1.894-1.329-3.479-2.399-5.561-3.25C14.904,20.874,12.897,20.45,10.692,20.824"/>
			</g>
			<polygon style="clip-path:url(#SVGID_00000012452943110992145520000008218527154501971123_);fill:#F26C2B;" points="82.958,28 
				81.076,28.587 79.056,29.24 76.996,30.615 75.548,32.61 74.37,34.801 74.081,37.29 74.709,40.604 75.82,42.698 77.331,44.514 
				79.483,45.474 81.192,46.032 82.962,46.291 83.399,46.48 84.306,46.48 84.754,46.326 87.25,45.798 89.279,44.966 90.8,43.405 
				92.074,41.652 92.624,39.541 92.96,37.96 92.96,35.962 92.461,34.116 91.306,31.94 89.728,30.111 87.529,29.063 84.7,28 			"/>
			<g style="clip-path:url(#SVGID_00000012452943110992145520000008218527154501971123_);">
				<defs>
					
						<rect id="SVGID_00000094612717858263361620000000800062037343283632_" x="57.026" y="5.595" transform="matrix(0.2915 -0.9566 0.9566 0.2915 27.0264 76.6078)" width="16.4" height="28.929"/>
				</defs>
				<clipPath id="SVGID_00000136404356352602811970000011280132379143578498_">
					<use xlink:href="#SVGID_00000094612717858263361620000000800062037343283632_"  style="overflow:visible;"/>
				</clipPath>
				<path style="clip-path:url(#SVGID_00000136404356352602811970000011280132379143578498_);fill:#5699DE;" d="M54.692,20.824
					c-0.634-2.796,1.001-10.148,1.001-10.148c2.205-0.374,2.199,0.096,5.075,0.5c0.118,0.017,1.801,0.575,1.913,0.583
					c0.635,0.042,5.246,1.614,7.87,4.244c0.385,0.385,0.854,0.685,1.34,1.067c0.774-0.895,1.507-1.741,2.253-2.604
					c1.251,1.609,3.312,10.899,3.217,14.538c-4.358,0.076-8.687-0.19-13.256-0.878c0.796-1.192,1.422-2.128,2.179-3.26
					c-1.894-1.329-3.479-2.399-5.561-3.25C58.904,20.874,56.897,20.45,54.692,20.824"/>
			</g>
			<polygon style="clip-path:url(#SVGID_00000012452943110992145520000008218527154501971123_);fill:#E33A3A;" points="39.959,73 
				38.077,73.587 36.057,74.24 33.997,75.615 32.548,77.61 31.37,79.801 31.081,82.29 31.709,85.604 32.821,87.698 34.331,89.514 
				36.484,90.474 38.192,91.032 39.962,91.291 40.4,91.48 41.306,91.48 41.754,91.326 44.251,90.798 46.279,89.966 47.8,88.405 
				49.075,86.652 49.625,84.541 49.96,82.96 49.96,80.962 49.462,79.116 48.307,76.94 46.728,75.111 44.53,74.063 41.701,73 			"/>
			<g style="clip-path:url(#SVGID_00000012452943110992145520000008218527154501971123_);">
				<defs>
					
						<rect id="SVGID_00000157299478869936864560000012272576159298385069_" x="14.026" y="50.595" transform="matrix(0.2915 -0.9566 0.9566 0.2915 -46.4869 67.3589)" width="16.4" height="28.929"/>
				</defs>
				<clipPath id="SVGID_00000101817120124434579160000018342080961715951264_">
					<use xlink:href="#SVGID_00000157299478869936864560000012272576159298385069_"  style="overflow:visible;"/>
				</clipPath>
				<path style="clip-path:url(#SVGID_00000101817120124434579160000018342080961715951264_);fill:#AD70D6;" d="M11.692,65.824
					c-0.634-2.796,1.001-10.148,1.001-10.148c2.205-0.374,2.199,0.096,5.075,0.5c0.118,0.017,1.801,0.575,1.913,0.583
					c0.635,0.042,5.246,1.614,7.87,4.244c0.385,0.385,0.854,0.685,1.34,1.067c0.774-0.895,1.507-1.741,2.253-2.604
					c1.251,1.609,3.312,10.899,3.217,14.538c-4.358,0.076-8.687-0.19-13.256-0.878c0.796-1.192,1.422-2.128,2.179-3.26
					c-1.894-1.329-3.479-2.399-5.561-3.25C15.904,65.874,13.897,65.45,11.692,65.824"/>
			</g>
			<g style="clip-path:url(#SVGID_00000012452943110992145520000008218527154501971123_);">
				<defs>
					
						<rect id="SVGID_00000106868114891572708220000016839996598268122012_" x="58.026" y="50.595" transform="matrix(0.2915 -0.9566 0.9566 0.2915 -15.3113 109.4486)" width="16.4" height="28.929"/>
				</defs>
				<clipPath id="SVGID_00000110456621707258634960000007748344757506159280_">
					<use xlink:href="#SVGID_00000106868114891572708220000016839996598268122012_"  style="overflow:visible;"/>
				</clipPath>
			</g>
		</g>
	</g>
	<g id="L2_00000039838303499890886760000007188360278736699521_">
		<g>
			<defs>
				<rect id="SVGID_00000031906030291924722400000002192205993867789211_" x="59" y="57" width="31.359" height="34.868"/>
			</defs>
			<clipPath id="SVGID_00000005268442184595412840000017126062487793617811_">
				<use xlink:href="#SVGID_00000031906030291924722400000002192205993867789211_"  style="overflow:visible;"/>
			</clipPath>
			<g style="clip-path:url(#SVGID_00000005268442184595412840000017126062487793617811_);">
				<defs>
					<rect id="SVGID_00000037671571725133428540000011399933567941596597_" x="59" y="57" width="31.359" height="34.868"/>
				</defs>
				<clipPath id="SVGID_00000168809461485915442010000001788455369386405553_">
					<use xlink:href="#SVGID_00000037671571725133428540000011399933567941596597_"  style="overflow:visible;"/>
				</clipPath>
				<g style="clip-path:url(#SVGID_00000168809461485915442010000001788455369386405553_);">
					<defs>
						
							<rect id="SVGID_00000141422970371899767710000017326980212124442756_" x="60.264" y="56.997" width="30.098" height="18.779"/>
					</defs>
					<clipPath id="SVGID_00000076601916451171435080000011061947634841174180_">
						<use xlink:href="#SVGID_00000141422970371899767710000017326980212124442756_"  style="overflow:visible;"/>
					</clipPath>
					<g style="clip-path:url(#SVGID_00000076601916451171435080000011061947634841174180_);">
						<defs>
							
								<rect id="SVGID_00000160885790173635477770000014619965726804062870_" x="60.264" y="56.997" width="30.098" height="18.779"/>
						</defs>
						<clipPath id="SVGID_00000003065591331920977210000012092754952585665693_">
							<use xlink:href="#SVGID_00000160885790173635477770000014619965726804062870_"  style="overflow:visible;"/>
						</clipPath>
						<path style="clip-path:url(#SVGID_00000003065591331920977210000012092754952585665693_);fill:#523742;" d="M86.693,63.496
							c1.33-0.04,2.04-2.21,3.67-1.07c-0.27,4.39-0.53,8.73-0.81,13.35c-4.26-0.64-8.21-2.15-12.23-3.33
							c-0.22-0.34-0.4-0.63-0.63-0.97c1.08-0.93,2.19-1.87,3.32-2.84c-0.9-2.8-3.33-3.45-5.51-3.8c-3.55-0.57-4.85,2.27-5.92,4.63
							c-0.1,0.96-0.16,1.62-0.25,2.5c-2.83-0.65-5.4-1.24-8.01-1.85c-0.02-0.25-0.1-0.47-0.03-0.62c0.78-1.91,1.3-4.01,2.45-5.66
							c2.89-4.13,6.85-6.66,12.07-6.83c3.34-0.1,6.39,0.64,8.85,3.01C84.743,61.056,85.643,62.276,86.693,63.496"/>
					</g>
				</g>
				<g style="clip-path:url(#SVGID_00000168809461485915442010000001788455369386405553_);">
					<defs>
						<rect id="SVGID_00000017516466669802921660000002758194346625947819_" x="59.003" y="73.656" width="29.36" height="18.213"/>
					</defs>
					<clipPath id="SVGID_00000034800543030551086010000013639682389328112804_">
						<use xlink:href="#SVGID_00000017516466669802921660000002758194346625947819_"  style="overflow:visible;"/>
					</clipPath>
					<g style="clip-path:url(#SVGID_00000034800543030551086010000013639682389328112804_);">
						<defs>
							
								<rect id="SVGID_00000163051735564597056790000017205832812142666931_" x="59.003" y="73.656" width="29.36" height="18.213"/>
						</defs>
						<clipPath id="SVGID_00000096770631937198714470000002153468475602165913_">
							<use xlink:href="#SVGID_00000163051735564597056790000017205832812142666931_"  style="overflow:visible;"/>
						</clipPath>
						<path style="clip-path:url(#SVGID_00000096770631937198714470000002153468475602165913_);fill:#9F9EB1;" d="M88.363,79.446
							c-0.1,0.3-0.17,0.6-0.29,0.87c-1.52,3.45-3.13,6.93-6.51,8.9c-1.9,1.11-4.16,1.59-6.26,2.36c-2.15,0.78-4.14-0.2-6.16-0.61
							c-1.67-0.33-2.86-1.56-4-2.76c-0.82-0.86-1.62-1.74-2.62-2.83c-1.02,0.3-2.14,0.63-3.52,1.04c0.24-4.15,0.49-8.3,0.76-12.76
							c4,1.19,7.88,2.35,12.16,3.63c-1.18,1.02-2.12,1.83-3.03,2.63v1.59c1.49,2.59,3.87,3.08,6.63,3.14
							c3.42,0.08,4.13-2.66,5.59-4.93v-1.92C83.563,78.356,85.923,78.886,88.363,79.446"/>
					</g>
				</g>
			</g>
		</g>
	</g>
</g>
<g id="Layer_2">
	<g id="Layer_3">
	</g>
</g>
</svg>
