<?xml version="1.0" encoding="iso-8859-1"?>
<!-- Generator: Adobe Illustrator 26.0.1, SVG Export Plug-In . SVG Version: 6.00 Build 0)  -->
<svg version="1.1" xmlns="http://www.w3.org/2000/svg" xmlns:xlink="http://www.w3.org/1999/xlink" x="0px" y="0px"
	 viewBox="0 0 100 100" style="enable-background:new 0 0 100 100;" xml:space="preserve">
<g id="Layer_1">
</g>
<g id="Layer_2">
	<g id="G_x28__tree_x28__T3_T2_T2__x29__L1__x29__00000031924729549091974160000007837528519878455438_">
		<g>
			<defs>
				<rect id="SVGID_1_" x="8" y="4" width="97.423" height="93.307"/>
			</defs>
			<clipPath id="SVGID_00000176021149923827731850000016574226611128245154_">
				<use xlink:href="#SVGID_1_"  style="overflow:visible;"/>
			</clipPath>
			<polygon style="clip-path:url(#SVGID_00000176021149923827731850000016574226611128245154_);fill:#9F9EB1;" points="
				76.235,73.832 74.123,74.049 71.82,74.963 69.988,76.61 68.377,78.508 67.575,80.877 67.574,80.882 67.494,84.252 68.145,86.533 
				69.242,88.625 71.145,90.013 72.7,90.918 74.376,91.54 74.765,91.816 75.649,92.005 76.121,91.948 78.672,91.954 80.829,91.565 
				82.643,90.357 84.258,88.91 85.237,86.959 85.896,85.48 86.313,83.532 86.212,81.621 85.536,79.251 84.376,77.133 82.446,75.647 
				79.9,74.016 78.201,73.653 			"/>
			<g style="clip-path:url(#SVGID_00000176021149923827731850000016574226611128245154_);">
				<defs>
					
						<rect id="SVGID_00000012465387038614907660000017943811193842908592_" x="62.722" y="38.546" transform="matrix(0.4671 -0.8842 0.8842 0.4671 -0.1997 93.1616)" width="28.928" height="16.4"/>
				</defs>
				<clipPath id="SVGID_00000078015224061048187930000001656087132898105984_">
					<use xlink:href="#SVGID_00000012465387038614907660000017943811193842908592_"  style="overflow:visible;"/>
				</clipPath>
				<path style="clip-path:url(#SVGID_00000078015224061048187930000001656087132898105984_);fill:#AD70D6;" d="M78.426,36.257
					c2.866-0.094,9.777,2.902,9.777,2.902c-0.049,2.235-0.51,2.14-1.451,4.888c-0.038,0.112-0.905,1.66-0.932,1.769
					c-0.163,0.615-2.579,4.846-5.657,6.925c-0.45,0.306-0.834,0.71-1.3,1.115c0.732,0.929,1.424,1.808,2.131,2.705
					c-1.817,0.924-11.329,1.192-14.882,0.41c0.747-4.293,1.826-8.494,3.367-12.852c1.018,1.009,1.819,1.801,2.789,2.758
					c1.662-1.609,3.012-2.962,4.241-4.848C77.582,40.383,78.376,38.492,78.426,36.257"/>
			</g>
			<g style="clip-path:url(#SVGID_00000176021149923827731850000016574226611128245154_);">
				<defs>
					<polygon id="SVGID_00000021090085465894103210000009019037101556465800_" points="20.647,28.472 49.373,31.891 51.312,15.607 
						22.634,12.193 22.585,12.189 					"/>
				</defs>
				<clipPath id="SVGID_00000171700114154577774920000017895027696171205819_">
					<use xlink:href="#SVGID_00000021090085465894103210000009019037101556465800_"  style="overflow:visible;"/>
				</clipPath>
				<path style="clip-path:url(#SVGID_00000171700114154577774920000017895027696171205819_);fill:#F26C2B;" d="M25.744,24.65
					c-1.118-2.64-0.804-10.165-0.804-10.165c2.104-0.757,2.18-0.293,5.082-0.403c0.119-0.004,1.875,0.248,1.987,0.237
					c0.632-0.071,5.448,0.663,8.495,2.79c0.446,0.311,0.962,0.522,1.506,0.813c0.605-1.019,1.177-1.98,1.758-2.961
					c1.517,1.364,5.184,10.145,5.732,13.742c-4.276,0.845-8.584,1.346-13.204,1.474c0.575-1.312,1.026-2.345,1.571-3.593
					c-2.099-0.975-3.847-1.749-6.047-2.218C29.899,23.957,27.848,23.894,25.744,24.65"/>
			</g>
			<g style="clip-path:url(#SVGID_00000176021149923827731850000016574226611128245154_);">
				<defs>
					
						<rect id="SVGID_00000128446176196191371280000012123690430783157155_" x="47.246" y="25.179" transform="matrix(0.8702 -0.4928 0.4928 0.8702 -12.3358 32.4695)" width="16.399" height="28.928"/>
				</defs>
				<clipPath id="SVGID_00000080927646061059104780000002290487565632320701_">
					<use xlink:href="#SVGID_00000128446176196191371280000012123690430783157155_"  style="overflow:visible;"/>
				</clipPath>
				<path style="clip-path:url(#SVGID_00000080927646061059104780000002290487565632320701_);fill:#E1D153;" d="M47.282,32.941
					c1.467-2.464,7.716-6.668,7.716-6.668c1.856,1.247,1.527,1.584,3.334,3.858c0.075,0.093,0.91,1.657,0.987,1.739
					c0.43,0.468,2.69,4.785,2.781,8.499c0.015,0.543,0.148,1.084,0.237,1.695c1.178-0.115,2.292-0.224,3.428-0.336
					c-0.202,2.029-5.107,10.184-7.682,12.755c-3.212-2.945-6.168-6.12-9.006-9.767c1.399-0.315,2.497-0.561,3.827-0.861
					c-0.458-2.268-0.871-4.135-1.795-6.187C50.301,35.878,49.137,34.189,47.282,32.941"/>
			</g>
			<g style="clip-path:url(#SVGID_00000176021149923827731850000016574226611128245154_);">
				<defs>
					<polygon id="SVGID_00000132792458887024726620000006585345349584017062_" points="16.177,62.191 16.135,62.215 24.214,76.487 
						49.389,62.237 41.311,47.965 					"/>
				</defs>
				<clipPath id="SVGID_00000127745377900954431780000014741037890548135328_">
					<use xlink:href="#SVGID_00000132792458887024726620000006585345349584017062_"  style="overflow:visible;"/>
				</clipPath>
				<path style="clip-path:url(#SVGID_00000127745377900954431780000014741037890548135328_);fill:#5699DE;" d="M26.058,70.389
					c-2.463-1.466-6.665-7.717-6.665-7.717c1.247-1.855,1.584-1.526,3.857-3.333c0.094-0.074,1.658-0.91,1.741-0.985
					c0.468-0.432,4.784-2.692,8.499-2.78c0.544-0.014,1.084-0.149,1.695-0.237c-0.115-1.178-0.223-2.293-0.336-3.427
					c2.029,0.202,10.183,5.107,12.754,7.682c-2.945,3.212-6.121,6.167-9.768,9.005c-0.314-1.398-0.562-2.497-0.861-3.826
					c-2.269,0.457-4.136,0.867-6.187,1.793C28.997,67.37,27.307,68.534,26.058,70.389"/>
			</g>
			<g style="clip-path:url(#SVGID_00000176021149923827731850000016574226611128245154_);">
				<defs>
					
						<rect id="SVGID_00000121993360167654367820000014144310515753279376_" x="50.672" y="50.424" transform="matrix(0.4096 -0.9123 0.9123 0.4096 -24.4381 92.0157)" width="16.4" height="28.929"/>
				</defs>
				<clipPath id="SVGID_00000019654672073642652390000003199107998133697960_">
					<use xlink:href="#SVGID_00000121993360167654367820000014144310515753279376_"  style="overflow:visible;"/>
				</clipPath>
				<path style="clip-path:url(#SVGID_00000019654672073642652390000003199107998133697960_);fill:#523742;" d="M48.325,64.321
					c-0.276-2.854,2.272-9.942,2.272-9.942c2.233-0.093,2.168,0.373,4.971,1.135c0.115,0.032,1.715,0.798,1.824,0.819
					c0.625,0.122,5.002,2.263,7.273,5.203c0.334,0.429,0.762,0.786,1.195,1.225c0.882-0.79,1.715-1.537,2.563-2.299
					c1.039,1.755,1.913,11.23,1.36,14.827c-4.333-0.472-8.593-1.281-13.04-2.54c0.941-1.082,1.681-1.931,2.574-2.96
					c-1.712-1.557-3.149-2.818-5.109-3.924C52.496,64.9,50.558,64.228,48.325,64.321"/>
			</g>
			<g style="clip-path:url(#SVGID_00000176021149923827731850000016574226611128245154_);">
				<defs>
					<rect id="SVGID_00000139265830842094796460000013944929026768199570_" x="8" y="4" width="97.423" height="93.307"/>
				</defs>
				<clipPath id="SVGID_00000106846841145444772150000007293509540694865582_">
					<use xlink:href="#SVGID_00000139265830842094796460000013944929026768199570_"  style="overflow:visible;"/>
				</clipPath>
				<path style="clip-path:url(#SVGID_00000106846841145444772150000007293509540694865582_);fill:#E33A3A;" d="M18.932,91.518
					c-2.581,1.248-10.112,1.31-10.112,1.31c-0.861-2.064-0.402-2.163-0.656-5.056c-0.01-0.118,0.154-1.885,0.137-1.996
					c-0.102-0.628,0.391-5.474,2.363-8.624c0.289-0.46,0.474-0.986,0.737-1.544C10.353,75.054,9.365,74.531,8.356,74
					c1.287-1.583,9.874-5.684,13.439-6.411c1.057,4.229,1.773,8.507,2.131,13.114c-1.339-0.508-2.393-0.907-3.667-1.389
					c-0.869,2.145-1.555,3.929-1.914,6.15C18.033,87.403,18.072,89.454,18.932,91.518"/>
				<path style="clip-path:url(#SVGID_00000106846841145444772150000007293509540694865582_);fill:#55C95A;" d="M70.719,15.811
					c1.156-2.624,6.849-7.556,6.849-7.556c1.994,1.012,1.709,1.386,3.778,3.424c0.085,0.083,1.105,1.535,1.191,1.606
					c0.484,0.414,3.251,4.423,3.793,8.098c0.081,0.538,0.278,1.059,0.442,1.655c1.154-0.258,2.246-0.501,3.361-0.75
					c0.046,2.038-3.831,10.728-6.075,13.592c-3.546-2.532-6.866-5.324-10.127-8.6c1.351-0.481,2.412-0.86,3.694-1.32
					c-0.73-2.194-1.365-3.997-2.533-5.922C74.073,18.358,72.712,16.824,70.719,15.811"/>
			</g>
		</g>
	</g>
</g>
</svg>
