<?xml version="1.0" encoding="iso-8859-1"?>
<!-- Generator: Adobe Illustrator 26.0.1, SVG Export Plug-In . SVG Version: 6.00 Build 0)  -->
<svg version="1.1" xmlns="http://www.w3.org/2000/svg" xmlns:xlink="http://www.w3.org/1999/xlink" x="0px" y="0px"
	 viewBox="0 0 100 100" style="enable-background:new 0 0 100 100;" xml:space="preserve">
<g id="Layer_1">
	<g id="G_x28__tree_x28__T3_T2_T2__x29__L1__x29__00000172415841485989855940000002809710283818006449_">
		<g>
			<defs>
				<rect id="SVGID_1_" x="9" y="3" width="97.423" height="93.307"/>
			</defs>
			<clipPath id="SVGID_00000039127017000367421410000002141516597780993679_">
				<use xlink:href="#SVGID_1_"  style="overflow:visible;"/>
			</clipPath>
			<polygon style="clip-path:url(#SVGID_00000039127017000367421410000002141516597780993679_);fill:#9F9EB1;" points="
				77.235,72.832 75.123,73.049 72.82,73.963 70.988,75.61 69.377,77.508 68.575,79.877 68.574,79.882 68.494,83.252 69.145,85.533 
				70.242,87.625 72.145,89.013 73.7,89.918 75.376,90.54 75.765,90.816 76.649,91.005 77.121,90.948 79.672,90.954 81.829,90.565 
				83.643,89.357 85.258,87.91 86.237,85.959 86.896,84.48 87.313,82.532 87.212,80.621 86.536,78.251 85.376,76.133 83.446,74.647 
				80.9,73.016 79.201,72.653 			"/>
			<g style="clip-path:url(#SVGID_00000039127017000367421410000002141516597780993679_);">
				<defs>
					
						<rect id="SVGID_00000088119299601214038750000018172529797304134313_" x="63.722" y="37.546" transform="matrix(0.4671 -0.8842 0.8842 0.4671 1.2174 93.5128)" width="28.928" height="16.4"/>
				</defs>
				<clipPath id="SVGID_00000114787006132457851840000001036436098938352046_">
					<use xlink:href="#SVGID_00000088119299601214038750000018172529797304134313_"  style="overflow:visible;"/>
				</clipPath>
				<path style="clip-path:url(#SVGID_00000114787006132457851840000001036436098938352046_);fill:#E1D153;" d="M79.426,35.257
					c2.866-0.094,9.777,2.902,9.777,2.902c-0.049,2.235-0.51,2.14-1.451,4.888c-0.038,0.112-0.905,1.66-0.932,1.769
					c-0.163,0.615-2.579,4.846-5.657,6.925c-0.45,0.306-0.834,0.71-1.3,1.115c0.732,0.929,1.424,1.808,2.131,2.705
					c-1.817,0.924-11.329,1.192-14.882,0.41c0.747-4.293,1.826-8.494,3.367-12.852c1.018,1.009,1.819,1.801,2.789,2.758
					c1.662-1.609,3.012-2.962,4.241-4.848C78.582,39.383,79.376,37.492,79.426,35.257"/>
			</g>
			<g style="clip-path:url(#SVGID_00000039127017000367421410000002141516597780993679_);">
				<defs>
					<polygon id="SVGID_00000173131434995017051790000014504433351946658946_" points="21.647,27.472 50.373,30.891 52.312,14.607 
						23.634,11.193 23.585,11.189 					"/>
				</defs>
				<clipPath id="SVGID_00000076578602012561144040000000166735932459561088_">
					<use xlink:href="#SVGID_00000173131434995017051790000014504433351946658946_"  style="overflow:visible;"/>
				</clipPath>
				<path style="clip-path:url(#SVGID_00000076578602012561144040000000166735932459561088_);fill:#F26C2B;" d="M26.744,23.65
					c-1.118-2.64-0.804-10.165-0.804-10.165c2.104-0.757,2.18-0.293,5.082-0.403c0.119-0.004,1.875,0.248,1.987,0.237
					c0.632-0.071,5.448,0.663,8.495,2.79c0.446,0.311,0.962,0.522,1.506,0.813c0.605-1.019,1.177-1.98,1.758-2.961
					c1.517,1.364,5.184,10.145,5.732,13.742c-4.276,0.845-8.584,1.346-13.204,1.474c0.575-1.312,1.026-2.345,1.571-3.593
					c-2.099-0.975-3.847-1.749-6.047-2.218C30.899,22.957,28.848,22.894,26.744,23.65"/>
			</g>
			<g style="clip-path:url(#SVGID_00000039127017000367421410000002141516597780993679_);">
				<defs>
					
						<rect id="SVGID_00000087412859186905828610000008076523271730205588_" x="48.246" y="24.179" transform="matrix(0.8702 -0.4928 0.4928 0.8702 -11.7132 32.8325)" width="16.399" height="28.928"/>
				</defs>
				<clipPath id="SVGID_00000134942963212508718250000015671686283534000030_">
					<use xlink:href="#SVGID_00000087412859186905828610000008076523271730205588_"  style="overflow:visible;"/>
				</clipPath>
				<path style="clip-path:url(#SVGID_00000134942963212508718250000015671686283534000030_);fill:#5699DE;" d="M48.282,31.941
					c1.467-2.464,7.716-6.668,7.716-6.668c1.856,1.247,1.527,1.584,3.334,3.858c0.075,0.093,0.91,1.657,0.987,1.739
					c0.43,0.468,2.69,4.785,2.781,8.499c0.015,0.543,0.148,1.084,0.237,1.695c1.178-0.115,2.292-0.224,3.428-0.336
					c-0.202,2.029-5.107,10.184-7.682,12.755c-3.212-2.945-6.168-6.12-9.006-9.767c1.399-0.315,2.497-0.561,3.827-0.861
					c-0.458-2.268-0.871-4.135-1.795-6.187C51.301,34.878,50.137,33.189,48.282,31.941"/>
			</g>
			<g style="clip-path:url(#SVGID_00000039127017000367421410000002141516597780993679_);">
				<defs>
					<polygon id="SVGID_00000129887358097517109260000013169860764722409857_" points="17.177,61.191 17.135,61.215 25.214,75.487 
						50.389,61.237 42.311,46.965 					"/>
				</defs>
				<clipPath id="SVGID_00000180361467375273581080000008710211051028184237_">
					<use xlink:href="#SVGID_00000129887358097517109260000013169860764722409857_"  style="overflow:visible;"/>
				</clipPath>
				<path style="clip-path:url(#SVGID_00000180361467375273581080000008710211051028184237_);fill:#AD70D6;" d="M27.058,69.389
					c-2.463-1.466-6.665-7.717-6.665-7.717c1.247-1.855,1.584-1.526,3.857-3.333c0.094-0.074,1.658-0.91,1.741-0.985
					c0.468-0.432,4.784-2.692,8.499-2.78c0.544-0.014,1.084-0.149,1.695-0.237c-0.115-1.178-0.223-2.293-0.336-3.427
					c2.029,0.202,10.183,5.107,12.754,7.682c-2.945,3.212-6.121,6.167-9.768,9.005c-0.314-1.398-0.562-2.497-0.861-3.826
					c-2.269,0.457-4.136,0.867-6.187,1.793C29.997,66.37,28.307,67.534,27.058,69.389"/>
			</g>
			<g style="clip-path:url(#SVGID_00000039127017000367421410000002141516597780993679_);">
				<defs>
					
						<rect id="SVGID_00000005268444098977209650000004707953260473743000_" x="51.672" y="49.424" transform="matrix(0.4096 -0.9123 0.9123 0.4096 -22.9354 92.3376)" width="16.4" height="28.929"/>
				</defs>
				<clipPath id="SVGID_00000027600309514655637540000016159041880775260080_">
					<use xlink:href="#SVGID_00000005268444098977209650000004707953260473743000_"  style="overflow:visible;"/>
				</clipPath>
				<path style="clip-path:url(#SVGID_00000027600309514655637540000016159041880775260080_);fill:#523742;" d="M49.325,63.321
					c-0.276-2.854,2.272-9.942,2.272-9.942c2.233-0.093,2.168,0.373,4.971,1.135c0.115,0.032,1.715,0.798,1.824,0.819
					c0.625,0.122,5.002,2.263,7.273,5.203c0.334,0.429,0.762,0.786,1.195,1.225c0.882-0.79,1.715-1.537,2.563-2.299
					c1.039,1.755,1.913,11.23,1.36,14.827c-4.333-0.472-8.593-1.281-13.04-2.54c0.941-1.082,1.681-1.931,2.574-2.96
					c-1.712-1.557-3.149-2.818-5.109-3.924C53.496,63.9,51.558,63.228,49.325,63.321"/>
			</g>
			<g style="clip-path:url(#SVGID_00000039127017000367421410000002141516597780993679_);">
				<defs>
					<rect id="SVGID_00000016066033821122636450000003002937977236837782_" x="9" y="3" width="97.423" height="93.307"/>
				</defs>
				<clipPath id="SVGID_00000096744731705231093280000011089240951380646818_">
					<use xlink:href="#SVGID_00000016066033821122636450000003002937977236837782_"  style="overflow:visible;"/>
				</clipPath>
				<path style="clip-path:url(#SVGID_00000096744731705231093280000011089240951380646818_);fill:#E33A3A;" d="M19.932,90.518
					c-2.581,1.248-10.112,1.31-10.112,1.31c-0.861-2.064-0.402-2.163-0.656-5.056c-0.01-0.118,0.154-1.885,0.137-1.996
					c-0.102-0.628,0.391-5.474,2.363-8.624c0.289-0.46,0.474-0.986,0.737-1.544c-1.048-0.554-2.036-1.077-3.045-1.608
					c1.287-1.583,9.874-5.684,13.439-6.411c1.057,4.229,1.773,8.507,2.131,13.114c-1.339-0.508-2.393-0.907-3.667-1.389
					c-0.869,2.145-1.555,3.929-1.914,6.15C19.033,86.403,19.072,88.454,19.932,90.518"/>
				<path style="clip-path:url(#SVGID_00000096744731705231093280000011089240951380646818_);fill:#55C95A;" d="M71.719,14.811
					c1.156-2.624,6.849-7.556,6.849-7.556c1.994,1.012,1.709,1.386,3.778,3.424c0.085,0.083,1.105,1.535,1.191,1.606
					c0.484,0.414,3.251,4.423,3.793,8.098c0.081,0.538,0.278,1.059,0.442,1.655c1.154-0.258,2.246-0.501,3.361-0.75
					c0.046,2.038-3.831,10.728-6.075,13.592c-3.546-2.532-6.866-5.324-10.127-8.6c1.351-0.481,2.412-0.86,3.694-1.32
					c-0.73-2.194-1.365-3.997-2.533-5.922C75.073,17.358,73.712,15.824,71.719,14.811"/>
			</g>
		</g>
	</g>
</g>
<g id="Layer_2">
	<g id="Layer_3">
	</g>
</g>
<g id="Layer_4">
</g>
</svg>
