<?xml version="1.0" encoding="iso-8859-1"?>
<!-- Generator: Adobe Illustrator 26.0.1, SVG Export Plug-In . SVG Version: 6.00 Build 0)  -->
<svg version="1.1" xmlns="http://www.w3.org/2000/svg" xmlns:xlink="http://www.w3.org/1999/xlink" x="0px" y="0px"
	 viewBox="0 0 100 100" style="enable-background:new 0 0 100 100;" xml:space="preserve">
<g id="Layer_1">
	<g id="G_x28__tree_x28__T3_T2_T2__x29__L1__x29__00000172424784685670214260000017496090409032665228_">
		<g>
			<defs>
				<rect id="SVGID_1_" x="7" y="3" width="97.423" height="93.307"/>
			</defs>
			<clipPath id="SVGID_00000067211736568671188260000009440353150426479260_">
				<use xlink:href="#SVGID_1_"  style="overflow:visible;"/>
			</clipPath>
			<polygon style="clip-path:url(#SVGID_00000067211736568671188260000009440353150426479260_);fill:#523742;" points="
				75.235,72.832 73.123,73.049 70.82,73.963 68.988,75.61 67.377,77.508 66.575,79.877 66.574,79.882 66.494,83.252 67.145,85.533 
				68.242,87.625 70.145,89.013 71.7,89.918 73.376,90.54 73.765,90.816 74.649,91.005 75.121,90.948 77.672,90.954 79.829,90.565 
				81.643,89.357 83.258,87.91 84.237,85.959 84.896,84.48 85.313,82.532 85.212,80.621 84.536,78.251 83.376,76.133 81.446,74.647 
				78.9,73.016 77.201,72.653 			"/>
			<g style="clip-path:url(#SVGID_00000067211736568671188260000009440353150426479260_);">
				<defs>
					
						<rect id="SVGID_00000073001906002881503870000001615865909521471922_" x="61.722" y="37.546" transform="matrix(0.4671 -0.8842 0.8842 0.4671 0.1516 91.7444)" width="28.928" height="16.4"/>
				</defs>
				<clipPath id="SVGID_00000031167838282587513050000011612970226607540382_">
					<use xlink:href="#SVGID_00000073001906002881503870000001615865909521471922_"  style="overflow:visible;"/>
				</clipPath>
				<path style="clip-path:url(#SVGID_00000031167838282587513050000011612970226607540382_);fill:#E1D153;" d="M77.426,35.257
					c2.866-0.094,9.777,2.902,9.777,2.902c-0.049,2.235-0.51,2.14-1.451,4.888c-0.038,0.112-0.905,1.66-0.932,1.769
					c-0.163,0.615-2.579,4.846-5.657,6.925c-0.45,0.306-0.834,0.71-1.3,1.115c0.732,0.929,1.424,1.808,2.131,2.705
					c-1.817,0.924-11.329,1.192-14.882,0.41c0.747-4.293,1.826-8.494,3.367-12.852c1.018,1.009,1.819,1.801,2.789,2.758
					c1.662-1.609,3.012-2.962,4.241-4.848C76.582,39.383,77.376,37.492,77.426,35.257"/>
			</g>
			<g style="clip-path:url(#SVGID_00000067211736568671188260000009440353150426479260_);">
				<defs>
					<polygon id="SVGID_00000117664728293202039610000005688236421543471757_" points="19.647,27.472 48.373,30.891 50.312,14.607 
						21.634,11.193 21.585,11.189 					"/>
				</defs>
				<clipPath id="SVGID_00000141457835143983822490000003709166592570827410_">
					<use xlink:href="#SVGID_00000117664728293202039610000005688236421543471757_"  style="overflow:visible;"/>
				</clipPath>
				<path style="clip-path:url(#SVGID_00000141457835143983822490000003709166592570827410_);fill:#F26C2B;" d="M24.744,23.65
					c-1.118-2.64-0.804-10.165-0.804-10.165c2.104-0.757,2.18-0.293,5.082-0.403c0.119-0.004,1.875,0.248,1.987,0.237
					c0.632-0.071,5.448,0.663,8.495,2.79c0.446,0.311,0.962,0.522,1.506,0.813c0.605-1.019,1.177-1.98,1.758-2.961
					c1.517,1.364,5.184,10.145,5.732,13.742c-4.276,0.845-8.584,1.346-13.204,1.474c0.575-1.312,1.026-2.345,1.571-3.593
					c-2.099-0.975-3.847-1.749-6.047-2.218C28.899,22.957,26.848,22.894,24.744,23.65"/>
			</g>
			<g style="clip-path:url(#SVGID_00000067211736568671188260000009440353150426479260_);">
				<defs>
					
						<rect id="SVGID_00000091714983888923705350000017278317067923146920_" x="46.246" y="24.179" transform="matrix(0.8702 -0.4928 0.4928 0.8702 -11.9729 31.8469)" width="16.399" height="28.928"/>
				</defs>
				<clipPath id="SVGID_00000116203749033520489080000001767095796447630745_">
					<use xlink:href="#SVGID_00000091714983888923705350000017278317067923146920_"  style="overflow:visible;"/>
				</clipPath>
				<path style="clip-path:url(#SVGID_00000116203749033520489080000001767095796447630745_);fill:#5699DE;" d="M46.282,31.941
					c1.467-2.464,7.716-6.668,7.716-6.668c1.856,1.247,1.527,1.584,3.334,3.858c0.075,0.093,0.91,1.657,0.987,1.739
					c0.43,0.468,2.69,4.785,2.781,8.499c0.015,0.543,0.148,1.084,0.237,1.695c1.178-0.115,2.292-0.224,3.428-0.336
					c-0.202,2.029-5.107,10.184-7.682,12.755c-3.212-2.945-6.168-6.12-9.006-9.767c1.399-0.315,2.497-0.561,3.827-0.861
					c-0.458-2.268-0.871-4.135-1.795-6.187C49.301,34.878,48.137,33.189,46.282,31.941"/>
			</g>
			<g style="clip-path:url(#SVGID_00000067211736568671188260000009440353150426479260_);">
				<defs>
					<polygon id="SVGID_00000080887244995518568130000016533693647151936643_" points="15.177,61.191 15.135,61.215 23.214,75.487 
						48.389,61.237 40.311,46.965 					"/>
				</defs>
				<clipPath id="SVGID_00000098913903901829556830000018202050303575969442_">
					<use xlink:href="#SVGID_00000080887244995518568130000016533693647151936643_"  style="overflow:visible;"/>
				</clipPath>
				<path style="clip-path:url(#SVGID_00000098913903901829556830000018202050303575969442_);fill:#AD70D6;" d="M25.058,69.389
					c-2.463-1.466-6.665-7.717-6.665-7.717c1.247-1.855,1.584-1.526,3.857-3.333c0.094-0.074,1.658-0.91,1.741-0.985
					c0.468-0.432,4.784-2.692,8.499-2.78c0.544-0.014,1.084-0.149,1.695-0.237c-0.115-1.178-0.223-2.293-0.336-3.427
					c2.029,0.202,10.183,5.107,12.754,7.682c-2.945,3.212-6.121,6.167-9.768,9.005c-0.314-1.398-0.562-2.497-0.861-3.826
					c-2.269,0.457-4.136,0.867-6.187,1.793C27.997,66.37,26.307,67.534,25.058,69.389"/>
			</g>
			<g style="clip-path:url(#SVGID_00000067211736568671188260000009440353150426479260_);">
				<defs>
					
						<rect id="SVGID_00000048462269992579474470000013389827585345355162_" x="49.672" y="49.424" transform="matrix(0.4096 -0.9123 0.9123 0.4096 -24.1162 90.5131)" width="16.4" height="28.929"/>
				</defs>
				<clipPath id="SVGID_00000165941012927135467200000010592779990193483441_">
					<use xlink:href="#SVGID_00000048462269992579474470000013389827585345355162_"  style="overflow:visible;"/>
				</clipPath>
				<path style="clip-path:url(#SVGID_00000165941012927135467200000010592779990193483441_);fill:#9F9EB1;" d="M47.325,63.321
					c-0.276-2.854,2.272-9.942,2.272-9.942c2.233-0.093,2.168,0.373,4.971,1.135c0.115,0.032,1.715,0.798,1.824,0.819
					c0.625,0.122,5.002,2.263,7.273,5.203c0.334,0.429,0.762,0.786,1.195,1.225c0.882-0.79,1.715-1.537,2.563-2.299
					c1.039,1.755,1.913,11.23,1.36,14.827c-4.333-0.472-8.593-1.281-13.04-2.54c0.941-1.082,1.681-1.931,2.574-2.96
					c-1.712-1.557-3.149-2.818-5.109-3.924C51.496,63.9,49.558,63.228,47.325,63.321"/>
			</g>
			<g style="clip-path:url(#SVGID_00000067211736568671188260000009440353150426479260_);">
				<defs>
					<rect id="SVGID_00000028298231342485353770000000191353487413780615_" x="7" y="3" width="97.423" height="93.307"/>
				</defs>
				<clipPath id="SVGID_00000122704653669024643070000014289815530536753294_">
					<use xlink:href="#SVGID_00000028298231342485353770000000191353487413780615_"  style="overflow:visible;"/>
				</clipPath>
				<path style="clip-path:url(#SVGID_00000122704653669024643070000014289815530536753294_);fill:#E33A3A;" d="M17.932,90.518
					c-2.581,1.248-10.112,1.31-10.112,1.31c-0.861-2.064-0.402-2.163-0.656-5.056c-0.01-0.118,0.154-1.885,0.137-1.996
					c-0.102-0.628,0.391-5.474,2.363-8.624c0.289-0.46,0.474-0.986,0.737-1.544C9.353,74.054,8.365,73.531,7.356,73
					c1.287-1.583,9.874-5.684,13.439-6.411c1.057,4.229,1.773,8.507,2.131,13.114c-1.339-0.508-2.393-0.907-3.667-1.389
					c-0.869,2.145-1.555,3.929-1.914,6.15C17.033,86.403,17.072,88.454,17.932,90.518"/>
				<path style="clip-path:url(#SVGID_00000122704653669024643070000014289815530536753294_);fill:#55C95A;" d="M69.719,14.811
					c1.156-2.624,6.849-7.556,6.849-7.556c1.994,1.012,1.709,1.386,3.778,3.424c0.085,0.083,1.105,1.535,1.191,1.606
					c0.484,0.414,3.251,4.423,3.793,8.098c0.081,0.538,0.278,1.059,0.442,1.655c1.154-0.258,2.246-0.501,3.361-0.75
					c0.046,2.038-3.831,10.728-6.075,13.592c-3.546-2.532-6.866-5.324-10.127-8.6c1.351-0.481,2.412-0.86,3.694-1.32
					c-0.73-2.194-1.365-3.997-2.533-5.922C73.073,17.358,71.712,15.824,69.719,14.811"/>
			</g>
		</g>
	</g>
</g>
<g id="Layer_2">
	<g id="Layer_3">
	</g>
</g>
</svg>
