<?xml version="1.0" encoding="iso-8859-1"?>
<!-- Generator: Adobe Illustrator 26.0.1, SVG Export Plug-In . SVG Version: 6.00 Build 0)  -->
<svg version="1.1" xmlns="http://www.w3.org/2000/svg" xmlns:xlink="http://www.w3.org/1999/xlink" x="0px" y="0px"
	 viewBox="0 0 100 100" style="enable-background:new 0 0 100 100;" xml:space="preserve">
<g id="Layer_1">
	<g id="G_x28__T2_T2_T2_L1__x29__L1_00000139294313375050159760000011819604508924201893_">
		<g>
			<defs>
				<rect id="SVGID_1_" x="6" width="85.365" height="95.012"/>
			</defs>
			<clipPath id="SVGID_00000078043796166654348860000017298213168046364855_">
				<use xlink:href="#SVGID_1_"  style="overflow:visible;"/>
			</clipPath>
			<polygon style="clip-path:url(#SVGID_00000078043796166654348860000017298213168046364855_);fill:#523742;" points="
				41.253,35.994 39.068,37.134 37.036,38.572 35.669,40.67 34.754,43.917 34.818,46.287 35.36,48.586 36.859,50.404 38.14,51.666 
				39.609,52.685 39.916,53.049 40.729,53.454 41.197,53.515 43.669,54.154 45.854,54.313 47.911,53.594 49.834,52.593 
				51.266,50.948 52.273,49.678 53.162,47.893 53.538,46.018 53.473,43.556 52.875,41.215 51.374,39.297 49.316,37.085 
				47.758,36.31 45.81,35.996 43.71,35.681 			"/>
			<g style="clip-path:url(#SVGID_00000078043796166654348860000017298213168046364855_);">
				<defs>
					
						<rect id="SVGID_00000100374503324545955910000016137873175554981280_" x="5.595" y="15.44" transform="matrix(0.4722 -0.8815 0.8815 0.4722 -10.2518 30.16)" width="28.929" height="16.4"/>
				</defs>
				<clipPath id="SVGID_00000109708020651977586010000005789508319819592861_">
					<use xlink:href="#SVGID_00000100374503324545955910000016137873175554981280_"  style="overflow:visible;"/>
				</clipPath>
				<path style="clip-path:url(#SVGID_00000109708020651977586010000005789508319819592861_);fill:#F26C2B;" d="M18.757,34.123
					c-2.866,0.077-9.759-2.959-9.759-2.959c0.063-2.235,0.523-2.138,1.479-4.88c0.039-0.113,0.915-1.655,0.945-1.763
					c0.165-0.615,2.605-4.831,5.696-6.893c0.452-0.302,0.838-0.704,1.307-1.106c-0.727-0.934-1.414-1.817-2.116-2.717
					c1.823-0.913,11.337-1.125,14.886-0.324c-0.773,4.291-1.877,8.484-3.443,12.832c-1.014-1.013-1.809-1.81-2.773-2.773
					c-1.672,1.599-3.031,2.945-4.27,4.822C19.626,30.001,18.82,31.888,18.757,34.123"/>
			</g>
			<polygon style="clip-path:url(#SVGID_00000078043796166654348860000017298213168046364855_);fill:#9F9EB1;" points="
				80.478,76.532 78.593,77.119 76.574,77.773 74.513,79.148 73.065,81.141 71.887,83.333 71.599,85.814 71.599,85.827 
				72.225,89.136 73.339,91.23 74.848,93.046 77.001,94.006 78.71,94.565 80.478,94.823 80.916,95.012 81.823,95.012 82.27,94.858 
				84.767,94.33 86.795,93.498 88.316,91.938 89.593,90.184 90.141,88.073 90.477,86.487 90.477,84.496 89.978,82.648 
				88.824,80.472 87.245,78.643 85.047,77.594 82.218,76.532 			"/>
			<g style="clip-path:url(#SVGID_00000078043796166654348860000017298213168046364855_);">
				<defs>
					
						<rect id="SVGID_00000010274759296493797690000009119835795486363573_" x="34.44" y="2.633" transform="matrix(0.7163 -0.6978 0.6978 0.7163 0.0959 35.5992)" width="18.779" height="30.098"/>
				</defs>
				<clipPath id="SVGID_00000121259279284584311270000007052896075527007137_">
					<use xlink:href="#SVGID_00000010274759296493797690000009119835795486363573_"  style="overflow:visible;"/>
				</clipPath>
				<path style="clip-path:url(#SVGID_00000121259279284584311270000007052896075527007137_);fill:#5699DE;" d="M53.841,23.816
					c0.956,0.925,3.007-0.081,3.327,1.882c-3.333,2.87-6.623,5.712-10.128,8.735c-2.514-3.498-4.189-7.381-6.148-11.084
					c0.09-0.394,0.172-0.726,0.255-1.128c1.42,0.125,2.867,0.264,4.351,0.397c1.378-2.599,0.148-4.793-1.123-6.599
					c-2.069-2.94-5.01-1.89-7.448-1.01c-0.757,0.599-1.272,1.016-1.964,1.566c-1.51-2.481-2.88-4.734-4.265-7.029
					c0.165-0.188,0.267-0.399,0.423-0.454c1.913-0.774,3.78-1.867,5.764-2.194c4.976-0.812,9.551,0.259,13.315,3.879
					c2.403,2.323,4,5.024,4.019,8.44C54.228,20.716,53.982,22.212,53.841,23.816"/>
			</g>
			<g style="clip-path:url(#SVGID_00000078043796166654348860000017298213168046364855_);">
				<defs>
					
						<rect id="SVGID_00000158712841241192748490000009488738850504370330_" x="69.124" y="21.401" transform="matrix(0.8825 -0.4704 0.4704 0.8825 -7.7822 40.5879)" width="16.4" height="28.929"/>
				</defs>
				<clipPath id="SVGID_00000000931377723417179780000007877474310012099256_">
					<use xlink:href="#SVGID_00000158712841241192748490000009488738850504370330_"  style="overflow:visible;"/>
				</clipPath>
				<path style="clip-path:url(#SVGID_00000000931377723417179780000007877474310012099256_);fill:#E33A3A;" d="M69.334,28.958
					c1.528-2.425,7.884-6.469,7.884-6.469c1.823,1.295,1.485,1.623,3.234,3.942c0.072,0.095,0.867,1.68,0.941,1.765
					c0.42,0.479,2.569,4.85,2.565,8.566c0,0.544,0.12,1.088,0.193,1.701c1.181-0.085,2.297-0.166,3.435-0.249
					c-0.253,2.023-5.364,10.05-8.003,12.556c-3.138-3.027-6.01-6.275-8.755-9.993c1.406-0.279,2.511-0.499,3.847-0.765
					c-0.401-2.279-0.764-4.156-1.636-6.23C72.277,31.972,71.157,30.253,69.334,28.958"/>
			</g>
			<g style="clip-path:url(#SVGID_00000078043796166654348860000017298213168046364855_);">
				<defs>
					
						<rect id="SVGID_00000084507682800159074110000013911761087251830183_" x="54.148" y="49.067" transform="matrix(0.9832 -0.1824 0.1824 0.9832 -9.5014 13.6018)" width="30.099" height="18.778"/>
				</defs>
				<clipPath id="SVGID_00000084491675360781383930000003036114522956730780_">
					<use xlink:href="#SVGID_00000084507682800159074110000013911761087251830183_"  style="overflow:visible;"/>
				</clipPath>
				<path style="clip-path:url(#SVGID_00000084491675360781383930000003036114522956730780_);fill:#AD70D6;" d="M58.536,63.374
					c-1.3,0.282-1.603,2.545-3.413,1.722c-0.535-4.366-1.07-8.681-1.638-13.274c4.305-0.148,8.464,0.616,12.632,1.044
					c0.278,0.294,0.509,0.546,0.797,0.839c-0.893,1.111-1.813,2.237-2.747,3.398c1.395,2.588,3.903,2.785,6.11,2.731
					c3.595-0.087,4.356-3.116,4.977-5.632c-0.076-0.962-0.138-1.622-0.21-2.504c2.901,0.123,5.536,0.235,8.213,0.359
					c0.065,0.242,0.184,0.444,0.142,0.604c-0.418,2.02-0.547,4.18-1.376,6.012c-2.089,4.588-5.521,7.797-10.623,8.916
					c-3.265,0.708-6.399,0.536-9.25-1.346C60.898,65.418,59.791,64.383,58.536,63.374"/>
			</g>
			<g style="clip-path:url(#SVGID_00000078043796166654348860000017298213168046364855_);">
				<defs>
					
						<rect id="SVGID_00000151504935533640082130000004019922543818588057_" x="30.339" y="65.792" transform="matrix(0.0449 -0.999 0.999 0.0449 -43.3687 115.1495)" width="16.399" height="28.929"/>
				</defs>
				<clipPath id="SVGID_00000099649039607154489230000000613760427420414898_">
					<use xlink:href="#SVGID_00000151504935533640082130000004019922543818588057_"  style="overflow:visible;"/>
				</clipPath>
				<path style="clip-path:url(#SVGID_00000099649039607154489230000000613760427420414898_);fill:#55C95A;" d="M48.554,76.902
					c1.308,2.551,1.548,10.079,1.548,10.079c-2.042,0.909-2.153,0.452-5.039,0.775c-0.119,0.013-1.888-0.11-1.998-0.09
					c-0.626,0.117-5.483-0.262-8.678-2.159c-0.468-0.277-0.997-0.451-1.562-0.7c-0.528,1.059-1.028,2.061-1.536,3.082
					c-1.612-1.249-5.914-9.737-6.725-13.285c4.203-1.156,8.462-1.973,13.06-2.439c-0.477,1.351-0.851,2.414-1.303,3.699
					c2.165,0.817,3.965,1.461,6.194,1.767C44.461,77.899,46.511,77.811,48.554,76.902"/>
			</g>
			<g style="clip-path:url(#SVGID_00000078043796166654348860000017298213168046364855_);">
				<defs>
					
						<rect id="SVGID_00000150791659251741760450000003420196618634148538_" x="6.135" y="52.383" transform="matrix(0.1767 -0.9843 0.9843 0.1767 -43.3596 71.7057)" width="30.098" height="18.779"/>
				</defs>
				<clipPath id="SVGID_00000021117867736954649500000000820494861229932426_">
					<use xlink:href="#SVGID_00000150791659251741760450000003420196618634148538_"  style="overflow:visible;"/>
				</clipPath>
				<path style="clip-path:url(#SVGID_00000021117867736954649500000000820494861229932426_);fill:#E1D153;" d="M20.351,50.061
					c0.196-1.316-1.815-2.398-0.404-3.801c4.273,1.042,8.498,2.065,12.996,3.157c-1.383,4.08-3.568,7.701-5.44,11.449
					c-0.373,0.156-0.691,0.282-1.066,0.449c-0.724-1.228-1.453-2.486-2.208-3.771c-2.915,0.391-3.984,2.668-4.714,4.752
					c-1.189,3.393,1.377,5.175,3.51,6.645c0.928,0.268,1.566,0.444,2.417,0.688c-1.14,2.671-2.175,5.096-3.237,7.557
					c-0.25-0.024-0.48,0.016-0.616-0.08c-1.742-1.106-3.717-1.988-5.137-3.412c-3.555-3.574-5.345-7.919-4.589-13.087
					c0.492-3.306,1.759-6.177,4.527-8.179C17.604,51.549,18.964,50.879,20.351,50.061"/>
			</g>
		</g>
	</g>
</g>
<g id="Layer_2">
	<g id="Layer_3">
	</g>
</g>
</svg>
