<?xml version="1.0" encoding="iso-8859-1"?>
<!-- Generator: Adobe Illustrator 26.0.1, SVG Export Plug-In . SVG Version: 6.00 Build 0)  -->
<svg version="1.1" xmlns="http://www.w3.org/2000/svg" xmlns:xlink="http://www.w3.org/1999/xlink" x="0px" y="0px"
	 viewBox="0 0 100 100" style="enable-background:new 0 0 100 100;" xml:space="preserve">
<g id="Layer_1" style="display:none;">
	
		<image style="display:inline;overflow:visible;" width="80" height="80" xlink:href="../old_images/xrule151.jpg"  transform="matrix(0.2 0 0 0.2 1.3721 73.0468)">
	</image>
</g>
<g id="Layer_2">
	<g id="G_x28__tree_x28__T2_T1_T1_L1_x29___x29__00000025419070601735069230000003835119132287555725_">
		<g>
			<defs>
				<rect id="SVGID_1_" x="1" y="7" width="74.738" height="67.231"/>
			</defs>
			<clipPath id="SVGID_00000075859290840101190480000012860208780908224181_">
				<use xlink:href="#SVGID_1_"  style="overflow:visible;"/>
			</clipPath>
			<polygon style="clip-path:url(#SVGID_00000075859290840101190480000012860208780908224181_);fill:#523742;" points="
				60.491,46.117 58.884,47.26 57.167,48.508 55.636,50.455 54.879,52.8 54.44,55.249 54.938,57.705 56.563,60.66 58.271,62.305 
				60.271,63.563 62.615,63.806 64.413,63.806 66.175,63.502 66.649,63.546 67.513,63.264 67.889,62.979 70.098,61.702 
				71.768,60.281 72.729,58.325 73.396,56.263 73.264,54.086 73.091,52.478 72.47,50.579 71.423,48.979 69.65,47.27 67.581,46.022 
				65.166,45.708 62.147,45.576 			"/>
			<g style="clip-path:url(#SVGID_00000075859290840101190480000012860208780908224181_);">
				<defs>
					<polygon id="SVGID_00000114752523144917695220000003384240144936368041_" points="26.544,36.169 26.544,36.169 26.872,52.566 
						55.796,51.986 55.467,35.59 					"/>
				</defs>
				<clipPath id="SVGID_00000025418868272486463670000015361567482277929646_">
					<use xlink:href="#SVGID_00000114752523144917695220000003384240144936368041_"  style="overflow:visible;"/>
				</clipPath>
				<path style="clip-path:url(#SVGID_00000025418868272486463670000015361567482277929646_);fill:#9F9EB1;" d="M31.393,48.076
					c-1.471-2.461-2.2-9.957-2.2-9.957c1.979-1.04,2.12-0.592,4.979-1.101c0.117-0.02,1.89-0.013,1.999-0.04
					c0.617-0.157,5.488-0.095,8.799,1.59c0.486,0.246,1.025,0.386,1.605,0.598c0.458-1.091,0.892-2.123,1.333-3.175
					c1.689,1.141,6.534,9.331,7.574,12.82c-4.119,1.425-8.317,2.517-12.874,3.282c0.387-1.38,0.691-2.464,1.059-3.775
					c-2.213-0.675-4.052-1.2-6.295-1.362C35.412,46.815,33.373,47.036,31.393,48.076"/>
			</g>
			<g style="clip-path:url(#SVGID_00000075859290840101190480000012860208780908224181_);">
				<defs>
					
						<rect id="SVGID_00000048501572465151215370000012832396279607478433_" x="1.875" y="44.257" transform="matrix(0.6123 -0.7906 0.7906 0.6123 -35.1379 33.2542)" width="28.929" height="16.4"/>
				</defs>
				<clipPath id="SVGID_00000153677026798439665130000010512022448346126764_">
					<use xlink:href="#SVGID_00000048501572465151215370000012832396279607478433_"  style="overflow:visible;"/>
				</clipPath>
				<path style="clip-path:url(#SVGID_00000153677026798439665130000010512022448346126764_);fill:#E1D153;" d="M13.312,62.576
					c-2.839-0.401-9.131-4.542-9.131-4.542c0.434-2.193,0.872-2.02,2.271-4.565c0.057-0.105,1.178-1.48,1.225-1.582
					c0.265-0.579,3.373-4.33,6.764-5.849c0.496-0.222,0.943-0.554,1.473-0.873c-0.562-1.042-1.093-2.027-1.635-3.031
					c1.95-0.598,11.366,0.777,14.733,2.158c-1.477,4.102-3.263,8.053-5.531,12.08c-0.83-1.168-1.483-2.086-2.273-3.196
					c-1.915,1.298-3.478,2.399-5.013,4.044C14.855,58.656,13.746,60.382,13.312,62.576"/>
			</g>
			<g style="clip-path:url(#SVGID_00000075859290840101190480000012860208780908224181_);">
				<defs>
					
						<rect id="SVGID_00000159463057202059186190000015525933865532550076_" x="26.348" y="8.568" transform="matrix(0.5757 -0.8177 0.8177 0.5757 -4.1742 38.0205)" width="16.4" height="28.929"/>
				</defs>
				<clipPath id="SVGID_00000001644547440688837510000018404127786818611330_">
					<use xlink:href="#SVGID_00000159463057202059186190000015525933865532550076_"  style="overflow:visible;"/>
				</clipPath>
				<path style="clip-path:url(#SVGID_00000001644547440688837510000018404127786818611330_);fill:#5699DE;" d="M24.302,20.467
					c0.272-2.854,4.122-9.328,4.122-9.328c2.211,0.334,2.058,0.779,4.664,2.061c0.107,0.053,1.532,1.109,1.635,1.152
					c0.591,0.238,4.48,3.172,6.151,6.49c0.245,0.486,0.597,0.917,0.939,1.432c1.015-0.608,1.975-1.183,2.954-1.77
					c0.685,1.92-0.259,11.389-1.486,14.815c-4.164-1.288-8.193-2.893-12.319-4.975c1.13-0.883,2.017-1.577,3.09-2.416
					c-1.384-1.854-2.556-3.366-4.268-4.824C28.288,21.83,26.512,20.801,24.302,20.467"/>
			</g>
			<g style="clip-path:url(#SVGID_00000075859290840101190480000012860208780908224181_);">
				<defs>
					
						<rect id="SVGID_00000016755478789144701370000007866292798170607259_" x="42.231" y="14.057" transform="matrix(0.1067 -0.9943 0.9943 0.1067 28.5162 76.2536)" width="28.929" height="16.4"/>
				</defs>
				<clipPath id="SVGID_00000152947014796589939100000010167229390149236107_">
					<use xlink:href="#SVGID_00000016755478789144701370000007866292798170607259_"  style="overflow:visible;"/>
				</clipPath>
				<path style="clip-path:url(#SVGID_00000152947014796589939100000010167229390149236107_);fill:#AD70D6;" d="M53.967,12.053
					c2.627-1.147,10.156-0.922,10.156-0.922c0.781,2.095,0.318,2.177,0.461,5.078c0.007,0.119-0.226,1.878-0.213,1.989
					c0.078,0.632-0.6,5.456-2.691,8.527c-0.306,0.45-0.512,0.967-0.796,1.516c1.025,0.593,1.993,1.153,2.981,1.724
					c-1.346,1.531-10.084,5.3-13.675,5.89c-0.894-4.267-1.446-8.568-1.627-13.186c1.32,0.559,2.357,0.998,3.611,1.529
					c0.95-2.11,1.704-3.867,2.147-6.073C54.709,16.2,54.748,14.148,53.967,12.053"/>
			</g>
		</g>
	</g>
	<g id="T1_x5F_2_00000049907340806900695910000001716199228173591465_">
		<g>
			<defs>
				
					<rect id="SVGID_00000023975129082712431890000012663428370524111549_" x="68.741" y="27.32" transform="matrix(0.3913 -0.9203 0.9203 0.3913 17.9614 98.1938)" width="28.929" height="16.4"/>
			</defs>
			<clipPath id="SVGID_00000054959994082557666630000003812312508506394301_">
				<use xlink:href="#SVGID_00000023975129082712431890000012663428370524111549_"  style="overflow:visible;"/>
			</clipPath>
			<g style="clip-path:url(#SVGID_00000054959994082557666630000003812312508506394301_);">
				<defs>
					
						<rect id="SVGID_00000065797554009145200760000006763411993675026358_" x="68.741" y="27.32" transform="matrix(0.3913 -0.9203 0.9203 0.3913 17.9614 98.1938)" width="28.929" height="16.4"/>
				</defs>
				<clipPath id="SVGID_00000069361181478767674810000004523411678343728535_">
					<use xlink:href="#SVGID_00000065797554009145200760000006763411993675026358_"  style="overflow:visible;"/>
				</clipPath>
				<path style="clip-path:url(#SVGID_00000069361181478767674810000004523411678343728535_);fill:#F26C2B;" d="M83.563,24.963
					c2.847-0.333,9.985,2.072,9.985,2.072c0.138,2.232-0.33,2.176-1.036,4.993c-0.029,0.116-0.763,1.73-0.783,1.841
					c-0.109,0.627-2.162,5.046-5.055,7.376c-0.423,0.342-0.771,0.776-1.203,1.219c0.808,0.865,1.572,1.683,2.351,2.516
					c-1.733,1.073-11.189,2.137-14.797,1.657c0.386-4.342,1.109-8.618,2.279-13.089c1.1,0.919,1.965,1.641,3.011,2.513
					c1.522-1.742,2.755-3.205,3.821-5.186C83.067,29.147,83.701,27.195,83.563,24.963"/>
			</g>
		</g>
	</g>
	<g id="T1_x5F_2_00000055702795226824009880000004486617993231777466_">
		<g>
			<defs>
				
					<rect id="SVGID_00000171001676351234427880000018210468342002473360_" x="76.141" y="56.978" transform="matrix(0.3239 -0.9461 0.9461 0.3239 -10.5658 128.1006)" width="16.4" height="28.929"/>
			</defs>
			<clipPath id="SVGID_00000119088103576987208310000009646163832595520952_">
				<use xlink:href="#SVGID_00000171001676351234427880000018210468342002473360_"  style="overflow:visible;"/>
			</clipPath>
			<g style="clip-path:url(#SVGID_00000119088103576987208310000009646163832595520952_);">
				<defs>
					
						<rect id="SVGID_00000102516833087949428710000016938719989021156741_" x="76.141" y="56.978" transform="matrix(0.3239 -0.9461 0.9461 0.3239 -10.5658 128.1006)" width="16.4" height="28.929"/>
				</defs>
				<clipPath id="SVGID_00000096764804377373765510000016686188158776389810_">
					<use xlink:href="#SVGID_00000102516833087949428710000016938719989021156741_"  style="overflow:visible;"/>
				</clipPath>
				<path style="clip-path:url(#SVGID_00000096764804377373765510000016686188158776389810_);fill:#55C95A;" d="M94.895,71.037
					c0.538,2.816-1.346,10.109-1.346,10.109c-2.216,0.298-2.194-0.172-5.054-0.673c-0.118-0.02-1.781-0.636-1.892-0.648
					c-0.634-0.064-5.188-1.792-7.722-4.51c-0.371-0.398-0.83-0.713-1.302-1.112c-0.805,0.868-1.565,1.689-2.34,2.526
					c-1.196-1.651-2.939-11.006-2.721-14.639c4.359,0.071,8.676,0.485,13.219,1.329c-0.837,1.164-1.495,2.078-2.29,3.184
					c1.848,1.392,3.395,2.516,5.448,3.436C90.687,70.844,92.679,71.335,94.895,71.037"/>
			</g>
		</g>
	</g>
	<g id="T1_x5F_2_00000065762525907255407700000005295924283970802561_">
		<g>
			<defs>
				
					<rect id="SVGID_00000070099481246583919860000003620316105887656881_" x="35.944" y="69.39" transform="matrix(0.16 -0.9871 0.9871 0.16 -34.2464 114.9368)" width="28.929" height="16.4"/>
			</defs>
			<clipPath id="SVGID_00000016758818108282676560000009883102506144987276_">
				<use xlink:href="#SVGID_00000070099481246583919860000003620316105887656881_"  style="overflow:visible;"/>
			</clipPath>
			<g style="clip-path:url(#SVGID_00000016758818108282676560000009883102506144987276_);">
				<defs>
					
						<rect id="SVGID_00000059297810948148374540000013922902668540151458_" x="35.944" y="69.39" transform="matrix(0.16 -0.9871 0.9871 0.16 -34.2464 114.9368)" width="28.929" height="16.4"/>
				</defs>
				<clipPath id="SVGID_00000036930507823763993920000004225234150049642170_">
					<use xlink:href="#SVGID_00000059297810948148374540000013922902668540151458_"  style="overflow:visible;"/>
				</clipPath>
				<path style="clip-path:url(#SVGID_00000036930507823763993920000004225234150049642170_);fill:#E33A3A;" d="M52.585,87.926
					C49.9,88.93,42.394,88.3,42.394,88.3c-0.667-2.134-0.2-2.191-0.187-5.096c0-0.12,0.327-1.863,0.32-1.974
					c-0.044-0.635,0.893-5.416,3.146-8.371c0.329-0.433,0.563-0.938,0.877-1.471c-0.991-0.647-1.928-1.259-2.884-1.882
					c1.426-1.457,10.354-4.75,13.972-5.146c0.663,4.309,0.983,8.633,0.915,13.254c-1.288-0.629-2.3-1.123-3.524-1.721
					c-1.062,2.056-1.909,3.77-2.47,5.948C52.067,83.745,51.918,85.792,52.585,87.926"/>
			</g>
		</g>
	</g>
</g>
</svg>
