<?xml version="1.0" encoding="iso-8859-1"?>
<!-- Generator: Adobe Illustrator 26.0.1, SVG Export Plug-In . SVG Version: 6.00 Build 0)  -->
<svg version="1.1" xmlns="http://www.w3.org/2000/svg" xmlns:xlink="http://www.w3.org/1999/xlink" x="0px" y="0px"
	 viewBox="0 0 100 100" style="enable-background:new 0 0 100 100;" xml:space="preserve">
<g id="Layer_1">
	<g id="G_x28__T1_T1_T1_L1__x29__G_x28__T1_T1_T1_L1__x29__00000065036002931597581350000009037993470810169262_">
		<g>
			<defs>
				<rect id="SVGID_1_" x="-30" y="2" width="136.419" height="109.222"/>
			</defs>
			<clipPath id="SVGID_00000150781876615285677810000015403987598460854684_">
				<use xlink:href="#SVGID_1_"  style="overflow:visible;"/>
			</clipPath>
			<polygon style="clip-path:url(#SVGID_00000150781876615285677810000015403987598460854684_);fill:#9F9EB1;" points="
				24.172,29.983 22.126,30.857 20.198,32.008 18.823,33.798 18.821,33.801 17.776,36.653 17.669,38.787 17.998,40.89 
				19.222,42.627 20.288,43.849 21.539,44.866 21.791,45.215 22.494,45.634 22.912,45.721 25.092,46.466 27.048,46.76 28.95,46.256 
				30.751,45.489 32.153,44.108 33.148,43.038 34.07,41.497 34.539,39.837 34.651,37.62 34.274,35.475 33.056,33.649 31.355,31.518 
				30.005,30.715 28.274,30.298 26.405,29.871 			"/>
			<g style="clip-path:url(#SVGID_00000150781876615285677810000015403987598460854684_);">
				<defs>
					<polygon id="SVGID_00000133502223247631343380000001989400907558427573_" points="-2.531,20.136 19.891,33.503 27.485,20.814 
						5.059,7.447 					"/>
				</defs>
				<clipPath id="SVGID_00000057126078487023999960000006752184071303878798_">
					<use xlink:href="#SVGID_00000133502223247631343380000001989400907558427573_"  style="overflow:visible;"/>
				</clipPath>
				<path style="clip-path:url(#SVGID_00000057126078487023999960000006752184071303878798_);fill:#E33A3A;" d="M3.078,18.863
					c0.051-2.583,3.079-8.66,3.079-8.66c2.014,0.149,1.906,0.56,4.339,1.536c0.1,0.039,1.453,0.893,1.55,0.923
					c0.547,0.175,4.247,2.549,5.977,5.418c0.254,0.419,0.6,0.783,0.943,1.223c0.872-0.616,1.698-1.197,2.539-1.791
					c0.747,1.679,0.538,10.251-0.334,13.414c-3.837-0.877-7.572-2.046-11.428-3.638c0.958-0.87,1.709-1.554,2.618-2.38
					c-1.372-1.572-2.528-2.852-4.169-4.046C6.759,19.818,5.091,19.014,3.078,18.863"/>
			</g>
			<g style="clip-path:url(#SVGID_00000150781876615285677810000015403987598460854684_);">
				<defs>
					<polygon id="SVGID_00000102527795461383494120000014945907433930479012_" points="33.542,35.42 40.249,48.596 63.533,36.785 
						56.825,23.61 56.824,23.61 					"/>
				</defs>
				<clipPath id="SVGID_00000044885535385697744540000018377067504353952138_">
					<use xlink:href="#SVGID_00000102527795461383494120000014945907433930479012_"  style="overflow:visible;"/>
				</clipPath>
				<path style="clip-path:url(#SVGID_00000044885535385697744540000018377067504353952138_);fill:#F26C2B;" d="M54.913,29.026
					c2.163,1.42,5.7,7.216,5.7,7.216c-1.201,1.621-1.491,1.311-3.616,2.845c-0.087,0.064-1.531,0.752-1.609,0.817
					c-0.44,0.369-4.424,2.229-7.778,2.16c-0.491-0.01-0.984,0.089-1.538,0.144c0.055,1.065,0.108,2.072,0.163,3.099
					c-1.822-0.264-8.977-5.011-11.192-7.433c2.787-2.772,5.771-5.303,9.175-7.71c0.227,1.271,0.406,2.27,0.623,3.479
					c2.063-0.32,3.765-0.615,5.652-1.364C52.141,31.625,53.712,30.645,54.913,29.026"/>
			</g>
			<g style="clip-path:url(#SVGID_00000150781876615285677810000015403987598460854684_);">
				<defs>
					
						<rect id="SVGID_00000132066379062228233490000007561996052730399630_" x="11.61" y="46.379" transform="matrix(0.9988 -0.0485 0.0485 0.9988 -2.8583 0.9918)" width="14.806" height="26.069"/>
				</defs>
				<clipPath id="SVGID_00000000939317498933996890000009483637025277203865_">
					<use xlink:href="#SVGID_00000132066379062228233490000007561996052730399630_"  style="overflow:visible;"/>
				</clipPath>
				<path style="clip-path:url(#SVGID_00000000939317498933996890000009483637025277203865_);fill:#55C95A;" d="M22.872,68.118
					c-2.183,1.388-8.93,2.235-8.93,2.235c-0.989-1.756-0.588-1.893-1.12-4.457c-0.022-0.104-0.06-1.702-0.088-1.8
					c-0.157-0.551-0.226-4.94,1.21-7.967c0.21-0.443,0.322-0.931,0.498-1.459c-0.996-0.385-1.939-0.75-2.899-1.12
					c0.987-1.551,8.255-6.123,11.376-7.15c1.393,3.675,2.485,7.427,3.292,11.513c-1.256-0.313-2.242-0.56-3.435-0.858
					c-0.552,2.011-0.979,3.681-1.068,5.706C21.631,64.529,21.883,66.361,22.872,68.118"/>
			</g>
			<polygon style="clip-path:url(#SVGID_00000150781876615285677810000015403987598460854684_);fill:#523742;" points="
				72.336,49.876 69.397,50.663 67.587,51.805 66.053,53.283 65.335,55.282 64.946,56.855 64.834,58.463 64.693,58.869 
				64.754,59.683 64.923,60.075 65.567,62.283 66.453,64.049 67.96,65.312 69.625,66.34 71.563,66.69 73.012,66.885 74.807,66.751 
				76.436,66.179 78.316,64.994 79.856,63.452 80.652,61.407 81.419,58.792 81.3,57.228 80.646,55.576 79.919,53.804 78.542,52.046 
				76.65,50.879 74.597,49.968 72.339,49.876 			"/>
			<g style="clip-path:url(#SVGID_00000150781876615285677810000015403987598460854684_);">
				<defs>
					
						<rect id="SVGID_00000053513152987590190860000005838751840550794387_" x="72.199" y="23.993" transform="matrix(0.9972 -0.0749 0.0749 0.9972 -2.5503 6.0677)" width="14.806" height="26.069"/>
				</defs>
				<clipPath id="SVGID_00000008849646572539253420000017816284164214930065_">
					<use xlink:href="#SVGID_00000053513152987590190860000005838751840550794387_"  style="overflow:visible;"/>
				</clipPath>
				<path style="clip-path:url(#SVGID_00000008849646572539253420000017816284164214930065_);fill:#5699DE;" d="M75.513,28.428
					c2.146-1.445,8.868-2.471,8.868-2.471c1.036,1.73,0.637,1.878,1.238,4.426c0.026,0.105,0.105,1.7,0.136,1.796
					c0.171,0.548,0.356,4.934-0.999,7.997c-0.198,0.449-0.297,0.94-0.46,1.473c1.007,0.358,1.958,0.697,2.929,1.042
					c-0.945,1.576-8.089,6.339-11.182,7.448c-1.49-3.636-2.682-7.359-3.597-11.422c1.265,0.281,2.256,0.501,3.457,0.767
					c0.499-2.025,0.882-3.705,0.915-5.731C76.849,31.982,76.548,30.158,75.513,28.428"/>
			</g>
			<g style="clip-path:url(#SVGID_00000150781876615285677810000015403987598460854684_);">
				<defs>
					<polygon id="SVGID_00000008151394093616386990000014705639196908350614_" points="72.546,75.881 95.623,88.089 102.557,75.032 
						102.556,75.03 79.48,62.824 					"/>
				</defs>
				<clipPath id="SVGID_00000135679462688030405580000015628045766523657647_">
					<use xlink:href="#SVGID_00000008151394093616386990000014705639196908350614_"  style="overflow:visible;"/>
				</clipPath>
				<path style="clip-path:url(#SVGID_00000135679462688030405580000015628045766523657647_);fill:#AD70D6;" d="M97.02,76.588
					c0.081,2.583-2.632,8.806-2.632,8.806c-2.019-0.048-1.932-0.464-4.412-1.314c-0.102-0.034-1.497-0.817-1.596-0.843
					c-0.555-0.147-4.372-2.329-6.245-5.106c-0.275-0.407-0.639-0.752-1.004-1.173c-0.84,0.658-1.635,1.281-2.445,1.917
					c-0.832-1.639-1.061-10.211-0.351-13.413c3.875,0.679,7.666,1.658,11.598,3.051c-0.912,0.917-1.627,1.639-2.493,2.511
					c1.45,1.5,2.672,2.719,4.371,3.828C93.296,75.821,95.002,76.54,97.02,76.588"/>
			</g>
			<g style="clip-path:url(#SVGID_00000150781876615285677810000015403987598460854684_);">
				<defs>
					<polygon id="SVGID_00000010996888828896886990000004125463228738982027_" points="36.609,66.952 45.706,78.611 66.314,62.595 
						57.216,50.935 					"/>
				</defs>
				<clipPath id="SVGID_00000073686953086633818960000000221727524070441365_">
					<use xlink:href="#SVGID_00000010996888828896886990000004125463228738982027_"  style="overflow:visible;"/>
				</clipPath>
				<path style="clip-path:url(#SVGID_00000073686953086633818960000000221727524070441365_);fill:#E1D153;" d="M46.55,72.932
					c-2.393-0.983-6.971-6.003-6.971-6.003c0.87-1.818,1.213-1.569,3.007-3.479c0.073-0.078,1.36-1.029,1.424-1.108
					c0.362-0.445,3.918-3.027,7.224-3.597c0.484-0.083,0.949-0.273,1.483-0.434c-0.258-1.034-0.502-2.013-0.751-3.01
					c1.838-0.088,9.768,3.214,12.405,5.17c-2.209,3.252-4.655,6.303-7.538,9.313c-0.466-1.205-0.832-2.152-1.274-3.297
					c-1.965,0.707-3.58,1.319-5.29,2.412C48.776,69.854,47.421,71.113,46.55,72.932"/>
			</g>
		</g>
	</g>
</g>
<g id="Layer_2">
	<g id="Layer_3">
	</g>
</g>
</svg>
