<?xml version="1.0" encoding="iso-8859-1"?>
<!-- Generator: Adobe Illustrator 26.0.1, SVG Export Plug-In . SVG Version: 6.00 Build 0)  -->
<svg version="1.1" xmlns="http://www.w3.org/2000/svg" xmlns:xlink="http://www.w3.org/1999/xlink" x="0px" y="0px"
	 viewBox="0 0 100 100" style="enable-background:new 0 0 100 100;" xml:space="preserve">
<g id="Layer_1">
	<g id="L3_00000111167092474972820950000010941926405184375957_">
		<g>
			<defs>
				<rect id="SVGID_1_" x="24" y="57" width="41.854" height="39.147"/>
			</defs>
			<clipPath id="SVGID_00000167389757112436682520000003317484067331050145_">
				<use xlink:href="#SVGID_1_"  style="overflow:visible;"/>
			</clipPath>
			<g style="clip-path:url(#SVGID_00000167389757112436682520000003317484067331050145_);">
				<defs>
					<rect id="SVGID_00000023963849344626346390000016762611826709071763_" x="24" y="57" width="41.854" height="39.147"/>
				</defs>
				<clipPath id="SVGID_00000150080187771733320320000013931675605162851474_">
					<use xlink:href="#SVGID_00000023963849344626346390000016762611826709071763_"  style="overflow:visible;"/>
				</clipPath>
				<g style="clip-path:url(#SVGID_00000150080187771733320320000013931675605162851474_);">
					<defs>
						<rect id="SVGID_00000138569777008353071440000005727210749493592983_" x="24.004" y="57.002" width="41.85" height="39.148"/>
					</defs>
					<clipPath id="SVGID_00000003068986664697790710000002664014609258273213_">
						<use xlink:href="#SVGID_00000138569777008353071440000005727210749493592983_"  style="overflow:visible;"/>
					</clipPath>
					<g style="clip-path:url(#SVGID_00000003068986664697790710000002664014609258273213_);">
						<defs>
							
								<rect id="SVGID_00000058564876098290953370000008681255989958446985_" x="24.004" y="57.002" width="41.85" height="39.148"/>
						</defs>
						<clipPath id="SVGID_00000029729238119304761150000017764306983698517408_">
							<use xlink:href="#SVGID_00000058564876098290953370000008681255989958446985_"  style="overflow:visible;"/>
						</clipPath>
						<path style="clip-path:url(#SVGID_00000029729238119304761150000017764306983698517408_);fill:#5699DE;" d="M65.854,75.472
							v4.32c-0.1,0.32-0.19,0.64-0.29,0.96c-0.62,1.94-1.1,3.94-1.9,5.8c-0.42,0.98-1.25,1.9-2.11,2.56
							c-1.74,1.34-3.62,2.48-5.54,3.76c0.54,0.92,1.13,1.93,1.74,2.96c-2.67,0.91-14.34-0.29-15.63-1.61c1-2.61,1.86-5.28,2.93-7.97
							c0.65-1.6,1.37-3.22,2.23-4.82c0.95,1.17,1.73,2.13,2.53,3.12c1.82-1.3,3.59-2.57,5.43-3.89c0.22-2.01,2.57-3.46,1.4-6.06
							c0.8,0.07,1.35,0.13,1.9,0.17c2.21,0.17,4.42,0.33,6.63,0.5C65.404,75.292,65.634,75.402,65.854,75.472"/>
						<path style="clip-path:url(#SVGID_00000029729238119304761150000017764306983698517408_);fill:#AD70D6;" d="M58.364,57.002
							c1.67,1.17,6.35,9.46,7.32,12.97c-3.08,1-6.21,1.81-9.48,2.43c-1.14,0.22-2.29,0.42-3.46,0.59c0.42-1.37,0.74-2.45,1.14-3.75
							c-2.2-0.72-4.36-1.83-6.6-2.04c-1.95-0.18-4.27-0.29-5.84,1.66c-0.3-0.53-0.6-1.05-0.89-1.56c-1.1-1.92-2.15-3.76-3.23-5.65
							c2.19-1.64,4.45-3.27,7.31-3.72c0.12-0.02,0.26,0.01,0.36-0.03c3.83-1.81,7.11-0.14,10.39,1.62c0.48,0.25,1.01,0.4,1.59,0.63
							C57.454,59.062,57.904,58.042,58.364,57.002"/>
						<path style="clip-path:url(#SVGID_00000029729238119304761150000017764306983698517408_);fill:#E1D153;" d="M27.644,81.762
							c-0.24-1.57-0.1-3.21-0.13-4.83c-0.01-0.46,0-0.93,0-1.41c-1.28-0.07-2.4-0.13-3.51-0.18c0.2-2.35,7.28-11.86,9.39-12.58
							c1.59,1.92,3.26,3.81,4.83,5.87c1.22,1.59,2.37,3.29,3.39,5.19c-1.51,0.21-2.62,0.36-3.9,0.54c0.17,2.13-0.06,4.4,0.64,6.32
							c0.68,1.86,1.82,3.79,4.25,4.78c-1.79,2.52-3.45,4.86-5.18,7.3c-2.62-1.48-5.19-2.85-6.86-5.41c-0.32-0.49-0.78-0.89-1.2-1.3
							C28.154,84.872,27.884,83.282,27.644,81.762"/>
					</g>
				</g>
			</g>
		</g>
	</g>
	<g id="G_x28__T1_L1__x29__00000124128375605656007320000009611980455373061302_">
		<g>
			<defs>
				
					<rect id="SVGID_00000001626546804969714240000001606577073734923157_" x="37.889" y="24.875" transform="matrix(0.9505 -0.3106 0.3106 0.9505 -10.741 20.7768)" width="43.96" height="38.48"/>
			</defs>
			<clipPath id="SVGID_00000147216353717671878500000002785979737062162354_">
				<use xlink:href="#SVGID_00000001626546804969714240000001606577073734923157_"  style="overflow:visible;"/>
			</clipPath>
			<polygon style="clip-path:url(#SVGID_00000147216353717671878500000002785979737062162354_);fill:#9F9EB1;" points="
				71.491,41.118 69.884,42.26 68.167,43.508 66.636,45.455 65.879,47.801 65.44,50.25 65.938,52.705 67.564,55.661 69.271,57.306 
				71.271,58.563 73.615,58.807 75.413,58.806 77.175,58.503 77.65,58.547 78.512,58.265 78.889,57.98 81.099,56.702 82.768,55.282 
				83.729,53.325 84.396,51.263 84.263,49.086 84.091,47.479 83.47,45.58 82.423,43.98 80.65,42.27 78.581,41.022 76.166,40.708 
				73.147,40.577 			"/>
			<g style="clip-path:url(#SVGID_00000147216353717671878500000002785979737062162354_);">
				<defs>
					
						<rect id="SVGID_00000127023332916342087780000013368876082672312490_" x="37.705" y="30.877" transform="matrix(0.9998 -0.0201 0.0201 0.9998 -0.7731 1.054)" width="28.929" height="16.4"/>
				</defs>
				<clipPath id="SVGID_00000158725055539908724570000012330757551712123559_">
					<use xlink:href="#SVGID_00000127023332916342087780000013368876082672312490_"  style="overflow:visible;"/>
				</clipPath>
				<path style="clip-path:url(#SVGID_00000158725055539908724570000012330757551712123559_);fill:#523742;" d="M42.394,43.076
					c-1.471-2.461-2.2-9.957-2.2-9.957c1.98-1.04,2.12-0.592,4.979-1.101c0.117-0.02,1.891-0.013,1.999-0.04
					c0.617-0.157,5.488-0.095,8.799,1.59c0.486,0.246,1.025,0.386,1.605,0.598c0.458-1.091,0.892-2.123,1.333-3.175
					c1.689,1.141,6.533,9.331,7.573,12.82c-4.119,1.426-8.316,2.518-12.873,3.283c0.386-1.38,0.691-2.464,1.059-3.776
					c-2.213-0.675-4.052-1.2-6.295-1.362C46.413,41.815,44.373,42.035,42.394,43.076"/>
			</g>
		</g>
	</g>
	<g id="T1_x5F_2_00000047776792899875796110000013361193007078736314_">
		<g>
			<defs>
				
					<rect id="SVGID_00000127748669214795242750000006560989760438113981_" x="12.875" y="39.257" transform="matrix(0.6123 -0.7906 0.7906 0.6123 -26.9207 40.0134)" width="28.929" height="16.4"/>
			</defs>
			<clipPath id="SVGID_00000111883147049528467460000014603908126873024666_">
				<use xlink:href="#SVGID_00000127748669214795242750000006560989760438113981_"  style="overflow:visible;"/>
			</clipPath>
			<g style="clip-path:url(#SVGID_00000111883147049528467460000014603908126873024666_);">
				<defs>
					
						<rect id="SVGID_00000056397874769073376310000016441418419877054109_" x="12.875" y="39.257" transform="matrix(0.6123 -0.7906 0.7906 0.6123 -26.9207 40.0135)" width="28.929" height="16.4"/>
				</defs>
				<clipPath id="SVGID_00000027579359618854589500000003923925346079440778_">
					<use xlink:href="#SVGID_00000056397874769073376310000016441418419877054109_"  style="overflow:visible;"/>
				</clipPath>
				<path style="clip-path:url(#SVGID_00000027579359618854589500000003923925346079440778_);fill:#E33A3A;" d="M24.312,57.576
					c-2.839-0.401-9.131-4.542-9.131-4.542c0.434-2.194,0.872-2.02,2.271-4.565c0.057-0.105,1.178-1.48,1.225-1.581
					c0.265-0.579,3.373-4.33,6.764-5.849c0.496-0.223,0.943-0.555,1.473-0.873c-0.562-1.042-1.092-2.027-1.634-3.031
					c1.949-0.598,11.365,0.777,14.733,2.158c-1.477,4.102-3.263,8.053-5.531,12.08c-0.831-1.168-1.483-2.086-2.273-3.196
					c-1.915,1.298-3.479,2.399-5.013,4.044C25.855,53.656,24.746,55.382,24.312,57.576"/>
			</g>
		</g>
	</g>
	<g id="T1_x5F_2_00000160181189304236007790000001631612565927168672_">
		<g>
			<defs>
				
					<rect id="SVGID_00000011738419038890804320000017162638401965593515_" x="37.348" y="3.568" transform="matrix(0.5757 -0.8176 0.8176 0.5757 4.5807 44.8923)" width="16.4" height="28.929"/>
			</defs>
			<clipPath id="SVGID_00000070821313396953952470000003068481527448045247_">
				<use xlink:href="#SVGID_00000011738419038890804320000017162638401965593515_"  style="overflow:visible;"/>
			</clipPath>
			<g style="clip-path:url(#SVGID_00000070821313396953952470000003068481527448045247_);">
				<defs>
					
						<rect id="SVGID_00000069395775478953366180000016595529384599277458_" x="37.348" y="3.568" transform="matrix(0.5757 -0.8176 0.8176 0.5757 4.5806 44.8923)" width="16.4" height="28.929"/>
				</defs>
				<clipPath id="SVGID_00000106121569619511709280000000468682658643101330_">
					<use xlink:href="#SVGID_00000069395775478953366180000016595529384599277458_"  style="overflow:visible;"/>
				</clipPath>
				<path style="clip-path:url(#SVGID_00000106121569619511709280000000468682658643101330_);fill:#F26C2B;" d="M35.301,15.467
					c0.272-2.854,4.122-9.328,4.122-9.328c2.211,0.334,2.058,0.779,4.664,2.061c0.107,0.052,1.532,1.109,1.635,1.151
					c0.59,0.238,4.479,3.172,6.151,6.491c0.245,0.486,0.597,0.917,0.939,1.432c1.015-0.608,1.976-1.183,2.954-1.77
					c0.686,1.92-0.259,11.389-1.486,14.815c-4.165-1.289-8.193-2.894-12.319-4.976c1.129-0.883,2.016-1.577,3.089-2.416
					c-1.384-1.854-2.555-3.366-4.268-4.824C39.287,16.831,37.513,15.801,35.301,15.467"/>
			</g>
		</g>
	</g>
	<g id="T1_x5F_2_00000102510098287962476180000006431893835517978779_">
		<g>
			<defs>
				
					<rect id="SVGID_00000089568684452316810460000005635250666348195227_" x="53.232" y="9.057" transform="matrix(0.1067 -0.9943 0.9943 0.1067 43.3177 82.7259)" width="28.929" height="16.4"/>
			</defs>
			<clipPath id="SVGID_00000071534428033765078490000016566176623501154696_">
				<use xlink:href="#SVGID_00000089568684452316810460000005635250666348195227_"  style="overflow:visible;"/>
			</clipPath>
			<g style="clip-path:url(#SVGID_00000071534428033765078490000016566176623501154696_);">
				<defs>
					
						<rect id="SVGID_00000017481584164982673960000016892050623108293537_" x="53.231" y="9.057" transform="matrix(0.1067 -0.9943 0.9943 0.1067 43.3176 82.7259)" width="28.929" height="16.4"/>
				</defs>
				<clipPath id="SVGID_00000015341682221255662340000015240573032033057957_">
					<use xlink:href="#SVGID_00000017481584164982673960000016892050623108293537_"  style="overflow:visible;"/>
				</clipPath>
				<path style="clip-path:url(#SVGID_00000015341682221255662340000015240573032033057957_);fill:#55C95A;" d="M64.967,7.053
					c2.627-1.147,10.156-0.922,10.156-0.922c0.781,2.095,0.318,2.177,0.461,5.078c0.006,0.119-0.227,1.878-0.213,1.989
					c0.078,0.632-0.6,5.456-2.691,8.528c-0.306,0.45-0.512,0.967-0.796,1.516c1.025,0.593,1.993,1.153,2.981,1.724
					c-1.346,1.531-10.084,5.3-13.675,5.89c-0.894-4.267-1.445-8.568-1.627-13.186c1.32,0.559,2.357,0.998,3.612,1.529
					c0.949-2.11,1.703-3.867,2.147-6.073C65.709,11.2,65.748,9.148,64.967,7.053"/>
			</g>
		</g>
	</g>
</g>
<g id="Layer_2">
	<g id="Layer_3">
	</g>
</g>
</svg>
