<svg id="Layer_1" data-name="Layer 1" xmlns="http://www.w3.org/2000/svg" xmlns:xlink="http://www.w3.org/1999/xlink" viewBox="0 0 82.78 87.46"><defs><style>.cls-1{fill:none;}.cls-2{clip-path:url(#clip-path);}.cls-3{clip-path:url(#clip-path-2);}.cls-4{fill:#f26c2b;}.cls-5{clip-path:url(#clip-path-3);}.cls-6{fill:#ad70d6;}.cls-7{clip-path:url(#clip-path-4);}.cls-8{fill:#5699de;}.cls-9{clip-path:url(#clip-path-5);}.cls-10{fill:#e1d153;}.cls-11{clip-path:url(#clip-path-6);}.cls-12{fill:#e33a3a;}.cls-13{clip-path:url(#clip-path-7);}.cls-14{fill:#55c95a;}.cls-15{clip-path:url(#clip-path-8);}.cls-16{fill:#9f9eb1;}.cls-17{clip-path:url(#clip-path-9);}.cls-18{fill:#523742;}</style><clipPath id="clip-path" transform="translate(-8.2 -5.04)"><rect class="cls-1" x="8" y="5" width="82.98" height="89"/></clipPath><clipPath id="clip-path-2" transform="translate(-8.2 -5.04)"><rect class="cls-1" x="66.2" y="20.81" width="24.78" height="29.06"/></clipPath><clipPath id="clip-path-3" transform="translate(-8.2 -5.04)"><rect class="cls-1" x="67.81" y="53.48" width="23.17" height="29.13"/></clipPath><clipPath id="clip-path-4" transform="translate(-8.2 -5.04)"><rect class="cls-1" x="8.99" y="53.97" width="24.15" height="29.47"/></clipPath><clipPath id="clip-path-5" transform="translate(-8.2 -5.04)"><rect class="cls-1" x="35.34" y="5.04" width="31.38" height="21.21"/></clipPath><clipPath id="clip-path-6" transform="translate(-8.2 -5.04)"><rect class="cls-1" x="8.2" y="19.65" width="22.27" height="28.85"/></clipPath><clipPath id="clip-path-7" transform="translate(-8.2 -5.04)"><rect class="cls-1" x="32.4" y="71.83" width="31.18" height="20.68"/></clipPath><clipPath id="clip-path-8" transform="translate(-8.2 -5.04)"><rect class="cls-1" x="24" y="32" width="46" height="32"/></clipPath><clipPath id="clip-path-9" transform="translate(-8.2 -5.04)"><polygon class="cls-1" points="24.31 50.77 35.37 63.68 55.26 45.23 44.2 32.32 24.31 50.77"/></clipPath></defs><g id="L6_L2" data-name="L6 L2"><g class="cls-2"><g class="cls-3"><path class="cls-4" d="M91,34.58v.79c-.18,1-.4,2-.52,3-.39,3.19-.72,6.39-1.11,9.57-.06.56-.24,1.09-.42,1.92-.8-.18-1.53-.32-2.24-.51s-1.38-.44-2-.7q-5-2-10-4c-.29-.12-.5-.44-1-.85,1.1-1,2.13-1.82,3.25-2.8a52.06,52.06,0,0,0-3-4.54,51.21,51.21,0,0,0-4.36-4.6,38.34,38.34,0,0,0-3.33-2.52l9.63-8.56c4.29,3.93,8.44,7.61,10.46,13.19,1.47-.9,2.66-1.63,4-2.46.26,1.16.48,2.09.7,3" transform="translate(-8.2 -5.04)"/></g><g class="cls-5"><path class="cls-6" d="M91,59.52c-.53,1.18-1,2.1-1.45,3.17-1.15,4.36-4,8-6.93,11.5L86.32,77c-5.76,3.11-11.94,3.59-18,5.58a23.85,23.85,0,0,1-.48-2.48,26.34,26.34,0,0,1,0-2.67c0-.8,0-1.62.05-2.44s0-1.56,0-2.34V65.82a8.94,8.94,0,0,1,4.17,2c3.73-4,5.55-8.95,7.2-14.29,4,2.1,7.77,4,11.69,6" transform="translate(-8.2 -5.04)"/></g><g class="cls-7"><path class="cls-8" d="M31.47,73.15a19.1,19.1,0,0,1,1.67,1.95l-9.78,8.34-2.2-2.65c-1.86-.66-2.82-2.7-4.16-4.3a11,11,0,0,1-2.85-5c-.11-.54-.81-1-1.2-1.42L9,72.56A82.57,82.57,0,0,1,11,54,10.33,10.33,0,0,1,13,54.3c.55.23,1,.65,1.53.88A71,71,0,0,1,26.14,60c-.58,1.63-2.39,1.86-3.55,3,1.73,2.37,3.29,4.75,5.1,6.91a38.32,38.32,0,0,0,3.78,3.24" transform="translate(-8.2 -5.04)"/></g><g class="cls-9"><path class="cls-10" d="M52.55,5c5.54,3.25,9.34,8,14.17,12.12a127.53,127.53,0,0,1-14.13,9.1V21.74c-5.62-1-10.76,0-16.11,1.57-.4-4.47-.76-8.58-1.14-12.9,3-.44,5.73-1,8.47-1.18s5.53.15,8.35.26c.13-1.44.24-2.78.39-4.45" transform="translate(-8.2 -5.04)"/></g><g class="cls-11"><path class="cls-12" d="M30.47,35a5.53,5.53,0,0,1-.31,1.26c-1.35-.79-2.53-1.47-3.81-2.23-1,1.5-2.05,2.91-2.91,4.44a22.4,22.4,0,0,0-3,7.93,7.51,7.51,0,0,1-1.05,2.11L8.2,43c1.72-5.59,3.85-10.62,8-14.71l-3.89-2.94c5.67-2.93,11.66-3.88,17.46-5.74a8.56,8.56,0,0,1,.48,1.8q.16,6.77.25,13.54" transform="translate(-8.2 -5.04)"/></g><g class="cls-13"><path class="cls-14" d="M62.32,74.6c.43,4.35.84,8.35,1.26,12.56l-3,.43c-4.41,1.57-8.94,1.35-13.62.57-.15,1.56-.25,2.92-.37,4.35a8.35,8.35,0,0,1-4.23-2.45c-3.07-2.81-6.18-5.58-9.28-8.36-.15-.15-.28-.33-.65-.75a115.15,115.15,0,0,1,13.82-9.12v4.6a25.89,25.89,0,0,0,3.42.17c2.36-.19,4.7-.47,7-.83,1.8-.28,3.57-.74,5.64-1.17" transform="translate(-8.2 -5.04)"/></g></g></g><g id="T2_4"><g class="cls-15"><polygon class="cls-16" points="52.95 38.01 51.28 38.55 49.49 39.15 47.67 40.42 46.39 42.26 45.35 44.27 45.09 46.56 45.09 46.57 45.65 49.62 46.63 51.55 47.97 53.22 49.87 54.1 51.39 54.62 52.95 54.86 53.34 55.03 54.14 55.03 54.54 54.89 56.75 54.4 58.55 53.63 59.89 52.2 61.02 50.58 61.51 48.64 61.8 47.18 61.8 45.34 61.36 43.64 60.34 41.64 58.94 39.95 57 38.99 54.49 38.01 52.95 38.01"/><g class="cls-17"><path class="cls-18" d="M45.61,39c.85-.84,0-2.77,1.79-3l7.33,9.68c-3.19,2.17-6.69,3.55-10,5.2l-1-.28c.16-1.3.34-2.62.52-4-2.25-1.38-4.24-.33-5.88.76-2.68,1.78-1.87,4.53-1.19,6.81l1.31,1.87-6.38,3.64c-.17-.16-.35-.26-.39-.41A27,27,0,0,1,30,54a14,14,0,0,1,3.95-12.09c2.15-2.12,4.6-3.48,7.62-3.36,1.33.06,2.64.34,4.06.54" transform="translate(-8.2 -5.04)"/></g></g></g></svg>