<?xml version="1.0" encoding="iso-8859-1"?>
<!-- Generator: Adobe Illustrator 26.0.1, SVG Export Plug-In . SVG Version: 6.00 Build 0)  -->
<svg version="1.1" xmlns="http://www.w3.org/2000/svg" xmlns:xlink="http://www.w3.org/1999/xlink" x="0px" y="0px"
	 viewBox="0 0 100 100" style="enable-background:new 0 0 100 100;" xml:space="preserve">
<g id="Layer_1">
	<g id="G_x28__T1_L1__x29_3_L2_00000093874878359372368890000017913847405421782930_">
		<g>
			<defs>
				<rect id="SVGID_1_" x="6" y="9" width="88.96" height="83.868"/>
			</defs>
			<clipPath id="SVGID_00000121246410625511743210000009506616534936056221_">
				<use xlink:href="#SVGID_1_"  style="overflow:visible;"/>
			</clipPath>
			<polygon style="clip-path:url(#SVGID_00000121246410625511743210000009506616534936056221_);fill:#E1D153;" points="39.959,29 
				38.076,29.587 36.057,30.24 33.997,31.615 32.548,33.61 31.37,35.801 31.081,38.29 31.709,41.604 32.82,43.698 34.331,45.514 
				36.483,46.474 38.192,47.032 39.962,47.291 40.4,47.48 41.306,47.48 41.754,47.326 44.25,46.798 46.279,45.966 47.8,44.405 
				49.074,42.652 49.625,40.541 49.96,38.96 49.96,36.962 49.461,35.116 48.307,32.94 46.728,31.111 44.529,30.063 41.701,29 			"/>
			<g style="clip-path:url(#SVGID_00000121246410625511743210000009506616534936056221_);">
				<defs>
					
						<rect id="SVGID_00000047022859092140684190000008553009674651083919_" x="14.026" y="6.596" transform="matrix(0.2915 -0.9566 0.9566 0.2915 -4.3978 36.1836)" width="16.4" height="28.929"/>
				</defs>
				<clipPath id="SVGID_00000157995816723725487140000005561000950402291348_">
					<use xlink:href="#SVGID_00000047022859092140684190000008553009674651083919_"  style="overflow:visible;"/>
				</clipPath>
				<path style="clip-path:url(#SVGID_00000157995816723725487140000005561000950402291348_);fill:#F26C2B;" d="M11.692,21.824
					c-0.634-2.796,1.001-10.148,1.001-10.148c2.205-0.374,2.199,0.096,5.075,0.5c0.118,0.017,1.801,0.575,1.913,0.583
					c0.635,0.042,5.246,1.614,7.87,4.244c0.385,0.385,0.854,0.685,1.34,1.067c0.774-0.895,1.507-1.741,2.253-2.604
					c1.251,1.609,3.312,10.899,3.217,14.538c-4.358,0.076-8.687-0.19-13.256-0.878c0.796-1.192,1.422-2.128,2.179-3.26
					c-1.894-1.329-3.479-2.399-5.561-3.25C15.904,21.874,13.897,21.45,11.692,21.824"/>
			</g>
			<polygon style="clip-path:url(#SVGID_00000121246410625511743210000009506616534936056221_);fill:#AD70D6;" points="83.958,29 
				82.076,29.587 80.056,30.24 77.996,31.615 76.548,33.61 75.37,35.801 75.081,38.29 75.709,41.604 76.82,43.698 78.331,45.514 
				80.483,46.474 82.192,47.032 83.962,47.291 84.399,47.48 85.306,47.48 85.754,47.326 88.25,46.798 90.279,45.966 91.8,44.405 
				93.074,42.652 93.624,40.541 93.96,38.96 93.96,36.962 93.461,35.116 92.306,32.94 90.728,31.111 88.529,30.063 85.7,29 			"/>
			<g style="clip-path:url(#SVGID_00000121246410625511743210000009506616534936056221_);">
				<defs>
					
						<rect id="SVGID_00000001633307570777676340000012527501285866286013_" x="58.026" y="6.596" transform="matrix(0.2915 -0.9566 0.9566 0.2915 26.7779 78.2732)" width="16.4" height="28.929"/>
				</defs>
				<clipPath id="SVGID_00000178909315278900498850000012165098491366450358_">
					<use xlink:href="#SVGID_00000001633307570777676340000012527501285866286013_"  style="overflow:visible;"/>
				</clipPath>
				<path style="clip-path:url(#SVGID_00000178909315278900498850000012165098491366450358_);fill:#55C95A;" d="M55.692,21.824
					c-0.634-2.796,1.001-10.148,1.001-10.148c2.205-0.374,2.199,0.096,5.075,0.5c0.118,0.017,1.801,0.575,1.913,0.583
					c0.635,0.042,5.246,1.614,7.87,4.244c0.385,0.385,0.854,0.685,1.34,1.067c0.774-0.895,1.507-1.741,2.253-2.604
					c1.251,1.609,3.312,10.899,3.217,14.538c-4.358,0.076-8.687-0.19-13.256-0.878c0.796-1.192,1.422-2.128,2.179-3.26
					c-1.894-1.329-3.479-2.399-5.561-3.25C59.904,21.874,57.897,21.45,55.692,21.824"/>
			</g>
			<polygon style="clip-path:url(#SVGID_00000121246410625511743210000009506616534936056221_);fill:#5699DE;" points="40.959,74 
				39.077,74.588 37.057,75.24 34.997,76.615 33.548,78.611 32.37,80.801 32.081,83.291 32.709,86.604 33.821,88.698 35.331,90.514 
				37.484,91.474 39.192,92.032 40.962,92.292 41.398,92.48 42.309,92.48 42.754,92.327 45.251,91.798 47.279,90.966 48.8,89.405 
				50.075,87.652 50.625,85.542 50.96,83.96 50.96,81.962 50.462,80.116 49.307,77.94 47.728,76.111 45.53,75.063 42.701,74 			"/>
			<g style="clip-path:url(#SVGID_00000121246410625511743210000009506616534936056221_);">
				<defs>
					
						<rect id="SVGID_00000108284603827157822670000011166333176291719089_" x="15.026" y="51.596" transform="matrix(0.2915 -0.9566 0.9566 0.2915 -46.7355 69.0238)" width="16.4" height="28.929"/>
				</defs>
				<clipPath id="SVGID_00000132797926604257433450000008407374828817918124_">
					<use xlink:href="#SVGID_00000108284603827157822670000011166333176291719089_"  style="overflow:visible;"/>
				</clipPath>
				<path style="clip-path:url(#SVGID_00000132797926604257433450000008407374828817918124_);fill:#E33A3A;" d="M12.692,66.824
					c-0.634-2.796,1.001-10.148,1.001-10.148c2.205-0.374,2.199,0.096,5.075,0.5c0.118,0.017,1.801,0.575,1.913,0.583
					c0.635,0.042,5.246,1.614,7.87,4.244c0.385,0.385,0.854,0.685,1.34,1.067c0.774-0.895,1.507-1.741,2.253-2.604
					c1.251,1.609,3.312,10.899,3.217,14.538c-4.358,0.076-8.687-0.19-13.256-0.878c0.796-1.192,1.422-2.128,2.179-3.26
					c-1.894-1.329-3.479-2.399-5.561-3.25C16.904,66.874,14.897,66.45,12.692,66.824"/>
			</g>
			<g style="clip-path:url(#SVGID_00000121246410625511743210000009506616534936056221_);">
				<defs>
					<rect id="SVGID_00000169532494218722652730000008959349024760731804_" x="61.264" y="58" width="30.094" height="18.775"/>
				</defs>
				<clipPath id="SVGID_00000050660139601077872060000007595935402068458122_">
					<use xlink:href="#SVGID_00000169532494218722652730000008959349024760731804_"  style="overflow:visible;"/>
				</clipPath>
				<path style="clip-path:url(#SVGID_00000050660139601077872060000007595935402068458122_);fill:#523742;" d="M87.693,64.496
					c1.33-0.04,2.04-2.21,3.67-1.07c-0.27,4.39-0.53,8.73-0.81,13.35c-4.26-0.64-8.21-2.15-12.23-3.33
					c-0.22-0.34-0.4-0.63-0.63-0.97c1.08-0.93,2.19-1.87,3.32-2.84c-0.9-2.8-3.33-3.45-5.51-3.8c-3.55-0.57-4.85,2.27-5.92,4.63
					c-0.1,0.96-0.16,1.62-0.25,2.5c-2.83-0.65-5.4-1.24-8.01-1.85c-0.02-0.25-0.1-0.47-0.03-0.62c0.78-1.91,1.3-4.01,2.45-5.66
					c2.89-4.13,6.85-6.66,12.07-6.83c3.34-0.1,6.39,0.64,8.85,3.01C85.743,62.056,86.643,63.276,87.693,64.496"/>
			</g>
			<g style="clip-path:url(#SVGID_00000121246410625511743210000009506616534936056221_);">
				<defs>
					<rect id="SVGID_00000047031064262354848540000007910861503634941103_" x="60.003" y="74.657" width="29.36" height="18.212"/>
				</defs>
				<clipPath id="SVGID_00000176721535048130080950000017704639936011673018_">
					<use xlink:href="#SVGID_00000047031064262354848540000007910861503634941103_"  style="overflow:visible;"/>
				</clipPath>
				<path style="clip-path:url(#SVGID_00000176721535048130080950000017704639936011673018_);fill:#9F9EB1;" d="M89.363,80.446
					c-0.1,0.3-0.17,0.6-0.29,0.87c-1.52,3.45-3.13,6.93-6.51,8.9c-1.9,1.11-4.16,1.59-6.26,2.36c-2.15,0.78-4.14-0.2-6.16-0.61
					c-1.67-0.33-2.86-1.56-4-2.76c-0.82-0.86-1.62-1.74-2.62-2.83c-1.02,0.3-2.14,0.63-3.52,1.04c0.24-4.15,0.49-8.3,0.76-12.76
					c4,1.19,7.88,2.35,12.16,3.63c-1.18,1.02-2.12,1.83-3.03,2.63v1.59c1.49,2.59,3.87,3.08,6.63,3.14
					c3.42,0.08,4.13-2.66,5.59-4.93v-1.92C84.563,79.356,86.923,79.886,89.363,80.446"/>
			</g>
		</g>
	</g>
</g>
<g id="Layer_2">
	<g id="Layer_3">
	</g>
</g>
</svg>
