<?xml version="1.0" encoding="iso-8859-1"?>
<!-- Generator: Adobe Illustrator 26.0.1, SVG Export Plug-In . SVG Version: 6.00 Build 0)  -->
<svg version="1.1" xmlns="http://www.w3.org/2000/svg" xmlns:xlink="http://www.w3.org/1999/xlink" x="0px" y="0px"
	 viewBox="0 0 100 100" style="enable-background:new 0 0 100 100;" xml:space="preserve">
<g id="Layer_1">
	<g id="G_x28__T1_T1_T1_L3__x29__L1_L1_00000042729506603533209370000001248420820078343566_">
		<g>
			<defs>
				<rect id="SVGID_1_" x="-2" y="4" width="102.767" height="96.721"/>
			</defs>
			<clipPath id="SVGID_00000152985165792318818460000002325641223696470171_">
				<use xlink:href="#SVGID_1_"  style="overflow:visible;"/>
			</clipPath>
			<g style="clip-path:url(#SVGID_00000152985165792318818460000002325641223696470171_);">
				<defs>
					<rect id="SVGID_00000151515893377882451050000003893545031394048923_" x="-2" y="4" width="102.767" height="96.721"/>
				</defs>
				<clipPath id="SVGID_00000013877685928314582660000015254395798552149639_">
					<use xlink:href="#SVGID_00000151515893377882451050000003893545031394048923_"  style="overflow:visible;"/>
				</clipPath>
				<g style="clip-path:url(#SVGID_00000013877685928314582660000015254395798552149639_);">
					<defs>
						<rect id="SVGID_00000065041218546592563080000011145941667620530824_" x="-2" y="4" width="102.767" height="96.721"/>
					</defs>
					<clipPath id="SVGID_00000181807258640760771560000000791338223094160302_">
						<use xlink:href="#SVGID_00000065041218546592563080000011145941667620530824_"  style="overflow:visible;"/>
					</clipPath>
					<g style="opacity:0.99;clip-path:url(#SVGID_00000181807258640760771560000000791338223094160302_);">
						<g>
							<defs>
								
									<rect id="SVGID_00000158022259548015411120000004626576015414090635_" x="18.408" y="15.642" width="47.766" height="52.098"/>
							</defs>
							<clipPath id="SVGID_00000085225915673582109350000003869659182958942132_">
								<use xlink:href="#SVGID_00000158022259548015411120000004626576015414090635_"  style="overflow:visible;"/>
							</clipPath>
							<g style="clip-path:url(#SVGID_00000085225915673582109350000003869659182958942132_);">
								<defs>
									<polygon id="SVGID_00000070117655548374906520000009433914397190289033_" points="42.481,16.928 23.096,18.093 
										23.096,39.569 57.656,39.569 57.656,16.928 									"/>
								</defs>
								<clipPath id="SVGID_00000142869967881927436880000011303874472373417862_">
									<use xlink:href="#SVGID_00000070117655548374906520000009433914397190289033_"  style="overflow:visible;"/>
								</clipPath>
								<path style="clip-path:url(#SVGID_00000142869967881927436880000011303874472373417862_);fill:#5699DE;" d="M57.656,27.128
									c-2.13,2-4.229,4.11-6.53,6.1c-1.78,1.55-3.679,3.03-5.83,4.36c-0.329-1.76-0.57-3.06-0.849-4.56
									c-2.46,0.35-5.101,0.24-7.291,1.19c-2.12,0.94-4.29,2.42-5.3,5.35c-3.03-1.93-5.83-3.73-8.76-5.6
									c1.57-3.19,3.01-6.32,5.88-8.47c0.56-0.41,0.991-0.98,1.44-1.51c1.31-1.5,3.13-1.93,4.88-2.32c1.81-0.4,3.72-0.34,5.6-0.49
									c0.531-0.05,1.08-0.07,1.63-0.1c0.01-1.52,0.02-2.84,0.01-4.15C45.276,16.998,56.707,24.688,57.656,27.128"/>
							</g>
							<g style="clip-path:url(#SVGID_00000085225915673582109350000003869659182958942132_);">
								<defs>
									<polygon id="SVGID_00000087381649907618351770000004224173123844066723_" points="20.074,39.618 20.074,53.122 
										20.719,66.598 39.75,66.598 45.236,66.269 45.236,39.618 									"/>
								</defs>
								<clipPath id="SVGID_00000107563752187964434290000009521590388453551242_">
									<use xlink:href="#SVGID_00000087381649907618351770000004224173123844066723_"  style="overflow:visible;"/>
								</clipPath>
								<path style="clip-path:url(#SVGID_00000107563752187964434290000009521590388453551242_);fill:#E1D153;" d="M45.237,55.379
									c-0.03,0.939-0.07,1.6-0.09,2.25c-0.07,2.619-0.13,5.239-0.2,7.85c-0.01,0.28-0.13,0.559-0.2,0.82l-5.01,0.3
									c-0.37-0.09-0.75-0.18-1.13-0.271c-2.28-0.599-4.63-1.029-6.83-1.84c-1.16-0.429-2.27-1.339-3.09-2.309
									c-1.65-1.96-3.08-4.101-4.67-6.271c-1.04,0.7-2.18,1.46-3.34,2.25c-1.2-3.08-0.47-16.929,0.99-18.539
									c3.08,0.989,6.23,1.82,9.41,2.9c1.89,0.65,3.81,1.39,5.71,2.29c-1.3,1.199-2.37,2.19-3.47,3.199
									c1.61,2.06,3.18,4.06,4.82,6.141C40.477,54.269,42.287,56.939,45.237,55.379"/>
							</g>
							<g style="clip-path:url(#SVGID_00000085225915673582109350000003869659182958942132_);">
								<defs>
									<polygon id="SVGID_00000070816010764582124050000001384246969395688851_" points="46.887,31.678 46.887,65.718 
										54.398,65.718 65.747,65.036 65.747,56.166 64.576,31.678 									"/>
								</defs>
								<clipPath id="SVGID_00000159467635745028300700000014494155325515132039_">
									<use xlink:href="#SVGID_00000070816010764582124050000001384246969395688851_"  style="overflow:visible;"/>
								</clipPath>
								<path style="clip-path:url(#SVGID_00000159467635745028300700000014494155325515132039_);fill:#AD70D6;" d="M63.946,40.469
									c2.32,4.39,0.57,8.38-1.29,12.37c-0.26,0.58-0.409,1.22-0.64,1.92c1.29,0.489,2.5,0.95,3.731,1.42
									c-1.261,2.05-10.611,8.149-14.631,9.54c-1.33-3.57-2.45-7.2-3.35-11.02c-0.32-1.33-0.62-2.67-0.88-4.04
									c1.61,0.4,2.88,0.7,4.41,1.09c0.711-2.65,1.88-5.27,2.001-7.93c0.099-2.31,0.089-5.06-2.261-6.77
									c0.6-0.39,1.19-0.79,1.761-1.16c2.17-1.43,4.239-2.8,6.37-4.21c2.029,2.47,4.04,5.02,4.729,8.37
									C63.926,40.189,63.896,40.349,63.946,40.469"/>
							</g>
						</g>
					</g>
				</g>
				<g style="clip-path:url(#SVGID_00000013877685928314582660000015254395798552149639_);">
					<defs>
						<polygon id="SVGID_00000140730725278490757440000009934182257419070627_" points="79.93,23.968 65.866,37.28 65.866,42.82 
							70.284,47.662 82.713,47.662 96.967,34.17 96.967,26.409 94.74,23.968 						"/>
					</defs>
					<clipPath id="SVGID_00000081616987578864040360000003452895309359941790_">
						<use xlink:href="#SVGID_00000140730725278490757440000009934182257419070627_"  style="overflow:visible;"/>
					</clipPath>
					<path style="clip-path:url(#SVGID_00000081616987578864040360000003452895309359941790_);fill:#E33A3A;" d="M96.967,30.958
						c-0.931,2.48-1.391,2.2-3.49,4.91c-0.09,0.11-1.64,1.51-1.71,1.62c-0.42,0.62-4.7,4.42-8.88,5.57
						c-0.61,0.16-1.191,0.47-1.86,0.74c0.45,1.32,0.86,2.57,1.29,3.84c-2.35,0.34-12.86-3.02-16.451-5.25
						c2.491-4.51,5.301-8.79,8.681-13.07c0.72,1.52,1.29,2.71,1.98,4.15c2.45-1.16,4.45-2.15,6.53-3.79
						c1.809-1.43,3.41-3.23,4.34-5.71C90.567,24.958,96.967,30.958,96.967,30.958"/>
				</g>
				<g style="clip-path:url(#SVGID_00000013877685928314582660000015254395798552149639_);">
					<defs>
						<polygon id="SVGID_00000173879793715484349560000014384750169672996496_" points="2.236,5.738 2.236,23.611 13.35,24.318 
							31.476,24.318 31.476,6.043 26.678,5.738 						"/>
					</defs>
					<clipPath id="SVGID_00000168080553118712761270000013164333026924044436_">
						<use xlink:href="#SVGID_00000173879793715484349560000014384750169672996496_"  style="overflow:visible;"/>
					</clipPath>
					<path style="clip-path:url(#SVGID_00000168080553118712761270000013164333026924044436_);fill:#F26C2B;" d="M24.107,5.868
						c1.83,1.51,6.55,11.63,7.37,15.83c-4.91,1.28-9.88,2.16-15.23,2.62c0.59-1.59,1.06-2.84,1.63-4.35
						c-2.49-1.01-4.56-1.8-7.13-2.21c-2.25-0.36-4.64-0.3-7.04,0.74c-1.43-3.05-1.47-11.95-1.47-11.95c2.4-1.03,2.52-0.48,5.88-0.81
						c0.13-0.01,2.18,0.17,2.31,0.15c0.73-0.12,6.36,0.42,10,2.73c0.54,0.34,1.15,0.55,1.79,0.86
						C22.866,8.239,23.476,7.069,24.107,5.868"/>
				</g>
				<g style="clip-path:url(#SVGID_00000013877685928314582660000015254395798552149639_);">
					<defs>
						<polygon id="SVGID_00000081641663476481592870000000088575235713099653_" points="13.334,65.319 13.197,67.89 13.197,95.498 
							30.776,95.498 31.386,84.114 31.386,65.319 						"/>
					</defs>
					<clipPath id="SVGID_00000144333976032234583540000005403628605639090095_">
						<use xlink:href="#SVGID_00000081641663476481592870000000088575235713099653_"  style="overflow:visible;"/>
					</clipPath>
					<path style="clip-path:url(#SVGID_00000144333976032234583540000005403628605639090095_);fill:#55C95A;" d="M28.697,65.318
						c1.3,4.96,2.2,9.99,2.69,15.43c-1.57-0.57-2.8-1.01-4.28-1.539c-0.98,2.559-1.74,4.689-2.12,7.319
						c-0.34,2.3-0.26,4.72,0.78,7.141c-2.98,1.54-11.72,1.829-11.72,1.829c-1.04-2.409-0.5-2.539-0.85-5.95
						c-0.01-0.14,0.15-2.23,0.13-2.36c-0.13-0.74,0.36-6.479,2.6-10.26c0.33-0.549,0.54-1.17,0.83-1.839
						c-1.22-0.63-2.38-1.221-3.56-1.821C14.667,71.368,24.567,66.278,28.697,65.318"/>
				</g>
				<polygon style="clip-path:url(#SVGID_00000013877685928314582660000015254395798552149639_);fill:#9F9EB1;" points="
					81.73,73.978 79.842,74.566 77.823,75.22 75.762,76.594 74.314,78.588 73.136,80.78 72.848,83.261 72.848,83.273 73.474,86.582 
					74.588,88.677 76.097,90.493 78.25,91.452 79.959,92.011 81.727,92.27 82.167,92.459 83.071,92.459 83.519,92.305 
					86.016,91.776 88.045,90.944 89.565,89.385 90.842,87.631 91.39,85.52 91.726,83.934 91.726,81.943 91.227,80.094 
					90.073,77.919 88.494,76.089 86.296,75.041 83.464,73.978 				"/>
				<polygon style="clip-path:url(#SVGID_00000013877685928314582660000015254395798552149639_);fill:#523742;" points="57.96,74 
					56.076,74.587 54.056,75.241 51.996,76.616 50.548,78.61 49.37,80.802 49.081,83.29 49.708,86.604 50.821,88.698 52.331,90.515 
					54.483,91.473 56.192,92.033 57.961,92.291 58.398,92.48 59.307,92.48 59.753,92.326 62.25,91.797 64.278,90.966 65.799,89.406 
					67.075,87.653 67.624,85.541 67.959,83.96 67.959,81.963 67.461,80.115 66.306,77.941 64.727,76.112 62.529,75.063 59.699,74 
									"/>
			</g>
		</g>
	</g>
</g>
<g id="Layer_2">
	<g id="Layer_3">
	</g>
</g>
</svg>
