<?xml version="1.0" encoding="iso-8859-1"?>
<!-- Generator: Adobe Illustrator 26.0.1, SVG Export Plug-In . SVG Version: 6.00 Build 0)  -->
<svg version="1.1" xmlns="http://www.w3.org/2000/svg" xmlns:xlink="http://www.w3.org/1999/xlink" x="0px" y="0px"
	 viewBox="0 0 100 100" style="enable-background:new 0 0 100 100;" xml:space="preserve">
<g id="Layer_1">
	<g id="G_x28__T1_T1_T1_L3__x29__T1_L1_00000181080719951756247670000008826969654627879594_">
		<g>
			<defs>
				<rect id="SVGID_1_" y="4" width="102.767" height="96.721"/>
			</defs>
			<clipPath id="SVGID_00000176755085142994475690000015223429174842424705_">
				<use xlink:href="#SVGID_1_"  style="overflow:visible;"/>
			</clipPath>
			<g style="clip-path:url(#SVGID_00000176755085142994475690000015223429174842424705_);">
				<defs>
					<rect id="SVGID_00000065036777098183609000000007766719386883381149_" y="4" width="102.767" height="96.721"/>
				</defs>
				<clipPath id="SVGID_00000178206844688954446050000011884695048342162602_">
					<use xlink:href="#SVGID_00000065036777098183609000000007766719386883381149_"  style="overflow:visible;"/>
				</clipPath>
				<g style="clip-path:url(#SVGID_00000178206844688954446050000011884695048342162602_);">
					<defs>
						<rect id="SVGID_00000027589703476112201080000011319122495417827969_" y="4" width="102.767" height="96.721"/>
					</defs>
					<clipPath id="SVGID_00000044142405824746854660000009999714380590973355_">
						<use xlink:href="#SVGID_00000027589703476112201080000011319122495417827969_"  style="overflow:visible;"/>
					</clipPath>
					<g style="opacity:0.99;clip-path:url(#SVGID_00000044142405824746854660000009999714380590973355_);">
						<g>
							<defs>
								
									<rect id="SVGID_00000141430087719491997590000005730103615511274882_" x="20.408" y="15.642" width="47.766" height="52.098"/>
							</defs>
							<clipPath id="SVGID_00000005951098247855840050000017257350873517605273_">
								<use xlink:href="#SVGID_00000141430087719491997590000005730103615511274882_"  style="overflow:visible;"/>
							</clipPath>
							<g style="clip-path:url(#SVGID_00000005951098247855840050000017257350873517605273_);">
								<defs>
									<polygon id="SVGID_00000097496660556107706040000015772294671657634439_" points="20.412,18.375 22.774,67.739 
										68.17,65.011 65.809,15.647 									"/>
								</defs>
								<clipPath id="SVGID_00000102511776899405988270000012674540307722891941_">
									<use xlink:href="#SVGID_00000097496660556107706040000015772294671657634439_"  style="overflow:visible;"/>
								</clipPath>
								<g style="clip-path:url(#SVGID_00000102511776899405988270000012674540307722891941_);">
									<defs>
										
											<rect id="SVGID_00000134963694722234970260000006593612574830772390_" x="25.097" y="16.928" width="34.56" height="22.64"/>
									</defs>
									<clipPath id="SVGID_00000019642291317504459860000000007542591725741486_">
										<use xlink:href="#SVGID_00000134963694722234970260000006593612574830772390_"  style="overflow:visible;"/>
									</clipPath>
									<g style="clip-path:url(#SVGID_00000019642291317504459860000000007542591725741486_);">
										<defs>
											
												<rect id="SVGID_00000166642168837815226200000007486123464479964823_" x="25.097" y="16.928" width="34.56" height="22.64"/>
										</defs>
										<clipPath id="SVGID_00000083072587273592674520000006206950729621832080_">
											<use xlink:href="#SVGID_00000166642168837815226200000007486123464479964823_"  style="overflow:visible;"/>
										</clipPath>
										<path style="clip-path:url(#SVGID_00000083072587273592674520000006206950729621832080_);fill:#55C95A;" d="
											M59.656,27.128c-2.13,2-4.229,4.11-6.53,6.1c-1.78,1.55-3.679,3.03-5.83,4.36c-0.329-1.76-0.57-3.06-0.849-4.56
											c-2.46,0.35-5.101,0.24-7.291,1.19c-2.12,0.94-4.29,2.42-5.3,5.35c-3.03-1.93-5.83-3.73-8.76-5.6
											c1.57-3.19,3.01-6.32,5.88-8.47c0.56-0.41,0.991-0.98,1.44-1.51c1.31-1.5,3.13-1.93,4.88-2.32
											c1.81-0.4,3.72-0.34,5.6-0.49c0.531-0.05,1.08-0.07,1.63-0.1c0.01-1.52,0.02-2.84,0.01-4.15
											C47.276,16.998,58.707,24.688,59.656,27.128"/>
									</g>
								</g>
								<g style="clip-path:url(#SVGID_00000102511776899405988270000012674540307722891941_);">
									<defs>
										
											<rect id="SVGID_00000023268691374491591170000006257124767056649120_" x="22.074" y="39.618" width="25.162" height="26.98"/>
									</defs>
									<clipPath id="SVGID_00000149353744344276696300000013239504798623852977_">
										<use xlink:href="#SVGID_00000023268691374491591170000006257124767056649120_"  style="overflow:visible;"/>
									</clipPath>
									<g style="clip-path:url(#SVGID_00000149353744344276696300000013239504798623852977_);">
										<defs>
											
												<rect id="SVGID_00000163054256982518017940000001209541189974096317_" x="22.074" y="39.618" width="25.162" height="26.98"/>
										</defs>
										<clipPath id="SVGID_00000021113600415509253360000005857573929828466324_">
											<use xlink:href="#SVGID_00000163054256982518017940000001209541189974096317_"  style="overflow:visible;"/>
										</clipPath>
										<path style="clip-path:url(#SVGID_00000021113600415509253360000005857573929828466324_);fill:#E33A3A;" d="
											M47.237,55.379c-0.03,0.939-0.07,1.6-0.09,2.25c-0.07,2.619-0.13,5.239-0.2,7.85c-0.01,0.28-0.13,0.559-0.2,0.82
											l-5.01,0.3c-0.37-0.09-0.75-0.18-1.13-0.271c-2.28-0.599-4.63-1.029-6.83-1.84c-1.16-0.429-2.27-1.339-3.09-2.309
											c-1.65-1.96-3.08-4.101-4.67-6.271c-1.04,0.7-2.18,1.46-3.34,2.25c-1.2-3.08-0.47-16.929,0.99-18.539
											c3.08,0.989,6.23,1.82,9.41,2.9c1.89,0.65,3.81,1.39,5.71,2.29c-1.3,1.199-2.37,2.19-3.47,3.199
											c1.61,2.06,3.18,4.06,4.82,6.141C42.477,54.269,44.287,56.939,47.237,55.379"/>
									</g>
								</g>
								<g style="clip-path:url(#SVGID_00000102511776899405988270000012674540307722891941_);">
									<defs>
										
											<rect id="SVGID_00000098190450545932956180000010063133956319831187_" x="48.887" y="31.678" width="18.86" height="34.04"/>
									</defs>
									<clipPath id="SVGID_00000113344119807882204310000016736240844022821798_">
										<use xlink:href="#SVGID_00000098190450545932956180000010063133956319831187_"  style="overflow:visible;"/>
									</clipPath>
									<g style="clip-path:url(#SVGID_00000113344119807882204310000016736240844022821798_);">
										<defs>
											
												<rect id="SVGID_00000109750671532451956920000003752976129360477859_" x="48.887" y="31.678" width="18.86" height="34.04"/>
										</defs>
										<clipPath id="SVGID_00000162312857719835504680000004148838693170795651_">
											<use xlink:href="#SVGID_00000109750671532451956920000003752976129360477859_"  style="overflow:visible;"/>
										</clipPath>
										<path style="clip-path:url(#SVGID_00000162312857719835504680000004148838693170795651_);fill:#F26C2B;" d="
											M65.946,40.469c2.32,4.39,0.57,8.38-1.29,12.37c-0.26,0.58-0.409,1.22-0.64,1.92c1.29,0.489,2.5,0.95,3.731,1.42
											c-1.261,2.05-10.611,8.149-14.631,9.54c-1.33-3.57-2.45-7.2-3.35-11.02c-0.32-1.33-0.62-2.67-0.88-4.04
											c1.61,0.4,2.88,0.7,4.41,1.09c0.711-2.65,1.88-5.27,2.001-7.93c0.099-2.31,0.089-5.06-2.261-6.77
											c0.6-0.39,1.19-0.79,1.761-1.16c2.17-1.43,4.239-2.8,6.37-4.21c2.029,2.47,4.04,5.02,4.729,8.37
											C65.926,40.189,65.896,40.349,65.946,40.469"/>
									</g>
								</g>
							</g>
						</g>
					</g>
				</g>
				<g style="clip-path:url(#SVGID_00000178206844688954446050000011884695048342162602_);">
					<defs>
						<polygon id="SVGID_00000125562808739493490930000010273471179258320053_" points="65.154,39.848 78.044,53.974 
							102.767,30.573 89.876,16.447 						"/>
					</defs>
					<clipPath id="SVGID_00000168086297764331790130000004716311492948812948_">
						<use xlink:href="#SVGID_00000125562808739493490930000010273471179258320053_"  style="overflow:visible;"/>
					</clipPath>
					<g style="clip-path:url(#SVGID_00000168086297764331790130000004716311492948812948_);">
						<defs>
							<rect id="SVGID_00000051356200526159723300000011375909048955138214_" x="67.867" y="23.968" width="31.1" height="23.694"/>
						</defs>
						<clipPath id="SVGID_00000136388677421226203650000005884185747109178556_">
							<use xlink:href="#SVGID_00000051356200526159723300000011375909048955138214_"  style="overflow:visible;"/>
						</clipPath>
						<g style="clip-path:url(#SVGID_00000136388677421226203650000005884185747109178556_);">
							<defs>
								
									<rect id="SVGID_00000012456358116386423610000017874846491036967613_" x="67.867" y="23.968" width="31.1" height="23.694"/>
							</defs>
							<clipPath id="SVGID_00000145022148544690466730000003288409619687209620_">
								<use xlink:href="#SVGID_00000012456358116386423610000017874846491036967613_"  style="overflow:visible;"/>
							</clipPath>
							<path style="clip-path:url(#SVGID_00000145022148544690466730000003288409619687209620_);fill:#AD70D6;" d="M98.967,30.958
								c-0.931,2.48-1.391,2.2-3.49,4.91c-0.09,0.11-1.64,1.51-1.71,1.62c-0.42,0.62-4.7,4.42-8.88,5.57
								c-0.61,0.16-1.191,0.47-1.86,0.74c0.45,1.32,0.86,2.57,1.29,3.84c-2.35,0.34-12.86-3.02-16.451-5.25
								c2.491-4.51,5.301-8.79,8.681-13.07c0.72,1.52,1.29,2.71,1.98,4.15c2.45-1.16,4.45-2.15,6.53-3.79
								c1.809-1.43,3.41-3.23,4.34-5.71C92.567,24.958,98.967,30.958,98.967,30.958"/>
						</g>
					</g>
				</g>
				<g style="clip-path:url(#SVGID_00000178206844688954446050000011884695048342162602_);">
					<defs>
						<polygon id="SVGID_00000003806217643559119870000002816633885493088174_" points="0,23.341 33.5,25.474 34.886,6.133 
							1.385,4.001 						"/>
					</defs>
					<clipPath id="SVGID_00000050635802319352467770000004541083510825628850_">
						<use xlink:href="#SVGID_00000003806217643559119870000002816633885493088174_"  style="overflow:visible;"/>
					</clipPath>
					<g style="clip-path:url(#SVGID_00000050635802319352467770000004541083510825628850_);">
						<defs>
							<rect id="SVGID_00000098918350768857056990000016895047272801942158_" x="4.237" y="5.738" width="29.24" height="18.58"/>
						</defs>
						<clipPath id="SVGID_00000120529945060325132300000010578049450063047825_">
							<use xlink:href="#SVGID_00000098918350768857056990000016895047272801942158_"  style="overflow:visible;"/>
						</clipPath>
						<g style="clip-path:url(#SVGID_00000120529945060325132300000010578049450063047825_);">
							<defs>
								<rect id="SVGID_00000062872722804220143420000000077689540993369774_" x="4.237" y="5.738" width="29.24" height="18.58"/>
							</defs>
							<clipPath id="SVGID_00000173843177616430053180000015134423880411680186_">
								<use xlink:href="#SVGID_00000062872722804220143420000000077689540993369774_"  style="overflow:visible;"/>
							</clipPath>
							<path style="clip-path:url(#SVGID_00000173843177616430053180000015134423880411680186_);fill:#5699DE;" d="M26.107,5.868
								c1.83,1.51,6.55,11.63,7.37,15.83c-4.91,1.28-9.88,2.16-15.23,2.62c0.59-1.59,1.06-2.84,1.63-4.35
								c-2.49-1.01-4.56-1.8-7.13-2.21c-2.25-0.36-4.64-0.3-7.04,0.74c-1.43-3.05-1.47-11.95-1.47-11.95
								c2.4-1.03,2.52-0.48,5.88-0.81c0.13-0.01,2.18,0.17,2.31,0.15c0.73-0.12,6.36,0.42,10,2.73c0.54,0.34,1.15,0.55,1.79,0.86
								C24.866,8.239,25.476,7.069,26.107,5.868"/>
						</g>
					</g>
				</g>
				<g style="clip-path:url(#SVGID_00000178206844688954446050000011884695048342162602_);">
					<defs>
						<polygon id="SVGID_00000134959799415021306490000011396296717725938320_" points="13.557,98.479 32.57,99.335 34.402,65.185 
							15.387,64.33 						"/>
					</defs>
					<clipPath id="SVGID_00000047061424508233386050000011240371709115578248_">
						<use xlink:href="#SVGID_00000134959799415021306490000011396296717725938320_"  style="overflow:visible;"/>
					</clipPath>
					<g style="clip-path:url(#SVGID_00000047061424508233386050000011240371709115578248_);">
						<defs>
							<rect id="SVGID_00000093159582713883890160000001762334369211252614_" x="15.196" y="65.318" width="18.19" height="30.18"/>
						</defs>
						<clipPath id="SVGID_00000165918087762521997130000018256164112750604220_">
							<use xlink:href="#SVGID_00000093159582713883890160000001762334369211252614_"  style="overflow:visible;"/>
						</clipPath>
						<g style="clip-path:url(#SVGID_00000165918087762521997130000018256164112750604220_);">
							<defs>
								
									<rect id="SVGID_00000181073812515605521800000004419230282618391482_" x="15.196" y="65.318" width="18.19" height="30.18"/>
							</defs>
							<clipPath id="SVGID_00000183971243540892353040000013602290018445759368_">
								<use xlink:href="#SVGID_00000181073812515605521800000004419230282618391482_"  style="overflow:visible;"/>
							</clipPath>
							<path style="clip-path:url(#SVGID_00000183971243540892353040000013602290018445759368_);fill:#E1D153;" d="M30.697,65.318
								c1.3,4.96,2.2,9.99,2.69,15.43c-1.57-0.57-2.8-1.01-4.28-1.539c-0.98,2.559-1.74,4.689-2.12,7.319
								c-0.34,2.3-0.26,4.72,0.78,7.141c-2.98,1.54-11.72,1.829-11.72,1.829c-1.04-2.409-0.5-2.539-0.85-5.95
								c-0.01-0.14,0.15-2.23,0.13-2.36c-0.13-0.74,0.36-6.479,2.6-10.26c0.33-0.549,0.54-1.17,0.83-1.839
								c-1.22-0.63-2.38-1.221-3.56-1.821C16.667,71.368,26.567,66.278,30.697,65.318"/>
						</g>
					</g>
				</g>
				<polygon style="clip-path:url(#SVGID_00000178206844688954446050000011884695048342162602_);fill:#9F9EB1;" points="
					83.73,77.978 81.842,78.566 79.823,79.22 77.762,80.594 76.314,82.588 75.136,84.78 74.848,87.261 74.848,87.273 75.474,90.582 
					76.588,92.677 78.097,94.493 80.25,95.452 81.959,96.011 83.727,96.27 84.167,96.459 85.071,96.459 85.519,96.305 
					88.016,95.776 90.045,94.944 91.565,93.385 92.842,91.631 93.39,89.52 93.726,87.934 93.726,85.943 93.227,84.094 
					92.073,81.919 90.494,80.089 88.296,79.041 85.464,77.978 				"/>
				<g style="clip-path:url(#SVGID_00000178206844688954446050000011884695048342162602_);">
					<defs>
						
							<rect id="SVGID_00000062907972066774183730000007257402725284879792_" x="44.549" y="73.96" transform="matrix(0.7465 -0.6653 0.6653 0.7465 -40.3497 60.7783)" width="30.098" height="18.779"/>
					</defs>
					<clipPath id="SVGID_00000101065440926686835790000012542628430471165887_">
						<use xlink:href="#SVGID_00000062907972066774183730000007257402725284879792_"  style="overflow:visible;"/>
					</clipPath>
					<path style="clip-path:url(#SVGID_00000101065440926686835790000012542628430471165887_);fill:#523742;" d="M66.171,73.62
						c0.966-0.915,0.053-3.007,2.027-3.24c2.72,3.457,5.413,6.87,8.278,10.506c-3.606,2.355-7.56,3.856-11.346,5.65
						c-0.391-0.107-0.718-0.204-1.115-0.306c0.187-1.412,0.39-2.852,0.589-4.329c-2.536-1.491-4.782-0.359-6.642,0.829
						c-3.03,1.937-2.111,4.922-1.34,7.396c0.565,0.783,0.959,1.315,1.477,2.033c-2.545,1.398-4.857,2.666-7.211,3.947
						c-0.181-0.173-0.387-0.284-0.435-0.442c-0.688-1.945-1.697-3.859-1.936-5.856c-0.591-5.006,0.683-9.53,4.466-13.129
						c2.427-2.297,5.197-3.774,8.611-3.641C63.092,73.096,64.575,73.408,66.171,73.62"/>
				</g>
			</g>
		</g>
	</g>
</g>
<g id="Layer_2">
	<g id="Layer_3">
	</g>
</g>
</svg>
