<?xml version="1.0" encoding="iso-8859-1"?>
<!-- Generator: Adobe Illustrator 26.0.1, SVG Export Plug-In . SVG Version: 6.00 Build 0)  -->
<svg version="1.1" xmlns="http://www.w3.org/2000/svg" xmlns:xlink="http://www.w3.org/1999/xlink" x="0px" y="0px"
	 viewBox="0 0 100 100" style="enable-background:new 0 0 100 100;" xml:space="preserve">
<g id="Layer_1">
	<g id="G_x28__T1_T1_T1_T1_T1_T1_L1__x29__L1_00000003806120044214248780000015547507712493672378_">
		<g>
			<defs>
				<rect id="SVGID_1_" x="2" y="6" width="91.96" height="88.48"/>
			</defs>
			<clipPath id="SVGID_00000079448146457907293620000000179840345291656843_">
				<use xlink:href="#SVGID_1_"  style="overflow:visible;"/>
			</clipPath>
			<polygon style="clip-path:url(#SVGID_00000079448146457907293620000000179840345291656843_);fill:#523742;" points="42.96,35 
				41.076,35.587 39.056,36.241 36.996,37.616 35.548,39.61 34.37,41.802 34.081,44.29 34.708,47.604 35.821,49.698 37.331,51.515 
				39.483,52.473 41.192,53.033 42.961,53.291 43.398,53.48 44.307,53.48 44.753,53.326 47.25,52.798 49.277,51.966 50.798,50.406 
				52.075,48.653 52.624,46.541 52.959,44.96 52.959,42.963 52.461,41.115 51.306,38.941 49.727,37.112 47.529,36.063 44.699,35 			
				"/>
			<g style="clip-path:url(#SVGID_00000079448146457907293620000000179840345291656843_);">
				<defs>
					
						<rect id="SVGID_00000111903242448094645820000007701632367698768556_" x="20.38" y="10.12" transform="matrix(0.4264 -0.9045 0.9045 0.4264 -5.8449 39.9527)" width="16.4" height="28.929"/>
				</defs>
				<clipPath id="SVGID_00000065054471172042953970000016593724651399944115_">
					<use xlink:href="#SVGID_00000111903242448094645820000007701632367698768556_"  style="overflow:visible;"/>
				</clipPath>
				<path style="clip-path:url(#SVGID_00000065054471172042953970000016593724651399944115_);fill:#F26C2B;" d="M18.045,23.822
					c-0.224-2.858,2.455-9.898,2.455-9.898c2.235-0.052,2.161,0.413,4.949,1.227c0.115,0.034,1.7,0.829,1.809,0.853
					c0.623,0.133,4.959,2.354,7.176,5.335c0.325,0.437,0.746,0.801,1.172,1.249c0.895-0.774,1.742-1.506,2.605-2.252
					c1.006,1.773,1.705,11.263,1.086,14.85c-4.324-0.553-8.569-1.44-12.991-2.781c0.96-1.064,1.715-1.9,2.627-2.912
					c-1.682-1.588-3.096-2.876-5.034-4.017C22.206,24.479,20.28,23.77,18.045,23.822"/>
			</g>
			<g style="clip-path:url(#SVGID_00000079448146457907293620000000179840345291656843_);">
				<defs>
					
						<rect id="SVGID_00000164477038533698278850000013258107430582364551_" x="42.822" y="13.755" transform="matrix(0.2283 -0.9736 0.9736 0.2283 22.8304 72.7152)" width="28.929" height="16.4"/>
				</defs>
				<clipPath id="SVGID_00000166665032715958359250000000318189909653425536_">
					<use xlink:href="#SVGID_00000164477038533698278850000013258107430582364551_"  style="overflow:visible;"/>
				</clipPath>
				<path style="clip-path:url(#SVGID_00000166665032715958359250000000318189909653425536_);fill:#E1D153;" d="M55.836,11.493
					c2.749-0.815,10.192,0.337,10.192,0.337c0.517,2.175,0.047,2.2-0.168,5.096c-0.008,0.119-0.456,1.835-0.457,1.947
					c0,0.637-1.268,5.341-3.721,8.131c-0.359,0.409-0.627,0.897-0.977,1.406c0.944,0.715,1.836,1.39,2.746,2.078
					c-1.524,1.354-10.66,4.017-14.297,4.16c-0.361-4.344-0.378-8.681,0.011-13.286c1.241,0.718,2.216,1.281,3.395,1.963
					c1.202-1.977,2.167-3.628,2.879-5.762C56.061,15.7,56.353,13.669,55.836,11.493"/>
			</g>
			<g style="clip-path:url(#SVGID_00000079448146457907293620000000179840345291656843_);">
				<defs>
					
						<rect id="SVGID_00000051364725901734663480000008560055420319105703_" x="55.144" y="34.457" transform="matrix(0.8455 -0.534 0.534 0.8455 -12.0235 43.7637)" width="28.929" height="16.4"/>
				</defs>
				<clipPath id="SVGID_00000183251150354819647090000016355472302128670097_">
					<use xlink:href="#SVGID_00000051364725901734663480000008560055420319105703_"  style="overflow:visible;"/>
				</clipPath>
				<path style="clip-path:url(#SVGID_00000183251150354819647090000016355472302128670097_);fill:#55C95A;" d="M75.91,34.18
					c2.531,1.346,7.031,7.387,7.031,7.387c-1.157,1.913-1.509,1.601-3.693,3.515c-0.09,0.079-1.612,0.989-1.691,1.068
					c-0.447,0.454-4.649,2.919-8.355,3.188c-0.542,0.04-1.075,0.2-1.682,0.318c0.172,1.171,0.334,2.278,0.501,3.407
					c-2.036-0.104-10.417-4.611-13.111-7.059c2.789-3.35,5.817-6.454,9.323-9.465c0.382,1.382,0.682,2.467,1.046,3.78
					c2.243-0.566,4.088-1.067,6.092-2.089C73.121,37.337,74.753,36.094,75.91,34.18"/>
			</g>
			<g style="clip-path:url(#SVGID_00000079448146457907293620000000179840345291656843_);">
				<defs>
					
						<rect id="SVGID_00000026885731605690989370000002093072125276716471_" x="50.304" y="50.658" transform="matrix(0.5019 -0.8649 0.8649 0.5019 -27.1859 83.0372)" width="16.4" height="28.929"/>
				</defs>
				<clipPath id="SVGID_00000047771470491486038100000005634812202370716340_">
					<use xlink:href="#SVGID_00000026885731605690989370000002093072125276716471_"  style="overflow:visible;"/>
				</clipPath>
				<path style="clip-path:url(#SVGID_00000047771470491486038100000005634812202370716340_);fill:#5699DE;" d="M68.935,66.781
					c-0.021,2.867-3.289,9.653-3.289,9.653c-2.232-0.139-2.119-0.596-4.827-1.645c-0.111-0.042-1.623-0.97-1.73-1.004
					c-0.609-0.185-4.74-2.768-6.695-5.927c-0.287-0.462-0.675-0.861-1.061-1.344c-0.958,0.695-1.864,1.352-2.787,2.022
					c-0.852-1.852-0.74-11.367,0.182-14.888c4.262,0.919,8.415,2.165,12.707,3.878c-1.047,0.978-1.87,1.747-2.865,2.677
					c1.541,1.725,2.84,3.129,4.674,4.431C64.845,65.772,66.703,66.642,68.935,66.781"/>
			</g>
			<g style="clip-path:url(#SVGID_00000079448146457907293620000000179840345291656843_);">
				<defs>
					
						<rect id="SVGID_00000170266694379021982050000012575985919802601606_" x="4.006" y="39.102" transform="matrix(0.7942 -0.6076 0.6076 0.7942 -24.9402 20.9554)" width="28.929" height="16.4"/>
				</defs>
				<clipPath id="SVGID_00000011716133984790675740000012043043647746642099_">
					<use xlink:href="#SVGID_00000170266694379021982050000012575985919802601606_"  style="overflow:visible;"/>
				</clipPath>
				<path style="clip-path:url(#SVGID_00000011716133984790675740000012043043647746642099_);fill:#E33A3A;" d="M12.954,56.309
					c-2.642-1.114-7.665-6.727-7.665-6.727c0.981-2.009,1.36-1.73,3.364-3.832c0.082-0.087,1.517-1.129,1.588-1.216
					c0.404-0.491,4.369-3.323,8.035-3.923c0.537-0.089,1.054-0.295,1.648-0.467c-0.277-1.151-0.538-2.24-0.804-3.349
					c2.037-0.079,10.788,3.659,13.69,5.856c-2.477,3.587-5.216,6.95-8.438,10.262c-0.504-1.342-0.9-2.396-1.379-3.671
					c-2.184,0.765-3.977,1.43-5.881,2.627C15.449,52.915,13.935,54.3,12.954,56.309"/>
			</g>
			<g style="clip-path:url(#SVGID_00000079448146457907293620000000179840345291656843_);">
				<defs>
					
						<rect id="SVGID_00000147208937018851447220000015347140248384222594_" x="15.987" y="58.409" transform="matrix(0.1632 -0.9866 0.9866 0.1632 -40.235 85.7796)" width="28.929" height="16.4"/>
				</defs>
				<clipPath id="SVGID_00000145024050288326667280000015715155939324645779_">
					<use xlink:href="#SVGID_00000147208937018851447220000015347140248384222594_"  style="overflow:visible;"/>
				</clipPath>
				<path style="clip-path:url(#SVGID_00000145024050288326667280000015715155939324645779_);fill:#AD70D6;" d="M32.593,76.952
					c-2.689,0.995-10.192,0.341-10.192,0.341c-0.66-2.137-0.193-2.192-0.171-5.097c0.001-0.119,0.334-1.861,0.327-1.973
					c-0.042-0.635,0.911-5.413,3.173-8.36c0.331-0.432,0.567-0.936,0.882-1.468c-0.989-0.65-1.924-1.265-2.878-1.891
					c1.431-1.452,10.37-4.715,13.989-5.099c0.649,4.31,0.954,8.636,0.872,13.257c-1.286-0.634-2.297-1.131-3.519-1.733
					c-1.068,2.052-1.921,3.764-2.49,5.94C32.09,72.77,31.933,74.816,32.593,76.952"/>
			</g>
			<polygon style="clip-path:url(#SVGID_00000079448146457907293620000000179840345291656843_);fill:#9F9EB1;" points="83.961,76 
				82.077,76.587 80.056,77.24 77.996,78.615 76.548,80.61 75.371,82.801 75.082,85.282 75.082,85.295 75.708,88.604 76.822,90.698 
				78.332,92.514 80.484,93.474 82.193,94.032 83.961,94.291 84.399,94.48 85.306,94.48 85.753,94.326 88.251,93.798 90.278,92.966 
				91.799,91.405 93.076,89.652 93.625,87.541 93.96,85.955 93.96,83.962 93.462,82.116 92.306,79.94 90.728,78.111 88.53,77.063 
				85.7,76 			"/>
		</g>
	</g>
</g>
<g id="Layer_2">
	<g id="Layer_3">
	</g>
</g>
</svg>
