<?xml version="1.0" encoding="iso-8859-1"?>
<!-- Generator: Adobe Illustrator 26.0.1, SVG Export Plug-In . SVG Version: 6.00 Build 0)  -->
<svg version="1.1" xmlns="http://www.w3.org/2000/svg" xmlns:xlink="http://www.w3.org/1999/xlink" x="0px" y="0px"
	 viewBox="0 0 100 100" style="enable-background:new 0 0 100 100;" xml:space="preserve">
<g id="Layer_1">
	<g id="G_x28__T1_L1__x29_3_L1_L1_00000032647783721411866270000017500669069858091449_">
		<g>
			<defs>
				<rect id="SVGID_1_" x="3" y="8" width="88.96" height="83.48"/>
			</defs>
			<clipPath id="SVGID_00000144314609117712388120000012104420761638910106_">
				<use xlink:href="#SVGID_1_"  style="overflow:visible;"/>
			</clipPath>
			<polygon style="clip-path:url(#SVGID_00000144314609117712388120000012104420761638910106_);fill:#AD70D6;" points="36.959,28 
				35.076,28.587 33.057,29.24 30.997,30.615 29.548,32.61 28.37,34.801 28.081,37.29 28.709,40.604 29.82,42.698 31.331,44.514 
				33.483,45.474 35.192,46.032 36.962,46.291 37.4,46.48 38.306,46.48 38.754,46.326 41.25,45.798 43.279,44.966 44.8,43.405 
				46.074,41.652 46.625,39.541 46.96,37.96 46.96,35.962 46.461,34.116 45.307,31.94 43.728,30.111 41.529,29.063 38.701,28 			"/>
			<g style="clip-path:url(#SVGID_00000144314609117712388120000012104420761638910106_);">
				<defs>
					
						<rect id="SVGID_00000071543637243362348090000015320751135666804913_" x="11.026" y="5.595" transform="matrix(0.2915 -0.9566 0.9566 0.2915 -5.5664 32.605)" width="16.4" height="28.929"/>
				</defs>
				<clipPath id="SVGID_00000071529435200562843260000014446604139318523782_">
					<use xlink:href="#SVGID_00000071543637243362348090000015320751135666804913_"  style="overflow:visible;"/>
				</clipPath>
				<path style="clip-path:url(#SVGID_00000071529435200562843260000014446604139318523782_);fill:#E33A3A;" d="M8.692,20.824
					c-0.634-2.796,1.001-10.148,1.001-10.148c2.205-0.374,2.199,0.096,5.075,0.5c0.118,0.017,1.801,0.575,1.913,0.583
					c0.635,0.042,5.246,1.614,7.87,4.244c0.385,0.385,0.854,0.685,1.34,1.067c0.774-0.895,1.507-1.741,2.253-2.604
					c1.251,1.609,3.312,10.899,3.217,14.538c-4.358,0.076-8.687-0.19-13.256-0.878c0.796-1.192,1.422-2.128,2.179-3.26
					c-1.894-1.329-3.479-2.399-5.561-3.25C12.904,20.874,10.897,20.45,8.692,20.824"/>
			</g>
			<polygon style="clip-path:url(#SVGID_00000144314609117712388120000012104420761638910106_);fill:#5699DE;" points="80.958,28 
				79.076,28.587 77.056,29.24 74.996,30.615 73.548,32.61 72.37,34.801 72.081,37.29 72.709,40.604 73.82,42.698 75.331,44.514 
				77.483,45.474 79.192,46.032 80.962,46.291 81.399,46.48 82.306,46.48 82.754,46.326 85.25,45.798 87.279,44.966 88.8,43.405 
				90.074,41.652 90.624,39.541 90.96,37.96 90.96,35.962 90.461,34.116 89.306,31.94 87.728,30.111 85.529,29.063 82.7,28 			"/>
			<g style="clip-path:url(#SVGID_00000144314609117712388120000012104420761638910106_);">
				<defs>
					
						<rect id="SVGID_00000178890958328871084870000014059249614570572689_" x="55.026" y="5.595" transform="matrix(0.2915 -0.9566 0.9566 0.2915 25.6093 74.6946)" width="16.4" height="28.929"/>
				</defs>
				<clipPath id="SVGID_00000137133143149913213310000003705023182937069200_">
					<use xlink:href="#SVGID_00000178890958328871084870000014059249614570572689_"  style="overflow:visible;"/>
				</clipPath>
				<path style="clip-path:url(#SVGID_00000137133143149913213310000003705023182937069200_);fill:#F26C2B;" d="M52.692,20.824
					c-0.634-2.796,1.001-10.148,1.001-10.148c2.205-0.374,2.199,0.096,5.075,0.5c0.118,0.017,1.801,0.575,1.913,0.583
					c0.635,0.042,5.246,1.614,7.87,4.244c0.385,0.385,0.854,0.685,1.34,1.067c0.774-0.895,1.507-1.741,2.253-2.604
					c1.251,1.609,3.312,10.899,3.217,14.538c-4.358,0.076-8.687-0.19-13.256-0.878c0.796-1.192,1.422-2.128,2.179-3.26
					c-1.894-1.329-3.479-2.399-5.561-3.25C56.904,20.874,54.897,20.45,52.692,20.824"/>
			</g>
			<polygon style="clip-path:url(#SVGID_00000144314609117712388120000012104420761638910106_);fill:#E1D153;" points="37.959,73 
				36.077,73.587 34.057,74.24 31.997,75.615 30.548,77.61 29.37,79.801 29.081,82.29 29.709,85.604 30.821,87.698 32.331,89.514 
				34.484,90.474 36.192,91.032 37.962,91.291 38.4,91.48 39.306,91.48 39.754,91.326 42.251,90.798 44.279,89.966 45.8,88.405 
				47.075,86.652 47.625,84.541 47.96,82.96 47.96,80.962 47.462,79.116 46.307,76.94 44.728,75.111 42.53,74.063 39.701,73 			"/>
			<g style="clip-path:url(#SVGID_00000144314609117712388120000012104420761638910106_);">
				<defs>
					
						<rect id="SVGID_00000028314935162955663650000008311752313417034165_" x="12.026" y="50.595" transform="matrix(0.2915 -0.9566 0.9566 0.2915 -47.904 65.4452)" width="16.4" height="28.929"/>
				</defs>
				<clipPath id="SVGID_00000002362252965471358890000000690816121563632515_">
					<use xlink:href="#SVGID_00000028314935162955663650000008311752313417034165_"  style="overflow:visible;"/>
				</clipPath>
				<path style="clip-path:url(#SVGID_00000002362252965471358890000000690816121563632515_);fill:#55C95A;" d="M9.692,65.824
					c-0.634-2.796,1.001-10.148,1.001-10.148c2.205-0.374,2.199,0.096,5.075,0.5c0.118,0.017,1.801,0.575,1.913,0.583
					c0.635,0.042,5.246,1.614,7.87,4.244c0.385,0.385,0.854,0.685,1.34,1.067c0.774-0.895,1.507-1.741,2.253-2.604
					c1.251,1.609,3.312,10.899,3.217,14.538c-4.358,0.076-8.687-0.19-13.256-0.878c0.796-1.192,1.422-2.128,2.179-3.26
					c-1.894-1.329-3.479-2.399-5.561-3.25C13.904,65.874,11.897,65.45,9.692,65.824"/>
			</g>
			<polygon style="clip-path:url(#SVGID_00000144314609117712388120000012104420761638910106_);fill:#9F9EB1;" points="80.959,73 
				79.076,73.587 77.057,74.24 74.996,75.615 73.548,77.61 72.37,79.801 72.08,82.29 72.709,85.604 73.82,87.698 75.331,89.514 
				77.483,90.474 79.192,91.032 80.962,91.291 81.4,91.48 82.306,91.48 82.754,91.326 85.25,90.798 87.279,89.966 88.8,88.405 
				90.074,86.652 90.625,84.541 90.96,82.96 90.96,80.962 90.461,79.116 89.306,76.94 87.728,75.111 85.529,74.063 82.701,73 			"/>
			<polygon style="clip-path:url(#SVGID_00000144314609117712388120000012104420761638910106_);fill:#523742;" points="
				57.811,50.807 55.928,51.394 53.909,52.047 51.849,53.422 50.4,55.417 49.222,57.608 48.933,60.097 49.561,63.411 50.672,65.505 
				52.183,67.321 54.335,68.281 56.044,68.839 57.814,69.098 58.252,69.287 59.158,69.287 59.606,69.133 62.102,68.605 
				64.131,67.773 65.652,66.212 66.926,64.459 67.477,62.348 67.812,60.767 67.812,58.769 67.313,56.923 66.159,54.747 
				64.58,52.918 62.381,51.87 59.553,50.807 			"/>
		</g>
	</g>
</g>
<g id="Layer_2">
	<g id="Layer_3">
	</g>
</g>
</svg>
