<?xml version="1.0" encoding="iso-8859-1"?>
<!-- Generator: Adobe Illustrator 26.0.1, SVG Export Plug-In . SVG Version: 6.00 Build 0)  -->
<svg version="1.1" id="Layer_1" xmlns="http://www.w3.org/2000/svg" xmlns:xlink="http://www.w3.org/1999/xlink" x="0px" y="0px"
	 viewBox="0 0 100 100" style="enable-background:new 0 0 100 100;" xml:space="preserve">
<g id="G_x28__T1_T1_T1_L3__x29__T1_L1_1_" style="display:none;">
	<g style="display:inline;">
		<defs>
			<rect id="SVGID_1_" x="-1" y="3" width="102.767" height="96.721"/>
		</defs>
		<clipPath id="SVGID_00000134963071484114911150000017649682610140310689_">
			<use xlink:href="#SVGID_1_"  style="overflow:visible;"/>
		</clipPath>
		<g style="clip-path:url(#SVGID_00000134963071484114911150000017649682610140310689_);">
			<defs>
				<rect id="SVGID_00000048501558855248430000000014359387965271812771_" x="-1" y="3" width="102.767" height="96.721"/>
			</defs>
			<clipPath id="SVGID_00000124854246326333833050000004979190037538683830_">
				<use xlink:href="#SVGID_00000048501558855248430000000014359387965271812771_"  style="overflow:visible;"/>
			</clipPath>
			<g style="clip-path:url(#SVGID_00000124854246326333833050000004979190037538683830_);">
				<defs>
					<rect id="SVGID_00000024695676537605515450000002802670418833820070_" x="-1" y="3" width="102.767" height="96.721"/>
				</defs>
				<clipPath id="SVGID_00000171721808013562186350000002475197291348433568_">
					<use xlink:href="#SVGID_00000024695676537605515450000002802670418833820070_"  style="overflow:visible;"/>
				</clipPath>
				<g style="opacity:0.99;clip-path:url(#SVGID_00000171721808013562186350000002475197291348433568_);">
					<g>
						<defs>
							
								<rect id="SVGID_00000016046783233430796950000007575646541248847793_" x="19.408" y="14.642" width="47.766" height="52.098"/>
						</defs>
						<clipPath id="SVGID_00000148656246636558770650000000578262812914708867_">
							<use xlink:href="#SVGID_00000016046783233430796950000007575646541248847793_"  style="overflow:visible;"/>
						</clipPath>
						<g style="clip-path:url(#SVGID_00000148656246636558770650000000578262812914708867_);">
							<defs>
								<polygon id="SVGID_00000043437751818893913950000013202249407373553552_" points="19.412,17.375 21.774,66.739 
									67.17,64.011 64.809,14.647 								"/>
							</defs>
							<clipPath id="SVGID_00000171715289839671194640000002026413401461705919_">
								<use xlink:href="#SVGID_00000043437751818893913950000013202249407373553552_"  style="overflow:visible;"/>
							</clipPath>
							<g style="clip-path:url(#SVGID_00000171715289839671194640000002026413401461705919_);">
								<defs>
									
										<rect id="SVGID_00000127031105281765766520000014130754998612685975_" x="24.097" y="15.928" width="34.56" height="22.64"/>
								</defs>
								<clipPath id="SVGID_00000060023483045849583190000003176919726525991605_">
									<use xlink:href="#SVGID_00000127031105281765766520000014130754998612685975_"  style="overflow:visible;"/>
								</clipPath>
								<g style="clip-path:url(#SVGID_00000060023483045849583190000003176919726525991605_);">
									<defs>
										
											<rect id="SVGID_00000060734513379298110160000001881670400746385822_" x="24.097" y="15.928" width="34.56" height="22.64"/>
									</defs>
									<clipPath id="SVGID_00000163061684817351279820000009160536109393765765_">
										<use xlink:href="#SVGID_00000060734513379298110160000001881670400746385822_"  style="overflow:visible;"/>
									</clipPath>
									<path style="clip-path:url(#SVGID_00000163061684817351279820000009160536109393765765_);fill:#F26C2B;" d="M58.656,26.128
										c-2.13,2-4.229,4.11-6.53,6.1c-1.78,1.55-3.679,3.03-5.83,4.36c-0.329-1.76-0.57-3.06-0.849-4.56
										c-2.46,0.35-5.101,0.24-7.291,1.19c-2.12,0.94-4.29,2.42-5.3,5.35c-3.03-1.93-5.83-3.73-8.76-5.6
										c1.57-3.19,3.01-6.32,5.88-8.47c0.56-0.41,0.991-0.98,1.44-1.51c1.31-1.5,3.13-1.93,4.88-2.32c1.81-0.4,3.72-0.34,5.6-0.49
										c0.531-0.05,1.08-0.07,1.63-0.1c0.01-1.52,0.02-2.84,0.01-4.15C46.276,15.998,57.707,23.688,58.656,26.128"/>
								</g>
							</g>
							<g style="clip-path:url(#SVGID_00000171715289839671194640000002026413401461705919_);">
								<defs>
									
										<rect id="SVGID_00000002348360012293448850000004341955803196201663_" x="21.074" y="38.618" width="25.162" height="26.98"/>
								</defs>
								<clipPath id="SVGID_00000045579270059422833130000012755945797486948015_">
									<use xlink:href="#SVGID_00000002348360012293448850000004341955803196201663_"  style="overflow:visible;"/>
								</clipPath>
								<g style="clip-path:url(#SVGID_00000045579270059422833130000012755945797486948015_);">
									<defs>
										
											<rect id="SVGID_00000045600677313427471550000008887267519871992465_" x="21.074" y="38.618" width="25.162" height="26.98"/>
									</defs>
									<clipPath id="SVGID_00000155115486805689069790000011747511968298218158_">
										<use xlink:href="#SVGID_00000045600677313427471550000008887267519871992465_"  style="overflow:visible;"/>
									</clipPath>
									<path style="clip-path:url(#SVGID_00000155115486805689069790000011747511968298218158_);fill:#E33A3A;" d="M46.237,54.379
										c-0.03,0.939-0.07,1.6-0.09,2.25c-0.07,2.619-0.13,5.239-0.2,7.85c-0.01,0.28-0.13,0.559-0.2,0.82l-5.01,0.3
										c-0.37-0.09-0.75-0.18-1.13-0.271c-2.28-0.599-4.63-1.029-6.83-1.84c-1.16-0.429-2.27-1.339-3.09-2.309
										c-1.65-1.96-3.08-4.101-4.67-6.271c-1.04,0.7-2.18,1.46-3.34,2.25c-1.2-3.08-0.47-16.929,0.99-18.539
										c3.08,0.989,6.23,1.82,9.41,2.9c1.89,0.65,3.81,1.39,5.71,2.29c-1.3,1.199-2.37,2.19-3.47,3.199
										c1.61,2.06,3.18,4.06,4.82,6.141C41.477,53.269,43.287,55.939,46.237,54.379"/>
								</g>
							</g>
							<g style="clip-path:url(#SVGID_00000171715289839671194640000002026413401461705919_);">
								<defs>
									
										<rect id="SVGID_00000137134174170868814800000004398276427153684148_" x="47.887" y="30.678" width="18.86" height="34.04"/>
								</defs>
								<clipPath id="SVGID_00000126283667980361218400000011949395844982891195_">
									<use xlink:href="#SVGID_00000137134174170868814800000004398276427153684148_"  style="overflow:visible;"/>
								</clipPath>
								<g style="clip-path:url(#SVGID_00000126283667980361218400000011949395844982891195_);">
									<defs>
										
											<rect id="SVGID_00000124131863879457372880000008643983534502300842_" x="47.887" y="30.678" width="18.86" height="34.04"/>
									</defs>
									<clipPath id="SVGID_00000103249550200938616600000005187735325513754782_">
										<use xlink:href="#SVGID_00000124131863879457372880000008643983534502300842_"  style="overflow:visible;"/>
									</clipPath>
									<path style="clip-path:url(#SVGID_00000103249550200938616600000005187735325513754782_);fill:#55C95A;" d="M64.946,39.469
										c2.32,4.39,0.57,8.38-1.29,12.37c-0.26,0.58-0.409,1.22-0.64,1.92c1.29,0.489,2.5,0.95,3.731,1.42
										c-1.261,2.05-10.611,8.149-14.631,9.54c-1.33-3.57-2.45-7.2-3.35-11.02c-0.32-1.33-0.62-2.67-0.88-4.04
										c1.61,0.4,2.88,0.7,4.41,1.09c0.711-2.65,1.88-5.27,2.001-7.93c0.099-2.31,0.089-5.06-2.261-6.77
										c0.6-0.39,1.19-0.79,1.761-1.16c2.17-1.43,4.239-2.8,6.37-4.21c2.029,2.47,4.04,5.02,4.729,8.37
										C64.926,39.189,64.896,39.349,64.946,39.469"/>
								</g>
							</g>
						</g>
					</g>
				</g>
			</g>
			<g style="clip-path:url(#SVGID_00000124854246326333833050000004979190037538683830_);">
				<defs>
					<polygon id="SVGID_00000042733190815953232590000007404799848555858073_" points="64.154,38.848 77.044,52.974 101.767,29.573 
						88.876,15.447 					"/>
				</defs>
				<clipPath id="SVGID_00000082359894675551035930000017664223118159142310_">
					<use xlink:href="#SVGID_00000042733190815953232590000007404799848555858073_"  style="overflow:visible;"/>
				</clipPath>
				<g style="clip-path:url(#SVGID_00000082359894675551035930000017664223118159142310_);">
					<defs>
						<rect id="SVGID_00000166655923566780699370000008975148106402869646_" x="66.867" y="22.968" width="31.1" height="23.694"/>
					</defs>
					<clipPath id="SVGID_00000163056953743868556960000006383679084493362838_">
						<use xlink:href="#SVGID_00000166655923566780699370000008975148106402869646_"  style="overflow:visible;"/>
					</clipPath>
					<g style="clip-path:url(#SVGID_00000163056953743868556960000006383679084493362838_);">
						<defs>
							<rect id="SVGID_00000013179803575403436860000011815421818956466328_" x="66.867" y="22.968" width="31.1" height="23.694"/>
						</defs>
						<clipPath id="SVGID_00000042702135610480730930000017513526370071585675_">
							<use xlink:href="#SVGID_00000013179803575403436860000011815421818956466328_"  style="overflow:visible;"/>
						</clipPath>
						<path style="clip-path:url(#SVGID_00000042702135610480730930000017513526370071585675_);fill:#E1D153;" d="M97.967,29.958
							c-0.931,2.48-1.391,2.2-3.49,4.91c-0.09,0.11-1.64,1.51-1.71,1.62c-0.42,0.62-4.7,4.42-8.88,5.57
							c-0.61,0.16-1.191,0.47-1.86,0.74c0.45,1.32,0.86,2.57,1.29,3.84c-2.35,0.34-12.86-3.02-16.451-5.25
							c2.491-4.51,5.301-8.79,8.681-13.07c0.72,1.52,1.29,2.71,1.98,4.15c2.45-1.16,4.45-2.15,6.53-3.79
							c1.809-1.43,3.41-3.23,4.34-5.71C91.567,23.958,97.967,29.958,97.967,29.958"/>
					</g>
				</g>
			</g>
			<g style="clip-path:url(#SVGID_00000124854246326333833050000004979190037538683830_);">
				<defs>
					<polygon id="SVGID_00000176726841644167574390000013904067455569128617_" points="-1,22.341 32.5,24.474 33.886,5.133 
						0.385,3.001 					"/>
				</defs>
				<clipPath id="SVGID_00000002381327167154880710000001280996214823864230_">
					<use xlink:href="#SVGID_00000176726841644167574390000013904067455569128617_"  style="overflow:visible;"/>
				</clipPath>
				<g style="clip-path:url(#SVGID_00000002381327167154880710000001280996214823864230_);">
					<defs>
						<rect id="SVGID_00000174584924758931287360000010016077268274676143_" x="3.237" y="4.738" width="29.24" height="18.58"/>
					</defs>
					<clipPath id="SVGID_00000035492651794606546060000017367121508642296499_">
						<use xlink:href="#SVGID_00000174584924758931287360000010016077268274676143_"  style="overflow:visible;"/>
					</clipPath>
					<g style="clip-path:url(#SVGID_00000035492651794606546060000017367121508642296499_);">
						<defs>
							<rect id="SVGID_00000012441283086019030140000002672589056008679583_" x="3.237" y="4.738" width="29.24" height="18.58"/>
						</defs>
						<clipPath id="SVGID_00000122690678452203378710000007807016150900992698_">
							<use xlink:href="#SVGID_00000012441283086019030140000002672589056008679583_"  style="overflow:visible;"/>
						</clipPath>
						<path style="clip-path:url(#SVGID_00000122690678452203378710000007807016150900992698_);fill:#5699DE;" d="M25.107,4.868
							c1.83,1.51,6.55,11.63,7.37,15.83c-4.91,1.28-9.88,2.16-15.23,2.62c0.59-1.59,1.06-2.84,1.63-4.35
							c-2.49-1.01-4.56-1.8-7.13-2.21c-2.25-0.36-4.64-0.3-7.04,0.74c-1.43-3.05-1.47-11.95-1.47-11.95
							c2.4-1.03,2.52-0.48,5.88-0.81c0.13-0.01,2.18,0.17,2.31,0.15c0.73-0.12,6.36,0.42,10,2.73c0.54,0.34,1.15,0.55,1.79,0.86
							C23.866,7.239,24.476,6.069,25.107,4.868"/>
					</g>
				</g>
			</g>
			<g style="clip-path:url(#SVGID_00000124854246326333833050000004979190037538683830_);">
				<defs>
					<polygon id="SVGID_00000134933446550972191220000003311544544268040336_" points="12.557,97.479 31.57,98.335 33.402,64.185 
						14.387,63.33 					"/>
				</defs>
				<clipPath id="SVGID_00000128485623415878876920000009596614157021874620_">
					<use xlink:href="#SVGID_00000134933446550972191220000003311544544268040336_"  style="overflow:visible;"/>
				</clipPath>
				<g style="clip-path:url(#SVGID_00000128485623415878876920000009596614157021874620_);">
					<defs>
						<rect id="SVGID_00000110467581923989172330000006445773031629594536_" x="14.196" y="64.318" width="18.19" height="30.18"/>
					</defs>
					<clipPath id="SVGID_00000160909721672413817350000006531627592862906263_">
						<use xlink:href="#SVGID_00000110467581923989172330000006445773031629594536_"  style="overflow:visible;"/>
					</clipPath>
					<g style="clip-path:url(#SVGID_00000160909721672413817350000006531627592862906263_);">
						<defs>
							<rect id="SVGID_00000146465695329222298210000001088606146171945624_" x="14.196" y="64.318" width="18.19" height="30.18"/>
						</defs>
						<clipPath id="SVGID_00000089566528676806498780000005548702529558061992_">
							<use xlink:href="#SVGID_00000146465695329222298210000001088606146171945624_"  style="overflow:visible;"/>
						</clipPath>
						<path style="clip-path:url(#SVGID_00000089566528676806498780000005548702529558061992_);fill:#AD70D6;" d="M29.697,64.318
							c1.3,4.96,2.2,9.99,2.69,15.43c-1.57-0.57-2.8-1.01-4.28-1.539c-0.98,2.559-1.74,4.689-2.12,7.319
							c-0.34,2.3-0.26,4.72,0.78,7.141c-2.98,1.54-11.72,1.829-11.72,1.829c-1.04-2.409-0.5-2.539-0.85-5.95
							c-0.01-0.14,0.15-2.23,0.13-2.36c-0.13-0.74,0.36-6.479,2.6-10.26c0.33-0.549,0.54-1.17,0.83-1.839
							c-1.22-0.63-2.38-1.221-3.56-1.821C15.667,70.368,25.567,65.278,29.697,64.318"/>
					</g>
				</g>
			</g>
			<polygon style="clip-path:url(#SVGID_00000124854246326333833050000004979190037538683830_);fill:#523742;" points="
				82.73,76.978 80.842,77.566 78.823,78.22 76.762,79.594 75.314,81.588 74.136,83.78 73.848,86.261 73.848,86.273 74.474,89.582 
				75.588,91.677 77.097,93.493 79.25,94.452 80.959,95.011 82.727,95.27 83.167,95.459 84.071,95.459 84.519,95.305 87.016,94.776 
				89.045,93.944 90.565,92.385 91.842,90.631 92.39,88.52 92.726,86.934 92.726,84.943 92.227,83.094 91.073,80.919 89.494,79.089 
				87.296,78.041 84.464,76.978 			"/>
			<g style="clip-path:url(#SVGID_00000124854246326333833050000004979190037538683830_);">
				<defs>
					
						<rect id="SVGID_00000157275856000660423970000007283859384522341022_" x="43.549" y="72.96" transform="matrix(0.7465 -0.6653 0.6653 0.7465 -39.9379 59.8595)" width="30.098" height="18.779"/>
				</defs>
				<clipPath id="SVGID_00000148647552776194596500000005760253023527051931_">
					<use xlink:href="#SVGID_00000157275856000660423970000007283859384522341022_"  style="overflow:visible;"/>
				</clipPath>
				<path style="clip-path:url(#SVGID_00000148647552776194596500000005760253023527051931_);fill:#9F9EB1;" d="M65.171,72.62
					c0.966-0.915,0.053-3.007,2.027-3.24c2.72,3.457,5.413,6.87,8.278,10.506c-3.606,2.355-7.56,3.856-11.346,5.65
					c-0.391-0.107-0.718-0.204-1.115-0.306c0.187-1.412,0.39-2.852,0.589-4.329c-2.536-1.491-4.782-0.359-6.642,0.829
					c-3.03,1.937-2.111,4.922-1.34,7.396c0.565,0.783,0.959,1.315,1.477,2.033c-2.545,1.398-4.857,2.666-7.211,3.947
					c-0.181-0.173-0.387-0.284-0.435-0.442c-0.688-1.945-1.697-3.859-1.936-5.856c-0.591-5.006,0.683-9.53,4.466-13.129
					c2.427-2.297,5.197-3.774,8.611-3.641C62.092,72.096,63.575,72.408,65.171,72.62"/>
			</g>
		</g>
	</g>
</g>
<g id="G_x28__T1_T1_T1_L3__x29__T1_L1_00000165203255350647380660000009184346767741431938_">
	<g>
		<defs>
			<rect id="SVGID_00000006688156199036804040000016144104903486587552_" x="-1" y="3" width="102.767" height="96.721"/>
		</defs>
		<clipPath id="SVGID_00000065755302516374084890000001260118678444985228_">
			<use xlink:href="#SVGID_00000006688156199036804040000016144104903486587552_"  style="overflow:visible;"/>
		</clipPath>
		<g style="clip-path:url(#SVGID_00000065755302516374084890000001260118678444985228_);">
			<defs>
				<rect id="SVGID_00000009561377488115910520000017796028659119909253_" x="-1" y="3" width="102.767" height="96.721"/>
			</defs>
			<clipPath id="SVGID_00000080928559827658458540000004140553647289686661_">
				<use xlink:href="#SVGID_00000009561377488115910520000017796028659119909253_"  style="overflow:visible;"/>
			</clipPath>
			<g style="clip-path:url(#SVGID_00000080928559827658458540000004140553647289686661_);">
				<defs>
					<rect id="SVGID_00000176763818165552349240000009601797255603334079_" x="-1" y="3" width="102.767" height="96.721"/>
				</defs>
				<clipPath id="SVGID_00000158008327906841453860000018384129174919485318_">
					<use xlink:href="#SVGID_00000176763818165552349240000009601797255603334079_"  style="overflow:visible;"/>
				</clipPath>
				<g style="opacity:0.99;clip-path:url(#SVGID_00000158008327906841453860000018384129174919485318_);">
					<g>
						<defs>
							
								<rect id="SVGID_00000070833721876983910030000006417840522897120389_" x="19.408" y="14.642" width="47.766" height="52.098"/>
						</defs>
						<clipPath id="SVGID_00000036226449784769245800000009658165527013738141_">
							<use xlink:href="#SVGID_00000070833721876983910030000006417840522897120389_"  style="overflow:visible;"/>
						</clipPath>
						<g style="clip-path:url(#SVGID_00000036226449784769245800000009658165527013738141_);">
							<defs>
								<polygon id="SVGID_00000020384204415963675740000017772790915502413753_" points="19.412,17.375 21.774,66.739 
									67.17,64.011 64.809,14.647 								"/>
							</defs>
							<clipPath id="SVGID_00000097494579347407303600000007715539941251764147_">
								<use xlink:href="#SVGID_00000020384204415963675740000017772790915502413753_"  style="overflow:visible;"/>
							</clipPath>
							<g style="clip-path:url(#SVGID_00000097494579347407303600000007715539941251764147_);">
								<defs>
									
										<rect id="SVGID_00000006674386690015901320000005228380923887252127_" x="24.097" y="15.928" width="34.56" height="22.64"/>
								</defs>
								<clipPath id="SVGID_00000107559217621949837750000003562313552638364853_">
									<use xlink:href="#SVGID_00000006674386690015901320000005228380923887252127_"  style="overflow:visible;"/>
								</clipPath>
								<g style="clip-path:url(#SVGID_00000107559217621949837750000003562313552638364853_);">
									<defs>
										
											<rect id="SVGID_00000072238274874501177330000016184924278086292125_" x="24.097" y="15.928" width="34.56" height="22.64"/>
									</defs>
									<clipPath id="SVGID_00000028312248164094108860000003902164537491501226_">
										<use xlink:href="#SVGID_00000072238274874501177330000016184924278086292125_"  style="overflow:visible;"/>
									</clipPath>
									<path style="clip-path:url(#SVGID_00000028312248164094108860000003902164537491501226_);fill:#F26C2B;" d="M58.656,26.128
										c-2.13,2-4.229,4.11-6.53,6.1c-1.78,1.55-3.679,3.03-5.83,4.36c-0.329-1.76-0.57-3.06-0.849-4.56
										c-2.46,0.35-5.101,0.24-7.291,1.19c-2.12,0.94-4.29,2.42-5.3,5.35c-3.03-1.93-5.83-3.73-8.76-5.6
										c1.57-3.19,3.01-6.32,5.88-8.47c0.56-0.41,0.991-0.98,1.44-1.51c1.31-1.5,3.13-1.93,4.88-2.32c1.81-0.4,3.72-0.34,5.6-0.49
										c0.531-0.05,1.08-0.07,1.63-0.1c0.01-1.52,0.02-2.84,0.01-4.15C46.276,15.998,57.707,23.688,58.656,26.128"/>
								</g>
							</g>
							<g style="clip-path:url(#SVGID_00000097494579347407303600000007715539941251764147_);">
								<defs>
									
										<rect id="SVGID_00000055709412136188756010000007320289638424655797_" x="21.074" y="38.618" width="25.162" height="26.98"/>
								</defs>
								<clipPath id="SVGID_00000004505286528490868350000015507187865096310158_">
									<use xlink:href="#SVGID_00000055709412136188756010000007320289638424655797_"  style="overflow:visible;"/>
								</clipPath>
								<g style="clip-path:url(#SVGID_00000004505286528490868350000015507187865096310158_);">
									<defs>
										
											<rect id="SVGID_00000015342255946483981080000004382462952966858156_" x="21.074" y="38.618" width="25.162" height="26.98"/>
									</defs>
									<clipPath id="SVGID_00000018231689258306239220000010806342221465661335_">
										<use xlink:href="#SVGID_00000015342255946483981080000004382462952966858156_"  style="overflow:visible;"/>
									</clipPath>
									<path style="clip-path:url(#SVGID_00000018231689258306239220000010806342221465661335_);fill:#E33A3A;" d="M46.237,54.379
										c-0.03,0.939-0.07,1.6-0.09,2.25c-0.07,2.619-0.13,5.239-0.2,7.85c-0.01,0.28-0.13,0.559-0.2,0.82l-5.01,0.3
										c-0.37-0.09-0.75-0.18-1.13-0.271c-2.28-0.599-4.63-1.029-6.83-1.84c-1.16-0.429-2.27-1.339-3.09-2.309
										c-1.65-1.96-3.08-4.101-4.67-6.271c-1.04,0.7-2.18,1.46-3.34,2.25c-1.2-3.08-0.47-16.929,0.99-18.539
										c3.08,0.989,6.23,1.82,9.41,2.9c1.89,0.65,3.81,1.39,5.71,2.29c-1.3,1.199-2.37,2.19-3.47,3.199
										c1.61,2.06,3.18,4.06,4.82,6.141C41.477,53.269,43.287,55.939,46.237,54.379"/>
								</g>
							</g>
							<g style="clip-path:url(#SVGID_00000097494579347407303600000007715539941251764147_);">
								<defs>
									
										<rect id="SVGID_00000134938746480471673590000003921512772058423956_" x="47.887" y="30.678" width="18.86" height="34.04"/>
								</defs>
								<clipPath id="SVGID_00000148658335027867675760000004602132503817198500_">
									<use xlink:href="#SVGID_00000134938746480471673590000003921512772058423956_"  style="overflow:visible;"/>
								</clipPath>
								<g style="clip-path:url(#SVGID_00000148658335027867675760000004602132503817198500_);">
									<defs>
										
											<rect id="SVGID_00000040572023303553468530000009084505291974462860_" x="47.887" y="30.678" width="18.86" height="34.04"/>
									</defs>
									<clipPath id="SVGID_00000126291344733298099460000014485072691734474937_">
										<use xlink:href="#SVGID_00000040572023303553468530000009084505291974462860_"  style="overflow:visible;"/>
									</clipPath>
									<path style="clip-path:url(#SVGID_00000126291344733298099460000014485072691734474937_);fill:#55C95A;" d="M64.946,39.469
										c2.32,4.39,0.57,8.38-1.29,12.37c-0.26,0.58-0.409,1.22-0.64,1.92c1.29,0.489,2.5,0.95,3.731,1.42
										c-1.261,2.05-10.611,8.149-14.631,9.54c-1.33-3.57-2.45-7.2-3.35-11.02c-0.32-1.33-0.62-2.67-0.88-4.04
										c1.61,0.4,2.88,0.7,4.41,1.09c0.711-2.65,1.88-5.27,2.001-7.93c0.099-2.31,0.089-5.06-2.261-6.77
										c0.6-0.39,1.19-0.79,1.761-1.16c2.17-1.43,4.239-2.8,6.37-4.21c2.029,2.47,4.04,5.02,4.729,8.37
										C64.926,39.189,64.896,39.349,64.946,39.469"/>
								</g>
							</g>
						</g>
					</g>
				</g>
			</g>
			<g style="clip-path:url(#SVGID_00000080928559827658458540000004140553647289686661_);">
				<defs>
					<polygon id="SVGID_00000025405074038760011710000013779974131741141671_" points="64.154,38.848 77.044,52.974 101.767,29.573 
						88.876,15.447 					"/>
				</defs>
				<clipPath id="SVGID_00000010997113594419405810000010788910586274847897_">
					<use xlink:href="#SVGID_00000025405074038760011710000013779974131741141671_"  style="overflow:visible;"/>
				</clipPath>
				<g style="clip-path:url(#SVGID_00000010997113594419405810000010788910586274847897_);">
					<defs>
						<rect id="SVGID_00000060002021774206086200000000932013264857677219_" x="66.867" y="22.968" width="31.1" height="23.694"/>
					</defs>
					<clipPath id="SVGID_00000121986299199569040610000007068118172194016385_">
						<use xlink:href="#SVGID_00000060002021774206086200000000932013264857677219_"  style="overflow:visible;"/>
					</clipPath>
					<g style="clip-path:url(#SVGID_00000121986299199569040610000007068118172194016385_);">
						<defs>
							<rect id="SVGID_00000045580484831110834920000003677652656161050039_" x="66.867" y="22.968" width="31.1" height="23.694"/>
						</defs>
						<clipPath id="SVGID_00000104674671068672127400000000917748447389388928_">
							<use xlink:href="#SVGID_00000045580484831110834920000003677652656161050039_"  style="overflow:visible;"/>
						</clipPath>
						<path style="clip-path:url(#SVGID_00000104674671068672127400000000917748447389388928_);fill:#E1D153;" d="M97.967,29.958
							c-0.931,2.48-1.391,2.2-3.49,4.91c-0.09,0.11-1.64,1.51-1.71,1.62c-0.42,0.62-4.7,4.42-8.88,5.57
							c-0.61,0.16-1.191,0.47-1.86,0.74c0.45,1.32,0.86,2.57,1.29,3.84c-2.35,0.34-12.86-3.02-16.451-5.25
							c2.491-4.51,5.301-8.79,8.681-13.07c0.72,1.52,1.29,2.71,1.98,4.15c2.45-1.16,4.45-2.15,6.53-3.79
							c1.809-1.43,3.41-3.23,4.34-5.71C91.567,23.958,97.967,29.958,97.967,29.958"/>
					</g>
				</g>
			</g>
			<g style="clip-path:url(#SVGID_00000080928559827658458540000004140553647289686661_);">
				<defs>
					<polygon id="SVGID_00000122698828776744089150000006779309466090466227_" points="-1,22.341 32.5,24.474 33.886,5.133 
						0.385,3.001 					"/>
				</defs>
				<clipPath id="SVGID_00000046314672401005884530000005294326903892917124_">
					<use xlink:href="#SVGID_00000122698828776744089150000006779309466090466227_"  style="overflow:visible;"/>
				</clipPath>
				<g style="clip-path:url(#SVGID_00000046314672401005884530000005294326903892917124_);">
					<defs>
						<rect id="SVGID_00000055682491001181751460000015624931018783784340_" x="3.237" y="4.738" width="29.24" height="18.58"/>
					</defs>
					<clipPath id="SVGID_00000056407580840484306960000012798934904502257795_">
						<use xlink:href="#SVGID_00000055682491001181751460000015624931018783784340_"  style="overflow:visible;"/>
					</clipPath>
					<g style="clip-path:url(#SVGID_00000056407580840484306960000012798934904502257795_);">
						<defs>
							<rect id="SVGID_00000127022208187839832160000008486556614005290914_" x="3.237" y="4.738" width="29.24" height="18.58"/>
						</defs>
						<clipPath id="SVGID_00000115506495180273387420000009115072619583413420_">
							<use xlink:href="#SVGID_00000127022208187839832160000008486556614005290914_"  style="overflow:visible;"/>
						</clipPath>
						<path style="clip-path:url(#SVGID_00000115506495180273387420000009115072619583413420_);fill:#5699DE;" d="M25.107,4.868
							c1.83,1.51,6.55,11.63,7.37,15.83c-4.91,1.28-9.88,2.16-15.23,2.62c0.59-1.59,1.06-2.84,1.63-4.35
							c-2.49-1.01-4.56-1.8-7.13-2.21c-2.25-0.36-4.64-0.3-7.04,0.74c-1.43-3.05-1.47-11.95-1.47-11.95
							c2.4-1.03,2.52-0.48,5.88-0.81c0.13-0.01,2.18,0.17,2.31,0.15c0.73-0.12,6.36,0.42,10,2.73c0.54,0.34,1.15,0.55,1.79,0.86
							C23.866,7.239,24.476,6.069,25.107,4.868"/>
					</g>
				</g>
			</g>
			<g style="clip-path:url(#SVGID_00000080928559827658458540000004140553647289686661_);">
				<defs>
					<polygon id="SVGID_00000183222377267495168030000010470550066718171027_" points="12.557,97.479 31.57,98.335 33.402,64.185 
						14.387,63.33 					"/>
				</defs>
				<clipPath id="SVGID_00000176738252429605541630000003509030544924453032_">
					<use xlink:href="#SVGID_00000183222377267495168030000010470550066718171027_"  style="overflow:visible;"/>
				</clipPath>
				<g style="clip-path:url(#SVGID_00000176738252429605541630000003509030544924453032_);">
					<defs>
						<rect id="SVGID_00000017473998675036310450000007343809222410895522_" x="14.196" y="64.318" width="18.19" height="30.18"/>
					</defs>
					<clipPath id="SVGID_00000119118748633744411850000007237097640178015381_">
						<use xlink:href="#SVGID_00000017473998675036310450000007343809222410895522_"  style="overflow:visible;"/>
					</clipPath>
					<g style="clip-path:url(#SVGID_00000119118748633744411850000007237097640178015381_);">
						<defs>
							<rect id="SVGID_00000178193936702549385760000007137513179980106422_" x="14.196" y="64.318" width="18.19" height="30.18"/>
						</defs>
						<clipPath id="SVGID_00000076578287400480722640000015473040175118000011_">
							<use xlink:href="#SVGID_00000178193936702549385760000007137513179980106422_"  style="overflow:visible;"/>
						</clipPath>
						<path style="clip-path:url(#SVGID_00000076578287400480722640000015473040175118000011_);fill:#AD70D6;" d="M29.697,64.318
							c1.3,4.96,2.2,9.99,2.69,15.43c-1.57-0.57-2.8-1.01-4.28-1.539c-0.98,2.559-1.74,4.689-2.12,7.319
							c-0.34,2.3-0.26,4.72,0.78,7.141c-2.98,1.54-11.72,1.829-11.72,1.829c-1.04-2.409-0.5-2.539-0.85-5.95
							c-0.01-0.14,0.15-2.23,0.13-2.36c-0.13-0.74,0.36-6.479,2.6-10.26c0.33-0.549,0.54-1.17,0.83-1.839
							c-1.22-0.63-2.38-1.221-3.56-1.821C15.667,70.368,25.567,65.278,29.697,64.318"/>
					</g>
				</g>
			</g>
			<polygon style="clip-path:url(#SVGID_00000080928559827658458540000004140553647289686661_);fill:#523742;" points="
				82.73,76.978 80.842,77.566 78.823,78.22 76.762,79.594 75.314,81.588 74.136,83.78 73.848,86.261 73.848,86.273 74.474,89.582 
				75.588,91.677 77.097,93.493 79.25,94.452 80.959,95.011 82.727,95.27 83.167,95.459 84.071,95.459 84.519,95.305 87.016,94.776 
				89.045,93.944 90.565,92.385 91.842,90.631 92.39,88.52 92.726,86.934 92.726,84.943 92.227,83.094 91.073,80.919 89.494,79.089 
				87.296,78.041 84.464,76.978 			"/>
			<g style="clip-path:url(#SVGID_00000080928559827658458540000004140553647289686661_);">
				<defs>
					
						<rect id="SVGID_00000131330242202516963300000014097719142048774549_" x="43.549" y="72.96" transform="matrix(0.7465 -0.6653 0.6653 0.7465 -39.9379 59.8595)" width="30.098" height="18.779"/>
				</defs>
				<clipPath id="SVGID_00000160904362375514918380000003521616835420480692_">
					<use xlink:href="#SVGID_00000131330242202516963300000014097719142048774549_"  style="overflow:visible;"/>
				</clipPath>
				<path style="clip-path:url(#SVGID_00000160904362375514918380000003521616835420480692_);fill:#9F9EB1;" d="M65.171,72.62
					c0.966-0.915,0.053-3.007,2.027-3.24c2.72,3.457,5.413,6.87,8.278,10.506c-3.606,2.355-7.56,3.856-11.346,5.65
					c-0.391-0.107-0.718-0.204-1.115-0.306c0.187-1.412,0.39-2.852,0.589-4.329c-2.536-1.491-4.782-0.359-6.642,0.829
					c-3.03,1.937-2.111,4.922-1.34,7.396c0.565,0.783,0.959,1.315,1.477,2.033c-2.545,1.398-4.857,2.666-7.211,3.947
					c-0.181-0.173-0.387-0.284-0.435-0.442c-0.688-1.945-1.697-3.859-1.936-5.856c-0.591-5.006,0.683-9.53,4.466-13.129
					c2.427-2.297,5.197-3.774,8.611-3.641C62.092,72.096,63.575,72.408,65.171,72.62"/>
			</g>
		</g>
	</g>
</g>
</svg>
