<?xml version="1.0" encoding="iso-8859-1"?>
<!-- Generator: Adobe Illustrator 26.0.1, SVG Export Plug-In . SVG Version: 6.00 Build 0)  -->
<svg version="1.1" id="Layer_2" xmlns="http://www.w3.org/2000/svg" xmlns:xlink="http://www.w3.org/1999/xlink" x="0px" y="0px"
	 viewBox="0 0 100 100" style="enable-background:new 0 0 100 100;" xml:space="preserve">
<g id="L3_L2_L1_L1_L1_00000168076543228245259330000016130364292467849914_">
	<g>
		<defs>
			<rect id="SVGID_1_" x="6" y="9" width="87.359" height="81.96"/>
		</defs>
		<clipPath id="SVGID_00000135662435342428713870000013912032289694856887_">
			<use xlink:href="#SVGID_1_"  style="overflow:visible;"/>
		</clipPath>
		<polygon style="clip-path:url(#SVGID_00000135662435342428713870000013912032289694856887_);fill:#AD70D6;" points="79.958,9 
			78.076,9.587 76.057,10.24 73.996,11.615 72.548,13.61 71.37,15.801 71.082,18.282 71.082,18.295 71.708,21.604 72.821,23.697 
			74.331,25.514 76.483,26.473 78.192,27.032 79.961,27.291 80.399,27.48 81.306,27.48 81.753,27.326 84.25,26.798 86.278,25.966 
			87.799,24.405 89.075,22.652 89.624,20.541 89.96,18.955 89.96,16.963 89.461,15.115 88.307,12.94 86.727,11.111 84.529,10.063 
			81.7,9 		"/>
		<polygon style="clip-path:url(#SVGID_00000135662435342428713870000013912032289694856887_);fill:#5699DE;" points="19.958,9 
			18.076,9.587 16.057,10.24 13.997,11.615 12.549,13.61 11.37,15.801 11.082,18.29 11.709,21.604 12.821,23.697 14.331,25.514 
			16.483,26.473 18.192,27.032 19.962,27.291 20.399,27.48 21.306,27.48 21.754,27.326 24.25,26.798 26.278,25.966 27.799,24.405 
			29.075,22.652 29.624,20.541 29.96,18.959 29.96,16.962 29.461,15.115 28.307,12.94 26.728,11.111 24.529,10.063 21.701,9 		"/>
		<g style="clip-path:url(#SVGID_00000135662435342428713870000013912032289694856887_);">
			<defs>
				<rect id="SVGID_00000182527646308598038860000009025124982261641869_" x="63.264" y="52.002" width="30.094" height="18.775"/>
			</defs>
			<clipPath id="SVGID_00000080181915585020137320000000393057068027693470_">
				<use xlink:href="#SVGID_00000182527646308598038860000009025124982261641869_"  style="overflow:visible;"/>
			</clipPath>
			<path style="clip-path:url(#SVGID_00000080181915585020137320000000393057068027693470_);fill:#523742;" d="M89.692,58.496
				c1.33-0.04,2.04-2.21,3.67-1.07c-0.27,4.389-0.529,8.73-0.81,13.349c-4.259-0.639-8.21-2.149-12.23-3.33
				c-0.22-0.34-0.4-0.63-0.63-0.97c1.08-0.929,2.19-1.87,3.32-2.839c-0.9-2.8-3.33-3.451-5.509-3.8
				c-3.55-0.57-4.851,2.269-5.92,4.63c-0.101,0.96-0.161,1.62-0.25,2.5c-2.83-0.651-5.401-1.241-8.011-1.85
				c-0.02-0.25-0.1-0.471-0.029-0.62c0.779-1.91,1.299-4.011,2.45-5.66c2.889-4.13,6.849-6.66,12.069-6.83
				c3.34-0.1,6.391,0.639,8.851,3.01C87.743,56.056,88.642,57.275,89.692,58.496"/>
		</g>
		<g style="clip-path:url(#SVGID_00000135662435342428713870000013912032289694856887_);">
			<defs>
				<rect id="SVGID_00000182497506624336550850000007181584153881330098_" x="62.003" y="68.657" width="29.36" height="18.212"/>
			</defs>
			<clipPath id="SVGID_00000150783743175928620040000006459931497240883874_">
				<use xlink:href="#SVGID_00000182497506624336550850000007181584153881330098_"  style="overflow:visible;"/>
			</clipPath>
			<path style="clip-path:url(#SVGID_00000150783743175928620040000006459931497240883874_);fill:#9F9EB1;" d="M91.362,74.446
				c-0.1,0.3-0.17,0.6-0.29,0.87c-1.52,3.449-3.13,6.93-6.51,8.9c-1.899,1.11-4.16,1.589-6.26,2.36c-2.15,0.78-4.139-0.2-6.16-0.61
				c-1.67-0.331-2.86-1.56-4-2.76c-0.82-0.861-1.62-1.74-2.62-2.83c-1.019,0.299-2.139,0.63-3.519,1.04
				c0.239-4.151,0.489-8.3,0.759-12.76c4,1.189,7.88,2.35,12.161,3.63c-1.181,1.019-2.121,1.83-3.031,2.63v1.59
				c1.491,2.589,3.87,3.08,6.63,3.14c3.42,0.079,4.13-2.66,5.59-4.93v-1.92C86.562,73.356,88.923,73.885,91.362,74.446"/>
		</g>
		<polygon style="clip-path:url(#SVGID_00000135662435342428713870000013912032289694856887_);fill:#E1D153;" points="50.961,16 
			49.076,16.588 47.056,17.241 44.996,18.616 43.548,20.61 42.37,22.802 42.082,25.283 42.082,25.295 42.708,28.604 43.821,30.698 
			45.332,32.515 47.484,33.474 49.193,34.033 50.961,34.292 51.399,34.481 52.305,34.481 52.753,34.326 55.25,33.798 57.278,32.966 
			58.798,31.406 60.075,29.653 60.624,27.542 60.96,25.956 60.96,23.964 60.461,22.116 59.307,19.941 57.727,18.112 55.53,17.064 
			52.7,16 		"/>
		<g style="clip-path:url(#SVGID_00000135662435342428713870000013912032289694856887_);">
			<defs>
				<rect id="SVGID_00000094618411135419060340000017211690921780676749_" x="6.005" y="47.003" width="46.995" height="43.957"/>
			</defs>
			<clipPath id="SVGID_00000166675410706944844170000008209123629831462282_">
				<use xlink:href="#SVGID_00000094618411135419060340000017211690921780676749_"  style="overflow:visible;"/>
			</clipPath>
			<path style="clip-path:url(#SVGID_00000166675410706944844170000008209123629831462282_);fill:#F26C2B;" d="M53,67.743v4.852
				c-0.112,0.359-0.213,0.718-0.325,1.078c-0.696,2.178-1.236,4.424-2.134,6.512c-0.472,1.101-1.404,2.134-2.37,2.875
				c-1.954,1.505-4.065,2.786-6.221,4.223c0.607,1.032,1.269,2.167,1.954,3.323c-2.998,1.023-16.103-0.325-17.551-1.807
				c1.122-2.931,2.088-5.93,3.29-8.951c0.73-1.796,1.538-3.616,2.504-5.412c1.066,1.314,1.942,2.392,2.841,3.503
				c2.044-1.46,4.031-2.885,6.097-4.368c0.248-2.257,2.887-3.885,1.573-6.805c0.898,0.079,1.516,0.146,2.133,0.191
				c2.482,0.191,4.964,0.371,7.445,0.561C52.495,67.541,52.753,67.665,53,67.743"/>
			<path style="clip-path:url(#SVGID_00000166675410706944844170000008209123629831462282_);fill:#E33A3A;" d="M44.589,47.002
				c1.875,1.313,7.131,10.623,8.22,14.565c-3.459,1.122-6.973,2.032-10.646,2.728c-1.28,0.248-2.571,0.472-3.885,0.663
				c0.472-1.539,0.831-2.751,1.28-4.211c-2.47-0.809-4.896-2.055-7.411-2.291c-2.19-0.203-4.795-0.326-6.558,1.864
				c-0.337-0.595-0.674-1.179-1-1.752c-1.235-2.156-2.414-4.222-3.627-6.345c2.46-1.841,4.997-3.672,8.209-4.177
				c0.135-0.023,0.292,0.011,0.404-0.034c4.301-2.032,7.984-0.157,11.668,1.82c0.538,0.281,1.134,0.449,1.785,0.708
				C43.567,49.315,44.072,48.169,44.589,47.002"/>
			<path style="clip-path:url(#SVGID_00000166675410706944844170000008209123629831462282_);fill:#55C95A;" d="M10.092,74.807
				c-0.27-1.764-0.112-3.605-0.146-5.424c-0.011-0.516,0-1.045,0-1.584c-1.437-0.078-2.695-0.145-3.942-0.202
				c0.225-2.639,8.175-13.318,10.545-14.127c1.785,2.156,3.661,4.279,5.423,6.592c1.37,1.786,2.662,3.694,3.808,5.828
				c-1.696,0.236-2.943,0.404-4.38,0.606c0.191,2.393-0.067,4.942,0.718,7.098c0.764,2.088,2.044,4.256,4.773,5.367
				c-2.01,2.83-3.874,5.458-5.817,8.198c-2.942-1.662-5.828-3.201-7.703-6.076c-0.36-0.549-0.876-0.999-1.348-1.459
				C10.664,78.299,10.362,76.513,10.092,74.807"/>
		</g>
	</g>
</g>
</svg>
