<?xml version="1.0" encoding="iso-8859-1"?>
<!-- Generator: Adobe Illustrator 26.0.1, SVG Export Plug-In . SVG Version: 6.00 Build 0)  -->
<svg version="1.1" xmlns="http://www.w3.org/2000/svg" xmlns:xlink="http://www.w3.org/1999/xlink" x="0px" y="0px"
	 viewBox="0 0 100 100" style="enable-background:new 0 0 100 100;" xml:space="preserve">
<g id="Layer_1">
	<g id="G_x28__T1_L1__x29___L1_L1_L1_L1_L1_00000161625937141736468960000001497257873877447310_">
		<g>
			<defs>
				<rect id="SVGID_1_" x="9" y="10" width="83.96" height="82.743"/>
			</defs>
			<clipPath id="SVGID_00000054243470638154771690000017176895070982627774_">
				<use xlink:href="#SVGID_1_"  style="overflow:visible;"/>
			</clipPath>
			<polygon style="clip-path:url(#SVGID_00000054243470638154771690000017176895070982627774_);fill:#55C95A;" points="83.999,10 
				85.883,10.587 87.904,11.24 89.964,12.615 91.412,14.61 92.59,16.801 92.878,19.282 92.878,19.295 92.252,22.604 91.138,24.698 
				89.629,26.515 87.476,27.473 85.768,28.032 83.999,28.291 83.561,28.48 82.654,28.48 82.207,28.326 79.709,27.798 77.682,26.966 
				76.161,25.405 74.884,23.653 74.335,21.541 74,19.956 74,17.965 74.498,16.115 75.654,13.94 77.232,12.111 79.43,11.063 
				82.26,10 			"/>
			<polygon style="clip-path:url(#SVGID_00000054243470638154771690000017176895070982627774_);fill:#523742;" points="83.999,38 
				85.883,38.587 87.904,39.241 89.964,40.615 91.412,42.61 92.59,44.801 92.878,47.282 92.878,47.295 92.252,50.604 91.138,52.698 
				89.629,54.515 87.476,55.474 85.768,56.032 83.999,56.291 83.561,56.48 82.654,56.48 82.207,56.326 79.709,55.798 77.682,54.966 
				76.161,53.405 74.884,51.653 74.335,49.541 74,47.956 74,45.965 74.498,44.116 75.654,41.941 77.232,40.111 79.43,39.063 
				82.26,38 			"/>
			<polygon style="clip-path:url(#SVGID_00000054243470638154771690000017176895070982627774_);fill:#9F9EB1;" points="83.999,68 
				85.883,68.587 87.904,69.241 89.964,70.616 91.412,72.61 92.59,74.802 92.878,77.282 92.878,77.295 92.252,80.604 91.138,82.698 
				89.629,84.515 87.476,85.474 85.768,86.033 83.999,86.291 83.56,86.481 82.655,86.481 82.207,86.326 79.709,85.798 
				77.682,84.966 76.161,83.406 74.884,81.653 74.335,79.541 74,77.956 74,75.965 74.498,74.116 75.654,71.941 77.232,70.112 
				79.43,69.063 82.26,68 			"/>
			<polygon style="clip-path:url(#SVGID_00000054243470638154771690000017176895070982627774_);fill:#F26C2B;" points="52,10 
				53.884,10.587 55.904,11.24 57.964,12.615 59.412,14.61 60.59,16.801 60.879,19.29 60.252,22.604 59.139,24.698 57.629,26.515 
				55.477,27.473 53.768,28.032 51.999,28.291 51.561,28.48 50.654,28.48 50.207,28.326 47.71,27.798 45.683,26.966 44.162,25.405 
				42.885,23.653 42.336,21.541 42.001,19.96 42.001,17.963 42.499,16.115 43.654,13.94 45.233,12.111 47.431,11.063 50.261,10 			
				"/>
			<g style="clip-path:url(#SVGID_00000054243470638154771690000017176895070982627774_);">
				<defs>
					
						<rect id="SVGID_00000150099166560569390770000004966819169169562263_" x="36.739" y="59.322" transform="matrix(0.6653 -0.7465 0.7465 0.6653 -40.0839 59.326)" width="18.779" height="30.098"/>
				</defs>
				<clipPath id="SVGID_00000041996569765114282900000007461891266225729161_">
					<use xlink:href="#SVGID_00000150099166560569390770000004966819169169562263_"  style="overflow:visible;"/>
				</clipPath>
			</g>
			<polygon style="clip-path:url(#SVGID_00000054243470638154771690000017176895070982627774_);fill:#E33A3A;" points="18.999,10 
				20.883,10.587 22.904,11.24 24.964,12.615 26.411,14.61 27.589,16.801 27.878,19.29 27.252,22.604 26.138,24.698 24.628,26.515 
				22.476,27.473 20.767,28.032 18.999,28.291 18.561,28.48 17.654,28.48 17.207,28.326 14.709,27.798 12.682,26.966 11.161,25.405 
				9.884,23.653 9.335,21.541 9,19.956 9,17.963 9.498,16.115 10.654,13.94 12.232,12.111 14.43,11.063 17.26,10 			"/>
		</g>
	</g>
	<g id="L3_00000139271610196137859570000003541882349877052324_">
		<g>
			<defs>
				<rect id="SVGID_00000080194152764519733270000008214707200953626000_" x="8" y="38" width="48" height="46.147"/>
			</defs>
			<clipPath id="SVGID_00000181797074372337617780000005181243733485605553_">
				<use xlink:href="#SVGID_00000080194152764519733270000008214707200953626000_"  style="overflow:visible;"/>
			</clipPath>
			<g style="clip-path:url(#SVGID_00000181797074372337617780000005181243733485605553_);">
				<defs>
					<rect id="SVGID_00000018916354681116694050000003172961014693592471_" x="8" y="38" width="48" height="46.147"/>
				</defs>
				<clipPath id="SVGID_00000005261323905870097030000017230653202399326620_">
					<use xlink:href="#SVGID_00000018916354681116694050000003172961014693592471_"  style="overflow:visible;"/>
				</clipPath>
				<g style="clip-path:url(#SVGID_00000005261323905870097030000017230653202399326620_);">
					<defs>
						<rect id="SVGID_00000047746486770448716840000012515812228935171759_" x="8.004" y="38.002" width="47.995" height="46.148"/>
					</defs>
					<clipPath id="SVGID_00000183214890908046759500000011339774787995172743_">
						<use xlink:href="#SVGID_00000047746486770448716840000012515812228935171759_"  style="overflow:visible;"/>
					</clipPath>
					<g style="clip-path:url(#SVGID_00000183214890908046759500000011339774787995172743_);">
						<defs>
							
								<rect id="SVGID_00000175324867426044454900000006923090097207537562_" x="8.004" y="38.002" width="47.995" height="46.148"/>
						</defs>
						<clipPath id="SVGID_00000125587265971973825850000006367633092552625799_">
							<use xlink:href="#SVGID_00000175324867426044454900000006923090097207537562_"  style="overflow:visible;"/>
						</clipPath>
						<path style="clip-path:url(#SVGID_00000125587265971973825850000006367633092552625799_);fill:#5699DE;" d="M56,59.775v5.092
							c-0.115,0.377-0.218,0.754-0.333,1.132c-0.711,2.287-1.262,4.645-2.179,6.837c-0.482,1.155-1.434,2.24-2.42,3.018
							c-1.996,1.58-4.152,2.923-6.354,4.432c0.619,1.085,1.296,2.275,1.996,3.489c-3.062,1.073-16.446-0.342-17.925-1.898
							c1.147-3.077,2.133-6.224,3.36-9.395c0.745-1.886,1.571-3.796,2.557-5.682c1.09,1.379,1.984,2.511,2.902,3.678
							c2.087-1.532,4.117-3.03,6.227-4.586c0.252-2.369,2.947-4.079,1.606-7.144c0.917,0.083,1.548,0.153,2.179,0.2
							c2.535,0.2,5.069,0.389,7.604,0.589C55.484,59.563,55.748,59.693,56,59.775"/>
						<path style="clip-path:url(#SVGID_00000125587265971973825850000006367633092552625799_);fill:#AD70D6;" d="M47.41,38.002
							c1.915,1.379,7.282,11.152,8.395,15.289c-3.532,1.179-7.122,2.134-10.872,2.865c-1.307,0.259-2.626,0.495-3.968,0.695
							c0.482-1.615,0.849-2.888,1.307-4.421c-2.523-0.849-5-2.157-7.569-2.405c-2.236-0.212-4.897-0.342-6.698,1.957
							c-0.344-0.625-0.688-1.238-1.021-1.839c-1.262-2.263-2.466-4.432-3.704-6.66c2.512-1.933,5.103-3.855,8.383-4.385
							c0.138-0.024,0.298,0.012,0.413-0.035c4.392-2.134,8.154-0.165,11.916,1.91c0.55,0.295,1.158,0.472,1.823,0.743
							C46.366,40.431,46.882,39.228,47.41,38.002"/>
						<path style="clip-path:url(#SVGID_00000125587265971973825850000006367633092552625799_);fill:#E1D153;" d="M12.179,67.189
							c-0.275-1.851-0.115-3.784-0.149-5.694c-0.011-0.542,0-1.096,0-1.662c-1.468-0.083-2.752-0.153-4.025-0.212
							c0.229-2.77,8.349-13.981,10.769-14.829c1.823,2.263,3.739,4.491,5.539,6.92c1.399,1.874,2.718,3.878,3.888,6.118
							c-1.732,0.248-3.005,0.424-4.473,0.637c0.195,2.511-0.069,5.187,0.734,7.45c0.78,2.193,2.087,4.468,4.874,5.635
							c-2.053,2.971-3.957,5.729-5.941,8.605c-3.005-1.745-5.952-3.36-7.867-6.377c-0.367-0.578-0.895-1.049-1.376-1.532
							C12.764,70.856,12.454,68.981,12.179,67.189"/>
					</g>
				</g>
			</g>
		</g>
	</g>
</g>
<g id="Layer_2">
	<g id="Layer_3">
	</g>
</g>
</svg>
