<?xml version="1.0" encoding="iso-8859-1"?>
<!-- Generator: Adobe Illustrator 26.0.1, SVG Export Plug-In . SVG Version: 6.00 Build 0)  -->
<svg version="1.1" xmlns="http://www.w3.org/2000/svg" xmlns:xlink="http://www.w3.org/1999/xlink" x="0px" y="0px"
	 viewBox="0 0 100 100" style="enable-background:new 0 0 100 100;" xml:space="preserve">
<g id="Layer_1">
</g>
<g id="Layer_2">
	<g id="Layer_3">
	</g>
	<g id="G_x28__T2_T2_T2_L1__x29__L1_00000072271695967899329880000003462582956179476617_">
		<g>
			<defs>
				<rect id="SVGID_1_" x="7" y="1" width="85.365" height="95.012"/>
			</defs>
			<clipPath id="SVGID_00000106112262458001027420000009291456460541527958_">
				<use xlink:href="#SVGID_1_"  style="overflow:visible;"/>
			</clipPath>
			<polygon style="clip-path:url(#SVGID_00000106112262458001027420000009291456460541527958_);fill:#9F9EB1;" points="
				42.253,36.994 40.068,38.134 38.036,39.572 36.669,41.67 35.754,44.917 35.818,47.287 36.36,49.586 37.859,51.404 39.14,52.666 
				40.609,53.685 40.916,54.049 41.729,54.454 42.197,54.515 44.669,55.154 46.854,55.313 48.911,54.594 50.834,53.593 
				52.266,51.948 53.273,50.678 54.162,48.893 54.538,47.018 54.473,44.556 53.875,42.215 52.374,40.297 50.316,38.085 
				48.758,37.31 46.81,36.996 44.71,36.681 			"/>
			<g style="clip-path:url(#SVGID_00000106112262458001027420000009291456460541527958_);">
				<defs>
					
						<rect id="SVGID_00000152253307324019808390000001932768903506396580_" x="6.595" y="16.44" transform="matrix(0.4722 -0.8815 0.8815 0.4722 -10.6055 31.5693)" width="28.929" height="16.4"/>
				</defs>
				<clipPath id="SVGID_00000111910336731077320230000008133410654183677621_">
					<use xlink:href="#SVGID_00000152253307324019808390000001932768903506396580_"  style="overflow:visible;"/>
				</clipPath>
				<path style="clip-path:url(#SVGID_00000111910336731077320230000008133410654183677621_);fill:#55C95A;" d="M19.757,35.123
					c-2.866,0.077-9.759-2.959-9.759-2.959c0.063-2.235,0.523-2.138,1.479-4.88c0.039-0.113,0.915-1.655,0.945-1.763
					c0.165-0.615,2.605-4.831,5.696-6.893c0.452-0.302,0.838-0.704,1.307-1.106c-0.727-0.934-1.414-1.817-2.116-2.717
					c1.823-0.913,11.337-1.125,14.886-0.324c-0.773,4.291-1.877,8.484-3.443,12.832c-1.014-1.013-1.809-1.81-2.773-2.773
					c-1.672,1.599-3.031,2.945-4.27,4.822C20.626,31.001,19.82,32.888,19.757,35.123"/>
			</g>
			<polygon style="clip-path:url(#SVGID_00000106112262458001027420000009291456460541527958_);fill:#523742;" points="
				81.478,77.532 79.593,78.119 77.574,78.773 75.513,80.148 74.065,82.141 72.887,84.333 72.599,86.814 72.599,86.827 
				73.225,90.136 74.339,92.23 75.848,94.046 78.001,95.006 79.71,95.565 81.478,95.823 81.916,96.012 82.823,96.012 83.27,95.858 
				85.767,95.33 87.795,94.498 89.316,92.938 90.593,91.184 91.141,89.073 91.477,87.487 91.477,85.496 90.978,83.648 
				89.824,81.472 88.245,79.643 86.047,78.594 83.218,77.532 			"/>
			<g style="clip-path:url(#SVGID_00000106112262458001027420000009291456460541527958_);">
				<defs>
					
						<rect id="SVGID_00000163753555120339810330000000920761195559797122_" x="35.44" y="3.633" transform="matrix(0.7163 -0.6978 0.6978 0.7163 -0.3182 36.5807)" width="18.779" height="30.098"/>
				</defs>
				<clipPath id="SVGID_00000138560944081002225110000016828440706745591458_">
					<use xlink:href="#SVGID_00000163753555120339810330000000920761195559797122_"  style="overflow:visible;"/>
				</clipPath>
				<path style="clip-path:url(#SVGID_00000138560944081002225110000016828440706745591458_);fill:#5699DE;" d="M54.841,24.816
					c0.956,0.925,3.007-0.081,3.327,1.882c-3.333,2.87-6.623,5.712-10.128,8.735c-2.514-3.498-4.189-7.381-6.148-11.084
					c0.09-0.394,0.172-0.726,0.255-1.128c1.42,0.125,2.867,0.264,4.351,0.397c1.378-2.599,0.148-4.793-1.123-6.599
					c-2.069-2.94-5.01-1.89-7.448-1.01c-0.757,0.599-1.272,1.016-1.964,1.566c-1.51-2.481-2.88-4.734-4.265-7.029
					c0.165-0.188,0.267-0.399,0.423-0.454c1.913-0.774,3.78-1.867,5.764-2.194c4.976-0.812,9.551,0.259,13.315,3.879
					c2.403,2.323,4,5.024,4.019,8.44C55.228,21.716,54.982,23.212,54.841,24.816"/>
			</g>
			<g style="clip-path:url(#SVGID_00000106112262458001027420000009291456460541527958_);">
				<defs>
					
						<rect id="SVGID_00000065068516176145169520000005118919718595656338_" x="70.124" y="22.401" transform="matrix(0.8825 -0.4704 0.4704 0.8825 -8.1351 41.1758)" width="16.4" height="28.929"/>
				</defs>
				<clipPath id="SVGID_00000159456359697970883910000014869233031498355119_">
					<use xlink:href="#SVGID_00000065068516176145169520000005118919718595656338_"  style="overflow:visible;"/>
				</clipPath>
				<path style="clip-path:url(#SVGID_00000159456359697970883910000014869233031498355119_);fill:#F26C2B;" d="M70.334,29.958
					c1.528-2.425,7.884-6.469,7.884-6.469c1.823,1.295,1.485,1.623,3.234,3.942c0.072,0.095,0.867,1.68,0.941,1.765
					c0.42,0.479,2.569,4.85,2.565,8.566c0,0.544,0.12,1.088,0.193,1.701c1.181-0.085,2.297-0.166,3.435-0.249
					c-0.253,2.023-5.364,10.05-8.003,12.556c-3.138-3.027-6.01-6.275-8.755-9.993c1.406-0.279,2.511-0.499,3.847-0.765
					c-0.401-2.279-0.764-4.156-1.636-6.23C73.277,32.972,72.157,31.253,70.334,29.958"/>
			</g>
			<g style="clip-path:url(#SVGID_00000106112262458001027420000009291456460541527958_);">
				<defs>
					
						<rect id="SVGID_00000111161860957271563830000011572047249253272985_" x="55.148" y="50.067" transform="matrix(0.9832 -0.1824 0.1824 0.9832 -9.667 13.801)" width="30.099" height="18.778"/>
				</defs>
				<clipPath id="SVGID_00000021836793464351199060000006579337739143219123_">
					<use xlink:href="#SVGID_00000111161860957271563830000011572047249253272985_"  style="overflow:visible;"/>
				</clipPath>
				<path style="clip-path:url(#SVGID_00000021836793464351199060000006579337739143219123_);fill:#AD70D6;" d="M59.536,64.374
					c-1.3,0.282-1.603,2.545-3.413,1.722c-0.535-4.366-1.07-8.681-1.638-13.274c4.305-0.148,8.464,0.616,12.632,1.044
					c0.278,0.294,0.509,0.546,0.797,0.839c-0.893,1.111-1.813,2.237-2.747,3.398c1.395,2.588,3.903,2.785,6.11,2.731
					c3.595-0.087,4.356-3.116,4.977-5.632c-0.076-0.962-0.138-1.622-0.21-2.504c2.901,0.123,5.536,0.235,8.213,0.359
					c0.065,0.242,0.184,0.444,0.142,0.604c-0.418,2.02-0.547,4.18-1.376,6.012c-2.089,4.588-5.521,7.797-10.623,8.916
					c-3.265,0.708-6.399,0.536-9.25-1.346C61.898,66.418,60.791,65.383,59.536,64.374"/>
			</g>
			<g style="clip-path:url(#SVGID_00000106112262458001027420000009291456460541527958_);">
				<defs>
					
						<rect id="SVGID_00000103238942279291763760000000076517049809286843_" x="31.339" y="66.792" transform="matrix(0.0449 -0.999 0.999 0.0449 -43.4126 117.1036)" width="16.399" height="28.929"/>
				</defs>
				<clipPath id="SVGID_00000029033142058913908080000016428590912507371922_">
					<use xlink:href="#SVGID_00000103238942279291763760000000076517049809286843_"  style="overflow:visible;"/>
				</clipPath>
				<path style="clip-path:url(#SVGID_00000029033142058913908080000016428590912507371922_);fill:#E33A3A;" d="M49.554,77.902
					c1.308,2.551,1.548,10.079,1.548,10.079c-2.042,0.909-2.153,0.452-5.039,0.775c-0.119,0.013-1.888-0.11-1.998-0.09
					c-0.626,0.117-5.483-0.262-8.678-2.159c-0.468-0.277-0.997-0.451-1.562-0.7c-0.528,1.059-1.028,2.061-1.536,3.082
					c-1.612-1.249-5.914-9.737-6.725-13.285c4.203-1.156,8.462-1.973,13.06-2.439c-0.477,1.351-0.851,2.414-1.303,3.699
					c2.165,0.817,3.965,1.461,6.194,1.767C45.461,78.899,47.511,78.811,49.554,77.902"/>
			</g>
			<g style="clip-path:url(#SVGID_00000106112262458001027420000009291456460541527958_);">
				<defs>
					
						<rect id="SVGID_00000098912271673031087320000010459762336926318736_" x="7.135" y="53.383" transform="matrix(0.1767 -0.9843 0.9843 0.1767 -43.5205 73.5133)" width="30.098" height="18.779"/>
				</defs>
				<clipPath id="SVGID_00000027571873124001802980000013854588561180315052_">
					<use xlink:href="#SVGID_00000098912271673031087320000010459762336926318736_"  style="overflow:visible;"/>
				</clipPath>
				<path style="clip-path:url(#SVGID_00000027571873124001802980000013854588561180315052_);fill:#E1D153;" d="M21.351,51.061
					c0.196-1.316-1.815-2.398-0.404-3.801c4.273,1.042,8.498,2.065,12.996,3.157c-1.383,4.08-3.568,7.701-5.44,11.449
					c-0.373,0.156-0.691,0.282-1.066,0.449c-0.724-1.228-1.453-2.486-2.208-3.771c-2.915,0.391-3.984,2.668-4.714,4.752
					c-1.189,3.393,1.377,5.175,3.51,6.645c0.928,0.268,1.566,0.444,2.417,0.688c-1.14,2.671-2.175,5.096-3.237,7.557
					c-0.25-0.024-0.48,0.016-0.616-0.08c-1.742-1.106-3.717-1.988-5.137-3.412c-3.555-3.574-5.345-7.919-4.589-13.087
					c0.492-3.306,1.759-6.177,4.527-8.179C18.604,52.549,19.964,51.879,21.351,51.061"/>
			</g>
		</g>
	</g>
</g>
<g id="Layer_4">
</g>
</svg>
