<?xml version="1.0" encoding="iso-8859-1"?>
<!-- Generator: Adobe Illustrator 26.0.1, SVG Export Plug-In . SVG Version: 6.00 Build 0)  -->
<svg version="1.1" xmlns="http://www.w3.org/2000/svg" xmlns:xlink="http://www.w3.org/1999/xlink" x="0px" y="0px"
	 viewBox="0 0 100 100" style="enable-background:new 0 0 100 100;" xml:space="preserve">
<g id="Layer_1">
	<g id="G_x28__T1_T1_T1_L3__x29__T1_L1_00000183218227933918598740000016093323763850068378_">
		<g>
			<defs>
				<rect id="SVGID_1_" x="-2" y="3" width="102.767" height="96.721"/>
			</defs>
			<clipPath id="SVGID_00000126324500577550568460000001082922392896795805_">
				<use xlink:href="#SVGID_1_"  style="overflow:visible;"/>
			</clipPath>
			<g style="clip-path:url(#SVGID_00000126324500577550568460000001082922392896795805_);">
				<defs>
					<rect id="SVGID_00000132810574914770414210000014043461247912084868_" x="-2" y="3" width="102.767" height="96.721"/>
				</defs>
				<clipPath id="SVGID_00000126289168895663229020000003096717543106769563_">
					<use xlink:href="#SVGID_00000132810574914770414210000014043461247912084868_"  style="overflow:visible;"/>
				</clipPath>
				<g style="clip-path:url(#SVGID_00000126289168895663229020000003096717543106769563_);">
					<defs>
						<rect id="SVGID_00000135692575505272840840000012820876587604581036_" x="-2" y="3" width="102.767" height="96.721"/>
					</defs>
					<clipPath id="SVGID_00000119801165370681244130000010043163026286213551_">
						<use xlink:href="#SVGID_00000135692575505272840840000012820876587604581036_"  style="overflow:visible;"/>
					</clipPath>
					<g style="opacity:0.99;clip-path:url(#SVGID_00000119801165370681244130000010043163026286213551_);">
						<g>
							<defs>
								
									<rect id="SVGID_00000093883314363562512270000014333640554690834847_" x="18.408" y="14.642" width="47.766" height="52.098"/>
							</defs>
							<clipPath id="SVGID_00000080920173086974493530000001279715843488922559_">
								<use xlink:href="#SVGID_00000093883314363562512270000014333640554690834847_"  style="overflow:visible;"/>
							</clipPath>
							<g style="clip-path:url(#SVGID_00000080920173086974493530000001279715843488922559_);">
								<defs>
									<polygon id="SVGID_00000036217137245041876260000003120566783537146502_" points="18.412,17.375 20.774,66.739 
										66.17,64.011 63.809,14.647 									"/>
								</defs>
								<clipPath id="SVGID_00000043439537070217631630000017171683419735505802_">
									<use xlink:href="#SVGID_00000036217137245041876260000003120566783537146502_"  style="overflow:visible;"/>
								</clipPath>
								<g style="clip-path:url(#SVGID_00000043439537070217631630000017171683419735505802_);">
									<defs>
										
											<rect id="SVGID_00000103955735804627501860000018227734356346506386_" x="23.097" y="15.928" width="34.56" height="22.64"/>
									</defs>
									<clipPath id="SVGID_00000072252408169169654150000010829131011454562188_">
										<use xlink:href="#SVGID_00000103955735804627501860000018227734356346506386_"  style="overflow:visible;"/>
									</clipPath>
									<g style="clip-path:url(#SVGID_00000072252408169169654150000010829131011454562188_);">
										<defs>
											
												<rect id="SVGID_00000003796628362462114820000016991966398388321155_" x="23.097" y="15.928" width="34.56" height="22.64"/>
										</defs>
										<clipPath id="SVGID_00000173853439195699553950000010020316812502989759_">
											<use xlink:href="#SVGID_00000003796628362462114820000016991966398388321155_"  style="overflow:visible;"/>
										</clipPath>
										<path style="clip-path:url(#SVGID_00000173853439195699553950000010020316812502989759_);fill:#F26C2B;" d="
											M57.656,26.128c-2.13,2-4.229,4.11-6.53,6.1c-1.78,1.55-3.679,3.03-5.83,4.36c-0.329-1.76-0.57-3.06-0.849-4.56
											c-2.46,0.35-5.101,0.24-7.291,1.19c-2.12,0.94-4.29,2.42-5.3,5.35c-3.03-1.93-5.83-3.73-8.76-5.6
											c1.57-3.19,3.01-6.32,5.88-8.47c0.56-0.41,0.991-0.98,1.44-1.51c1.31-1.5,3.13-1.93,4.88-2.32
											c1.81-0.4,3.72-0.34,5.6-0.49c0.531-0.05,1.08-0.07,1.63-0.1c0.01-1.52,0.02-2.84,0.01-4.15
											C45.276,15.998,56.707,23.688,57.656,26.128"/>
									</g>
								</g>
								<g style="clip-path:url(#SVGID_00000043439537070217631630000017171683419735505802_);">
									<defs>
										
											<rect id="SVGID_00000067209957846386374200000013796913997714152373_" x="20.074" y="38.618" width="25.162" height="26.98"/>
									</defs>
									<clipPath id="SVGID_00000010285277455145625670000016695254318739344046_">
										<use xlink:href="#SVGID_00000067209957846386374200000013796913997714152373_"  style="overflow:visible;"/>
									</clipPath>
									<g style="clip-path:url(#SVGID_00000010285277455145625670000016695254318739344046_);">
										<defs>
											
												<rect id="SVGID_00000135657718558086783980000018096274221564127379_" x="20.074" y="38.618" width="25.162" height="26.98"/>
										</defs>
										<clipPath id="SVGID_00000072273493841691906800000017244387402997111969_">
											<use xlink:href="#SVGID_00000135657718558086783980000018096274221564127379_"  style="overflow:visible;"/>
										</clipPath>
										<path style="clip-path:url(#SVGID_00000072273493841691906800000017244387402997111969_);fill:#E33A3A;" d="
											M45.237,54.379c-0.03,0.939-0.07,1.6-0.09,2.25c-0.07,2.619-0.13,5.239-0.2,7.85c-0.01,0.28-0.13,0.559-0.2,0.82
											l-5.01,0.3c-0.37-0.09-0.75-0.18-1.13-0.271c-2.28-0.599-4.63-1.029-6.83-1.84c-1.16-0.429-2.27-1.339-3.09-2.309
											c-1.65-1.96-3.08-4.101-4.67-6.271c-1.04,0.7-2.18,1.46-3.34,2.25c-1.2-3.08-0.47-16.929,0.99-18.539
											c3.08,0.989,6.23,1.82,9.41,2.9c1.89,0.65,3.81,1.39,5.71,2.29c-1.3,1.199-2.37,2.19-3.47,3.199
											c1.61,2.06,3.18,4.06,4.82,6.141C40.477,53.269,42.287,55.939,45.237,54.379"/>
									</g>
								</g>
								<g style="clip-path:url(#SVGID_00000043439537070217631630000017171683419735505802_);">
									<defs>
										
											<rect id="SVGID_00000109750140532412980350000017774778079366917820_" x="46.887" y="30.678" width="18.86" height="34.04"/>
									</defs>
									<clipPath id="SVGID_00000110459294324828099710000001377938363520147369_">
										<use xlink:href="#SVGID_00000109750140532412980350000017774778079366917820_"  style="overflow:visible;"/>
									</clipPath>
									<g style="clip-path:url(#SVGID_00000110459294324828099710000001377938363520147369_);">
										<defs>
											
												<rect id="SVGID_00000168824799764447461880000006875237517181742007_" x="46.887" y="30.678" width="18.86" height="34.04"/>
										</defs>
										<clipPath id="SVGID_00000176745210521922925940000005565109874372061318_">
											<use xlink:href="#SVGID_00000168824799764447461880000006875237517181742007_"  style="overflow:visible;"/>
										</clipPath>
										<path style="clip-path:url(#SVGID_00000176745210521922925940000005565109874372061318_);fill:#55C95A;" d="
											M63.946,39.469c2.32,4.39,0.57,8.38-1.29,12.37c-0.26,0.58-0.409,1.22-0.64,1.92c1.29,0.489,2.5,0.95,3.731,1.42
											c-1.261,2.05-10.611,8.149-14.631,9.54c-1.33-3.57-2.45-7.2-3.35-11.02c-0.32-1.33-0.62-2.67-0.88-4.04
											c1.61,0.4,2.88,0.7,4.41,1.09c0.711-2.65,1.88-5.27,2.001-7.93c0.099-2.31,0.089-5.06-2.261-6.77
											c0.6-0.39,1.19-0.79,1.761-1.16c2.17-1.43,4.239-2.8,6.37-4.21c2.029,2.47,4.04,5.02,4.729,8.37
											C63.926,39.189,63.896,39.349,63.946,39.469"/>
									</g>
								</g>
							</g>
						</g>
					</g>
				</g>
				<g style="clip-path:url(#SVGID_00000126289168895663229020000003096717543106769563_);">
					<defs>
						<polygon id="SVGID_00000070096731953546399590000018224983754624054183_" points="63.154,38.848 76.044,52.974 
							100.767,29.573 87.876,15.447 						"/>
					</defs>
					<clipPath id="SVGID_00000118371729684538352480000002603781203956060852_">
						<use xlink:href="#SVGID_00000070096731953546399590000018224983754624054183_"  style="overflow:visible;"/>
					</clipPath>
					<g style="clip-path:url(#SVGID_00000118371729684538352480000002603781203956060852_);">
						<defs>
							<rect id="SVGID_00000045605248287085558900000015440239831529454998_" x="65.867" y="22.968" width="31.1" height="23.694"/>
						</defs>
						<clipPath id="SVGID_00000126317735638478169020000011611752889102317954_">
							<use xlink:href="#SVGID_00000045605248287085558900000015440239831529454998_"  style="overflow:visible;"/>
						</clipPath>
						<g style="clip-path:url(#SVGID_00000126317735638478169020000011611752889102317954_);">
							<defs>
								
									<rect id="SVGID_00000173876804286446286290000012371965117064559500_" x="65.867" y="22.968" width="31.1" height="23.694"/>
							</defs>
							<clipPath id="SVGID_00000057118057141374872090000008526839761427171518_">
								<use xlink:href="#SVGID_00000173876804286446286290000012371965117064559500_"  style="overflow:visible;"/>
							</clipPath>
							<path style="clip-path:url(#SVGID_00000057118057141374872090000008526839761427171518_);fill:#AD70D6;" d="M96.967,29.958
								c-0.931,2.48-1.391,2.2-3.49,4.91c-0.09,0.11-1.64,1.51-1.71,1.62c-0.42,0.62-4.7,4.42-8.88,5.57
								c-0.61,0.16-1.191,0.47-1.86,0.74c0.45,1.32,0.86,2.57,1.29,3.84c-2.35,0.34-12.86-3.02-16.451-5.25
								c2.491-4.51,5.301-8.79,8.681-13.07c0.72,1.52,1.29,2.71,1.98,4.15c2.45-1.16,4.45-2.15,6.53-3.79
								c1.809-1.43,3.41-3.23,4.34-5.71C90.567,23.958,96.967,29.958,96.967,29.958"/>
						</g>
					</g>
				</g>
				<g style="clip-path:url(#SVGID_00000126289168895663229020000003096717543106769563_);">
					<defs>
						<polygon id="SVGID_00000022552007547032384770000014771465754232220032_" points="-2,22.341 31.5,24.474 32.886,5.133 
							-0.615,3.001 						"/>
					</defs>
					<clipPath id="SVGID_00000057842817729301739740000006928459648513779343_">
						<use xlink:href="#SVGID_00000022552007547032384770000014771465754232220032_"  style="overflow:visible;"/>
					</clipPath>
					<g style="clip-path:url(#SVGID_00000057842817729301739740000006928459648513779343_);">
						<defs>
							<rect id="SVGID_00000004547096994349408680000012190026011745167263_" x="2.237" y="4.738" width="29.24" height="18.58"/>
						</defs>
						<clipPath id="SVGID_00000048481643418990113060000013580602832624171155_">
							<use xlink:href="#SVGID_00000004547096994349408680000012190026011745167263_"  style="overflow:visible;"/>
						</clipPath>
						<g style="clip-path:url(#SVGID_00000048481643418990113060000013580602832624171155_);">
							<defs>
								<rect id="SVGID_00000124860893090257658430000003449855435560727681_" x="2.237" y="4.738" width="29.24" height="18.58"/>
							</defs>
							<clipPath id="SVGID_00000182485891156158641270000001195526621966383749_">
								<use xlink:href="#SVGID_00000124860893090257658430000003449855435560727681_"  style="overflow:visible;"/>
							</clipPath>
							<path style="clip-path:url(#SVGID_00000182485891156158641270000001195526621966383749_);fill:#E1D153;" d="M24.107,4.868
								c1.83,1.51,6.55,11.63,7.37,15.83c-4.91,1.28-9.88,2.16-15.23,2.62c0.59-1.59,1.06-2.84,1.63-4.35
								c-2.49-1.01-4.56-1.8-7.13-2.21c-2.25-0.36-4.64-0.3-7.04,0.74c-1.43-3.05-1.47-11.95-1.47-11.95
								c2.4-1.03,2.52-0.48,5.88-0.81c0.13-0.01,2.18,0.17,2.31,0.15c0.73-0.12,6.36,0.42,10,2.73c0.54,0.34,1.15,0.55,1.79,0.86
								C22.866,7.239,23.476,6.069,24.107,4.868"/>
						</g>
					</g>
				</g>
				<g style="clip-path:url(#SVGID_00000126289168895663229020000003096717543106769563_);">
					<defs>
						<polygon id="SVGID_00000058570054622438032980000014315574941698881943_" points="11.557,97.479 30.57,98.335 32.402,64.185 
							13.387,63.33 						"/>
					</defs>
					<clipPath id="SVGID_00000111882917865052934350000001570239753913611923_">
						<use xlink:href="#SVGID_00000058570054622438032980000014315574941698881943_"  style="overflow:visible;"/>
					</clipPath>
					<g style="clip-path:url(#SVGID_00000111882917865052934350000001570239753913611923_);">
						<defs>
							<rect id="SVGID_00000143618921374447353020000005714675080052204172_" x="13.196" y="64.318" width="18.19" height="30.18"/>
						</defs>
						<clipPath id="SVGID_00000124872204225642653500000009653456360579583873_">
							<use xlink:href="#SVGID_00000143618921374447353020000005714675080052204172_"  style="overflow:visible;"/>
						</clipPath>
						<g style="clip-path:url(#SVGID_00000124872204225642653500000009653456360579583873_);">
							<defs>
								
									<rect id="SVGID_00000147204941604604881210000012578394846909371781_" x="13.196" y="64.318" width="18.19" height="30.18"/>
							</defs>
							<clipPath id="SVGID_00000085240100846887858240000001185883301394347679_">
								<use xlink:href="#SVGID_00000147204941604604881210000012578394846909371781_"  style="overflow:visible;"/>
							</clipPath>
							<path style="clip-path:url(#SVGID_00000085240100846887858240000001185883301394347679_);fill:#5699DE;" d="M28.697,64.318
								c1.3,4.96,2.2,9.99,2.69,15.43c-1.57-0.57-2.8-1.01-4.28-1.539c-0.98,2.559-1.74,4.689-2.12,7.319
								c-0.34,2.3-0.26,4.72,0.78,7.141c-2.98,1.54-11.72,1.829-11.72,1.829c-1.04-2.409-0.5-2.539-0.85-5.95
								c-0.01-0.14,0.15-2.23,0.13-2.36c-0.13-0.74,0.36-6.479,2.6-10.26c0.33-0.549,0.54-1.17,0.83-1.839
								c-1.22-0.63-2.38-1.221-3.56-1.821C14.667,70.368,24.567,65.278,28.697,64.318"/>
						</g>
					</g>
				</g>
				<polygon style="clip-path:url(#SVGID_00000126289168895663229020000003096717543106769563_);fill:#9F9EB1;" points="
					81.73,72.978 79.842,73.566 77.823,74.22 75.762,75.594 74.314,77.588 73.136,79.78 72.848,82.261 72.848,82.273 73.474,85.582 
					74.588,87.677 76.097,89.493 78.25,90.452 79.959,91.011 81.727,91.27 82.167,91.459 83.071,91.459 83.519,91.305 
					86.016,90.776 88.045,89.944 89.565,88.385 90.842,86.631 91.39,84.52 91.726,82.934 91.726,80.943 91.227,79.094 
					90.073,76.919 88.494,75.089 86.296,74.041 83.464,72.978 				"/>
				<g style="clip-path:url(#SVGID_00000126289168895663229020000003096717543106769563_);">
					<defs>
						
							<rect id="SVGID_00000129902418493946526570000007534547742175112842_" x="42.549" y="72.96" transform="matrix(0.7465 -0.6653 0.6653 0.7465 -40.1913 59.1942)" width="30.098" height="18.779"/>
					</defs>
					<clipPath id="SVGID_00000055664612158509618000000010567391481759118736_">
						<use xlink:href="#SVGID_00000129902418493946526570000007534547742175112842_"  style="overflow:visible;"/>
					</clipPath>
				</g>
			</g>
		</g>
	</g>
	<g id="L1_00000092444181705335532050000017600257130058073763_">
		<g>
			<defs>
				<rect id="SVGID_00000067920537712876064090000012532830463329062300_" x="49" y="73" width="18.96" height="18.48"/>
			</defs>
			<clipPath id="SVGID_00000056404181409435736940000011431234623208567172_">
				<use xlink:href="#SVGID_00000067920537712876064090000012532830463329062300_"  style="overflow:visible;"/>
			</clipPath>
			<g style="clip-path:url(#SVGID_00000056404181409435736940000011431234623208567172_);">
				<defs>
					<rect id="SVGID_00000023985995968062788670000012915727673292213412_" x="49" y="73" width="18.96" height="18.48"/>
				</defs>
				<clipPath id="SVGID_00000164510881788735286120000018050230048156438959_">
					<use xlink:href="#SVGID_00000023985995968062788670000012915727673292213412_"  style="overflow:visible;"/>
				</clipPath>
				<g style="clip-path:url(#SVGID_00000164510881788735286120000018050230048156438959_);">
					<defs>
						
							<rect id="SVGID_00000085219493849944874130000004802693299482749341_" x="49.082" y="72.948" width="19.053" height="18.706"/>
					</defs>
					<clipPath id="SVGID_00000102543598801464640380000002404917000632874146_">
						<use xlink:href="#SVGID_00000085219493849944874130000004802693299482749341_"  style="overflow:visible;"/>
					</clipPath>
					<g style="clip-path:url(#SVGID_00000102543598801464640380000002404917000632874146_);">
						<defs>
							
								<rect id="SVGID_00000140707246064587749400000006097655684415480750_" x="49.082" y="72.948" width="19.053" height="18.706"/>
						</defs>
						<clipPath id="SVGID_00000054946956172609581570000016432837208929033882_">
							<use xlink:href="#SVGID_00000140707246064587749400000006097655684415480750_"  style="overflow:visible;"/>
						</clipPath>
						<polygon style="clip-path:url(#SVGID_00000054946956172609581570000016432837208929033882_);fill:#523742;" points="
							68.135,81.613 68.033,82.612 67.624,84.541 67.075,86.653 65.799,88.406 64.278,89.966 62.25,90.798 59.753,91.326 
							58.801,91.654 57.961,91.291 56.192,91.033 54.483,90.474 52.331,89.515 50.821,87.698 49.708,85.604 49.081,82.29 
							49.37,79.802 50.548,77.61 51.996,75.616 54.056,74.241 56.076,73.587 58.102,72.956 59.561,72.948 62.529,74.063 
							64.727,75.112 66.306,76.941 67.461,79.116 						"/>
					</g>
				</g>
			</g>
		</g>
	</g>
</g>
<g id="Layer_2">
	<g id="Layer_3">
	</g>
</g>
</svg>
