<?xml version="1.0" encoding="iso-8859-1"?>
<!-- Generator: Adobe Illustrator 26.0.1, SVG Export Plug-In . SVG Version: 6.00 Build 0)  -->
<svg version="1.1" xmlns="http://www.w3.org/2000/svg" xmlns:xlink="http://www.w3.org/1999/xlink" x="0px" y="0px"
	 viewBox="0 0 100 100" style="enable-background:new 0 0 100 100;" xml:space="preserve">
<g id="Layer_1" style="display:none;">
	
		<image style="display:inline;overflow:visible;" width="80" height="80" xlink:href="../old_images/xrule4.jpg"  transform="matrix(0.2 0 0 0.2 1.5223 81.0468)">
	</image>
</g>
<g id="Layer_2">
	<g id="L1_00000178924296921946642270000001176795587435070353_">
		<g>
			<defs>
				<rect id="SVGID_1_" x="13" y="6" width="16.891" height="16.675"/>
			</defs>
			<clipPath id="SVGID_00000158714661059042031470000010137559449440807613_">
				<use xlink:href="#SVGID_1_"  style="overflow:visible;"/>
			</clipPath>
			<g style="clip-path:url(#SVGID_00000158714661059042031470000010137559449440807613_);">
				<defs>
					<rect id="SVGID_00000004519443758885612160000008586411144387637154_" x="13" y="6" width="16.891" height="16.675"/>
				</defs>
				<clipPath id="SVGID_00000016794612617788702780000013274172815905097617_">
					<use xlink:href="#SVGID_00000004519443758885612160000008586411144387637154_"  style="overflow:visible;"/>
				</clipPath>
				<g style="clip-path:url(#SVGID_00000016794612617788702780000013274172815905097617_);">
					<defs>
						<rect id="SVGID_00000006683942499456424510000001771204983647446698_" x="13.073" y="5.953" width="16.975" height="16.879"/>
					</defs>
					<clipPath id="SVGID_00000064351330565162734420000003310555616772836996_">
						<use xlink:href="#SVGID_00000006683942499456424510000001771204983647446698_"  style="overflow:visible;"/>
					</clipPath>
					<g style="clip-path:url(#SVGID_00000064351330565162734420000003310555616772836996_);">
						<defs>
							
								<rect id="SVGID_00000155835785153179035210000007711191719237821112_" x="13.073" y="5.953" width="16.975" height="16.879"/>
						</defs>
						<clipPath id="SVGID_00000145054272661478564830000009141202155202515842_">
							<use xlink:href="#SVGID_00000155835785153179035210000007711191719237821112_"  style="overflow:visible;"/>
						</clipPath>
						<polygon style="clip-path:url(#SVGID_00000145054272661478564830000009141202155202515842_);fill:#E33A3A;" points="
							30.048,13.772 29.957,14.673 29.592,16.414 29.103,18.32 27.966,19.901 26.611,21.309 24.805,22.06 22.58,22.536 
							21.732,22.832 20.984,22.505 19.408,22.272 17.885,21.767 15.968,20.902 14.623,19.262 13.631,17.373 13.072,14.383 
							13.33,12.138 14.379,10.16 15.669,8.36 17.505,7.12 19.304,6.529 21.109,5.96 22.409,5.953 25.053,6.959 27.011,7.906 
							28.418,9.556 29.447,11.519 						"/>
					</g>
				</g>
			</g>
		</g>
	</g>
	<g id="L1_00000016791623347750009130000006302547149979817359_">
		<g>
			<defs>
				<rect id="SVGID_00000170969275664117241940000017748708782570220431_" x="40" y="6" width="16.891" height="16.675"/>
			</defs>
			<clipPath id="SVGID_00000166670024360781401380000007602005194431120797_">
				<use xlink:href="#SVGID_00000170969275664117241940000017748708782570220431_"  style="overflow:visible;"/>
			</clipPath>
			<g style="clip-path:url(#SVGID_00000166670024360781401380000007602005194431120797_);">
				<defs>
					<rect id="SVGID_00000041988704155671114980000010418463323572888716_" x="40" y="6" width="16.891" height="16.675"/>
				</defs>
				<clipPath id="SVGID_00000050663210901788633720000000759145893033359034_">
					<use xlink:href="#SVGID_00000041988704155671114980000010418463323572888716_"  style="overflow:visible;"/>
				</clipPath>
				<g style="clip-path:url(#SVGID_00000050663210901788633720000000759145893033359034_);">
					<defs>
						<rect id="SVGID_00000123416834344988649920000003758441308345718173_" x="40.073" y="5.953" width="16.975" height="16.879"/>
					</defs>
					<clipPath id="SVGID_00000144326788470994612690000017896323936748575670_">
						<use xlink:href="#SVGID_00000123416834344988649920000003758441308345718173_"  style="overflow:visible;"/>
					</clipPath>
					<g style="clip-path:url(#SVGID_00000144326788470994612690000017896323936748575670_);">
						<defs>
							
								<rect id="SVGID_00000163784387351826733640000017843159566120349085_" x="40.073" y="5.953" width="16.975" height="16.879"/>
						</defs>
						<clipPath id="SVGID_00000096027543937089295560000016938656570599567277_">
							<use xlink:href="#SVGID_00000163784387351826733640000017843159566120349085_"  style="overflow:visible;"/>
						</clipPath>
						<polygon style="clip-path:url(#SVGID_00000096027543937089295560000016938656570599567277_);fill:#F26C2B;" points="
							57.048,13.772 56.957,14.673 56.592,16.414 56.103,18.32 54.966,19.901 53.611,21.309 51.805,22.06 49.58,22.536 
							48.732,22.832 47.984,22.505 46.408,22.272 44.885,21.767 42.968,20.902 41.623,19.262 40.631,17.373 40.072,14.383 
							40.33,12.138 41.379,10.16 42.669,8.36 44.505,7.12 46.304,6.529 48.109,5.96 49.409,5.953 52.053,6.959 54.011,7.906 
							55.418,9.556 56.447,11.519 						"/>
					</g>
				</g>
			</g>
		</g>
	</g>
	<g id="L1_00000177475710917586807590000004001757072818577301_">
		<g>
			<defs>
				<rect id="SVGID_00000007428023130492690030000006759767244471497915_" x="66" y="6" width="16.891" height="16.675"/>
			</defs>
			<clipPath id="SVGID_00000033365657830695123010000001155659169014395802_">
				<use xlink:href="#SVGID_00000007428023130492690030000006759767244471497915_"  style="overflow:visible;"/>
			</clipPath>
			<g style="clip-path:url(#SVGID_00000033365657830695123010000001155659169014395802_);">
				<defs>
					<rect id="SVGID_00000036211528593341661810000015674362506037702074_" x="66" y="6" width="16.891" height="16.675"/>
				</defs>
				<clipPath id="SVGID_00000053535392565911850470000001339476965186265988_">
					<use xlink:href="#SVGID_00000036211528593341661810000015674362506037702074_"  style="overflow:visible;"/>
				</clipPath>
				<g style="clip-path:url(#SVGID_00000053535392565911850470000001339476965186265988_);">
					<defs>
						<rect id="SVGID_00000031918826921940563290000014861767999248152763_" x="66.073" y="5.953" width="16.975" height="16.879"/>
					</defs>
					<clipPath id="SVGID_00000179618946430545750050000017125924295560489906_">
						<use xlink:href="#SVGID_00000031918826921940563290000014861767999248152763_"  style="overflow:visible;"/>
					</clipPath>
					<g style="clip-path:url(#SVGID_00000179618946430545750050000017125924295560489906_);">
						<defs>
							
								<rect id="SVGID_00000168814785464423502030000011439742552893611686_" x="66.073" y="5.953" width="16.975" height="16.879"/>
						</defs>
						<clipPath id="SVGID_00000177443772987403915100000000839368030750581157_">
							<use xlink:href="#SVGID_00000168814785464423502030000011439742552893611686_"  style="overflow:visible;"/>
						</clipPath>
						<polygon style="clip-path:url(#SVGID_00000177443772987403915100000000839368030750581157_);fill:#55C95A;" points="
							83.048,13.772 82.957,14.673 82.592,16.414 82.103,18.32 80.966,19.901 79.611,21.309 77.805,22.06 75.58,22.536 
							74.732,22.832 73.984,22.505 72.408,22.272 70.885,21.767 68.968,20.902 67.623,19.262 66.631,17.373 66.072,14.383 
							66.33,12.138 67.379,10.16 68.669,8.36 70.505,7.12 72.304,6.529 74.109,5.96 75.409,5.953 78.053,6.959 80.011,7.906 
							81.418,9.556 82.447,11.519 						"/>
					</g>
				</g>
			</g>
		</g>
	</g>
	<g id="G_x28__T1_T1_T1_T1_L1__x29__00000119819463124957164840000012127808624611495076_">
		<g>
			<defs>
				<rect id="SVGID_00000009548093006325061270000012375066580578643884_" x="10" y="24" width="77" height="77.181"/>
			</defs>
			<clipPath id="SVGID_00000072281397810420610830000017730828132398103180_">
				<use xlink:href="#SVGID_00000009548093006325061270000012375066580578643884_"  style="overflow:visible;"/>
			</clipPath>
			<g style="clip-path:url(#SVGID_00000072281397810420610830000017730828132398103180_);">
				<defs>
					<polygon id="SVGID_00000035529659128780727960000000302339796093868161_" points="24.233,38.855 48.109,53.003 57.148,38.456 
						33.273,24.309 					"/>
				</defs>
				<clipPath id="SVGID_00000140698601097561289270000012440452718677134756_">
					<use xlink:href="#SVGID_00000035529659128780727960000000302339796093868161_"  style="overflow:visible;"/>
				</clipPath>
				<path style="clip-path:url(#SVGID_00000140698601097561289270000012440452718677134756_);fill:#5699DE;" d="M51.109,41.765
					c1.074,0.594,2.682-0.753,3.427,0.896c-2.328,3.274-4.623,6.514-7.069,9.961c-3.07-2.498-5.477-5.524-8.098-8.328
					c-0.01-0.367-0.014-0.677-0.032-1.048c1.305-0.212,2.637-0.419,4.001-0.639c0.634-2.592-0.981-4.238-2.542-5.533
					c-2.541-2.11-4.939-0.522-6.925,0.804c-0.541,0.697-0.907,1.18-1.401,1.819c-1.932-1.833-3.686-3.498-5.463-5.198
					c0.104-0.203,0.147-0.41,0.275-0.494c1.537-1.113,2.961-2.495,4.667-3.233c4.281-1.841,8.64-1.939,12.863,0.383
					c2.697,1.492,4.76,3.499,5.571,6.491C50.737,38.958,50.863,40.326,51.109,41.765"/>
			</g>
			<g style="clip-path:url(#SVGID_00000072281397810420610830000017730828132398103180_);">
				<defs>
					<polygon id="SVGID_00000080913113499546172450000002748610005962915768_" points="58.556,61.336 74.113,68.999 86.691,44.651 
						71.135,36.988 					"/>
				</defs>
				<clipPath id="SVGID_00000039105005253925416590000009809340993409139859_">
					<use xlink:href="#SVGID_00000080913113499546172450000002748610005962915768_"  style="overflow:visible;"/>
				</clipPath>
				<path style="clip-path:url(#SVGID_00000039105005253925416590000009809340993409139859_);fill:#AD70D6;" d="M70.263,63.378
					c-0.522,1.092,0.978,2.552-0.648,3.406c-3.524-2.011-7.01-3.992-10.72-6.104c2.31-3.185,5.212-5.764,7.87-8.534
					c0.373-0.039,0.688-0.066,1.066-0.114c0.319,1.254,0.635,2.535,0.966,3.845c2.695,0.414,4.25-1.286,5.45-2.907
					c1.956-2.639,0.147-4.85-1.361-6.679c-0.753-0.473-1.275-0.79-1.967-1.222c1.721-2.024,3.285-3.863,4.881-5.725
					c0.215,0.085,0.431,0.111,0.526,0.228c1.256,1.411,2.779,2.688,3.665,4.292c2.214,4.023,2.655,8.259,0.613,12.551
					c-1.313,2.744-3.2,4.908-6.192,5.931C73.099,62.797,71.712,63.027,70.263,63.378"/>
			</g>
			<g style="clip-path:url(#SVGID_00000072281397810420610830000017730828132398103180_);">
				<defs>
					<polygon id="SVGID_00000170237737476993450760000005855594717112098483_" points="10.309,80.35 25.858,88.028 38.46,63.691 
						22.91,56.014 					"/>
				</defs>
				<clipPath id="SVGID_00000151506368159540906170000004742713284979489718_">
					<use xlink:href="#SVGID_00000170237737476993450760000005855594717112098483_"  style="overflow:visible;"/>
				</clipPath>
				<path style="clip-path:url(#SVGID_00000151506368159540906170000004742713284979489718_);fill:#523742;" d="M26.755,61.638
					c0.523-1.092-0.976-2.553,0.65-3.405c3.522,2.013,7.007,3.998,10.715,6.113c-2.313,3.183-5.217,5.759-7.877,8.527
					c-0.374,0.039-0.689,0.066-1.067,0.113c-0.318-1.254-0.632-2.535-0.961-3.845c-2.695-0.418-4.251,1.282-5.454,2.901
					c-1.958,2.638-0.151,4.85,1.356,6.68c0.752,0.474,1.274,0.792,1.965,1.225c-1.723,2.022-3.287,3.859-4.886,5.72
					c-0.215-0.086-0.431-0.111-0.525-0.229c-1.255-1.412-2.776-2.691-3.661-4.296c-2.209-4.025-2.646-8.262-0.601-12.552
					c1.315-2.742,3.205-4.905,6.197-5.925C23.918,62.217,25.305,61.988,26.755,61.638"/>
			</g>
			<g style="clip-path:url(#SVGID_00000072281397810420610830000017730828132398103180_);">
				<defs>
					<polygon id="SVGID_00000049207177868170512400000012325752161427395263_" points="39.081,85.47 62.131,100.868 71.969,86.825 
						48.92,71.428 					"/>
				</defs>
				<clipPath id="SVGID_00000154401920779492897750000014259087773321696953_">
					<use xlink:href="#SVGID_00000049207177868170512400000012325752161427395263_"  style="overflow:visible;"/>
				</clipPath>
				<path style="clip-path:url(#SVGID_00000154401920779492897750000014259087773321696953_);fill:#E1D153;" d="M45.297,82.488
					c-1.039-0.651-2.72,0.609-3.371-1.077c2.506-3.145,4.98-6.257,7.614-9.569c2.927,2.658,5.161,5.808,7.621,8.747
					c-0.009,0.367-0.024,0.676-0.026,1.047c-1.314,0.143-2.656,0.278-4.031,0.426c-0.778,2.554,0.743,4.283,2.23,5.66
					c2.42,2.243,4.903,0.784,6.959-0.434c0.579-0.667,0.971-1.129,1.501-1.741c1.826,1.934,3.485,3.69,5.164,5.482
					c-0.116,0.197-0.17,0.402-0.302,0.478c-1.598,1.029-3.096,2.334-4.842,2.979c-4.377,1.61-8.735,1.476-12.821-1.067
					c-2.611-1.634-4.559-3.748-5.201-6.778C45.512,85.311,45.462,83.938,45.297,82.488"/>
			</g>
			<polygon style="clip-path:url(#SVGID_00000072281397810420610830000017730828132398103180_);fill:#9F9EB1;" points="
				46.279,54.016 44.171,54.88 42.181,56.024 40.754,57.815 40.753,57.816 39.656,60.677 39.531,62.822 39.853,64.939 41.1,66.694 
				42.186,67.931 43.466,68.962 43.722,69.315 44.441,69.74 44.87,69.832 47.105,70.597 49.114,70.905 51.071,70.411 52.927,69.653 
				54.379,68.275 55.408,67.206 56.368,65.661 56.862,63.997 56.992,61.769 56.621,59.609 55.381,57.764 53.65,55.611 52.27,54.794 
				50.492,54.362 48.574,53.919 			"/>
		</g>
	</g>
</g>
</svg>
