<?xml version="1.0" encoding="iso-8859-1"?>
<!-- Generator: Adobe Illustrator 26.0.1, SVG Export Plug-In . SVG Version: 6.00 Build 0)  -->
<svg version="1.1" xmlns="http://www.w3.org/2000/svg" xmlns:xlink="http://www.w3.org/1999/xlink" x="0px" y="0px"
	 viewBox="0 0 100 100" style="enable-background:new 0 0 100 100;" xml:space="preserve">
<g id="Layer_1">
	<g id="G_x28__tree_x28__T2_T1_T1_L1_x29___x29__l3_00000127751615599267923530000005557021065254356361_">
		<g>
			<defs>
				<rect id="SVGID_1_" x="10" y="3" width="74.738" height="94.147"/>
			</defs>
			<clipPath id="SVGID_00000060745815488459284680000015729587739637897884_">
				<use xlink:href="#SVGID_1_"  style="overflow:visible;"/>
			</clipPath>
			<g style="clip-path:url(#SVGID_00000060745815488459284680000015729587739637897884_);">
				<defs>
					<rect id="SVGID_00000145025084757115704260000006184833968337301122_" x="22.004" y="58.002" width="41.85" height="39.145"/>
				</defs>
				<clipPath id="SVGID_00000052822411771755527390000013541804206223517112_">
					<use xlink:href="#SVGID_00000145025084757115704260000006184833968337301122_"  style="overflow:visible;"/>
				</clipPath>
				<path style="clip-path:url(#SVGID_00000052822411771755527390000013541804206223517112_);fill:#5699DE;" d="M63.854,76.472v4.32
					c-0.1,0.32-0.19,0.64-0.29,0.96c-0.62,1.94-1.1,3.94-1.9,5.8c-0.42,0.98-1.25,1.9-2.11,2.56c-1.74,1.34-3.62,2.48-5.54,3.76
					c0.54,0.92,1.13,1.93,1.74,2.96c-2.67,0.91-14.34-0.29-15.63-1.61c1-2.61,1.86-5.28,2.93-7.97c0.65-1.6,1.37-3.22,2.23-4.82
					c0.95,1.17,1.73,2.13,2.53,3.12c1.82-1.3,3.59-2.57,5.43-3.89c0.22-2.01,2.57-3.46,1.4-6.06c0.8,0.07,1.35,0.13,1.9,0.17
					c2.21,0.17,4.42,0.33,6.63,0.5C63.404,76.292,63.634,76.402,63.854,76.472"/>
				<path style="clip-path:url(#SVGID_00000052822411771755527390000013541804206223517112_);fill:#AD70D6;" d="M56.364,58.002
					c1.67,1.17,6.35,9.46,7.32,12.97c-3.08,1-6.21,1.81-9.48,2.43c-1.14,0.22-2.29,0.42-3.46,0.59c0.42-1.37,0.74-2.45,1.14-3.75
					c-2.2-0.72-4.36-1.83-6.6-2.04c-1.95-0.18-4.27-0.29-5.84,1.66c-0.3-0.53-0.6-1.05-0.89-1.56c-1.1-1.92-2.15-3.76-3.23-5.65
					c2.19-1.64,4.45-3.27,7.31-3.72c0.12-0.02,0.26,0.01,0.36-0.03c3.83-1.81,7.11-0.14,10.39,1.62c0.48,0.25,1.01,0.4,1.59,0.63
					C55.454,60.062,55.904,59.042,56.364,58.002"/>
				<path style="clip-path:url(#SVGID_00000052822411771755527390000013541804206223517112_);fill:#E1D153;" d="M25.644,82.762
					c-0.24-1.57-0.1-3.21-0.13-4.83c-0.01-0.46,0-0.93,0-1.41c-1.28-0.07-2.4-0.13-3.51-0.18c0.2-2.35,7.28-11.86,9.39-12.58
					c1.59,1.92,3.26,3.81,4.83,5.87c1.22,1.59,2.37,3.29,3.39,5.19c-1.51,0.21-2.62,0.36-3.9,0.54c0.17,2.13-0.06,4.4,0.64,6.32
					c0.68,1.86,1.82,3.79,4.25,4.78c-1.79,2.52-3.45,4.86-5.18,7.3c-2.62-1.48-5.19-2.85-6.86-5.41c-0.32-0.49-0.78-0.89-1.2-1.3
					C26.154,85.872,25.884,84.282,25.644,82.762"/>
			</g>
			<polygon style="clip-path:url(#SVGID_00000060745815488459284680000015729587739637897884_);fill:#9F9EB1;" points="
				69.491,42.118 67.884,43.26 66.167,44.508 64.636,46.455 63.879,48.801 63.44,51.249 63.938,53.705 65.563,56.661 67.271,58.305 
				69.271,59.563 71.615,59.807 73.413,59.807 75.175,59.503 75.65,59.546 76.512,59.265 76.889,58.979 79.098,57.702 
				80.768,56.281 81.729,54.326 82.396,52.263 82.264,50.086 82.091,48.479 81.47,46.579 80.423,44.98 78.65,43.27 76.581,42.022 
				74.166,41.708 71.147,41.576 			"/>
			<g style="clip-path:url(#SVGID_00000060745815488459284680000015729587739637897884_);">
				<defs>
					<polygon id="SVGID_00000016785206503603051480000017564189505534587806_" points="35.544,32.17 35.872,48.565 35.872,48.566 
						64.796,47.986 64.467,31.589 					"/>
				</defs>
				<clipPath id="SVGID_00000088126040268950689520000004248100371913689514_">
					<use xlink:href="#SVGID_00000016785206503603051480000017564189505534587806_"  style="overflow:visible;"/>
				</clipPath>
				<path style="clip-path:url(#SVGID_00000088126040268950689520000004248100371913689514_);fill:#523742;" d="M40.394,44.076
					c-1.471-2.461-2.2-9.957-2.2-9.957c1.979-1.04,2.12-0.592,4.979-1.101c0.117-0.02,1.89-0.013,1.999-0.04
					c0.617-0.157,5.488-0.095,8.799,1.59c0.486,0.246,1.025,0.386,1.605,0.598c0.458-1.091,0.892-2.123,1.333-3.175
					c1.689,1.141,6.534,9.331,7.574,12.82c-4.119,1.425-8.317,2.517-12.874,3.282c0.387-1.38,0.691-2.464,1.059-3.775
					c-2.213-0.675-4.052-1.2-6.295-1.362C44.412,42.815,42.373,43.036,40.394,44.076"/>
			</g>
			<g style="clip-path:url(#SVGID_00000060745815488459284680000015729587739637897884_);">
				<defs>
					
						<rect id="SVGID_00000121997977159066719120000013312485044643547318_" x="10.876" y="40.257" transform="matrix(0.6123 -0.7906 0.7906 0.6123 -28.4869 38.82)" width="28.929" height="16.4"/>
				</defs>
				<clipPath id="SVGID_00000121264803830313870260000001004156914781333141_">
					<use xlink:href="#SVGID_00000121997977159066719120000013312485044643547318_"  style="overflow:visible;"/>
				</clipPath>
				<path style="clip-path:url(#SVGID_00000121264803830313870260000001004156914781333141_);fill:#E33A3A;" d="M22.312,58.576
					c-2.839-0.401-9.131-4.542-9.131-4.542c0.434-2.194,0.872-2.02,2.271-4.565c0.057-0.105,1.178-1.48,1.225-1.582
					c0.265-0.579,3.373-4.33,6.764-5.849c0.496-0.222,0.943-0.554,1.473-0.873c-0.562-1.042-1.093-2.027-1.635-3.031
					c1.95-0.598,11.366,0.777,14.733,2.158c-1.477,4.102-3.263,8.053-5.531,12.08c-0.83-1.168-1.483-2.086-2.273-3.196
					c-1.915,1.298-3.478,2.399-5.013,4.044C23.855,54.656,22.746,56.382,22.312,58.576"/>
			</g>
			<g style="clip-path:url(#SVGID_00000060745815488459284680000015729587739637897884_);">
				<defs>
					
						<rect id="SVGID_00000006681511051313321320000012395269985727396793_" x="35.348" y="4.568" transform="matrix(0.5757 -0.8177 0.8177 0.5757 2.9147 43.6823)" width="16.4" height="28.929"/>
				</defs>
				<clipPath id="SVGID_00000017515700450269568540000007981446353759934890_">
					<use xlink:href="#SVGID_00000006681511051313321320000012395269985727396793_"  style="overflow:visible;"/>
				</clipPath>
				<path style="clip-path:url(#SVGID_00000017515700450269568540000007981446353759934890_);fill:#F26C2B;" d="M33.301,16.467
					c0.272-2.854,4.122-9.328,4.122-9.328c2.211,0.334,2.058,0.779,4.664,2.061c0.107,0.053,1.532,1.109,1.635,1.152
					c0.591,0.238,4.48,3.172,6.151,6.49c0.245,0.486,0.597,0.917,0.939,1.432c1.015-0.608,1.975-1.183,2.954-1.77
					c0.685,1.92-0.259,11.389-1.486,14.815c-4.164-1.288-8.193-2.893-12.319-4.975c1.13-0.883,2.017-1.577,3.09-2.416
					c-1.384-1.854-2.556-3.366-4.268-4.824C37.287,17.83,35.512,16.801,33.301,16.467"/>
			</g>
			<g style="clip-path:url(#SVGID_00000060745815488459284680000015729587739637897884_);">
				<defs>
					
						<rect id="SVGID_00000037683318706121544790000014474609105441430434_" x="51.231" y="10.057" transform="matrix(0.1066 -0.9943 0.9943 0.1066 40.5407 81.6321)" width="28.929" height="16.4"/>
				</defs>
				<clipPath id="SVGID_00000023268360681049601930000000875949098774766512_">
					<use xlink:href="#SVGID_00000037683318706121544790000014474609105441430434_"  style="overflow:visible;"/>
				</clipPath>
				<path style="clip-path:url(#SVGID_00000023268360681049601930000000875949098774766512_);fill:#55C95A;" d="M62.967,8.053
					c2.627-1.147,10.156-0.922,10.156-0.922c0.781,2.095,0.318,2.177,0.461,5.078c0.007,0.119-0.226,1.878-0.213,1.989
					c0.078,0.632-0.6,5.456-2.691,8.527c-0.306,0.45-0.512,0.967-0.796,1.516c1.025,0.593,1.993,1.153,2.981,1.724
					c-1.346,1.531-10.084,5.3-13.675,5.89c-0.894-4.267-1.446-8.568-1.627-13.186c1.32,0.559,2.357,0.998,3.611,1.529
					c0.95-2.11,1.704-3.867,2.147-6.073C63.709,12.2,63.748,10.148,62.967,8.053"/>
			</g>
		</g>
	</g>
</g>
<g id="Layer_2">
	<g id="Layer_3">
	</g>
</g>
</svg>
