<svg id="Layer_1" data-name="Layer 1" xmlns="http://www.w3.org/2000/svg" xmlns:xlink="http://www.w3.org/1999/xlink" viewBox="0 0 94.72 91.1"><defs><style>.cls-1{fill:none;}.cls-2{clip-path:url(#clip-path);}.cls-3{clip-path:url(#clip-path-2);}.cls-4{fill:#55c95a;}.cls-5{fill:#f26c2b;}.cls-6{fill:#e33a3a;}.cls-7{clip-path:url(#clip-path-3);}.cls-8{fill:#e1d153;}.cls-9{clip-path:url(#clip-path-4);}.cls-10{fill:#5699de;}.cls-11{clip-path:url(#clip-path-5);}.cls-12{fill:#ad70d6;}.cls-13{clip-path:url(#clip-path-6);}.cls-14{fill:#523742;}.cls-15{clip-path:url(#clip-path-7);}.cls-16{fill:#9f9eb1;}</style><clipPath id="clip-path" transform="translate(-3.24 -4.74)"><rect class="cls-1" x="-1" y="3" width="102.77" height="94.33"/></clipPath><clipPath id="clip-path-2" transform="translate(-3.24 -4.74)"><polygon class="cls-1" points="19.41 17.38 21.77 66.74 67.17 64.01 64.81 14.65 19.41 17.38"/></clipPath><clipPath id="clip-path-3" transform="translate(-3.24 -4.74)"><polygon class="cls-1" points="64.15 38.85 77.04 52.97 101.77 29.57 88.88 15.45 64.15 38.85"/></clipPath><clipPath id="clip-path-4" transform="translate(-3.24 -4.74)"><polygon class="cls-1" points="0.39 3 -1 22.34 32.5 24.47 33.89 5.13 0.39 3"/></clipPath><clipPath id="clip-path-5" transform="translate(-3.24 -4.74)"><polygon class="cls-1" points="12.56 96.48 31.57 97.33 33.4 63.19 14.39 62.33 12.56 96.48"/></clipPath><clipPath id="clip-path-6" transform="translate(-3.24 -4.74)"><rect class="cls-1" x="65" y="61.98" width="29.23" height="18.24"/></clipPath><clipPath id="clip-path-7" transform="translate(-3.24 -4.74)"><rect class="cls-1" x="63.77" y="78.16" width="28.52" height="17.69"/></clipPath></defs><g id="G_T1_T1_T1_L3_L2" data-name="G( T1 T1 T1 L3 ) L2"><g class="cls-2"><g class="cls-3"><path class="cls-4" d="M45.75,65.3l-5,.3-1.13-.28c-2.28-.59-4.63-1-6.83-1.83a7.85,7.85,0,0,1-3.09-2.31c-1.65-2-3.08-4.1-4.67-6.28l-3.34,2.26c-1.2-3.08-.47-16.93,1-18.55,3.08,1,6.23,1.83,9.4,2.9a56.93,56.93,0,0,1,5.72,2.3C36.49,45,35.42,46,34.31,47c1.61,2.06,3.19,4.06,4.82,6.13,2.35.12,4.16,2.8,7.11,1.23,0,1-.08,1.61-.09,2.26-.07,2.62-.13,5.23-.21,7.85a4.05,4.05,0,0,1-.19.82" transform="translate(-3.24 -4.74)"/><path class="cls-5" d="M66.75,55.18c-1.26,2-10.61,8.14-14.63,9.53a90.73,90.73,0,0,1-3.35-11c-.32-1.33-.62-2.67-.88-4l4.41,1.08c.71-2.64,1.88-5.27,2-7.92.1-2.32.1-5.06-2.25-6.78l1.76-1.15c2.16-1.44,4.24-2.8,6.37-4.21,2,2.47,4,5,4.72,8.37a2.65,2.65,0,0,0,.06.42c2.32,4.39.56,8.37-1.29,12.37A18,18,0,0,0,63,53.76l3.73,1.42" transform="translate(-3.24 -4.74)"/><path class="cls-6" d="M36.3,20.66a43,43,0,0,1,5.59-.49c.54,0,1.08-.06,1.64-.09,0-1.52,0-2.84,0-4.16,2.74.08,14.16,7.76,15.12,10.2-2.14,2-4.24,4.11-6.54,6.11a45.27,45.27,0,0,1-5.82,4.36c-.33-1.77-.57-3.07-.85-4.56-2.46.35-5.11.23-7.29,1.19a9,9,0,0,0-5.31,5.35L24.09,33c1.57-3.2,3-6.32,5.89-8.47A9.38,9.38,0,0,0,31.42,23c1.3-1.51,3.13-1.94,4.88-2.33" transform="translate(-3.24 -4.74)"/></g><g class="cls-7"><path class="cls-8" d="M88.39,23C91.56,24,98,30,98,30c-.92,2.48-1.39,2.2-3.48,4.91-.09.11-1.64,1.5-1.71,1.61a22.37,22.37,0,0,1-8.88,5.57A19.06,19.06,0,0,0,82,42.8l1.28,3.84c-2.34.33-12.86-3-16.44-5.25a93.42,93.42,0,0,1,8.68-13.07l2,4.15a32.12,32.12,0,0,0,6.52-3.79A13,13,0,0,0,88.39,23" transform="translate(-3.24 -4.74)"/></g><g class="cls-9"><path class="cls-10" d="M4.71,17.49c-1.43-3-1.47-11.94-1.47-11.94,2.4-1,2.51-.49,5.87-.81.14,0,2.19.17,2.32.15a21.65,21.65,0,0,1,10,2.73,16.63,16.63,0,0,0,1.79.86L25.1,4.87c1.83,1.51,6.55,11.63,7.38,15.83a90.62,90.62,0,0,1-15.24,2.62c.6-1.59,1.07-2.84,1.63-4.35a30.93,30.93,0,0,0-7.13-2.21,12.43,12.43,0,0,0-7,.73" transform="translate(-3.24 -4.74)"/></g><g class="cls-11"><path class="cls-12" d="M26.76,91.66C23.79,93.21,15,93.5,15,93.5c-1-2.41-.5-2.54-.84-6,0-.14.15-2.23.13-2.36a22.91,22.91,0,0,1,2.6-10.26,17.91,17.91,0,0,0,.83-1.85L14.2,71.27c1.47-1.9,11.37-7,15.5-8a94.45,94.45,0,0,1,2.68,15.43L28.1,77.21A33,33,0,0,0,26,84.53a13,13,0,0,0,.78,7.13" transform="translate(-3.24 -4.74)"/></g><g class="cls-13"><path class="cls-14" d="M90.67,68.29c1.29,0,2-2.15,3.56-1-.26,4.26-.51,8.48-.79,13-4.13-.63-8-2.09-11.88-3.24-.21-.33-.38-.61-.61-.94l3.23-2.76c-.88-2.72-3.24-3.35-5.36-3.69-3.44-.55-4.71,2.2-5.75,4.5-.09.93-.15,1.57-.24,2.42l-7.78-1.79c0-.25-.1-.46,0-.6.76-1.86,1.27-3.9,2.38-5.5A14.43,14.43,0,0,1,79.13,62c3.24-.09,6.2.62,8.59,2.93,1,1,1.93,2.19,3,3.38" transform="translate(-3.24 -4.74)"/></g><g class="cls-15"><path class="cls-16" d="M92.29,83.78c-.1.29-.17.58-.28.85-1.48,3.35-3,6.73-6.33,8.64a36.27,36.27,0,0,1-6.08,2.29c-2.09.76-4-.19-6-.59a7.7,7.7,0,0,1-3.89-2.68c-.79-.84-1.57-1.69-2.54-2.75l-3.42,1c.23-4,.48-8.06.74-12.39l11.81,3.52c-1.15,1-2.06,1.78-2.94,2.56v1.54c1.44,2.52,3.76,3,6.44,3,3.32.08,4-2.58,5.43-4.79V82.18l7,1.6" transform="translate(-3.24 -4.74)"/></g></g></g></svg>