<?xml version="1.0" encoding="iso-8859-1"?>
<!-- Generator: Adobe Illustrator 26.0.1, SVG Export Plug-In . SVG Version: 6.00 Build 0)  -->
<svg version="1.1" id="Layer_1" xmlns="http://www.w3.org/2000/svg" xmlns:xlink="http://www.w3.org/1999/xlink" x="0px" y="0px"
	 viewBox="0 0 100 100" style="enable-background:new 0 0 100 100;" xml:space="preserve">
<g id="L3_L3_L2_1_" style="display:none;">
	<g style="display:inline;">
		<defs>
			<rect id="SVGID_1_" x="5" y="5" width="88.96" height="90.743"/>
		</defs>
		<clipPath id="SVGID_00000101801591545436206440000003269858317901099398_">
			<use xlink:href="#SVGID_1_"  style="overflow:visible;"/>
		</clipPath>
		<g style="clip-path:url(#SVGID_00000101801591545436206440000003269858317901099398_);">
			<defs>
				<rect id="SVGID_00000183251234221742919200000002890301610230521255_" x="5.004" y="30.002" width="41.85" height="39.145"/>
			</defs>
			<clipPath id="SVGID_00000120541934905831678350000011131844988086130054_">
				<use xlink:href="#SVGID_00000183251234221742919200000002890301610230521255_"  style="overflow:visible;"/>
			</clipPath>
			<path style="clip-path:url(#SVGID_00000120541934905831678350000011131844988086130054_);fill:#55C95A;" d="M46.854,48.472v4.32
				c-0.1,0.32-0.19,0.64-0.29,0.96c-0.62,1.94-1.1,3.94-1.9,5.8c-0.42,0.98-1.25,1.9-2.11,2.56c-1.74,1.34-3.62,2.48-5.54,3.76
				c0.54,0.92,1.13,1.93,1.74,2.96c-2.67,0.91-14.34-0.29-15.63-1.61c1-2.61,1.86-5.28,2.93-7.97c0.65-1.6,1.37-3.22,2.23-4.82
				c0.95,1.17,1.73,2.13,2.53,3.12c1.82-1.3,3.59-2.57,5.43-3.89c0.22-2.01,2.57-3.46,1.4-6.06c0.8,0.07,1.35,0.13,1.9,0.17
				c2.21,0.17,4.42,0.33,6.63,0.5C46.404,48.292,46.634,48.402,46.854,48.472"/>
			<path style="clip-path:url(#SVGID_00000120541934905831678350000011131844988086130054_);fill:#F26C2B;" d="M39.364,30.002
				c1.67,1.17,6.35,9.46,7.32,12.97c-3.08,1-6.21,1.81-9.48,2.43c-1.14,0.22-2.29,0.42-3.46,0.59c0.42-1.37,0.74-2.45,1.14-3.75
				c-2.2-0.72-4.36-1.83-6.6-2.04c-1.95-0.18-4.27-0.29-5.84,1.66c-0.3-0.53-0.6-1.05-0.89-1.56c-1.1-1.92-2.15-3.76-3.23-5.65
				c2.19-1.64,4.45-3.27,7.31-3.72c0.12-0.02,0.26,0.01,0.36-0.03c3.83-1.81,7.11-0.14,10.39,1.62c0.48,0.25,1.01,0.4,1.59,0.63
				C38.454,32.062,38.904,31.042,39.364,30.002"/>
			<path style="clip-path:url(#SVGID_00000120541934905831678350000011131844988086130054_);fill:#E33A3A;" d="M8.644,54.762
				c-0.24-1.57-0.1-3.21-0.13-4.83c-0.01-0.46,0-0.93,0-1.41c-1.28-0.07-2.4-0.13-3.51-0.18c0.2-2.35,7.28-11.86,9.39-12.58
				c1.59,1.92,3.26,3.81,4.83,5.87c1.22,1.59,2.37,3.29,3.39,5.19c-1.51,0.21-2.62,0.36-3.9,0.54c0.17,2.13-0.06,4.4,0.64,6.32
				c0.68,1.86,1.82,3.79,4.25,4.78c-1.79,2.52-3.45,4.86-5.18,7.3c-2.62-1.48-5.19-2.85-6.86-5.41c-0.32-0.49-0.78-0.89-1.2-1.3
				C9.154,57.872,8.884,56.282,8.644,54.762"/>
		</g>
		<g style="clip-path:url(#SVGID_00000101801591545436206440000003269858317901099398_);">
			<defs>
				<rect id="SVGID_00000030466945809694713330000014529695274406766260_" x="51.003" y="5.002" width="41.85" height="39.145"/>
			</defs>
			<clipPath id="SVGID_00000162336148833833930880000016093050154472750998_">
				<use xlink:href="#SVGID_00000030466945809694713330000014529695274406766260_"  style="overflow:visible;"/>
			</clipPath>
			<path style="clip-path:url(#SVGID_00000162336148833833930880000016093050154472750998_);fill:#AD70D6;" d="M92.854,23.472v4.32
				c-0.1,0.32-0.189,0.64-0.289,0.96c-0.62,1.94-1.101,3.94-1.9,5.8c-0.42,0.98-1.25,1.9-2.111,2.56
				c-1.739,1.34-3.62,2.48-5.54,3.76c0.54,0.92,1.13,1.93,1.74,2.96c-2.67,0.91-14.339-0.29-15.629-1.61
				c1-2.61,1.86-5.28,2.929-7.97c0.651-1.6,1.37-3.22,2.231-4.82c0.95,1.17,1.729,2.13,2.53,3.12c1.819-1.3,3.59-2.57,5.43-3.89
				c0.219-2.01,2.57-3.46,1.399-6.06c0.801,0.07,1.351,0.13,1.9,0.17c2.21,0.17,4.42,0.33,6.63,0.5
				C92.404,23.292,92.633,23.402,92.854,23.472"/>
			<path style="clip-path:url(#SVGID_00000162336148833833930880000016093050154472750998_);fill:#5699DE;" d="M85.364,5.002
				c1.67,1.17,6.35,9.46,7.319,12.97c-3.08,1-6.21,1.81-9.479,2.43c-1.141,0.22-2.29,0.42-3.46,0.59c0.42-1.37,0.739-2.45,1.14-3.75
				c-2.201-0.72-4.361-1.83-6.6-2.04c-1.95-0.18-4.271-0.29-5.841,1.66c-0.3-0.53-0.6-1.05-0.89-1.56
				c-1.099-1.92-2.15-3.76-3.229-5.65c2.189-1.64,4.449-3.27,7.31-3.72c0.12-0.02,0.259,0.01,0.36-0.03
				c3.83-1.81,7.109-0.14,10.39,1.62c0.48,0.25,1.009,0.4,1.589,0.63C84.454,7.062,84.903,6.042,85.364,5.002"/>
			<path style="clip-path:url(#SVGID_00000162336148833833930880000016093050154472750998_);fill:#E1D153;" d="M54.644,29.762
				c-0.24-1.57-0.1-3.21-0.13-4.83c-0.01-0.46,0-0.93,0-1.41c-1.28-0.07-2.4-0.13-3.51-0.18c0.2-2.35,7.28-11.86,9.39-12.58
				c1.59,1.92,3.26,3.81,4.83,5.87c1.22,1.59,2.37,3.29,3.39,5.19c-1.51,0.21-2.62,0.36-3.9,0.54c0.17,2.13-0.06,4.4,0.64,6.32
				c0.68,1.86,1.82,3.79,4.25,4.78c-1.79,2.52-3.45,4.86-5.18,7.3c-2.62-1.48-5.19-2.85-6.86-5.41c-0.32-0.49-0.78-0.89-1.2-1.3
				C55.154,32.872,54.884,31.282,54.644,29.762"/>
		</g>
	</g>
</g>
<g id="L2_1_" style="display:none;">
	<g style="display:inline;">
		<defs>
			<rect id="SVGID_00000135669346115807433980000010855434659252418192_" x="59" y="59" width="31.359" height="34.868"/>
		</defs>
		<clipPath id="SVGID_00000159460137320280746870000015075758947996214658_">
			<use xlink:href="#SVGID_00000135669346115807433980000010855434659252418192_"  style="overflow:visible;"/>
		</clipPath>
		<g style="clip-path:url(#SVGID_00000159460137320280746870000015075758947996214658_);">
			<defs>
				<rect id="SVGID_00000051364905457982882700000007898875829386697123_" x="59" y="59" width="31.359" height="34.868"/>
			</defs>
			<clipPath id="SVGID_00000063597976255284979300000017596572248268322955_">
				<use xlink:href="#SVGID_00000051364905457982882700000007898875829386697123_"  style="overflow:visible;"/>
			</clipPath>
			<g style="clip-path:url(#SVGID_00000063597976255284979300000017596572248268322955_);">
				<defs>
					<rect id="SVGID_00000070102407354039079560000016434723644226384824_" x="60.264" y="58.997" width="30.098" height="18.779"/>
				</defs>
				<clipPath id="SVGID_00000134246696053078053700000017690299860198483351_">
					<use xlink:href="#SVGID_00000070102407354039079560000016434723644226384824_"  style="overflow:visible;"/>
				</clipPath>
				<g style="clip-path:url(#SVGID_00000134246696053078053700000017690299860198483351_);">
					<defs>
						
							<rect id="SVGID_00000169519217446404167030000004977205277238496696_" x="60.264" y="58.997" width="30.098" height="18.779"/>
					</defs>
					<clipPath id="SVGID_00000169542160110885330040000006048837772287040403_">
						<use xlink:href="#SVGID_00000169519217446404167030000004977205277238496696_"  style="overflow:visible;"/>
					</clipPath>
					<path style="clip-path:url(#SVGID_00000169542160110885330040000006048837772287040403_);fill:#523742;" d="M86.693,65.496
						c1.33-0.04,2.04-2.21,3.67-1.07c-0.27,4.39-0.53,8.73-0.81,13.35c-4.26-0.64-8.21-2.15-12.23-3.33
						c-0.22-0.34-0.4-0.63-0.63-0.97c1.08-0.93,2.19-1.87,3.32-2.84c-0.9-2.8-3.33-3.45-5.51-3.8c-3.55-0.57-4.85,2.27-5.92,4.63
						c-0.1,0.96-0.16,1.62-0.25,2.5c-2.83-0.65-5.4-1.24-8.01-1.85c-0.02-0.25-0.1-0.47-0.03-0.62c0.78-1.91,1.3-4.01,2.45-5.66
						c2.89-4.13,6.85-6.66,12.07-6.83c3.34-0.1,6.39,0.64,8.85,3.01C84.743,63.056,85.643,64.276,86.693,65.496"/>
				</g>
			</g>
			<g style="clip-path:url(#SVGID_00000063597976255284979300000017596572248268322955_);">
				<defs>
					<rect id="SVGID_00000181801844227172902870000006556841232951762834_" x="59.003" y="75.656" width="29.36" height="18.213"/>
				</defs>
				<clipPath id="SVGID_00000176005555530524195540000005936318347399819159_">
					<use xlink:href="#SVGID_00000181801844227172902870000006556841232951762834_"  style="overflow:visible;"/>
				</clipPath>
				<g style="clip-path:url(#SVGID_00000176005555530524195540000005936318347399819159_);">
					<defs>
						<rect id="SVGID_00000129174755418635893870000005064467282416508054_" x="59.003" y="75.656" width="29.36" height="18.213"/>
					</defs>
					<clipPath id="SVGID_00000062880819397091683250000004110456245461440916_">
						<use xlink:href="#SVGID_00000129174755418635893870000005064467282416508054_"  style="overflow:visible;"/>
					</clipPath>
					<path style="clip-path:url(#SVGID_00000062880819397091683250000004110456245461440916_);fill:#9F9EB1;" d="M88.363,81.446
						c-0.1,0.3-0.17,0.6-0.29,0.87c-1.52,3.45-3.13,6.93-6.51,8.9c-1.9,1.11-4.16,1.59-6.26,2.36c-2.15,0.78-4.14-0.2-6.16-0.61
						c-1.67-0.33-2.86-1.56-4-2.76c-0.82-0.86-1.62-1.74-2.62-2.83c-1.02,0.3-2.14,0.63-3.52,1.04c0.24-4.15,0.49-8.3,0.76-12.76
						c4,1.19,7.88,2.35,12.16,3.63c-1.18,1.02-2.12,1.83-3.03,2.63v1.59c1.49,2.59,3.87,3.08,6.63,3.14
						c3.42,0.08,4.13-2.66,5.59-4.93v-1.92C83.563,80.356,85.923,80.886,88.363,81.446"/>
				</g>
			</g>
		</g>
	</g>
</g>
<g id="L3_L3_L2_00000103965369400972489290000004655657459576915361_">
	<g>
		<defs>
			<rect id="SVGID_00000004518216689720658950000018228747679297628039_" x="5" y="5" width="88.96" height="90.743"/>
		</defs>
		<clipPath id="SVGID_00000096773608397221466980000004647237871907440539_">
			<use xlink:href="#SVGID_00000004518216689720658950000018228747679297628039_"  style="overflow:visible;"/>
		</clipPath>
		<g style="clip-path:url(#SVGID_00000096773608397221466980000004647237871907440539_);">
			<defs>
				<rect id="SVGID_00000103965004404696712520000007354388887708966065_" x="5.004" y="30.002" width="41.85" height="39.145"/>
			</defs>
			<clipPath id="SVGID_00000160175695393917269670000015146522132174162306_">
				<use xlink:href="#SVGID_00000103965004404696712520000007354388887708966065_"  style="overflow:visible;"/>
			</clipPath>
			<path style="clip-path:url(#SVGID_00000160175695393917269670000015146522132174162306_);fill:#55C95A;" d="M46.854,48.472v4.32
				c-0.1,0.32-0.19,0.64-0.29,0.96c-0.62,1.94-1.1,3.94-1.9,5.8c-0.42,0.98-1.25,1.9-2.11,2.56c-1.74,1.34-3.62,2.48-5.54,3.76
				c0.54,0.92,1.13,1.93,1.74,2.96c-2.67,0.91-14.34-0.29-15.63-1.61c1-2.61,1.86-5.28,2.93-7.97c0.65-1.6,1.37-3.22,2.23-4.82
				c0.95,1.17,1.73,2.13,2.53,3.12c1.82-1.3,3.59-2.57,5.43-3.89c0.22-2.01,2.57-3.46,1.4-6.06c0.8,0.07,1.35,0.13,1.9,0.17
				c2.21,0.17,4.42,0.33,6.63,0.5C46.404,48.292,46.634,48.402,46.854,48.472"/>
			<path style="clip-path:url(#SVGID_00000160175695393917269670000015146522132174162306_);fill:#F26C2B;" d="M39.364,30.002
				c1.67,1.17,6.35,9.46,7.32,12.97c-3.08,1-6.21,1.81-9.48,2.43c-1.14,0.22-2.29,0.42-3.46,0.59c0.42-1.37,0.74-2.45,1.14-3.75
				c-2.2-0.72-4.36-1.83-6.6-2.04c-1.95-0.18-4.27-0.29-5.84,1.66c-0.3-0.53-0.6-1.05-0.89-1.56c-1.1-1.92-2.15-3.76-3.23-5.65
				c2.19-1.64,4.45-3.27,7.31-3.72c0.12-0.02,0.26,0.01,0.36-0.03c3.83-1.81,7.11-0.14,10.39,1.62c0.48,0.25,1.01,0.4,1.59,0.63
				C38.454,32.062,38.904,31.042,39.364,30.002"/>
			<path style="clip-path:url(#SVGID_00000160175695393917269670000015146522132174162306_);fill:#E33A3A;" d="M8.644,54.762
				c-0.24-1.57-0.1-3.21-0.13-4.83c-0.01-0.46,0-0.93,0-1.41c-1.28-0.07-2.4-0.13-3.51-0.18c0.2-2.35,7.28-11.86,9.39-12.58
				c1.59,1.92,3.26,3.81,4.83,5.87c1.22,1.59,2.37,3.29,3.39,5.19c-1.51,0.21-2.62,0.36-3.9,0.54c0.17,2.13-0.06,4.4,0.64,6.32
				c0.68,1.86,1.82,3.79,4.25,4.78c-1.79,2.52-3.45,4.86-5.18,7.3c-2.62-1.48-5.19-2.85-6.86-5.41c-0.32-0.49-0.78-0.89-1.2-1.3
				C9.154,57.872,8.884,56.282,8.644,54.762"/>
		</g>
		<g style="clip-path:url(#SVGID_00000096773608397221466980000004647237871907440539_);">
			<defs>
				<rect id="SVGID_00000082328861214078443760000013285606515327119031_" x="51.003" y="5.002" width="41.85" height="39.145"/>
			</defs>
			<clipPath id="SVGID_00000173127297169466012270000017181386027837547686_">
				<use xlink:href="#SVGID_00000082328861214078443760000013285606515327119031_"  style="overflow:visible;"/>
			</clipPath>
			<path style="clip-path:url(#SVGID_00000173127297169466012270000017181386027837547686_);fill:#AD70D6;" d="M92.854,23.472v4.32
				c-0.1,0.32-0.189,0.64-0.289,0.96c-0.62,1.94-1.101,3.94-1.9,5.8c-0.42,0.98-1.25,1.9-2.111,2.56
				c-1.739,1.34-3.62,2.48-5.54,3.76c0.54,0.92,1.13,1.93,1.74,2.96c-2.67,0.91-14.339-0.29-15.629-1.61
				c1-2.61,1.86-5.28,2.929-7.97c0.651-1.6,1.37-3.22,2.231-4.82c0.95,1.17,1.729,2.13,2.53,3.12c1.819-1.3,3.59-2.57,5.43-3.89
				c0.219-2.01,2.57-3.46,1.399-6.06c0.801,0.07,1.351,0.13,1.9,0.17c2.21,0.17,4.42,0.33,6.63,0.5
				C92.404,23.292,92.633,23.402,92.854,23.472"/>
			<path style="clip-path:url(#SVGID_00000173127297169466012270000017181386027837547686_);fill:#5699DE;" d="M85.364,5.002
				c1.67,1.17,6.35,9.46,7.319,12.97c-3.08,1-6.21,1.81-9.479,2.43c-1.141,0.22-2.29,0.42-3.46,0.59
				c0.42-1.37,0.739-2.45,1.141-3.75c-2.202-0.72-4.362-1.83-6.601-2.04c-1.95-0.18-4.271-0.29-5.841,1.66
				c-0.3-0.53-0.6-1.05-0.89-1.56c-1.099-1.92-2.15-3.76-3.229-5.65c2.189-1.64,4.449-3.27,7.311-3.72
				c0.119-0.02,0.258,0.01,0.359-0.03c3.83-1.81,7.109-0.14,10.391,1.62c0.479,0.25,1.008,0.4,1.588,0.63
				C84.454,7.062,84.903,6.042,85.364,5.002"/>
			<path style="clip-path:url(#SVGID_00000173127297169466012270000017181386027837547686_);fill:#E1D153;" d="M54.644,29.762
				c-0.24-1.57-0.1-3.21-0.13-4.83c-0.01-0.46,0-0.93,0-1.41c-1.28-0.07-2.4-0.13-3.51-0.18c0.2-2.35,7.28-11.86,9.39-12.58
				c1.59,1.92,3.26,3.81,4.83,5.87c1.22,1.59,2.37,3.29,3.39,5.19c-1.51,0.21-2.62,0.36-3.9,0.54c0.17,2.13-0.06,4.4,0.64,6.32
				c0.68,1.86,1.82,3.79,4.25,4.78c-1.79,2.52-3.45,4.86-5.18,7.3c-2.62-1.48-5.19-2.85-6.86-5.41c-0.32-0.49-0.78-0.89-1.2-1.3
				C55.154,32.872,54.884,31.282,54.644,29.762"/>
		</g>
		<g style="clip-path:url(#SVGID_00000096773608397221466980000004647237871907440539_);">
			<defs>
				<rect id="SVGID_00000103963780265142636550000006168665946398602160_" x="60.264" y="59.001" width="30.095" height="18.776"/>
			</defs>
			<clipPath id="SVGID_00000108267546909659691840000015141233471233199801_">
				<use xlink:href="#SVGID_00000103963780265142636550000006168665946398602160_"  style="overflow:visible;"/>
			</clipPath>
			<path style="clip-path:url(#SVGID_00000108267546909659691840000015141233471233199801_);fill:#523742;" d="M86.692,65.496
				c1.33-0.04,2.04-2.21,3.67-1.07c-0.27,4.389-0.529,8.73-0.81,13.349c-4.259-0.639-8.21-2.149-12.23-3.33
				c-0.22-0.34-0.4-0.63-0.63-0.97c1.08-0.929,2.19-1.87,3.32-2.839c-0.9-2.8-3.33-3.451-5.509-3.8
				c-3.55-0.57-4.851,2.269-5.92,4.63c-0.101,0.96-0.161,1.62-0.25,2.5c-2.83-0.651-5.401-1.241-8.011-1.85
				c-0.02-0.25-0.1-0.471-0.029-0.62c0.779-1.91,1.299-4.011,2.45-5.66c2.889-4.13,6.849-6.66,12.069-6.83
				c3.34-0.1,6.391,0.639,8.851,3.01C84.743,63.056,85.642,64.275,86.692,65.496"/>
		</g>
		<g style="clip-path:url(#SVGID_00000096773608397221466980000004647237871907440539_);">
			<defs>
				<rect id="SVGID_00000069360652905227727340000018216897950779426189_" x="59.003" y="75.656" width="29.36" height="18.212"/>
			</defs>
			<clipPath id="SVGID_00000119109144648423862280000005984140668090930567_">
				<use xlink:href="#SVGID_00000069360652905227727340000018216897950779426189_"  style="overflow:visible;"/>
			</clipPath>
			<path style="clip-path:url(#SVGID_00000119109144648423862280000005984140668090930567_);fill:#9F9EB1;" d="M88.362,81.446
				c-0.1,0.3-0.17,0.6-0.29,0.87c-1.52,3.449-3.13,6.93-6.51,8.9c-1.899,1.11-4.16,1.589-6.26,2.36c-2.15,0.78-4.139-0.2-6.16-0.61
				c-1.67-0.331-2.86-1.56-4-2.76c-0.82-0.861-1.62-1.74-2.62-2.83c-1.019,0.299-2.139,0.63-3.519,1.04
				c0.239-4.151,0.489-8.3,0.759-12.76c4,1.189,7.88,2.35,12.161,3.63c-1.181,1.019-2.121,1.83-3.031,2.63v1.59
				c1.491,2.589,3.87,3.08,6.63,3.14c3.42,0.079,4.13-2.66,5.59-4.93v-1.92C83.562,80.356,85.923,80.885,88.362,81.446"/>
		</g>
	</g>
</g>
</svg>
