<?xml version="1.0" encoding="iso-8859-1"?>
<!-- Generator: Adobe Illustrator 26.0.1, SVG Export Plug-In . SVG Version: 6.00 Build 0)  -->
<svg version="1.1" xmlns="http://www.w3.org/2000/svg" xmlns:xlink="http://www.w3.org/1999/xlink" x="0px" y="0px"
	 viewBox="0 0 100 100" style="enable-background:new 0 0 100 100;" xml:space="preserve">
<g id="Layer_1">
</g>
<g id="Layer_2">
	<g id="L2_L2_L2_G_x28__T1_L1__x29__00000070825772188668870790000003223108023282843319_">
		<g>
			<defs>
				<rect id="SVGID_1_" x="11" y="12" width="82" height="81.48"/>
			</defs>
			<clipPath id="SVGID_00000154423420089847760350000013430071708864595107_">
				<use xlink:href="#SVGID_1_"  style="overflow:visible;"/>
			</clipPath>
			<g style="clip-path:url(#SVGID_00000154423420089847760350000013430071708864595107_);">
				<defs>
					<rect id="SVGID_00000067218211842125488610000017642907280213248160_" x="11" y="12" width="82" height="81.48"/>
				</defs>
				<clipPath id="SVGID_00000143603499435615905800000001283063980144088496_">
					<use xlink:href="#SVGID_00000067218211842125488610000017642907280213248160_"  style="overflow:visible;"/>
				</clipPath>
				<g style="clip-path:url(#SVGID_00000143603499435615905800000001283063980144088496_);">
					<defs>
						<rect id="SVGID_00000041285296855973194880000016878202642227870908_" x="11" y="12" width="79.96" height="81.48"/>
					</defs>
					<clipPath id="SVGID_00000181049547889133302700000009831588238351785880_">
						<use xlink:href="#SVGID_00000041285296855973194880000016878202642227870908_"  style="overflow:visible;"/>
					</clipPath>
					<g style="opacity:0.96;clip-path:url(#SVGID_00000181049547889133302700000009831588238351785880_);">
						<g>
							<defs>
								<rect id="SVGID_00000106869419318154354450000001994836548415789711_" x="12" y="11.997" width="31.363" height="34.872"/>
							</defs>
							<clipPath id="SVGID_00000114069003027868481920000009580319014685782180_">
								<use xlink:href="#SVGID_00000106869419318154354450000001994836548415789711_"  style="overflow:visible;"/>
							</clipPath>
							<g style="clip-path:url(#SVGID_00000114069003027868481920000009580319014685782180_);">
								<defs>
									<rect id="SVGID_00000067936702456007493100000005322175074600959131_" x="13.264" y="12" width="30.093" height="18.776"/>
								</defs>
								<clipPath id="SVGID_00000176026484755980574630000013851587157124390057_">
									<use xlink:href="#SVGID_00000067936702456007493100000005322175074600959131_"  style="overflow:visible;"/>
								</clipPath>
								<path style="clip-path:url(#SVGID_00000176026484755980574630000013851587157124390057_);fill:#E33A3A;" d="M39.693,18.496
									c1.33-0.04,2.04-2.21,3.67-1.07c-0.27,4.39-0.53,8.73-0.81,13.35c-4.26-0.64-8.21-2.15-12.23-3.33
									c-0.22-0.34-0.4-0.63-0.63-0.97c1.08-0.93,2.19-1.87,3.32-2.84c-0.9-2.8-3.33-3.45-5.51-3.8c-3.55-0.57-4.85,2.27-5.92,4.63
									c-0.1,0.96-0.16,1.62-0.25,2.5c-2.83-0.65-5.4-1.24-8.01-1.85c-0.02-0.25-0.1-0.47-0.03-0.62c0.78-1.91,1.3-4.01,2.45-5.66
									c2.89-4.13,6.85-6.66,12.07-6.83c3.34-0.1,6.39,0.64,8.85,3.01C37.743,16.056,38.643,17.276,39.693,18.496"/>
							</g>
							<g style="clip-path:url(#SVGID_00000114069003027868481920000009580319014685782180_);">
								<defs>
									
										<rect id="SVGID_00000145034152211992485540000017100091008575588524_" x="12.003" y="28.656" width="29.361" height="18.213"/>
								</defs>
								<clipPath id="SVGID_00000154421080582044655360000004951694485358280842_">
									<use xlink:href="#SVGID_00000145034152211992485540000017100091008575588524_"  style="overflow:visible;"/>
								</clipPath>
								<path style="clip-path:url(#SVGID_00000154421080582044655360000004951694485358280842_);fill:#AD70D6;" d="M41.363,34.446
									c-0.1,0.3-0.17,0.6-0.29,0.87c-1.52,3.45-3.13,6.93-6.51,8.9c-1.9,1.11-4.16,1.59-6.26,2.36c-2.15,0.78-4.14-0.2-6.16-0.61
									c-1.67-0.33-2.86-1.56-4-2.76c-0.82-0.86-1.62-1.74-2.62-2.83c-1.02,0.3-2.14,0.63-3.52,1.04c0.24-4.15,0.49-8.3,0.76-12.76
									c4,1.19,7.88,2.35,12.16,3.63c-1.18,1.02-2.12,1.83-3.03,2.63v1.59c1.49,2.59,3.87,3.08,6.63,3.14
									c3.42,0.08,4.13-2.66,5.59-4.93v-1.92C36.563,33.356,38.923,33.886,41.363,34.446"/>
							</g>
						</g>
					</g>
					<g style="opacity:0.96;clip-path:url(#SVGID_00000181049547889133302700000009831588238351785880_);">
						<g>
							<defs>
								<rect id="SVGID_00000183224846045005923660000000761556582813955715_" x="57" y="11.997" width="31.363" height="34.872"/>
							</defs>
							<clipPath id="SVGID_00000131358911514482849050000013434873733821559437_">
								<use xlink:href="#SVGID_00000183224846045005923660000000761556582813955715_"  style="overflow:visible;"/>
							</clipPath>
							<g style="clip-path:url(#SVGID_00000131358911514482849050000013434873733821559437_);">
								<defs>
									<rect id="SVGID_00000106859865758881221610000009562257064649306814_" x="58.264" y="12" width="30.094" height="18.776"/>
								</defs>
								<clipPath id="SVGID_00000003096722703134910340000015923345321723624329_">
									<use xlink:href="#SVGID_00000106859865758881221610000009562257064649306814_"  style="overflow:visible;"/>
								</clipPath>
								<path style="clip-path:url(#SVGID_00000003096722703134910340000015923345321723624329_);fill:#E1D153;" d="M84.692,18.496
									c1.33-0.04,2.04-2.21,3.67-1.07c-0.27,4.39-0.529,8.73-0.81,13.35c-4.259-0.64-8.21-2.15-12.23-3.33
									c-0.22-0.34-0.4-0.63-0.63-0.97c1.08-0.93,2.19-1.87,3.32-2.84c-0.9-2.8-3.33-3.45-5.509-3.8
									c-3.55-0.57-4.851,2.27-5.92,4.63c-0.101,0.96-0.161,1.62-0.25,2.5c-2.83-0.65-5.401-1.24-8.011-1.85
									c-0.02-0.25-0.1-0.47-0.029-0.62c0.779-1.91,1.299-4.01,2.45-5.66c2.889-4.13,6.849-6.66,12.069-6.83
									c3.34-0.1,6.391,0.64,8.851,3.01C82.743,16.056,83.642,17.276,84.692,18.496"/>
							</g>
							<g style="clip-path:url(#SVGID_00000131358911514482849050000013434873733821559437_);">
								<defs>
									
										<rect id="SVGID_00000098206670503185927960000000556175639893333165_" x="57.003" y="28.656" width="29.361" height="18.213"/>
								</defs>
								<clipPath id="SVGID_00000121263048083882503030000017207818262912675231_">
									<use xlink:href="#SVGID_00000098206670503185927960000000556175639893333165_"  style="overflow:visible;"/>
								</clipPath>
								<path style="clip-path:url(#SVGID_00000121263048083882503030000017207818262912675231_);fill:#55C95A;" d="M86.362,34.446
									c-0.1,0.3-0.17,0.6-0.29,0.87c-1.52,3.45-3.13,6.93-6.51,8.9c-1.899,1.11-4.16,1.59-6.26,2.36
									c-2.15,0.78-4.139-0.2-6.16-0.61c-1.67-0.33-2.86-1.56-4-2.76c-0.82-0.86-1.62-1.74-2.62-2.83
									c-1.019,0.3-2.139,0.63-3.519,1.04c0.239-4.15,0.489-8.3,0.759-12.76c4,1.19,7.88,2.35,12.161,3.63
									c-1.181,1.02-2.121,1.83-3.031,2.63v1.59c1.491,2.59,3.87,3.08,6.63,3.14c3.42,0.08,4.13-2.66,5.59-4.93v-1.92
									C81.562,33.356,83.923,33.886,86.362,34.446"/>
							</g>
						</g>
					</g>
					<g style="opacity:0.96;clip-path:url(#SVGID_00000181049547889133302700000009831588238351785880_);">
						<g>
							<defs>
								<rect id="SVGID_00000031924983299797234040000006600421607361939885_" x="11" y="55.997" width="31.363" height="34.872"/>
							</defs>
							<clipPath id="SVGID_00000101819708366283203860000000074995292034462604_">
								<use xlink:href="#SVGID_00000031924983299797234040000006600421607361939885_"  style="overflow:visible;"/>
							</clipPath>
							<g style="clip-path:url(#SVGID_00000101819708366283203860000000074995292034462604_);">
								<defs>
									
										<rect id="SVGID_00000028301607827365584480000004283095841163996826_" x="12.264" y="56.001" width="30.094" height="18.775"/>
								</defs>
								<clipPath id="SVGID_00000160171766188448999400000009719953505424119954_">
									<use xlink:href="#SVGID_00000028301607827365584480000004283095841163996826_"  style="overflow:visible;"/>
								</clipPath>
								<path style="clip-path:url(#SVGID_00000160171766188448999400000009719953505424119954_);fill:#F26C2B;" d="M38.693,62.496
									c1.33-0.04,2.04-2.21,3.67-1.07c-0.27,4.389-0.53,8.73-0.81,13.349c-4.26-0.639-8.21-2.149-12.23-3.33
									c-0.22-0.34-0.4-0.63-0.63-0.97c1.08-0.929,2.19-1.87,3.32-2.839c-0.9-2.8-3.33-3.451-5.51-3.8
									c-3.55-0.57-4.85,2.269-5.92,4.63c-0.1,0.96-0.16,1.62-0.25,2.5c-2.83-0.651-5.4-1.241-8.01-1.85
									c-0.02-0.25-0.1-0.471-0.03-0.62c0.78-1.91,1.3-4.011,2.45-5.66c2.89-4.13,6.85-6.66,12.07-6.83
									c3.34-0.1,6.39,0.639,8.85,3.01C36.743,60.056,37.643,61.275,38.693,62.496"/>
							</g>
							<g style="clip-path:url(#SVGID_00000101819708366283203860000000074995292034462604_);">
								<defs>
									
										<rect id="SVGID_00000137113614517700532830000003818048511625381257_" x="11.003" y="72.656" width="29.361" height="18.212"/>
								</defs>
								<clipPath id="SVGID_00000041296784443162786930000017367731501624240522_">
									<use xlink:href="#SVGID_00000137113614517700532830000003818048511625381257_"  style="overflow:visible;"/>
								</clipPath>
								<path style="clip-path:url(#SVGID_00000041296784443162786930000017367731501624240522_);fill:#5699DE;" d="M40.363,78.446
									c-0.1,0.3-0.17,0.6-0.29,0.87c-1.52,3.449-3.13,6.93-6.51,8.9c-1.9,1.11-4.16,1.589-6.26,2.36
									c-2.15,0.78-4.14-0.2-6.16-0.61c-1.67-0.331-2.86-1.56-4-2.76c-0.82-0.861-1.62-1.74-2.62-2.83
									c-1.02,0.299-2.14,0.63-3.52,1.04c0.24-4.151,0.49-8.3,0.76-12.76c4,1.189,7.88,2.35,12.16,3.63
									c-1.18,1.019-2.12,1.83-3.03,2.63v1.59c1.49,2.589,3.87,3.08,6.63,3.14c3.42,0.079,4.13-2.66,5.59-4.93v-1.92
									C35.563,77.356,37.923,77.885,40.363,78.446"/>
							</g>
						</g>
					</g>
					<g style="opacity:0.96;clip-path:url(#SVGID_00000181049547889133302700000009831588238351785880_);">
						<g>
							<defs>
								<rect id="SVGID_00000176745204581987640070000007287595360933149342_" x="72" y="51.948" width="19.135" height="18.706"/>
							</defs>
							<clipPath id="SVGID_00000101076592485747892490000010903899976480370829_">
								<use xlink:href="#SVGID_00000176745204581987640070000007287595360933149342_"  style="overflow:visible;"/>
							</clipPath>
						</g>
					</g>
					<g style="opacity:0.96;clip-path:url(#SVGID_00000181049547889133302700000009831588238351785880_);">
						<g>
							<defs>
								<rect id="SVGID_00000161612625194406324350000005813441366427847818_" x="54" y="74.948" width="19.135" height="18.706"/>
							</defs>
							<clipPath id="SVGID_00000147912513820442001810000003598742927873386682_">
								<use xlink:href="#SVGID_00000161612625194406324350000005813441366427847818_"  style="overflow:visible;"/>
							</clipPath>
						</g>
					</g>
				</g>
				<polygon style="clip-path:url(#SVGID_00000143603499435615905800000001283063980144088496_);fill:#523742;" points="
					83.766,66.398 82.022,66.956 80.156,67.577 78.253,68.882 76.915,70.776 75.827,72.858 75.561,75.215 75.561,75.226 
					76.139,78.37 77.167,80.36 78.562,82.084 80.55,82.995 82.129,83.526 83.763,83.772 84.169,83.952 85.004,83.952 85.418,83.806 
					87.725,83.303 89.6,82.512 91.004,81.032 92.183,79.366 92.69,77.361 93,75.858 93,73.959 92.539,72.207 91.472,70.141 
					90.015,68.402 87.983,67.407 85.368,66.398 				"/>
				<g style="clip-path:url(#SVGID_00000143603499435615905800000001283063980144088496_);">
					<defs>
						<polygon id="SVGID_00000094583700631704115040000016556041822782680244_" points="45.323,74.351 56.865,87.668 77.622,68.648 
							66.081,55.332 						"/>
					</defs>
					<clipPath id="SVGID_00000053503710211171873690000008285994315548917148_">
						<use xlink:href="#SVGID_00000094583700631704115040000016556041822782680244_"  style="overflow:visible;"/>
					</clipPath>
					<path style="clip-path:url(#SVGID_00000053503710211171873690000008285994315548917148_);fill:#9F9EB1;" d="M67.544,62.258
						c0.892-0.869,0.049-2.856,1.873-3.077c2.512,3.283,5,6.525,7.647,9.979c-3.332,2.236-6.984,3.662-10.482,5.366
						c-0.361-0.101-0.663-0.194-1.03-0.29c0.173-1.342,0.361-2.709,0.544-4.112c-2.342-1.417-4.417-0.341-6.135,0.787
						c-2.799,1.84-1.95,4.675-1.238,7.025c0.522,0.744,0.886,1.249,1.364,1.931c-2.351,1.328-4.487,2.532-6.661,3.749
						c-0.167-0.164-0.358-0.27-0.402-0.42c-0.636-1.847-1.568-3.665-1.789-5.562c-0.546-4.755,0.631-9.052,4.126-12.47
						c2.242-2.182,4.801-3.585,7.955-3.459C64.7,61.76,66.07,62.057,67.544,62.258"/>
				</g>
			</g>
		</g>
	</g>
</g>
</svg>
