<?xml version="1.0" encoding="iso-8859-1"?>
<!-- Generator: Adobe Illustrator 26.0.1, SVG Export Plug-In . SVG Version: 6.00 Build 0)  -->
<svg version="1.1" xmlns="http://www.w3.org/2000/svg" xmlns:xlink="http://www.w3.org/1999/xlink" x="0px" y="0px"
	 viewBox="0 0 100 100" style="enable-background:new 0 0 100 100;" xml:space="preserve">
<g id="Layer_1">
	<g id="L6_G_x28__T1_L1__x29__00000003092265987337529900000009691818057153883028_">
		<g>
			<defs>
				<rect id="SVGID_1_" x="7" y="6" width="85" height="91"/>
			</defs>
			<clipPath id="SVGID_00000043446358863927029320000008514181452671268519_">
				<use xlink:href="#SVGID_1_"  style="overflow:visible;"/>
			</clipPath>
			<g style="clip-path:url(#SVGID_00000043446358863927029320000008514181452671268519_);">
				<defs>
					<rect id="SVGID_00000104669162416783454330000003021407754594691002_" x="66.616" y="22.17" width="25.384" height="29.709"/>
				</defs>
				<clipPath id="SVGID_00000147205106223133230040000018002351958206581676_">
					<use xlink:href="#SVGID_00000104669162416783454330000003021407754594691002_"  style="overflow:visible;"/>
				</clipPath>
				<path style="clip-path:url(#SVGID_00000147205106223133230040000018002351958206581676_);fill:#F26C2B;" d="M92,36.244v0.803
					c-0.179,1.026-0.413,2.051-0.536,3.078c-0.392,3.267-0.737,6.535-1.129,9.791c-0.066,0.569-0.245,1.115-0.436,1.963
					c-0.815-0.19-1.564-0.323-2.29-0.524c-0.704-0.201-1.419-0.446-2.1-0.714c-3.419-1.338-6.838-2.688-10.245-4.06
					c-0.302-0.122-0.514-0.445-0.984-0.869c1.129-0.97,2.179-1.863,3.329-2.866c-1.005-1.517-1.921-3.179-3.116-4.64
					c-1.363-1.672-2.906-3.211-4.47-4.706c-0.95-0.903-2.111-1.606-3.407-2.576c3.486-3.089,6.659-5.91,9.865-8.754
					c4.391,4.026,8.648,7.784,10.714,13.494c1.509-0.926,2.727-1.673,4.09-2.521C91.553,34.337,91.776,35.285,92,36.244"/>
			</g>
			<g style="clip-path:url(#SVGID_00000043446358863927029320000008514181452671268519_);">
				<defs>
					<rect id="SVGID_00000097484347740819890840000011525620671986341009_" x="68.264" y="55.571" width="23.736" height="29.787"/>
				</defs>
				<clipPath id="SVGID_00000147916867325498412260000017208600451396713362_">
					<use xlink:href="#SVGID_00000097484347740819890840000011525620671986341009_"  style="overflow:visible;"/>
				</clipPath>
				<path style="clip-path:url(#SVGID_00000147916867325498412260000017208600451396713362_);fill:#E1D153;" d="M92,61.749
					c-0.548,1.203-0.983,2.142-1.486,3.233c-1.173,4.461-4.078,8.154-7.094,11.765c1.418,1.083,2.457,1.875,3.809,2.901
					c-5.899,3.177-12.234,3.669-18.423,5.709c-0.212-1.07-0.424-1.795-0.492-2.542c-0.079-0.892-0.044-1.806-0.033-2.722
					c0-0.824,0.022-1.66,0.044-2.497c0.012-0.804,0.057-1.596,0.057-2.398v-7.014c1.843,0.188,3.027,1.193,4.267,1.996
					c3.822-4.093,5.687-9.156,7.374-14.609C84.168,57.712,87.989,59.685,92,61.749"/>
			</g>
			<g style="clip-path:url(#SVGID_00000043446358863927029320000008514181452671268519_);">
				<defs>
					<rect id="SVGID_00000167377104687363248400000012296705818491902652_" x="8.013" y="56.072" width="24.739" height="30.133"/>
				</defs>
				<clipPath id="SVGID_00000140733003751634416310000013257803105746006970_">
					<use xlink:href="#SVGID_00000167377104687363248400000012296705818491902652_"  style="overflow:visible;"/>
				</clipPath>
				<path style="clip-path:url(#SVGID_00000140733003751634416310000013257803105746006970_);fill:#AD70D6;" d="M31.043,75.677
					c0.615,0.547,1.073,1.249,1.709,1.996c-3.407,2.901-6.647,5.666-10.021,8.531c-0.793-0.959-1.43-1.727-2.246-2.708
					c-1.91-0.681-2.893-2.767-4.268-4.395c-1.273-1.504-2.525-3.067-2.916-5.141c-0.112-0.546-0.826-0.993-1.229-1.45
					c-1.296,0.825-2.502,1.595-4.044,2.565c-0.145-6.713,0.816-12.891,2.067-19.002c0.894,0.145,1.486,0.133,1.989,0.334
					c0.558,0.235,1.016,0.668,1.563,0.903c4.056,1.249,7.989,2.855,11.933,4.874c-0.592,1.673-2.447,1.906-3.631,3.122
					c1.765,2.42,3.363,4.852,5.218,7.059C28.25,73.649,29.781,74.54,31.043,75.677"/>
			</g>
			<g style="clip-path:url(#SVGID_00000043446358863927029320000008514181452671268519_);">
				<defs>
					<rect id="SVGID_00000067958626151101797070000007451956330670944142_" x="35.009" y="6.045" width="32.144" height="21.69"/>
				</defs>
				<clipPath id="SVGID_00000129205805542762996620000004554918186295961517_">
					<use xlink:href="#SVGID_00000067958626151101797070000007451956330670944142_"  style="overflow:visible;"/>
				</clipPath>
				<path style="clip-path:url(#SVGID_00000129205805542762996620000004554918186295961517_);fill:#5699DE;" d="M52.639,6.045
					c5.676,3.323,9.565,8.186,14.514,12.39c-4.726,3.402-9.263,6.479-14.48,9.3v-4.616c-5.754-1.026-11.016,0.011-16.502,1.606
					c-0.402-4.573-0.771-8.777-1.162-13.193c3.073-0.446,5.866-1.06,8.67-1.204c2.827-0.157,5.665,0.155,8.56,0.267
					C52.372,9.123,52.483,7.752,52.639,6.045"/>
			</g>
			<g style="clip-path:url(#SVGID_00000043446358863927029320000008514181452671268519_);">
				<defs>
					<rect id="SVGID_00000173870076853624420650000005328502316262759055_" x="7.202" y="20.978" width="22.814" height="29.497"/>
				</defs>
				<clipPath id="SVGID_00000116211318409256158360000010856793590530082722_">
					<use xlink:href="#SVGID_00000173870076853624420650000005328502316262759055_"  style="overflow:visible;"/>
				</clipPath>
				<path style="clip-path:url(#SVGID_00000116211318409256158360000010856793590530082722_);fill:#E33A3A;" d="M30.015,36.668
					c0.011,0.368-0.167,0.725-0.312,1.283c-1.386-0.804-2.593-1.506-3.911-2.275c-1.006,1.528-2.1,2.966-2.972,4.538
					c-1.408,2.543-2.703,5.142-3.083,8.108c-0.09,0.702-0.66,1.338-1.084,2.152c-3.888-1.895-7.687-3.747-11.452-5.576
					c1.765-5.721,3.944-10.862,8.167-15.043c-1.419-1.071-2.559-1.93-3.988-3.012c5.809-2.988,11.943-3.959,17.886-5.865
					c0.235,0.825,0.481,1.327,0.492,1.839C29.87,27.435,29.959,32.051,30.015,36.668"/>
			</g>
			<g style="clip-path:url(#SVGID_00000043446358863927029320000008514181452671268519_);">
				<defs>
					<rect id="SVGID_00000155114887341755823190000005574768555043749551_" x="31.993" y="74.328" width="31.942" height="21.144"/>
				</defs>
				<clipPath id="SVGID_00000161602913834677991890000010564772263901202592_">
					<use xlink:href="#SVGID_00000155114887341755823190000005574768555043749551_"  style="overflow:visible;"/>
				</clipPath>
				<path style="clip-path:url(#SVGID_00000161602913834677991890000010564772263901202592_);fill:#55C95A;" d="M62.639,77.16
					c0.446,4.45,0.861,8.543,1.296,12.849c-1.228,0.177-2.156,0.299-3.107,0.433c-4.512,1.608-9.159,1.383-13.954,0.591
					c-0.145,1.595-0.256,2.978-0.379,4.439c-1.877-0.346-3.106-1.382-4.324-2.498c-3.151-2.876-6.335-5.709-9.508-8.554
					c-0.156-0.145-0.29-0.334-0.67-0.758c4.514-3.29,8.938-6.546,14.155-9.334v4.707c1.285,0.077,2.414,0.267,3.509,0.177
					c2.413-0.2,4.815-0.48,7.206-0.847C58.706,78.075,60.528,77.606,62.639,77.16"/>
			</g>
			<polygon style="clip-path:url(#SVGID_00000043446358863927029320000008514181452671268519_);fill:#523742;" points="
				62.133,46.618 60.462,47.138 58.674,47.717 56.852,48.933 55.57,50.698 54.528,52.636 54.273,54.832 54.273,54.843 
				54.827,57.771 55.812,59.625 57.148,61.231 59.052,62.08 60.564,62.575 62.129,62.804 62.518,62.972 63.319,62.972 
				63.714,62.835 65.925,62.367 67.72,61.631 69.066,60.251 70.194,58.7 70.68,56.831 70.977,55.432 70.977,53.662 70.536,52.031 
				69.515,50.106 68.118,48.486 66.172,47.559 63.667,46.618 			"/>
			<g style="clip-path:url(#SVGID_00000043446358863927029320000008514181452671268519_);">
				<defs>
					
						<rect id="SVGID_00000158728906873473676590000004111715686088376971_" x="27.463" y="43.063" transform="matrix(0.7465 -0.6654 0.6654 0.7465 -23.8439 40.1555)" width="26.633" height="16.615"/>
				</defs>
				<clipPath id="SVGID_00000155847217325467548160000004603405417668675204_">
					<use xlink:href="#SVGID_00000158728906873473676590000004111715686088376971_"  style="overflow:visible;"/>
				</clipPath>
				<path style="clip-path:url(#SVGID_00000155847217325467548160000004603405417668675204_);fill:#9F9EB1;" d="M46.595,42.762
					c0.854-0.81,0.047-2.661,1.793-2.867c2.407,3.059,4.79,6.079,7.325,9.297c-3.19,2.083-6.689,3.412-10.039,4.999
					c-0.346-0.095-0.636-0.181-0.987-0.271c0.165-1.249,0.345-2.523,0.521-3.83c-2.244-1.32-4.231-0.318-5.877,0.733
					c-2.681,1.714-1.868,4.356-1.186,6.544c0.5,0.694,0.849,1.165,1.307,1.799c-2.252,1.238-4.297,2.36-6.38,3.493
					c-0.161-0.153-0.343-0.251-0.386-0.391c-0.608-1.721-1.501-3.414-1.713-5.182c-0.523-4.429,0.605-8.432,3.952-11.617
					c2.148-2.033,4.599-3.34,7.62-3.222C43.87,42.299,45.182,42.575,46.595,42.762"/>
			</g>
		</g>
	</g>
</g>
<g id="Layer_2">
	<g id="Layer_3">
	</g>
</g>
</svg>
