<?xml version="1.0" encoding="iso-8859-1"?>
<!-- Generator: Adobe Illustrator 26.0.1, SVG Export Plug-In . SVG Version: 6.00 Build 0)  -->
<svg version="1.1" xmlns="http://www.w3.org/2000/svg" xmlns:xlink="http://www.w3.org/1999/xlink" x="0px" y="0px"
	 viewBox="0 0 100 100" style="enable-background:new 0 0 100 100;" xml:space="preserve">
<g id="Layer_1">
	<g id="G_x28__T1_T1_T1_L1__x29__L3_L1_00000080906434124195161180000017287970870996870589_">
		<g>
			<defs>
				<rect id="SVGID_1_" x="8" width="90.813" height="97.499"/>
			</defs>
			<clipPath id="SVGID_00000163063776944370218530000009187238935737052049_">
				<use xlink:href="#SVGID_1_"  style="overflow:visible;"/>
			</clipPath>
			<polygon style="clip-path:url(#SVGID_00000163063776944370218530000009187238935737052049_);fill:#523742;" points="
				62.383,32.173 60.797,33.35 59.107,34.634 57.616,36.612 56.908,38.973 56.521,41.431 57.07,43.872 57.072,43.877 58.757,46.796 
				60.499,48.405 62.525,49.621 64.873,49.815 66.67,49.777 68.425,49.437 68.902,49.471 69.755,49.172 70.128,48.877 
				72.311,47.554 73.95,46.099 74.87,44.124 75.496,42.048 75.316,39.874 75.11,38.271 74.449,36.383 73.369,34.807 71.561,33.135 
				69.466,31.931 67.045,31.667 64.026,31.598 			"/>
			<g style="clip-path:url(#SVGID_00000163063776944370218530000009187238935737052049_);">
				<defs>
					
						<rect id="SVGID_00000179623846030681676530000001752348037300380078_" x="26.515" y="36.974" transform="matrix(0.8441 -0.5362 0.5362 0.8441 -17.8341 29.019)" width="28.928" height="16.4"/>
				</defs>
				<clipPath id="SVGID_00000059998123037025635680000003654894068286971061_">
					<use xlink:href="#SVGID_00000179623846030681676530000001752348037300380078_"  style="overflow:visible;"/>
				</clipPath>
				<path style="clip-path:url(#SVGID_00000059998123037025635680000003654894068286971061_);fill:#E1D153;" d="M34.7,53.668
					c-2.535-1.34-7.05-7.369-7.05-7.369c1.152-1.916,1.505-1.605,3.684-3.525c0.089-0.079,1.609-0.993,1.688-1.072
					c0.446-0.455,4.641-2.931,8.346-3.21c0.542-0.042,1.075-0.202,1.682-0.322c-0.175-1.171-0.341-2.278-0.51-3.406
					c2.036,0.098,10.429,4.583,13.128,7.024c-2.779,3.359-5.799,6.47-9.298,9.49c-0.385-1.381-0.688-2.465-1.054-3.777
					c-2.242,0.572-4.086,1.078-6.088,2.105C37.481,50.503,35.852,51.751,34.7,53.668"/>
			</g>
			<g style="clip-path:url(#SVGID_00000163063776944370218530000009187238935737052049_);">
				<defs>
					
						<rect id="SVGID_00000067938121980820421920000007405087574289847978_" x="64.206" y="1.499" transform="matrix(0.9731 -0.2302 0.2302 0.9731 -1.7303 17.0951)" width="16.401" height="28.93"/>
				</defs>
				<clipPath id="SVGID_00000116955100666527543410000006806161677546682290_">
					<use xlink:href="#SVGID_00000067938121980820421920000007405087574289847978_"  style="overflow:visible;"/>
				</clipPath>
				<path style="clip-path:url(#SVGID_00000116955100666527543410000006806161677546682290_);fill:#5699DE;" d="M66.439,7.249
					c2.096-1.956,9.271-4.248,9.271-4.248c1.433,1.716,1.024,1.948,2.124,4.636c0.045,0.11,0.411,1.846,0.46,1.946
					c0.284,0.57,1.249,5.345,0.299,8.937c-0.138,0.526-0.161,1.082-0.247,1.694c1.164,0.219,2.264,0.425,3.385,0.634
					c-0.76,1.892-7.746,8.353-10.937,10.104c-2.262-3.726-4.213-7.599-5.92-11.893c1.43,0.087,2.554,0.157,3.915,0.24
					c0.193-2.306,0.319-4.214,0.004-6.441C68.518,10.913,67.873,8.965,66.439,7.249"/>
			</g>
			<g style="clip-path:url(#SVGID_00000163063776944370218530000009187238935737052049_);">
				<defs>
					
						<rect id="SVGID_00000057829577932881566770000017812015562069392810_" x="74.024" y="44.68" transform="matrix(0.4328 -0.9015 0.9015 0.4328 -6.6826 107.6679)" width="16.401" height="28.929"/>
				</defs>
				<clipPath id="SVGID_00000139993297102427525890000009491130159413009564_">
					<use xlink:href="#SVGID_00000057829577932881566770000017812015562069392810_"  style="overflow:visible;"/>
				</clipPath>
				<path style="clip-path:url(#SVGID_00000139993297102427525890000009491130159413009564_);fill:#AD70D6;" d="M92.753,59.982
					c0.204,2.86-2.524,9.881-2.524,9.881c-2.236,0.036-2.159-0.429-4.941-1.263c-0.114-0.033-1.693-0.841-1.803-0.865
					c-0.622-0.138-4.942-2.389-7.138-5.386c-0.322-0.438-0.74-0.805-1.162-1.257c-0.902,0.768-1.753,1.494-2.621,2.234
					c-0.994-1.781-1.626-11.275-0.982-14.857c4.319,0.583,8.559,1.5,12.971,2.872c-0.968,1.058-1.728,1.888-2.648,2.893
					c1.671,1.601,3.077,2.898,5.006,4.053C88.597,59.295,90.518,60.018,92.753,59.982"/>
			</g>
			<g style="clip-path:url(#SVGID_00000163063776944370218530000009187238935737052049_);">
				<defs>
					<rect id="SVGID_00000075881683731005707950000014768138625179763887_" x="8.004" y="58.354" width="41.85" height="39.145"/>
				</defs>
				<clipPath id="SVGID_00000098184497885602122910000003725379194447888048_">
					<use xlink:href="#SVGID_00000075881683731005707950000014768138625179763887_"  style="overflow:visible;"/>
				</clipPath>
				<path style="clip-path:url(#SVGID_00000098184497885602122910000003725379194447888048_);fill:#F26C2B;" d="M50,77v4.32
					c-0.1,0.32-0.19,0.64-0.29,0.96c-0.62,1.94-1.1,3.94-1.9,5.8c-0.42,0.98-1.25,1.9-2.11,2.56c-1.74,1.34-3.62,2.48-5.54,3.76
					c0.54,0.92,1.13,1.93,1.74,2.96c-2.67,0.91-14.34-0.29-15.63-1.61c1-2.61,1.86-5.28,2.93-7.97c0.65-1.6,1.37-3.22,2.23-4.82
					c0.95,1.17,1.73,2.13,2.53,3.12c1.82-1.3,3.59-2.57,5.43-3.89c0.22-2.01,2.57-3.46,1.4-6.06c0.8,0.07,1.35,0.13,1.9,0.17
					c2.21,0.17,4.42,0.33,6.63,0.5C49.55,76.82,49.78,76.93,50,77"/>
				<path style="clip-path:url(#SVGID_00000098184497885602122910000003725379194447888048_);fill:#55C95A;" d="M42.364,58.354
					c1.67,1.17,6.35,9.46,7.32,12.97c-3.08,1-6.21,1.81-9.48,2.43c-1.14,0.22-2.29,0.42-3.46,0.59c0.42-1.37,0.74-2.45,1.14-3.75
					c-2.2-0.72-4.36-1.83-6.6-2.04c-1.95-0.18-4.27-0.29-5.84,1.66c-0.3-0.53-0.6-1.05-0.89-1.56c-1.1-1.92-2.15-3.76-3.23-5.65
					c2.19-1.64,4.45-3.27,7.31-3.72c0.12-0.02,0.26,0.01,0.36-0.03c3.83-1.81,7.11-0.14,10.39,1.62c0.48,0.25,1.01,0.4,1.59,0.63
					C41.454,60.414,41.904,59.394,42.364,58.354"/>
				<path style="clip-path:url(#SVGID_00000098184497885602122910000003725379194447888048_);fill:#E33A3A;" d="M11.644,83.114
					c-0.24-1.57-0.1-3.21-0.13-4.83c-0.01-0.46,0-0.93,0-1.41c-1.28-0.07-2.4-0.13-3.51-0.18c0.2-2.35,7.28-11.86,9.39-12.58
					c1.59,1.92,3.26,3.81,4.83,5.87c1.22,1.59,2.37,3.29,3.39,5.19c-1.51,0.21-2.62,0.36-3.9,0.54c0.17,2.13-0.06,4.4,0.64,6.32
					c0.68,1.86,1.82,3.79,4.25,4.78c-1.79,2.52-3.45,4.86-5.18,7.3c-2.62-1.48-5.19-2.85-6.86-5.41c-0.32-0.49-0.78-0.89-1.2-1.3
					C12.154,86.224,11.884,84.634,11.644,83.114"/>
			</g>
			<polygon style="clip-path:url(#SVGID_00000163063776944370218530000009187238935737052049_);fill:#9F9EB1;" points="
				80.961,77.352 79.077,77.939 77.056,78.593 74.996,79.967 73.548,81.962 72.371,84.154 72.082,86.634 72.082,86.647 
				72.708,89.956 73.822,92.05 75.332,93.867 77.484,94.825 79.193,95.384 80.961,95.643 81.399,95.832 82.306,95.832 
				82.753,95.678 85.251,95.15 87.278,94.318 88.799,92.758 90.076,91.005 90.625,88.893 90.96,87.308 90.96,85.315 90.462,83.467 
				89.306,81.293 87.728,79.463 85.53,78.415 82.7,77.352 			"/>
		</g>
	</g>
</g>
<g id="Layer_2">
	<g id="Layer_3">
	</g>
</g>
</svg>
