<?xml version="1.0" encoding="iso-8859-1"?>
<!-- Generator: Adobe Illustrator 26.0.1, SVG Export Plug-In . SVG Version: 6.00 Build 0)  -->
<svg version="1.1" xmlns="http://www.w3.org/2000/svg" xmlns:xlink="http://www.w3.org/1999/xlink" x="0px" y="0px"
	 viewBox="0 0 100 100" style="enable-background:new 0 0 100 100;" xml:space="preserve">
<g id="Layer_1">
	<g id="L2_L2_L2_L1_L1_00000127732052529060622470000005509552821017277358_">
		<g>
			<defs>
				<rect id="SVGID_1_" x="10" y="9" width="79.96" height="81.48"/>
			</defs>
			<clipPath id="SVGID_00000091713559566677094370000005087379321890328713_">
				<use xlink:href="#SVGID_1_"  style="overflow:visible;"/>
			</clipPath>
			<g style="clip-path:url(#SVGID_00000091713559566677094370000005087379321890328713_);">
				<defs>
					<rect id="SVGID_00000066480502568695268960000006627653166299659147_" x="10" y="9" width="79.96" height="81.48"/>
				</defs>
				<clipPath id="SVGID_00000176755745785321509650000006531605169385157049_">
					<use xlink:href="#SVGID_00000066480502568695268960000006627653166299659147_"  style="overflow:visible;"/>
				</clipPath>
				<g style="clip-path:url(#SVGID_00000176755745785321509650000006531605169385157049_);">
					<defs>
						<rect id="SVGID_00000074407483027651743680000015646543549357936513_" x="10" y="9" width="79.96" height="81.48"/>
					</defs>
					<clipPath id="SVGID_00000117677406848344929730000002698723003184453814_">
						<use xlink:href="#SVGID_00000074407483027651743680000015646543549357936513_"  style="overflow:visible;"/>
					</clipPath>
					<g style="opacity:0.96;clip-path:url(#SVGID_00000117677406848344929730000002698723003184453814_);">
						<g>
							<defs>
								<rect id="SVGID_00000145020051982283230660000006142005530090676919_" x="11" y="8.997" width="31.363" height="34.872"/>
							</defs>
							<clipPath id="SVGID_00000084493412906568055170000007533697029082334090_">
								<use xlink:href="#SVGID_00000145020051982283230660000006142005530090676919_"  style="overflow:visible;"/>
							</clipPath>
							<g style="clip-path:url(#SVGID_00000084493412906568055170000007533697029082334090_);">
								<defs>
									<rect id="SVGID_00000025406093555200494440000011064371719819960991_" x="12.264" y="9" width="30.094" height="18.776"/>
								</defs>
								<clipPath id="SVGID_00000085933631304579983600000002639119007751649665_">
									<use xlink:href="#SVGID_00000025406093555200494440000011064371719819960991_"  style="overflow:visible;"/>
								</clipPath>
								<path style="clip-path:url(#SVGID_00000085933631304579983600000002639119007751649665_);fill:#E33A3A;" d="M38.693,15.496
									c1.33-0.04,2.04-2.21,3.67-1.07c-0.27,4.39-0.53,8.73-0.81,13.35c-4.26-0.64-8.21-2.15-12.23-3.33
									c-0.22-0.34-0.4-0.63-0.63-0.97c1.08-0.93,2.19-1.87,3.32-2.84c-0.9-2.8-3.33-3.45-5.51-3.8c-3.55-0.57-4.85,2.27-5.92,4.63
									c-0.1,0.96-0.16,1.62-0.25,2.5c-2.83-0.65-5.4-1.24-8.01-1.85c-0.02-0.25-0.1-0.47-0.03-0.62c0.78-1.91,1.3-4.01,2.45-5.66
									c2.89-4.13,6.85-6.66,12.07-6.83c3.34-0.1,6.39,0.64,8.85,3.01C36.743,13.056,37.643,14.276,38.693,15.496"/>
							</g>
							<g style="clip-path:url(#SVGID_00000084493412906568055170000007533697029082334090_);">
								<defs>
									
										<rect id="SVGID_00000117649573211372168120000006102935009348686520_" x="11.003" y="25.656" width="29.36" height="18.213"/>
								</defs>
								<clipPath id="SVGID_00000147199930850693136300000008020174283687662743_">
									<use xlink:href="#SVGID_00000117649573211372168120000006102935009348686520_"  style="overflow:visible;"/>
								</clipPath>
								<path style="clip-path:url(#SVGID_00000147199930850693136300000008020174283687662743_);fill:#5699DE;" d="M40.363,31.446
									c-0.1,0.3-0.17,0.6-0.29,0.87c-1.52,3.45-3.13,6.93-6.51,8.9c-1.9,1.11-4.16,1.59-6.26,2.36c-2.15,0.78-4.14-0.2-6.16-0.61
									c-1.67-0.33-2.86-1.56-4-2.76c-0.82-0.86-1.62-1.74-2.62-2.83c-1.02,0.3-2.14,0.63-3.52,1.04c0.24-4.15,0.49-8.3,0.76-12.76
									c4,1.19,7.88,2.35,12.16,3.63c-1.18,1.02-2.12,1.83-3.03,2.63v1.59c1.49,2.59,3.87,3.08,6.63,3.14
									c3.42,0.08,4.13-2.66,5.59-4.93v-1.92C35.563,30.356,37.923,30.886,40.363,31.446"/>
							</g>
						</g>
					</g>
					<g style="opacity:0.96;clip-path:url(#SVGID_00000117677406848344929730000002698723003184453814_);">
						<g>
							<defs>
								<rect id="SVGID_00000060012481431729790450000015641333774987311232_" x="56" y="8.997" width="31.363" height="34.872"/>
							</defs>
							<clipPath id="SVGID_00000052069830907729504680000007053977834120865973_">
								<use xlink:href="#SVGID_00000060012481431729790450000015641333774987311232_"  style="overflow:visible;"/>
							</clipPath>
							<g style="clip-path:url(#SVGID_00000052069830907729504680000007053977834120865973_);">
								<defs>
									<rect id="SVGID_00000165948443673282267200000013344384275491646130_" x="57.264" y="9" width="30.095" height="18.776"/>
								</defs>
								<clipPath id="SVGID_00000016771105885651098300000008509565545504372397_">
									<use xlink:href="#SVGID_00000165948443673282267200000013344384275491646130_"  style="overflow:visible;"/>
								</clipPath>
								<path style="clip-path:url(#SVGID_00000016771105885651098300000008509565545504372397_);fill:#AD70D6;" d="M83.692,15.496
									c1.33-0.04,2.04-2.21,3.67-1.07c-0.27,4.39-0.529,8.73-0.81,13.35c-4.259-0.64-8.21-2.15-12.23-3.33
									c-0.22-0.34-0.4-0.63-0.63-0.97c1.08-0.93,2.19-1.87,3.32-2.84c-0.9-2.8-3.33-3.45-5.509-3.8
									c-3.55-0.57-4.851,2.27-5.92,4.63c-0.101,0.96-0.161,1.62-0.25,2.5c-2.83-0.65-5.401-1.24-8.011-1.85
									c-0.02-0.25-0.1-0.47-0.029-0.62c0.779-1.91,1.299-4.01,2.45-5.66c2.889-4.13,6.849-6.66,12.069-6.83
									c3.34-0.1,6.391,0.64,8.851,3.01C81.743,13.056,82.642,14.276,83.692,15.496"/>
							</g>
							<g style="clip-path:url(#SVGID_00000052069830907729504680000007053977834120865973_);">
								<defs>
									
										<rect id="SVGID_00000031887115235512431290000008480281377694473396_" x="56.003" y="25.656" width="29.36" height="18.213"/>
								</defs>
								<clipPath id="SVGID_00000171001308362385143660000010664619857709441426_">
									<use xlink:href="#SVGID_00000031887115235512431290000008480281377694473396_"  style="overflow:visible;"/>
								</clipPath>
								<path style="clip-path:url(#SVGID_00000171001308362385143660000010664619857709441426_);fill:#55C95A;" d="M85.362,31.446
									c-0.1,0.3-0.17,0.6-0.29,0.87c-1.52,3.45-3.13,6.93-6.51,8.9c-1.899,1.11-4.16,1.59-6.26,2.36
									c-2.15,0.78-4.139-0.2-6.16-0.61c-1.67-0.33-2.86-1.56-4-2.76c-0.82-0.86-1.62-1.74-2.62-2.83
									c-1.019,0.3-2.139,0.63-3.519,1.04c0.239-4.15,0.489-8.3,0.759-12.76c4,1.19,7.88,2.35,12.161,3.63
									c-1.181,1.02-2.121,1.83-3.031,2.63v1.59c1.491,2.59,3.87,3.08,6.63,3.14c3.42,0.08,4.13-2.66,5.59-4.93v-1.92
									C80.562,30.356,82.923,30.886,85.362,31.446"/>
							</g>
						</g>
					</g>
					<g style="opacity:0.96;clip-path:url(#SVGID_00000117677406848344929730000002698723003184453814_);">
						<g>
							<defs>
								<rect id="SVGID_00000048481933696360913000000013202503168866817409_" x="10" y="52.997" width="31.363" height="34.872"/>
							</defs>
							<clipPath id="SVGID_00000002351109660636957770000016331730216266224037_">
								<use xlink:href="#SVGID_00000048481933696360913000000013202503168866817409_"  style="overflow:visible;"/>
							</clipPath>
							<g style="clip-path:url(#SVGID_00000002351109660636957770000016331730216266224037_);">
								<defs>
									
										<rect id="SVGID_00000054962198309402076430000007433953221918361236_" x="11.264" y="53.001" width="30.094" height="18.775"/>
								</defs>
								<clipPath id="SVGID_00000062902997235996001760000014178941701587221153_">
									<use xlink:href="#SVGID_00000054962198309402076430000007433953221918361236_"  style="overflow:visible;"/>
								</clipPath>
								<path style="clip-path:url(#SVGID_00000062902997235996001760000014178941701587221153_);fill:#F26C2B;" d="M37.693,59.496
									c1.33-0.04,2.04-2.21,3.67-1.07c-0.27,4.389-0.53,8.73-0.81,13.349c-4.26-0.639-8.21-2.149-12.23-3.33
									c-0.22-0.34-0.4-0.63-0.63-0.97c1.08-0.929,2.19-1.87,3.32-2.839c-0.9-2.8-3.33-3.451-5.51-3.8
									c-3.55-0.57-4.85,2.269-5.92,4.63c-0.1,0.96-0.16,1.62-0.25,2.5c-2.83-0.651-5.4-1.241-8.01-1.85
									c-0.02-0.25-0.1-0.471-0.03-0.62c0.78-1.91,1.3-4.011,2.45-5.66c2.89-4.13,6.85-6.66,12.07-6.83
									c3.34-0.1,6.39,0.639,8.85,3.01C35.743,57.056,36.643,58.275,37.693,59.496"/>
							</g>
							<g style="clip-path:url(#SVGID_00000002351109660636957770000016331730216266224037_);">
								<defs>
									
										<rect id="SVGID_00000081616861919951836910000016571629090396232067_" x="10.003" y="69.656" width="29.36" height="18.212"/>
								</defs>
								<clipPath id="SVGID_00000014606937058632212700000002938640187780346029_">
									<use xlink:href="#SVGID_00000081616861919951836910000016571629090396232067_"  style="overflow:visible;"/>
								</clipPath>
								<path style="clip-path:url(#SVGID_00000014606937058632212700000002938640187780346029_);fill:#E1D153;" d="M39.363,75.446
									c-0.1,0.3-0.17,0.6-0.29,0.87c-1.52,3.449-3.13,6.93-6.51,8.9c-1.9,1.11-4.16,1.589-6.26,2.36
									c-2.15,0.78-4.14-0.2-6.16-0.61c-1.67-0.331-2.86-1.56-4-2.76c-0.82-0.861-1.62-1.74-2.62-2.83
									c-1.02,0.299-2.14,0.63-3.52,1.04c0.24-4.151,0.49-8.3,0.76-12.76c4,1.189,7.88,2.35,12.16,3.63
									c-1.18,1.019-2.12,1.83-3.03,2.63v1.59c1.49,2.589,3.87,3.08,6.63,3.14c3.42,0.079,4.13-2.66,5.59-4.93v-1.92
									C34.563,74.356,36.923,74.885,39.363,75.446"/>
							</g>
						</g>
					</g>
					<g style="opacity:0.96;clip-path:url(#SVGID_00000117677406848344929730000002698723003184453814_);">
						<g>
							<defs>
								<rect id="SVGID_00000109740359243072636930000015365836104642789310_" x="71" y="48.948" width="19.135" height="18.706"/>
							</defs>
							<clipPath id="SVGID_00000121250920441464407850000001421922060682030239_">
								<use xlink:href="#SVGID_00000109740359243072636930000015365836104642789310_"  style="overflow:visible;"/>
							</clipPath>
						</g>
					</g>
					<g style="opacity:0.96;clip-path:url(#SVGID_00000117677406848344929730000002698723003184453814_);">
						<g>
							<defs>
								<rect id="SVGID_00000140694647910664125650000006058836197186459535_" x="53" y="71.948" width="19.135" height="18.706"/>
							</defs>
							<clipPath id="SVGID_00000073686626744730705850000007962017592221778304_">
								<use xlink:href="#SVGID_00000140694647910664125650000006058836197186459535_"  style="overflow:visible;"/>
							</clipPath>
						</g>
					</g>
				</g>
			</g>
		</g>
	</g>
	<g id="T2_x5F_4_00000178193720745483150830000016208195101194530460_">
		<g>
			<defs>
				<rect id="SVGID_00000126309972599450091450000006651886985969223340_" x="44" y="52" width="48" height="33"/>
			</defs>
			<clipPath id="SVGID_00000049183072570976581410000016599817561188230808_">
				<use xlink:href="#SVGID_00000126309972599450091450000006651886985969223340_"  style="overflow:visible;"/>
			</clipPath>
			<polygon style="clip-path:url(#SVGID_00000049183072570976581410000016599817561188230808_);fill:#9F9EB1;" points="
				82.766,63.398 81.022,63.956 79.156,64.577 77.253,65.883 75.915,67.777 74.827,69.859 74.561,72.215 74.561,72.227 
				75.139,75.37 76.167,77.359 77.562,79.084 79.55,79.995 81.129,80.526 82.763,80.772 83.169,80.952 84.005,80.952 84.418,80.805 
				86.725,80.303 88.6,79.513 90.004,78.032 91.183,76.366 91.69,74.361 92,72.858 92,70.959 91.539,69.207 90.472,67.141 
				89.014,65.403 86.983,64.407 84.368,63.398 			"/>
			<g style="clip-path:url(#SVGID_00000049183072570976581410000016599817561188230808_);">
				<defs>
					<polygon id="SVGID_00000159433769482534557030000016920378947294028685_" points="44.323,71.352 55.865,84.668 76.623,65.648 
						65.081,52.332 					"/>
				</defs>
				<clipPath id="SVGID_00000178188546933194692290000014413852381487344532_">
					<use xlink:href="#SVGID_00000159433769482534557030000016920378947294028685_"  style="overflow:visible;"/>
				</clipPath>
				<path style="clip-path:url(#SVGID_00000178188546933194692290000014413852381487344532_);fill:#523742;" d="M66.544,59.258
					c0.892-0.869,0.049-2.856,1.873-3.077c2.513,3.284,5,6.525,7.647,9.979c-3.331,2.237-6.984,3.663-10.481,5.367
					c-0.361-0.102-0.663-0.194-1.03-0.291c0.173-1.341,0.36-2.709,0.544-4.112c-2.343-1.416-4.418-0.341-6.136,0.787
					c-2.799,1.84-1.95,4.675-1.238,7.025c0.522,0.744,0.886,1.249,1.364,1.931c-2.351,1.328-4.487,2.532-6.661,3.749
					c-0.167-0.164-0.358-0.27-0.402-0.42c-0.636-1.847-1.568-3.665-1.788-5.562c-0.546-4.755,0.631-9.052,4.126-12.47
					c2.242-2.182,4.801-3.585,7.955-3.458C63.7,58.761,65.07,59.057,66.544,59.258"/>
			</g>
		</g>
	</g>
</g>
<g id="Layer_2">
	<g id="Layer_3">
	</g>
</g>
<g id="Layer_4">
</g>
</svg>
