<?xml version="1.0" encoding="iso-8859-1"?>
<!-- Generator: Adobe Illustrator 26.0.1, SVG Export Plug-In . SVG Version: 6.00 Build 0)  -->
<svg version="1.1" xmlns="http://www.w3.org/2000/svg" xmlns:xlink="http://www.w3.org/1999/xlink" x="0px" y="0px"
	 viewBox="0 0 100 100" style="enable-background:new 0 0 100 100;" xml:space="preserve">
<g id="Layer_1">
	<g id="L2_00000140013980039897813550000014734125918511821714_">
		<g>
			<defs>
				<rect id="SVGID_1_" x="24.224" y="33.631" width="29.531" height="32.574"/>
			</defs>
			<clipPath id="SVGID_00000101067256284874371370000018292577489217083012_">
				<use xlink:href="#SVGID_1_"  style="overflow:visible;"/>
			</clipPath>
			<g style="clip-path:url(#SVGID_00000101067256284874371370000018292577489217083012_);">
				<defs>
					<rect id="SVGID_00000041979523394665673870000006066913913314715010_" x="24.224" y="33.632" width="29.531" height="32.574"/>
				</defs>
				<clipPath id="SVGID_00000090289127809707074410000011435536590272797611_">
					<use xlink:href="#SVGID_00000041979523394665673870000006066913913314715010_"  style="overflow:visible;"/>
				</clipPath>
				<g style="clip-path:url(#SVGID_00000090289127809707074410000011435536590272797611_);">
					<defs>
						
							<rect id="SVGID_00000119087020436310214690000001141784520496563096_" x="25.414" y="33.629" width="28.344" height="17.543"/>
					</defs>
					<clipPath id="SVGID_00000021836199396621701810000000839903345159118010_">
						<use xlink:href="#SVGID_00000119087020436310214690000001141784520496563096_"  style="overflow:visible;"/>
					</clipPath>
					<g style="clip-path:url(#SVGID_00000021836199396621701810000000839903345159118010_);">
						<defs>
							
								<rect id="SVGID_00000067953489454546388440000005395293732420796043_" x="25.414" y="33.629" width="28.344" height="17.543"/>
						</defs>
						<clipPath id="SVGID_00000016054886397218481780000009636626044666648475_">
							<use xlink:href="#SVGID_00000067953489454546388440000005395293732420796043_"  style="overflow:visible;"/>
						</clipPath>
					</g>
				</g>
				<g style="clip-path:url(#SVGID_00000090289127809707074410000011435536590272797611_);">
					<defs>
						
							<rect id="SVGID_00000075160957863808369090000017384637310514403206_" x="24.226" y="49.191" width="27.649" height="17.014"/>
					</defs>
					<clipPath id="SVGID_00000062184515460264964610000008585782226236687496_">
						<use xlink:href="#SVGID_00000075160957863808369090000017384637310514403206_"  style="overflow:visible;"/>
					</clipPath>
					<g style="clip-path:url(#SVGID_00000062184515460264964610000008585782226236687496_);">
						<defs>
							
								<rect id="SVGID_00000036955294522114764350000005252823403234283681_" x="24.226" y="49.191" width="27.649" height="17.014"/>
						</defs>
						<clipPath id="SVGID_00000106113911361824494740000015979657388931546520_">
							<use xlink:href="#SVGID_00000036955294522114764350000005252823403234283681_"  style="overflow:visible;"/>
						</clipPath>
					</g>
				</g>
			</g>
		</g>
	</g>
	<g id="T1_x5F_2_00000021837840773368929580000009948297909211203974_">
		<g>
			<defs>
				<rect id="SVGID_00000049210775971160337870000011549879035349167295_" x="1.622" y="21.487" width="27.243" height="15.321"/>
			</defs>
			<clipPath id="SVGID_00000155117653229199079990000000525313501884527506_">
				<use xlink:href="#SVGID_00000049210775971160337870000011549879035349167295_"  style="overflow:visible;"/>
			</clipPath>
			<g style="clip-path:url(#SVGID_00000155117653229199079990000000525313501884527506_);">
				<defs>
					<rect id="SVGID_00000109007350677348045100000008725948873460273827_" x="1.622" y="21.487" width="27.243" height="15.321"/>
				</defs>
				<clipPath id="SVGID_00000052077552184467121560000001982995482558736789_">
					<use xlink:href="#SVGID_00000109007350677348045100000008725948873460273827_"  style="overflow:visible;"/>
				</clipPath>
				<path style="clip-path:url(#SVGID_00000052077552184467121560000001982995482558736789_);fill:#55C95A;" d="M5.964,32.699
					c-1.338-2.326-1.883-9.342-1.883-9.342c1.883-0.934,2.007-0.512,4.709-0.934c0.111-0.018,1.781,0.023,1.883,0
					c0.584-0.135,5.169,0.014,8.255,1.65c0.452,0.239,0.957,0.379,1.499,0.589c0.452-1.011,0.88-1.967,1.315-2.941
					c1.569,1.098,5.975,8.839,6.889,12.116c-3.905,1.256-7.877,2.196-12.183,2.825c0.391-1.282,0.698-2.289,1.069-3.507
					c-2.071-0.672-3.792-1.197-5.902-1.389C9.772,31.597,7.847,31.765,5.964,32.699"/>
			</g>
		</g>
	</g>
	<g id="T1_x5F_2_00000114048768640165208770000007242353951699773113_">
		<g>
			<defs>
				<polygon id="SVGID_00000113327515776968792250000001051747844855754645_" points="37.205,0 48.331,24.669 34.233,30.926 
					23.107,6.257 				"/>
			</defs>
			<clipPath id="SVGID_00000036961910085574020880000016098379322120783801_">
				<use xlink:href="#SVGID_00000113327515776968792250000001051747844855754645_"  style="overflow:visible;"/>
			</clipPath>
			<g style="clip-path:url(#SVGID_00000036961910085574020880000016098379322120783801_);">
				<defs>
					<polygon id="SVGID_00000016042173298977317130000007411939833876285871_" points="37.205,0 48.33,24.669 34.233,30.926 
						23.107,6.257 					"/>
				</defs>
				<clipPath id="SVGID_00000033350529568719851240000017992651173309279123_">
					<use xlink:href="#SVGID_00000016042173298977317130000007411939833876285871_"  style="overflow:visible;"/>
				</clipPath>
				<path style="clip-path:url(#SVGID_00000033350529568719851240000017992651173309279123_);fill:#F26C2B;" d="M28.661,8.51
					c1.594-2.162,7.827-5.521,7.827-5.521c1.629,1.324,1.291,1.608,2.783,3.882c0.062,0.093,0.706,1.622,0.769,1.705
					c0.363,0.473,2.098,4.686,1.853,8.149c-0.035,0.507,0.042,1.021,0.071,1.598c1.115-0.003,2.169-0.007,3.243-0.011
					c-0.369,1.869-5.692,9.02-8.335,11.186c-2.75-3.024-5.238-6.236-7.575-9.878c1.339-0.17,2.391-0.303,3.663-0.464
					c-0.228-2.15-0.448-3.923-1.132-5.912C31.23,11.509,30.29,9.834,28.661,8.51"/>
			</g>
		</g>
	</g>
	<g id="T1_x5F_2_00000009592441092076070190000006607945758367978932_">
		<g>
			<defs>
				<polygon id="SVGID_00000175321794306474640510000006572415151592324788_" points="74,19.067 56.474,39.758 44.65,29.901 
					62.176,9.21 				"/>
			</defs>
			<clipPath id="SVGID_00000060719849141371940290000000628520249714843831_">
				<use xlink:href="#SVGID_00000175321794306474640510000006572415151592324788_"  style="overflow:visible;"/>
			</clipPath>
			<g style="clip-path:url(#SVGID_00000060719849141371940290000000628520249714843831_);">
				<defs>
					<polygon id="SVGID_00000100344391103675257160000010667146274890427581_" points="74,19.067 56.474,39.758 44.65,29.901 
						62.176,9.21 					"/>
				</defs>
				<clipPath id="SVGID_00000005958797421328696450000007508215674490428051_">
					<use xlink:href="#SVGID_00000100344391103675257160000010667146274890427581_"  style="overflow:visible;"/>
				</clipPath>
				<path style="clip-path:url(#SVGID_00000005958797421328696450000007508215674490428051_);fill:#E33A3A;" d="M62.554,15.151
					c2.656,0.48,8.421,4.579,8.421,4.579c-0.491,2.031-0.896,1.853-2.308,4.177c-0.058,0.096-1.164,1.337-1.212,1.43
					c-0.271,0.531-3.336,3.917-6.584,5.208c-0.475,0.189-0.908,0.483-1.419,0.76c0.489,0.994,0.952,1.933,1.424,2.89
					c-1.856,0.485-10.665-1.148-13.782-2.562c1.543-3.774,3.373-7.396,5.657-11.07c0.738,1.121,1.317,2.002,2.019,3.068
					c1.851-1.141,3.363-2.11,4.869-3.589C60.955,18.753,62.063,17.182,62.554,15.151"/>
			</g>
		</g>
	</g>
	<g id="T1_x5F_2_00000026851229223731385230000016514245284128413314_">
		<g>
			<defs>
				
					<rect id="SVGID_00000165216236899822828200000014442235781706903433_" x="71.199" y="59.329" transform="matrix(0.9999 -0.0104 0.0104 0.9999 -0.6898 0.8828)" width="27.243" height="15.321"/>
			</defs>
			<clipPath id="SVGID_00000075861886093477423950000003741074757615865750_">
				<use xlink:href="#SVGID_00000165216236899822828200000014442235781706903433_"  style="overflow:visible;"/>
			</clipPath>
			<g style="clip-path:url(#SVGID_00000075861886093477423950000003741074757615865750_);">
				<defs>
					
						<rect id="SVGID_00000075872170866049193460000010957829489457561788_" x="71.199" y="59.329" transform="matrix(0.9999 -0.0104 0.0104 0.9999 -0.6898 0.8828)" width="27.243" height="15.321"/>
				</defs>
				<clipPath id="SVGID_00000137101916111248469360000011549003161227726485_">
					<use xlink:href="#SVGID_00000075872170866049193460000010957829489457561788_"  style="overflow:visible;"/>
				</clipPath>
				<path style="clip-path:url(#SVGID_00000137101916111248469360000011549003161227726485_);fill:#AD70D6;" d="M94.062,63.341
					c1.363,2.312,1.982,9.322,1.982,9.322c-1.873,0.954-2.001,0.533-4.698,0.983c-0.111,0.019-1.781-0.005-1.883,0.02
					c-0.582,0.142-5.169,0.04-8.272-1.564c-0.455-0.234-0.961-0.369-1.505-0.573c-0.441,1.015-0.859,1.976-1.284,2.954
					c-1.58-1.081-6.068-8.776-7.016-12.044c3.892-1.296,7.854-2.278,12.153-2.951c-0.377,1.286-0.674,2.296-1.032,3.518
					c2.078,0.65,3.805,1.157,5.916,1.328C90.266,64.483,92.189,64.295,94.062,63.341"/>
			</g>
		</g>
	</g>
	<g id="T1_x5F_2_00000163759227868966694850000013377527760617908096_">
		<g>
			<defs>
				<polygon id="SVGID_00000030480245868696215180000009929068915334999185_" points="60.168,100.394 48.783,75.841 62.814,69.438 
					74.199,93.991 				"/>
			</defs>
			<clipPath id="SVGID_00000147178344177133626990000002211366006258313360_">
				<use xlink:href="#SVGID_00000030480245868696215180000009929068915334999185_"  style="overflow:visible;"/>
			</clipPath>
			<g style="clip-path:url(#SVGID_00000147178344177133626990000002211366006258313360_);">
				<defs>
					<polygon id="SVGID_00000112598502936453488350000007857876926605749910_" points="60.168,100.394 48.783,75.841 62.814,69.438 
						74.199,93.991 					"/>
				</defs>
				<clipPath id="SVGID_00000008127306287078539250000005816397238380070844_">
					<use xlink:href="#SVGID_00000112598502936453488350000007857876926605749910_"  style="overflow:visible;"/>
				</clipPath>
				<path style="clip-path:url(#SVGID_00000008127306287078539250000005816397238380070844_);fill:#5699DE;" d="M68.622,91.795
					c-1.571,2.178-7.768,5.602-7.768,5.602c-1.643-1.307-1.307-1.595-2.823-3.853c-0.063-0.093-0.723-1.615-0.787-1.697
					c-0.368-0.47-2.147-4.664-1.939-8.129c0.03-0.507-0.053-1.021-0.088-1.597c-1.115,0.015-2.168,0.029-3.243,0.044
					c0.35-1.873,5.597-9.079,8.217-11.272c2.782,2.995,5.303,6.182,7.679,9.799c-1.337,0.183-2.388,0.328-3.658,0.502
					c0.25,2.147,0.489,3.918,1.194,5.899C66.02,88.824,66.979,90.488,68.622,91.795"/>
			</g>
		</g>
	</g>
	<g id="T1_x5F_2_00000069370430640188016930000001429393812924973743_">
		<g>
			<defs>
				<polygon id="SVGID_00000012433479004117517100000002650808753059701648_" points="22.153,78.73 39.46,57.859 51.387,67.592 
					34.08,88.463 				"/>
			</defs>
			<clipPath id="SVGID_00000017504970123987111490000000172260271255120312_">
				<use xlink:href="#SVGID_00000012433479004117517100000002650808753059701648_"  style="overflow:visible;"/>
			</clipPath>
			<g style="clip-path:url(#SVGID_00000017504970123987111490000000172260271255120312_);">
				<defs>
					<polygon id="SVGID_00000002371147746506251390000011283837605068151466_" points="22.153,78.73 39.46,57.859 51.387,67.592 
						34.08,88.463 					"/>
				</defs>
				<clipPath id="SVGID_00000049932619822672475380000008179390498032654234_">
					<use xlink:href="#SVGID_00000002371147746506251390000011283837605068151466_"  style="overflow:visible;"/>
				</clipPath>
				<path style="clip-path:url(#SVGID_00000049932619822672475380000008179390498032654234_);fill:#E1D153;" d="M33.639,82.527
					c-2.661-0.453-8.469-4.492-8.469-4.492c0.469-2.036,0.876-1.863,2.264-4.201c0.057-0.096,1.149-1.349,1.197-1.443
					c0.265-0.533,3.295-3.951,6.529-5.276c0.473-0.194,0.903-0.492,1.411-0.775c-0.5-0.988-0.972-1.923-1.454-2.875
					c1.851-0.505,10.677,1.037,13.808,2.419c-1.504,3.79-3.295,7.43-5.54,11.128c-0.75-1.114-1.338-1.989-2.051-3.047
					c-1.838,1.16-3.341,2.145-4.831,3.639C35.2,78.909,34.108,80.491,33.639,82.527"/>
			</g>
		</g>
	</g>
	<g id="G_x28__T1_L1__x29__00000021802532711054201100000006342205281685885598_">
		<g>
			<defs>
				<rect id="SVGID_00000049202587603603009080000011891113898863142283_" x="25" y="30" width="43.96" height="38.48"/>
			</defs>
			<clipPath id="SVGID_00000103266847438358925110000013223020061364963219_">
				<use xlink:href="#SVGID_00000049202587603603009080000011891113898863142283_"  style="overflow:visible;"/>
			</clipPath>
			<polygon style="clip-path:url(#SVGID_00000103266847438358925110000013223020061364963219_);fill:#9F9EB1;" points="58.958,50 
				57.076,50.587 55.056,51.24 52.996,52.615 51.548,54.61 50.37,56.801 50.081,59.29 50.708,62.604 51.82,64.698 53.331,66.514 
				55.483,67.474 57.192,68.032 58.961,68.291 59.399,68.48 60.306,68.48 60.753,68.326 63.25,67.798 65.278,66.966 66.799,65.405 
				68.074,63.652 68.624,61.541 68.959,59.96 68.959,57.962 68.461,56.116 67.306,53.94 65.727,52.111 63.529,51.063 60.7,50 			"/>
			<g style="clip-path:url(#SVGID_00000103266847438358925110000013223020061364963219_);">
				<defs>
					
						<rect id="SVGID_00000178898718353024683110000011054972703492444565_" x="33.026" y="27.595" transform="matrix(0.2915 -0.9566 0.9566 0.2915 -11.0236 69.2372)" width="16.4" height="28.929"/>
				</defs>
				<clipPath id="SVGID_00000152253058412781767770000011731516153329617842_">
					<use xlink:href="#SVGID_00000178898718353024683110000011054972703492444565_"  style="overflow:visible;"/>
				</clipPath>
				<path style="clip-path:url(#SVGID_00000152253058412781767770000011731516153329617842_);fill:#523742;" d="M30.692,42.824
					c-0.634-2.796,1.001-10.148,1.001-10.148c2.205-0.374,2.199,0.096,5.075,0.5c0.118,0.017,1.801,0.575,1.913,0.583
					c0.635,0.042,5.246,1.614,7.87,4.244c0.385,0.385,0.854,0.685,1.34,1.067c0.774-0.895,1.507-1.741,2.253-2.604
					c1.251,1.609,3.312,10.899,3.217,14.538c-4.358,0.076-8.687-0.19-13.256-0.878c0.796-1.192,1.422-2.128,2.179-3.26
					c-1.894-1.329-3.479-2.399-5.561-3.25C34.904,42.874,32.897,42.45,30.692,42.824"/>
			</g>
		</g>
	</g>
</g>
<g id="Layer_2">
	<g id="Layer_3">
	</g>
</g>
<g id="Layer_4">
</g>
</svg>
