<?xml version="1.0" encoding="iso-8859-1"?>
<!-- Generator: Adobe Illustrator 26.0.1, SVG Export Plug-In . SVG Version: 6.00 Build 0)  -->
<svg version="1.1" xmlns="http://www.w3.org/2000/svg" xmlns:xlink="http://www.w3.org/1999/xlink" x="0px" y="0px"
	 viewBox="0 0 100 100" style="enable-background:new 0 0 100 100;" xml:space="preserve">
<g id="Layer_1" style="display:none;">
	
		<image style="display:inline;overflow:visible;" width="80" height="80" xlink:href="../old_images/xrule23.jpg"  transform="matrix(0.2 0 0 0.2 1.5223 81.0468)">
	</image>
</g>
<g id="Layer_2">
	<g id="Layer_3">
	</g>
	<g id="L2_00000025428713833552015500000011285242214339116974_">
		<g>
			<defs>
				<rect id="SVGID_1_" x="34" y="32" width="31.359" height="34.868"/>
			</defs>
			<clipPath id="SVGID_00000096035591368096175860000014176329576459835563_">
				<use xlink:href="#SVGID_1_"  style="overflow:visible;"/>
			</clipPath>
			<g style="clip-path:url(#SVGID_00000096035591368096175860000014176329576459835563_);">
				<defs>
					<rect id="SVGID_00000070088990556615970390000001065213086202053802_" x="34" y="32" width="31.359" height="34.868"/>
				</defs>
				<clipPath id="SVGID_00000132783845710333652950000001564921676271809417_">
					<use xlink:href="#SVGID_00000070088990556615970390000001065213086202053802_"  style="overflow:visible;"/>
				</clipPath>
				<g style="clip-path:url(#SVGID_00000132783845710333652950000001564921676271809417_);">
					<defs>
						
							<rect id="SVGID_00000053526234986010216830000016538126318069281190_" x="35.264" y="31.997" width="30.098" height="18.779"/>
					</defs>
					<clipPath id="SVGID_00000127040602988014090280000002072916355955785869_">
						<use xlink:href="#SVGID_00000053526234986010216830000016538126318069281190_"  style="overflow:visible;"/>
					</clipPath>
					<g style="clip-path:url(#SVGID_00000127040602988014090280000002072916355955785869_);">
						<defs>
							
								<rect id="SVGID_00000147193665897454783010000008556959214451584186_" x="35.264" y="31.997" width="30.098" height="18.779"/>
						</defs>
						<clipPath id="SVGID_00000048473190688864370980000005389677216105381544_">
							<use xlink:href="#SVGID_00000147193665897454783010000008556959214451584186_"  style="overflow:visible;"/>
						</clipPath>
						<path style="clip-path:url(#SVGID_00000048473190688864370980000005389677216105381544_);fill:#523742;" d="M61.693,38.496
							c1.33-0.04,2.04-2.21,3.67-1.07c-0.27,4.39-0.53,8.73-0.81,13.35c-4.26-0.64-8.21-2.15-12.23-3.33
							c-0.22-0.34-0.4-0.63-0.63-0.97c1.08-0.93,2.19-1.87,3.32-2.84c-0.9-2.8-3.33-3.45-5.51-3.8c-3.55-0.57-4.85,2.27-5.92,4.63
							c-0.1,0.96-0.16,1.62-0.25,2.5c-2.83-0.65-5.4-1.24-8.01-1.85c-0.02-0.25-0.1-0.47-0.03-0.62c0.78-1.91,1.3-4.01,2.45-5.66
							c2.89-4.13,6.85-6.66,12.07-6.83c3.34-0.1,6.39,0.64,8.85,3.01C59.743,36.056,60.643,37.276,61.693,38.496"/>
					</g>
				</g>
				<g style="clip-path:url(#SVGID_00000132783845710333652950000001564921676271809417_);">
					<defs>
						<rect id="SVGID_00000097485460408919092120000004280720391002282414_" x="34.003" y="48.656" width="29.36" height="18.213"/>
					</defs>
					<clipPath id="SVGID_00000170279069898009585060000009009312505294065336_">
						<use xlink:href="#SVGID_00000097485460408919092120000004280720391002282414_"  style="overflow:visible;"/>
					</clipPath>
					<g style="clip-path:url(#SVGID_00000170279069898009585060000009009312505294065336_);">
						<defs>
							
								<rect id="SVGID_00000026859203716767004340000015597713746699756468_" x="34.003" y="48.656" width="29.36" height="18.213"/>
						</defs>
						<clipPath id="SVGID_00000139253756551933575460000013050171599469278868_">
							<use xlink:href="#SVGID_00000026859203716767004340000015597713746699756468_"  style="overflow:visible;"/>
						</clipPath>
						<path style="clip-path:url(#SVGID_00000139253756551933575460000013050171599469278868_);fill:#9F9EB1;" d="M63.363,54.446
							c-0.1,0.3-0.17,0.6-0.29,0.87c-1.52,3.45-3.13,6.93-6.51,8.9c-1.9,1.11-4.16,1.59-6.26,2.36c-2.15,0.78-4.14-0.2-6.16-0.61
							c-1.67-0.33-2.86-1.56-4-2.76c-0.82-0.86-1.62-1.74-2.62-2.83c-1.02,0.3-2.14,0.63-3.52,1.04c0.24-4.15,0.49-8.3,0.76-12.76
							c4,1.19,7.88,2.35,12.16,3.63c-1.18,1.02-2.12,1.83-3.03,2.63v1.59c1.49,2.59,3.87,3.08,6.63,3.14
							c3.42,0.08,4.13-2.66,5.59-4.93v-1.92C58.563,53.356,60.923,53.886,63.363,54.446"/>
					</g>
				</g>
			</g>
		</g>
	</g>
	<g id="T1_x5F_2_00000063618777897999724950000008474462438472734638_">
		<g>
			<defs>
				<rect id="SVGID_00000105424630838870525660000015426825450185828258_" x="9" y="22" width="28.929" height="16.4"/>
			</defs>
			<clipPath id="SVGID_00000010305312634114798630000009519861692048326030_">
				<use xlink:href="#SVGID_00000105424630838870525660000015426825450185828258_"  style="overflow:visible;"/>
			</clipPath>
			<g style="clip-path:url(#SVGID_00000010305312634114798630000009519861692048326030_);">
				<defs>
					<rect id="SVGID_00000023989043343220552860000003189645733288515503_" x="9" y="22" width="28.929" height="16.4"/>
				</defs>
				<clipPath id="SVGID_00000139271696480768855380000003042512740026169485_">
					<use xlink:href="#SVGID_00000023989043343220552860000003189645733288515503_"  style="overflow:visible;"/>
				</clipPath>
				<path style="clip-path:url(#SVGID_00000139271696480768855380000003042512740026169485_);fill:#E33A3A;" d="M13.61,34.002
					c-1.421-2.49-2-10-2-10c2-1,2.131-0.548,5-1c0.118-0.019,1.891,0.025,2,0c0.62-0.145,5.489,0.015,8.766,1.766
					c0.48,0.256,1.016,0.406,1.592,0.63c0.48-1.082,0.934-2.105,1.396-3.148c1.666,1.175,6.345,9.461,7.315,12.969
					c-4.147,1.344-8.365,2.351-12.937,3.024c0.415-1.372,0.741-2.45,1.135-3.754c-2.199-0.719-4.027-1.281-6.267-1.487
					C17.654,32.822,15.61,33.002,13.61,34.002"/>
			</g>
		</g>
	</g>
	<g id="T1_x5F_2_00000139980597680526295910000018102158940758268826_">
		<g>
			<defs>
				
					<rect id="SVGID_00000129902135310771699460000017218532501955910548_" x="40.647" y="0.144" transform="matrix(0.8923 -0.4514 0.4514 0.8923 -1.3344 23.6234)" width="16.4" height="28.929"/>
			</defs>
			<clipPath id="SVGID_00000176761172450691126390000011176478458763055527_">
				<use xlink:href="#SVGID_00000129902135310771699460000017218532501955910548_"  style="overflow:visible;"/>
			</clipPath>
			<g style="clip-path:url(#SVGID_00000176761172450691126390000011176478458763055527_);">
				<defs>
					
						<rect id="SVGID_00000062871213681784389900000001825739953528670880_" x="40.647" y="0.144" transform="matrix(0.8923 -0.4514 0.4514 0.8923 -1.3344 23.6234)" width="16.4" height="28.929"/>
				</defs>
				<clipPath id="SVGID_00000176762082488439351190000013000051975411637422_">
					<use xlink:href="#SVGID_00000062871213681784389900000001825739953528670880_"  style="overflow:visible;"/>
				</clipPath>
				<path style="clip-path:url(#SVGID_00000176762082488439351190000013000051975411637422_);fill:#F26C2B;" d="M41.006,7.531
					c1.58-2.392,8.02-6.299,8.02-6.299c1.795,1.333,1.451,1.654,3.149,4.01c0.07,0.097,0.831,1.699,0.903,1.785
					c0.409,0.488,2.464,4.905,2.381,8.619c-0.012,0.544,0.096,1.09,0.157,1.705c1.182-0.06,2.3-0.117,3.439-0.175
					c-0.296,2.017-5.578,9.933-8.27,12.382c-3.071-3.094-5.874-6.403-8.538-10.179c1.412-0.249,2.521-0.445,3.862-0.682
					c-0.351-2.287-0.675-4.172-1.502-6.263C43.884,10.607,42.801,8.865,41.006,7.531"/>
			</g>
		</g>
	</g>
	<g id="T1_x5F_2_00000055676832385780248490000016952658686543088010_">
		<g>
			<defs>
				
					<rect id="SVGID_00000119818575356190152860000007071901330744500367_" x="64.146" y="18.135" transform="matrix(0.647 -0.7625 0.7625 0.647 7.6722 69.2402)" width="28.929" height="16.4"/>
			</defs>
			<clipPath id="SVGID_00000057829594367582365220000013547241487028851074_">
				<use xlink:href="#SVGID_00000119818575356190152860000007071901330744500367_"  style="overflow:visible;"/>
			</clipPath>
			<g style="clip-path:url(#SVGID_00000057829594367582365220000013547241487028851074_);">
				<defs>
					
						<rect id="SVGID_00000095333966703687372370000010853429284265847690_" x="64.146" y="18.135" transform="matrix(0.647 -0.7625 0.7625 0.647 7.6722 69.2401)" width="28.929" height="16.4"/>
				</defs>
				<clipPath id="SVGID_00000148631297004385374470000013567280251977219479_">
					<use xlink:href="#SVGID_00000095333966703687372370000010853429284265847690_"  style="overflow:visible;"/>
				</clipPath>
				<path style="clip-path:url(#SVGID_00000148631297004385374470000013567280251977219479_);fill:#55C95A;" d="M82.087,16.361
					c2.818,0.527,8.919,4.944,8.919,4.944c-0.531,2.172-0.961,1.979-2.472,4.46c-0.062,0.102-1.242,1.426-1.294,1.525
					c-0.291,0.567-3.563,4.176-7.018,5.542c-0.506,0.2-0.967,0.512-1.51,0.806c0.515,1.066,1.001,2.074,1.497,3.101
					c-1.974,0.51-11.319-1.283-14.622-2.812c1.658-4.032,3.619-7.9,6.064-11.821c0.778,1.204,1.389,2.15,2.128,3.294
					c1.971-1.212,3.582-2.242,5.188-3.817C80.371,20.208,81.556,18.533,82.087,16.361"/>
			</g>
		</g>
	</g>
	<g id="T1_x5F_2_00000018933315253481531020000008388461887418625958_">
		<g>
			<defs>
				
					<rect id="SVGID_00000035514201197247283150000006294864983799782332_" x="68.121" y="54.155" transform="matrix(0.0158 -0.9999 0.9999 0.0158 6.5033 143.8463)" width="16.4" height="28.929"/>
			</defs>
			<clipPath id="SVGID_00000029032548867064153750000001181302401198653325_">
				<use xlink:href="#SVGID_00000035514201197247283150000006294864983799782332_"  style="overflow:visible;"/>
			</clipPath>
			<g style="clip-path:url(#SVGID_00000029032548867064153750000001181302401198653325_);">
				<defs>
					
						<rect id="SVGID_00000095328993052621698860000012145546912754272956_" x="68.121" y="54.155" transform="matrix(0.0158 -0.9999 0.9999 0.0158 6.5034 143.8463)" width="16.4" height="28.929"/>
				</defs>
				<clipPath id="SVGID_00000170245233877227379080000012423427821537151652_">
					<use xlink:href="#SVGID_00000095328993052621698860000012145546912754272956_"  style="overflow:visible;"/>
				</clipPath>
				<path style="clip-path:url(#SVGID_00000170245233877227379080000012423427821537151652_);fill:#5699DE;" d="M86.234,64.974
					c1.381,2.512,1.842,10.03,1.842,10.03c-2.016,0.968-2.139,0.514-5.015,0.921c-0.118,0.017-1.89-0.055-2-0.032
					c-0.622,0.135-5.488-0.102-8.737-1.904c-0.476-0.264-1.009-0.422-1.582-0.655c-0.497,1.074-0.967,2.09-1.446,3.126
					c-1.647-1.201-6.195-9.56-7.109-13.083c4.168-1.278,8.401-2.218,12.983-2.819c-0.437,1.365-0.78,2.438-1.194,3.736
					c2.187,0.754,4.006,1.344,6.243,1.586C82.172,66.09,84.219,65.942,86.234,64.974"/>
			</g>
		</g>
	</g>
	<g id="T1_x5F_2_00000087408977142148631690000004826668368448215704_">
		<g>
			<defs>
				
					<rect id="SVGID_00000015343285833425888410000001418243892192050592_" x="42.496" y="69.344" transform="matrix(0.8993 -0.4373 0.4373 0.8993 -31.5424 30.6033)" width="16.4" height="28.929"/>
			</defs>
			<clipPath id="SVGID_00000080887620104407788810000017993499195034870925_">
				<use xlink:href="#SVGID_00000015343285833425888410000001418243892192050592_"  style="overflow:visible;"/>
			</clipPath>
			<g style="clip-path:url(#SVGID_00000080887620104407788810000017993499195034870925_);">
				<defs>
					
						<rect id="SVGID_00000096023130669132444020000012422206006042709909_" x="42.496" y="69.343" transform="matrix(0.8993 -0.4373 0.4373 0.8993 -31.5424 30.6034)" width="16.4" height="28.929"/>
				</defs>
				<clipPath id="SVGID_00000068645625111905303330000013212467047886697611_">
					<use xlink:href="#SVGID_00000096023130669132444020000012422206006042709909_"  style="overflow:visible;"/>
				</clipPath>
				<path style="clip-path:url(#SVGID_00000068645625111905303330000013212467047886697611_);fill:#AD70D6;" d="M58.424,91.008
					c-1.618,2.367-8.119,6.171-8.119,6.171c-1.774-1.361-1.425-1.677-3.086-4.059c-0.069-0.098-0.804-1.712-0.875-1.799
					c-0.402-0.494-2.387-4.943-2.245-8.656c0.02-0.544-0.079-1.091-0.13-1.707c-1.183,0.041-2.302,0.08-3.442,0.121
					c0.328-2.012,5.734-9.843,8.465-12.249c3.022,3.142,5.772,6.495,8.376,10.312c-1.415,0.227-2.527,0.405-3.872,0.621
					c0.315,2.292,0.609,4.182,1.403,6.286C55.594,87.887,56.65,89.647,58.424,91.008"/>
			</g>
		</g>
	</g>
	<g id="T1_x5F_2_00000129200490606503842240000000150183554879431359_">
		<g>
			<defs>
				
					<rect id="SVGID_00000147916236496843534220000017616162474026069935_" x="7.656" y="63.429" transform="matrix(0.6589 -0.7522 0.7522 0.6589 -46.3348 41.0696)" width="28.929" height="16.4"/>
			</defs>
			<clipPath id="SVGID_00000006680737620821248780000007044744390234581439_">
				<use xlink:href="#SVGID_00000147916236496843534220000017616162474026069935_"  style="overflow:visible;"/>
			</clipPath>
			<g style="clip-path:url(#SVGID_00000006680737620821248780000007044744390234581439_);">
				<defs>
					
						<rect id="SVGID_00000044870782147319856110000006165178456744136116_" x="7.656" y="63.429" transform="matrix(0.6589 -0.7522 0.7522 0.6589 -46.3348 41.0696)" width="28.929" height="16.4"/>
				</defs>
				<clipPath id="SVGID_00000144311491863366520200000011879924054184471713_">
					<use xlink:href="#SVGID_00000044870782147319856110000006165178456744136116_"  style="overflow:visible;"/>
				</clipPath>
				<path style="clip-path:url(#SVGID_00000144311491863366520200000011879924054184471713_);fill:#E1D153;" d="M18.487,81.546
					c-2.809-0.572-8.84-5.085-8.84-5.085c0.566-2.163,0.992-1.964,2.542-4.42c0.063-0.101,1.265-1.406,1.318-1.504
					c0.299-0.562,3.628-4.119,7.105-5.43c0.509-0.192,0.975-0.497,1.523-0.782c-0.498-1.074-0.968-2.09-1.448-3.124
					c1.982-0.479,11.298,1.461,14.575,3.043c-1.722,4.005-3.744,7.841-6.25,11.724c-0.759-1.216-1.355-2.172-2.076-3.327
					c-1.99,1.18-3.617,2.185-5.248,3.734C20.264,77.727,19.052,79.383,18.487,81.546"/>
			</g>
		</g>
	</g>
</g>
</svg>
