<?xml version="1.0" encoding="iso-8859-1"?>
<!-- Generator: Adobe Illustrator 26.0.1, SVG Export Plug-In . SVG Version: 6.00 Build 0)  -->
<svg version="1.1" xmlns="http://www.w3.org/2000/svg" xmlns:xlink="http://www.w3.org/1999/xlink" x="0px" y="0px"
	 viewBox="0 0 100 100" style="enable-background:new 0 0 100 100;" xml:space="preserve">
<g id="Layer_1">
</g>
<g id="Layer_2">
	<g id="G_x28__T1_L1__x29__4_00000150796068172138636730000008577303685410730660_">
		<g>
			<defs>
				<rect id="SVGID_1_" x="5" y="9" width="88.96" height="83.48"/>
			</defs>
			<clipPath id="SVGID_00000094586215322507020300000003169501579684208793_">
				<use xlink:href="#SVGID_1_"  style="overflow:visible;"/>
			</clipPath>
			<polygon style="clip-path:url(#SVGID_00000094586215322507020300000003169501579684208793_);fill:#5699DE;" points="38.959,29 
				37.076,29.587 35.057,30.24 32.997,31.615 31.548,33.61 30.37,35.801 30.081,38.29 30.709,41.604 31.82,43.698 33.331,45.514 
				35.483,46.474 37.192,47.032 38.962,47.291 39.4,47.48 40.306,47.48 40.754,47.326 43.25,46.798 45.279,45.966 46.8,44.405 
				48.074,42.652 48.625,40.541 48.96,38.96 48.96,36.962 48.461,35.116 47.307,32.94 45.728,31.111 43.529,30.063 40.701,29 			"/>
			<g style="clip-path:url(#SVGID_00000094586215322507020300000003169501579684208793_);">
				<defs>
					
						<rect id="SVGID_00000039829990943238520390000006306422368138362788_" x="13.026" y="6.595" transform="matrix(0.2915 -0.9566 0.9566 0.2915 -5.1059 35.2267)" width="16.4" height="28.929"/>
				</defs>
				<clipPath id="SVGID_00000170236823695110590820000012935867942828395454_">
					<use xlink:href="#SVGID_00000039829990943238520390000006306422368138362788_"  style="overflow:visible;"/>
				</clipPath>
				<path style="clip-path:url(#SVGID_00000170236823695110590820000012935867942828395454_);fill:#F26C2B;" d="M10.692,21.824
					c-0.634-2.796,1.001-10.148,1.001-10.148c2.205-0.374,2.199,0.096,5.075,0.5c0.118,0.017,1.801,0.575,1.913,0.583
					c0.635,0.042,5.246,1.614,7.87,4.244c0.385,0.385,0.854,0.685,1.34,1.067c0.774-0.895,1.507-1.741,2.253-2.604
					c1.251,1.609,3.312,10.899,3.217,14.538c-4.358,0.076-8.687-0.19-13.256-0.878c0.796-1.192,1.422-2.128,2.179-3.26
					c-1.894-1.329-3.479-2.399-5.561-3.25C14.904,21.874,12.897,21.45,10.692,21.824"/>
			</g>
			<polygon style="clip-path:url(#SVGID_00000094586215322507020300000003169501579684208793_);fill:#E1D153;" points="82.958,29 
				81.076,29.587 79.056,30.24 76.996,31.615 75.548,33.61 74.37,35.801 74.081,38.29 74.709,41.604 75.82,43.698 77.331,45.514 
				79.483,46.474 81.192,47.032 82.962,47.291 83.399,47.48 84.306,47.48 84.754,47.326 87.25,46.798 89.279,45.966 90.8,44.405 
				92.074,42.652 92.624,40.541 92.96,38.96 92.96,36.962 92.461,35.116 91.306,32.94 89.728,31.111 87.529,30.063 84.7,29 			"/>
			<g style="clip-path:url(#SVGID_00000094586215322507020300000003169501579684208793_);">
				<defs>
					
						<rect id="SVGID_00000168106601552950301460000013887842863327463098_" x="57.026" y="6.595" transform="matrix(0.2915 -0.9566 0.9566 0.2915 26.0698 77.3163)" width="16.4" height="28.929"/>
				</defs>
				<clipPath id="SVGID_00000049189207433611239750000006392608573758673320_">
					<use xlink:href="#SVGID_00000168106601552950301460000013887842863327463098_"  style="overflow:visible;"/>
				</clipPath>
				<path style="clip-path:url(#SVGID_00000049189207433611239750000006392608573758673320_);fill:#55C95A;" d="M54.692,21.824
					c-0.634-2.796,1.001-10.148,1.001-10.148c2.205-0.374,2.199,0.096,5.075,0.5c0.118,0.017,1.801,0.575,1.913,0.583
					c0.635,0.042,5.246,1.614,7.87,4.244c0.385,0.385,0.854,0.685,1.34,1.067c0.774-0.895,1.507-1.741,2.253-2.604
					c1.251,1.609,3.312,10.899,3.217,14.538c-4.358,0.076-8.687-0.19-13.256-0.878c0.796-1.192,1.422-2.128,2.179-3.26
					c-1.894-1.329-3.479-2.399-5.561-3.25C58.904,21.874,56.897,21.45,54.692,21.824"/>
			</g>
			<polygon style="clip-path:url(#SVGID_00000094586215322507020300000003169501579684208793_);fill:#AD70D6;" points="39.959,74 
				38.077,74.587 36.057,75.24 33.997,76.615 32.548,78.61 31.37,80.801 31.081,83.29 31.709,86.604 32.821,88.698 34.331,90.514 
				36.484,91.474 38.192,92.032 39.962,92.291 40.4,92.48 41.306,92.48 41.754,92.326 44.251,91.798 46.279,90.966 47.8,89.405 
				49.075,87.652 49.625,85.541 49.96,83.96 49.96,81.962 49.462,80.116 48.307,77.94 46.728,76.111 44.53,75.063 41.701,74 			"/>
			<g style="clip-path:url(#SVGID_00000094586215322507020300000003169501579684208793_);">
				<defs>
					
						<rect id="SVGID_00000027562077297173954410000001475773438024871825_" x="14.026" y="51.595" transform="matrix(0.2915 -0.9566 0.9566 0.2915 -47.4435 68.0675)" width="16.4" height="28.929"/>
				</defs>
				<clipPath id="SVGID_00000145055285455700197360000003938274492023235989_">
					<use xlink:href="#SVGID_00000027562077297173954410000001475773438024871825_"  style="overflow:visible;"/>
				</clipPath>
				<path style="clip-path:url(#SVGID_00000145055285455700197360000003938274492023235989_);fill:#E33A3A;" d="M11.692,66.824
					c-0.634-2.796,1.001-10.148,1.001-10.148c2.205-0.374,2.199,0.096,5.075,0.5c0.118,0.017,1.801,0.575,1.913,0.583
					c0.635,0.042,5.246,1.614,7.87,4.244c0.385,0.385,0.854,0.685,1.34,1.067c0.774-0.895,1.507-1.741,2.253-2.604
					c1.251,1.609,3.312,10.899,3.217,14.538c-4.358,0.076-8.687-0.19-13.256-0.878c0.796-1.192,1.422-2.128,2.179-3.26
					c-1.894-1.329-3.479-2.399-5.561-3.25C15.904,66.874,13.897,66.45,11.692,66.824"/>
			</g>
			<polygon style="clip-path:url(#SVGID_00000094586215322507020300000003169501579684208793_);fill:#9F9EB1;" points="83.959,74 
				82.076,74.587 80.057,75.24 77.997,76.615 76.548,78.61 75.37,80.801 75.081,83.29 75.709,86.604 76.82,88.698 78.331,90.514 
				80.483,91.474 82.192,92.032 83.962,92.291 84.4,92.48 85.306,92.48 85.754,92.326 88.25,91.798 90.279,90.966 91.8,89.405 
				93.074,87.652 93.625,85.541 93.96,83.96 93.96,81.962 93.461,80.116 92.307,77.94 90.728,76.111 88.529,75.063 85.701,74 			"/>
			<g style="clip-path:url(#SVGID_00000094586215322507020300000003169501579684208793_);">
				<defs>
					
						<rect id="SVGID_00000169554836063324559900000011392382913974075016_" x="58.026" y="51.595" transform="matrix(0.2915 -0.9566 0.9566 0.2915 -16.2679 110.1571)" width="16.4" height="28.929"/>
				</defs>
				<clipPath id="SVGID_00000117644399347945999220000007627187969196942507_">
					<use xlink:href="#SVGID_00000169554836063324559900000011392382913974075016_"  style="overflow:visible;"/>
				</clipPath>
				<path style="clip-path:url(#SVGID_00000117644399347945999220000007627187969196942507_);fill:#523742;" d="M55.692,66.824
					c-0.634-2.796,1.001-10.148,1.001-10.148c2.205-0.374,2.199,0.096,5.075,0.5c0.118,0.017,1.801,0.575,1.913,0.583
					c0.635,0.042,5.246,1.614,7.87,4.244c0.385,0.385,0.854,0.685,1.34,1.067c0.774-0.895,1.507-1.741,2.253-2.604
					c1.251,1.609,3.312,10.899,3.217,14.538c-4.358,0.076-8.687-0.19-13.256-0.878c0.796-1.192,1.422-2.128,2.179-3.26
					c-1.894-1.329-3.479-2.399-5.561-3.25C59.904,66.874,57.897,66.45,55.692,66.824"/>
			</g>
		</g>
	</g>
</g>
</svg>
