<?xml version="1.0" encoding="iso-8859-1"?>
<!-- Generator: Adobe Illustrator 26.0.1, SVG Export Plug-In . SVG Version: 6.00 Build 0)  -->
<svg version="1.1" xmlns="http://www.w3.org/2000/svg" xmlns:xlink="http://www.w3.org/1999/xlink" x="0px" y="0px"
	 viewBox="0 0 100 100" style="enable-background:new 0 0 100 100;" xml:space="preserve">
<g id="Layer_1">
	<g id="L3_G_x28__T1_L1__x29__T1_T1_T1_00000094590291728044894970000010593536178895288225_">
		<g>
			<defs>
				<rect id="SVGID_1_" x="4" y="9" width="101.892" height="86.633"/>
			</defs>
			<clipPath id="SVGID_00000028292017616187982870000003167571857890142643_">
				<use xlink:href="#SVGID_1_"  style="overflow:visible;"/>
			</clipPath>
			<g style="clip-path:url(#SVGID_00000028292017616187982870000003167571857890142643_);">
				<defs>
					<rect id="SVGID_00000152237574671029463290000005226581961310935726_" x="70.082" y="9.001" width="18.878" height="18.48"/>
				</defs>
				<clipPath id="SVGID_00000058576904885718063140000016255383966707261577_">
					<use xlink:href="#SVGID_00000152237574671029463290000005226581961310935726_"  style="overflow:visible;"/>
				</clipPath>
				<g style="clip-path:url(#SVGID_00000058576904885718063140000016255383966707261577_);">
					<defs>
						<rect id="SVGID_00000164490235150428646750000007732238624414148518_" x="70.08" y="8.95" width="19.06" height="18.7"/>
					</defs>
					<clipPath id="SVGID_00000138546405790376752290000001622170490347541411_">
						<use xlink:href="#SVGID_00000164490235150428646750000007732238624414148518_"  style="overflow:visible;"/>
					</clipPath>
					<g style="clip-path:url(#SVGID_00000138546405790376752290000001622170490347541411_);">
						<defs>
							<rect id="SVGID_00000045591250566964025570000005600719579740586935_" x="70.08" y="8.95" width="19.06" height="18.7"/>
						</defs>
						<clipPath id="SVGID_00000163782184729754378700000003660547953107940752_">
							<use xlink:href="#SVGID_00000045591250566964025570000005600719579740586935_"  style="overflow:visible;"/>
						</clipPath>
						<polygon style="clip-path:url(#SVGID_00000163782184729754378700000003660547953107940752_);fill:#55C95A;" points="
							88.46,15.12 89.14,17.61 89.03,18.61 88.62,20.54 88.08,22.65 86.8,24.41 85.28,25.97 83.25,26.8 80.75,27.33 79.8,27.65 
							78.96,27.29 77.19,27.03 75.481,26.47 73.33,25.51 71.82,23.7 70.71,21.6 70.08,18.29 70.37,15.8 71.55,13.61 73,11.62 
							75.06,10.24 77.08,9.59 79.1,8.96 80.56,8.95 83.53,10.06 85.731,11.11 87.31,12.94 						"/>
					</g>
				</g>
			</g>
			<g style="clip-path:url(#SVGID_00000028292017616187982870000003167571857890142643_);">
				<defs>
					<rect id="SVGID_00000011728804422242318260000010483351685613364403_" x="10.081" y="9.001" width="18.878" height="18.48"/>
				</defs>
				<clipPath id="SVGID_00000034059167803410987700000007486146533694952880_">
					<use xlink:href="#SVGID_00000011728804422242318260000010483351685613364403_"  style="overflow:visible;"/>
				</clipPath>
				<g style="clip-path:url(#SVGID_00000034059167803410987700000007486146533694952880_);">
					<defs>
						<rect id="SVGID_00000137096428923680192960000003445736997600821691_" x="10.08" y="8.95" width="19.06" height="18.7"/>
					</defs>
					<clipPath id="SVGID_00000047775357129307814030000006318326536748439216_">
						<use xlink:href="#SVGID_00000137096428923680192960000003445736997600821691_"  style="overflow:visible;"/>
					</clipPath>
					<g style="clip-path:url(#SVGID_00000047775357129307814030000006318326536748439216_);">
						<defs>
							<rect id="SVGID_00000122697743800448299620000013655704739306707093_" x="10.08" y="8.95" width="19.06" height="18.7"/>
						</defs>
						<clipPath id="SVGID_00000106839172951544044110000011335398104796633478_">
							<use xlink:href="#SVGID_00000122697743800448299620000013655704739306707093_"  style="overflow:visible;"/>
						</clipPath>
						<polygon style="clip-path:url(#SVGID_00000106839172951544044110000011335398104796633478_);fill:#E33A3A;" points="
							28.46,15.12 29.14,17.61 29.03,18.61 28.62,20.54 28.08,22.65 26.8,24.41 25.28,25.97 23.25,26.8 20.75,27.33 19.8,27.65 
							18.96,27.29 17.19,27.03 15.48,26.47 13.33,25.51 11.82,23.7 10.71,21.6 10.08,18.29 10.37,15.8 11.55,13.61 13,11.62 
							15.06,10.24 17.08,9.59 19.1,8.96 20.56,8.95 23.53,10.06 25.73,11.11 27.31,12.94 						"/>
					</g>
				</g>
			</g>
			<g style="clip-path:url(#SVGID_00000028292017616187982870000003167571857890142643_);">
				<defs>
					<rect id="SVGID_00000169558951015269943800000017275071898836352927_" x="41.082" y="16" width="18.878" height="18.481"/>
				</defs>
				<clipPath id="SVGID_00000132809751504142439370000002323964303165595320_">
					<use xlink:href="#SVGID_00000169558951015269943800000017275071898836352927_"  style="overflow:visible;"/>
				</clipPath>
				<g style="clip-path:url(#SVGID_00000132809751504142439370000002323964303165595320_);">
					<defs>
						<rect id="SVGID_00000016767682681136835270000008398360610281563530_" x="41.08" y="15.95" width="19.06" height="18.7"/>
					</defs>
					<clipPath id="SVGID_00000118387146061078773690000004555268879992196231_">
						<use xlink:href="#SVGID_00000016767682681136835270000008398360610281563530_"  style="overflow:visible;"/>
					</clipPath>
					<g style="clip-path:url(#SVGID_00000118387146061078773690000004555268879992196231_);">
						<defs>
							<rect id="SVGID_00000008115220277178064540000017902733923387193747_" x="41.08" y="15.95" width="19.06" height="18.7"/>
						</defs>
						<clipPath id="SVGID_00000123405594357879741700000016467930660569572004_">
							<use xlink:href="#SVGID_00000008115220277178064540000017902733923387193747_"  style="overflow:visible;"/>
						</clipPath>
						<polygon style="clip-path:url(#SVGID_00000123405594357879741700000016467930660569572004_);fill:#F26C2B;" points="
							59.46,22.12 60.14,24.61 60.03,25.61 59.62,27.54 59.08,29.65 57.8,31.41 56.28,32.97 54.25,33.8 51.75,34.33 50.8,34.65 
							49.96,34.29 48.19,34.03 46.48,33.47 44.33,32.51 42.82,30.7 41.71,28.6 41.08,25.29 41.37,22.8 42.55,20.61 44,18.62 
							46.06,17.24 48.08,16.59 50.1,15.96 51.56,15.95 54.53,17.06 56.731,18.11 58.31,19.94 						"/>
					</g>
				</g>
			</g>
			<g style="clip-path:url(#SVGID_00000028292017616187982870000003167571857890142643_);">
				<defs>
					<rect id="SVGID_00000008125567515192764140000007402926042041547396_" x="4.005" y="47.002" width="46.995" height="43.958"/>
				</defs>
				<clipPath id="SVGID_00000171683225128761718660000017449906204690151845_">
					<use xlink:href="#SVGID_00000008125567515192764140000007402926042041547396_"  style="overflow:visible;"/>
				</clipPath>
				<g style="clip-path:url(#SVGID_00000171683225128761718660000017449906204690151845_);">
					<defs>
						<rect id="SVGID_00000045592315452180662430000008737922875514781360_" x="18.96" y="47" width="31.85" height="17.96"/>
					</defs>
					<clipPath id="SVGID_00000145026468080993468150000002287586970741874055_">
						<use xlink:href="#SVGID_00000045592315452180662430000008737922875514781360_"  style="overflow:visible;"/>
					</clipPath>
					<g style="clip-path:url(#SVGID_00000145026468080993468150000002287586970741874055_);">
						<defs>
							<rect id="SVGID_00000036943070251074138350000012429247075324110746_" x="18.96" y="47" width="31.85" height="17.96"/>
						</defs>
						<clipPath id="SVGID_00000108291967224973862350000006374964475486516115_">
							<use xlink:href="#SVGID_00000036943070251074138350000012429247075324110746_"  style="overflow:visible;"/>
						</clipPath>
						<path style="clip-path:url(#SVGID_00000108291967224973862350000006374964475486516115_);fill:#AD70D6;" d="M42.59,47
							c1.87,1.32,7.13,10.63,8.22,14.57c-3.46,1.12-6.97,2.03-10.65,2.73c-1.28,0.24-2.57,0.47-3.88,0.66
							c0.47-1.54,0.83-2.75,1.28-4.21c-2.47-0.81-4.9-2.06-7.41-2.29c-2.19-0.21-4.8-0.33-6.56,1.86c-0.34-0.59-0.68-1.18-1-1.75
							c-1.24-2.16-2.42-4.22-3.63-6.35c2.46-1.84,5-3.67,8.21-4.17c0.14-0.03,0.29,0.01,0.41-0.04c4.3-2.03,7.98-0.15,11.66,1.82
							c0.54,0.28,1.14,0.45,1.79,0.71C41.57,49.32,42.07,48.17,42.59,47"/>
					</g>
				</g>
				<g style="clip-path:url(#SVGID_00000171683225128761718660000017449906204690151845_);">
					<defs>
						<rect id="SVGID_00000087378589702292925460000013167965323066669192_" x="24.35" y="66.77" width="26.65" height="24.196"/>
					</defs>
					<clipPath id="SVGID_00000114072509435091590620000009968268488127301767_">
						<use xlink:href="#SVGID_00000087378589702292925460000013167965323066669192_"  style="overflow:visible;"/>
					</clipPath>
					<g style="clip-path:url(#SVGID_00000114072509435091590620000009968268488127301767_);">
						<defs>
							<rect id="SVGID_00000183219133316889603390000000908414622481413031_" x="24.35" y="66.77" width="26.65" height="24.196"/>
						</defs>
						<clipPath id="SVGID_00000039123413659454499050000017040373936081446303_">
							<use xlink:href="#SVGID_00000183219133316889603390000000908414622481413031_"  style="overflow:visible;"/>
						</clipPath>
						<path style="clip-path:url(#SVGID_00000039123413659454499050000017040373936081446303_);fill:#5699DE;" d="M51,67.74v4.85
							c-0.11,0.36-0.21,0.719-0.33,1.08c-0.69,2.179-1.23,4.429-2.13,6.52c-0.47,1.1-1.4,2.13-2.37,2.869
							c-1.95,1.511-4.06,2.79-6.22,4.221c0.61,1.04,1.27,2.17,1.95,3.33c-2.99,1.02-16.1-0.33-17.55-1.81
							c1.13-2.93,2.09-5.93,3.29-8.951c0.73-1.799,1.54-3.619,2.51-5.409c1.06,1.31,1.94,2.39,2.84,3.5
							c2.04-1.46,4.03-2.89,6.1-4.37c0.24-2.261,2.88-3.88,1.57-6.801c0.9,0.08,1.51,0.141,2.13,0.191
							c2.48,0.19,4.96,0.37,7.45,0.559C50.49,67.54,50.75,67.66,51,67.74"/>
					</g>
				</g>
				<g style="clip-path:url(#SVGID_00000171683225128761718660000017449906204690151845_);">
					<defs>
						<rect id="SVGID_00000041261160076375837120000007654184714494886823_" x="4" y="53.47" width="20.89" height="33.69"/>
					</defs>
					<clipPath id="SVGID_00000088121743404028375290000016375429455508972939_">
						<use xlink:href="#SVGID_00000041261160076375837120000007654184714494886823_"  style="overflow:visible;"/>
					</clipPath>
					<g style="clip-path:url(#SVGID_00000088121743404028375290000016375429455508972939_);">
						<defs>
							<rect id="SVGID_00000145778720554178109660000016695186275816237200_" x="4" y="53.47" width="20.89" height="33.69"/>
						</defs>
						<clipPath id="SVGID_00000015354492987342455910000013409274623383345028_">
							<use xlink:href="#SVGID_00000145778720554178109660000016695186275816237200_"  style="overflow:visible;"/>
						</clipPath>
						<path style="clip-path:url(#SVGID_00000015354492987342455910000013409274623383345028_);fill:#E1D153;" d="M20.12,73.59
							c0.76,2.09,2.04,4.26,4.77,5.37c-2.01,2.83-3.87,5.46-5.82,8.2c-2.94-1.66-5.82-3.2-7.7-6.08c-0.36-0.55-0.88-1-1.35-1.46
							c-1.36-1.32-1.66-3.11-1.93-4.81c-0.27-1.77-0.11-3.61-0.14-5.43c-0.02-0.51,0-1.04,0-1.58c-1.44-0.08-2.7-0.149-3.95-0.2
							c0.23-2.64,8.18-13.32,10.55-14.13c1.78,2.16,3.66,4.28,5.42,6.59c1.37,1.79,2.66,3.7,3.81,5.83c-1.7,0.24-2.94,0.4-4.38,0.61
							C19.59,68.89,19.33,71.441,20.12,73.59"/>
					</g>
				</g>
			</g>
			<polygon style="clip-path:url(#SVGID_00000028292017616187982870000003167571857890142643_);fill:#9F9EB1;" points="
				81.168,74.124 78.952,75.204 76.882,76.584 75.457,78.644 74.451,81.864 74.449,84.235 74.928,86.548 76.376,88.407 
				77.621,89.703 79.061,90.763 79.358,91.135 80.162,91.564 80.625,91.637 83.077,92.345 85.259,92.565 87.335,91.903 
				89.284,90.956 90.763,89.351 91.802,88.113 92.741,86.35 93.17,84.487 93.174,82.023 92.641,79.666 91.194,77.708 89.198,75.439 
				87.66,74.62 85.723,74.254 83.633,73.879 			"/>
			<g style="clip-path:url(#SVGID_00000028292017616187982870000003167571857890142643_);">
				<defs>
					
						<rect id="SVGID_00000027565068021129474760000016675641436163473025_" x="67.545" y="44.81" transform="matrix(0.7071 -0.7071 0.7071 0.7071 -19.7276 70.9233)" width="16.4" height="28.929"/>
				</defs>
				<clipPath id="SVGID_00000021121484177880396060000017980018843003708291_">
					<use xlink:href="#SVGID_00000027565068021129474760000016675641436163473025_"  style="overflow:visible;"/>
				</clipPath>
				<path style="clip-path:url(#SVGID_00000021121484177880396060000017980018843003708291_);fill:#523742;" d="M66.089,54.994
					c0.755-2.766,5.655-8.485,5.655-8.485c2.122,0.707,1.896,1.119,4.244,2.828c0.096,0.071,1.319,1.354,1.414,1.414
					c0.541,0.336,3.871,3.891,4.95,7.447c0.159,0.521,0.431,1.006,0.68,1.571c1.105-0.425,2.149-0.828,3.213-1.238
					c0.348,2.008-2.202,11.176-3.998,14.343c-3.881-1.983-7.577-4.253-11.285-7.009c1.263-0.678,2.256-1.209,3.456-1.852
					c-1.047-2.064-1.942-3.753-3.38-5.484C69.782,57.019,68.21,55.701,66.089,54.994"/>
			</g>
		</g>
	</g>
</g>
<g id="Layer_2">
	<g id="Layer_3">
	</g>
</g>
</svg>
