<?xml version="1.0" encoding="iso-8859-1"?>
<!-- Generator: Adobe Illustrator 26.0.1, SVG Export Plug-In . SVG Version: 6.00 Build 0)  -->
<svg version="1.1" id="Layer_1" xmlns="http://www.w3.org/2000/svg" xmlns:xlink="http://www.w3.org/1999/xlink" x="0px" y="0px"
	 viewBox="0 0 100 100" style="enable-background:new 0 0 100 100;" xml:space="preserve">
<g id="L6_1_" style="display:none;">
	<g style="display:inline;">
		<defs>
			<rect id="SVGID_1_" x="6" y="5" width="85" height="91"/>
		</defs>
		<clipPath id="SVGID_00000063595729382087727400000002222282044324290491_">
			<use xlink:href="#SVGID_1_"  style="overflow:visible;"/>
		</clipPath>
		<g style="clip-path:url(#SVGID_00000063595729382087727400000002222282044324290491_);">
			<defs>
				<rect id="SVGID_00000030468803298833594030000007633374483052421795_" x="6" y="5" width="85" height="91"/>
			</defs>
			<clipPath id="SVGID_00000017515600981863916170000001063485571692006808_">
				<use xlink:href="#SVGID_00000030468803298833594030000007633374483052421795_"  style="overflow:visible;"/>
			</clipPath>
			<g style="clip-path:url(#SVGID_00000017515600981863916170000001063485571692006808_);">
				<defs>
					<rect id="SVGID_00000085234977985291237430000012253207314270158724_" x="65.616" y="21.17" width="25.384" height="29.709"/>
				</defs>
				<clipPath id="SVGID_00000097498354157989408550000008100088790534943897_">
					<use xlink:href="#SVGID_00000085234977985291237430000012253207314270158724_"  style="overflow:visible;"/>
				</clipPath>
				<g style="clip-path:url(#SVGID_00000097498354157989408550000008100088790534943897_);">
					<defs>
						<rect id="SVGID_00000016050856491733898020000015987371013903402413_" x="65.616" y="21.17" width="25.384" height="29.709"/>
					</defs>
					<clipPath id="SVGID_00000062873388408953860840000013126666027446066607_">
						<use xlink:href="#SVGID_00000016050856491733898020000015987371013903402413_"  style="overflow:visible;"/>
					</clipPath>
					<path style="clip-path:url(#SVGID_00000062873388408953860840000013126666027446066607_);fill:#55C95A;" d="M91,35.244v0.803
						c-0.179,1.026-0.413,2.052-0.536,3.078c-0.391,3.268-0.737,6.535-1.128,9.791c-0.067,0.569-0.246,1.115-0.436,1.963
						c-0.816-0.19-1.564-0.323-2.29-0.524c-0.704-0.201-1.419-0.446-2.1-0.714c-3.419-1.338-6.838-2.688-10.245-4.059
						c-0.302-0.123-0.514-0.446-0.983-0.87c1.128-0.97,2.179-1.862,3.329-2.866c-1.006-1.517-1.922-3.178-3.117-4.639
						c-1.363-1.673-2.906-3.212-4.469-4.706c-0.951-0.903-2.112-1.606-3.408-2.576c3.486-3.089,6.659-5.911,9.865-8.754
						c4.391,4.026,8.647,7.784,10.714,13.494c1.508-0.926,2.726-1.673,4.089-2.52C90.553,33.337,90.776,34.285,91,35.244"/>
				</g>
			</g>
			<g style="clip-path:url(#SVGID_00000017515600981863916170000001063485571692006808_);">
				<defs>
					<rect id="SVGID_00000034054084084732797200000015430972126314436749_" x="67.264" y="54.57" width="23.736" height="29.787"/>
				</defs>
				<clipPath id="SVGID_00000118394774378163389670000007133022786148022943_">
					<use xlink:href="#SVGID_00000034054084084732797200000015430972126314436749_"  style="overflow:visible;"/>
				</clipPath>
				<g style="clip-path:url(#SVGID_00000118394774378163389670000007133022786148022943_);">
					<defs>
						<rect id="SVGID_00000013910586876068893480000010300191395160517273_" x="67.264" y="54.57" width="23.736" height="29.787"/>
					</defs>
					<clipPath id="SVGID_00000080175291715450143300000005625058358038957489_">
						<use xlink:href="#SVGID_00000013910586876068893480000010300191395160517273_"  style="overflow:visible;"/>
					</clipPath>
					<path style="clip-path:url(#SVGID_00000080175291715450143300000005625058358038957489_);fill:#E1D153;" d="M91,60.749
						c-0.547,1.203-0.983,2.141-1.486,3.233c-1.173,4.461-4.078,8.153-7.094,11.765c1.419,1.083,2.458,1.875,3.809,2.901
						c-5.898,3.177-12.233,3.669-18.422,5.71c-0.212-1.071-0.425-1.795-0.492-2.543c-0.079-0.892-0.045-1.807-0.034-2.722
						c0-0.824,0.022-1.661,0.045-2.497c0.011-0.804,0.056-1.596,0.056-2.398v-7.015c1.843,0.188,3.028,1.193,4.268,1.996
						c3.821-4.093,5.687-9.156,7.374-14.609C83.168,56.712,86.989,58.685,91,60.749"/>
				</g>
			</g>
			<g style="clip-path:url(#SVGID_00000017515600981863916170000001063485571692006808_);">
				<defs>
					<rect id="SVGID_00000013177309455573203120000016850319202561314237_" x="7.013" y="55.072" width="24.739" height="30.133"/>
				</defs>
				<clipPath id="SVGID_00000124140719535524599190000015213533372921747077_">
					<use xlink:href="#SVGID_00000013177309455573203120000016850319202561314237_"  style="overflow:visible;"/>
				</clipPath>
				<g style="clip-path:url(#SVGID_00000124140719535524599190000015213533372921747077_);">
					<defs>
						<rect id="SVGID_00000068646495219541047180000011596146282528560277_" x="7.013" y="55.072" width="24.739" height="30.133"/>
					</defs>
					<clipPath id="SVGID_00000175288865269140646680000006435206933672541854_">
						<use xlink:href="#SVGID_00000068646495219541047180000011596146282528560277_"  style="overflow:visible;"/>
					</clipPath>
					<path style="clip-path:url(#SVGID_00000175288865269140646680000006435206933672541854_);fill:#5699DE;" d="M30.043,74.677
						c0.614,0.546,1.073,1.249,1.709,1.996c-3.408,2.901-6.648,5.665-10.022,8.531c-0.793-0.959-1.43-1.727-2.246-2.709
						c-1.91-0.681-2.894-2.767-4.268-4.395c-1.274-1.504-2.525-3.067-2.916-5.141c-0.112-0.545-0.827-0.993-1.229-1.45
						c-1.296,0.825-2.503,1.595-4.044,2.565c-0.145-6.713,0.816-12.892,2.067-19.003c0.894,0.146,1.486,0.134,1.989,0.336
						c0.559,0.234,1.017,0.668,1.564,0.902c4.056,1.249,7.988,2.855,11.932,4.873c-0.592,1.673-2.447,1.907-3.631,3.123
						c1.765,2.42,3.363,4.852,5.218,7.059C27.25,72.649,28.781,73.54,30.043,74.677"/>
				</g>
			</g>
			<g style="clip-path:url(#SVGID_00000017515600981863916170000001063485571692006808_);">
				<defs>
					<rect id="SVGID_00000008833226029304422220000012159467931847374761_" x="34.009" y="5.045" width="32.143" height="21.691"/>
				</defs>
				<clipPath id="SVGID_00000010290169083150862590000012538452668317266616_">
					<use xlink:href="#SVGID_00000008833226029304422220000012159467931847374761_"  style="overflow:visible;"/>
				</clipPath>
				<g style="clip-path:url(#SVGID_00000010290169083150862590000012538452668317266616_);">
					<defs>
						<rect id="SVGID_00000131352986778908710860000017236547856437590431_" x="34.009" y="5.045" width="32.143" height="21.691"/>
					</defs>
					<clipPath id="SVGID_00000120560203145595077190000008981497261641798285_">
						<use xlink:href="#SVGID_00000131352986778908710860000017236547856437590431_"  style="overflow:visible;"/>
					</clipPath>
					<path style="clip-path:url(#SVGID_00000120560203145595077190000008981497261641798285_);fill:#AD70D6;" d="M51.639,5.045
						c5.676,3.323,9.565,8.186,14.513,12.39c-4.725,3.401-9.262,6.479-14.479,9.301v-4.617c-5.754-1.026-11.016,0.011-16.502,1.606
						c-0.402-4.572-0.771-8.777-1.162-13.193c3.072-0.446,5.866-1.059,8.67-1.204c2.827-0.156,5.664,0.156,8.559,0.268
						C51.372,8.123,51.483,6.751,51.639,5.045"/>
				</g>
			</g>
			<g style="clip-path:url(#SVGID_00000017515600981863916170000001063485571692006808_);">
				<defs>
					<rect id="SVGID_00000021823692828468467530000016644475110569660068_" x="6.201" y="19.977" width="22.815" height="29.497"/>
				</defs>
				<clipPath id="SVGID_00000032642558351514788770000002773686506983369371_">
					<use xlink:href="#SVGID_00000021823692828468467530000016644475110569660068_"  style="overflow:visible;"/>
				</clipPath>
				<g style="clip-path:url(#SVGID_00000032642558351514788770000002773686506983369371_);">
					<defs>
						<rect id="SVGID_00000065050597750783085840000012210944533278764185_" x="6.201" y="19.977" width="22.815" height="29.497"/>
					</defs>
					<clipPath id="SVGID_00000092420109218728538590000000169250418314247056_">
						<use xlink:href="#SVGID_00000065050597750783085840000012210944533278764185_"  style="overflow:visible;"/>
					</clipPath>
					<path style="clip-path:url(#SVGID_00000092420109218728538590000000169250418314247056_);fill:#E33A3A;" d="M29.015,35.668
						c0.011,0.368-0.168,0.725-0.313,1.282c-1.385-0.803-2.592-1.506-3.91-2.275c-1.006,1.528-2.1,2.966-2.972,4.539
						c-1.408,2.543-2.704,5.141-3.084,8.107c-0.089,0.703-0.659,1.338-1.084,2.152c-3.888-1.896-7.687-3.747-11.452-5.576
						c1.765-5.721,3.944-10.862,8.167-15.044c-1.419-1.071-2.558-1.929-3.989-3.011c5.81-2.989,11.943-3.959,17.887-5.866
						c0.235,0.825,0.48,1.327,0.492,1.84C28.87,26.434,28.959,31.051,29.015,35.668"/>
				</g>
			</g>
			<g style="clip-path:url(#SVGID_00000017515600981863916170000001063485571692006808_);">
				<defs>
					<rect id="SVGID_00000133487471700314586370000005857669204129542046_" x="30.993" y="73.328" width="31.942" height="21.144"/>
				</defs>
				<clipPath id="SVGID_00000052822479795765148290000000467384646193046920_">
					<use xlink:href="#SVGID_00000133487471700314586370000005857669204129542046_"  style="overflow:visible;"/>
				</clipPath>
				<g style="clip-path:url(#SVGID_00000052822479795765148290000000467384646193046920_);">
					<defs>
						
							<rect id="SVGID_00000119809063803724433480000007981984056463831471_" x="30.993" y="73.328" width="31.942" height="21.144"/>
					</defs>
					<clipPath id="SVGID_00000081638403853525487350000012962697697265329583_">
						<use xlink:href="#SVGID_00000119809063803724433480000007981984056463831471_"  style="overflow:visible;"/>
					</clipPath>
					<path style="clip-path:url(#SVGID_00000081638403853525487350000012962697697265329583_);fill:#F26C2B;" d="M61.639,76.16
						c0.447,4.45,0.861,8.542,1.296,12.848c-1.228,0.178-2.156,0.3-3.106,0.434c-4.514,1.607-9.16,1.383-13.954,0.591
						c-0.145,1.595-0.257,2.978-0.38,4.438c-1.877-0.346-3.106-1.382-4.324-2.497c-3.151-2.877-6.335-5.71-9.508-8.555
						c-0.156-0.145-0.29-0.335-0.67-0.758c4.514-3.29,8.938-6.546,14.155-9.334v4.707c1.285,0.077,2.413,0.267,3.508,0.177
						c2.413-0.201,4.815-0.48,7.206-0.848C57.706,77.075,59.527,76.606,61.639,76.16"/>
				</g>
			</g>
		</g>
	</g>
</g>
<g id="T2_x5F_4_1_" style="display:none;">
	<g style="display:inline;">
		<defs>
			<rect id="SVGID_00000008861404194746097370000014103234654528133249_" x="24" y="35" width="45.978" height="30.743"/>
		</defs>
		<clipPath id="SVGID_00000169558606228524009470000002883008623281203597_">
			<use xlink:href="#SVGID_00000008861404194746097370000014103234654528133249_"  style="overflow:visible;"/>
		</clipPath>
		<polygon style="clip-path:url(#SVGID_00000169558606228524009470000002883008623281203597_);fill:#9F9EB1;" points="
			61.133,45.618 59.462,46.138 57.675,46.717 55.852,47.933 54.57,49.697 53.528,51.637 53.273,53.832 53.273,53.843 53.827,56.771 
			54.812,58.625 56.148,60.232 58.052,61.08 59.565,61.575 61.13,61.804 61.518,61.971 62.319,61.971 62.715,61.835 64.925,61.367 
			66.721,60.631 68.066,59.251 69.195,57.699 69.68,55.831 69.978,54.431 69.978,52.662 69.536,51.03 68.514,49.105 67.118,47.486 
			65.172,46.559 62.667,45.618 		"/>
		<g style="clip-path:url(#SVGID_00000169558606228524009470000002883008623281203597_);">
			<defs>
				
					<rect id="SVGID_00000123410526917510771830000015605759847278086048_" x="26.463" y="42.063" transform="matrix(0.7465 -0.6653 0.6653 0.7465 -23.4315 39.2332)" width="26.632" height="16.616"/>
			</defs>
			<clipPath id="SVGID_00000121252890983089392540000000466172314488090787_">
				<use xlink:href="#SVGID_00000123410526917510771830000015605759847278086048_"  style="overflow:visible;"/>
			</clipPath>
			<path style="clip-path:url(#SVGID_00000121252890983089392540000000466172314488090787_);fill:#523742;" d="M45.595,41.762
				c0.855-0.81,0.047-2.661,1.794-2.867c2.407,3.059,4.79,6.079,7.325,9.296c-3.191,2.084-6.69,3.412-10.04,5
				c-0.346-0.095-0.635-0.181-0.987-0.271c0.165-1.249,0.345-2.524,0.521-3.831c-2.244-1.319-4.231-0.318-5.877,0.734
				c-2.681,1.714-1.868,4.355-1.186,6.544c0.5,0.693,0.849,1.164,1.307,1.799c-2.252,1.237-4.298,2.359-6.381,3.493
				c-0.16-0.153-0.342-0.251-0.385-0.391c-0.609-1.721-1.502-3.415-1.713-5.182c-0.523-4.43,0.604-8.433,3.952-11.617
				c2.148-2.033,4.599-3.339,7.62-3.222C42.87,41.298,44.182,41.574,45.595,41.762"/>
		</g>
	</g>
</g>
<g id="L6_G_x28__T1_L1__x29__00000097472656339881811340000016904750947749752965_">
	<g>
		<defs>
			<rect id="SVGID_00000013161174713803074260000013672559093093886385_" x="6" y="5" width="85" height="91"/>
		</defs>
		<clipPath id="SVGID_00000111159375745964033030000001283520471545156517_">
			<use xlink:href="#SVGID_00000013161174713803074260000013672559093093886385_"  style="overflow:visible;"/>
		</clipPath>
		<g style="clip-path:url(#SVGID_00000111159375745964033030000001283520471545156517_);">
			<defs>
				<rect id="SVGID_00000163761220566751661360000017419384392098518700_" x="65.616" y="21.17" width="25.384" height="29.709"/>
			</defs>
			<clipPath id="SVGID_00000113350016977570480780000018174601612293965190_">
				<use xlink:href="#SVGID_00000163761220566751661360000017419384392098518700_"  style="overflow:visible;"/>
			</clipPath>
			<path style="clip-path:url(#SVGID_00000113350016977570480780000018174601612293965190_);fill:#55C95A;" d="M91,35.244v0.803
				c-0.179,1.026-0.413,2.051-0.536,3.078c-0.392,3.267-0.737,6.535-1.129,9.791c-0.066,0.569-0.245,1.115-0.436,1.963
				c-0.815-0.19-1.564-0.323-2.29-0.524c-0.704-0.201-1.419-0.446-2.1-0.714c-3.419-1.338-6.838-2.688-10.245-4.06
				c-0.302-0.122-0.514-0.445-0.984-0.869c1.129-0.97,2.179-1.863,3.329-2.866c-1.005-1.517-1.921-3.179-3.116-4.64
				c-1.363-1.672-2.906-3.211-4.47-4.706c-0.95-0.903-2.111-1.606-3.407-2.576c3.486-3.089,6.659-5.91,9.865-8.754
				c4.391,4.026,8.648,7.784,10.714,13.494c1.509-0.926,2.727-1.673,4.09-2.521C90.553,33.337,90.776,34.285,91,35.244"/>
		</g>
		<g style="clip-path:url(#SVGID_00000111159375745964033030000001283520471545156517_);">
			<defs>
				<rect id="SVGID_00000110460466860673752860000013792874748853031084_" x="67.264" y="54.571" width="23.736" height="29.787"/>
			</defs>
			<clipPath id="SVGID_00000073701066037841299550000006990588982541507479_">
				<use xlink:href="#SVGID_00000110460466860673752860000013792874748853031084_"  style="overflow:visible;"/>
			</clipPath>
			<path style="clip-path:url(#SVGID_00000073701066037841299550000006990588982541507479_);fill:#E1D153;" d="M91,60.749
				c-0.548,1.203-0.983,2.142-1.486,3.233c-1.173,4.461-4.078,8.154-7.094,11.765c1.418,1.083,2.457,1.875,3.809,2.901
				c-5.899,3.177-12.234,3.669-18.423,5.709c-0.212-1.07-0.424-1.795-0.492-2.542c-0.079-0.892-0.044-1.806-0.033-2.722
				c0-0.824,0.022-1.66,0.044-2.497c0.012-0.804,0.057-1.596,0.057-2.398v-7.014c1.843,0.188,3.027,1.193,4.267,1.996
				c3.822-4.093,5.687-9.156,7.374-14.609C83.168,56.712,86.989,58.685,91,60.749"/>
		</g>
		<g style="clip-path:url(#SVGID_00000111159375745964033030000001283520471545156517_);">
			<defs>
				<rect id="SVGID_00000053511837754616507670000016055714156914018709_" x="7.013" y="55.072" width="24.739" height="30.133"/>
			</defs>
			<clipPath id="SVGID_00000042702495185916192280000007651638693066367136_">
				<use xlink:href="#SVGID_00000053511837754616507670000016055714156914018709_"  style="overflow:visible;"/>
			</clipPath>
			<path style="clip-path:url(#SVGID_00000042702495185916192280000007651638693066367136_);fill:#5699DE;" d="M30.043,74.677
				c0.615,0.547,1.073,1.249,1.709,1.996c-3.407,2.901-6.647,5.666-10.021,8.531c-0.793-0.959-1.43-1.727-2.246-2.708
				c-1.91-0.681-2.893-2.767-4.268-4.395c-1.273-1.504-2.525-3.067-2.916-5.141c-0.112-0.546-0.826-0.993-1.229-1.45
				c-1.296,0.825-2.502,1.595-4.044,2.565c-0.145-6.713,0.816-12.891,2.067-19.002c0.894,0.145,1.486,0.133,1.989,0.334
				c0.558,0.235,1.016,0.668,1.563,0.903c4.056,1.249,7.989,2.855,11.933,4.874c-0.592,1.673-2.447,1.906-3.631,3.122
				c1.765,2.42,3.363,4.852,5.218,7.059C27.25,72.649,28.781,73.54,30.043,74.677"/>
		</g>
		<g style="clip-path:url(#SVGID_00000111159375745964033030000001283520471545156517_);">
			<defs>
				<rect id="SVGID_00000151532810935910109010000010399219860518108806_" x="34.009" y="5.045" width="32.144" height="21.69"/>
			</defs>
			<clipPath id="SVGID_00000039092595194848980080000000662043327576076933_">
				<use xlink:href="#SVGID_00000151532810935910109010000010399219860518108806_"  style="overflow:visible;"/>
			</clipPath>
			<path style="clip-path:url(#SVGID_00000039092595194848980080000000662043327576076933_);fill:#AD70D6;" d="M51.639,5.045
				c5.676,3.323,9.565,8.186,14.514,12.39c-4.726,3.402-9.263,6.479-14.48,9.3v-4.616c-5.754-1.026-11.016,0.011-16.502,1.606
				c-0.402-4.573-0.771-8.777-1.162-13.193c3.073-0.446,5.866-1.06,8.67-1.204c2.827-0.157,5.665,0.155,8.56,0.267
				C51.372,8.123,51.483,6.752,51.639,5.045"/>
		</g>
		<g style="clip-path:url(#SVGID_00000111159375745964033030000001283520471545156517_);">
			<defs>
				<rect id="SVGID_00000155134101500812901240000006635533574940111014_" x="6.202" y="19.978" width="22.814" height="29.497"/>
			</defs>
			<clipPath id="SVGID_00000016794312936255568490000008662496964913234874_">
				<use xlink:href="#SVGID_00000155134101500812901240000006635533574940111014_"  style="overflow:visible;"/>
			</clipPath>
			<path style="clip-path:url(#SVGID_00000016794312936255568490000008662496964913234874_);fill:#E33A3A;" d="M29.015,35.668
				c0.011,0.368-0.167,0.725-0.312,1.283c-1.386-0.804-2.593-1.506-3.911-2.275c-1.006,1.528-2.1,2.966-2.972,4.538
				c-1.408,2.543-2.703,5.142-3.083,8.108c-0.09,0.702-0.66,1.338-1.084,2.152c-3.888-1.895-7.687-3.747-11.452-5.576
				c1.765-5.721,3.944-10.862,8.167-15.043c-1.419-1.071-2.559-1.93-3.988-3.012c5.809-2.988,11.943-3.959,17.886-5.865
				c0.235,0.825,0.481,1.327,0.492,1.839C28.87,26.435,28.959,31.051,29.015,35.668"/>
		</g>
		<g style="clip-path:url(#SVGID_00000111159375745964033030000001283520471545156517_);">
			<defs>
				<rect id="SVGID_00000130607364717218454870000002224006285940187299_" x="30.993" y="73.328" width="31.942" height="21.144"/>
			</defs>
			<clipPath id="SVGID_00000110454441846927238930000006189687549052773290_">
				<use xlink:href="#SVGID_00000130607364717218454870000002224006285940187299_"  style="overflow:visible;"/>
			</clipPath>
			<path style="clip-path:url(#SVGID_00000110454441846927238930000006189687549052773290_);fill:#F26C2B;" d="M61.639,76.16
				c0.446,4.45,0.861,8.543,1.296,12.849c-1.228,0.177-2.156,0.299-3.107,0.433c-4.512,1.608-9.159,1.383-13.954,0.591
				c-0.145,1.595-0.256,2.978-0.379,4.439c-1.877-0.346-3.106-1.382-4.324-2.498c-3.151-2.876-6.335-5.709-9.508-8.554
				c-0.156-0.145-0.29-0.334-0.67-0.758c4.514-3.29,8.938-6.546,14.155-9.334v4.707c1.285,0.077,2.414,0.267,3.509,0.177
				c2.413-0.2,4.815-0.48,7.206-0.847C57.706,77.075,59.528,76.606,61.639,76.16"/>
		</g>
		<polygon style="clip-path:url(#SVGID_00000111159375745964033030000001283520471545156517_);fill:#9F9EB1;" points="
			61.133,45.618 59.462,46.138 57.674,46.717 55.852,47.933 54.57,49.698 53.528,51.636 53.273,53.832 53.273,53.843 53.827,56.771 
			54.812,58.625 56.148,60.231 58.052,61.08 59.564,61.575 61.129,61.804 61.518,61.972 62.319,61.972 62.714,61.835 64.925,61.367 
			66.72,60.631 68.066,59.251 69.194,57.7 69.68,55.831 69.977,54.432 69.977,52.662 69.536,51.031 68.515,49.106 67.118,47.486 
			65.172,46.559 62.667,45.618 		"/>
		<g style="clip-path:url(#SVGID_00000111159375745964033030000001283520471545156517_);">
			<defs>
				
					<rect id="SVGID_00000119098598215855412230000015351772651405105564_" x="26.463" y="42.063" transform="matrix(0.7465 -0.6654 0.6654 0.7465 -23.432 39.2366)" width="26.633" height="16.615"/>
			</defs>
			<clipPath id="SVGID_00000132070532840648916330000011602307795165334416_">
				<use xlink:href="#SVGID_00000119098598215855412230000015351772651405105564_"  style="overflow:visible;"/>
			</clipPath>
			<path style="clip-path:url(#SVGID_00000132070532840648916330000011602307795165334416_);fill:#523742;" d="M45.595,41.762
				c0.854-0.81,0.047-2.661,1.793-2.867c2.407,3.059,4.79,6.079,7.325,9.297c-3.19,2.083-6.689,3.412-10.039,4.999
				c-0.346-0.095-0.636-0.181-0.987-0.271c0.165-1.249,0.345-2.523,0.521-3.83c-2.244-1.32-4.231-0.318-5.877,0.733
				c-2.681,1.714-1.868,4.356-1.186,6.544c0.5,0.694,0.849,1.165,1.307,1.799c-2.252,1.238-4.297,2.36-6.38,3.493
				c-0.161-0.153-0.343-0.251-0.386-0.391c-0.608-1.721-1.501-3.414-1.713-5.182c-0.523-4.429,0.605-8.432,3.952-11.617
				c2.148-2.033,4.599-3.34,7.62-3.222C42.87,41.299,44.182,41.575,45.595,41.762"/>
		</g>
	</g>
</g>
</svg>
