<?xml version="1.0" encoding="iso-8859-1"?>
<!-- Generator: Adobe Illustrator 26.0.1, SVG Export Plug-In . SVG Version: 6.00 Build 0)  -->
<svg version="1.1" xmlns="http://www.w3.org/2000/svg" xmlns:xlink="http://www.w3.org/1999/xlink" x="0px" y="0px"
	 viewBox="0 0 100 100" style="enable-background:new 0 0 100 100;" xml:space="preserve">
<g id="Layer_1">
	<g id="L1_L1_L1_L1_00000094608388010943812520000018104454998296312194_">
		<g>
			<defs>
				<rect id="SVGID_1_" x="11" y="10.26" width="82" height="81.48"/>
			</defs>
			<clipPath id="SVGID_00000173151306424161002590000007844990598677994160_">
				<use xlink:href="#SVGID_1_"  style="overflow:visible;"/>
			</clipPath>
			<g style="clip-path:url(#SVGID_00000173151306424161002590000007844990598677994160_);">
				<defs>
					<rect id="SVGID_00000073696996662170573340000006692865663152660125_" x="11" y="10.26" width="82" height="81.48"/>
				</defs>
				<clipPath id="SVGID_00000097499049222052165240000002245321394682263462_">
					<use xlink:href="#SVGID_00000073696996662170573340000006692865663152660125_"  style="overflow:visible;"/>
				</clipPath>
				<g style="clip-path:url(#SVGID_00000097499049222052165240000002245321394682263462_);">
					<defs>
						<rect id="SVGID_00000163059520444380767130000006624074502597722273_" x="11" y="10.26" width="79.96" height="81.48"/>
					</defs>
					<clipPath id="SVGID_00000085224722242583767960000004673422657920278719_">
						<use xlink:href="#SVGID_00000163059520444380767130000006624074502597722273_"  style="overflow:visible;"/>
					</clipPath>
					<g style="opacity:0.96;clip-path:url(#SVGID_00000085224722242583767960000004673422657920278719_);">
						<g>
							<defs>
								<rect id="SVGID_00000030483157120282527640000010181114109720113332_" x="12" y="10.257" width="31.363" height="34.872"/>
							</defs>
							<clipPath id="SVGID_00000095308706892076257020000010913351289371858595_">
								<use xlink:href="#SVGID_00000030483157120282527640000010181114109720113332_"  style="overflow:visible;"/>
							</clipPath>
							<g style="clip-path:url(#SVGID_00000095308706892076257020000010913351289371858595_);">
								<defs>
									
										<rect id="SVGID_00000063633663219864723070000002276407667883297465_" x="13.264" y="10.26" width="30.092" height="18.776"/>
								</defs>
								<clipPath id="SVGID_00000049194125463337976330000003813933162367318944_">
									<use xlink:href="#SVGID_00000063633663219864723070000002276407667883297465_"  style="overflow:visible;"/>
								</clipPath>
								<path style="clip-path:url(#SVGID_00000049194125463337976330000003813933162367318944_);fill:#AD70D6;" d="M39.693,16.756
									c1.33-0.04,2.04-2.21,3.67-1.07c-0.27,4.39-0.53,8.73-0.81,13.35c-4.26-0.64-8.21-2.15-12.23-3.33
									c-0.22-0.34-0.4-0.63-0.63-0.97c1.08-0.93,2.19-1.87,3.32-2.84c-0.9-2.8-3.33-3.45-5.51-3.8c-3.55-0.57-4.85,2.27-5.92,4.63
									c-0.1,0.96-0.16,1.62-0.25,2.5c-2.83-0.65-5.4-1.24-8.01-1.85c-0.02-0.25-0.1-0.47-0.03-0.62c0.78-1.91,1.3-4.01,2.45-5.66
									c2.89-4.13,6.85-6.66,12.07-6.83c3.34-0.1,6.39,0.64,8.85,3.01C37.743,14.316,38.643,15.536,39.693,16.756"/>
							</g>
							<g style="clip-path:url(#SVGID_00000095308706892076257020000010913351289371858595_);">
								<defs>
									
										<rect id="SVGID_00000074411926408323317500000011300367335716687528_" x="12.003" y="26.916" width="29.362" height="18.213"/>
								</defs>
								<clipPath id="SVGID_00000161614157036636499330000017108437898550347703_">
									<use xlink:href="#SVGID_00000074411926408323317500000011300367335716687528_"  style="overflow:visible;"/>
								</clipPath>
								<path style="clip-path:url(#SVGID_00000161614157036636499330000017108437898550347703_);fill:#F26C2B;" d="M41.363,32.706
									c-0.1,0.3-0.17,0.6-0.29,0.87c-1.52,3.45-3.13,6.93-6.51,8.9c-1.9,1.11-4.16,1.59-6.26,2.36c-2.15,0.78-4.14-0.2-6.16-0.61
									c-1.67-0.33-2.86-1.56-4-2.76c-0.82-0.86-1.62-1.74-2.62-2.83c-1.02,0.3-2.14,0.63-3.52,1.04c0.24-4.15,0.49-8.3,0.76-12.76
									c4,1.19,7.88,2.35,12.16,3.63c-1.18,1.02-2.12,1.83-3.03,2.63v1.59c1.49,2.59,3.87,3.08,6.63,3.14
									c3.42,0.08,4.13-2.66,5.59-4.93v-1.92C36.563,31.616,38.923,32.146,41.363,32.706"/>
							</g>
						</g>
					</g>
					<g style="opacity:0.96;clip-path:url(#SVGID_00000085224722242583767960000004673422657920278719_);">
						<g>
							<defs>
								<rect id="SVGID_00000008871430546681418390000017208103773546811019_" x="57" y="10.257" width="31.363" height="34.872"/>
							</defs>
							<clipPath id="SVGID_00000106126903775192762970000011374732156371122587_">
								<use xlink:href="#SVGID_00000008871430546681418390000017208103773546811019_"  style="overflow:visible;"/>
							</clipPath>
							<g style="clip-path:url(#SVGID_00000106126903775192762970000011374732156371122587_);">
								<defs>
									
										<rect id="SVGID_00000170250588792560914310000012254654036159356579_" x="58.264" y="10.26" width="30.093" height="18.776"/>
								</defs>
								<clipPath id="SVGID_00000077284710952615314240000012847493345486948744_">
									<use xlink:href="#SVGID_00000170250588792560914310000012254654036159356579_"  style="overflow:visible;"/>
								</clipPath>
								<path style="clip-path:url(#SVGID_00000077284710952615314240000012847493345486948744_);fill:#55C95A;" d="M84.692,16.756
									c1.33-0.04,2.04-2.21,3.67-1.07c-0.27,4.39-0.529,8.73-0.81,13.35c-4.259-0.64-8.21-2.15-12.23-3.33
									c-0.22-0.34-0.4-0.63-0.63-0.97c1.08-0.93,2.19-1.87,3.32-2.84c-0.9-2.8-3.33-3.45-5.509-3.8
									c-3.55-0.57-4.851,2.27-5.92,4.63c-0.101,0.96-0.161,1.62-0.25,2.5c-2.83-0.65-5.401-1.24-8.011-1.85
									c-0.02-0.25-0.1-0.47-0.029-0.62c0.779-1.91,1.299-4.01,2.45-5.66c2.889-4.13,6.849-6.66,12.069-6.83
									c3.34-0.1,6.391,0.64,8.851,3.01C82.743,14.316,83.642,15.536,84.692,16.756"/>
							</g>
							<g style="clip-path:url(#SVGID_00000106126903775192762970000011374732156371122587_);">
								<defs>
									
										<rect id="SVGID_00000183945784859191543510000016454251225311419801_" x="57.003" y="26.916" width="29.362" height="18.213"/>
								</defs>
								<clipPath id="SVGID_00000073708540637967282660000017648392032199354808_">
									<use xlink:href="#SVGID_00000183945784859191543510000016454251225311419801_"  style="overflow:visible;"/>
								</clipPath>
								<path style="clip-path:url(#SVGID_00000073708540637967282660000017648392032199354808_);fill:#5699DE;" d="M86.362,32.706
									c-0.1,0.3-0.17,0.6-0.29,0.87c-1.52,3.45-3.13,6.93-6.51,8.9c-1.899,1.11-4.16,1.59-6.26,2.36
									c-2.15,0.78-4.139-0.2-6.16-0.61c-1.67-0.33-2.86-1.56-4-2.76c-0.82-0.86-1.62-1.74-2.62-2.83
									c-1.019,0.3-2.139,0.63-3.519,1.04c0.239-4.15,0.489-8.3,0.759-12.76c4,1.19,7.88,2.35,12.161,3.63
									c-1.181,1.02-2.121,1.83-3.031,2.63v1.59c1.491,2.59,3.87,3.08,6.63,3.14c3.42,0.08,4.13-2.66,5.59-4.93v-1.92
									C81.562,31.616,83.923,32.146,86.362,32.706"/>
							</g>
						</g>
					</g>
					<g style="opacity:0.96;clip-path:url(#SVGID_00000085224722242583767960000004673422657920278719_);">
						<g>
							<defs>
								<rect id="SVGID_00000154412749336048409680000007939094657096983988_" x="11" y="54.257" width="31.363" height="34.872"/>
							</defs>
							<clipPath id="SVGID_00000022547989250985837100000005365149533337635005_">
								<use xlink:href="#SVGID_00000154412749336048409680000007939094657096983988_"  style="overflow:visible;"/>
							</clipPath>
							<g style="clip-path:url(#SVGID_00000022547989250985837100000005365149533337635005_);">
								<defs>
									
										<rect id="SVGID_00000097485263252782884380000017352270426308223637_" x="12.264" y="54.261" width="30.094" height="18.775"/>
								</defs>
								<clipPath id="SVGID_00000010307864178536225640000004600134494556888232_">
									<use xlink:href="#SVGID_00000097485263252782884380000017352270426308223637_"  style="overflow:visible;"/>
								</clipPath>
								<path style="clip-path:url(#SVGID_00000010307864178536225640000004600134494556888232_);fill:#E1D153;" d="M38.693,60.756
									c1.33-0.04,2.04-2.21,3.67-1.07c-0.27,4.389-0.53,8.73-0.81,13.349c-4.26-0.639-8.21-2.149-12.23-3.33
									c-0.22-0.34-0.4-0.63-0.63-0.97c1.08-0.929,2.19-1.87,3.32-2.839c-0.9-2.8-3.33-3.451-5.51-3.8
									c-3.55-0.57-4.85,2.269-5.92,4.63c-0.1,0.96-0.16,1.62-0.25,2.5c-2.83-0.651-5.4-1.241-8.01-1.85
									c-0.02-0.25-0.1-0.471-0.03-0.62c0.78-1.91,1.3-4.011,2.45-5.66c2.89-4.13,6.85-6.66,12.07-6.83
									c3.34-0.1,6.39,0.639,8.85,3.01C36.743,58.316,37.643,59.535,38.693,60.756"/>
							</g>
							<g style="clip-path:url(#SVGID_00000022547989250985837100000005365149533337635005_);">
								<defs>
									
										<rect id="SVGID_00000085939846661478299220000013993746530262058921_" x="11.003" y="70.916" width="29.362" height="18.212"/>
								</defs>
								<clipPath id="SVGID_00000127742560713935328760000009055891991725377952_">
									<use xlink:href="#SVGID_00000085939846661478299220000013993746530262058921_"  style="overflow:visible;"/>
								</clipPath>
								<path style="clip-path:url(#SVGID_00000127742560713935328760000009055891991725377952_);fill:#E33A3A;" d="M40.363,76.706
									c-0.1,0.3-0.17,0.6-0.29,0.87c-1.52,3.449-3.13,6.93-6.51,8.9c-1.9,1.11-4.16,1.589-6.26,2.36
									c-2.15,0.78-4.14-0.2-6.16-0.61c-1.67-0.331-2.86-1.56-4-2.76c-0.82-0.861-1.62-1.74-2.62-2.83
									c-1.02,0.299-2.14,0.63-3.52,1.04c0.24-4.151,0.49-8.3,0.76-12.76c4,1.189,7.88,2.35,12.16,3.63
									c-1.18,1.019-2.12,1.83-3.03,2.63v1.59c1.49,2.589,3.87,3.08,6.63,3.14c3.42,0.079,4.13-2.66,5.59-4.93v-1.92
									C35.563,75.616,37.923,76.145,40.363,76.706"/>
							</g>
						</g>
					</g>
					<g style="opacity:0.96;clip-path:url(#SVGID_00000085224722242583767960000004673422657920278719_);">
						<g>
							<defs>
								<rect id="SVGID_00000121999836390367888620000000728390318492449200_" x="72" y="50.208" width="19.135" height="18.706"/>
							</defs>
							<clipPath id="SVGID_00000067197599904193985520000015466869864017488040_">
								<use xlink:href="#SVGID_00000121999836390367888620000000728390318492449200_"  style="overflow:visible;"/>
							</clipPath>
						</g>
					</g>
					<g style="opacity:0.96;clip-path:url(#SVGID_00000085224722242583767960000004673422657920278719_);">
						<g>
							<defs>
								<rect id="SVGID_00000041254055891333697370000017467702976514589843_" x="54" y="73.208" width="19.135" height="18.706"/>
							</defs>
							<clipPath id="SVGID_00000141422556064856213110000015363501518792340877_">
								<use xlink:href="#SVGID_00000041254055891333697370000017467702976514589843_"  style="overflow:visible;"/>
							</clipPath>
						</g>
					</g>
				</g>
				<g style="clip-path:url(#SVGID_00000097499049222052165240000002245321394682263462_);">
					<defs>
						<rect id="SVGID_00000182523365404189361350000007321284829968135046_" x="57.264" y="54.26" width="30.094" height="18.776"/>
					</defs>
					<clipPath id="SVGID_00000047021828917392853650000008152889746157704372_">
						<use xlink:href="#SVGID_00000182523365404189361350000007321284829968135046_"  style="overflow:visible;"/>
					</clipPath>
					<path style="clip-path:url(#SVGID_00000047021828917392853650000008152889746157704372_);fill:#523742;" d="M83.693,60.756
						c1.33-0.04,2.04-2.21,3.67-1.07c-0.27,4.39-0.53,8.73-0.81,13.35c-4.26-0.64-8.21-2.15-12.23-3.33
						c-0.22-0.34-0.4-0.63-0.63-0.97c1.08-0.93,2.19-1.87,3.32-2.84c-0.9-2.8-3.33-3.45-5.51-3.8c-3.55-0.57-4.85,2.27-5.92,4.63
						c-0.1,0.96-0.16,1.62-0.25,2.5c-2.83-0.65-5.4-1.24-8.01-1.85c-0.02-0.25-0.1-0.47-0.03-0.62c0.78-1.91,1.3-4.01,2.45-5.66
						c2.89-4.13,6.85-6.66,12.07-6.83c3.34-0.1,6.39,0.64,8.85,3.01C81.743,58.316,82.643,59.536,83.693,60.756"/>
				</g>
				<g style="clip-path:url(#SVGID_00000097499049222052165240000002245321394682263462_);">
					<defs>
						<rect id="SVGID_00000054261806314234028950000005863106142470092475_" x="56.003" y="70.916" width="29.36" height="18.212"/>
					</defs>
					<clipPath id="SVGID_00000125583914129573480170000010132181921125313930_">
						<use xlink:href="#SVGID_00000054261806314234028950000005863106142470092475_"  style="overflow:visible;"/>
					</clipPath>
					<path style="clip-path:url(#SVGID_00000125583914129573480170000010132181921125313930_);fill:#9F9EB1;" d="M85.363,76.706
						c-0.1,0.3-0.17,0.6-0.29,0.87c-1.52,3.45-3.13,6.93-6.51,8.9c-1.9,1.11-4.16,1.59-6.26,2.36c-2.15,0.78-4.14-0.2-6.16-0.61
						c-1.67-0.33-2.86-1.56-4-2.76c-0.82-0.86-1.62-1.74-2.62-2.83c-1.02,0.3-2.14,0.63-3.52,1.04c0.24-4.15,0.49-8.3,0.76-12.76
						c4,1.19,7.88,2.35,12.16,3.63c-1.18,1.02-2.12,1.83-3.03,2.63v1.59c1.49,2.59,3.87,3.08,6.63,3.14
						c3.42,0.08,4.13-2.66,5.59-4.93v-1.92C80.563,75.616,82.923,76.146,85.363,76.706"/>
				</g>
			</g>
		</g>
	</g>
</g>
<g id="Layer_2">
	<g id="Layer_3">
	</g>
</g>
</svg>
