<?xml version="1.0" encoding="iso-8859-1"?>
<!-- Generator: Adobe Illustrator 26.0.1, SVG Export Plug-In . SVG Version: 6.00 Build 0)  -->
<svg version="1.1" xmlns="http://www.w3.org/2000/svg" xmlns:xlink="http://www.w3.org/1999/xlink" x="0px" y="0px"
	 viewBox="0 0 100 100" style="enable-background:new 0 0 100 100;" xml:space="preserve">
<g id="Layer_1" style="display:none;">
	
		<image style="display:inline;overflow:visible;" width="80" height="80" xlink:href="../old_images/xrule12.jpg"  transform="matrix(0.2 0 0 0.2 1.5223 81.0468)">
	</image>
</g>
<g id="Layer_2">
	<g id="G_x28__T1_L1__x29__00000047738977983605648960000009844122663397315253_">
		<g>
			<defs>
				<rect id="SVGID_1_" x="2" y="7" width="43.96" height="38.48"/>
			</defs>
			<clipPath id="SVGID_00000119819475556270063960000004738933715940845987_">
				<use xlink:href="#SVGID_1_"  style="overflow:visible;"/>
			</clipPath>
			<polygon style="clip-path:url(#SVGID_00000119819475556270063960000004738933715940845987_);fill:#F26C2B;" points="35.958,27 
				34.076,27.587 32.056,28.24 29.996,29.615 28.548,31.61 27.37,33.801 27.081,36.29 27.708,39.604 28.82,41.698 30.331,43.514 
				32.483,44.474 34.192,45.032 35.961,45.291 36.399,45.48 37.306,45.48 37.753,45.326 40.25,44.798 42.278,43.966 43.799,42.405 
				45.074,40.652 45.624,38.541 45.959,36.96 45.959,34.962 45.461,33.116 44.306,30.94 42.727,29.111 40.529,28.063 37.7,27 			"/>
			<g style="clip-path:url(#SVGID_00000119819475556270063960000004738933715940845987_);">
				<defs>
					
						<rect id="SVGID_00000111152173856127517670000008706655385639902383_" x="10.026" y="4.595" transform="matrix(0.2915 -0.9566 0.9566 0.2915 -5.3184 30.9397)" width="16.4" height="28.929"/>
				</defs>
				<clipPath id="SVGID_00000005986620952368759810000010245910045646661299_">
					<use xlink:href="#SVGID_00000111152173856127517670000008706655385639902383_"  style="overflow:visible;"/>
				</clipPath>
				<path style="clip-path:url(#SVGID_00000005986620952368759810000010245910045646661299_);fill:#E1D153;" d="M7.692,19.824
					C7.058,17.028,8.693,9.676,8.693,9.676c2.205-0.374,2.199,0.096,5.075,0.5c0.118,0.017,1.801,0.575,1.913,0.583
					c0.635,0.042,5.246,1.614,7.87,4.244c0.385,0.385,0.854,0.685,1.34,1.067c0.774-0.895,1.507-1.741,2.253-2.604
					c1.251,1.609,3.312,10.899,3.217,14.538c-4.358,0.076-8.687-0.19-13.256-0.878c0.796-1.192,1.422-2.128,2.179-3.26
					c-1.894-1.329-3.479-2.399-5.561-3.25C11.904,19.874,9.897,19.45,7.692,19.824"/>
			</g>
		</g>
	</g>
	<g id="G_x28__T1_L1__x29__00000067201254544897005280000003909167544144372113_">
		<g>
			<defs>
				<rect id="SVGID_00000085231007612756088440000003051766143166546586_" x="46" y="7" width="43.96" height="38.48"/>
			</defs>
			<clipPath id="SVGID_00000109011620281869150040000004334357094459705490_">
				<use xlink:href="#SVGID_00000085231007612756088440000003051766143166546586_"  style="overflow:visible;"/>
			</clipPath>
			<polygon style="clip-path:url(#SVGID_00000109011620281869150040000004334357094459705490_);fill:#55C95A;" points="79.958,27 
				78.076,27.587 76.056,28.24 73.996,29.615 72.548,31.61 71.37,33.801 71.081,36.29 71.708,39.604 72.82,41.698 74.331,43.514 
				76.483,44.474 78.192,45.032 79.961,45.291 80.399,45.48 81.306,45.48 81.753,45.326 84.25,44.798 86.278,43.966 87.799,42.405 
				89.074,40.652 89.624,38.541 89.959,36.96 89.959,34.962 89.461,33.116 88.306,30.94 86.727,29.111 84.529,28.063 81.7,27 			"/>
			<g style="clip-path:url(#SVGID_00000109011620281869150040000004334357094459705490_);">
				<defs>
					
						<rect id="SVGID_00000016778005505374781820000013372523975668006580_" x="54.026" y="4.595" transform="matrix(0.2915 -0.9566 0.9566 0.2915 25.8569 73.0292)" width="16.4" height="28.929"/>
				</defs>
				<clipPath id="SVGID_00000013905075485159794320000014755786900082495381_">
					<use xlink:href="#SVGID_00000016778005505374781820000013372523975668006580_"  style="overflow:visible;"/>
				</clipPath>
				<path style="clip-path:url(#SVGID_00000013905075485159794320000014755786900082495381_);fill:#AD70D6;" d="M51.692,19.824
					c-0.634-2.796,1.001-10.148,1.001-10.148c2.205-0.374,2.199,0.096,5.075,0.5c0.118,0.017,1.801,0.575,1.913,0.583
					c0.635,0.042,5.246,1.614,7.87,4.244c0.385,0.385,0.854,0.685,1.34,1.067c0.774-0.895,1.507-1.741,2.253-2.604
					c1.251,1.609,3.312,10.899,3.217,14.538c-4.358,0.076-8.687-0.19-13.256-0.878c0.796-1.192,1.422-2.128,2.179-3.26
					c-1.894-1.329-3.479-2.399-5.561-3.25C55.904,19.874,53.897,19.45,51.692,19.824"/>
			</g>
		</g>
	</g>
	<g id="G_x28__T1_L1__x29__00000041266064700312184580000008144346577336373948_">
		<g>
			<defs>
				<rect id="SVGID_00000168835448385846475310000014727959673353629859_" x="3" y="52" width="43.96" height="38.48"/>
			</defs>
			<clipPath id="SVGID_00000104679514082328557610000012200412044527715990_">
				<use xlink:href="#SVGID_00000168835448385846475310000014727959673353629859_"  style="overflow:visible;"/>
			</clipPath>
			<polygon style="clip-path:url(#SVGID_00000104679514082328557610000012200412044527715990_);fill:#9F9EB1;" points="36.958,72 
				35.076,72.587 33.056,73.24 30.996,74.615 29.548,76.61 28.37,78.801 28.081,81.29 28.708,84.604 29.82,86.698 31.331,88.514 
				33.483,89.474 35.192,90.032 36.961,90.291 37.399,90.48 38.306,90.48 38.753,90.326 41.25,89.798 43.278,88.966 44.799,87.405 
				46.074,85.652 46.624,83.541 46.959,81.96 46.959,79.962 46.461,78.116 45.306,75.94 43.727,74.111 41.529,73.063 38.7,72 			"/>
			<g style="clip-path:url(#SVGID_00000104679514082328557610000012200412044527715990_);">
				<defs>
					
						<rect id="SVGID_00000144316027337216023410000000150087336721540015_" x="11.026" y="49.595" transform="matrix(0.2915 -0.9566 0.9566 0.2915 -47.656 63.78)" width="16.4" height="28.929"/>
				</defs>
				<clipPath id="SVGID_00000042017492909545067180000004863221766619801790_">
					<use xlink:href="#SVGID_00000144316027337216023410000000150087336721540015_"  style="overflow:visible;"/>
				</clipPath>
				<path style="clip-path:url(#SVGID_00000042017492909545067180000004863221766619801790_);fill:#523742;" d="M8.692,64.824
					c-0.634-2.796,1.001-10.148,1.001-10.148c2.205-0.374,2.199,0.096,5.075,0.5c0.118,0.017,1.801,0.575,1.913,0.583
					c0.635,0.042,5.246,1.614,7.87,4.244c0.385,0.385,0.854,0.685,1.34,1.067c0.774-0.895,1.507-1.741,2.253-2.604
					c1.251,1.609,3.312,10.899,3.217,14.538c-4.358,0.076-8.687-0.19-13.256-0.878c0.796-1.192,1.422-2.128,2.179-3.26
					c-1.894-1.329-3.479-2.399-5.561-3.25C12.904,64.874,10.897,64.45,8.692,64.824"/>
			</g>
		</g>
	</g>
	<g id="G_x28__T1_L1__x29__00000178905707936817953780000001703535513026706852_">
		<g>
			<defs>
				<rect id="SVGID_00000125587694099495446380000012625568269450828223_" x="47" y="52" width="43.96" height="38.48"/>
			</defs>
			<clipPath id="SVGID_00000049214223953230476090000016362059762475099565_">
				<use xlink:href="#SVGID_00000125587694099495446380000012625568269450828223_"  style="overflow:visible;"/>
			</clipPath>
			<polygon style="clip-path:url(#SVGID_00000049214223953230476090000016362059762475099565_);fill:#E33A3A;" points="80.958,72 
				79.076,72.587 77.056,73.24 74.996,74.615 73.548,76.61 72.37,78.801 72.081,81.29 72.708,84.604 73.82,86.698 75.331,88.514 
				77.483,89.474 79.192,90.032 80.961,90.291 81.399,90.48 82.306,90.48 82.753,90.326 85.25,89.798 87.278,88.966 88.799,87.405 
				90.074,85.652 90.624,83.541 90.959,81.96 90.959,79.962 90.461,78.116 89.306,75.94 87.727,74.111 85.529,73.063 82.7,72 			"/>
			<g style="clip-path:url(#SVGID_00000049214223953230476090000016362059762475099565_);">
				<defs>
					
						<rect id="SVGID_00000012430030569412183740000004002324568327625134_" x="55.026" y="49.595" transform="matrix(0.2915 -0.9566 0.9566 0.2915 -16.4807 105.8695)" width="16.4" height="28.929"/>
				</defs>
				<clipPath id="SVGID_00000158030359232823729740000004711210283206660543_">
					<use xlink:href="#SVGID_00000012430030569412183740000004002324568327625134_"  style="overflow:visible;"/>
				</clipPath>
				<path style="clip-path:url(#SVGID_00000158030359232823729740000004711210283206660543_);fill:#5699DE;" d="M52.692,64.824
					c-0.634-2.796,1.001-10.148,1.001-10.148c2.205-0.374,2.199,0.096,5.075,0.5c0.118,0.017,1.801,0.575,1.913,0.583
					c0.635,0.042,5.246,1.614,7.87,4.244c0.385,0.385,0.854,0.685,1.34,1.067c0.774-0.895,1.507-1.741,2.253-2.604
					c1.251,1.609,3.312,10.899,3.217,14.538c-4.358,0.076-8.687-0.19-13.256-0.878c0.796-1.192,1.422-2.128,2.179-3.26
					c-1.894-1.329-3.479-2.399-5.561-3.25C56.904,64.874,54.897,64.45,52.692,64.824"/>
			</g>
		</g>
	</g>
</g>
</svg>
