<?xml version="1.0" encoding="iso-8859-1"?>
<!-- Generator: Adobe Illustrator 26.0.1, SVG Export Plug-In . SVG Version: 6.00 Build 0)  -->
<svg version="1.1" xmlns="http://www.w3.org/2000/svg" xmlns:xlink="http://www.w3.org/1999/xlink" x="0px" y="0px"
	 viewBox="0 0 100 100" style="enable-background:new 0 0 100 100;" xml:space="preserve">
<g id="Layer_1">
	<g id="G_x28__tree_x28__T2_T1_T1_T1_T1_T1_L1_x29___x29__00000178191107680480395440000017331645319500847256_">
		<g>
			<defs>
				<rect id="SVGID_1_" x="-2" y="10" width="103.806" height="82.14"/>
			</defs>
			<clipPath id="SVGID_00000128482105010661313710000006362199066227013031_">
				<use xlink:href="#SVGID_1_"  style="overflow:visible;"/>
			</clipPath>
			<g style="clip-path:url(#SVGID_00000128482105010661313710000006362199066227013031_);">
				<defs>
					
						<rect id="SVGID_00000044153761703453127700000013566337763316102317_" x="30.743" y="44.502" transform="matrix(0.9997 -0.0264 0.0264 0.9997 -1.491 1.34)" width="38.601" height="25.36"/>
				</defs>
				<clipPath id="SVGID_00000074413869908026633260000017275003323414262461_">
					<use xlink:href="#SVGID_00000044153761703453127700000013566337763316102317_"  style="overflow:visible;"/>
				</clipPath>
				<path style="clip-path:url(#SVGID_00000074413869908026633260000017275003323414262461_);fill:#9F9EB1;" d="M64.534,52.892
					c1.704-0.099,2.537-3.053,4.668-1.569c-0.19,5.937-0.369,11.806-0.563,18.053c-5.485-0.72-10.604-2.625-15.8-4.082
					c-0.295-0.451-0.536-0.837-0.843-1.288c1.352-1.293,2.742-2.599,4.156-3.947c-1.254-3.751-4.393-4.546-7.201-4.945
					c-4.572-0.649-6.138,3.23-7.426,6.452c-0.094,1.3-0.147,2.193-0.231,3.384c-3.652-0.781-6.968-1.491-10.337-2.226
					c-0.034-0.337-0.145-0.631-0.06-0.836c0.932-2.606,1.524-5.459,2.939-7.726c3.559-5.674,8.546-9.225,15.233-9.631
					c4.28-0.248,8.217,0.648,11.456,3.765C61.947,49.663,63.144,51.28,64.534,52.892"/>
			</g>
			<g style="clip-path:url(#SVGID_00000128482105010661313710000006362199066227013031_);">
				<defs>
					
						<rect id="SVGID_00000096042534899178231570000008601827359945586866_" x="-0.675" y="46.672" transform="matrix(0.9807 -0.1957 0.1957 0.9807 -10.4704 3.7589)" width="28.929" height="16.4"/>
				</defs>
				<clipPath id="SVGID_00000142897036819793782730000016390852486742800272_">
					<use xlink:href="#SVGID_00000096042534899178231570000008601827359945586866_"  style="overflow:visible;"/>
				</clipPath>
				<path style="clip-path:url(#SVGID_00000142897036819793782730000016390852486742800272_);fill:#E33A3A;" d="M4.87,60.529
					c-1.881-2.164-3.918-9.415-3.918-9.415c1.765-1.372,1.982-0.955,4.707-1.959c0.112-0.042,1.86-0.346,1.962-0.392
					c0.579-0.263,5.385-1.059,8.942,0.017c0.521,0.157,1.076,0.199,1.684,0.306c0.259-1.155,0.504-2.247,0.753-3.361
					c1.864,0.827,8.074,8.037,9.712,11.287c-3.804,2.13-7.743,3.943-12.095,5.497c0.138-1.426,0.247-2.547,0.378-3.903
					c-2.297-0.275-4.2-0.468-6.437-0.232C8.605,58.58,6.636,59.157,4.87,60.529"/>
			</g>
			<g style="clip-path:url(#SVGID_00000128482105010661313710000006362199066227013031_);">
				<defs>
					
						<rect id="SVGID_00000078750476314195157620000005723995737065581956_" x="16.415" y="23.457" transform="matrix(0.4587 -0.8886 0.8886 0.4587 -20.3726 42.3985)" width="16.4" height="28.929"/>
				</defs>
				<clipPath id="SVGID_00000106138279948390537270000016966074100800503698_">
					<use xlink:href="#SVGID_00000078750476314195157620000005723995737065581956_"  style="overflow:visible;"/>
				</clipPath>
				<path style="clip-path:url(#SVGID_00000106138279948390537270000016966074100800503698_);fill:#F26C2B;" d="M14.114,36.779
					c-0.12-2.864,2.81-9.803,2.81-9.803c2.236,0.029,2.145,0.49,4.902,1.405c0.113,0.037,1.668,0.889,1.777,0.917
					c0.617,0.156,4.87,2.531,6.979,5.591c0.309,0.447,0.717,0.826,1.126,1.29c0.923-0.742,1.795-1.442,2.684-2.157
					c0.942,1.808,1.298,11.317,0.551,14.879c-4.301-0.708-8.511-1.748-12.883-3.247c0.998-1.029,1.783-1.837,2.731-2.815
					c-1.624-1.648-2.991-2.986-4.887-4.196C18.249,37.586,16.35,36.808,14.114,36.779"/>
			</g>
			<g style="clip-path:url(#SVGID_00000128482105010661313710000006362199066227013031_);">
				<defs>
					
						<rect id="SVGID_00000006698881347875029720000016317029111177521297_" x="32.636" y="12.121" transform="matrix(0.8329 -0.5534 0.5534 0.8329 -7.8896 27.0422)" width="16.399" height="28.929"/>
				</defs>
				<clipPath id="SVGID_00000126281065385172139780000013143279337304092062_">
					<use xlink:href="#SVGID_00000006698881347875029720000016317029111177521297_"  style="overflow:visible;"/>
				</clipPath>
				<path style="clip-path:url(#SVGID_00000126281065385172139780000013143279337304092062_);fill:#E1D153;" d="M32.215,20.482
					c1.287-2.562,7.222-7.2,7.222-7.2c1.94,1.112,1.636,1.471,3.6,3.61c0.081,0.088,1.026,1.589,1.107,1.666
					c0.464,0.436,3.025,4.58,3.381,8.278c0.052,0.542,0.224,1.071,0.356,1.675c1.167-0.199,2.27-0.387,3.395-0.58
					c-0.057,2.038-4.368,10.521-6.753,13.271c-3.415-2.71-6.588-5.666-9.679-9.101c1.372-0.414,2.451-0.739,3.755-1.133
					c-0.618-2.229-1.162-4.063-2.23-6.042C35.436,23.197,34.155,21.594,32.215,20.482"/>
			</g>
			<g style="clip-path:url(#SVGID_00000128482105010661313710000006362199066227013031_);">
				<defs>
					
						<rect id="SVGID_00000141452635935090162330000013736229981209468802_" x="53.18" y="13.101" transform="matrix(0.9999 -0.0125 0.0125 0.9999 -0.3392 0.7681)" width="16.4" height="28.929"/>
				</defs>
				<clipPath id="SVGID_00000138574512257349482570000017207635204217341884_">
					<use xlink:href="#SVGID_00000141452635935090162330000013736229981209468802_"  style="overflow:visible;"/>
				</clipPath>
				<path style="clip-path:url(#SVGID_00000138574512257349482570000017207635204217341884_);fill:#55C95A;" d="M57.455,17.759
					c2.472-1.452,9.974-2.125,9.974-2.125c1.025,1.988,0.575,2.124,1.063,4.987c0.02,0.118-0.002,1.892,0.025,2
					c0.152,0.618,0.053,5.489-1.657,8.788c-0.25,0.483-0.393,1.021-0.61,1.599c1.088,0.467,2.117,0.908,3.165,1.357
					c-1.154,1.681-9.381,6.463-12.876,7.476c-1.396-4.13-2.456-8.335-3.186-12.898c1.377,0.398,2.459,0.71,3.768,1.088
					c0.692-2.208,1.231-4.043,1.409-6.285C58.685,21.788,58.48,19.746,57.455,17.759"/>
			</g>
			<g style="clip-path:url(#SVGID_00000128482105010661313710000006362199066227013031_);">
				<defs>
					
						<rect id="SVGID_00000138549311962365412010000000900662013250822591_" x="63.845" y="29.427" transform="matrix(0.4976 -0.8674 0.8674 0.4976 6.705 86.8302)" width="28.929" height="16.401"/>
				</defs>
				<clipPath id="SVGID_00000164496368970313541720000009355708728547988144_">
					<use xlink:href="#SVGID_00000138549311962365412010000000900662013250822591_"  style="overflow:visible;"/>
				</clipPath>
				<path style="clip-path:url(#SVGID_00000164496368970313541720000009355708728547988144_);fill:#5699DE;" d="M79.915,27.187
					c2.867,0.006,9.669,3.241,9.669,3.241c-0.127,2.232-0.585,2.121-1.62,4.834c-0.042,0.112-0.963,1.628-0.995,1.735
					c-0.183,0.61-2.744,4.754-5.894,6.726c-0.46,0.288-0.857,0.679-1.338,1.067c0.7,0.955,1.361,1.858,2.036,2.777
					c-1.848,0.861-11.364,0.797-14.889-0.107c0.897-4.266,2.122-8.426,3.813-12.727c0.984,1.043,1.757,1.862,2.692,2.852
					c1.718-1.549,3.115-2.855,4.408-4.696C78.926,31.282,79.787,29.419,79.915,27.187"/>
			</g>
			<g style="clip-path:url(#SVGID_00000128482105010661313710000006362199066227013031_);">
				<defs>
					
						<rect id="SVGID_00000061438970970098238980000005270885346612258468_" x="70.856" y="46.436" transform="matrix(0.7981 -0.6026 0.6026 0.7981 -15.6926 62.445)" width="28.929" height="16.4"/>
				</defs>
				<clipPath id="SVGID_00000053537911481396704120000007989575477085795766_">
					<use xlink:href="#SVGID_00000061438970970098238980000005270885346612258468_"  style="overflow:visible;"/>
				</clipPath>
				<path style="clip-path:url(#SVGID_00000053537911481396704120000007989575477085795766_);fill:#AD70D6;" d="M90.895,45.663
					c2.634,1.131,7.622,6.776,7.622,6.776c-0.994,2.003-1.371,1.721-3.388,3.811c-0.083,0.086-1.524,1.119-1.596,1.205
					c-0.408,0.489-4.39,3.295-8.06,3.872c-0.538,0.085-1.056,0.288-1.65,0.457c0.268,1.152,0.522,2.242,0.782,3.353
					c-2.037,0.066-10.764-3.727-13.652-5.942c2.5-3.572,5.259-6.917,8.502-10.209c0.496,1.345,0.885,2.402,1.357,3.68
					c2.188-0.751,3.985-1.404,5.897-2.59C88.379,49.041,89.901,47.666,90.895,45.663"/>
			</g>
			<polygon style="clip-path:url(#SVGID_00000128482105010661313710000006362199066227013031_);fill:#523742;" points="74.961,71 
				73.076,71.587 71.056,72.24 68.996,73.615 67.549,75.61 66.37,77.801 66.081,80.29 66.708,83.604 67.822,85.698 69.331,87.514 
				71.483,88.474 73.192,89.032 74.962,89.291 75.399,89.48 76.306,89.48 76.754,89.326 79.25,88.798 81.277,87.966 82.799,86.405 
				84.076,84.652 84.624,82.541 84.959,80.959 84.959,78.962 84.462,77.116 83.306,74.94 81.728,73.111 79.529,72.063 76.7,71 			
				"/>
		</g>
	</g>
</g>
<g id="Layer_2">
	<g id="Layer_3">
	</g>
</g>
</svg>
