<?xml version="1.0" encoding="iso-8859-1"?>
<!-- Generator: Adobe Illustrator 26.0.1, SVG Export Plug-In . SVG Version: 6.00 Build 0)  -->
<svg version="1.1" xmlns="http://www.w3.org/2000/svg" xmlns:xlink="http://www.w3.org/1999/xlink" x="0px" y="0px"
	 viewBox="0 0 100 100" style="enable-background:new 0 0 100 100;" xml:space="preserve">
<g id="Layer_1">
	<g id="L6_L1_L1_00000062872808628308368010000006865326357996635289_">
		<g>
			<defs>
				<rect id="SVGID_1_" x="7" y="7" width="86" height="89"/>
			</defs>
			<clipPath id="SVGID_00000029753592289366861910000007848324891186056078_">
				<use xlink:href="#SVGID_1_"  style="overflow:visible;"/>
			</clipPath>
			<g style="clip-path:url(#SVGID_00000029753592289366861910000007848324891186056078_);">
				<defs>
					<rect id="SVGID_00000127032989559624286590000017179863086012325004_" x="67.317" y="22.814" width="25.683" height="29.056"/>
				</defs>
				<clipPath id="SVGID_00000048476172306992962390000013913497651378653577_">
					<use xlink:href="#SVGID_00000127032989559624286590000017179863086012325004_"  style="overflow:visible;"/>
				</clipPath>
				<path style="clip-path:url(#SVGID_00000048476172306992962390000013913497651378653577_);fill:#F26C2B;" d="M93,36.579v0.786
					c-0.181,1.003-0.418,2.006-0.543,3.01c-0.395,3.195-0.746,6.391-1.142,9.576c-0.067,0.556-0.248,1.09-0.44,1.92
					c-0.825-0.186-1.583-0.317-2.317-0.513c-0.712-0.196-1.436-0.436-2.125-0.698c-3.459-1.309-6.918-2.629-10.367-3.97
					c-0.304-0.12-0.519-0.437-0.994-0.851c1.142-0.949,2.204-1.822,3.368-2.803c-1.017-1.483-1.944-3.108-3.153-4.537
					c-1.38-1.636-2.94-3.141-4.521-4.603c-0.962-0.883-2.137-1.57-3.449-2.52c3.528-3.021,6.738-5.78,9.982-8.561
					c4.442,3.937,8.749,7.613,10.841,13.197c1.525-0.905,2.757-1.636,4.136-2.465C92.548,34.714,92.773,35.641,93,36.579"/>
			</g>
			<g style="clip-path:url(#SVGID_00000029753592289366861910000007848324891186056078_);">
				<defs>
					<rect id="SVGID_00000017477789118206740290000004558726517122769841_" x="68.985" y="55.481" width="24.016" height="29.132"/>
				</defs>
				<clipPath id="SVGID_00000085210355166545765840000004642589176542561923_">
					<use xlink:href="#SVGID_00000017477789118206740290000004558726517122769841_"  style="overflow:visible;"/>
				</clipPath>
				<path style="clip-path:url(#SVGID_00000085210355166545765840000004642589176542561923_);fill:#5699DE;" d="M93,61.524
					c-0.554,1.177-0.995,2.094-1.504,3.161c-1.186,4.363-4.126,7.975-7.178,11.507c1.436,1.06,2.488,1.834,3.854,2.837
					c-5.967,3.107-12.376,3.589-18.639,5.584c-0.215-1.047-0.429-1.756-0.497-2.486c-0.081-0.873-0.046-1.767-0.034-2.663
					c0-0.806,0.022-1.624,0.045-2.442c0.012-0.786,0.057-1.56,0.057-2.345v-6.86c1.865,0.185,3.063,1.167,4.318,1.952
					c3.865-4.003,5.753-8.954,7.46-14.288C85.076,57.575,88.941,59.504,93,61.524"/>
			</g>
			<g style="clip-path:url(#SVGID_00000029753592289366861910000007848324891186056078_);">
				<defs>
					<rect id="SVGID_00000013908322473945062870000006049251089052448643_" x="8.025" y="55.971" width="25.031" height="29.471"/>
				</defs>
				<clipPath id="SVGID_00000172429228684833802230000016119728346040882844_">
					<use xlink:href="#SVGID_00000013908322473945062870000006049251089052448643_"  style="overflow:visible;"/>
				</clipPath>
				<path style="clip-path:url(#SVGID_00000172429228684833802230000016119728346040882844_);fill:#E1D153;" d="M31.326,75.146
					c0.622,0.534,1.085,1.222,1.729,1.952c-3.447,2.837-6.726,5.541-10.139,8.344c-0.803-0.938-1.447-1.69-2.272-2.65
					c-1.933-0.666-2.928-2.705-4.318-4.297c-1.289-1.472-2.555-2.999-2.951-5.029c-0.112-0.533-0.836-0.97-1.243-1.418
					c-1.311,0.808-2.532,1.56-4.092,2.509c-0.147-6.565,0.825-12.608,2.091-18.585c0.904,0.143,1.504,0.131,2.012,0.328
					c0.565,0.23,1.029,0.654,1.583,0.883c4.103,1.221,8.082,2.792,12.072,4.766c-0.599,1.635-2.475,1.865-3.674,3.053
					c1.786,2.368,3.403,4.747,5.28,6.905C28.5,73.162,30.049,74.034,31.326,75.146"/>
			</g>
			<g style="clip-path:url(#SVGID_00000029753592289366861910000007848324891186056078_);">
				<defs>
					<rect id="SVGID_00000093161838070187078600000006836877237122097061_" x="35.339" y="7.044" width="32.521" height="21.213"/>
				</defs>
				<clipPath id="SVGID_00000081644234700758383460000005843772174087050671_">
					<use xlink:href="#SVGID_00000093161838070187078600000006836877237122097061_"  style="overflow:visible;"/>
				</clipPath>
				<path style="clip-path:url(#SVGID_00000081644234700758383460000005843772174087050671_);fill:#AD70D6;" d="M53.176,7.044
					c5.742,3.25,9.678,8.006,14.684,12.118c-4.781,3.326-9.372,6.337-14.65,9.096v-4.515c-5.822-1.004-11.145,0.01-16.696,1.57
					c-0.407-4.472-0.78-8.583-1.175-12.903c3.108-0.436,5.934-1.036,8.772-1.178c2.859-0.152,5.731,0.153,8.66,0.262
					C52.906,10.054,53.018,8.713,53.176,7.044"/>
			</g>
			<g style="clip-path:url(#SVGID_00000029753592289366861910000007848324891186056078_);">
				<defs>
					<rect id="SVGID_00000076565149574342331830000010651977300353030571_" x="7.203" y="21.648" width="23.083" height="28.849"/>
				</defs>
				<clipPath id="SVGID_00000013876616444914004220000003258149996846778029_">
					<use xlink:href="#SVGID_00000076565149574342331830000010651977300353030571_"  style="overflow:visible;"/>
				</clipPath>
				<path style="clip-path:url(#SVGID_00000013876616444914004220000003258149996846778029_);fill:#E33A3A;" d="M30.286,36.994
					c0.011,0.36-0.169,0.709-0.316,1.254c-1.402-0.785-2.623-1.472-3.957-2.225c-1.017,1.494-2.125,2.902-3.007,4.439
					c-1.424,2.487-2.735,5.029-3.119,7.929c-0.091,0.688-0.667,1.31-1.097,2.105c-3.934-1.854-7.777-3.664-11.587-5.453
					c1.787-5.595,3.991-10.623,8.264-14.713c-1.436-1.047-2.589-1.887-4.036-2.945c5.878-2.923,12.084-3.872,18.098-5.737
					c0.237,0.807,0.486,1.298,0.497,1.8C30.139,27.963,30.229,32.478,30.286,36.994"/>
			</g>
			<g style="clip-path:url(#SVGID_00000029753592289366861910000007848324891186056078_);">
				<defs>
					<rect id="SVGID_00000091017281704994259840000000516729105062353054_" x="32.286" y="73.826" width="32.318" height="20.68"/>
				</defs>
				<clipPath id="SVGID_00000041290999971709033650000016687617712049467044_">
					<use xlink:href="#SVGID_00000091017281704994259840000000516729105062353054_"  style="overflow:visible;"/>
				</clipPath>
				<path style="clip-path:url(#SVGID_00000041290999971709033650000016687617712049467044_);fill:#55C95A;" d="M63.293,76.597
					c0.452,4.352,0.872,8.354,1.312,12.565c-1.243,0.175-2.182,0.294-3.143,0.425c-4.566,1.572-9.268,1.352-14.119,0.577
					c-0.147,1.561-0.259,2.912-0.384,4.342c-1.899-0.339-3.143-1.351-4.374-2.442c-3.188-2.815-6.41-5.584-9.62-8.367
					c-0.158-0.142-0.294-0.328-0.678-0.742c4.567-3.217,9.043-6.402,14.321-9.129v4.604c1.301,0.075,2.442,0.261,3.55,0.174
					c2.442-0.196,4.872-0.469,7.291-0.829C59.314,77.492,61.156,77.033,63.293,76.597"/>
			</g>
			<polygon style="clip-path:url(#SVGID_00000029753592289366861910000007848324891186056078_);fill:#523742;" points="36.961,43 
				35.077,43.587 33.056,44.241 30.996,45.615 29.549,47.61 28.371,49.802 28.082,52.282 28.082,52.295 28.709,55.604 
				29.822,57.698 31.332,59.515 33.484,60.474 35.193,61.033 36.961,61.291 37.401,61.481 38.306,61.481 38.754,61.327 
				41.251,60.798 43.278,59.966 44.799,58.406 46.076,56.652 46.625,54.541 46.96,52.955 46.96,50.963 46.462,49.116 45.306,46.941 
				43.728,45.112 41.53,44.063 38.7,43 			"/>
			<polygon style="clip-path:url(#SVGID_00000029753592289366861910000007848324891186056078_);fill:#9F9EB1;" points="61.961,43 
				60.077,43.587 58.057,44.241 55.996,45.615 54.548,47.61 53.37,49.802 53.082,52.282 53.082,52.295 53.708,55.604 54.822,57.698 
				56.331,59.515 58.484,60.474 60.193,61.033 61.961,61.291 62.401,61.481 63.305,61.481 63.753,61.327 66.25,60.798 
				68.278,59.966 69.799,58.406 71.076,56.652 71.624,54.541 71.96,52.955 71.96,50.964 71.461,49.116 70.307,46.941 68.728,45.112 
				66.53,44.063 63.7,43 			"/>
		</g>
	</g>
</g>
<g id="Layer_2">
	<g id="Layer_3">
	</g>
</g>
</svg>
