<?xml version="1.0" encoding="iso-8859-1"?>
<!-- Generator: Adobe Illustrator 26.0.1, SVG Export Plug-In . SVG Version: 6.00 Build 0)  -->
<svg version="1.1" xmlns="http://www.w3.org/2000/svg" xmlns:xlink="http://www.w3.org/1999/xlink" x="0px" y="0px"
	 viewBox="0 0 100 100" style="enable-background:new 0 0 100 100;" xml:space="preserve">
<g id="Layer_1">
	<g id="G_x28__tree_x28__T3_T2_T2__x29__L1__x29__00000084490983286718500440000002922674282555380920_">
		<g>
			<defs>
				<rect id="SVGID_1_" x="7" y="4" width="97.423" height="93.307"/>
			</defs>
			<clipPath id="SVGID_00000047020846533775354690000001985090725049196473_">
				<use xlink:href="#SVGID_1_"  style="overflow:visible;"/>
			</clipPath>
			<polygon style="clip-path:url(#SVGID_00000047020846533775354690000001985090725049196473_);fill:#9F9EB1;" points="
				75.235,73.832 73.123,74.049 70.82,74.963 68.988,76.609 67.377,78.508 66.575,80.877 66.574,80.882 66.494,84.252 
				67.145,86.532 68.242,88.625 70.145,90.013 71.7,90.918 73.376,91.54 73.765,91.815 74.649,92.005 75.121,91.947 77.672,91.953 
				79.829,91.564 81.643,90.356 83.257,88.909 84.237,86.959 84.896,85.479 85.313,83.531 85.212,81.621 84.536,79.251 
				83.376,77.133 81.446,75.646 78.9,74.016 77.201,73.652 			"/>
			<g style="clip-path:url(#SVGID_00000047020846533775354690000001985090725049196473_);">
				<defs>
					<rect id="SVGID_00000144324805397416251450000017326103736329838983_" x="7" y="4" width="97.423" height="93.307"/>
				</defs>
				<clipPath id="SVGID_00000163067735653114240220000011823346546807822737_">
					<use xlink:href="#SVGID_00000144324805397416251450000017326103736329838983_"  style="overflow:visible;"/>
				</clipPath>
				<path style="clip-path:url(#SVGID_00000163067735653114240220000011823346546807822737_);fill:#E1D153;" d="M80.92,7.49
					c1.771,1.363,1.422,1.678,3.08,4.062c0.066,0.098,0.802,1.712,0.871,1.801c0.402,0.494,2.381,4.946,2.233,8.658
					c-0.021,0.544,0.079,1.092,0.128,1.708c1.183-0.041,2.3-0.078,3.441-0.117c-0.33,2.012-5.747,9.836-8.482,12.238
					c-3.017-3.145-5.762-6.502-8.362-10.324c1.415-0.224,2.529-0.401,3.873-0.615c-0.31-2.293-0.601-4.183-1.393-6.288
					c-0.692-1.839-1.744-3.6-3.516-4.964L80.92,7.49z"/>
			</g>
			<g style="clip-path:url(#SVGID_00000047020846533775354690000001985090725049196473_);">
				<defs>
					
						<rect id="SVGID_00000183956102665961862510000006850013372311573433_" x="61.722" y="38.547" transform="matrix(0.4671 -0.8842 0.8842 0.4671 -0.7325 92.2776)" width="28.928" height="16.4"/>
				</defs>
				<clipPath id="SVGID_00000165951773217227724030000002253770309173800865_">
					<use xlink:href="#SVGID_00000183956102665961862510000006850013372311573433_"  style="overflow:visible;"/>
				</clipPath>
				<path style="clip-path:url(#SVGID_00000165951773217227724030000002253770309173800865_);fill:#55C95A;" d="M77.426,36.257
					c2.866-0.094,9.776,2.902,9.776,2.902c-0.048,2.235-0.509,2.14-1.45,4.888c-0.038,0.112-0.905,1.66-0.932,1.769
					c-0.164,0.615-2.58,4.846-5.658,6.924c-0.449,0.307-0.834,0.711-1.299,1.116c0.732,0.929,1.423,1.808,2.13,2.705
					c-1.816,0.924-11.328,1.192-14.881,0.41c0.747-4.293,1.826-8.494,3.367-12.852c1.018,1.009,1.819,1.801,2.789,2.758
					c1.662-1.609,3.012-2.962,4.241-4.848C76.582,40.383,77.376,38.492,77.426,36.257"/>
			</g>
			<g style="clip-path:url(#SVGID_00000047020846533775354690000001985090725049196473_);">
				<defs>
					<polygon id="SVGID_00000106142292115343237070000014497187261014309533_" points="19.647,28.472 48.373,31.89 50.312,15.607 
						21.634,12.193 21.585,12.189 					"/>
				</defs>
				<clipPath id="SVGID_00000004546306591077960190000005718287954069389716_">
					<use xlink:href="#SVGID_00000106142292115343237070000014497187261014309533_"  style="overflow:visible;"/>
				</clipPath>
				<path style="clip-path:url(#SVGID_00000004546306591077960190000005718287954069389716_);fill:#5699DE;" d="M24.745,24.65
					c-1.118-2.64-0.804-10.165-0.804-10.165c2.104-0.757,2.18-0.293,5.082-0.403c0.119-0.004,1.875,0.248,1.987,0.237
					c0.632-0.071,5.448,0.663,8.495,2.79c0.446,0.311,0.962,0.522,1.506,0.813c0.605-1.019,1.177-1.98,1.758-2.961
					c1.517,1.364,5.184,10.145,5.732,13.742c-4.276,0.845-8.584,1.346-13.204,1.474c0.575-1.312,1.026-2.345,1.571-3.593
					c-2.099-0.975-3.847-1.749-6.047-2.218C28.9,23.957,26.849,23.894,24.745,24.65"/>
			</g>
			<g style="clip-path:url(#SVGID_00000047020846533775354690000001985090725049196473_);">
				<defs>
					
						<rect id="SVGID_00000028299760204444426770000000638456719761950126_" x="46.246" y="25.179" transform="matrix(0.8702 -0.4928 0.4928 0.8702 -12.4656 31.9757)" width="16.4" height="28.929"/>
				</defs>
				<clipPath id="SVGID_00000060012949598607990340000001533137392508942755_">
					<use xlink:href="#SVGID_00000028299760204444426770000000638456719761950126_"  style="overflow:visible;"/>
				</clipPath>
				<path style="clip-path:url(#SVGID_00000060012949598607990340000001533137392508942755_);fill:#F26C2B;" d="M46.282,32.941
					c1.467-2.464,7.715-6.668,7.715-6.668c1.857,1.247,1.528,1.584,3.334,3.858c0.076,0.093,0.91,1.657,0.988,1.739
					c0.429,0.468,2.69,4.785,2.781,8.499c0.015,0.543,0.147,1.084,0.237,1.695c1.178-0.115,2.292-0.224,3.428-0.336
					c-0.202,2.029-5.108,10.184-7.683,12.755c-3.212-2.945-6.167-6.12-9.005-9.767c1.399-0.315,2.497-0.561,3.827-0.861
					c-0.458-2.268-0.871-4.135-1.795-6.187C49.302,35.878,48.137,34.189,46.282,32.941"/>
			</g>
			<g style="clip-path:url(#SVGID_00000047020846533775354690000001985090725049196473_);">
				<defs>
					<polygon id="SVGID_00000150060702715341223590000007047483943143384969_" points="15.176,62.191 15.135,62.214 23.214,76.487 
						48.389,62.237 40.311,47.965 					"/>
				</defs>
				<clipPath id="SVGID_00000098899055380332087670000009509985215461293462_">
					<use xlink:href="#SVGID_00000150060702715341223590000007047483943143384969_"  style="overflow:visible;"/>
				</clipPath>
				<path style="clip-path:url(#SVGID_00000098899055380332087670000009509985215461293462_);fill:#E33A3A;" d="M25.059,70.389
					c-2.463-1.466-6.665-7.717-6.665-7.717c1.247-1.855,1.584-1.526,3.857-3.333c0.094-0.074,1.658-0.91,1.741-0.985
					c0.468-0.432,4.784-2.693,8.499-2.78c0.544-0.014,1.084-0.149,1.695-0.237c-0.115-1.178-0.223-2.293-0.336-3.427
					c2.029,0.202,10.183,5.107,12.754,7.682c-2.945,3.212-6.121,6.167-9.768,9.005c-0.314-1.398-0.562-2.497-0.861-3.826
					c-2.269,0.457-4.136,0.867-6.187,1.793C27.998,67.369,26.308,68.534,25.059,70.389"/>
			</g>
			<g style="clip-path:url(#SVGID_00000047020846533775354690000001985090725049196473_);">
				<defs>
					
						<rect id="SVGID_00000024697920180899756930000016726911280549393573_" x="49.672" y="50.424" transform="matrix(0.4096 -0.9123 0.9123 0.4096 -25.0285 91.1034)" width="16.4" height="28.929"/>
				</defs>
				<clipPath id="SVGID_00000115501583119615232400000014913669799875845795_">
					<use xlink:href="#SVGID_00000024697920180899756930000016726911280549393573_"  style="overflow:visible;"/>
				</clipPath>
				<path style="clip-path:url(#SVGID_00000115501583119615232400000014913669799875845795_);fill:#523742;" d="M47.325,64.321
					c-0.276-2.854,2.272-9.942,2.272-9.942c2.233-0.093,2.168,0.373,4.971,1.135c0.115,0.032,1.715,0.798,1.824,0.819
					c0.625,0.122,5.002,2.263,7.272,5.203c0.334,0.429,0.763,0.786,1.196,1.224c0.882-0.789,1.715-1.536,2.563-2.298
					c1.039,1.755,1.913,11.23,1.36,14.827c-4.333-0.472-8.593-1.281-13.041-2.54c0.942-1.082,1.682-1.931,2.575-2.96
					c-1.712-1.557-3.149-2.818-5.11-3.924C51.497,64.9,49.559,64.228,47.325,64.321"/>
			</g>
			<g style="clip-path:url(#SVGID_00000047020846533775354690000001985090725049196473_);">
				<defs>
					<rect id="SVGID_00000104688967105781548640000001868483265043883427_" x="7" y="4" width="97.423" height="93.307"/>
				</defs>
				<clipPath id="SVGID_00000167385887177677391260000000402715163528018107_">
					<use xlink:href="#SVGID_00000104688967105781548640000001868483265043883427_"  style="overflow:visible;"/>
				</clipPath>
				<path style="clip-path:url(#SVGID_00000167385887177677391260000000402715163528018107_);fill:#AD70D6;" d="M17.932,91.518
					c-2.581,1.248-10.112,1.31-10.112,1.31c-0.861-2.064-0.402-2.163-0.656-5.055c-0.01-0.119,0.154-1.886,0.138-1.997
					c-0.103-0.627,0.39-5.474,2.362-8.623c0.289-0.461,0.474-0.988,0.737-1.545c-1.048-0.554-2.036-1.077-3.045-1.609
					c1.287-1.583,9.874-5.683,13.439-6.41c1.057,4.229,1.773,8.507,2.131,13.115c-1.339-0.509-2.393-0.909-3.667-1.39
					c-0.869,2.144-1.555,3.93-1.913,6.15C17.033,87.403,17.072,89.455,17.932,91.518"/>
			</g>
		</g>
	</g>
</g>
<g id="Layer_2">
	<g id="Layer_3">
	</g>
</g>
</svg>
