<?xml version="1.0" encoding="iso-8859-1"?>
<!-- Generator: Adobe Illustrator 26.0.1, SVG Export Plug-In . SVG Version: 6.00 Build 0)  -->
<svg version="1.1" xmlns="http://www.w3.org/2000/svg" xmlns:xlink="http://www.w3.org/1999/xlink" x="0px" y="0px"
	 viewBox="0 0 100 100" style="enable-background:new 0 0 100 100;" xml:space="preserve">
<g id="Layer_1">
</g>
<g id="Layer_2">
	<g id="G_x28__T1_L1__x29__4_00000121997195153552356530000006405013191857593781_">
		<g>
			<defs>
				<rect id="SVGID_1_" x="3" y="9" width="88.96" height="83.48"/>
			</defs>
			<clipPath id="SVGID_00000032613636688081052290000005972747813219042690_">
				<use xlink:href="#SVGID_1_"  style="overflow:visible;"/>
			</clipPath>
			<polygon style="clip-path:url(#SVGID_00000032613636688081052290000005972747813219042690_);fill:#55C95A;" points="36.959,29 
				35.076,29.587 33.057,30.24 30.997,31.615 29.548,33.61 28.37,35.801 28.081,38.29 28.709,41.604 29.82,43.698 31.331,45.514 
				33.483,46.474 35.192,47.032 36.962,47.291 37.4,47.48 38.306,47.48 38.754,47.326 41.25,46.798 43.279,45.966 44.8,44.405 
				46.074,42.652 46.625,40.541 46.96,38.96 46.96,36.962 46.461,35.116 45.307,32.94 43.728,31.111 41.529,30.063 38.701,29 			"/>
			<g style="clip-path:url(#SVGID_00000032613636688081052290000005972747813219042690_);">
				<defs>
					
						<rect id="SVGID_00000042001489707036451900000004384071857299426206_" x="11.026" y="6.595" transform="matrix(0.2915 -0.9566 0.9566 0.2915 -6.5229 33.3135)" width="16.4" height="28.929"/>
				</defs>
				<clipPath id="SVGID_00000062893908079641881310000007475903658804449937_">
					<use xlink:href="#SVGID_00000042001489707036451900000004384071857299426206_"  style="overflow:visible;"/>
				</clipPath>
				<path style="clip-path:url(#SVGID_00000062893908079641881310000007475903658804449937_);fill:#E1D153;" d="M8.692,21.824
					c-0.634-2.796,1.001-10.148,1.001-10.148c2.205-0.374,2.199,0.096,5.075,0.5c0.118,0.017,1.801,0.575,1.913,0.583
					c0.635,0.042,5.246,1.614,7.87,4.244c0.385,0.385,0.854,0.685,1.34,1.067c0.774-0.895,1.507-1.741,2.253-2.604
					c1.251,1.609,3.312,10.899,3.217,14.538c-4.358,0.076-8.687-0.19-13.256-0.878c0.796-1.192,1.422-2.128,2.179-3.26
					c-1.894-1.329-3.479-2.399-5.561-3.25C12.904,21.874,10.897,21.45,8.692,21.824"/>
			</g>
			<polygon style="clip-path:url(#SVGID_00000032613636688081052290000005972747813219042690_);fill:#E33A3A;" points="80.958,29 
				79.076,29.587 77.056,30.24 74.996,31.615 73.548,33.61 72.37,35.801 72.081,38.29 72.709,41.604 73.82,43.698 75.331,45.514 
				77.483,46.474 79.192,47.032 80.962,47.291 81.399,47.48 82.306,47.48 82.754,47.326 85.25,46.798 87.279,45.966 88.8,44.405 
				90.074,42.652 90.624,40.541 90.96,38.96 90.96,36.962 90.461,35.116 89.306,32.94 87.728,31.111 85.529,30.063 82.7,29 			"/>
			<g style="clip-path:url(#SVGID_00000032613636688081052290000005972747813219042690_);">
				<defs>
					
						<rect id="SVGID_00000142896635905338444140000011286156728936237488_" x="55.026" y="6.595" transform="matrix(0.2915 -0.9566 0.9566 0.2915 24.6527 75.4032)" width="16.4" height="28.929"/>
				</defs>
				<clipPath id="SVGID_00000173845717642459255070000017325597552302825387_">
					<use xlink:href="#SVGID_00000142896635905338444140000011286156728936237488_"  style="overflow:visible;"/>
				</clipPath>
				<path style="clip-path:url(#SVGID_00000173845717642459255070000017325597552302825387_);fill:#AD70D6;" d="M52.692,21.824
					c-0.634-2.796,1.001-10.148,1.001-10.148c2.205-0.374,2.199,0.096,5.075,0.5c0.118,0.017,1.801,0.575,1.913,0.583
					c0.635,0.042,5.246,1.614,7.87,4.244c0.385,0.385,0.854,0.685,1.34,1.067c0.774-0.895,1.507-1.741,2.253-2.604
					c1.251,1.609,3.312,10.899,3.217,14.538c-4.358,0.076-8.687-0.19-13.256-0.878c0.796-1.192,1.422-2.128,2.179-3.26
					c-1.894-1.329-3.479-2.399-5.561-3.25C56.904,21.874,54.897,21.45,52.692,21.824"/>
			</g>
			<polygon style="clip-path:url(#SVGID_00000032613636688081052290000005972747813219042690_);fill:#F26C2B;" points="37.959,74 
				36.077,74.587 34.057,75.24 31.997,76.615 30.548,78.61 29.37,80.801 29.081,83.29 29.709,86.604 30.821,88.698 32.331,90.514 
				34.484,91.474 36.192,92.032 37.962,92.291 38.4,92.48 39.306,92.48 39.754,92.326 42.251,91.798 44.279,90.966 45.8,89.405 
				47.075,87.652 47.625,85.541 47.96,83.96 47.96,81.962 47.462,80.116 46.307,77.94 44.728,76.111 42.53,75.063 39.701,74 			"/>
			<g style="clip-path:url(#SVGID_00000032613636688081052290000005972747813219042690_);">
				<defs>
					
						<rect id="SVGID_00000001657855711142443630000014691587582271321235_" x="12.026" y="51.595" transform="matrix(0.2915 -0.9566 0.9566 0.2915 -48.8606 66.1543)" width="16.4" height="28.929"/>
				</defs>
				<clipPath id="SVGID_00000029741032256649733790000001590428456189058955_">
					<use xlink:href="#SVGID_00000001657855711142443630000014691587582271321235_"  style="overflow:visible;"/>
				</clipPath>
				<path style="clip-path:url(#SVGID_00000029741032256649733790000001590428456189058955_);fill:#5699DE;" d="M9.692,66.824
					c-0.634-2.796,1.001-10.148,1.001-10.148c2.205-0.374,2.199,0.096,5.075,0.5c0.118,0.017,1.801,0.575,1.913,0.583
					c0.635,0.042,5.246,1.614,7.87,4.244c0.385,0.385,0.854,0.685,1.34,1.067c0.774-0.895,1.507-1.741,2.253-2.604
					c1.251,1.609,3.312,10.899,3.217,14.538c-4.358,0.076-8.687-0.19-13.256-0.878c0.796-1.192,1.422-2.128,2.179-3.26
					c-1.894-1.329-3.479-2.399-5.561-3.25C13.904,66.874,11.897,66.45,9.692,66.824"/>
			</g>
			<polygon style="clip-path:url(#SVGID_00000032613636688081052290000005972747813219042690_);fill:#523742;" points="81.959,74 
				80.076,74.587 78.057,75.24 75.997,76.615 74.548,78.61 73.37,80.801 73.081,83.29 73.709,86.604 74.82,88.698 76.331,90.514 
				78.483,91.474 80.192,92.032 81.962,92.291 82.4,92.48 83.306,92.48 83.754,92.326 86.25,91.798 88.279,90.966 89.8,89.405 
				91.074,87.652 91.625,85.541 91.96,83.96 91.96,81.962 91.461,80.116 90.307,77.94 88.728,76.111 86.529,75.063 83.701,74 			"/>
			<g style="clip-path:url(#SVGID_00000032613636688081052290000005972747813219042690_);">
				<defs>
					
						<rect id="SVGID_00000090991873157015922290000009030341210030802597_" x="56.026" y="51.595" transform="matrix(0.2915 -0.9566 0.9566 0.2915 -17.6849 108.2439)" width="16.4" height="28.929"/>
				</defs>
				<clipPath id="SVGID_00000147213736257588403040000001389912537994196670_">
					<use xlink:href="#SVGID_00000090991873157015922290000009030341210030802597_"  style="overflow:visible;"/>
				</clipPath>
				<path style="clip-path:url(#SVGID_00000147213736257588403040000001389912537994196670_);fill:#9F9EB1;" d="M53.692,66.824
					c-0.634-2.796,1.001-10.148,1.001-10.148c2.205-0.374,2.199,0.096,5.075,0.5c0.118,0.017,1.801,0.575,1.913,0.583
					c0.635,0.042,5.246,1.614,7.87,4.244c0.385,0.385,0.854,0.685,1.34,1.067c0.774-0.895,1.507-1.741,2.253-2.604
					c1.251,1.609,3.312,10.899,3.217,14.538c-4.358,0.076-8.687-0.19-13.256-0.878c0.796-1.192,1.422-2.128,2.179-3.26
					c-1.894-1.329-3.479-2.399-5.561-3.25C57.904,66.874,55.897,66.45,53.692,66.824"/>
			</g>
		</g>
	</g>
</g>
</svg>
