<?xml version="1.0" encoding="iso-8859-1"?>
<!-- Generator: Adobe Illustrator 26.0.1, SVG Export Plug-In . SVG Version: 6.00 Build 0)  -->
<svg version="1.1" xmlns="http://www.w3.org/2000/svg" xmlns:xlink="http://www.w3.org/1999/xlink" x="0px" y="0px"
	 viewBox="0 0 100 100" style="enable-background:new 0 0 100 100;" xml:space="preserve">
<g id="Layer_1">
	<g id="G_x28__T1_T1_T1_L2__x29__L1_L1_L1_00000112605071141476056280000006680680045372403075_">
		<g>
			<defs>
				<rect id="SVGID_1_" x="12" y="5" width="73.96" height="91.868"/>
			</defs>
			<clipPath id="SVGID_00000152981767553263241810000011719738093966302092_">
				<use xlink:href="#SVGID_1_"  style="overflow:visible;"/>
			</clipPath>
			<g style="clip-path:url(#SVGID_00000152981767553263241810000011719738093966302092_);">
				<defs>
					<rect id="SVGID_00000109726016503331421130000010183825325829430461_" x="38.265" y="62.001" width="30.095" height="18.776"/>
				</defs>
				<clipPath id="SVGID_00000139295803311970639880000000066455873307843491_">
					<use xlink:href="#SVGID_00000109726016503331421130000010183825325829430461_"  style="overflow:visible;"/>
				</clipPath>
				<path style="clip-path:url(#SVGID_00000139295803311970639880000000066455873307843491_);fill:#523742;" d="M64.692,68.496
					c1.33-0.04,2.04-2.21,3.67-1.07c-0.27,4.389-0.529,8.73-0.81,13.349c-4.259-0.639-8.21-2.149-12.23-3.33
					c-0.22-0.34-0.4-0.63-0.63-0.97c1.08-0.929,2.19-1.87,3.32-2.839c-0.9-2.8-3.33-3.451-5.509-3.8
					c-3.551-0.57-4.851,2.269-5.921,4.63c-0.099,0.96-0.16,1.62-0.25,2.5c-2.829-0.651-5.4-1.241-8.01-1.85
					c-0.02-0.25-0.1-0.471-0.03-0.62c0.78-1.91,1.3-4.011,2.45-5.66c2.89-4.13,6.85-6.66,12.07-6.83
					c3.34-0.1,6.391,0.639,8.851,3.01C62.743,66.056,63.642,67.275,64.692,68.496"/>
			</g>
			<g style="clip-path:url(#SVGID_00000152981767553263241810000011719738093966302092_);">
				<defs>
					<rect id="SVGID_00000161626504225807066270000015038197787866655906_" x="37.002" y="78.657" width="29.361" height="18.212"/>
				</defs>
				<clipPath id="SVGID_00000087379287716183641140000006231411653988119728_">
					<use xlink:href="#SVGID_00000161626504225807066270000015038197787866655906_"  style="overflow:visible;"/>
				</clipPath>
				<path style="clip-path:url(#SVGID_00000087379287716183641140000006231411653988119728_);fill:#9F9EB1;" d="M66.362,84.446
					c-0.1,0.3-0.17,0.6-0.29,0.87c-1.52,3.449-3.13,6.93-6.51,8.9c-1.899,1.11-4.16,1.589-6.26,2.36c-2.15,0.78-4.14-0.2-6.16-0.61
					c-1.67-0.331-2.86-1.56-4-2.76c-0.82-0.861-1.62-1.74-2.62-2.83c-1.02,0.299-2.139,0.63-3.52,1.04
					c0.24-4.151,0.49-8.3,0.76-12.76c4,1.189,7.88,2.35,12.16,3.63c-1.18,1.019-2.12,1.83-3.03,2.63v1.59
					c1.491,2.589,3.87,3.08,6.63,3.14c3.42,0.079,4.13-2.66,5.59-4.93v-1.92C61.562,83.356,63.923,83.885,66.362,84.446"/>
			</g>
			<g style="clip-path:url(#SVGID_00000152981767553263241810000011719738093966302092_);">
				<defs>
					
						<rect id="SVGID_00000139977702757232143500000002222208042591373488_" x="20.265" y="42.736" transform="matrix(0.1923 -0.9813 0.9813 0.1923 -33.1417 74.1342)" width="16.4" height="28.929"/>
				</defs>
				<clipPath id="SVGID_00000042718685715029733420000004474771837409547425_">
					<use xlink:href="#SVGID_00000139977702757232143500000002222208042591373488_"  style="overflow:visible;"/>
				</clipPath>
				<path style="clip-path:url(#SVGID_00000042718685715029733420000004474771837409547425_);fill:#E33A3A;" d="M18.062,59.035
					c-0.915-2.717-0.039-10.198-0.039-10.198c2.155-0.596,2.197-0.128,5.099-0.019c0.12,0.004,1.851,0.388,1.963,0.384
					c0.636-0.022,5.383,1.071,8.262,3.42c0.422,0.343,0.919,0.594,1.442,0.924c0.679-0.969,1.321-1.886,1.975-2.821
					c1.409,1.474,4.406,10.505,4.684,14.134c-4.328,0.522-8.661,0.698-13.278,0.48c0.672-1.267,1.199-2.262,1.836-3.466
					c-2.019-1.129-3.705-2.032-5.863-2.665C22.258,58.655,20.217,58.438,18.062,59.035"/>
			</g>
			<g style="clip-path:url(#SVGID_00000152981767553263241810000011719738093966302092_);">
				<defs>
					
						<rect id="SVGID_00000023977260139835439300000006141868642298377883_" x="40.663" y="30.548" transform="matrix(0.8661 -0.4998 0.4998 0.8661 -15.9567 30.4471)" width="16.4" height="28.929"/>
				</defs>
				<clipPath id="SVGID_00000178883488060104396240000011174499014230496655_">
					<use xlink:href="#SVGID_00000023977260139835439300000006141868642298377883_"  style="overflow:visible;"/>
				</clipPath>
				<path style="clip-path:url(#SVGID_00000178883488060104396240000011174499014230496655_);fill:#F26C2B;" d="M40.645,38.377
					c1.446-2.475,7.662-6.73,7.662-6.73c1.865,1.232,1.539,1.572,3.364,3.831c0.077,0.092,0.924,1.65,1,1.732
					c0.436,0.464,2.731,4.762,2.852,8.475c0.018,0.544,0.156,1.083,0.25,1.694c1.177-0.125,2.29-0.243,3.425-0.364
					c-0.186,2.03-5.024,10.224-7.577,12.818c-3.237-2.92-6.218-6.071-9.086-9.694c1.396-0.327,2.493-0.583,3.819-0.894
					c-0.476-2.264-0.903-4.128-1.844-6.171C43.688,41.29,42.51,39.609,40.645,38.377"/>
			</g>
			<g style="clip-path:url(#SVGID_00000152981767553263241810000011719738093966302092_);">
				<defs>
					
						<rect id="SVGID_00000104665391345141280060000016749324538605830291_" x="55.398" y="41.813" transform="matrix(0.1236 -0.9923 0.9923 0.1236 11.5982 113.1585)" width="28.93" height="16.4"/>
				</defs>
				<clipPath id="SVGID_00000037670087943380259120000003208114567229797548_">
					<use xlink:href="#SVGID_00000104665391345141280060000016749324538605830291_"  style="overflow:visible;"/>
				</clipPath>
				<path style="clip-path:url(#SVGID_00000037670087943380259120000003208114567229797548_);fill:#55C95A;" d="M67.308,39.764
					c2.646-1.103,10.17-0.75,10.17-0.75c0.746,2.109,0.281,2.183,0.375,5.086c0.004,0.12-0.259,1.873-0.247,1.985
					c0.067,0.633-0.694,5.445-2.836,8.48c-0.314,0.445-0.528,0.958-0.821,1.502c1.013,0.611,1.973,1.187,2.951,1.775
					c-1.372,1.507-10.173,5.127-13.774,5.656c-0.821-4.281-1.299-8.591-1.402-13.212c1.311,0.582,2.34,1.039,3.585,1.591
					c0.985-2.093,1.769-3.838,2.25-6.036C67.979,43.923,68.053,41.872,67.308,39.764"/>
			</g>
			<polygon style="clip-path:url(#SVGID_00000152981767553263241810000011719738093966302092_);fill:#E1D153;" points="20.958,12 
				19.076,12.587 17.056,13.24 14.996,14.615 13.548,16.61 12.37,18.801 12.082,21.282 12.082,21.295 12.708,24.604 13.821,26.698 
				15.332,28.514 17.483,29.473 19.193,30.032 20.961,30.291 21.399,30.48 22.306,30.48 22.753,30.326 25.25,29.797 27.278,28.966 
				28.799,27.405 30.075,25.652 30.624,23.541 30.96,21.955 30.96,19.965 30.461,18.115 29.306,15.94 27.727,14.111 25.529,13.063 
				22.7,12 			"/>
			<polygon style="clip-path:url(#SVGID_00000152981767553263241810000011719738093966302092_);fill:#5699DE;" points="47.961,5 
				46.076,5.587 44.056,6.24 41.996,7.615 40.548,9.61 39.37,11.801 39.082,14.282 39.082,14.295 39.708,17.604 40.822,19.698 
				42.332,21.515 44.484,22.474 46.193,23.032 47.961,23.291 48.399,23.48 49.306,23.48 49.753,23.326 52.25,22.798 54.278,21.966 
				55.799,20.405 57.076,18.653 57.624,16.541 57.96,14.955 57.96,12.964 57.461,11.116 56.307,8.941 54.728,7.111 52.53,6.063 
				49.701,5 			"/>
			<polygon style="clip-path:url(#SVGID_00000152981767553263241810000011719738093966302092_);fill:#AD70D6;" points="75.961,10 
				74.077,10.588 72.057,11.241 69.996,12.616 68.548,14.611 67.37,16.802 67.082,19.283 67.082,19.295 67.708,22.604 
				68.821,24.698 70.331,26.515 72.484,27.474 74.193,28.033 75.961,28.292 76.399,28.481 77.305,28.481 77.753,28.326 
				80.25,27.798 82.278,26.966 83.798,25.406 85.075,23.653 85.624,21.542 85.96,19.956 85.96,17.964 85.461,16.116 84.307,13.941 
				82.727,12.112 80.53,11.064 77.7,10 			"/>
		</g>
	</g>
</g>
<g id="Layer_2">
	<g id="Layer_3">
	</g>
</g>
</svg>
