<?xml version="1.0" encoding="iso-8859-1"?>
<!-- Generator: Adobe Illustrator 26.0.1, SVG Export Plug-In . SVG Version: 6.00 Build 0)  -->
<svg version="1.1" id="Layer_1" xmlns="http://www.w3.org/2000/svg" xmlns:xlink="http://www.w3.org/1999/xlink" x="0px" y="0px"
	 viewBox="0 0 100 100" style="enable-background:new 0 0 100 100;" xml:space="preserve">
<g id="G_x28__T1_L1__x29___L1_L1_L1_L1_L1_00000167370112701691313830000017444380906875925168_">
	<g>
		<defs>
			<rect id="SVGID_1_" x="8" y="10" width="83.96" height="82.743"/>
		</defs>
		<clipPath id="SVGID_00000100376739604664011050000002090881818786013842_">
			<use xlink:href="#SVGID_1_"  style="overflow:visible;"/>
		</clipPath>
		<polygon style="clip-path:url(#SVGID_00000100376739604664011050000002090881818786013842_);fill:#5699DE;" points="16.961,10 
			15.077,10.587 13.056,11.24 10.996,12.615 9.548,14.61 8.37,16.801 8.082,19.282 8.082,19.295 8.708,22.604 9.822,24.698 
			11.331,26.515 13.484,27.473 15.192,28.032 16.961,28.291 17.399,28.48 18.306,28.48 18.753,28.326 21.251,27.798 23.278,26.966 
			24.799,25.405 26.076,23.653 26.625,21.541 26.96,19.956 26.96,17.965 26.462,16.115 25.306,13.94 23.728,12.111 21.53,11.063 
			18.7,10 		"/>
		<polygon style="clip-path:url(#SVGID_00000100376739604664011050000002090881818786013842_);fill:#F26C2B;" points="16.961,38 
			15.077,38.587 13.056,39.241 10.996,40.615 9.548,42.61 8.37,44.801 8.082,47.282 8.082,47.295 8.708,50.604 9.822,52.698 
			11.331,54.515 13.484,55.474 15.192,56.032 16.961,56.291 17.399,56.48 18.306,56.48 18.753,56.326 21.251,55.798 23.278,54.966 
			24.799,53.405 26.076,51.653 26.625,49.541 26.96,47.956 26.96,45.965 26.462,44.116 25.306,41.941 23.728,40.111 21.53,39.063 
			18.7,38 		"/>
		<polygon style="clip-path:url(#SVGID_00000100376739604664011050000002090881818786013842_);fill:#55C95A;" points="48.96,39 
			47.076,39.587 45.056,40.241 42.996,41.615 41.548,43.61 40.37,45.802 40.081,48.29 40.708,51.604 41.821,53.698 43.331,55.515 
			45.483,56.473 47.192,57.032 48.961,57.291 49.399,57.48 50.306,57.48 50.753,57.326 53.25,56.798 55.277,55.966 56.798,54.406 
			58.075,52.653 58.624,50.541 58.959,48.96 58.959,46.963 58.461,45.115 57.306,42.941 55.727,41.111 53.529,40.063 50.699,39 		
			"/>
		<polygon style="clip-path:url(#SVGID_00000100376739604664011050000002090881818786013842_);fill:#E33A3A;" points="16.961,68 
			15.077,68.587 13.056,69.241 10.996,70.616 9.548,72.61 8.37,74.802 8.082,77.282 8.082,77.295 8.708,80.604 9.822,82.698 
			11.331,84.515 13.484,85.474 15.192,86.033 16.961,86.291 17.4,86.481 18.305,86.481 18.753,86.326 21.251,85.798 23.278,84.966 
			24.799,83.406 26.076,81.653 26.625,79.541 26.96,77.956 26.96,75.965 26.462,74.116 25.306,71.941 23.728,70.112 21.53,69.063 
			18.7,68 		"/>
		<polygon style="clip-path:url(#SVGID_00000100376739604664011050000002090881818786013842_);fill:#AD70D6;" points="48.96,10 
			47.076,10.587 45.056,11.24 42.996,12.615 41.548,14.61 40.37,16.801 40.081,19.29 40.708,22.604 41.821,24.698 43.331,26.515 
			45.483,27.473 47.192,28.032 48.961,28.291 49.399,28.48 50.306,28.48 50.753,28.326 53.25,27.798 55.277,26.966 56.798,25.405 
			58.075,23.653 58.624,21.541 58.959,19.96 58.959,17.963 58.461,16.115 57.306,13.94 55.727,12.111 53.529,11.063 50.699,10 		"/>
		<polygon style="clip-path:url(#SVGID_00000100376739604664011050000002090881818786013842_);fill:#9F9EB1;" points="78.964,69 
			77.076,69.588 75.056,70.242 72.996,71.616 71.548,73.61 70.37,75.802 70.082,78.283 70.082,78.295 70.708,81.604 71.821,83.699 
			73.331,85.515 75.483,86.474 77.192,87.033 78.961,87.292 79.4,87.481 80.305,87.481 80.752,87.327 83.25,86.798 85.279,85.966 
			86.799,84.407 88.075,82.653 88.624,80.542 88.96,78.96 88.96,76.961 88.461,75.116 87.306,72.941 85.728,71.111 83.529,70.063 
			80.698,69 		"/>
		<g style="clip-path:url(#SVGID_00000100376739604664011050000002090881818786013842_);">
			<defs>
				
					<rect id="SVGID_00000063591008696474469670000005162729447091103924_" x="39.783" y="64.982" transform="matrix(0.7465 -0.6653 0.6653 0.7465 -35.5842 55.3314)" width="30.098" height="18.779"/>
			</defs>
			<clipPath id="SVGID_00000018926832153666926380000004158153539950128049_">
				<use xlink:href="#SVGID_00000063591008696474469670000005162729447091103924_"  style="overflow:visible;"/>
			</clipPath>
			<path style="clip-path:url(#SVGID_00000018926832153666926380000004158153539950128049_);fill:#523742;" d="M61.404,64.642
				c0.966-0.915,0.053-3.007,2.027-3.24c2.72,3.457,5.413,6.87,8.278,10.506c-3.606,2.355-7.56,3.856-11.346,5.65
				c-0.391-0.107-0.718-0.204-1.115-0.306c0.187-1.412,0.39-2.852,0.589-4.329c-2.536-1.491-4.782-0.359-6.642,0.829
				c-3.03,1.937-2.111,4.922-1.34,7.396c0.565,0.783,0.959,1.315,1.477,2.033c-2.545,1.398-4.857,2.666-7.211,3.947
				c-0.181-0.173-0.387-0.284-0.435-0.442c-0.688-1.945-1.697-3.859-1.936-5.856c-0.591-5.006,0.683-9.53,4.466-13.129
				c2.427-2.297,5.197-3.774,8.611-3.641C58.325,64.118,59.808,64.43,61.404,64.642"/>
		</g>
		<polygon style="clip-path:url(#SVGID_00000100376739604664011050000002090881818786013842_);fill:#E1D153;" points="81.961,10 
			80.077,10.587 78.056,11.24 75.996,12.615 74.549,14.61 73.371,16.801 73.082,19.29 73.708,22.604 74.822,24.698 76.332,26.515 
			78.484,27.473 80.193,28.032 81.961,28.291 82.399,28.48 83.306,28.48 83.753,28.326 86.251,27.798 88.278,26.966 89.799,25.405 
			91.076,23.653 91.625,21.541 91.96,19.956 91.96,17.963 91.462,16.115 90.306,13.94 88.728,12.111 86.53,11.063 83.7,10 		"/>
	</g>
</g>
</svg>
