<?xml version="1.0" encoding="iso-8859-1"?>
<!-- Generator: Adobe Illustrator 26.0.1, SVG Export Plug-In . SVG Version: 6.00 Build 0)  -->
<svg version="1.1" xmlns="http://www.w3.org/2000/svg" xmlns:xlink="http://www.w3.org/1999/xlink" x="0px" y="0px"
	 viewBox="0 0 100 100" style="enable-background:new 0 0 100 100;" xml:space="preserve">
<g id="Layer_1">
	<g id="G_x28__T1_L1__x29___L1_L1_L1_L1_L1_00000019663842403182104590000018124346473956842900_">
		<g>
			<defs>
				<rect id="SVGID_1_" x="7" y="9" width="83.96" height="82.743"/>
			</defs>
			<clipPath id="SVGID_00000132078616918721640900000013889433219159159735_">
				<use xlink:href="#SVGID_1_"  style="overflow:visible;"/>
			</clipPath>
			<polygon style="clip-path:url(#SVGID_00000132078616918721640900000013889433219159159735_);fill:#5699DE;" points="15.961,9 
				14.077,9.587 12.056,10.24 9.996,11.615 8.548,13.61 7.37,15.801 7.082,18.282 7.082,18.295 7.708,21.604 8.822,23.698 
				10.331,25.515 12.484,26.473 14.192,27.032 15.961,27.291 16.399,27.48 17.306,27.48 17.753,27.326 20.251,26.798 22.278,25.966 
				23.799,24.405 25.076,22.653 25.625,20.541 25.96,18.956 25.96,16.965 25.462,15.115 24.306,12.94 22.728,11.111 20.53,10.063 
				17.7,9 			"/>
			<polygon style="clip-path:url(#SVGID_00000132078616918721640900000013889433219159159735_);fill:#E33A3A;" points="15.958,66 
				14.076,66.587 12.057,67.24 9.997,68.615 8.549,70.61 7.37,72.801 7.082,75.29 7.709,78.604 8.821,80.697 10.332,82.514 
				12.483,83.473 14.192,84.032 15.962,84.291 16.399,84.48 17.306,84.48 17.754,84.326 20.25,83.798 22.279,82.965 23.8,81.405 
				25.075,79.652 25.624,77.541 25.96,75.959 25.96,73.962 25.461,72.116 24.307,69.94 22.727,68.111 20.529,67.062 17.7,66 			"/>
			<polygon style="clip-path:url(#SVGID_00000132078616918721640900000013889433219159159735_);fill:#55C95A;" points="46.958,37 
				45.076,37.587 43.056,38.24 40.996,39.615 39.549,41.61 38.371,43.801 38.082,46.29 38.708,49.604 39.821,51.697 41.332,53.514 
				43.483,54.473 45.192,55.032 46.961,55.291 47.399,55.48 48.306,55.48 48.753,55.326 51.25,54.798 53.278,53.965 54.799,52.405 
				56.075,50.652 56.624,48.541 56.96,46.955 56.96,44.962 56.461,43.116 55.306,40.94 53.727,39.111 51.529,38.062 48.7,37 			"/>
			<polygon style="clip-path:url(#SVGID_00000132078616918721640900000013889433219159159735_);fill:#F26C2B;" points="15.958,37 
				14.076,37.587 12.056,38.24 9.996,39.615 8.548,41.61 7.37,43.801 7.082,46.282 7.082,46.295 7.708,49.604 8.821,51.697 
				10.331,53.514 12.483,54.473 14.192,55.032 15.961,55.291 16.399,55.48 17.306,55.48 17.753,55.326 20.25,54.798 22.278,53.965 
				23.799,52.405 25.075,50.652 25.624,48.541 25.96,46.955 25.96,44.962 25.461,43.116 24.306,40.94 22.727,39.111 20.529,38.062 
				17.7,37 			"/>
			<polygon style="clip-path:url(#SVGID_00000132078616918721640900000013889433219159159735_);fill:#AD70D6;" points="46.96,10 
				45.076,10.587 43.056,11.24 40.996,12.615 39.548,14.61 38.37,16.801 38.081,19.29 38.708,22.604 39.821,24.698 41.331,26.515 
				43.483,27.473 45.192,28.032 46.961,28.291 47.399,28.48 48.306,28.48 48.753,28.326 51.25,27.798 53.278,26.966 54.799,25.405 
				56.075,23.653 56.624,21.541 56.959,19.96 56.959,17.963 56.461,16.115 55.306,13.94 53.727,12.111 51.529,11.063 48.699,10 			
				"/>
			<polygon style="clip-path:url(#SVGID_00000132078616918721640900000013889433219159159735_);fill:#E1D153;" points="77.961,10 
				76.077,10.587 74.056,11.24 71.996,12.615 70.549,14.61 69.371,16.801 69.082,19.29 69.708,22.604 70.822,24.698 72.332,26.515 
				74.484,27.473 76.193,28.032 77.961,28.291 78.399,28.48 79.306,28.48 79.753,28.326 82.251,27.798 84.278,26.966 85.799,25.405 
				87.076,23.653 87.625,21.541 87.96,19.956 87.96,17.963 87.462,16.115 86.306,13.94 84.728,12.111 82.53,11.063 79.7,10 			"/>
			<g style="clip-path:url(#SVGID_00000132078616918721640900000013889433219159159735_);">
				<defs>
					
						<rect id="SVGID_00000072260540016667820010000007885967566080820158_" x="25.783" y="64.982" transform="matrix(0.7465 -0.6653 0.6653 0.7465 -39.1326 46.0167)" width="30.098" height="18.779"/>
				</defs>
				<clipPath id="SVGID_00000155132701993433156790000007434155146541960613_">
					<use xlink:href="#SVGID_00000072260540016667820010000007885967566080820158_"  style="overflow:visible;"/>
				</clipPath>
			</g>
		</g>
	</g>
	<g id="L2_00000016756443008721268430000005932816908809672325_">
		<g>
			<defs>
				<rect id="SVGID_00000020375697996562280390000009350688365188397743_" x="58" y="55" width="31.359" height="34.868"/>
			</defs>
			<clipPath id="SVGID_00000068654480056653297620000016896605614615671487_">
				<use xlink:href="#SVGID_00000020375697996562280390000009350688365188397743_"  style="overflow:visible;"/>
			</clipPath>
			<g style="clip-path:url(#SVGID_00000068654480056653297620000016896605614615671487_);">
				<defs>
					<rect id="SVGID_00000170977269465910982160000001401745950673510564_" x="58" y="55" width="31.359" height="34.868"/>
				</defs>
				<clipPath id="SVGID_00000047740201872502297130000015481948604766145408_">
					<use xlink:href="#SVGID_00000170977269465910982160000001401745950673510564_"  style="overflow:visible;"/>
				</clipPath>
				<g style="clip-path:url(#SVGID_00000047740201872502297130000015481948604766145408_);">
					<defs>
						
							<rect id="SVGID_00000104701599535553984410000000175246176689773231_" x="59.264" y="54.997" width="30.098" height="18.779"/>
					</defs>
					<clipPath id="SVGID_00000132789775194745593240000018105325183350632355_">
						<use xlink:href="#SVGID_00000104701599535553984410000000175246176689773231_"  style="overflow:visible;"/>
					</clipPath>
					<g style="clip-path:url(#SVGID_00000132789775194745593240000018105325183350632355_);">
						<defs>
							
								<rect id="SVGID_00000043438318245643452080000000138812590864332447_" x="59.264" y="54.997" width="30.098" height="18.779"/>
						</defs>
						<clipPath id="SVGID_00000150063103324880154510000012902529709389204896_">
							<use xlink:href="#SVGID_00000043438318245643452080000000138812590864332447_"  style="overflow:visible;"/>
						</clipPath>
						<path style="clip-path:url(#SVGID_00000150063103324880154510000012902529709389204896_);fill:#523742;" d="M85.693,61.496
							c1.33-0.04,2.04-2.21,3.67-1.07c-0.27,4.39-0.53,8.73-0.81,13.35c-4.26-0.64-8.21-2.15-12.23-3.33
							c-0.22-0.34-0.4-0.63-0.63-0.97c1.08-0.93,2.19-1.87,3.32-2.84c-0.9-2.8-3.33-3.45-5.51-3.8c-3.55-0.57-4.85,2.27-5.92,4.63
							c-0.1,0.96-0.16,1.62-0.25,2.5c-2.83-0.65-5.4-1.24-8.01-1.85c-0.02-0.25-0.1-0.47-0.03-0.62c0.78-1.91,1.3-4.01,2.45-5.66
							c2.89-4.13,6.85-6.66,12.07-6.83c3.34-0.1,6.39,0.64,8.85,3.01C83.743,59.056,84.643,60.276,85.693,61.496"/>
					</g>
				</g>
				<g style="clip-path:url(#SVGID_00000047740201872502297130000015481948604766145408_);">
					<defs>
						<rect id="SVGID_00000183931278666562488530000003407692779519184823_" x="58.003" y="71.656" width="29.36" height="18.213"/>
					</defs>
					<clipPath id="SVGID_00000173150783724114441420000014253756182267068071_">
						<use xlink:href="#SVGID_00000183931278666562488530000003407692779519184823_"  style="overflow:visible;"/>
					</clipPath>
					<g style="clip-path:url(#SVGID_00000173150783724114441420000014253756182267068071_);">
						<defs>
							
								<rect id="SVGID_00000049927438559686410460000010345609498773265070_" x="58.003" y="71.656" width="29.36" height="18.213"/>
						</defs>
						<clipPath id="SVGID_00000099640948567895892210000009888197753278255538_">
							<use xlink:href="#SVGID_00000049927438559686410460000010345609498773265070_"  style="overflow:visible;"/>
						</clipPath>
						<path style="clip-path:url(#SVGID_00000099640948567895892210000009888197753278255538_);fill:#9F9EB1;" d="M87.363,77.446
							c-0.1,0.3-0.17,0.6-0.29,0.87c-1.52,3.45-3.13,6.93-6.51,8.9c-1.9,1.11-4.16,1.59-6.26,2.36c-2.15,0.78-4.14-0.2-6.16-0.61
							c-1.67-0.33-2.86-1.56-4-2.76c-0.82-0.86-1.62-1.74-2.62-2.83c-1.02,0.3-2.14,0.63-3.52,1.04c0.24-4.15,0.49-8.3,0.76-12.76
							c4,1.19,7.88,2.35,12.16,3.63c-1.18,1.02-2.12,1.83-3.03,2.63v1.59c1.49,2.59,3.87,3.08,6.63,3.14
							c3.42,0.08,4.13-2.66,5.59-4.93v-1.92C82.563,76.356,84.923,76.886,87.363,77.446"/>
					</g>
				</g>
			</g>
		</g>
	</g>
</g>
<g id="Layer_2">
	<g id="Layer_3">
	</g>
</g>
</svg>
