<?xml version="1.0" encoding="iso-8859-1"?>
<!-- Generator: Adobe Illustrator 26.0.1, SVG Export Plug-In . SVG Version: 6.00 Build 0)  -->
<svg version="1.1" xmlns="http://www.w3.org/2000/svg" xmlns:xlink="http://www.w3.org/1999/xlink" x="0px" y="0px"
	 viewBox="0 0 100 100" style="enable-background:new 0 0 100 100;" xml:space="preserve">
<g id="Layer_2" style="display:none;">
	
		<image style="display:inline;overflow:visible;" width="80" height="80" xlink:href="../old_images/xrule0.jpg"  transform="matrix(0.2301 0 0 0.2302 -3.4777 80.6295)">
	</image>
</g>
<g id="Layer_3">
	<g id="L1_00000066499466226914259600000013648155590690485636_">
		<g>
			<defs>
				<rect id="SVGID_1_" x="38.493" y="37.986" width="21.815" height="21.272"/>
			</defs>
			<clipPath id="SVGID_00000160188387353868274430000017189085958184213410_">
				<use xlink:href="#SVGID_1_"  style="overflow:visible;"/>
			</clipPath>
			<g style="clip-path:url(#SVGID_00000160188387353868274430000017189085958184213410_);">
				<defs>
					<rect id="SVGID_00000048496096546350485910000012275415826611680187_" x="38.493" y="37.986" width="21.815" height="21.272"/>
				</defs>
				<clipPath id="SVGID_00000044877493754907284420000001037416180537934519_">
					<use xlink:href="#SVGID_00000048496096546350485910000012275415826611680187_"  style="overflow:visible;"/>
				</clipPath>
				<g style="clip-path:url(#SVGID_00000044877493754907284420000001037416180537934519_);">
					<defs>
						
							<rect id="SVGID_00000062154186649823777420000002713184968101566626_" x="38.587" y="37.926" width="21.922" height="21.532"/>
					</defs>
					<clipPath id="SVGID_00000166650707377645839900000016296158106803057327_">
						<use xlink:href="#SVGID_00000062154186649823777420000002713184968101566626_"  style="overflow:visible;"/>
					</clipPath>
					<g style="clip-path:url(#SVGID_00000166650707377645839900000016296158106803057327_);">
						<defs>
							
								<rect id="SVGID_00000075842656169753480400000000494124285965665159_" x="38.587" y="37.926" width="21.922" height="21.532"/>
						</defs>
						<clipPath id="SVGID_00000059282366607950411830000016437741153389485466_">
							<use xlink:href="#SVGID_00000075842656169753480400000000494124285965665159_"  style="overflow:visible;"/>
						</clipPath>
						<polygon style="clip-path:url(#SVGID_00000059282366607950411830000016437741153389485466_);fill:#9F9EB1;" points="
							60.509,47.9 60.392,49.05 59.921,51.27 59.29,53.701 57.822,55.719 56.072,57.515 53.738,58.472 50.865,59.08 49.77,59.458 
							48.803,59.04 46.768,58.743 44.802,58.099 42.326,56.996 40.588,54.904 39.308,52.494 38.586,48.679 38.919,45.815 
							40.274,43.292 41.94,40.997 44.31,39.414 46.634,38.661 48.966,37.935 50.644,37.926 54.059,39.209 56.588,40.417 
							58.405,42.522 59.734,45.025 						"/>
					</g>
				</g>
			</g>
		</g>
	</g>
	<g id="T1_x5F_2_00000173853199476556013990000002104507209608843677_">
		<g>
			<defs>
				
					<rect id="SVGID_00000155827766189084190630000010222816166352880284_" x="66.258" y="32.861" transform="matrix(0.8391 -0.5439 0.5439 0.8391 -9.6711 51.8969)" width="33.289" height="18.875"/>
			</defs>
			<clipPath id="SVGID_00000140728167930017100710000008437390782153922481_">
				<use xlink:href="#SVGID_00000155827766189084190630000010222816166352880284_"  style="overflow:visible;"/>
			</clipPath>
			<g style="clip-path:url(#SVGID_00000140728167930017100710000008437390782153922481_);">
				<defs>
					
						<rect id="SVGID_00000110437321703677098040000015114354040394241942_" x="66.258" y="32.861" transform="matrix(0.8391 -0.5439 0.5439 0.8391 -9.6711 51.8968)" width="33.289" height="18.875"/>
				</defs>
				<clipPath id="SVGID_00000078024891460278279060000014348846366759010238_">
					<use xlink:href="#SVGID_00000110437321703677098040000015114354040394241942_"  style="overflow:visible;"/>
				</clipPath>
				<path style="clip-path:url(#SVGID_00000078024891460278279060000014348846366759010238_);fill:#55C95A;" d="M90.04,32.458
					c2.93,1.516,8.188,8.409,8.188,8.409c-1.306,2.218-1.715,1.863-4.202,4.096c-0.102,0.092-1.842,1.159-1.931,1.252
					c-0.508,0.528-5.31,3.421-9.569,3.781c-0.624,0.053-1.235,0.244-1.931,0.388c0.213,1.346,0.415,2.618,0.621,3.915
					c-2.344-0.092-12.046-5.168-15.177-7.95c3.164-3.894,6.607-7.507,10.6-11.019c0.458,1.585,0.817,2.831,1.253,4.337
					c2.573-0.682,4.69-1.283,6.982-2.486C86.873,36.129,88.734,34.676,90.04,32.458"/>
			</g>
		</g>
	</g>
	<g id="T1_x5F_2_00000171707161883291797710000017821165390389244562_">
		<g>
			<defs>
				
					<rect id="SVGID_00000120539093291488828730000008477311035641767553_" x="25.171" y="3.4" transform="matrix(0.5084 -0.8611 0.8611 0.5084 -0.2475 39.6554)" width="18.876" height="33.289"/>
			</defs>
			<clipPath id="SVGID_00000007428017751268875790000015256860995653178041_">
				<use xlink:href="#SVGID_00000120539093291488828730000008477311035641767553_"  style="overflow:visible;"/>
			</clipPath>
			<g style="clip-path:url(#SVGID_00000007428017751268875790000015256860995653178041_);">
				<defs>
					
						<rect id="SVGID_00000040551588004462953290000014302943616385315490_" x="25.171" y="3.4" transform="matrix(0.5084 -0.8611 0.8611 0.5084 -0.2476 39.6554)" width="18.876" height="33.289"/>
				</defs>
				<clipPath id="SVGID_00000114039385829554343110000018332943408214623885_">
					<use xlink:href="#SVGID_00000040551588004462953290000014302943616385315490_"  style="overflow:visible;"/>
				</clipPath>
				<path style="clip-path:url(#SVGID_00000114039385829554343110000018332943408214623885_);fill:#F26C2B;" d="M22.621,18.048
					c0.048-3.3,3.866-11.083,3.866-11.083c2.567,0.179,2.432,0.703,5.539,1.934c0.128,0.05,1.859,1.131,1.982,1.17
					c0.699,0.219,5.43,3.226,7.653,6.879c0.326,0.535,0.769,0.997,1.209,1.556c1.108-0.792,2.156-1.54,3.224-2.304
					c0.964,2.139,0.754,13.091-0.336,17.136c-4.895-1.094-9.664-2.563-14.587-4.571c1.214-1.117,2.167-1.995,3.32-3.057
					c-1.758-1.999-3.241-3.626-5.34-5.141C27.318,19.244,25.188,18.227,22.621,18.048"/>
			</g>
		</g>
	</g>
	<g id="T1_x5F_2_00000179647438225393897570000015778227333996731553_">
		<g>
			<defs>
				
					<rect id="SVGID_00000041258447637183443460000014014053301052493728_" x="49.11" y="8.656" transform="matrix(0.1821 -0.9833 0.9833 0.1821 35.9952 79.4557)" width="33.299" height="18.87"/>
			</defs>
			<clipPath id="SVGID_00000090981557176200624110000009732129189077629873_">
				<use xlink:href="#SVGID_00000041258447637183443460000014014053301052493728_"  style="overflow:visible;"/>
			</clipPath>
			<g style="clip-path:url(#SVGID_00000090981557176200624110000009732129189077629873_);">
				<defs>
					
						<rect id="SVGID_00000114789008332299472540000008845995577421354883_" x="49.11" y="8.656" transform="matrix(0.1821 -0.9833 0.9833 0.1821 35.9952 79.4557)" width="33.299" height="18.87"/>
				</defs>
				<clipPath id="SVGID_00000155114051771953515480000006955748091595804034_">
					<use xlink:href="#SVGID_00000114789008332299472540000008845995577421354883_"  style="overflow:visible;"/>
				</clipPath>
				<path style="clip-path:url(#SVGID_00000155114051771953515480000006955748091595804034_);fill:#E1D153;" d="M63.524,6.14
					c3.115-1.086,11.732-0.166,11.732-0.166c0.712,2.473,0.173,2.527,0.083,5.869c-0.003,0.138-0.425,2.135-0.419,2.264
					c0.034,0.732-1.168,6.209-3.835,9.551c-0.39,0.49-0.672,1.065-1.046,1.67c1.123,0.77,2.186,1.499,3.269,2.24
					c-1.679,1.639-12.033,5.197-16.205,5.559c-0.651-4.975-0.906-9.961-0.709-15.276c1.465,0.757,2.616,1.352,4.009,2.072
					c1.274-2.338,2.293-4.289,2.996-6.781C64.011,10.965,64.236,8.613,63.524,6.14"/>
			</g>
		</g>
	</g>
	<g id="T1_x5F_2_00000043446782484218637920000001369039250133550983_">
		<g>
			<defs>
				
					<rect id="SVGID_00000096767085950607940380000009799705116228210838_" x="40.454" y="63.303" transform="matrix(0.9314 -0.3641 0.3641 0.9314 -25.6867 23.6538)" width="18.871" height="33.298"/>
			</defs>
			<clipPath id="SVGID_00000067917579717689573580000017956310787156994688_">
				<use xlink:href="#SVGID_00000096767085950607940380000009799705116228210838_"  style="overflow:visible;"/>
			</clipPath>
			<g style="clip-path:url(#SVGID_00000067917579717689573580000017956310787156994688_);">
				<defs>
					
						<rect id="SVGID_00000145763194274202555980000010461817964257134741_" x="40.454" y="63.303" transform="matrix(0.9314 -0.3641 0.3641 0.9314 -25.6867 23.6538)" width="18.871" height="33.298"/>
				</defs>
				<clipPath id="SVGID_00000105413965088854507010000018372288097857308318_">
					<use xlink:href="#SVGID_00000145763194274202555980000010461817964257134741_"  style="overflow:visible;"/>
				</clipPath>
				<path style="clip-path:url(#SVGID_00000105413965088854507010000018372288097857308318_);fill:#AD70D6;" d="M58.093,88.921
					c-2.073,2.567-9.877,6.337-9.877,6.337c-1.91-1.725-1.48-2.055-3.167-4.941c-0.07-0.119-0.766-2.038-0.838-2.144
					c-0.415-0.604-2.284-5.891-1.782-10.138c0.073-0.622,0.009-1.259,0.008-1.971c-1.361-0.061-2.647-0.119-3.958-0.177
					C39.04,73.61,45.958,65.12,49.31,62.609c3.178,3.882,6.025,7.982,8.662,12.601c-1.644,0.13-2.936,0.233-4.498,0.357
					c0.151,2.659,0.315,4.854,1.033,7.342C55.134,85.081,56.184,87.197,58.093,88.921"/>
			</g>
		</g>
	</g>
	<g id="T1_x5F_2_00000112607073133997596600000004375350295249636282_">
		<g>
			<defs>
				
					<rect id="SVGID_00000046336038504920477390000000617616720846422164_" x="68.342" y="55.663" transform="matrix(0.2714 -0.9625 0.9625 0.2714 -12.9193 127.5474)" width="18.877" height="33.286"/>
			</defs>
			<clipPath id="SVGID_00000082336916036694567250000004067534044218397058_">
				<use xlink:href="#SVGID_00000046336038504920477390000000617616720846422164_"  style="overflow:visible;"/>
			</clipPath>
			<g style="clip-path:url(#SVGID_00000082336916036694567250000004067534044218397058_);">
				<defs>
					
						<rect id="SVGID_00000047044606533355354190000011430722585106299521_" x="68.342" y="55.663" transform="matrix(0.2714 -0.9625 0.9625 0.2714 -12.9192 127.5474)" width="18.877" height="33.286"/>
				</defs>
				<clipPath id="SVGID_00000174563696670615624890000010214011022510186164_">
					<use xlink:href="#SVGID_00000047044606533355354190000011430722585106299521_"  style="overflow:visible;"/>
				</clipPath>
				<path style="clip-path:url(#SVGID_00000174563696670615624890000010214011022510186164_);fill:#5699DE;" d="M89.881,71.171
					c0.797,3.202-0.906,11.704-0.906,11.704c-2.527,0.483-2.531-0.058-5.849-0.453c-0.137-0.016-2.086-0.618-2.215-0.624
					c-0.732-0.033-6.074-1.73-9.157-4.694c-0.452-0.434-0.998-0.767-1.566-1.195c-0.869,1.049-1.691,2.041-2.528,3.052
					c-1.478-1.822-4.074-12.463-4.053-16.653c5.012-0.194,9.997,0.007,15.271,0.689c-0.888,1.39-1.585,2.483-2.429,3.805
					c2.211,1.483,4.06,2.677,6.476,3.604C85.034,71.216,87.354,71.655,89.881,71.171"/>
			</g>
		</g>
	</g>
	<g id="T1_x5F_2_00000163050067699391133590000005555903501731892667_">
		<g>
			<defs>
				
					<rect id="SVGID_00000132810729976285674150000010227144738084162979_" x="7.692" y="61.251" transform="matrix(0.346 -0.9382 0.9382 0.346 -50.4014 69.0628)" width="33.298" height="18.871"/>
			</defs>
			<clipPath id="SVGID_00000141445162454347388390000010397500397499945604_">
				<use xlink:href="#SVGID_00000132810729976285674150000010227144738084162979_"  style="overflow:visible;"/>
			</clipPath>
			<g style="clip-path:url(#SVGID_00000141445162454347388390000010397500397499945604_);">
				<defs>
					
						<rect id="SVGID_00000107585868927408812490000004602318699995813819_" x="7.692" y="61.251" transform="matrix(0.346 -0.9382 0.9382 0.346 -50.4014 69.0629)" width="33.298" height="18.87"/>
				</defs>
				<clipPath id="SVGID_00000164486995936586490510000016657771922062021053_">
					<use xlink:href="#SVGID_00000107585868927408812490000004602318699995813819_"  style="overflow:visible;"/>
				</clipPath>
				<path style="clip-path:url(#SVGID_00000164486995936586490510000016657771922062021053_);fill:#523742;" d="M24.52,82.843
					c-3.254,0.542-11.591-1.825-11.591-1.825c-0.283-2.558,0.257-2.52,0.912-5.798c0.026-0.135,0.78-2.032,0.797-2.16
					c0.09-0.727,2.202-5.922,5.398-8.763c0.468-0.416,0.843-0.935,1.314-1.468c-0.977-0.95-1.9-1.847-2.842-2.762
					c1.932-1.331,12.74-3.082,16.913-2.732c-0.201,5.014-0.794,9.97-1.889,15.176c-1.316-0.995-2.349-1.776-3.6-2.722
					c-1.652,2.088-2.987,3.838-4.101,6.175C24.857,78.006,24.237,80.285,24.52,82.843"/>
			</g>
		</g>
	</g>
	<g id="T1_x5F_2_00000029040399495833908190000002029977791426076601_">
		<g>
			<defs>
				
					<rect id="SVGID_00000128457941460325679970000017766965463421736367_" x="0.869" y="32.937" transform="matrix(0.9815 -0.1912 0.1912 0.9815 -7.7802 4.1308)" width="33.286" height="18.878"/>
			</defs>
			<clipPath id="SVGID_00000057851082450653038970000014419823504828541117_">
				<use xlink:href="#SVGID_00000128457941460325679970000017766965463421736367_"  style="overflow:visible;"/>
			</clipPath>
			<g style="clip-path:url(#SVGID_00000057851082450653038970000014419823504828541117_);">
				<defs>
					
						<rect id="SVGID_00000157280471467325350420000011036905846773877400_" x="0.869" y="32.937" transform="matrix(0.9815 -0.1912 0.1912 0.9815 -7.7802 4.1308)" width="33.286" height="18.877"/>
				</defs>
				<clipPath id="SVGID_00000065064967168335904390000009482135253732477321_">
					<use xlink:href="#SVGID_00000157280471467325350420000011036905846773877400_"  style="overflow:visible;"/>
				</clipPath>
				<path style="clip-path:url(#SVGID_00000065064967168335904390000009482135253732477321_);fill:#E33A3A;" d="M7.219,48.839
					c-2.152-2.501-4.458-10.859-4.458-10.859c2.039-1.57,2.286-1.088,5.427-2.23c0.129-0.047,2.141-0.388,2.259-0.44
					c0.668-0.3,6.202-1.191,10.288,0.067c0.598,0.184,1.237,0.235,1.936,0.362c0.304-1.328,0.592-2.584,0.884-3.864
					c2.14,0.961,9.247,9.294,11.114,13.044c-4.388,2.431-8.93,4.497-13.945,6.263c0.167-1.641,0.298-2.931,0.456-4.491
					c-2.642-0.329-4.83-0.561-7.405-0.301C11.527,46.616,9.258,47.269,7.219,48.839"/>
			</g>
		</g>
	</g>
</g>
</svg>
