<?xml version="1.0" encoding="iso-8859-1"?>
<!-- Generator: Adobe Illustrator 26.0.1, SVG Export Plug-In . SVG Version: 6.00 Build 0)  -->
<svg version="1.1" xmlns="http://www.w3.org/2000/svg" xmlns:xlink="http://www.w3.org/1999/xlink" x="0px" y="0px"
	 viewBox="0 0 100 100" style="enable-background:new 0 0 100 100;" xml:space="preserve">
<g id="Layer_1">
	<g id="L3_L1_L1_L1_L1_L1_00000015338940734762667420000006629388361931866536_">
		<g>
			<defs>
				<rect id="SVGID_1_" x="8" y="11" width="84.96" height="82.743"/>
			</defs>
			<clipPath id="SVGID_00000034795384699877398330000014845318115401005238_">
				<use xlink:href="#SVGID_1_"  style="overflow:visible;"/>
			</clipPath>
			<polygon style="clip-path:url(#SVGID_00000034795384699877398330000014845318115401005238_);fill:#AD70D6;" points="82.26,11 
				79.43,12.063 77.232,13.111 75.654,14.94 74.498,17.115 74,18.965 74,20.956 74.336,22.541 74.884,24.653 76.161,26.405 
				77.682,27.966 79.709,28.798 82.207,29.326 82.654,29.48 83.561,29.48 83.999,29.291 85.768,29.032 87.476,28.473 89.629,27.515 
				91.138,25.698 92.252,23.604 92.878,20.295 92.878,20.282 92.59,17.801 91.412,15.61 89.964,13.615 87.904,12.24 85.883,11.587 
				83.999,11 			"/>
			<polygon style="clip-path:url(#SVGID_00000034795384699877398330000014845318115401005238_);fill:#523742;" points="82.26,39 
				79.43,40.063 77.232,41.111 75.654,42.941 74.498,45.116 74,46.965 74,48.956 74.336,50.541 74.884,52.653 76.161,54.405 
				77.682,55.966 79.709,56.798 82.207,57.326 82.654,57.48 83.561,57.48 83.999,57.291 85.768,57.032 87.476,56.474 89.629,55.515 
				91.138,53.698 92.252,51.604 92.878,48.295 92.878,48.282 92.59,45.801 91.412,43.61 89.964,41.615 87.904,40.241 85.883,39.587 
				83.999,39 			"/>
			<polygon style="clip-path:url(#SVGID_00000034795384699877398330000014845318115401005238_);fill:#9F9EB1;" points="82.26,69 
				79.43,70.063 77.232,71.112 75.654,72.941 74.498,75.116 74,76.965 74,78.956 74.336,80.541 74.884,82.653 76.161,84.406 
				77.682,85.966 79.709,86.798 82.207,87.326 82.655,87.481 83.56,87.481 83.999,87.291 85.768,87.033 87.476,86.474 
				89.629,85.515 91.138,83.698 92.252,81.604 92.878,78.295 92.878,78.282 92.59,75.802 91.412,73.61 89.964,71.616 87.904,70.241 
				85.883,69.587 83.999,69 			"/>
			<polygon style="clip-path:url(#SVGID_00000034795384699877398330000014845318115401005238_);fill:#5699DE;" points="50.26,11 
				47.43,12.063 45.232,13.111 43.653,14.94 42.498,17.115 42,18.963 42,20.96 42.336,22.541 42.884,24.653 44.161,26.405 
				45.682,27.966 47.709,28.798 50.206,29.326 50.653,29.48 51.56,29.48 51.998,29.291 53.767,29.032 55.476,28.473 57.628,27.515 
				59.138,25.698 60.251,23.604 60.878,20.29 60.589,17.801 59.411,15.61 57.963,13.615 55.903,12.24 53.883,11.587 51.999,11 			
				"/>
			<polygon style="clip-path:url(#SVGID_00000034795384699877398330000014845318115401005238_);fill:#E1D153;" points="17.26,11 
				14.43,12.063 12.232,13.111 10.654,14.94 9.498,17.115 9,18.963 9,20.956 9.336,22.541 9.884,24.653 11.161,26.405 
				12.682,27.966 14.709,28.798 17.207,29.326 17.654,29.48 18.561,29.48 18.999,29.291 20.767,29.032 22.476,28.473 24.628,27.515 
				26.138,25.698 27.252,23.604 27.878,20.29 27.589,17.801 26.411,15.61 24.964,13.615 22.904,12.24 20.883,11.587 18.999,11 			
				"/>
			<g style="clip-path:url(#SVGID_00000034795384699877398330000014845318115401005238_);">
				<defs>
					<rect id="SVGID_00000132080041068438942160000010717100331371724939_" x="8.005" y="39.003" width="47.995" height="46.144"/>
				</defs>
				<clipPath id="SVGID_00000026146844812424737870000000778743623447538326_">
					<use xlink:href="#SVGID_00000132080041068438942160000010717100331371724939_"  style="overflow:visible;"/>
				</clipPath>
				<path style="clip-path:url(#SVGID_00000026146844812424737870000000778743623447538326_);fill:#F26C2B;" d="M56,60.775v5.092
					c-0.115,0.378-0.218,0.755-0.333,1.132c-0.711,2.287-1.261,4.645-2.179,6.837c-0.481,1.156-1.433,2.24-2.419,3.018
					c-1.996,1.58-4.152,2.924-6.354,4.432c0.619,1.085,1.296,2.275,1.996,3.49c-3.063,1.072-16.446-0.342-17.926-1.898
					c1.147-3.077,2.134-6.224,3.361-9.395c0.745-1.886,1.571-3.796,2.557-5.682c1.09,1.379,1.984,2.511,2.902,3.678
					c2.087-1.533,4.117-3.03,6.227-4.586c0.252-2.369,2.947-4.079,1.606-7.144c0.917,0.083,1.548,0.154,2.179,0.201
					c2.534,0.2,5.069,0.389,7.603,0.589C55.484,60.563,55.748,60.692,56,60.775"/>
				<path style="clip-path:url(#SVGID_00000026146844812424737870000000778743623447538326_);fill:#55C95A;" d="M47.41,39.002
					c1.915,1.379,7.282,11.152,8.395,15.289c-3.532,1.179-7.122,2.134-10.872,2.865c-1.308,0.259-2.626,0.495-3.968,0.695
					c0.481-1.615,0.848-2.888,1.307-4.42c-2.523-0.849-5-2.158-7.569-2.405c-2.236-0.212-4.897-0.342-6.698,1.957
					c-0.344-0.625-0.688-1.238-1.02-1.839c-1.262-2.264-2.466-4.433-3.705-6.661c2.512-1.933,5.104-3.854,8.384-4.385
					c0.137-0.023,0.298,0.012,0.413-0.035c4.392-2.134,8.154-0.165,11.915,1.91c0.551,0.294,1.159,0.471,1.824,0.742
					C46.366,41.43,46.882,40.228,47.41,39.002"/>
				<path style="clip-path:url(#SVGID_00000026146844812424737870000000778743623447538326_);fill:#E33A3A;" d="M12.179,68.189
					c-0.275-1.851-0.115-3.784-0.149-5.694c-0.012-0.542,0-1.096,0-1.662c-1.468-0.082-2.753-0.153-4.025-0.212
					c0.229-2.77,8.349-13.981,10.768-14.829c1.824,2.263,3.739,4.491,5.54,6.919c1.399,1.874,2.718,3.878,3.887,6.118
					c-1.731,0.248-3.004,0.425-4.472,0.637c0.195,2.511-0.069,5.187,0.734,7.45c0.78,2.192,2.087,4.468,4.874,5.635
					c-2.053,2.97-3.957,5.729-5.941,8.605c-3.005-1.745-5.952-3.36-7.867-6.377c-0.367-0.578-0.895-1.05-1.376-1.533
					C12.764,71.855,12.454,69.981,12.179,68.189"/>
			</g>
		</g>
	</g>
</g>
<g id="Layer_2">
	<g id="Layer_3">
	</g>
</g>
</svg>
