<?xml version="1.0" encoding="iso-8859-1"?>
<!-- Generator: Adobe Illustrator 26.0.1, SVG Export Plug-In . SVG Version: 6.00 Build 0)  -->
<svg version="1.1" xmlns="http://www.w3.org/2000/svg" xmlns:xlink="http://www.w3.org/1999/xlink" x="0px" y="0px"
	 viewBox="0 0 100 100" style="enable-background:new 0 0 100 100;" xml:space="preserve">
<g id="Layer_4">
	<g id="G_x28__T2_T2_T2_T1_x29__00000037662755257655420360000005273027621780041402_">
		<g>
			<defs>
				<rect id="SVGID_1_" x="2" y="3" width="97.227" height="94.768"/>
			</defs>
			<clipPath id="SVGID_00000103966423949769140160000006379777268115659705_">
				<use xlink:href="#SVGID_1_"  style="overflow:visible;"/>
			</clipPath>
			<polygon style="clip-path:url(#SVGID_00000103966423949769140160000006379777268115659705_);fill:#9F9EB1;" points="
				46.713,40.68 44.528,41.82 42.496,43.258 41.129,45.356 40.214,48.603 40.278,50.973 40.82,53.272 42.319,55.09 43.6,56.352 
				45.069,57.371 45.376,57.735 46.189,58.14 46.657,58.201 49.129,58.84 51.314,58.999 53.371,58.28 55.294,57.279 56.726,55.634 
				57.734,54.364 58.622,52.579 58.998,50.704 58.933,48.242 58.335,45.901 56.834,43.983 54.776,41.771 53.218,40.996 
				51.27,40.682 49.17,40.367 			"/>
			<g style="clip-path:url(#SVGID_00000103966423949769140160000006379777268115659705_);">
				<defs>
					
						<rect id="SVGID_00000055705641125488724140000006236774135898617773_" x="5.542" y="67.723" transform="matrix(0.9874 -0.1584 0.1584 0.9874 -12.8413 3.213)" width="16.398" height="28.929"/>
				</defs>
				<clipPath id="SVGID_00000101817816373251417110000009949852241618446255_">
					<use xlink:href="#SVGID_00000055705641125488724140000006236774135898617773_"  style="overflow:visible;"/>
				</clipPath>
				<path style="clip-path:url(#SVGID_00000101817816373251417110000009949852241618446255_);fill:#E33A3A;" d="M19.055,91.316
					c-2.233,1.798-9.557,3.558-9.557,3.558c-1.303-1.816-0.879-2.017-1.779-4.778c-0.037-0.114-0.275-1.871-0.317-1.974
					c-0.242-0.59-0.854-5.423,0.357-8.936c0.176-0.515,0.239-1.067,0.368-1.672c-1.144-0.302-2.226-0.589-3.329-0.879
					c0.897-1.832,8.338-7.764,11.648-9.277c1.983,3.882,3.646,7.887,5.033,12.295c-1.419-0.193-2.536-0.344-3.886-0.526
					c-0.361,2.286-0.627,4.178-0.475,6.423C17.249,87.51,17.751,89.5,19.055,91.316"/>
			</g>
			<g style="clip-path:url(#SVGID_00000103966423949769140160000006379777268115659705_);">
				<defs>
					
						<rect id="SVGID_00000079452957330558530570000006047063132744712089_" x="10.873" y="50.443" transform="matrix(0.7018 -0.7123 0.7123 0.7018 -34.2187 35.5335)" width="28.929" height="16.4"/>
				</defs>
				<clipPath id="SVGID_00000067195390330046843410000014145108704318233732_">
					<use xlink:href="#SVGID_00000079452957330558530570000006047063132744712089_"  style="overflow:visible;"/>
				</clipPath>
				<path style="clip-path:url(#SVGID_00000067195390330046843410000014145108704318233732_);fill:#AD70D6;" d="M21.129,68.331
					c-2.771-0.735-8.527-5.595-8.527-5.595c0.692-2.126,1.106-1.902,2.798-4.262c0.069-0.098,1.345-1.331,1.403-1.425
					c0.332-0.544,3.864-3.9,7.411-5.005c0.519-0.162,1.002-0.439,1.566-0.692c-0.434-1.101-0.844-2.142-1.262-3.204
					c2.006-0.361,11.192,2.122,14.372,3.893c-1.954,3.897-4.197,7.608-6.927,11.338c-0.686-1.259-1.225-2.248-1.877-3.444
					c-2.056,1.062-3.739,1.969-5.458,3.42C23.127,64.622,21.82,66.204,21.129,68.331"/>
			</g>
			<g style="clip-path:url(#SVGID_00000103966423949769140160000006379777268115659705_);">
				<defs>
					
						<rect id="SVGID_00000096765503037766643840000009402881564616258440_" x="3.215" y="5.412" transform="matrix(0.9845 -0.1756 0.1756 0.9845 -2.1152 3.3153)" width="28.929" height="16.399"/>
				</defs>
				<clipPath id="SVGID_00000049190105777374424660000016396317940144113037_">
					<use xlink:href="#SVGID_00000096765503037766643840000009402881564616258440_"  style="overflow:visible;"/>
				</clipPath>
				<path style="clip-path:url(#SVGID_00000049190105777374424660000016396317940144113037_);fill:#55C95A;" d="M8.645,19.084
					c-1.836-2.201-3.724-9.493-3.724-9.493c1.793-1.335,2.001-0.914,4.746-1.862c0.113-0.04,1.866-0.308,1.969-0.352
					c0.585-0.251,5.406-0.948,8.94,0.201c0.518,0.168,1.072,0.221,1.678,0.34c0.282-1.149,0.55-2.236,0.822-3.344
					c1.846,0.864,7.907,8.2,9.478,11.484c-3.847,2.05-7.822,3.783-12.206,5.247c0.169-1.423,0.3-2.542,0.459-3.895
					c-2.291-0.321-4.189-0.555-6.431-0.363C12.419,17.212,10.438,17.749,8.645,19.084"/>
			</g>
			<g style="clip-path:url(#SVGID_00000103966423949769140160000006379777268115659705_);">
				<defs>
					
						<rect id="SVGID_00000039118704022603399660000014632696244531787405_" x="33.222" y="10.331" transform="matrix(0.6894 -0.7244 0.7244 0.6894 -5.0954 37.7092)" width="16.4" height="28.93"/>
				</defs>
				<clipPath id="SVGID_00000021816566158390723970000005067438685347072673_">
					<use xlink:href="#SVGID_00000039118704022603399660000014632696244531787405_"  style="overflow:visible;"/>
				</clipPath>
				<path style="clip-path:url(#SVGID_00000021816566158390723970000005067438685347072673_);fill:#E1D153;" d="M31.662,20.756
					c0.687-2.783,5.445-8.623,5.445-8.623c2.138,0.655,1.922,1.072,4.311,2.723c0.099,0.067,1.353,1.321,1.449,1.379
					c0.549,0.322,3.966,3.794,5.133,7.322c0.171,0.516,0.456,0.994,0.719,1.553c1.093-0.452,2.128-0.88,3.181-1.317
					c0.397,1.999-1.926,11.227-3.641,14.437c-3.93-1.885-7.68-4.063-11.456-6.727c1.246-0.708,2.226-1.265,3.41-1.937
					c-1.097-2.038-2.034-3.705-3.515-5.398C35.405,22.689,33.8,21.41,31.662,20.756"/>
			</g>
			<g style="clip-path:url(#SVGID_00000103966423949769140160000006379777268115659705_);">
				<defs>
					
						<rect id="SVGID_00000003810295248823722500000017216988597283917714_" x="76.3" y="12.159" transform="matrix(0.0182 -0.9998 0.9998 0.0182 68.7538 110.7375)" width="28.929" height="16.4"/>
				</defs>
				<clipPath id="SVGID_00000060719246477372085810000016335910061090177168_">
					<use xlink:href="#SVGID_00000003810295248823722500000017216988597283917714_"  style="overflow:visible;"/>
				</clipPath>
				<path style="clip-path:url(#SVGID_00000060719246477372085810000016335910061090177168_);fill:#F26C2B;" d="M87.144,10.438
					c2.515-1.376,10.034-1.816,10.034-1.816c0.963,2.017,0.509,2.14,0.909,5.016c0.016,0.118-0.059,1.89-0.037,2
					c0.134,0.622-0.115,5.488-1.927,8.732c-0.264,0.475-0.423,1.009-0.658,1.58c1.074,0.5,2.088,0.973,3.122,1.453
					c-1.205,1.645-9.575,6.172-13.1,7.077c-1.268-4.17-2.198-8.406-2.787-12.99c1.363,0.441,2.436,0.786,3.732,1.204
					c0.76-2.186,1.356-4.003,1.602-6.239C88.249,14.503,88.107,12.456,87.144,10.438"/>
			</g>
			<g style="clip-path:url(#SVGID_00000103966423949769140160000006379777268115659705_);">
				<defs>
					
						<rect id="SVGID_00000169559643234362302770000000026153282085187220_" x="60.732" y="33.289" transform="matrix(0.8165 -0.5773 0.5773 0.8165 -10.1555 51.0248)" width="28.93" height="16.4"/>
				</defs>
				<clipPath id="SVGID_00000130634690425669379440000012478303771955359910_">
					<use xlink:href="#SVGID_00000169559643234362302770000000026153282085187220_"  style="overflow:visible;"/>
				</clipPath>
				<path style="clip-path:url(#SVGID_00000130634690425669379440000012478303771955359910_);fill:#5699DE;" d="M81.048,32.696
					c2.598,1.213,7.406,7.011,7.406,7.011c-1.055,1.971-1.423,1.677-3.505,3.703c-0.085,0.083-1.558,1.071-1.632,1.155
					c-0.423,0.476-4.492,3.156-8.178,3.618c-0.539,0.069-1.064,0.256-1.663,0.405c0.232,1.161,0.452,2.258,0.677,3.377
					c-2.039,0.002-10.643-4.062-13.459-6.367c2.609-3.491,5.472-6.749,8.817-9.938c0.453,1.36,0.808,2.429,1.24,3.721
					c2.211-0.683,4.027-1.279,5.976-2.404C78.428,35.994,79.992,34.667,81.048,32.696"/>
			</g>
			<g style="clip-path:url(#SVGID_00000103966423949769140160000006379777268115659705_);">
				<defs>
					
						<rect id="SVGID_00000157285920883188463060000009639064305809200258_" x="51.039" y="60.234" transform="matrix(0.734 -0.6792 0.6792 0.734 -34.9745 60.1056)" width="16.4" height="28.929"/>
				</defs>
				<clipPath id="SVGID_00000159428576724317410750000015758650662548294582_">
					<use xlink:href="#SVGID_00000157285920883188463060000009639064305809200258_"  style="overflow:visible;"/>
				</clipPath>
				<path style="clip-path:url(#SVGID_00000159428576724317410750000015758650662548294582_);fill:#523742;" d="M68.722,79.349
					c-0.862,2.734-5.981,8.26-5.981,8.26c-2.093-0.788-1.85-1.192-4.13-2.99c-0.094-0.075-1.266-1.406-1.359-1.468
					c-0.527-0.357-3.717-4.039-4.657-7.634c-0.139-0.526-0.393-1.022-0.619-1.596c-1.12,0.382-2.18,0.744-3.259,1.114
					c-0.269-2.022,2.635-11.083,4.55-14.178c3.804,2.131,7.407,4.543,11.007,7.441c-1.289,0.627-2.302,1.12-3.527,1.717
					c0.966,2.103,1.795,3.825,3.165,5.609C65.109,77.183,66.629,78.561,68.722,79.349"/>
			</g>
		</g>
	</g>
</g>
<g id="Layer_2" style="display:none;">
	<g id="Layer_3" style="display:inline;">
		
			<image style="overflow:visible;" width="80" height="80" xlink:href="../old_images/xrule18.jpg"  transform="matrix(0.2 0 0 0.2 30 82)">
		</image>
	</g>
</g>
</svg>
