<?xml version="1.0" encoding="iso-8859-1"?>
<!-- Generator: Adobe Illustrator 26.0.1, SVG Export Plug-In . SVG Version: 6.00 Build 0)  -->
<svg version="1.1" xmlns="http://www.w3.org/2000/svg" xmlns:xlink="http://www.w3.org/1999/xlink" x="0px" y="0px"
	 viewBox="0 0 100 100" style="enable-background:new 0 0 100 100;" xml:space="preserve">
<g id="Layer_1">
</g>
<g id="Layer_2">
	<g id="G_x28__T1_T1_T1_T1_T1_T1_L2__x29__00000011725626352046628560000011573510445392516797_">
		<g>
			<defs>
				<rect id="SVGID_1_" x="-1" y="7" width="103.806" height="82.14"/>
			</defs>
			<clipPath id="SVGID_00000046316333716520346390000012351521449561871782_">
				<use xlink:href="#SVGID_1_"  style="overflow:visible;"/>
			</clipPath>
			<g style="clip-path:url(#SVGID_00000046316333716520346390000012351521449561871782_);">
				<defs>
					
						<rect id="SVGID_00000144320439364052555370000012270671000605854101_" x="31.743" y="41.502" transform="matrix(0.9997 -0.0264 0.0264 0.9997 -1.4115 1.3653)" width="38.601" height="25.36"/>
				</defs>
				<clipPath id="SVGID_00000085251531623209025380000010565349747442754976_">
					<use xlink:href="#SVGID_00000144320439364052555370000012270671000605854101_"  style="overflow:visible;"/>
				</clipPath>
				<path style="clip-path:url(#SVGID_00000085251531623209025380000010565349747442754976_);fill:#523742;" d="M65.534,49.892
					c1.704-0.099,2.537-3.053,4.668-1.569c-0.19,5.937-0.369,11.806-0.563,18.053c-5.485-0.72-10.604-2.625-15.8-4.082
					c-0.295-0.451-0.536-0.837-0.843-1.288c1.352-1.293,2.742-2.599,4.156-3.947c-1.254-3.751-4.393-4.546-7.201-4.945
					c-4.572-0.649-6.138,3.23-7.426,6.452c-0.094,1.3-0.147,2.193-0.231,3.384c-3.652-0.781-6.968-1.491-10.337-2.226
					c-0.034-0.337-0.145-0.631-0.06-0.836c0.932-2.606,1.524-5.459,2.939-7.726c3.559-5.674,8.546-9.225,15.233-9.631
					c4.28-0.248,8.217,0.648,11.456,3.765C62.947,46.663,64.144,48.28,65.534,49.892"/>
			</g>
			<g style="clip-path:url(#SVGID_00000046316333716520346390000012351521449561871782_);">
				<defs>
					<polygon id="SVGID_00000147184900637380208990000001630060654526574252_" points="30.39,64.548 31.04,89.14 49.19,88.66 
						68.687,88.145 68.037,63.554 					"/>
				</defs>
				<clipPath id="SVGID_00000168812101496451012170000001557209744039229575_">
					<use xlink:href="#SVGID_00000147184900637380208990000001630060654526574252_"  style="overflow:visible;"/>
				</clipPath>
			</g>
			<g style="clip-path:url(#SVGID_00000046316333716520346390000012351521449561871782_);">
				<defs>
					
						<rect id="SVGID_00000159432626354943754960000008612083489868000655_" x="0.325" y="43.672" transform="matrix(0.9807 -0.1957 0.1957 0.9807 -9.864 3.8966)" width="28.929" height="16.4"/>
				</defs>
				<clipPath id="SVGID_00000136377268445520083290000003459828576355835802_">
					<use xlink:href="#SVGID_00000159432626354943754960000008612083489868000655_"  style="overflow:visible;"/>
				</clipPath>
				<path style="clip-path:url(#SVGID_00000136377268445520083290000003459828576355835802_);fill:#E33A3A;" d="M5.87,57.529
					c-1.881-2.164-3.918-9.415-3.918-9.415c1.765-1.372,1.982-0.955,4.707-1.959c0.112-0.042,1.86-0.346,1.962-0.392
					c0.579-0.263,5.385-1.059,8.942,0.017c0.521,0.157,1.076,0.199,1.684,0.306c0.259-1.155,0.504-2.247,0.753-3.361
					c1.864,0.827,8.074,8.037,9.712,11.287c-3.804,2.13-7.743,3.943-12.095,5.497c0.138-1.426,0.247-2.547,0.378-3.903
					c-2.297-0.275-4.2-0.468-6.437-0.232C9.605,55.58,7.636,56.157,5.87,57.529"/>
			</g>
			<g style="clip-path:url(#SVGID_00000046316333716520346390000012351521449561871782_);">
				<defs>
					
						<rect id="SVGID_00000130618066796577361690000010239630212490932117_" x="17.415" y="20.457" transform="matrix(0.4587 -0.8886 0.8886 0.4587 -17.1656 41.6633)" width="16.4" height="28.929"/>
				</defs>
				<clipPath id="SVGID_00000168812159642558135510000007493041991932612007_">
					<use xlink:href="#SVGID_00000130618066796577361690000010239630212490932117_"  style="overflow:visible;"/>
				</clipPath>
				<path style="clip-path:url(#SVGID_00000168812159642558135510000007493041991932612007_);fill:#F26C2B;" d="M15.114,33.779
					c-0.12-2.864,2.81-9.803,2.81-9.803c2.236,0.029,2.145,0.49,4.902,1.405c0.113,0.037,1.668,0.889,1.777,0.917
					c0.617,0.156,4.87,2.531,6.979,5.591c0.309,0.447,0.717,0.826,1.126,1.29c0.923-0.742,1.795-1.442,2.684-2.157
					c0.942,1.808,1.298,11.317,0.551,14.879c-4.301-0.708-8.511-1.748-12.883-3.247c0.998-1.029,1.783-1.837,2.731-2.815
					c-1.624-1.648-2.991-2.986-4.887-4.196C19.249,34.586,17.35,33.808,15.114,33.779"/>
			</g>
			<g style="clip-path:url(#SVGID_00000046316333716520346390000012351521449561871782_);">
				<defs>
					
						<rect id="SVGID_00000138561122877451729290000008142915353829947274_" x="33.636" y="9.121" transform="matrix(0.8329 -0.5535 0.5535 0.8329 -6.062 27.0965)" width="16.399" height="28.929"/>
				</defs>
				<clipPath id="SVGID_00000155846346843267060700000009537821680377546634_">
					<use xlink:href="#SVGID_00000138561122877451729290000008142915353829947274_"  style="overflow:visible;"/>
				</clipPath>
				<path style="clip-path:url(#SVGID_00000155846346843267060700000009537821680377546634_);fill:#E1D153;" d="M33.215,17.482
					c1.287-2.562,7.222-7.2,7.222-7.2c1.94,1.112,1.636,1.471,3.6,3.61c0.081,0.088,1.026,1.589,1.107,1.666
					c0.464,0.436,3.025,4.58,3.381,8.278c0.052,0.542,0.224,1.071,0.356,1.675c1.167-0.199,2.27-0.387,3.395-0.58
					c-0.057,2.038-4.368,10.521-6.753,13.271c-3.415-2.71-6.588-5.666-9.679-9.101c1.372-0.414,2.451-0.739,3.755-1.133
					c-0.618-2.229-1.162-4.063-2.23-6.042C36.436,20.197,35.155,18.594,33.215,17.482"/>
			</g>
			<g style="clip-path:url(#SVGID_00000046316333716520346390000012351521449561871782_);">
				<defs>
					
						<rect id="SVGID_00000160163846037655386490000016314485854469935772_" x="54.18" y="10.101" transform="matrix(0.9999 -0.0125 0.0125 0.9999 -0.3017 0.7804)" width="16.4" height="28.929"/>
				</defs>
				<clipPath id="SVGID_00000046302246138130804270000011766385757986252931_">
					<use xlink:href="#SVGID_00000160163846037655386490000016314485854469935772_"  style="overflow:visible;"/>
				</clipPath>
				<path style="clip-path:url(#SVGID_00000046302246138130804270000011766385757986252931_);fill:#55C95A;" d="M58.455,14.759
					c2.472-1.452,9.974-2.125,9.974-2.125c1.025,1.988,0.575,2.124,1.063,4.987c0.02,0.118-0.002,1.892,0.025,2
					c0.152,0.618,0.053,5.489-1.657,8.788c-0.25,0.483-0.393,1.021-0.61,1.599c1.088,0.467,2.117,0.908,3.165,1.357
					c-1.154,1.681-9.381,6.463-12.876,7.476c-1.396-4.13-2.456-8.335-3.186-12.898c1.377,0.398,2.459,0.71,3.768,1.088
					c0.692-2.208,1.231-4.043,1.409-6.285C59.685,18.788,59.48,16.746,58.455,14.759"/>
			</g>
			<g style="clip-path:url(#SVGID_00000046316333716520346390000012351521449561871782_);">
				<defs>
					
						<rect id="SVGID_00000183941997317386833430000001332661049411553920_" x="64.845" y="26.427" transform="matrix(0.4976 -0.8674 0.8674 0.4976 9.8096 86.1904)" width="28.929" height="16.401"/>
				</defs>
				<clipPath id="SVGID_00000011024512589530657080000012627641407071006375_">
					<use xlink:href="#SVGID_00000183941997317386833430000001332661049411553920_"  style="overflow:visible;"/>
				</clipPath>
				<path style="clip-path:url(#SVGID_00000011024512589530657080000012627641407071006375_);fill:#5699DE;" d="M80.915,24.187
					c2.867,0.006,9.669,3.241,9.669,3.241c-0.127,2.232-0.585,2.121-1.62,4.834c-0.042,0.112-0.963,1.628-0.995,1.735
					c-0.183,0.61-2.744,4.754-5.894,6.726c-0.46,0.288-0.857,0.679-1.338,1.067c0.7,0.955,1.361,1.858,2.036,2.777
					c-1.848,0.861-11.364,0.797-14.889-0.107c0.897-4.266,2.122-8.426,3.813-12.727c0.984,1.043,1.757,1.862,2.692,2.852
					c1.718-1.549,3.115-2.855,4.408-4.696C79.926,28.282,80.787,26.419,80.915,24.187"/>
			</g>
			<g style="clip-path:url(#SVGID_00000046316333716520346390000012351521449561871782_);">
				<defs>
					
						<rect id="SVGID_00000074422523081762267390000001380103576474783138_" x="71.856" y="43.436" transform="matrix(0.7981 -0.6026 0.6026 0.7981 -13.6829 62.4418)" width="28.929" height="16.4"/>
				</defs>
				<clipPath id="SVGID_00000091013737354483225880000008593165676611867815_">
					<use xlink:href="#SVGID_00000074422523081762267390000001380103576474783138_"  style="overflow:visible;"/>
				</clipPath>
				<path style="clip-path:url(#SVGID_00000091013737354483225880000008593165676611867815_);fill:#AD70D6;" d="M91.895,42.663
					c2.634,1.131,7.622,6.776,7.622,6.776c-0.994,2.003-1.371,1.721-3.388,3.811c-0.083,0.086-1.524,1.119-1.596,1.205
					c-0.408,0.489-4.39,3.295-8.06,3.872c-0.538,0.085-1.056,0.288-1.65,0.457c0.268,1.152,0.522,2.242,0.782,3.353
					c-2.037,0.066-10.764-3.727-13.652-5.942c2.5-3.572,5.259-6.917,8.502-10.209c0.496,1.345,0.885,2.402,1.357,3.68
					c2.188-0.751,3.985-1.404,5.897-2.59C89.379,46.041,90.901,44.666,91.895,42.663"/>
			</g>
		</g>
	</g>
	<g id="L1_00000165217487629942618650000007480113447960968636_">
		<g>
			<defs>
				<rect id="SVGID_00000065788257172879273160000002147249142220004261_" x="67" y="68" width="18.96" height="18.48"/>
			</defs>
			<clipPath id="SVGID_00000138536480977410908970000009951052742685254542_">
				<use xlink:href="#SVGID_00000065788257172879273160000002147249142220004261_"  style="overflow:visible;"/>
			</clipPath>
			<g style="clip-path:url(#SVGID_00000138536480977410908970000009951052742685254542_);">
				<defs>
					<rect id="SVGID_00000145737197056775948050000005222902035665215375_" x="67" y="68" width="18.96" height="18.48"/>
				</defs>
				<clipPath id="SVGID_00000079453913162167432440000010327230096545643930_">
					<use xlink:href="#SVGID_00000145737197056775948050000005222902035665215375_"  style="overflow:visible;"/>
				</clipPath>
				<g style="clip-path:url(#SVGID_00000079453913162167432440000010327230096545643930_);">
					<defs>
						
							<rect id="SVGID_00000170280750054772487020000004366419159502194062_" x="67.082" y="67.948" width="19.053" height="18.706"/>
					</defs>
					<clipPath id="SVGID_00000106148378029296006070000006713090986941670283_">
						<use xlink:href="#SVGID_00000170280750054772487020000004366419159502194062_"  style="overflow:visible;"/>
					</clipPath>
					<g style="clip-path:url(#SVGID_00000106148378029296006070000006713090986941670283_);">
						<defs>
							
								<rect id="SVGID_00000156554191825266980780000015204415068753537957_" x="67.082" y="67.948" width="19.053" height="18.706"/>
						</defs>
						<clipPath id="SVGID_00000142861413858206597020000004937701486517455532_">
							<use xlink:href="#SVGID_00000156554191825266980780000015204415068753537957_"  style="overflow:visible;"/>
						</clipPath>
						<polygon style="clip-path:url(#SVGID_00000142861413858206597020000004937701486517455532_);fill:#9F9EB1;" points="
							86.135,76.613 86.033,77.612 85.624,79.541 85.075,81.653 83.799,83.406 82.278,84.966 80.25,85.798 77.753,86.326 
							76.801,86.654 75.961,86.291 74.192,86.033 72.483,85.474 70.331,84.515 68.821,82.698 67.708,80.604 67.081,77.29 
							67.37,74.802 68.548,72.61 69.996,70.616 72.056,69.241 74.076,68.587 76.102,67.956 77.561,67.948 80.529,69.063 
							82.727,70.112 84.306,71.941 85.461,74.116 						"/>
					</g>
				</g>
			</g>
		</g>
	</g>
</g>
</svg>
