<?xml version="1.0" encoding="iso-8859-1"?>
<!-- Generator: Adobe Illustrator 26.0.1, SVG Export Plug-In . SVG Version: 6.00 Build 0)  -->
<svg version="1.1" xmlns="http://www.w3.org/2000/svg" xmlns:xlink="http://www.w3.org/1999/xlink" x="0px" y="0px"
	 viewBox="0 0 100 100" style="enable-background:new 0 0 100 100;" xml:space="preserve">
<g id="Layer_1">
	<g id="G_x28__T1_T1_T1_T2_T1_T1_T1__x29__00000148638452693361221610000007727609536060089252_">
		<g>
			<defs>
				<rect id="SVGID_1_" x="6" y="-1" width="87.8" height="102.402"/>
			</defs>
			<clipPath id="SVGID_00000057142042488382984950000009980505976234672571_">
				<use xlink:href="#SVGID_1_"  style="overflow:visible;"/>
			</clipPath>
			<g style="clip-path:url(#SVGID_00000057142042488382984950000009980505976234672571_);">
				<defs>
					<rect id="SVGID_00000168816225934429322790000012985581551427725500_" x="34.843" y="33" width="30.094" height="18.776"/>
				</defs>
				<clipPath id="SVGID_00000157296782229331024530000017179521888739201468_">
					<use xlink:href="#SVGID_00000168816225934429322790000012985581551427725500_"  style="overflow:visible;"/>
				</clipPath>
				<path style="clip-path:url(#SVGID_00000157296782229331024530000017179521888739201468_);fill:#523742;" d="M61.271,39.496
					c1.33-0.04,2.04-2.21,3.67-1.07c-0.27,4.39-0.53,8.73-0.81,13.35c-4.26-0.64-8.21-2.15-12.23-3.33
					c-0.22-0.34-0.4-0.63-0.63-0.97c1.08-0.93,2.19-1.87,3.32-2.84c-0.9-2.8-3.33-3.45-5.51-3.8c-3.55-0.57-4.85,2.27-5.92,4.63
					c-0.1,0.96-0.16,1.62-0.25,2.5c-2.83-0.65-5.4-1.24-8.01-1.85c-0.02-0.25-0.1-0.47-0.03-0.62c0.78-1.91,1.3-4.01,2.45-5.66
					c2.89-4.13,6.85-6.66,12.07-6.83c3.34-0.1,6.39,0.64,8.85,3.01C59.321,37.056,60.221,38.276,61.271,39.496"/>
			</g>
			<g style="clip-path:url(#SVGID_00000057142042488382984950000009980505976234672571_);">
				<defs>
					<rect id="SVGID_00000013885983195003849710000001376855073788445349_" x="33.581" y="49.656" width="29.36" height="18.213"/>
				</defs>
				<clipPath id="SVGID_00000101086553500104863130000002005063948666226108_">
					<use xlink:href="#SVGID_00000013885983195003849710000001376855073788445349_"  style="overflow:visible;"/>
				</clipPath>
				<path style="clip-path:url(#SVGID_00000101086553500104863130000002005063948666226108_);fill:#9F9EB1;" d="M62.941,55.446
					c-0.1,0.3-0.17,0.6-0.29,0.87c-1.52,3.45-3.13,6.93-6.51,8.9c-1.9,1.11-4.16,1.59-6.26,2.36c-2.15,0.78-4.14-0.2-6.16-0.61
					c-1.67-0.33-2.86-1.56-4-2.76c-0.82-0.86-1.62-1.74-2.62-2.83c-1.02,0.3-2.14,0.63-3.52,1.04c0.24-4.15,0.49-8.3,0.76-12.76
					c4,1.19,7.88,2.35,12.16,3.63c-1.18,1.02-2.12,1.83-3.03,2.63v1.59c1.49,2.59,3.87,3.08,6.63,3.14
					c3.42,0.08,4.13-2.66,5.59-4.93v-1.92C58.141,54.356,60.501,54.886,62.941,55.446"/>
			</g>
			<g style="clip-path:url(#SVGID_00000057142042488382984950000009980505976234672571_);">
				<defs>
					<rect id="SVGID_00000013152004014493447460000015036134954618159509_" x="8.579" y="23" width="28.93" height="16.4"/>
				</defs>
				<clipPath id="SVGID_00000140706663145744829650000004061441979330733697_">
					<use xlink:href="#SVGID_00000013152004014493447460000015036134954618159509_"  style="overflow:visible;"/>
				</clipPath>
				<path style="clip-path:url(#SVGID_00000140706663145744829650000004061441979330733697_);fill:#E1D153;" d="M13.189,35.002
					c-1.421-2.49-2-10-2-10c2-1,2.131-0.548,5-1c0.118-0.019,1.891,0.025,2,0c0.62-0.145,5.489,0.015,8.766,1.766
					c0.48,0.256,1.016,0.406,1.592,0.63c0.48-1.082,0.934-2.105,1.396-3.148c1.666,1.175,6.345,9.461,7.315,12.969
					c-4.147,1.344-8.365,2.351-12.937,3.024c0.415-1.372,0.741-2.45,1.135-3.754c-2.199-0.719-4.027-1.281-6.267-1.487
					C17.233,33.822,15.189,34.002,13.189,35.002"/>
			</g>
			<g style="clip-path:url(#SVGID_00000057142042488382984950000009980505976234672571_);">
				<defs>
					
						<rect id="SVGID_00000176725566380304141660000000224426115533331077_" x="40.226" y="1.144" transform="matrix(0.8923 -0.4514 0.4514 0.8923 -1.8312 23.5406)" width="16.4" height="28.929"/>
				</defs>
				<clipPath id="SVGID_00000136404578153088354960000013674296119928074898_">
					<use xlink:href="#SVGID_00000176725566380304141660000000224426115533331077_"  style="overflow:visible;"/>
				</clipPath>
				<path style="clip-path:url(#SVGID_00000136404578153088354960000013674296119928074898_);fill:#5699DE;" d="M40.584,8.531
					c1.58-2.392,8.02-6.299,8.02-6.299c1.795,1.333,1.451,1.654,3.15,4.01c0.07,0.097,0.831,1.699,0.903,1.785
					c0.409,0.488,2.464,4.905,2.381,8.619c-0.012,0.544,0.096,1.09,0.156,1.705c1.183-0.06,2.3-0.117,3.44-0.175
					c-0.297,2.017-5.578,9.932-8.271,12.381c-3.071-3.093-5.874-6.402-8.538-10.178c1.411-0.249,2.521-0.445,3.862-0.682
					c-0.351-2.287-0.675-4.172-1.502-6.264C43.462,11.607,42.379,9.864,40.584,8.531"/>
			</g>
			<g style="clip-path:url(#SVGID_00000057142042488382984950000009980505976234672571_);">
				<defs>
					
						<rect id="SVGID_00000127025996554203378410000011104677068262601859_" x="63.725" y="19.135" transform="matrix(0.6469 -0.7625 0.7625 0.6469 6.7621 69.2741)" width="28.929" height="16.399"/>
				</defs>
				<clipPath id="SVGID_00000183930985938982110190000006036886954087022982_">
					<use xlink:href="#SVGID_00000127025996554203378410000011104677068262601859_"  style="overflow:visible;"/>
				</clipPath>
				<path style="clip-path:url(#SVGID_00000183930985938982110190000006036886954087022982_);fill:#AD70D6;" d="M81.666,17.361
					c2.818,0.527,8.919,4.944,8.919,4.944c-0.531,2.173-0.961,1.98-2.472,4.46c-0.062,0.102-1.243,1.426-1.294,1.525
					c-0.291,0.567-3.563,4.176-7.018,5.542c-0.506,0.2-0.967,0.512-1.51,0.806c0.514,1.066,1.001,2.074,1.497,3.101
					c-1.974,0.511-11.319-1.282-14.622-2.812c1.659-4.032,3.62-7.9,6.064-11.821c0.778,1.204,1.389,2.15,2.128,3.294
					c1.971-1.212,3.583-2.242,5.189-3.817C79.949,21.208,81.135,19.533,81.666,17.361"/>
			</g>
			<g style="clip-path:url(#SVGID_00000057142042488382984950000009980505976234672571_);">
				<defs>
					
						<rect id="SVGID_00000103250266878834328600000003330269050208429243_" x="67.7" y="55.155" transform="matrix(0.0158 -0.9999 0.9999 0.0158 5.0901 144.4102)" width="16.4" height="28.929"/>
				</defs>
				<clipPath id="SVGID_00000053513312325574044800000002983942312811394749_">
					<use xlink:href="#SVGID_00000103250266878834328600000003330269050208429243_"  style="overflow:visible;"/>
				</clipPath>
				<path style="clip-path:url(#SVGID_00000053513312325574044800000002983942312811394749_);fill:#55C95A;" d="M85.813,65.974
					c1.381,2.512,1.842,10.03,1.842,10.03c-2.016,0.969-2.14,0.515-5.016,0.921c-0.118,0.017-1.89-0.055-1.999-0.031
					c-0.622,0.135-5.488-0.102-8.737-1.905c-0.476-0.263-1.01-0.422-1.582-0.655c-0.497,1.074-0.967,2.09-1.446,3.126
					c-1.647-1.202-6.194-9.56-7.109-13.083c4.168-1.279,8.401-2.219,12.983-2.819c-0.436,1.365-0.779,2.438-1.194,3.735
					c2.188,0.754,4.006,1.345,6.243,1.586C81.751,67.09,83.797,66.942,85.813,65.974"/>
			</g>
			<g style="clip-path:url(#SVGID_00000057142042488382984950000009980505976234672571_);">
				<defs>
					
						<rect id="SVGID_00000042004242817904975410000004412990090665805708_" x="42.074" y="70.344" transform="matrix(0.8993 -0.4372 0.4372 0.8993 -32.0214 30.5186)" width="16.4" height="28.929"/>
				</defs>
				<clipPath id="SVGID_00000164511631420551562510000009916033017259108023_">
					<use xlink:href="#SVGID_00000042004242817904975410000004412990090665805708_"  style="overflow:visible;"/>
				</clipPath>
				<path style="clip-path:url(#SVGID_00000164511631420551562510000009916033017259108023_);fill:#F26C2B;" d="M58.002,92.008
					c-1.618,2.367-8.119,6.171-8.119,6.171c-1.774-1.361-1.424-1.677-3.085-4.059c-0.069-0.098-0.805-1.712-0.875-1.799
					c-0.401-0.494-2.387-4.943-2.245-8.656c0.021-0.543-0.079-1.091-0.129-1.707c-1.183,0.042-2.302,0.081-3.442,0.121
					c0.328-2.012,5.734-9.843,8.465-12.249c3.022,3.142,5.772,6.495,8.377,10.312c-1.416,0.227-2.528,0.405-3.873,0.621
					c0.315,2.292,0.609,4.182,1.403,6.286C55.173,88.887,56.228,90.647,58.002,92.008"/>
			</g>
			<g style="clip-path:url(#SVGID_00000057142042488382984950000009980505976234672571_);">
				<defs>
					
						<rect id="SVGID_00000150812600243511279230000000483535666056261798_" x="7.235" y="64.429" transform="matrix(0.6589 -0.7522 0.7522 0.6589 -47.2312 41.0946)" width="28.929" height="16.4"/>
				</defs>
				<clipPath id="SVGID_00000033347187661614866580000009393378535711457169_">
					<use xlink:href="#SVGID_00000150812600243511279230000000483535666056261798_"  style="overflow:visible;"/>
				</clipPath>
				<path style="clip-path:url(#SVGID_00000033347187661614866580000009393378535711457169_);fill:#E33A3A;" d="M18.066,82.546
					c-2.809-0.572-8.84-5.085-8.84-5.085c0.566-2.163,0.992-1.964,2.543-4.42c0.063-0.101,1.264-1.406,1.317-1.504
					c0.3-0.562,3.629-4.119,7.105-5.43c0.509-0.193,0.975-0.497,1.523-0.783c-0.498-1.074-0.968-2.089-1.448-3.124
					c1.981-0.479,11.297,1.461,14.575,3.043c-1.721,4.005-3.743,7.841-6.25,11.724c-0.758-1.216-1.354-2.172-2.076-3.327
					c-1.989,1.18-3.617,2.185-5.248,3.734C19.843,78.727,18.632,80.383,18.066,82.546"/>
			</g>
		</g>
	</g>
</g>
<g id="Layer_2">
	<g id="Layer_3">
	</g>
</g>
</svg>
