<svg id="Layer_1" data-name="Layer 1" xmlns="http://www.w3.org/2000/svg" xmlns:xlink="http://www.w3.org/1999/xlink" viewBox="0 0 88.9 91.89"><defs><style>.cls-1{fill:none;}.cls-2{clip-path:url(#clip-path);}.cls-3{clip-path:url(#clip-path-2);}.cls-4{fill:#9f9eb1;}.cls-5{clip-path:url(#clip-path-3);}.cls-6{fill:#523742;}.cls-7{clip-path:url(#clip-path-4);}.cls-8{fill:#e1d153;}.cls-9{clip-path:url(#clip-path-5);}.cls-10{fill:#5699de;}.cls-11{clip-path:url(#clip-path-6);}.cls-12{fill:#ad70d6;}.cls-13{clip-path:url(#clip-path-7);}.cls-14{clip-path:url(#clip-path-9);}.cls-15{fill:#55c95a;}.cls-16{fill:#e33a3a;}.cls-17{fill:#f26c2b;}</style><clipPath id="clip-path" transform="translate(-3.95 -3.26)"><rect class="cls-1" x="-1" width="67.09" height="68.48"/></clipPath><clipPath id="clip-path-2" transform="translate(-3.95 -3.26)"><rect class="cls-1" x="24.57" y="33.61" width="30.09" height="18.78"/></clipPath><clipPath id="clip-path-3" transform="translate(-3.95 -3.26)"><rect class="cls-1" x="23.31" y="50.27" width="29.36" height="18.21"/></clipPath><clipPath id="clip-path-4" transform="translate(-3.95 -3.26)"><rect class="cls-1" x="6.57" y="14.35" width="16.4" height="28.93" transform="translate(-16.35 37.77) rotate(-78.91)"/></clipPath><clipPath id="clip-path-5" transform="translate(-3.95 -3.26)"><rect class="cls-1" x="26.97" y="2.16" width="16.4" height="28.93" transform="translate(-3.6 19.8) rotate(-29.99)"/></clipPath><clipPath id="clip-path-6" transform="translate(-3.95 -3.26)"><rect class="cls-1" x="41.7" y="13.43" width="28.93" height="16.4" transform="translate(27.77 74.69) rotate(-82.9)"/></clipPath><clipPath id="clip-path-7" transform="translate(-3.95 -3.26)"><rect class="cls-1" x="51" y="56" width="41.85" height="39.15"/></clipPath><clipPath id="clip-path-9" transform="translate(-3.95 -3.26)"><rect class="cls-1" x="51" y="56" width="41.85" height="39.15"/></clipPath></defs><g id="G_T1_T1_T1_L2_" data-name="G( T1 T1 T1 L2 )"><g class="cls-2"><g class="cls-3"><path class="cls-4" d="M51,40.11c1.33,0,2-2.21,3.67-1.07-.27,4.39-.53,8.73-.81,13.35-4.26-.64-8.21-2.15-12.23-3.33-.22-.34-.4-.63-.63-1l3.32-2.84c-.9-2.8-3.33-3.45-5.51-3.8-3.55-.57-4.85,2.27-5.92,4.63-.1,1-.16,1.62-.25,2.5l-8-1.85c0-.25-.1-.47,0-.62.78-1.91,1.3-4,2.45-5.66a14.82,14.82,0,0,1,12.07-6.83c3.34-.1,6.39.64,8.85,3,1.08,1,2,2.26,3,3.48" transform="translate(-3.95 -3.26)"/></g><g class="cls-5"><path class="cls-6" d="M52.67,56.06c-.1.3-.17.6-.29.87-1.52,3.45-3.13,6.93-6.51,8.9-1.9,1.11-4.16,1.59-6.26,2.36s-4.14-.2-6.16-.61c-1.67-.33-2.86-1.56-4-2.76-.82-.86-1.62-1.74-2.62-2.83l-3.52,1c.24-4.15.49-8.3.76-12.76L36.23,53.9c-1.18,1-2.12,1.83-3,2.63v1.59c1.49,2.59,3.87,3.08,6.63,3.14,3.42.08,4.13-2.66,5.59-4.93V54.41l7.25,1.65" transform="translate(-3.95 -3.26)"/></g><g class="cls-7"><path class="cls-8" d="M4.37,30.65c-.92-2.72,0-10.2,0-10.2,2.16-.59,2.2-.13,5.1,0,.12,0,1.85.39,2,.39a18.85,18.85,0,0,1,8.26,3.42,15.84,15.84,0,0,0,1.45.92l2-2.82c1.41,1.47,4.41,10.5,4.69,14.13A77.62,77.62,0,0,1,14.48,37l1.83-3.46a27.52,27.52,0,0,0-5.86-2.67,10.87,10.87,0,0,0-6.08-.17" transform="translate(-3.95 -3.26)"/></g><g class="cls-9"><path class="cls-10" d="M27,10c1.45-2.47,7.66-6.73,7.66-6.73C36.48,4.49,36.15,4.83,38,7.09c.07.09.92,1.65,1,1.73a19.15,19.15,0,0,1,2.85,8.48A16.48,16.48,0,0,0,42.08,19l3.42-.36c-.18,2-5,10.22-7.57,12.82a78.1,78.1,0,0,1-9.09-9.7l3.82-.89a27.53,27.53,0,0,0-1.84-6.17A10.87,10.87,0,0,0,27,10" transform="translate(-3.95 -3.26)"/></g><g class="cls-11"><path class="cls-12" d="M53.61,11.38c2.65-1.1,10.17-.75,10.17-.75.75,2.11.29,2.18.38,5.08,0,.12-.26,1.88-.25,2a19,19,0,0,1-2.83,8.48,13.11,13.11,0,0,0-.82,1.5l3,1.78C61.83,31,53,34.58,49.43,35.11A78.36,78.36,0,0,1,48,21.9l3.59,1.59a28,28,0,0,0,2.25-6,10.84,10.84,0,0,0-.26-6.08" transform="translate(-3.95 -3.26)"/></g></g></g><g id="L3"><g class="cls-13"><g class="cls-13"><g class="cls-14"><g class="cls-14"><path class="cls-15" d="M92.85,74.47v4.32c-.1.32-.19.64-.29,1-.62,1.94-1.1,3.94-1.9,5.8a6.86,6.86,0,0,1-2.11,2.56c-1.74,1.34-3.62,2.48-5.54,3.76l1.74,3c-2.67.91-14.34-.29-15.63-1.61,1-2.61,1.86-5.28,2.93-8a49.36,49.36,0,0,1,2.23-4.82l2.53,3.12,5.43-3.89c.22-2,2.57-3.46,1.4-6.06l1.9.17,6.63.5a3.31,3.31,0,0,1,.68.2" transform="translate(-3.95 -3.26)"/><path class="cls-16" d="M85.36,56c1.67,1.17,6.35,9.46,7.32,13A77,77,0,0,1,83.2,71.4c-1.14.22-2.29.42-3.46.59.42-1.37.74-2.45,1.14-3.75-2.2-.72-4.36-1.83-6.6-2-2-.18-4.27-.29-5.84,1.66l-.89-1.56-3.23-5.65c2.19-1.64,4.45-3.27,7.31-3.72a2,2,0,0,0,.36,0c3.83-1.81,7.11-.14,10.39,1.62.48.25,1,.4,1.59.63L85.36,56" transform="translate(-3.95 -3.26)"/><path class="cls-17" d="M54.64,80.76a36.87,36.87,0,0,1-.13-4.83c0-.46,0-.93,0-1.41L51,74.34c.2-2.35,7.28-11.86,9.39-12.58,1.59,1.92,3.26,3.81,4.83,5.87a38.06,38.06,0,0,1,3.39,5.19l-3.9.54c.17,2.13-.06,4.4.64,6.32a7.56,7.56,0,0,0,4.25,4.78l-5.18,7.3c-2.62-1.48-5.19-2.85-6.86-5.41a8.19,8.19,0,0,0-1.2-1.3,7.13,7.13,0,0,1-1.72-4.29" transform="translate(-3.95 -3.26)"/></g></g></g></g></g></svg>