<?xml version="1.0" encoding="iso-8859-1"?>
<!-- Generator: Adobe Illustrator 26.0.1, SVG Export Plug-In . SVG Version: 6.00 Build 0)  -->
<svg version="1.1" xmlns="http://www.w3.org/2000/svg" xmlns:xlink="http://www.w3.org/1999/xlink" x="0px" y="0px"
	 viewBox="0 0 100 100" style="enable-background:new 0 0 100 100;" xml:space="preserve">
<g id="Layer_1">
	<g id="L3_G_x28__T1_L1__x29__T1_T1_T1_00000083802717949794005040000016280737309654892975_">
		<g>
			<defs>
				<rect id="SVGID_1_" x="5" y="8" width="101.892" height="86.633"/>
			</defs>
			<clipPath id="SVGID_00000043423878237945797590000016569866456829022139_">
				<use xlink:href="#SVGID_1_"  style="overflow:visible;"/>
			</clipPath>
			<g style="clip-path:url(#SVGID_00000043423878237945797590000016569866456829022139_);">
				<defs>
					<rect id="SVGID_00000165937984252716088540000004228497725891848620_" x="71.082" y="8.001" width="18.878" height="18.48"/>
				</defs>
				<clipPath id="SVGID_00000133521344960577167010000002930623037152780434_">
					<use xlink:href="#SVGID_00000165937984252716088540000004228497725891848620_"  style="overflow:visible;"/>
				</clipPath>
				<g style="clip-path:url(#SVGID_00000133521344960577167010000002930623037152780434_);">
					<defs>
						<rect id="SVGID_00000070087758697138210420000002692812383312853903_" x="71.08" y="7.95" width="19.06" height="18.7"/>
					</defs>
					<clipPath id="SVGID_00000090295980728708936420000002763625417399277488_">
						<use xlink:href="#SVGID_00000070087758697138210420000002692812383312853903_"  style="overflow:visible;"/>
					</clipPath>
					<g style="clip-path:url(#SVGID_00000090295980728708936420000002763625417399277488_);">
						<defs>
							<rect id="SVGID_00000065043709093612410750000003043782935560117687_" x="71.08" y="7.95" width="19.06" height="18.7"/>
						</defs>
						<clipPath id="SVGID_00000026885467561899781020000012934929355786151599_">
							<use xlink:href="#SVGID_00000065043709093612410750000003043782935560117687_"  style="overflow:visible;"/>
						</clipPath>
						<polygon style="clip-path:url(#SVGID_00000026885467561899781020000012934929355786151599_);fill:#55C95A;" points="
							89.46,14.12 90.14,16.61 90.03,17.61 89.62,19.54 89.08,21.65 87.8,23.41 86.28,24.97 84.25,25.8 81.75,26.33 80.8,26.65 
							79.96,26.29 78.19,26.03 76.481,25.47 74.33,24.51 72.82,22.7 71.71,20.6 71.08,17.29 71.37,14.8 72.55,12.61 74,10.62 
							76.06,9.24 78.08,8.59 80.1,7.96 81.56,7.95 84.53,9.06 86.731,10.11 88.31,11.94 						"/>
					</g>
				</g>
			</g>
			<g style="clip-path:url(#SVGID_00000043423878237945797590000016569866456829022139_);">
				<defs>
					<rect id="SVGID_00000074433630092166819870000012670230680108839313_" x="11.081" y="8.001" width="18.878" height="18.48"/>
				</defs>
				<clipPath id="SVGID_00000180337043629552010260000002407584939654040495_">
					<use xlink:href="#SVGID_00000074433630092166819870000012670230680108839313_"  style="overflow:visible;"/>
				</clipPath>
				<g style="clip-path:url(#SVGID_00000180337043629552010260000002407584939654040495_);">
					<defs>
						<rect id="SVGID_00000039110740888670797800000018400049677843366842_" x="11.08" y="7.95" width="19.06" height="18.7"/>
					</defs>
					<clipPath id="SVGID_00000000920779397647122050000010280894844910675358_">
						<use xlink:href="#SVGID_00000039110740888670797800000018400049677843366842_"  style="overflow:visible;"/>
					</clipPath>
					<g style="clip-path:url(#SVGID_00000000920779397647122050000010280894844910675358_);">
						<defs>
							<rect id="SVGID_00000155123703343390284050000011835206351628310424_" x="11.08" y="7.95" width="19.06" height="18.7"/>
						</defs>
						<clipPath id="SVGID_00000141421280027238627050000002001426357848152243_">
							<use xlink:href="#SVGID_00000155123703343390284050000011835206351628310424_"  style="overflow:visible;"/>
						</clipPath>
						<polygon style="clip-path:url(#SVGID_00000141421280027238627050000002001426357848152243_);fill:#E33A3A;" points="
							29.46,14.12 30.14,16.61 30.03,17.61 29.62,19.54 29.08,21.65 27.8,23.41 26.28,24.97 24.25,25.8 21.75,26.33 20.8,26.65 
							19.96,26.29 18.19,26.03 16.48,25.47 14.33,24.51 12.82,22.7 11.71,20.6 11.08,17.29 11.37,14.8 12.55,12.61 14,10.62 
							16.06,9.24 18.08,8.59 20.1,7.96 21.56,7.95 24.53,9.06 26.73,10.11 28.31,11.94 						"/>
					</g>
				</g>
			</g>
			<g style="clip-path:url(#SVGID_00000043423878237945797590000016569866456829022139_);">
				<defs>
					<rect id="SVGID_00000013911500345191266500000009588062263836929164_" x="42.082" y="15" width="18.878" height="18.481"/>
				</defs>
				<clipPath id="SVGID_00000047054137587279042390000010820924611034103426_">
					<use xlink:href="#SVGID_00000013911500345191266500000009588062263836929164_"  style="overflow:visible;"/>
				</clipPath>
				<g style="clip-path:url(#SVGID_00000047054137587279042390000010820924611034103426_);">
					<defs>
						<rect id="SVGID_00000090285920849547485780000012359763459722145664_" x="42.08" y="14.95" width="19.06" height="18.7"/>
					</defs>
					<clipPath id="SVGID_00000114050445803860259160000002764207576708504213_">
						<use xlink:href="#SVGID_00000090285920849547485780000012359763459722145664_"  style="overflow:visible;"/>
					</clipPath>
					<g style="clip-path:url(#SVGID_00000114050445803860259160000002764207576708504213_);">
						<defs>
							<rect id="SVGID_00000106126005316032205390000009039078943863044025_" x="42.08" y="14.95" width="19.06" height="18.7"/>
						</defs>
						<clipPath id="SVGID_00000125573603933462155240000012573411094141951913_">
							<use xlink:href="#SVGID_00000106126005316032205390000009039078943863044025_"  style="overflow:visible;"/>
						</clipPath>
						<polygon style="clip-path:url(#SVGID_00000125573603933462155240000012573411094141951913_);fill:#F26C2B;" points="
							60.46,21.12 61.14,23.61 61.03,24.61 60.62,26.54 60.08,28.65 58.8,30.41 57.28,31.97 55.25,32.8 52.75,33.33 51.8,33.65 
							50.96,33.29 49.19,33.03 47.48,32.47 45.33,31.51 43.82,29.7 42.71,27.6 42.08,24.29 42.37,21.8 43.55,19.61 45,17.62 
							47.06,16.24 49.08,15.59 51.1,14.96 52.56,14.95 55.53,16.06 57.731,17.11 59.31,18.94 						"/>
					</g>
				</g>
			</g>
			<g style="clip-path:url(#SVGID_00000043423878237945797590000016569866456829022139_);">
				<defs>
					<rect id="SVGID_00000080198807821958387410000016176172782158107777_" x="5.005" y="46.002" width="46.995" height="43.958"/>
				</defs>
				<clipPath id="SVGID_00000040572031188291372040000016994250335955510957_">
					<use xlink:href="#SVGID_00000080198807821958387410000016176172782158107777_"  style="overflow:visible;"/>
				</clipPath>
				<g style="clip-path:url(#SVGID_00000040572031188291372040000016994250335955510957_);">
					<defs>
						<rect id="SVGID_00000112627660396304054720000009763964624986158465_" x="19.96" y="46" width="31.85" height="17.96"/>
					</defs>
					<clipPath id="SVGID_00000103963487137725106840000017621654505551080337_">
						<use xlink:href="#SVGID_00000112627660396304054720000009763964624986158465_"  style="overflow:visible;"/>
					</clipPath>
					<g style="clip-path:url(#SVGID_00000103963487137725106840000017621654505551080337_);">
						<defs>
							<rect id="SVGID_00000066485401203666999140000000820256873048087453_" x="19.96" y="46" width="31.85" height="17.96"/>
						</defs>
						<clipPath id="SVGID_00000026142144727945326610000005810914053787483302_">
							<use xlink:href="#SVGID_00000066485401203666999140000000820256873048087453_"  style="overflow:visible;"/>
						</clipPath>
						<path style="clip-path:url(#SVGID_00000026142144727945326610000005810914053787483302_);fill:#5699DE;" d="M43.59,46
							c1.87,1.32,7.13,10.63,8.22,14.57c-3.46,1.12-6.97,2.03-10.65,2.73c-1.28,0.24-2.57,0.47-3.88,0.66
							c0.47-1.54,0.83-2.75,1.28-4.21c-2.47-0.81-4.9-2.06-7.41-2.29c-2.19-0.21-4.8-0.33-6.56,1.86c-0.34-0.59-0.68-1.18-1-1.75
							c-1.24-2.16-2.42-4.22-3.63-6.35c2.46-1.84,5-3.67,8.21-4.17c0.14-0.03,0.29,0.01,0.41-0.04c4.3-2.03,7.98-0.15,11.66,1.82
							c0.54,0.28,1.14,0.45,1.79,0.71C42.57,48.32,43.07,47.17,43.59,46"/>
					</g>
				</g>
				<g style="clip-path:url(#SVGID_00000040572031188291372040000016994250335955510957_);">
					<defs>
						<rect id="SVGID_00000088122552733083561820000008741360110683549077_" x="25.35" y="65.77" width="26.65" height="24.196"/>
					</defs>
					<clipPath id="SVGID_00000041974085707439196490000004440861986069342904_">
						<use xlink:href="#SVGID_00000088122552733083561820000008741360110683549077_"  style="overflow:visible;"/>
					</clipPath>
					<g style="clip-path:url(#SVGID_00000041974085707439196490000004440861986069342904_);">
						<defs>
							<rect id="SVGID_00000010279867156644434270000012849524890295261852_" x="25.35" y="65.77" width="26.65" height="24.196"/>
						</defs>
						<clipPath id="SVGID_00000057131822707457310580000001245378379846077077_">
							<use xlink:href="#SVGID_00000010279867156644434270000012849524890295261852_"  style="overflow:visible;"/>
						</clipPath>
						<path style="clip-path:url(#SVGID_00000057131822707457310580000001245378379846077077_);fill:#AD70D6;" d="M52,66.74v4.85
							c-0.11,0.36-0.21,0.719-0.33,1.08c-0.69,2.179-1.23,4.429-2.13,6.52c-0.47,1.1-1.4,2.13-2.37,2.869
							c-1.95,1.511-4.06,2.79-6.22,4.221c0.61,1.04,1.27,2.17,1.95,3.33c-2.99,1.02-16.1-0.33-17.55-1.81
							c1.13-2.93,2.09-5.93,3.29-8.951c0.73-1.799,1.54-3.619,2.51-5.409c1.06,1.31,1.94,2.39,2.84,3.5
							c2.04-1.46,4.03-2.89,6.1-4.37c0.24-2.261,2.88-3.88,1.57-6.801c0.9,0.08,1.51,0.141,2.13,0.191
							c2.48,0.19,4.96,0.37,7.45,0.559C51.49,66.54,51.75,66.66,52,66.74"/>
					</g>
				</g>
				<g style="clip-path:url(#SVGID_00000040572031188291372040000016994250335955510957_);">
					<defs>
						<rect id="SVGID_00000101081626572108497020000008351497135996317331_" x="5" y="52.47" width="20.89" height="33.69"/>
					</defs>
					<clipPath id="SVGID_00000111159045855769835300000003316850124278983856_">
						<use xlink:href="#SVGID_00000101081626572108497020000008351497135996317331_"  style="overflow:visible;"/>
					</clipPath>
					<g style="clip-path:url(#SVGID_00000111159045855769835300000003316850124278983856_);">
						<defs>
							<rect id="SVGID_00000092444188318885526220000008371863384716313223_" x="5" y="52.47" width="20.89" height="33.69"/>
						</defs>
						<clipPath id="SVGID_00000004509876054472843590000008206967400129283516_">
							<use xlink:href="#SVGID_00000092444188318885526220000008371863384716313223_"  style="overflow:visible;"/>
						</clipPath>
						<path style="clip-path:url(#SVGID_00000004509876054472843590000008206967400129283516_);fill:#E1D153;" d="M21.12,72.59
							c0.76,2.09,2.04,4.26,4.77,5.37c-2.01,2.83-3.87,5.46-5.82,8.2c-2.94-1.66-5.82-3.2-7.7-6.08c-0.36-0.55-0.88-1-1.35-1.46
							c-1.36-1.32-1.66-3.11-1.93-4.81c-0.27-1.77-0.11-3.61-0.14-5.43c-0.02-0.51,0-1.04,0-1.58c-1.44-0.08-2.7-0.149-3.95-0.2
							c0.23-2.64,8.18-13.32,10.55-14.13c1.78,2.16,3.66,4.28,5.42,6.59c1.37,1.79,2.66,3.7,3.81,5.83c-1.7,0.24-2.94,0.4-4.38,0.61
							C20.59,67.89,20.33,70.441,21.12,72.59"/>
					</g>
				</g>
			</g>
			<polygon style="clip-path:url(#SVGID_00000043423878237945797590000016569866456829022139_);fill:#523742;" points="
				82.168,73.124 79.952,74.204 77.882,75.584 76.457,77.644 75.451,80.864 75.449,83.235 75.928,85.548 77.376,87.407 
				78.621,88.703 80.061,89.763 80.358,90.135 81.162,90.564 81.625,90.637 84.077,91.345 86.259,91.565 88.335,90.903 
				90.284,89.956 91.763,88.351 92.802,87.113 93.741,85.35 94.17,83.487 94.174,81.023 93.641,78.666 92.194,76.708 90.198,74.439 
				88.66,73.62 86.723,73.254 84.633,72.879 			"/>
			<g style="clip-path:url(#SVGID_00000043423878237945797590000016569866456829022139_);">
				<defs>
					
						<rect id="SVGID_00000015354393324974439340000006703273359438254509_" x="68.545" y="43.81" transform="matrix(0.7071 -0.7071 0.7071 0.7071 -18.7275 71.3375)" width="16.4" height="28.929"/>
				</defs>
				<clipPath id="SVGID_00000137092099925276895840000009447303241737050556_">
					<use xlink:href="#SVGID_00000015354393324974439340000006703273359438254509_"  style="overflow:visible;"/>
				</clipPath>
				<path style="clip-path:url(#SVGID_00000137092099925276895840000009447303241737050556_);fill:#9F9EB1;" d="M67.089,53.994
					c0.755-2.766,5.655-8.485,5.655-8.485c2.122,0.707,1.896,1.119,4.244,2.828c0.096,0.071,1.319,1.354,1.414,1.414
					c0.541,0.336,3.871,3.891,4.95,7.447c0.159,0.521,0.431,1.006,0.68,1.571c1.105-0.425,2.149-0.828,3.213-1.238
					c0.348,2.008-2.202,11.176-3.998,14.343c-3.881-1.983-7.577-4.253-11.285-7.009c1.263-0.678,2.256-1.209,3.456-1.852
					c-1.047-2.064-1.942-3.753-3.38-5.484C70.782,56.019,69.21,54.701,67.089,53.994"/>
			</g>
		</g>
	</g>
</g>
<g id="Layer_2">
	<g id="Layer_3">
	</g>
</g>
</svg>
