<?xml version="1.0" encoding="iso-8859-1"?>
<!-- Generator: Adobe Illustrator 26.0.1, SVG Export Plug-In . SVG Version: 6.00 Build 0)  -->
<svg version="1.1" xmlns="http://www.w3.org/2000/svg" xmlns:xlink="http://www.w3.org/1999/xlink" x="0px" y="0px"
	 viewBox="0 0 100 100" style="enable-background:new 0 0 100 100;" xml:space="preserve">
<g id="Layer_1">
	<g id="G_x28__T1_T1_T1_L2__x29__L1_L1_L1_00000126320574937643017570000013294300187828551064_">
		<g>
			<defs>
				<rect id="SVGID_1_" x="13.02" y="4.066" width="73.96" height="91.868"/>
			</defs>
			<clipPath id="SVGID_00000166666695108128757180000004521958567865524357_">
				<use xlink:href="#SVGID_1_"  style="overflow:visible;"/>
			</clipPath>
			<g style="clip-path:url(#SVGID_00000166666695108128757180000004521958567865524357_);">
				<defs>
					<rect id="SVGID_00000021826648578289714820000014461061160702835094_" x="39.285" y="61.066" width="30.095" height="18.776"/>
				</defs>
				<clipPath id="SVGID_00000059291558618716046360000005457742699824805046_">
					<use xlink:href="#SVGID_00000021826648578289714820000014461061160702835094_"  style="overflow:visible;"/>
				</clipPath>
				<path style="clip-path:url(#SVGID_00000059291558618716046360000005457742699824805046_);fill:#9F9EB1;" d="M65.712,67.562
					c1.33-0.04,2.04-2.21,3.67-1.07c-0.27,4.389-0.529,8.73-0.81,13.349c-4.259-0.639-8.21-2.149-12.23-3.33
					c-0.22-0.34-0.4-0.63-0.63-0.97c1.08-0.929,2.19-1.87,3.32-2.839c-0.9-2.8-3.33-3.451-5.509-3.8
					c-3.551-0.57-4.851,2.269-5.921,4.63c-0.099,0.96-0.16,1.62-0.25,2.5c-2.829-0.651-5.4-1.241-8.01-1.85
					c-0.02-0.25-0.1-0.471-0.03-0.62c0.78-1.91,1.3-4.011,2.45-5.66c2.89-4.13,6.85-6.66,12.07-6.83
					c3.34-0.1,6.391,0.639,8.851,3.01C63.763,65.122,64.662,66.341,65.712,67.562"/>
			</g>
			<g style="clip-path:url(#SVGID_00000166666695108128757180000004521958567865524357_);">
				<defs>
					<rect id="SVGID_00000075144496404110267390000016384034921911113101_" x="38.022" y="77.722" width="29.361" height="18.212"/>
				</defs>
				<clipPath id="SVGID_00000143615249287271256730000005302480509022363546_">
					<use xlink:href="#SVGID_00000075144496404110267390000016384034921911113101_"  style="overflow:visible;"/>
				</clipPath>
				<path style="clip-path:url(#SVGID_00000143615249287271256730000005302480509022363546_);fill:#523742;" d="M67.382,83.512
					c-0.1,0.3-0.17,0.6-0.29,0.87c-1.52,3.449-3.13,6.93-6.51,8.9c-1.899,1.11-4.16,1.589-6.26,2.36c-2.15,0.78-4.14-0.2-6.16-0.61
					c-1.67-0.331-2.86-1.56-4-2.76c-0.82-0.861-1.62-1.74-2.62-2.83c-1.02,0.299-2.139,0.63-3.52,1.04
					c0.24-4.151,0.49-8.3,0.76-12.76c4,1.189,7.88,2.35,12.16,3.63c-1.18,1.019-2.12,1.83-3.03,2.63v1.59
					c1.491,2.589,3.87,3.08,6.63,3.14c3.42,0.079,4.13-2.66,5.59-4.93v-1.92C62.582,82.422,64.943,82.951,67.382,83.512"/>
			</g>
			<g style="clip-path:url(#SVGID_00000166666695108128757180000004521958567865524357_);">
				<defs>
					
						<rect id="SVGID_00000176756217932128071920000004172577735366985901_" x="21.285" y="41.802" transform="matrix(0.1923 -0.9813 0.9813 0.1923 -31.401 74.3806)" width="16.4" height="28.929"/>
				</defs>
				<clipPath id="SVGID_00000115476242079281193420000013003669701036891522_">
					<use xlink:href="#SVGID_00000176756217932128071920000004172577735366985901_"  style="overflow:visible;"/>
				</clipPath>
				<path style="clip-path:url(#SVGID_00000115476242079281193420000013003669701036891522_);fill:#E33A3A;" d="M19.082,58.101
					c-0.915-2.717-0.039-10.198-0.039-10.198c2.155-0.596,2.197-0.128,5.099-0.019c0.12,0.004,1.851,0.388,1.963,0.384
					c0.636-0.022,5.383,1.071,8.262,3.42c0.422,0.343,0.919,0.594,1.442,0.924c0.679-0.969,1.321-1.886,1.975-2.821
					c1.409,1.474,4.406,10.505,4.684,14.134c-4.328,0.522-8.661,0.698-13.278,0.48c0.672-1.267,1.199-2.262,1.836-3.466
					c-2.019-1.129-3.705-2.032-5.863-2.665C23.278,57.721,21.237,57.504,19.082,58.101"/>
			</g>
			<g style="clip-path:url(#SVGID_00000166666695108128757180000004521958567865524357_);">
				<defs>
					
						<rect id="SVGID_00000018199516973565292530000012689226876836122533_" x="41.683" y="29.614" transform="matrix(0.8661 -0.4998 0.4998 0.8661 -15.3532 30.8318)" width="16.4" height="28.929"/>
				</defs>
				<clipPath id="SVGID_00000162310495913955776890000000390580103247249343_">
					<use xlink:href="#SVGID_00000018199516973565292530000012689226876836122533_"  style="overflow:visible;"/>
				</clipPath>
				<path style="clip-path:url(#SVGID_00000162310495913955776890000000390580103247249343_);fill:#F26C2B;" d="M41.664,37.443
					c1.446-2.475,7.662-6.73,7.662-6.73c1.865,1.232,1.539,1.572,3.364,3.831c0.077,0.092,0.924,1.65,1,1.732
					c0.436,0.464,2.731,4.762,2.852,8.475c0.018,0.544,0.156,1.083,0.25,1.694c1.177-0.125,2.29-0.243,3.425-0.364
					c-0.186,2.03-5.024,10.224-7.577,12.818c-3.237-2.92-6.218-6.071-9.086-9.694c1.396-0.327,2.493-0.583,3.819-0.894
					c-0.476-2.264-0.903-4.128-1.844-6.171C44.707,40.356,43.53,38.675,41.664,37.443"/>
			</g>
			<g style="clip-path:url(#SVGID_00000166666695108128757180000004521958567865524357_);">
				<defs>
					
						<rect id="SVGID_00000000902921328083033610000013395208970761025450_" x="56.418" y="40.879" transform="matrix(0.1236 -0.9923 0.9923 0.1236 13.4193 113.3519)" width="28.93" height="16.4"/>
				</defs>
				<clipPath id="SVGID_00000144300767076176070080000007164733418244567946_">
					<use xlink:href="#SVGID_00000000902921328083033610000013395208970761025450_"  style="overflow:visible;"/>
				</clipPath>
				<path style="clip-path:url(#SVGID_00000144300767076176070080000007164733418244567946_);fill:#55C95A;" d="M68.328,38.83
					c2.646-1.103,10.17-0.75,10.17-0.75c0.746,2.109,0.281,2.183,0.375,5.086c0.004,0.12-0.259,1.873-0.247,1.985
					c0.067,0.633-0.694,5.445-2.836,8.48c-0.314,0.445-0.528,0.958-0.821,1.502c1.013,0.611,1.973,1.187,2.951,1.775
					c-1.372,1.507-10.173,5.127-13.774,5.656c-0.821-4.281-1.299-8.591-1.402-13.212c1.311,0.582,2.34,1.039,3.585,1.591
					c0.985-2.093,1.769-3.838,2.25-6.036C68.999,42.989,69.073,40.938,68.328,38.83"/>
			</g>
			<polygon style="clip-path:url(#SVGID_00000166666695108128757180000004521958567865524357_);fill:#E1D153;" points="
				21.978,11.066 20.096,11.653 18.076,12.306 16.016,13.681 14.568,15.676 13.39,17.867 13.102,20.348 13.102,20.361 13.728,23.67 
				14.841,25.764 16.352,27.58 18.503,28.539 20.213,29.098 21.981,29.357 22.419,29.546 23.326,29.546 23.773,29.392 26.27,28.863 
				28.298,28.032 29.819,26.471 31.095,24.718 31.644,22.607 31.98,21.021 31.98,19.031 31.481,17.181 30.326,15.006 28.747,13.177 
				26.549,12.129 23.72,11.066 			"/>
			<polygon style="clip-path:url(#SVGID_00000166666695108128757180000004521958567865524357_);fill:#5699DE;" points="
				48.981,4.066 47.096,4.653 45.076,5.306 43.016,6.681 41.568,8.676 40.39,10.867 40.102,13.348 40.102,13.361 40.728,16.67 
				41.842,18.764 43.352,20.581 45.504,21.54 47.213,22.098 48.981,22.357 49.419,22.546 50.326,22.546 50.773,22.392 53.27,21.864 
				55.298,21.032 56.819,19.471 58.096,17.719 58.644,15.607 58.98,14.021 58.98,12.03 58.481,10.182 57.327,8.007 55.748,6.177 
				53.55,5.129 50.721,4.066 			"/>
			<polygon style="clip-path:url(#SVGID_00000166666695108128757180000004521958567865524357_);fill:#AD70D6;" points="
				76.981,9.065 75.097,9.653 73.077,10.306 71.016,11.681 69.568,13.676 68.39,15.867 68.102,18.348 68.102,18.36 68.728,21.669 
				69.841,23.763 71.351,25.58 73.504,26.539 75.213,27.098 76.981,27.357 77.419,27.546 78.325,27.546 78.773,27.391 81.27,26.863 
				83.298,26.031 84.818,24.471 86.095,22.718 86.644,20.607 86.98,19.021 86.98,17.029 86.481,15.181 85.327,13.006 83.747,11.177 
				81.55,10.129 78.72,9.065 			"/>
		</g>
	</g>
</g>
<g id="Layer_2">
</g>
</svg>
