<?xml version="1.0" encoding="iso-8859-1"?>
<!-- Generator: Adobe Illustrator 26.0.1, SVG Export Plug-In . SVG Version: 6.00 Build 0)  -->
<svg version="1.1" id="Layer_1" xmlns="http://www.w3.org/2000/svg" xmlns:xlink="http://www.w3.org/1999/xlink" x="0px" y="0px"
	 viewBox="0 0 100 100" style="enable-background:new 0 0 100 100;" xml:space="preserve">
<g id="G_x28__T2_T2_T2_L1__x29__L1_1_" style="display:none;">
	<g style="display:inline;">
		<defs>
			<rect id="SVGID_1_" x="5" width="85.365" height="95.012"/>
		</defs>
		<clipPath id="SVGID_00000159453356556753120190000005697486330228359858_">
			<use xlink:href="#SVGID_1_"  style="overflow:visible;"/>
		</clipPath>
		<polygon style="clip-path:url(#SVGID_00000159453356556753120190000005697486330228359858_);fill:#9F9EB1;" points="
			40.253,35.994 38.068,37.134 36.036,38.572 34.669,40.67 33.754,43.917 33.818,46.287 34.36,48.586 35.859,50.404 37.14,51.666 
			38.609,52.685 38.916,53.049 39.729,53.454 40.197,53.515 42.669,54.154 44.854,54.313 46.911,53.594 48.834,52.593 
			50.266,50.948 51.273,49.678 52.162,47.893 52.538,46.018 52.473,43.556 51.875,41.215 50.374,39.297 48.316,37.085 46.758,36.31 
			44.81,35.996 42.71,35.681 		"/>
		<g style="clip-path:url(#SVGID_00000159453356556753120190000005697486330228359858_);">
			<defs>
				
					<rect id="SVGID_00000033349446531377594780000011822502986097738138_" x="4.595" y="15.44" transform="matrix(0.4722 -0.8815 0.8815 0.4722 -10.7796 29.2785)" width="28.929" height="16.4"/>
			</defs>
			<clipPath id="SVGID_00000122694637186646761130000006207561753657410981_">
				<use xlink:href="#SVGID_00000033349446531377594780000011822502986097738138_"  style="overflow:visible;"/>
			</clipPath>
			<path style="clip-path:url(#SVGID_00000122694637186646761130000006207561753657410981_);fill:#AD70D6;" d="M17.757,34.123
				c-2.866,0.077-9.759-2.959-9.759-2.959c0.063-2.235,0.523-2.138,1.479-4.88c0.039-0.113,0.915-1.655,0.945-1.763
				c0.165-0.615,2.605-4.831,5.696-6.893c0.452-0.302,0.838-0.704,1.307-1.106c-0.727-0.934-1.414-1.817-2.116-2.717
				c1.823-0.913,11.337-1.125,14.886-0.324c-0.773,4.291-1.877,8.484-3.443,12.832c-1.014-1.013-1.809-1.81-2.773-2.773
				c-1.672,1.599-3.031,2.945-4.27,4.822C18.626,30.001,17.82,31.888,17.757,34.123"/>
		</g>
		<polygon style="clip-path:url(#SVGID_00000159453356556753120190000005697486330228359858_);fill:#523742;" points="
			79.478,76.532 77.593,77.119 75.574,77.773 73.513,79.148 72.065,81.141 70.887,83.333 70.599,85.814 70.599,85.827 
			71.225,89.136 72.339,91.23 73.848,93.046 76.001,94.006 77.71,94.565 79.478,94.823 79.916,95.012 80.823,95.012 81.27,94.858 
			83.767,94.33 85.795,93.498 87.316,91.938 88.593,90.184 89.141,88.073 89.477,86.487 89.477,84.496 88.978,82.648 87.824,80.472 
			86.245,78.643 84.047,77.594 81.218,76.532 		"/>
		<g style="clip-path:url(#SVGID_00000159453356556753120190000005697486330228359858_);">
			<defs>
				
					<rect id="SVGID_00000116237726784580164050000002662820453822183101_" x="33.44" y="2.633" transform="matrix(0.7163 -0.6978 0.6978 0.7163 -0.1878 34.9014)" width="18.779" height="30.098"/>
			</defs>
			<clipPath id="SVGID_00000013164385081356388300000004952128938375602843_">
				<use xlink:href="#SVGID_00000116237726784580164050000002662820453822183101_"  style="overflow:visible;"/>
			</clipPath>
			<path style="clip-path:url(#SVGID_00000013164385081356388300000004952128938375602843_);fill:#E33A3A;" d="M52.841,23.816
				c0.956,0.925,3.007-0.081,3.327,1.882c-3.333,2.87-6.623,5.712-10.128,8.735c-2.514-3.498-4.189-7.381-6.148-11.084
				c0.09-0.394,0.172-0.726,0.255-1.128c1.42,0.125,2.867,0.264,4.351,0.397c1.378-2.599,0.148-4.793-1.123-6.599
				c-2.069-2.94-5.01-1.89-7.448-1.01c-0.757,0.599-1.272,1.016-1.964,1.566c-1.51-2.481-2.88-4.734-4.265-7.029
				c0.165-0.188,0.267-0.399,0.423-0.454c1.913-0.774,3.78-1.867,5.764-2.194c4.976-0.812,9.551,0.259,13.315,3.879
				c2.403,2.323,4,5.024,4.019,8.44C53.228,20.716,52.982,22.212,52.841,23.816"/>
		</g>
		<g style="clip-path:url(#SVGID_00000159453356556753120190000005697486330228359858_);">
			<defs>
				
					<rect id="SVGID_00000088091296137821124700000007848380342324964265_" x="68.124" y="21.401" transform="matrix(0.8825 -0.4704 0.4704 0.8825 -7.8998 40.1175)" width="16.4" height="28.929"/>
			</defs>
			<clipPath id="SVGID_00000092431585505996696290000013337218212425327253_">
				<use xlink:href="#SVGID_00000088091296137821124700000007848380342324964265_"  style="overflow:visible;"/>
			</clipPath>
			<path style="clip-path:url(#SVGID_00000092431585505996696290000013337218212425327253_);fill:#E1D153;" d="M68.334,28.958
				c1.528-2.425,7.884-6.469,7.884-6.469c1.823,1.295,1.485,1.623,3.234,3.942c0.072,0.095,0.867,1.68,0.941,1.765
				c0.42,0.479,2.569,4.85,2.565,8.566c0,0.544,0.12,1.088,0.193,1.701c1.181-0.085,2.297-0.166,3.435-0.249
				c-0.253,2.023-5.364,10.05-8.003,12.556c-3.138-3.027-6.01-6.275-8.755-9.993c1.406-0.279,2.511-0.499,3.847-0.765
				c-0.401-2.279-0.764-4.156-1.636-6.23C71.277,31.972,70.157,30.253,68.334,28.958"/>
		</g>
		<g style="clip-path:url(#SVGID_00000159453356556753120190000005697486330228359858_);">
			<defs>
				
					<rect id="SVGID_00000118373327588157693130000017574037078741939112_" x="53.148" y="49.067" transform="matrix(0.9832 -0.1824 0.1824 0.9832 -9.5181 13.4194)" width="30.099" height="18.778"/>
			</defs>
			<clipPath id="SVGID_00000003809810077529451760000005327375908368686498_">
				<use xlink:href="#SVGID_00000118373327588157693130000017574037078741939112_"  style="overflow:visible;"/>
			</clipPath>
			<path style="clip-path:url(#SVGID_00000003809810077529451760000005327375908368686498_);fill:#55C95A;" d="M57.536,63.374
				c-1.3,0.282-1.603,2.545-3.413,1.722c-0.535-4.366-1.07-8.681-1.638-13.274c4.305-0.148,8.464,0.616,12.632,1.044
				c0.278,0.294,0.509,0.546,0.797,0.839c-0.893,1.111-1.813,2.237-2.747,3.398c1.395,2.588,3.903,2.785,6.11,2.731
				c3.595-0.087,4.356-3.116,4.977-5.632c-0.076-0.962-0.138-1.622-0.21-2.504c2.901,0.123,5.536,0.235,8.213,0.359
				c0.065,0.242,0.184,0.444,0.142,0.604c-0.418,2.02-0.547,4.18-1.376,6.012c-2.089,4.588-5.521,7.797-10.623,8.916
				c-3.265,0.708-6.399,0.536-9.25-1.346C59.898,65.418,58.791,64.383,57.536,63.374"/>
		</g>
		<g style="clip-path:url(#SVGID_00000159453356556753120190000005697486330228359858_);">
			<defs>
				
					<rect id="SVGID_00000176750253008651589480000017118426772264670368_" x="29.339" y="65.792" transform="matrix(0.0449 -0.999 0.999 0.0449 -44.3238 114.1505)" width="16.399" height="28.929"/>
			</defs>
			<clipPath id="SVGID_00000116937447229690482220000014645508270399187843_">
				<use xlink:href="#SVGID_00000176750253008651589480000017118426772264670368_"  style="overflow:visible;"/>
			</clipPath>
			<path style="clip-path:url(#SVGID_00000116937447229690482220000014645508270399187843_);fill:#5699DE;" d="M47.554,76.902
				c1.308,2.551,1.548,10.079,1.548,10.079c-2.042,0.909-2.153,0.452-5.039,0.775c-0.119,0.013-1.888-0.11-1.998-0.09
				c-0.626,0.117-5.483-0.262-8.678-2.159c-0.468-0.277-0.997-0.451-1.562-0.7c-0.528,1.059-1.028,2.061-1.536,3.082
				c-1.612-1.249-5.914-9.737-6.725-13.285c4.203-1.156,8.462-1.973,13.06-2.439c-0.477,1.351-0.851,2.414-1.303,3.699
				c2.165,0.817,3.965,1.461,6.194,1.767C43.461,77.899,45.511,77.811,47.554,76.902"/>
		</g>
		<g style="clip-path:url(#SVGID_00000159453356556753120190000005697486330228359858_);">
			<defs>
				
					<rect id="SVGID_00000119101958557299251270000016294540413716372125_" x="5.135" y="52.383" transform="matrix(0.1767 -0.9843 0.9843 0.1767 -44.1828 70.7215)" width="30.098" height="18.779"/>
			</defs>
			<clipPath id="SVGID_00000055691956584048472650000013216884373569523616_">
				<use xlink:href="#SVGID_00000119101958557299251270000016294540413716372125_"  style="overflow:visible;"/>
			</clipPath>
			<path style="clip-path:url(#SVGID_00000055691956584048472650000013216884373569523616_);fill:#F26C2B;" d="M19.351,50.061
				c0.196-1.316-1.815-2.398-0.404-3.801c4.273,1.042,8.498,2.065,12.996,3.157c-1.383,4.08-3.568,7.701-5.44,11.449
				c-0.373,0.156-0.691,0.282-1.066,0.449c-0.724-1.228-1.453-2.486-2.208-3.771c-2.915,0.391-3.984,2.668-4.714,4.752
				c-1.189,3.393,1.377,5.175,3.51,6.645c0.928,0.268,1.566,0.444,2.417,0.688c-1.14,2.671-2.175,5.096-3.237,7.557
				c-0.25-0.024-0.48,0.016-0.616-0.08c-1.742-1.106-3.717-1.988-5.137-3.412c-3.555-3.574-5.345-7.919-4.589-13.087
				c0.492-3.306,1.759-6.177,4.527-8.179C16.604,51.549,17.964,50.879,19.351,50.061"/>
		</g>
	</g>
</g>
<g id="G_x28__T2_T2_T2_L1__x29__L1_00000047019280593607217760000011109168503933263018_">
	<g>
		<defs>
			<rect id="SVGID_00000181071724926011216790000010197015149678500247_" x="5" width="85.365" height="95.012"/>
		</defs>
		<clipPath id="SVGID_00000178176862889969879310000000743887581005460905_">
			<use xlink:href="#SVGID_00000181071724926011216790000010197015149678500247_"  style="overflow:visible;"/>
		</clipPath>
		<polygon style="clip-path:url(#SVGID_00000178176862889969879310000000743887581005460905_);fill:#9F9EB1;" points="
			40.253,35.994 38.068,37.134 36.036,38.572 34.669,40.67 33.754,43.917 33.818,46.287 34.36,48.586 35.859,50.404 37.14,51.666 
			38.609,52.685 38.916,53.049 39.729,53.454 40.197,53.515 42.669,54.154 44.854,54.313 46.911,53.594 48.834,52.593 
			50.266,50.948 51.273,49.678 52.162,47.893 52.538,46.018 52.473,43.556 51.875,41.215 50.374,39.297 48.316,37.085 46.758,36.31 
			44.81,35.996 42.71,35.681 		"/>
		<g style="clip-path:url(#SVGID_00000178176862889969879310000000743887581005460905_);">
			<defs>
				
					<rect id="SVGID_00000175280182825058268370000008035247156031204266_" x="4.595" y="15.44" transform="matrix(0.4722 -0.8815 0.8815 0.4722 -10.7796 29.2785)" width="28.929" height="16.4"/>
			</defs>
			<clipPath id="SVGID_00000123429756693632585950000014327218036075805621_">
				<use xlink:href="#SVGID_00000175280182825058268370000008035247156031204266_"  style="overflow:visible;"/>
			</clipPath>
			<path style="clip-path:url(#SVGID_00000123429756693632585950000014327218036075805621_);fill:#AD70D6;" d="M17.757,34.123
				c-2.866,0.077-9.759-2.959-9.759-2.959c0.063-2.235,0.523-2.138,1.479-4.88c0.039-0.113,0.915-1.655,0.945-1.763
				c0.165-0.615,2.605-4.831,5.696-6.893c0.452-0.302,0.838-0.704,1.307-1.106c-0.727-0.934-1.414-1.817-2.116-2.717
				c1.823-0.913,11.337-1.125,14.886-0.324c-0.773,4.291-1.877,8.484-3.443,12.832c-1.014-1.013-1.809-1.81-2.773-2.773
				c-1.672,1.599-3.031,2.945-4.27,4.822C18.626,30.001,17.82,31.888,17.757,34.123"/>
		</g>
		<polygon style="clip-path:url(#SVGID_00000178176862889969879310000000743887581005460905_);fill:#523742;" points="
			79.478,76.532 77.593,77.119 75.574,77.773 73.513,79.148 72.065,81.141 70.887,83.333 70.599,85.814 70.599,85.827 
			71.225,89.136 72.339,91.23 73.848,93.046 76.001,94.006 77.71,94.565 79.478,94.823 79.916,95.012 80.823,95.012 81.27,94.858 
			83.767,94.33 85.795,93.498 87.316,91.938 88.593,90.184 89.141,88.073 89.477,86.487 89.477,84.496 88.978,82.648 87.824,80.472 
			86.245,78.643 84.047,77.594 81.218,76.532 		"/>
		<g style="clip-path:url(#SVGID_00000178176862889969879310000000743887581005460905_);">
			<defs>
				
					<rect id="SVGID_00000150085478932669470810000002546190340682657414_" x="33.44" y="2.633" transform="matrix(0.7163 -0.6978 0.6978 0.7163 -0.1878 34.9014)" width="18.779" height="30.098"/>
			</defs>
			<clipPath id="SVGID_00000036220878319338806300000001378894694292694932_">
				<use xlink:href="#SVGID_00000150085478932669470810000002546190340682657414_"  style="overflow:visible;"/>
			</clipPath>
			<path style="clip-path:url(#SVGID_00000036220878319338806300000001378894694292694932_);fill:#E33A3A;" d="M52.841,23.816
				c0.956,0.925,3.007-0.081,3.327,1.882c-3.333,2.87-6.623,5.712-10.128,8.735c-2.514-3.498-4.189-7.381-6.148-11.084
				c0.09-0.394,0.172-0.726,0.255-1.128c1.42,0.125,2.867,0.264,4.351,0.397c1.378-2.599,0.148-4.793-1.123-6.599
				c-2.069-2.94-5.01-1.89-7.448-1.01c-0.757,0.599-1.272,1.016-1.964,1.566c-1.51-2.481-2.88-4.734-4.265-7.029
				c0.165-0.188,0.267-0.399,0.423-0.454c1.913-0.774,3.78-1.867,5.764-2.194c4.976-0.812,9.551,0.259,13.315,3.879
				c2.403,2.323,4,5.024,4.019,8.44C53.228,20.716,52.982,22.212,52.841,23.816"/>
		</g>
		<g style="clip-path:url(#SVGID_00000178176862889969879310000000743887581005460905_);">
			<defs>
				
					<rect id="SVGID_00000154414020327851005090000004642580833947473033_" x="68.124" y="21.401" transform="matrix(0.8825 -0.4704 0.4704 0.8825 -7.8998 40.1175)" width="16.4" height="28.929"/>
			</defs>
			<clipPath id="SVGID_00000171690142472498858400000010330723373449616312_">
				<use xlink:href="#SVGID_00000154414020327851005090000004642580833947473033_"  style="overflow:visible;"/>
			</clipPath>
			<path style="clip-path:url(#SVGID_00000171690142472498858400000010330723373449616312_);fill:#E1D153;" d="M68.334,28.958
				c1.528-2.425,7.884-6.469,7.884-6.469c1.823,1.295,1.485,1.623,3.234,3.942c0.072,0.095,0.867,1.68,0.941,1.765
				c0.42,0.479,2.569,4.85,2.565,8.566c0,0.544,0.12,1.088,0.193,1.701c1.181-0.085,2.297-0.166,3.435-0.249
				c-0.253,2.023-5.364,10.05-8.003,12.556c-3.138-3.027-6.01-6.275-8.755-9.993c1.406-0.279,2.511-0.499,3.847-0.765
				c-0.401-2.279-0.764-4.156-1.636-6.23C71.277,31.972,70.157,30.253,68.334,28.958"/>
		</g>
		<g style="clip-path:url(#SVGID_00000178176862889969879310000000743887581005460905_);">
			<defs>
				
					<rect id="SVGID_00000129197207266912221810000014169034502127376513_" x="53.148" y="49.067" transform="matrix(0.9832 -0.1824 0.1824 0.9832 -9.5181 13.4194)" width="30.099" height="18.778"/>
			</defs>
			<clipPath id="SVGID_00000163046451713620002330000014532580825141826696_">
				<use xlink:href="#SVGID_00000129197207266912221810000014169034502127376513_"  style="overflow:visible;"/>
			</clipPath>
			<path style="clip-path:url(#SVGID_00000163046451713620002330000014532580825141826696_);fill:#55C95A;" d="M57.536,63.374
				c-1.3,0.282-1.603,2.545-3.413,1.722c-0.535-4.366-1.07-8.681-1.638-13.274c4.305-0.148,8.464,0.616,12.632,1.044
				c0.278,0.294,0.509,0.546,0.797,0.839c-0.893,1.111-1.813,2.237-2.747,3.398c1.395,2.588,3.903,2.785,6.11,2.731
				c3.595-0.087,4.356-3.116,4.977-5.632c-0.076-0.962-0.138-1.622-0.21-2.504c2.901,0.123,5.536,0.235,8.213,0.359
				c0.065,0.242,0.184,0.444,0.142,0.604c-0.418,2.02-0.547,4.18-1.376,6.012c-2.089,4.588-5.521,7.797-10.623,8.916
				c-3.265,0.708-6.399,0.536-9.25-1.346C59.898,65.418,58.791,64.383,57.536,63.374"/>
		</g>
		<g style="clip-path:url(#SVGID_00000178176862889969879310000000743887581005460905_);">
			<defs>
				
					<rect id="SVGID_00000096018034203986147430000008892265582576242878_" x="29.339" y="65.792" transform="matrix(0.0449 -0.999 0.999 0.0449 -44.3238 114.1505)" width="16.399" height="28.929"/>
			</defs>
			<clipPath id="SVGID_00000134237189813530238050000005654649762267659180_">
				<use xlink:href="#SVGID_00000096018034203986147430000008892265582576242878_"  style="overflow:visible;"/>
			</clipPath>
			<path style="clip-path:url(#SVGID_00000134237189813530238050000005654649762267659180_);fill:#5699DE;" d="M47.554,76.902
				c1.308,2.551,1.548,10.079,1.548,10.079c-2.042,0.909-2.153,0.452-5.039,0.775c-0.119,0.013-1.888-0.11-1.998-0.09
				c-0.626,0.117-5.483-0.262-8.678-2.159c-0.468-0.277-0.997-0.451-1.562-0.7c-0.528,1.059-1.028,2.061-1.536,3.082
				c-1.612-1.249-5.914-9.737-6.725-13.285c4.203-1.156,8.462-1.973,13.06-2.439c-0.477,1.351-0.851,2.414-1.303,3.699
				c2.165,0.817,3.965,1.461,6.194,1.767C43.461,77.899,45.511,77.811,47.554,76.902"/>
		</g>
		<g style="clip-path:url(#SVGID_00000178176862889969879310000000743887581005460905_);">
			<defs>
				
					<rect id="SVGID_00000181797713717176980900000016315045681470864001_" x="5.135" y="52.383" transform="matrix(0.1767 -0.9843 0.9843 0.1767 -44.1828 70.7215)" width="30.098" height="18.779"/>
			</defs>
			<clipPath id="SVGID_00000077308545328928858300000011416069743686037158_">
				<use xlink:href="#SVGID_00000181797713717176980900000016315045681470864001_"  style="overflow:visible;"/>
			</clipPath>
			<path style="clip-path:url(#SVGID_00000077308545328928858300000011416069743686037158_);fill:#F26C2B;" d="M19.351,50.061
				c0.196-1.316-1.815-2.398-0.404-3.801c4.273,1.042,8.498,2.065,12.996,3.157c-1.383,4.08-3.568,7.701-5.44,11.449
				c-0.373,0.156-0.691,0.282-1.066,0.449c-0.724-1.228-1.453-2.486-2.208-3.771c-2.915,0.391-3.984,2.668-4.714,4.752
				c-1.189,3.393,1.377,5.175,3.51,6.645c0.928,0.268,1.566,0.444,2.417,0.688c-1.14,2.671-2.175,5.096-3.237,7.557
				c-0.25-0.024-0.48,0.016-0.616-0.08c-1.742-1.106-3.717-1.988-5.137-3.412c-3.555-3.574-5.345-7.919-4.589-13.087
				c0.492-3.306,1.759-6.177,4.527-8.179C16.604,51.549,17.964,50.879,19.351,50.061"/>
		</g>
	</g>
</g>
</svg>
