<?xml version="1.0" encoding="iso-8859-1"?>
<!-- Generator: Adobe Illustrator 26.0.1, SVG Export Plug-In . SVG Version: 6.00 Build 0)  -->
<svg version="1.1" xmlns="http://www.w3.org/2000/svg" xmlns:xlink="http://www.w3.org/1999/xlink" x="0px" y="0px"
	 viewBox="0 0 100 100" style="enable-background:new 0 0 100 100;" xml:space="preserve">
<g id="Layer_1">
	<g id="G_x28__T2_T2_T2_L2__x29__00000066510494382322830210000001768748186221345469_">
		<g>
			<defs>
				<rect id="SVGID_1_" x="1" y="1" width="107.599" height="98.606"/>
			</defs>
			<clipPath id="SVGID_00000019655532867011567640000004352234643309909920_">
				<use xlink:href="#SVGID_1_"  style="overflow:visible;"/>
			</clipPath>
			<g style="clip-path:url(#SVGID_00000019655532867011567640000004352234643309909920_);">
				<defs>
					
						<rect id="SVGID_00000118354604899263844590000017501503993525596570_" x="53.638" y="60.084" transform="matrix(0.887 -0.4618 0.4618 0.887 -24.3186 39.5671)" width="30.095" height="18.776"/>
				</defs>
				<clipPath id="SVGID_00000177481156998601908560000000678365182738655656_">
					<use xlink:href="#SVGID_00000118354604899263844590000017501503993525596570_"  style="overflow:visible;"/>
				</clipPath>
				<path style="clip-path:url(#SVGID_00000177481156998601908560000000678365182738655656_);fill:#9F9EB1;" d="M77.445,61.652
					c1.161-0.65,0.789-2.902,2.761-2.645c1.788,4.02,3.561,7.99,5.446,12.216c-4.074,1.4-8.275,1.884-12.386,2.694
					c-0.352-0.201-0.646-0.374-1.007-0.57c0.529-1.323,1.08-2.67,1.634-4.051c-2.092-2.069-4.547-1.523-6.642-0.828
					c-3.412,1.134-3.254,4.253-3.114,6.841c0.355,0.898,0.607,1.511,0.933,2.333c-2.811,0.731-5.362,1.394-7.959,2.058
					c-0.134-0.213-0.306-0.371-0.313-0.536c-0.19-2.055-0.699-4.158-0.44-6.153c0.656-4.997,3.001-9.07,7.553-11.63
					c2.916-1.631,5.963-2.383,9.239-1.417C74.589,60.387,75.95,61.054,77.445,61.652"/>
			</g>
			<g style="clip-path:url(#SVGID_00000019655532867011567640000004352234643309909920_);">
				<defs>
					
						<rect id="SVGID_00000072256136110542517060000009354814924237485240_" x="60.121" y="75.642" transform="matrix(0.887 -0.4617 0.4617 0.887 -30.6783 44.1081)" width="29.359" height="18.213"/>
				</defs>
				<clipPath id="SVGID_00000090973088226595480820000006124183547329017225_">
					<use xlink:href="#SVGID_00000072256136110542517060000009354814924237485240_"  style="overflow:visible;"/>
				</clipPath>
				<path style="clip-path:url(#SVGID_00000090973088226595480820000006124183547329017225_);fill:#523742;" d="M86.291,75.029
					c0.05,0.312,0.126,0.61,0.145,0.905c0.245,3.762,0.423,7.593-1.666,10.901c-1.172,1.862-2.956,3.331-4.462,4.983
					c-1.547,1.686-3.765,1.734-5.746,2.304c-1.634,0.478-3.257-0.064-4.823-0.602c-1.124-0.384-2.24-0.795-3.631-1.3
					c-0.765,0.737-1.607,1.547-2.641,2.548c-1.703-3.792-3.399-7.589-5.218-11.67c4.098-0.791,8.074-1.553,12.462-2.394
					c-0.575,1.449-1.035,2.601-1.473,3.731l0.734,1.411c2.517,1.61,4.855,0.945,7.331-0.276c3.07-1.508,2.435-4.267,2.682-6.954
					l-0.886-1.703C81.53,76.278,83.868,75.659,86.291,75.029"/>
			</g>
			<g style="clip-path:url(#SVGID_00000019655532867011567640000004352234643309909920_);">
				<defs>
					<polygon id="SVGID_00000006687606920229129200000007508991065988742578_" points="1.217,73.799 1.187,73.836 13.82,84.278 
						13.827,84.283 32.257,61.986 19.617,51.537 					"/>
				</defs>
				<clipPath id="SVGID_00000073690379230901087620000005810891600601716881_">
					<use xlink:href="#SVGID_00000006687606920229129200000007508991065988742578_"  style="overflow:visible;"/>
				</clipPath>
				<path style="clip-path:url(#SVGID_00000073690379230901087620000005810891600601716881_);fill:#E33A3A;" d="M13.374,77.928
					c-2.824-0.49-8.98-4.829-8.98-4.829c0.502-2.178,0.934-1.991,2.413-4.49c0.061-0.103,1.223-1.442,1.275-1.542
					c0.282-0.57,3.508-4.222,6.946-5.631c0.502-0.207,0.959-0.526,1.499-0.826c-0.529-1.06-1.028-2.062-1.537-3.081
					c1.967-0.537,11.335,1.135,14.656,2.624c-1.605,4.051-3.517,7.944-5.911,11.897c-0.792-1.193-1.416-2.132-2.17-3.267
					c-1.956,1.238-3.554,2.288-5.139,3.883C15.042,74.06,13.878,75.749,13.374,77.928"/>
			</g>
			<g style="clip-path:url(#SVGID_00000019655532867011567640000004352234643309909920_);">
				<defs>
					<polygon id="SVGID_00000157291478973878368940000001079070969315583372_" points="27.154,68.441 56.036,70.088 56.97,53.716 
						56.969,53.715 28.088,52.067 					"/>
				</defs>
				<clipPath id="SVGID_00000163795446943464010010000013686986275165325464_">
					<use xlink:href="#SVGID_00000157291478973878368940000001079070969315583372_"  style="overflow:visible;"/>
				</clipPath>
				<path style="clip-path:url(#SVGID_00000163795446943464010010000013686986275165325464_);fill:#5699DE;" d="M32.007,64.313
					c-1.277-2.567-1.427-10.099-1.427-10.099c2.053-0.884,2.158-0.424,5.049-0.713c0.118-0.012,1.886,0.132,1.996,0.113
					c0.628-0.109,5.48,0.329,8.652,2.263c0.464,0.283,0.991,0.463,1.553,0.719c0.541-1.053,1.052-2.048,1.574-3.063
					C51,54.801,55.2,63.34,55.966,66.898c-4.214,1.105-8.484,1.871-13.087,2.282c0.493-1.346,0.881-2.403,1.348-3.683
					c-2.156-0.843-3.948-1.508-6.173-1.842C36.111,63.365,34.061,63.428,32.007,64.313"/>
			</g>
			<g style="clip-path:url(#SVGID_00000019655532867011567640000004352234643309909920_);">
				<defs>
					<polygon id="SVGID_00000104681360881683055590000002636569630430111638_" points="21.005,23.559 20.936,23.565 22.1,39.917 
						22.101,39.922 50.955,37.868 49.792,21.51 					"/>
				</defs>
				<clipPath id="SVGID_00000060714618185206318940000008207182634913843366_">
					<use xlink:href="#SVGID_00000104681360881683055590000002636569630430111638_"  style="overflow:visible;"/>
				</clipPath>
				<path style="clip-path:url(#SVGID_00000060714618185206318940000008207182634913843366_);fill:#55C95A;" d="M26.386,35.208
					c-1.595-2.382-2.704-9.832-2.704-9.832c1.923-1.139,2.086-0.698,4.915-1.353c0.116-0.026,1.888-0.109,1.995-0.141
					c0.607-0.189,5.477-0.376,8.869,1.139c0.497,0.221,1.043,0.332,1.633,0.515c0.402-1.114,0.782-2.166,1.168-3.239
					c1.746,1.053,7.002,8.986,8.218,12.416c-4.04,1.635-8.176,2.939-12.689,3.935c0.317-1.397,0.565-2.496,0.866-3.824
					c-2.245-0.562-4.108-0.994-6.357-1.039C30.336,33.745,28.31,34.069,26.386,35.208"/>
			</g>
			<g style="clip-path:url(#SVGID_00000019655532867011567640000004352234643309909920_);">
				<defs>
					<polygon id="SVGID_00000140008247250144100740000005017486237401261715_" points="42.764,38.631 61.506,60.666 73.998,50.042 
						73.998,50.04 55.257,28.005 					"/>
				</defs>
				<clipPath id="SVGID_00000013188872096651507480000002145349573231634100_">
					<use xlink:href="#SVGID_00000140008247250144100740000005017486237401261715_"  style="overflow:visible;"/>
				</clipPath>
				<path style="clip-path:url(#SVGID_00000013188872096651507480000002145349573231634100_);fill:#AD70D6;" d="M49.1,39.293
					c0.976-2.696,6.322-8.002,6.322-8.002c2.057,0.875,1.797,1.268,4.001,3.16c0.09,0.078,1.205,1.457,1.296,1.523
					c0.512,0.379,3.544,4.192,4.333,7.822c0.117,0.531,0.351,1.037,0.552,1.621c1.136-0.335,2.209-0.652,3.304-0.976
					c0.183,2.031-3.097,10.963-5.141,13.974c-3.71-2.288-7.211-4.848-10.686-7.895c1.315-0.573,2.348-1.022,3.596-1.568
					c-0.878-2.141-1.634-3.896-2.928-5.737C52.619,41.608,51.158,40.169,49.1,39.293"/>
			</g>
			<g style="clip-path:url(#SVGID_00000019655532867011567640000004352234643309909920_);">
				<defs>
					<polygon id="SVGID_00000090264302437045386730000000360259644632706492_" points="59.009,13.637 80.963,32.474 91.642,20.028 
						69.729,1.227 69.715,1.215 69.686,1.192 					"/>
				</defs>
				<clipPath id="SVGID_00000096048886398831910910000002261582982373072805_">
					<use xlink:href="#SVGID_00000090264302437045386730000000360259644632706492_"  style="overflow:visible;"/>
				</clipPath>
				<path style="clip-path:url(#SVGID_00000096048886398831910910000002261582982373072805_);fill:#F26C2B;" d="M65.371,13.301
					c0.542-2.815,4.994-8.891,4.994-8.891c2.168,0.543,1.974,0.972,4.445,2.495c0.101,0.063,1.419,1.25,1.518,1.303
					c0.564,0.294,4.156,3.586,5.502,7.049c0.198,0.506,0.509,0.969,0.799,1.514c1.069-0.509,2.08-0.989,3.109-1.48
					c0.5,1.976-1.344,11.312-2.892,14.606c-4.022-1.68-7.879-3.662-11.788-6.129c1.209-0.77,2.158-1.377,3.306-2.11
					c-1.201-1.978-2.222-3.595-3.788-5.21C69.209,15.039,67.54,13.844,65.371,13.301"/>
			</g>
			<g style="clip-path:url(#SVGID_00000019655532867011567640000004352234643309909920_);">
				<defs>
					<polygon id="SVGID_00000014627578883981704370000002425753545318827703_" points="72.427,56.1 72.427,56.1 88.78,57.334 
						90.958,28.488 74.604,27.253 					"/>
				</defs>
				<clipPath id="SVGID_00000111877418230832261380000010211095038681473440_">
					<use xlink:href="#SVGID_00000014627578883981704370000002425753545318827703_"  style="overflow:visible;"/>
				</clipPath>
				<path style="clip-path:url(#SVGID_00000111877418230832261380000010211095038681473440_);fill:#E1D153;" d="M78.642,32.181
					c2.591-1.229,10.123-1.241,10.123-1.241c0.847,2.069,0.386,2.165,0.62,5.061c0.01,0.118-0.167,1.883-0.149,1.994
					c0.097,0.629-0.43,5.473-2.422,8.608c-0.29,0.459-0.481,0.983-0.747,1.54c1.042,0.561,2.028,1.09,3.033,1.63
					c-1.297,1.572-9.911,5.614-13.482,6.316c-1.029-4.235-1.715-8.517-2.042-13.127c1.337,0.517,2.387,0.925,3.658,1.415
					c0.883-2.139,1.58-3.919,1.955-6.138C79.515,36.302,79.489,34.251,78.642,32.181"/>
			</g>
		</g>
	</g>
</g>
<g id="Layer_2">
	<g id="Layer_3">
	</g>
</g>
</svg>
