<?xml version="1.0" encoding="iso-8859-1"?>
<!-- Generator: Adobe Illustrator 26.0.1, SVG Export Plug-In . SVG Version: 6.00 Build 0)  -->
<svg version="1.1" id="Layer_1" xmlns="http://www.w3.org/2000/svg" xmlns:xlink="http://www.w3.org/1999/xlink" x="0px" y="0px"
	 viewBox="0 0 100 100" style="enable-background:new 0 0 100 100;" xml:space="preserve">
<g id="L6_1_" style="display:none;">
	<g style="display:inline;">
		<defs>
			<rect id="SVGID_1_" x="7" y="6" width="86" height="89"/>
		</defs>
		<clipPath id="SVGID_00000033358570090589925120000009997398285166900642_">
			<use xlink:href="#SVGID_1_"  style="overflow:visible;"/>
		</clipPath>
		<g style="clip-path:url(#SVGID_00000033358570090589925120000009997398285166900642_);">
			<defs>
				<rect id="SVGID_00000121270964359877121910000002631723012847247039_" x="7" y="6" width="86" height="89"/>
			</defs>
			<clipPath id="SVGID_00000012472906093333138290000016965366198443655564_">
				<use xlink:href="#SVGID_00000121270964359877121910000002631723012847247039_"  style="overflow:visible;"/>
			</clipPath>
			<g style="clip-path:url(#SVGID_00000012472906093333138290000016965366198443655564_);">
				<defs>
					<rect id="SVGID_00000176765057244789004870000012597321839339265423_" x="67.318" y="21.815" width="25.682" height="29.056"/>
				</defs>
				<clipPath id="SVGID_00000088128698535065234820000002507579325345134269_">
					<use xlink:href="#SVGID_00000176765057244789004870000012597321839339265423_"  style="overflow:visible;"/>
				</clipPath>
				<g style="clip-path:url(#SVGID_00000088128698535065234820000002507579325345134269_);">
					<defs>
						
							<rect id="SVGID_00000060030877773729222400000005708443462226186935_" x="67.318" y="21.815" width="25.682" height="29.056"/>
					</defs>
					<clipPath id="SVGID_00000064330083404034270880000012732589572206311821_">
						<use xlink:href="#SVGID_00000060030877773729222400000005708443462226186935_"  style="overflow:visible;"/>
					</clipPath>
					<path style="clip-path:url(#SVGID_00000064330083404034270880000012732589572206311821_);fill:#55C95A;" d="M93,35.579v0.785
						c-0.181,1.003-0.418,2.007-0.543,3.01c-0.396,3.196-0.746,6.391-1.142,9.576c-0.068,0.556-0.249,1.091-0.441,1.92
						c-0.825-0.185-1.583-0.316-2.317-0.513c-0.712-0.196-1.436-0.436-2.125-0.698c-3.459-1.309-6.918-2.629-10.366-3.97
						c-0.305-0.12-0.52-0.436-0.995-0.851c1.142-0.949,2.204-1.821,3.369-2.803c-1.017-1.483-1.944-3.108-3.154-4.537
						c-1.379-1.636-2.94-3.141-4.522-4.603c-0.962-0.883-2.136-1.571-3.448-2.519c3.527-3.021,6.737-5.781,9.981-8.562
						c4.442,3.937,8.749,7.613,10.84,13.197c1.526-0.905,2.758-1.636,4.137-2.465C92.548,33.714,92.774,34.641,93,35.579"/>
				</g>
			</g>
			<g style="clip-path:url(#SVGID_00000012472906093333138290000016965366198443655564_);">
				<defs>
					<rect id="SVGID_00000152961352597217306710000012499491236452830648_" x="68.985" y="54.481" width="24.015" height="29.132"/>
				</defs>
				<clipPath id="SVGID_00000178924740905321030370000016607274502197055624_">
					<use xlink:href="#SVGID_00000152961352597217306710000012499491236452830648_"  style="overflow:visible;"/>
				</clipPath>
				<g style="clip-path:url(#SVGID_00000178924740905321030370000016607274502197055624_);">
					<defs>
						
							<rect id="SVGID_00000103943382780115550900000017611607038456052370_" x="68.985" y="54.481" width="24.015" height="29.132"/>
					</defs>
					<clipPath id="SVGID_00000047062085392828053960000008116813467541543586_">
						<use xlink:href="#SVGID_00000103943382780115550900000017611607038456052370_"  style="overflow:visible;"/>
					</clipPath>
					<path style="clip-path:url(#SVGID_00000047062085392828053960000008116813467541543586_);fill:#E1D153;" d="M93,60.524
						c-0.554,1.177-0.995,2.094-1.503,3.162c-1.187,4.363-4.126,7.974-7.178,11.507c1.436,1.059,2.487,1.833,3.853,2.837
						c-5.967,3.107-12.377,3.588-18.639,5.584c-0.215-1.047-0.43-1.756-0.497-2.487c-0.08-0.873-0.045-1.767-0.034-2.662
						c0-0.806,0.023-1.624,0.045-2.442c0.011-0.786,0.057-1.561,0.057-2.345v-6.86c1.865,0.184,3.063,1.167,4.318,1.952
						c3.866-4.003,5.754-8.955,7.461-14.288C85.076,56.576,88.942,58.505,93,60.524"/>
				</g>
			</g>
			<g style="clip-path:url(#SVGID_00000012472906093333138290000016965366198443655564_);">
				<defs>
					<rect id="SVGID_00000085953058093728328560000009418166435695984802_" x="8.025" y="54.972" width="25.03" height="29.47"/>
				</defs>
				<clipPath id="SVGID_00000008848476765794425450000008289451601552700556_">
					<use xlink:href="#SVGID_00000085953058093728328560000009418166435695984802_"  style="overflow:visible;"/>
				</clipPath>
				<g style="clip-path:url(#SVGID_00000008848476765794425450000008289451601552700556_);">
					<defs>
						<rect id="SVGID_00000007420147877456671990000009615253671198791838_" x="8.025" y="54.972" width="25.03" height="29.47"/>
					</defs>
					<clipPath id="SVGID_00000067213891130870269720000011022436794218246532_">
						<use xlink:href="#SVGID_00000007420147877456671990000009615253671198791838_"  style="overflow:visible;"/>
					</clipPath>
					<path style="clip-path:url(#SVGID_00000067213891130870269720000011022436794218246532_);fill:#5699DE;" d="M31.326,74.146
						c0.622,0.534,1.085,1.222,1.729,1.952c-3.448,2.837-6.726,5.541-10.14,8.344c-0.803-0.938-1.447-1.689-2.272-2.649
						c-1.933-0.666-2.928-2.706-4.318-4.298c-1.289-1.471-2.555-2.999-2.95-5.028c-0.113-0.533-0.836-0.971-1.243-1.418
						c-1.311,0.807-2.532,1.56-4.092,2.509c-0.147-6.566,0.825-12.608,2.091-18.585c0.904,0.143,1.503,0.131,2.012,0.328
						c0.565,0.229,1.029,0.653,1.583,0.882c4.103,1.222,8.082,2.792,12.073,4.766c-0.599,1.636-2.476,1.865-3.674,3.054
						c1.786,2.367,3.402,4.746,5.279,6.904C28.5,72.162,30.049,73.033,31.326,74.146"/>
				</g>
			</g>
			<g style="clip-path:url(#SVGID_00000012472906093333138290000016965366198443655564_);">
				<defs>
					<rect id="SVGID_00000093167171571857707460000010387076323995853986_" x="35.339" y="6.044" width="32.521" height="21.214"/>
				</defs>
				<clipPath id="SVGID_00000123429879781536628720000001441278207268584834_">
					<use xlink:href="#SVGID_00000093167171571857707460000010387076323995853986_"  style="overflow:visible;"/>
				</clipPath>
				<g style="clip-path:url(#SVGID_00000123429879781536628720000001441278207268584834_);">
					<defs>
						<rect id="SVGID_00000019648903402044758640000013762713884007075464_" x="35.339" y="6.044" width="32.521" height="21.214"/>
					</defs>
					<clipPath id="SVGID_00000176747417710946671820000001674529599388006277_">
						<use xlink:href="#SVGID_00000019648903402044758640000013762713884007075464_"  style="overflow:visible;"/>
					</clipPath>
					<path style="clip-path:url(#SVGID_00000176747417710946671820000001674529599388006277_);fill:#AD70D6;" d="M53.176,6.044
						c5.742,3.25,9.677,8.006,14.684,12.117c-4.78,3.327-9.371,6.337-14.65,9.096v-4.515c-5.821-1.003-11.146,0.011-16.696,1.571
						c-0.407-4.472-0.78-8.584-1.176-12.903c3.109-0.436,5.935-1.036,8.772-1.178c2.86-0.153,5.731,0.153,8.66,0.262
						C52.906,9.054,53.018,7.713,53.176,6.044"/>
				</g>
			</g>
			<g style="clip-path:url(#SVGID_00000012472906093333138290000016965366198443655564_);">
				<defs>
					<rect id="SVGID_00000140728444032150277350000011445068786605348520_" x="7.204" y="20.648" width="23.083" height="28.849"/>
				</defs>
				<clipPath id="SVGID_00000129887313161502526200000000626877034231061694_">
					<use xlink:href="#SVGID_00000140728444032150277350000011445068786605348520_"  style="overflow:visible;"/>
				</clipPath>
				<g style="clip-path:url(#SVGID_00000129887313161502526200000000626877034231061694_);">
					<defs>
						<rect id="SVGID_00000010305425074363069580000001548039978809711781_" x="7.204" y="20.648" width="23.083" height="28.849"/>
					</defs>
					<clipPath id="SVGID_00000124122907023169813290000015618058204653150082_">
						<use xlink:href="#SVGID_00000010305425074363069580000001548039978809711781_"  style="overflow:visible;"/>
					</clipPath>
					<path style="clip-path:url(#SVGID_00000124122907023169813290000015618058204653150082_);fill:#E33A3A;" d="M30.286,35.994
						c0.011,0.36-0.17,0.709-0.317,1.254c-1.402-0.785-2.622-1.472-3.956-2.225c-1.017,1.494-2.125,2.901-3.007,4.439
						c-1.424,2.487-2.736,5.028-3.12,7.929c-0.09,0.687-0.667,1.309-1.096,2.105c-3.934-1.854-7.777-3.665-11.586-5.453
						c1.786-5.595,3.99-10.623,8.263-14.713c-1.436-1.047-2.589-1.887-4.035-2.945c5.878-2.923,12.084-3.872,18.097-5.737
						c0.237,0.807,0.486,1.298,0.497,1.8C30.139,26.963,30.23,31.479,30.286,35.994"/>
				</g>
			</g>
			<g style="clip-path:url(#SVGID_00000012472906093333138290000016965366198443655564_);">
				<defs>
					<rect id="SVGID_00000024702555749519658860000009144031594248787901_" x="32.287" y="72.826" width="32.318" height="20.679"/>
				</defs>
				<clipPath id="SVGID_00000132781095466518425420000014248444828793825462_">
					<use xlink:href="#SVGID_00000024702555749519658860000009144031594248787901_"  style="overflow:visible;"/>
				</clipPath>
				<g style="clip-path:url(#SVGID_00000132781095466518425420000014248444828793825462_);">
					<defs>
						
							<rect id="SVGID_00000128467824377415699780000007880615943086667416_" x="32.287" y="72.826" width="32.318" height="20.679"/>
					</defs>
					<clipPath id="SVGID_00000114761004969285170630000016134394513697597843_">
						<use xlink:href="#SVGID_00000128467824377415699780000007880615943086667416_"  style="overflow:visible;"/>
					</clipPath>
					<path style="clip-path:url(#SVGID_00000114761004969285170630000016134394513697597843_);fill:#EA7F36;" d="M63.293,75.596
						c0.452,4.352,0.872,8.355,1.311,12.566c-1.242,0.175-2.182,0.293-3.142,0.424c-4.567,1.572-9.268,1.352-14.119,0.578
						c-0.147,1.56-0.26,2.912-0.384,4.341c-1.899-0.338-3.142-1.351-4.375-2.442c-3.188-2.814-6.409-5.584-9.62-8.367
						c-0.158-0.142-0.294-0.327-0.678-0.742c4.567-3.218,9.043-6.402,14.322-9.129v4.604c1.3,0.075,2.442,0.261,3.549,0.173
						c2.442-0.196,4.872-0.469,7.291-0.829C59.314,76.491,61.157,76.033,63.293,75.596"/>
				</g>
			</g>
		</g>
	</g>
</g>
<g id="L1_1_" style="display:none;">
	<g style="display:inline;">
		<defs>
			<rect id="SVGID_00000165914053056533234270000004015366886681915039_" x="28" y="42" width="18.96" height="18.48"/>
		</defs>
		<clipPath id="SVGID_00000167358865086914081880000002905446300168108945_">
			<use xlink:href="#SVGID_00000165914053056533234270000004015366886681915039_"  style="overflow:visible;"/>
		</clipPath>
		<g style="clip-path:url(#SVGID_00000167358865086914081880000002905446300168108945_);">
			<defs>
				<rect id="SVGID_00000018946216464911206250000018181841385909275059_" x="28" y="42" width="18.96" height="18.48"/>
			</defs>
			<clipPath id="SVGID_00000062893948156105006860000015509926315566729374_">
				<use xlink:href="#SVGID_00000018946216464911206250000018181841385909275059_"  style="overflow:visible;"/>
			</clipPath>
			<g style="clip-path:url(#SVGID_00000062893948156105006860000015509926315566729374_);">
				<defs>
					<rect id="SVGID_00000125562152762762499290000014027547084221651602_" x="28.082" y="41.948" width="19.053" height="18.706"/>
				</defs>
				<clipPath id="SVGID_00000142885979426505979520000011622579063208880047_">
					<use xlink:href="#SVGID_00000125562152762762499290000014027547084221651602_"  style="overflow:visible;"/>
				</clipPath>
				<g style="clip-path:url(#SVGID_00000142885979426505979520000011622579063208880047_);">
					<defs>
						
							<rect id="SVGID_00000062879116215380201690000008720314531626046625_" x="28.082" y="41.948" width="19.053" height="18.706"/>
					</defs>
					<clipPath id="SVGID_00000106131597924762524660000011391254030567990950_">
						<use xlink:href="#SVGID_00000062879116215380201690000008720314531626046625_"  style="overflow:visible;"/>
					</clipPath>
					<polygon style="clip-path:url(#SVGID_00000106131597924762524660000011391254030567990950_);fill:#523742;" points="
						47.135,50.613 47.033,51.612 46.624,53.541 46.075,55.653 44.799,57.406 43.278,58.966 41.25,59.798 38.753,60.326 
						37.801,60.654 36.961,60.291 35.192,60.033 33.483,59.474 31.331,58.515 29.821,56.698 28.708,54.604 28.081,51.29 
						28.37,48.802 29.548,46.61 30.996,44.616 33.056,43.241 35.076,42.587 37.102,41.956 38.561,41.948 41.529,43.063 
						43.727,44.112 45.306,45.941 46.461,48.116 					"/>
				</g>
			</g>
		</g>
	</g>
</g>
<g id="L1_2_" style="display:none;">
	<g style="display:inline;">
		<defs>
			<rect id="SVGID_00000146481663669879664060000010747676056263028371_" x="53" y="42" width="18.96" height="18.48"/>
		</defs>
		<clipPath id="SVGID_00000112628980376204868610000003864216620100573056_">
			<use xlink:href="#SVGID_00000146481663669879664060000010747676056263028371_"  style="overflow:visible;"/>
		</clipPath>
		<g style="clip-path:url(#SVGID_00000112628980376204868610000003864216620100573056_);">
			<defs>
				<rect id="SVGID_00000020369509404704461360000004424223529718510012_" x="53" y="42" width="18.96" height="18.48"/>
			</defs>
			<clipPath id="SVGID_00000134217276077007375950000005231761849932291236_">
				<use xlink:href="#SVGID_00000020369509404704461360000004424223529718510012_"  style="overflow:visible;"/>
			</clipPath>
			<g style="clip-path:url(#SVGID_00000134217276077007375950000005231761849932291236_);">
				<defs>
					<rect id="SVGID_00000162333006470264005030000013207885112147886009_" x="53.082" y="41.948" width="19.053" height="18.706"/>
				</defs>
				<clipPath id="SVGID_00000083052448878168331400000013636078210054517913_">
					<use xlink:href="#SVGID_00000162333006470264005030000013207885112147886009_"  style="overflow:visible;"/>
				</clipPath>
				<g style="clip-path:url(#SVGID_00000083052448878168331400000013636078210054517913_);">
					<defs>
						
							<rect id="SVGID_00000103241995738016177300000005023130967786812846_" x="53.082" y="41.948" width="19.053" height="18.706"/>
					</defs>
					<clipPath id="SVGID_00000062893288901937562760000018138503255474254258_">
						<use xlink:href="#SVGID_00000103241995738016177300000005023130967786812846_"  style="overflow:visible;"/>
					</clipPath>
					<polygon style="clip-path:url(#SVGID_00000062893288901937562760000018138503255474254258_);fill:#9F9EB1;" points="
						72.135,50.613 72.033,51.612 71.624,53.541 71.075,55.653 69.799,57.406 68.278,58.966 66.25,59.798 63.753,60.326 
						62.801,60.654 61.961,60.291 60.192,60.033 58.483,59.474 56.331,58.515 54.821,56.698 53.708,54.604 53.081,51.29 
						53.37,48.802 54.548,46.61 55.996,44.616 58.056,43.241 60.076,42.587 62.102,41.956 63.561,41.948 66.529,43.063 
						68.727,44.112 70.306,45.941 71.461,48.116 					"/>
				</g>
			</g>
		</g>
	</g>
</g>
<g id="L6_L1_L1_00000039127518856996173470000018439024567382197893_">
	<g>
		<defs>
			<rect id="SVGID_00000120548671861040157190000007291493138837801146_" x="7" y="6" width="86" height="89"/>
		</defs>
		<clipPath id="SVGID_00000179618119348953041780000009415458100248380351_">
			<use xlink:href="#SVGID_00000120548671861040157190000007291493138837801146_"  style="overflow:visible;"/>
		</clipPath>
		<g style="clip-path:url(#SVGID_00000179618119348953041780000009415458100248380351_);">
			<defs>
				<rect id="SVGID_00000044899856396644747040000010959843646602486967_" x="67.317" y="21.814" width="25.683" height="29.056"/>
			</defs>
			<clipPath id="SVGID_00000034067321730494923720000003446162739657104824_">
				<use xlink:href="#SVGID_00000044899856396644747040000010959843646602486967_"  style="overflow:visible;"/>
			</clipPath>
			<path style="clip-path:url(#SVGID_00000034067321730494923720000003446162739657104824_);fill:#55C95A;" d="M93,35.579v0.786
				c-0.181,1.003-0.418,2.006-0.543,3.01c-0.395,3.195-0.746,6.391-1.142,9.576c-0.067,0.556-0.248,1.09-0.44,1.92
				c-0.825-0.186-1.583-0.317-2.317-0.513c-0.712-0.196-1.436-0.436-2.125-0.698c-3.459-1.309-6.918-2.629-10.367-3.97
				c-0.304-0.12-0.519-0.437-0.994-0.851c1.142-0.949,2.204-1.822,3.368-2.803c-1.017-1.483-1.944-3.108-3.153-4.537
				c-1.38-1.636-2.94-3.141-4.521-4.603c-0.962-0.883-2.137-1.57-3.449-2.52c3.528-3.021,6.738-5.78,9.982-8.561
				c4.442,3.937,8.749,7.613,10.841,13.197c1.525-0.905,2.757-1.636,4.136-2.465C92.548,33.714,92.773,34.641,93,35.579"/>
		</g>
		<g style="clip-path:url(#SVGID_00000179618119348953041780000009415458100248380351_);">
			<defs>
				<rect id="SVGID_00000080195877853935211070000017049353103647182780_" x="68.985" y="54.481" width="24.016" height="29.132"/>
			</defs>
			<clipPath id="SVGID_00000152262333193586874500000008763850020097950356_">
				<use xlink:href="#SVGID_00000080195877853935211070000017049353103647182780_"  style="overflow:visible;"/>
			</clipPath>
			<path style="clip-path:url(#SVGID_00000152262333193586874500000008763850020097950356_);fill:#E1D153;" d="M93,60.524
				c-0.554,1.177-0.995,2.094-1.504,3.161c-1.186,4.363-4.126,7.975-7.178,11.507c1.436,1.06,2.488,1.834,3.854,2.837
				c-5.967,3.107-12.376,3.589-18.639,5.584c-0.215-1.047-0.429-1.756-0.497-2.486c-0.081-0.873-0.046-1.767-0.034-2.663
				c0-0.806,0.022-1.624,0.045-2.442c0.012-0.786,0.057-1.56,0.057-2.345v-6.86c1.865,0.185,3.063,1.167,4.318,1.952
				c3.865-4.003,5.753-8.954,7.46-14.288C85.076,56.575,88.941,58.504,93,60.524"/>
		</g>
		<g style="clip-path:url(#SVGID_00000179618119348953041780000009415458100248380351_);">
			<defs>
				<rect id="SVGID_00000106105324889764743050000012658664681931657634_" x="8.025" y="54.971" width="25.031" height="29.471"/>
			</defs>
			<clipPath id="SVGID_00000181047366732049507880000001832497899133622456_">
				<use xlink:href="#SVGID_00000106105324889764743050000012658664681931657634_"  style="overflow:visible;"/>
			</clipPath>
			<path style="clip-path:url(#SVGID_00000181047366732049507880000001832497899133622456_);fill:#5699DE;" d="M31.326,74.146
				c0.622,0.534,1.085,1.222,1.729,1.952c-3.447,2.837-6.726,5.541-10.139,8.344c-0.803-0.938-1.447-1.69-2.272-2.65
				c-1.933-0.666-2.928-2.705-4.318-4.297c-1.289-1.472-2.555-2.999-2.951-5.029c-0.112-0.533-0.836-0.97-1.243-1.418
				c-1.311,0.808-2.532,1.56-4.092,2.509c-0.147-6.565,0.825-12.608,2.091-18.585c0.904,0.143,1.504,0.131,2.012,0.328
				c0.565,0.23,1.029,0.654,1.583,0.883c4.103,1.221,8.082,2.792,12.072,4.766c-0.599,1.635-2.475,1.865-3.674,3.053
				c1.786,2.368,3.403,4.747,5.28,6.905C28.5,72.162,30.049,73.034,31.326,74.146"/>
		</g>
		<g style="clip-path:url(#SVGID_00000179618119348953041780000009415458100248380351_);">
			<defs>
				<rect id="SVGID_00000046337078158226830090000001145218405323963537_" x="35.339" y="6.044" width="32.521" height="21.213"/>
			</defs>
			<clipPath id="SVGID_00000015345095514307486200000005611123479391488697_">
				<use xlink:href="#SVGID_00000046337078158226830090000001145218405323963537_"  style="overflow:visible;"/>
			</clipPath>
			<path style="clip-path:url(#SVGID_00000015345095514307486200000005611123479391488697_);fill:#AD70D6;" d="M53.176,6.044
				c5.742,3.25,9.678,8.006,14.684,12.118c-4.781,3.326-9.372,6.337-14.65,9.096v-4.515c-5.822-1.004-11.145,0.01-16.696,1.57
				c-0.407-4.472-0.78-8.583-1.175-12.903c3.108-0.436,5.934-1.036,8.772-1.178c2.859-0.152,5.731,0.153,8.66,0.262
				C52.906,9.054,53.018,7.713,53.176,6.044"/>
		</g>
		<g style="clip-path:url(#SVGID_00000179618119348953041780000009415458100248380351_);">
			<defs>
				<rect id="SVGID_00000024711047183619707910000004059914233363172251_" x="7.203" y="20.648" width="23.083" height="28.849"/>
			</defs>
			<clipPath id="SVGID_00000030466606193335474290000005537341668847486911_">
				<use xlink:href="#SVGID_00000024711047183619707910000004059914233363172251_"  style="overflow:visible;"/>
			</clipPath>
			<path style="clip-path:url(#SVGID_00000030466606193335474290000005537341668847486911_);fill:#E33A3A;" d="M30.286,35.994
				c0.011,0.36-0.169,0.709-0.316,1.254c-1.402-0.785-2.623-1.472-3.957-2.225c-1.017,1.494-2.125,2.902-3.007,4.439
				c-1.424,2.487-2.735,5.029-3.119,7.929c-0.091,0.688-0.667,1.31-1.097,2.105c-3.934-1.854-7.777-3.664-11.587-5.453
				c1.787-5.595,3.991-10.623,8.264-14.713c-1.436-1.047-2.589-1.887-4.036-2.945c5.878-2.923,12.084-3.872,18.098-5.737
				c0.237,0.807,0.486,1.298,0.497,1.8C30.139,26.963,30.229,31.478,30.286,35.994"/>
		</g>
		<g style="clip-path:url(#SVGID_00000179618119348953041780000009415458100248380351_);">
			<defs>
				<rect id="SVGID_00000080195815953266725480000003244737322876266918_" x="32.286" y="72.826" width="32.318" height="20.68"/>
			</defs>
			<clipPath id="SVGID_00000176029536906954333270000005225659668297607342_">
				<use xlink:href="#SVGID_00000080195815953266725480000003244737322876266918_"  style="overflow:visible;"/>
			</clipPath>
			<path style="clip-path:url(#SVGID_00000176029536906954333270000005225659668297607342_);fill:#F26C2B;" d="M63.293,75.597
				c0.452,4.352,0.872,8.354,1.312,12.565c-1.243,0.175-2.182,0.294-3.143,0.425c-4.566,1.572-9.268,1.352-14.119,0.577
				c-0.147,1.561-0.259,2.912-0.384,4.342c-1.899-0.339-3.143-1.351-4.374-2.442c-3.188-2.815-6.41-5.584-9.62-8.367
				c-0.158-0.142-0.294-0.328-0.678-0.742c4.567-3.217,9.043-6.402,14.321-9.129v4.604c1.301,0.075,2.442,0.261,3.55,0.174
				c2.442-0.196,4.872-0.469,7.291-0.829C59.314,76.492,61.156,76.033,63.293,75.597"/>
		</g>
		<polygon style="clip-path:url(#SVGID_00000179618119348953041780000009415458100248380351_);fill:#523742;" points="36.961,42 
			35.077,42.587 33.056,43.241 30.996,44.615 29.549,46.61 28.371,48.802 28.082,51.282 28.082,51.295 28.709,54.604 29.822,56.698 
			31.332,58.515 33.484,59.474 35.193,60.033 36.961,60.291 37.401,60.481 38.306,60.481 38.754,60.327 41.251,59.798 
			43.278,58.966 44.799,57.406 46.076,55.652 46.625,53.541 46.96,51.955 46.96,49.963 46.462,48.116 45.306,45.941 43.728,44.112 
			41.53,43.063 38.7,42 		"/>
		<polygon style="clip-path:url(#SVGID_00000179618119348953041780000009415458100248380351_);fill:#9F9EB1;" points="61.961,42 
			60.077,42.587 58.057,43.241 55.996,44.615 54.548,46.61 53.37,48.802 53.082,51.282 53.082,51.295 53.708,54.604 54.822,56.698 
			56.331,58.515 58.484,59.474 60.193,60.033 61.961,60.291 62.401,60.481 63.305,60.481 63.753,60.327 66.25,59.798 68.278,58.966 
			69.799,57.406 71.076,55.652 71.624,53.541 71.96,51.955 71.96,49.964 71.461,48.116 70.307,45.941 68.728,44.112 66.53,43.063 
			63.7,42 		"/>
	</g>
</g>
</svg>
