<?xml version="1.0" encoding="iso-8859-1"?>
<!-- Generator: Adobe Illustrator 26.0.1, SVG Export Plug-In . SVG Version: 6.00 Build 0)  -->
<svg version="1.1" xmlns="http://www.w3.org/2000/svg" xmlns:xlink="http://www.w3.org/1999/xlink" x="0px" y="0px"
	 viewBox="0 0 100 100" style="enable-background:new 0 0 100 100;" xml:space="preserve">
<g id="Layer_1">
	<g id="G_x28__T1_T1_T1_L3__x29__T1_L1_00000085213418438722562700000006083041361679497888_">
		<g>
			<defs>
				<rect id="SVGID_1_" x="-2" y="3" width="102.767" height="96.721"/>
			</defs>
			<clipPath id="SVGID_00000164505633610959457110000002407645441476097471_">
				<use xlink:href="#SVGID_1_"  style="overflow:visible;"/>
			</clipPath>
			<g style="clip-path:url(#SVGID_00000164505633610959457110000002407645441476097471_);">
				<defs>
					<rect id="SVGID_00000054980040175137765940000016644686066202547604_" x="-2" y="3" width="102.767" height="96.721"/>
				</defs>
				<clipPath id="SVGID_00000019636619498804273440000015928283139478428810_">
					<use xlink:href="#SVGID_00000054980040175137765940000016644686066202547604_"  style="overflow:visible;"/>
				</clipPath>
				<g style="clip-path:url(#SVGID_00000019636619498804273440000015928283139478428810_);">
					<defs>
						<rect id="SVGID_00000171688691713720540580000004591213782785224585_" x="-2" y="3" width="102.767" height="96.721"/>
					</defs>
					<clipPath id="SVGID_00000015325690062432891290000013188588803073132432_">
						<use xlink:href="#SVGID_00000171688691713720540580000004591213782785224585_"  style="overflow:visible;"/>
					</clipPath>
					<g style="opacity:0.99;clip-path:url(#SVGID_00000015325690062432891290000013188588803073132432_);">
						<g>
							<defs>
								
									<rect id="SVGID_00000183232384832597632700000002172108455730804112_" x="18.408" y="14.642" width="47.766" height="52.098"/>
							</defs>
							<clipPath id="SVGID_00000163072368345436754350000000840815968030740667_">
								<use xlink:href="#SVGID_00000183232384832597632700000002172108455730804112_"  style="overflow:visible;"/>
							</clipPath>
							<g style="clip-path:url(#SVGID_00000163072368345436754350000000840815968030740667_);">
								<defs>
									<polygon id="SVGID_00000008141012719567787100000009937512634088907680_" points="18.412,17.375 20.774,66.739 
										66.17,64.011 63.809,14.647 									"/>
								</defs>
								<clipPath id="SVGID_00000023238724192847033770000013354671645844458904_">
									<use xlink:href="#SVGID_00000008141012719567787100000009937512634088907680_"  style="overflow:visible;"/>
								</clipPath>
								<g style="clip-path:url(#SVGID_00000023238724192847033770000013354671645844458904_);">
									<defs>
										
											<rect id="SVGID_00000118366742668432763010000006548094458210777519_" x="23.097" y="15.928" width="34.56" height="22.64"/>
									</defs>
									<clipPath id="SVGID_00000008124135949847677120000001761975178282214552_">
										<use xlink:href="#SVGID_00000118366742668432763010000006548094458210777519_"  style="overflow:visible;"/>
									</clipPath>
									<g style="clip-path:url(#SVGID_00000008124135949847677120000001761975178282214552_);">
										<defs>
											
												<rect id="SVGID_00000112632045191171941570000004277918975506132894_" x="23.097" y="15.928" width="34.56" height="22.64"/>
										</defs>
										<clipPath id="SVGID_00000047749949533563465920000007617572031651271305_">
											<use xlink:href="#SVGID_00000112632045191171941570000004277918975506132894_"  style="overflow:visible;"/>
										</clipPath>
										<path style="clip-path:url(#SVGID_00000047749949533563465920000007617572031651271305_);fill:#AD70D6;" d="
											M57.656,26.128c-2.13,2-4.229,4.11-6.53,6.1c-1.78,1.55-3.679,3.03-5.83,4.36c-0.329-1.76-0.57-3.06-0.849-4.56
											c-2.46,0.35-5.101,0.24-7.291,1.19c-2.12,0.94-4.29,2.42-5.3,5.35c-3.03-1.93-5.83-3.73-8.76-5.6
											c1.57-3.19,3.01-6.32,5.88-8.47c0.56-0.41,0.991-0.98,1.44-1.51c1.31-1.5,3.13-1.93,4.88-2.32
											c1.81-0.4,3.72-0.34,5.6-0.49c0.531-0.05,1.08-0.07,1.63-0.1c0.01-1.52,0.02-2.84,0.01-4.15
											C45.276,15.998,56.707,23.688,57.656,26.128"/>
									</g>
								</g>
								<g style="clip-path:url(#SVGID_00000023238724192847033770000013354671645844458904_);">
									<defs>
										
											<rect id="SVGID_00000070802331583001988560000004703570991036235961_" x="20.074" y="38.618" width="25.162" height="26.98"/>
									</defs>
									<clipPath id="SVGID_00000039102877901043747340000014983706157981563067_">
										<use xlink:href="#SVGID_00000070802331583001988560000004703570991036235961_"  style="overflow:visible;"/>
									</clipPath>
									<g style="clip-path:url(#SVGID_00000039102877901043747340000014983706157981563067_);">
										<defs>
											
												<rect id="SVGID_00000120521186467139968770000016974529899363696828_" x="20.074" y="38.618" width="25.162" height="26.98"/>
										</defs>
										<clipPath id="SVGID_00000121991805949823705890000004127998494943384491_">
											<use xlink:href="#SVGID_00000120521186467139968770000016974529899363696828_"  style="overflow:visible;"/>
										</clipPath>
										<path style="clip-path:url(#SVGID_00000121991805949823705890000004127998494943384491_);fill:#E1D153;" d="
											M45.237,54.379c-0.03,0.939-0.07,1.6-0.09,2.25c-0.07,2.619-0.13,5.239-0.2,7.85c-0.01,0.28-0.13,0.559-0.2,0.82
											l-5.01,0.3c-0.37-0.09-0.75-0.18-1.13-0.271c-2.28-0.599-4.63-1.029-6.83-1.84c-1.16-0.429-2.27-1.339-3.09-2.309
											c-1.65-1.96-3.08-4.101-4.67-6.271c-1.04,0.7-2.18,1.46-3.34,2.25c-1.2-3.08-0.47-16.929,0.99-18.539
											c3.08,0.989,6.23,1.82,9.41,2.9c1.89,0.65,3.81,1.39,5.71,2.29c-1.3,1.199-2.37,2.19-3.47,3.199
											c1.61,2.06,3.18,4.06,4.82,6.141C40.477,53.269,42.287,55.939,45.237,54.379"/>
									</g>
								</g>
								<g style="clip-path:url(#SVGID_00000023238724192847033770000013354671645844458904_);">
									<defs>
										
											<rect id="SVGID_00000024705597121268601850000006133148496649378183_" x="46.887" y="30.678" width="18.86" height="34.04"/>
									</defs>
									<clipPath id="SVGID_00000116227377547443481200000001260932566367197863_">
										<use xlink:href="#SVGID_00000024705597121268601850000006133148496649378183_"  style="overflow:visible;"/>
									</clipPath>
									<g style="clip-path:url(#SVGID_00000116227377547443481200000001260932566367197863_);">
										<defs>
											
												<rect id="SVGID_00000068675590505852374540000016655660339815855251_" x="46.887" y="30.678" width="18.86" height="34.04"/>
										</defs>
										<clipPath id="SVGID_00000149344660198433376310000017620531799289520052_">
											<use xlink:href="#SVGID_00000068675590505852374540000016655660339815855251_"  style="overflow:visible;"/>
										</clipPath>
										<path style="clip-path:url(#SVGID_00000149344660198433376310000017620531799289520052_);fill:#5699DE;" d="
											M63.946,39.469c2.32,4.39,0.57,8.38-1.29,12.37c-0.26,0.58-0.409,1.22-0.64,1.92c1.29,0.489,2.5,0.95,3.731,1.42
											c-1.261,2.05-10.611,8.149-14.631,9.54c-1.33-3.57-2.45-7.2-3.35-11.02c-0.32-1.33-0.62-2.67-0.88-4.04
											c1.61,0.4,2.88,0.7,4.41,1.09c0.711-2.65,1.88-5.27,2.001-7.93c0.099-2.31,0.089-5.06-2.261-6.77
											c0.6-0.39,1.19-0.79,1.761-1.16c2.17-1.43,4.239-2.8,6.37-4.21c2.029,2.47,4.04,5.02,4.729,8.37
											C63.926,39.189,63.896,39.349,63.946,39.469"/>
									</g>
								</g>
							</g>
						</g>
					</g>
				</g>
				<g style="clip-path:url(#SVGID_00000019636619498804273440000015928283139478428810_);">
					<defs>
						<polygon id="SVGID_00000179610406089764879150000016626954548810008961_" points="63.154,38.848 76.044,52.974 
							100.767,29.573 87.876,15.447 						"/>
					</defs>
					<clipPath id="SVGID_00000060001847852699052300000017139174075596246710_">
						<use xlink:href="#SVGID_00000179610406089764879150000016626954548810008961_"  style="overflow:visible;"/>
					</clipPath>
					<g style="clip-path:url(#SVGID_00000060001847852699052300000017139174075596246710_);">
						<defs>
							<rect id="SVGID_00000146464709236141610030000010394190996397583549_" x="65.867" y="22.968" width="31.1" height="23.694"/>
						</defs>
						<clipPath id="SVGID_00000163789143833366703230000007330048251108074128_">
							<use xlink:href="#SVGID_00000146464709236141610030000010394190996397583549_"  style="overflow:visible;"/>
						</clipPath>
						<g style="clip-path:url(#SVGID_00000163789143833366703230000007330048251108074128_);">
							<defs>
								
									<rect id="SVGID_00000157303886949843418870000003608497400128768391_" x="65.867" y="22.968" width="31.1" height="23.694"/>
							</defs>
							<clipPath id="SVGID_00000155824702516315397760000014353284367584000191_">
								<use xlink:href="#SVGID_00000157303886949843418870000003608497400128768391_"  style="overflow:visible;"/>
							</clipPath>
							<path style="clip-path:url(#SVGID_00000155824702516315397760000014353284367584000191_);fill:#55C95A;" d="M96.967,29.958
								c-0.931,2.48-1.391,2.2-3.49,4.91c-0.09,0.11-1.64,1.51-1.71,1.62c-0.42,0.62-4.7,4.42-8.88,5.57
								c-0.61,0.16-1.191,0.47-1.86,0.74c0.45,1.32,0.86,2.57,1.29,3.84c-2.35,0.34-12.86-3.02-16.451-5.25
								c2.491-4.51,5.301-8.79,8.681-13.07c0.72,1.52,1.29,2.71,1.98,4.15c2.45-1.16,4.45-2.15,6.53-3.79
								c1.809-1.43,3.41-3.23,4.34-5.71C90.567,23.958,96.967,29.958,96.967,29.958"/>
						</g>
					</g>
				</g>
				<g style="clip-path:url(#SVGID_00000019636619498804273440000015928283139478428810_);">
					<defs>
						<polygon id="SVGID_00000049182257797413262760000003432788631450916011_" points="-2,22.341 31.5,24.474 32.886,5.133 
							-0.615,3.001 						"/>
					</defs>
					<clipPath id="SVGID_00000171710394337313920730000002901335801030854800_">
						<use xlink:href="#SVGID_00000049182257797413262760000003432788631450916011_"  style="overflow:visible;"/>
					</clipPath>
					<g style="clip-path:url(#SVGID_00000171710394337313920730000002901335801030854800_);">
						<defs>
							<rect id="SVGID_00000073711869724523291580000010928081986577906336_" x="2.237" y="4.738" width="29.24" height="18.58"/>
						</defs>
						<clipPath id="SVGID_00000176721671493215970990000016326485881539879560_">
							<use xlink:href="#SVGID_00000073711869724523291580000010928081986577906336_"  style="overflow:visible;"/>
						</clipPath>
						<g style="clip-path:url(#SVGID_00000176721671493215970990000016326485881539879560_);">
							<defs>
								<rect id="SVGID_00000078736369632777212160000009743433364109777839_" x="2.237" y="4.738" width="29.24" height="18.58"/>
							</defs>
							<clipPath id="SVGID_00000140708285575308767230000012240352476343733161_">
								<use xlink:href="#SVGID_00000078736369632777212160000009743433364109777839_"  style="overflow:visible;"/>
							</clipPath>
							<path style="clip-path:url(#SVGID_00000140708285575308767230000012240352476343733161_);fill:#F26C2B;" d="M24.107,4.868
								c1.83,1.51,6.55,11.63,7.37,15.83c-4.91,1.28-9.88,2.16-15.23,2.62c0.59-1.59,1.06-2.84,1.63-4.35
								c-2.49-1.01-4.56-1.8-7.13-2.21c-2.25-0.36-4.64-0.3-7.04,0.74c-1.43-3.05-1.47-11.95-1.47-11.95
								c2.4-1.03,2.52-0.48,5.88-0.81c0.13-0.01,2.18,0.17,2.31,0.15c0.73-0.12,6.36,0.42,10,2.73c0.54,0.34,1.15,0.55,1.79,0.86
								C22.866,7.239,23.476,6.069,24.107,4.868"/>
						</g>
					</g>
				</g>
				<g style="clip-path:url(#SVGID_00000019636619498804273440000015928283139478428810_);">
					<defs>
						<polygon id="SVGID_00000099621885862642956970000017222393575241754269_" points="11.557,97.479 30.57,98.335 32.402,64.185 
							13.387,63.33 						"/>
					</defs>
					<clipPath id="SVGID_00000103230970994951096970000012955422273274719631_">
						<use xlink:href="#SVGID_00000099621885862642956970000017222393575241754269_"  style="overflow:visible;"/>
					</clipPath>
					<g style="clip-path:url(#SVGID_00000103230970994951096970000012955422273274719631_);">
						<defs>
							<rect id="SVGID_00000049936881211747003790000017625585304373089698_" x="13.196" y="64.318" width="18.19" height="30.18"/>
						</defs>
						<clipPath id="SVGID_00000130642877342292039240000013887467315567658136_">
							<use xlink:href="#SVGID_00000049936881211747003790000017625585304373089698_"  style="overflow:visible;"/>
						</clipPath>
						<g style="clip-path:url(#SVGID_00000130642877342292039240000013887467315567658136_);">
							<defs>
								
									<rect id="SVGID_00000158734048626065999600000015462583161878564268_" x="13.196" y="64.318" width="18.19" height="30.18"/>
							</defs>
							<clipPath id="SVGID_00000140008458995353538310000003190173654368066689_">
								<use xlink:href="#SVGID_00000158734048626065999600000015462583161878564268_"  style="overflow:visible;"/>
							</clipPath>
							<path style="clip-path:url(#SVGID_00000140008458995353538310000003190173654368066689_);fill:#E33A3A;" d="M28.697,64.318
								c1.3,4.96,2.2,9.99,2.69,15.43c-1.57-0.57-2.8-1.01-4.28-1.539c-0.98,2.559-1.74,4.689-2.12,7.319
								c-0.34,2.3-0.26,4.72,0.78,7.141c-2.98,1.54-11.72,1.829-11.72,1.829c-1.04-2.409-0.5-2.539-0.85-5.95
								c-0.01-0.14,0.15-2.23,0.13-2.36c-0.13-0.74,0.36-6.479,2.6-10.26c0.33-0.549,0.54-1.17,0.83-1.839
								c-1.22-0.63-2.38-1.221-3.56-1.821C14.667,70.368,24.567,65.278,28.697,64.318"/>
						</g>
					</g>
				</g>
				<polygon style="clip-path:url(#SVGID_00000019636619498804273440000015928283139478428810_);fill:#523742;" points="
					81.73,76.978 79.842,77.566 77.823,78.22 75.762,79.594 74.314,81.588 73.136,83.78 72.848,86.261 72.848,86.273 73.474,89.582 
					74.588,91.677 76.097,93.493 78.25,94.452 79.959,95.011 81.727,95.27 82.167,95.459 83.071,95.459 83.519,95.305 
					86.016,94.776 88.045,93.944 89.565,92.385 90.842,90.631 91.39,88.52 91.726,86.934 91.726,84.943 91.227,83.094 
					90.073,80.919 88.494,79.089 86.296,78.041 83.464,76.978 				"/>
				<g style="clip-path:url(#SVGID_00000019636619498804273440000015928283139478428810_);">
					<defs>
						
							<rect id="SVGID_00000146481591361130066880000012255052052348904848_" x="42.549" y="72.96" transform="matrix(0.7465 -0.6653 0.6653 0.7465 -40.1913 59.1942)" width="30.098" height="18.779"/>
					</defs>
					<clipPath id="SVGID_00000128474273680187229470000010839290277346529182_">
						<use xlink:href="#SVGID_00000146481591361130066880000012255052052348904848_"  style="overflow:visible;"/>
					</clipPath>
					<path style="clip-path:url(#SVGID_00000128474273680187229470000010839290277346529182_);fill:#9F9EB1;" d="M64.171,72.62
						c0.966-0.915,0.053-3.007,2.027-3.24c2.72,3.457,5.413,6.87,8.278,10.506c-3.606,2.355-7.56,3.856-11.346,5.65
						c-0.391-0.107-0.718-0.204-1.115-0.306c0.187-1.412,0.39-2.852,0.589-4.329c-2.536-1.491-4.782-0.359-6.642,0.829
						c-3.03,1.937-2.111,4.922-1.34,7.396c0.565,0.783,0.959,1.315,1.477,2.033c-2.545,1.398-4.857,2.666-7.211,3.947
						c-0.181-0.173-0.387-0.284-0.435-0.442c-0.688-1.945-1.697-3.859-1.936-5.856c-0.591-5.006,0.683-9.53,4.466-13.129
						c2.427-2.297,5.197-3.774,8.611-3.641C61.092,72.096,62.575,72.408,64.171,72.62"/>
				</g>
			</g>
		</g>
	</g>
</g>
<g id="Layer_2">
	<g id="Layer_3">
	</g>
</g>
</svg>
