<?xml version="1.0" encoding="iso-8859-1"?>
<!-- Generator: Adobe Illustrator 26.0.1, SVG Export Plug-In . SVG Version: 6.00 Build 0)  -->
<svg version="1.1" id="Layer_1" xmlns="http://www.w3.org/2000/svg" xmlns:xlink="http://www.w3.org/1999/xlink" x="0px" y="0px"
	 viewBox="0 0 100 100" style="enable-background:new 0 0 100 100;" xml:space="preserve">
<g id="L1_1_">
	<g>
		<defs>
			
				<rect id="SVGID_1_" x="67.963" y="73.538" transform="matrix(0.2091 -0.9779 0.9779 0.2091 -20.126 141.1512)" width="18.48" height="18.96"/>
		</defs>
		<clipPath id="SVGID_00000064312733303740011240000002003942401280837822_">
			<use xlink:href="#SVGID_1_"  style="overflow:visible;"/>
		</clipPath>
		<g style="clip-path:url(#SVGID_00000064312733303740011240000002003942401280837822_);">
			<defs>
				
					<rect id="SVGID_00000183236982567838083390000013936110384989053344_" x="67.963" y="73.538" transform="matrix(0.2091 -0.9779 0.9779 0.2091 -20.126 141.1512)" width="18.48" height="18.96"/>
			</defs>
			<clipPath id="SVGID_00000082355299650064956260000004315674056713799611_">
				<use xlink:href="#SVGID_00000183236982567838083390000013936110384989053344_"  style="overflow:visible;"/>
			</clipPath>
			<g style="clip-path:url(#SVGID_00000082355299650064956260000004315674056713799611_);">
				<defs>
					
						<rect id="SVGID_00000041283800862873200750000011124506991882265226_" x="67.963" y="73.578" transform="matrix(0.2091 -0.9779 0.9779 0.2091 -20.1212 141.3297)" width="18.706" height="19.053"/>
				</defs>
				<clipPath id="SVGID_00000065066828885315503890000015228020061336500895_">
					<use xlink:href="#SVGID_00000041283800862873200750000011124506991882265226_"  style="overflow:visible;"/>
				</clipPath>
				<g style="clip-path:url(#SVGID_00000065066828885315503890000015228020061336500895_);">
					<defs>
						
							<rect id="SVGID_00000126290695586765087240000015829051694974721929_" x="67.963" y="73.578" transform="matrix(0.2091 -0.9779 0.9779 0.2091 -20.1212 141.3297)" width="18.706" height="19.053"/>
					</defs>
					<clipPath id="SVGID_00000063629510730852615550000007789521379841905591_">
						<use xlink:href="#SVGID_00000126290695586765087240000015829051694974721929_"  style="overflow:visible;"/>
					</clipPath>
					<polygon style="clip-path:url(#SVGID_00000063629510730852615550000007789521379841905591_);fill:#9F9EB1;" points="
						86.776,84.424 86.467,85.38 85.664,87.181 84.685,89.131 83.071,90.579 81.257,91.786 79.1,92.175 76.548,92.169 
						75.548,92.291 74.803,91.76 73.127,91.138 71.572,90.234 69.669,88.846 68.572,86.754 67.922,84.473 68.002,81.101 
						68.805,78.729 70.415,76.832 72.248,75.185 74.55,74.271 76.662,74.054 78.775,73.86 80.204,74.158 82.873,75.869 
						84.803,77.354 85.964,79.473 86.639,81.842 					"/>
				</g>
			</g>
		</g>
	</g>
</g>
<g id="T2_x5F_3_1_">
	<g>
		<defs>
			<polygon id="SVGID_00000068649030748796296010000010915975992048733831_" points="68.251,11.639 80.864,37.674 95.623,30.523 
				83.031,4.533 83.009,4.489 			"/>
		</defs>
		<clipPath id="SVGID_00000137824692404664286020000000972947566346031001_">
			<use xlink:href="#SVGID_00000068649030748796296010000010915975992048733831_"  style="overflow:visible;"/>
		</clipPath>
		<path style="clip-path:url(#SVGID_00000137824692404664286020000000972947566346031001_);fill:#AD70D6;" d="M74.22,13.87
			c1.62-2.365,8.127-6.159,8.127-6.159c1.771,1.363,1.422,1.678,3.08,4.062c0.068,0.098,0.802,1.712,0.872,1.8
			c0.401,0.494,2.38,4.946,2.232,8.659c-0.021,0.543,0.079,1.091,0.128,1.707c1.184-0.04,2.302-0.077,3.442-0.117
			c-0.33,2.012-5.747,9.836-8.481,12.238c-3.017-3.145-5.763-6.502-8.362-10.324c1.415-0.223,2.528-0.401,3.873-0.615
			c-0.311-2.293-0.602-4.183-1.394-6.289C77.044,16.996,75.991,15.234,74.22,13.87"/>
	</g>
	<g>
		<defs>
			
				<rect id="SVGID_00000170981414567859139630000014578334512690516117_" x="63.149" y="38.768" transform="matrix(0.467 -0.8842 0.8842 0.467 -0.1648 93.6626)" width="28.929" height="16.4"/>
		</defs>
		<clipPath id="SVGID_00000177477580051982228000000003408962910437195906_">
			<use xlink:href="#SVGID_00000170981414567859139630000014578334512690516117_"  style="overflow:visible;"/>
		</clipPath>
		<path style="clip-path:url(#SVGID_00000177477580051982228000000003408962910437195906_);fill:#55C95A;" d="M78.853,36.478
			c2.866-0.094,9.777,2.902,9.777,2.902c-0.049,2.235-0.51,2.139-1.451,4.888c-0.038,0.112-0.905,1.66-0.933,1.768
			c-0.162,0.616-2.578,4.847-5.657,6.926c-0.449,0.305-0.833,0.71-1.3,1.114c0.732,0.93,1.425,1.809,2.132,2.705
			c-1.818,0.924-11.329,1.192-14.883,0.411c0.747-4.294,1.827-8.494,3.367-12.852c1.019,1.008,1.819,1.801,2.789,2.757
			c1.663-1.609,3.013-2.962,4.242-4.847C78.008,40.605,78.803,38.714,78.853,36.478"/>
	</g>
	
		<rect x="55.982" y="10.652" transform="matrix(0.8918 -0.4524 0.4524 0.8918 -8.0562 38.4034)" style="fill:none;" width="40.574" height="50.788"/>
</g>
<g id="T2_x5F_3_2_">
	<g>
		<defs>
			<polygon id="SVGID_00000163066404993561205470000002213904294615851437_" points="21.074,28.694 49.8,32.113 51.738,15.829 
				23.061,12.416 23.012,12.411 			"/>
		</defs>
		<clipPath id="SVGID_00000056403122801150350750000006969806625767264958_">
			<use xlink:href="#SVGID_00000163066404993561205470000002213904294615851437_"  style="overflow:visible;"/>
		</clipPath>
		<path style="clip-path:url(#SVGID_00000056403122801150350750000006969806625767264958_);fill:#5699DE;" d="M26.171,24.872
			c-1.118-2.64-0.803-10.165-0.803-10.165c2.103-0.756,2.18-0.292,5.082-0.403c0.119-0.004,1.875,0.248,1.986,0.237
			c0.632-0.071,5.449,0.663,8.496,2.791c0.446,0.31,0.962,0.522,1.506,0.813c0.605-1.019,1.177-1.98,1.758-2.961
			c1.516,1.363,5.183,10.144,5.731,13.742c-4.276,0.845-8.584,1.346-13.204,1.474c0.575-1.312,1.026-2.345,1.571-3.593
			c-2.099-0.975-3.847-1.75-6.048-2.218C30.326,24.179,28.276,24.115,26.171,24.872"/>
	</g>
	<g>
		<defs>
			
				<rect id="SVGID_00000150810023723868758530000013153833844082074275_" x="47.673" y="25.4" transform="matrix(0.8702 -0.4928 0.4928 0.8702 -12.3892 32.7078)" width="16.4" height="28.929"/>
		</defs>
		<clipPath id="SVGID_00000000928637486505124060000017263742405805816500_">
			<use xlink:href="#SVGID_00000150810023723868758530000013153833844082074275_"  style="overflow:visible;"/>
		</clipPath>
		<path style="clip-path:url(#SVGID_00000000928637486505124060000017263742405805816500_);fill:#E33A3A;" d="M47.708,33.163
			c1.467-2.464,7.717-6.668,7.717-6.668c1.856,1.247,1.526,1.584,3.334,3.858c0.074,0.093,0.91,1.657,0.986,1.739
			c0.431,0.468,2.691,4.785,2.782,8.499c0.015,0.543,0.148,1.084,0.237,1.695c1.178-0.115,2.292-0.224,3.428-0.336
			c-0.202,2.029-5.106,10.183-7.681,12.755c-3.213-2.945-6.168-6.12-9.006-9.767c1.398-0.315,2.498-0.561,3.826-0.862
			c-0.458-2.268-0.87-4.135-1.794-6.186C50.728,36.1,49.564,34.411,47.708,33.163"/>
	</g>
	
		<rect x="25.664" y="9.711" transform="matrix(0.1 -0.995 0.995 0.1 6.4262 77.3154)" style="fill:none;" width="40.574" height="50.788"/>
</g>
<g id="T2_x5F_3_3_">
	<g>
		<defs>
			<polygon id="SVGID_00000071552054646777699840000003440593600372207797_" points="24.64,76.709 49.816,62.459 41.738,48.187 
				16.605,62.413 16.562,62.438 			"/>
		</defs>
		<clipPath id="SVGID_00000069365825755462469770000005490192659889900697_">
			<use xlink:href="#SVGID_00000071552054646777699840000003440593600372207797_"  style="overflow:visible;"/>
		</clipPath>
		<path style="clip-path:url(#SVGID_00000069365825755462469770000005490192659889900697_);fill:#F26C2B;" d="M26.486,70.61
			c-2.464-1.466-6.665-7.717-6.665-7.717c1.247-1.855,1.584-1.526,3.857-3.333c0.093-0.074,1.657-0.91,1.741-0.985
			c0.467-0.432,4.784-2.691,8.499-2.78c0.543-0.014,1.084-0.149,1.695-0.237c-0.115-1.179-0.224-2.293-0.336-3.427
			c2.029,0.201,10.183,5.107,12.754,7.683c-2.946,3.212-6.121,6.166-9.769,9.004c-0.313-1.398-0.562-2.497-0.861-3.826
			c-2.269,0.457-4.136,0.868-6.187,1.793C29.424,67.592,27.734,68.755,26.486,70.61"/>
	</g>
	<g>
		<defs>
			
				<rect id="SVGID_00000110445081732251794150000017689515181782572442_" x="51.099" y="50.646" transform="matrix(0.4096 -0.9123 0.9123 0.4096 -24.388 92.5377)" width="16.4" height="28.929"/>
		</defs>
		<clipPath id="SVGID_00000179628078869749387020000010630220549930556590_">
			<use xlink:href="#SVGID_00000110445081732251794150000017689515181782572442_"  style="overflow:visible;"/>
		</clipPath>
		<path style="clip-path:url(#SVGID_00000179628078869749387020000010630220549930556590_);fill:#523742;" d="M48.752,64.543
			c-0.276-2.854,2.272-9.942,2.272-9.942c2.234-0.094,2.168,0.373,4.971,1.136c0.115,0.031,1.714,0.797,1.824,0.818
			c0.625,0.122,5.001,2.264,7.273,5.203c0.333,0.429,0.761,0.786,1.194,1.226c0.882-0.79,1.715-1.537,2.564-2.3
			c1.038,1.755,1.913,11.23,1.36,14.827c-4.333-0.472-8.594-1.281-13.04-2.54c0.941-1.082,1.681-1.931,2.574-2.96
			c-1.712-1.557-3.149-2.817-5.108-3.924C52.924,65.122,50.986,64.45,48.752,64.543"/>
	</g>
	
		<rect x="23.091" y="46.862" transform="matrix(0.8611 -0.5084 0.5084 0.8611 -27.4055 33.9769)" style="fill:none;" width="50.788" height="40.574"/>
</g>
<path style="fill:#E1D153;" d="M19.477,91.539c-2.546,1.318-10.073,1.585-10.073,1.585c-0.916-2.039-0.46-2.151-0.793-5.036
	C8.597,87.97,8.713,86.2,8.693,86.09c-0.12-0.625,0.241-5.484,2.127-8.685c0.275-0.469,0.446-0.999,0.694-1.564
	c-1.062-0.525-2.065-1.021-3.088-1.524c1.242-1.617,9.714-5.95,13.259-6.774c1.172,4.198,2.004,8.454,2.488,13.051
	c-1.353-0.472-2.417-0.842-3.703-1.289c-0.81,2.168-1.448,3.971-1.745,6.201C18.466,87.45,18.561,89.5,19.477,91.539"/>
</svg>
