<?xml version="1.0" encoding="iso-8859-1"?>
<!-- Generator: Adobe Illustrator 26.0.1, SVG Export Plug-In . SVG Version: 6.00 Build 0)  -->
<svg version="1.1" xmlns="http://www.w3.org/2000/svg" xmlns:xlink="http://www.w3.org/1999/xlink" x="0px" y="0px"
	 viewBox="0 0 100 100" style="enable-background:new 0 0 100 100;" xml:space="preserve">
<g id="Layer_1">
	<g id="L3_L2_L1_L1_L1_00000143618243009999145530000009151163207913452451_">
		<g>
			<defs>
				<rect id="SVGID_1_" x="7" y="10" width="87.359" height="81.96"/>
			</defs>
			<clipPath id="SVGID_00000055706077060326959100000014650663118777969331_">
				<use xlink:href="#SVGID_1_"  style="overflow:visible;"/>
			</clipPath>
			<polygon style="clip-path:url(#SVGID_00000055706077060326959100000014650663118777969331_);fill:#55C95A;" points="80.958,10 
				79.076,10.587 77.057,11.24 74.996,12.615 73.548,14.61 72.37,16.801 72.082,19.282 72.082,19.295 72.708,22.604 73.821,24.697 
				75.331,26.514 77.483,27.473 79.192,28.032 80.961,28.291 81.399,28.48 82.306,28.48 82.753,28.326 85.25,27.798 87.278,26.966 
				88.799,25.405 90.075,23.652 90.624,21.541 90.96,19.955 90.96,17.963 90.461,16.115 89.307,13.94 87.727,12.111 85.529,11.063 
				82.7,10 			"/>
			<polygon style="clip-path:url(#SVGID_00000055706077060326959100000014650663118777969331_);fill:#E33A3A;" points="20.958,10 
				19.076,10.587 17.057,11.24 14.997,12.615 13.549,14.61 12.37,16.801 12.082,19.29 12.709,22.604 13.821,24.697 15.331,26.514 
				17.483,27.473 19.192,28.032 20.962,28.291 21.399,28.48 22.306,28.48 22.754,28.326 25.25,27.798 27.278,26.966 28.799,25.405 
				30.075,23.652 30.624,21.541 30.96,19.959 30.96,17.962 30.461,16.115 29.307,13.94 27.728,12.111 25.529,11.063 22.701,10 			
				"/>
			<g style="clip-path:url(#SVGID_00000055706077060326959100000014650663118777969331_);">
				<defs>
					<rect id="SVGID_00000118388969659276377950000000907045547927633536_" x="64.264" y="53.002" width="30.094" height="18.775"/>
				</defs>
				<clipPath id="SVGID_00000071548632407603119650000012480978659035002752_">
					<use xlink:href="#SVGID_00000118388969659276377950000000907045547927633536_"  style="overflow:visible;"/>
				</clipPath>
				<path style="clip-path:url(#SVGID_00000071548632407603119650000012480978659035002752_);fill:#523742;" d="M90.692,59.496
					c1.33-0.04,2.04-2.21,3.67-1.07c-0.27,4.389-0.529,8.73-0.81,13.349c-4.259-0.639-8.21-2.149-12.23-3.33
					c-0.22-0.34-0.4-0.63-0.63-0.97c1.08-0.929,2.19-1.87,3.32-2.839c-0.9-2.8-3.33-3.451-5.509-3.8
					c-3.55-0.57-4.851,2.269-5.92,4.63c-0.101,0.96-0.161,1.62-0.25,2.5c-2.83-0.651-5.401-1.241-8.011-1.85
					c-0.02-0.25-0.1-0.471-0.029-0.62c0.779-1.91,1.299-4.011,2.45-5.66c2.889-4.13,6.849-6.66,12.069-6.83
					c3.34-0.1,6.391,0.639,8.851,3.01C88.743,57.056,89.642,58.275,90.692,59.496"/>
			</g>
			<g style="clip-path:url(#SVGID_00000055706077060326959100000014650663118777969331_);">
				<defs>
					<rect id="SVGID_00000037654015680827608910000017029398322899934597_" x="63.003" y="69.657" width="29.36" height="18.212"/>
				</defs>
				<clipPath id="SVGID_00000058591035383084089520000003270539784493423526_">
					<use xlink:href="#SVGID_00000037654015680827608910000017029398322899934597_"  style="overflow:visible;"/>
				</clipPath>
				<path style="clip-path:url(#SVGID_00000058591035383084089520000003270539784493423526_);fill:#9F9EB1;" d="M92.362,75.446
					c-0.1,0.3-0.17,0.6-0.29,0.87c-1.52,3.449-3.13,6.93-6.51,8.9c-1.899,1.11-4.16,1.589-6.26,2.36c-2.15,0.78-4.139-0.2-6.16-0.61
					c-1.67-0.331-2.86-1.56-4-2.76c-0.82-0.861-1.62-1.74-2.62-2.83c-1.019,0.299-2.139,0.63-3.519,1.04
					c0.239-4.151,0.489-8.3,0.759-12.76c4,1.189,7.88,2.35,12.161,3.63c-1.181,1.019-2.121,1.83-3.031,2.63v1.59
					c1.491,2.589,3.87,3.08,6.63,3.14c3.42,0.079,4.13-2.66,5.59-4.93v-1.92C87.562,74.356,89.923,74.885,92.362,75.446"/>
			</g>
			<polygon style="clip-path:url(#SVGID_00000055706077060326959100000014650663118777969331_);fill:#F26C2B;" points="51.961,17 
				50.076,17.588 48.056,18.241 45.996,19.616 44.548,21.61 43.37,23.802 43.082,26.283 43.082,26.295 43.708,29.604 44.821,31.698 
				46.332,33.515 48.484,34.474 50.193,35.033 51.961,35.292 52.399,35.481 53.305,35.481 53.753,35.326 56.25,34.798 
				58.278,33.966 59.798,32.406 61.075,30.653 61.624,28.542 61.96,26.956 61.96,24.964 61.461,23.116 60.307,20.941 58.727,19.112 
				56.53,18.064 53.7,17 			"/>
			<g style="clip-path:url(#SVGID_00000055706077060326959100000014650663118777969331_);">
				<defs>
					<rect id="SVGID_00000143579048474293365480000005494776392404196531_" x="7.005" y="48.003" width="46.995" height="43.957"/>
				</defs>
				<clipPath id="SVGID_00000056423707141933949190000011117340043116487560_">
					<use xlink:href="#SVGID_00000143579048474293365480000005494776392404196531_"  style="overflow:visible;"/>
				</clipPath>
				<path style="clip-path:url(#SVGID_00000056423707141933949190000011117340043116487560_);fill:#AD70D6;" d="M54,68.743v4.852
					c-0.112,0.359-0.213,0.718-0.325,1.078c-0.696,2.178-1.236,4.424-2.134,6.512c-0.472,1.101-1.404,2.134-2.37,2.875
					c-1.954,1.505-4.065,2.786-6.221,4.223c0.607,1.032,1.269,2.167,1.954,3.323c-2.998,1.023-16.103-0.325-17.551-1.807
					c1.122-2.931,2.088-5.93,3.29-8.951c0.73-1.796,1.538-3.616,2.504-5.412c1.066,1.314,1.942,2.392,2.841,3.503
					c2.044-1.46,4.031-2.885,6.097-4.368c0.248-2.257,2.887-3.885,1.573-6.805c0.898,0.079,1.516,0.146,2.133,0.191
					c2.482,0.191,4.964,0.371,7.445,0.561C53.495,68.541,53.753,68.665,54,68.743"/>
				<path style="clip-path:url(#SVGID_00000056423707141933949190000011117340043116487560_);fill:#5699DE;" d="M45.589,48.002
					c1.875,1.313,7.131,10.623,8.22,14.565c-3.459,1.122-6.973,2.032-10.646,2.728c-1.28,0.248-2.571,0.472-3.885,0.663
					c0.472-1.539,0.831-2.751,1.28-4.211c-2.47-0.809-4.896-2.055-7.411-2.291c-2.19-0.203-4.795-0.326-6.558,1.864
					c-0.337-0.595-0.674-1.179-1-1.752c-1.235-2.156-2.414-4.222-3.627-6.345c2.46-1.841,4.997-3.672,8.209-4.177
					c0.135-0.023,0.292,0.011,0.404-0.034c4.301-2.032,7.984-0.157,11.668,1.82c0.538,0.281,1.134,0.449,1.785,0.708
					C44.567,50.315,45.072,49.169,45.589,48.002"/>
				<path style="clip-path:url(#SVGID_00000056423707141933949190000011117340043116487560_);fill:#E1D153;" d="M11.092,75.807
					c-0.27-1.764-0.112-3.605-0.146-5.424c-0.011-0.516,0-1.045,0-1.584c-1.437-0.078-2.695-0.145-3.942-0.202
					c0.225-2.639,8.175-13.318,10.545-14.127c1.785,2.156,3.661,4.279,5.423,6.592c1.37,1.786,2.662,3.694,3.808,5.828
					c-1.696,0.236-2.943,0.404-4.38,0.606c0.191,2.393-0.067,4.942,0.718,7.098c0.764,2.088,2.044,4.256,4.773,5.367
					c-2.01,2.83-3.874,5.458-5.817,8.198c-2.942-1.662-5.828-3.201-7.703-6.076c-0.36-0.549-0.876-0.999-1.348-1.459
					C11.664,79.299,11.362,77.513,11.092,75.807"/>
			</g>
		</g>
	</g>
</g>
<g id="Layer_2">
	<g id="Layer_3">
	</g>
</g>
</svg>
