<?xml version="1.0" encoding="iso-8859-1"?>
<!-- Generator: Adobe Illustrator 26.0.1, SVG Export Plug-In . SVG Version: 6.00 Build 0)  -->
<svg version="1.1" xmlns="http://www.w3.org/2000/svg" xmlns:xlink="http://www.w3.org/1999/xlink" x="0px" y="0px"
	 viewBox="0 0 100 100" style="enable-background:new 0 0 100 100;" xml:space="preserve">
<g id="Layer_1">
	<g id="G_x28__tree_x28__T2_T1_T1_L1_x29___x29__L1_L1_L1_00000033355061947913153680000011600488793828788140_">
		<g>
			<defs>
				<rect id="SVGID_1_" x="13" y="7" width="74.738" height="96.231"/>
			</defs>
			<clipPath id="SVGID_00000022523789348590909650000017491052927497740972_">
				<use xlink:href="#SVGID_1_"  style="overflow:visible;"/>
			</clipPath>
			<polygon style="clip-path:url(#SVGID_00000022523789348590909650000017491052927497740972_);fill:#9F9EB1;" points="
				72.491,75.117 70.884,76.26 69.167,77.508 67.636,79.455 66.879,81.8 66.44,84.249 66.938,86.705 68.563,89.66 70.271,91.305 
				72.271,92.563 74.615,92.806 76.413,92.806 78.175,92.502 78.649,92.546 79.513,92.264 79.889,91.979 82.098,90.702 
				83.768,89.281 84.729,87.325 85.396,85.263 85.264,83.086 85.091,81.478 84.47,79.579 83.423,77.979 81.65,76.27 79.581,75.022 
				77.166,74.708 74.147,74.576 			"/>
			<g style="clip-path:url(#SVGID_00000022523789348590909650000017491052927497740972_);">
				<defs>
					
						<rect id="SVGID_00000006683279116700245510000013130190749726283706_" x="38.705" y="64.877" transform="matrix(0.9998 -0.02 0.02 0.9998 -1.4509 1.078)" width="28.929" height="16.4"/>
				</defs>
				<clipPath id="SVGID_00000083808767466060981840000001378415259306303379_">
					<use xlink:href="#SVGID_00000006683279116700245510000013130190749726283706_"  style="overflow:visible;"/>
				</clipPath>
				<path style="clip-path:url(#SVGID_00000083808767466060981840000001378415259306303379_);fill:#523742;" d="M43.394,77.076
					c-1.471-2.461-2.2-9.957-2.2-9.957c1.979-1.04,2.12-0.592,4.979-1.101c0.117-0.02,1.89-0.013,1.999-0.04
					c0.617-0.157,5.488-0.095,8.799,1.59c0.486,0.246,1.025,0.386,1.605,0.598c0.458-1.091,0.892-2.123,1.333-3.175
					c1.689,1.141,6.534,9.331,7.574,12.82c-4.119,1.425-8.317,2.517-12.874,3.282c0.387-1.38,0.691-2.464,1.059-3.775
					c-2.213-0.675-4.052-1.2-6.295-1.362C47.412,75.815,45.373,76.036,43.394,77.076"/>
			</g>
			<g style="clip-path:url(#SVGID_00000022523789348590909650000017491052927497740972_);">
				<defs>
					
						<rect id="SVGID_00000166660215945061235530000013575386493803443874_" x="13.875" y="73.257" transform="matrix(0.6123 -0.7906 0.7906 0.6123 -53.4138 53.9853)" width="28.929" height="16.4"/>
				</defs>
				<clipPath id="SVGID_00000129182867196665328760000017656692375158102719_">
					<use xlink:href="#SVGID_00000166660215945061235530000013575386493803443874_"  style="overflow:visible;"/>
				</clipPath>
				<path style="clip-path:url(#SVGID_00000129182867196665328760000017656692375158102719_);fill:#E1D153;" d="M25.312,91.576
					c-2.839-0.401-9.131-4.542-9.131-4.542c0.434-2.193,0.872-2.02,2.271-4.565c0.057-0.105,1.178-1.48,1.225-1.582
					c0.265-0.579,3.373-4.33,6.764-5.849c0.496-0.222,0.943-0.554,1.473-0.873c-0.562-1.042-1.093-2.027-1.635-3.031
					c1.95-0.598,11.366,0.777,14.733,2.158c-1.477,4.102-3.263,8.053-5.531,12.08c-0.83-1.168-1.483-2.086-2.273-3.196
					c-1.915,1.298-3.478,2.399-5.013,4.044C26.855,87.656,25.746,89.382,25.312,91.576"/>
			</g>
			<g style="clip-path:url(#SVGID_00000022523789348590909650000017491052927497740972_);">
				<defs>
					
						<rect id="SVGID_00000029031101065536144030000009530860927938162309_" x="38.348" y="37.568" transform="matrix(0.5757 -0.8177 0.8177 0.5757 -22.7947 60.1365)" width="16.4" height="28.929"/>
				</defs>
				<clipPath id="SVGID_00000150077264656249629560000016590281909223285641_">
					<use xlink:href="#SVGID_00000029031101065536144030000009530860927938162309_"  style="overflow:visible;"/>
				</clipPath>
				<path style="clip-path:url(#SVGID_00000150077264656249629560000016590281909223285641_);fill:#5699DE;" d="M36.301,49.467
					c0.272-2.854,4.122-9.328,4.122-9.328c2.211,0.334,2.058,0.779,4.664,2.061c0.107,0.053,1.532,1.109,1.635,1.152
					c0.591,0.238,4.48,3.172,6.151,6.49c0.245,0.486,0.597,0.917,0.939,1.432c1.015-0.608,1.975-1.183,2.954-1.77
					c0.685,1.92-0.259,11.389-1.486,14.815c-4.164-1.288-8.193-2.893-12.319-4.975c1.13-0.883,2.017-1.577,3.09-2.416
					c-1.384-1.854-2.556-3.366-4.268-4.824C40.287,50.83,38.512,49.801,36.301,49.467"/>
			</g>
			<g style="clip-path:url(#SVGID_00000022523789348590909650000017491052927497740972_);">
				<defs>
					
						<rect id="SVGID_00000006683995372651999520000004644038952626784697_" x="54.231" y="43.057" transform="matrix(0.1066 -0.9943 0.9943 0.1066 10.4057 114.0946)" width="28.929" height="16.4"/>
				</defs>
				<clipPath id="SVGID_00000147937303079426471430000016617367501463461024_">
					<use xlink:href="#SVGID_00000006683995372651999520000004644038952626784697_"  style="overflow:visible;"/>
				</clipPath>
				<path style="clip-path:url(#SVGID_00000147937303079426471430000016617367501463461024_);fill:#AD70D6;" d="M65.967,41.053
					c2.627-1.147,10.156-0.922,10.156-0.922c0.781,2.095,0.318,2.177,0.461,5.078c0.007,0.119-0.226,1.878-0.213,1.989
					c0.078,0.632-0.6,5.456-2.691,8.527c-0.306,0.45-0.512,0.967-0.796,1.516c1.025,0.593,1.993,1.153,2.981,1.724
					c-1.346,1.531-10.084,5.3-13.675,5.89c-0.894-4.267-1.446-8.568-1.627-13.186c1.32,0.559,2.357,0.998,3.611,1.529
					c0.95-2.11,1.704-3.867,2.147-6.073C66.709,45.2,66.748,43.148,65.967,41.053"/>
			</g>
			<polygon style="clip-path:url(#SVGID_00000022523789348590909650000017491052927497740972_);fill:#E33A3A;" points="22.329,8 
				20.445,8.587 18.425,9.241 16.365,10.616 14.917,12.61 13.739,14.802 13.45,17.29 14.077,20.604 15.19,22.698 16.7,24.515 
				18.852,25.474 20.561,26.033 22.33,26.291 22.769,26.481 23.673,26.481 24.122,26.326 26.619,25.798 28.647,24.966 
				30.168,23.406 31.444,21.653 31.993,19.541 32.328,17.96 32.328,15.963 31.83,14.116 30.675,11.941 29.096,10.112 26.898,9.063 
				24.069,8 			"/>
			<polygon style="clip-path:url(#SVGID_00000022523789348590909650000017491052927497740972_);fill:#F26C2B;" points="48.329,13 
				46.445,13.587 44.425,14.24 42.365,15.615 40.917,17.61 39.739,19.801 39.45,22.29 40.077,25.604 41.19,27.698 42.7,29.515 
				44.852,30.474 46.561,31.032 48.33,31.291 48.768,31.48 49.675,31.48 50.122,31.326 52.619,30.798 54.646,29.966 56.167,28.405 
				57.444,26.653 57.993,24.541 58.328,22.96 58.328,20.963 57.83,19.116 56.675,16.94 55.096,15.111 52.898,14.063 50.068,13 			
				"/>
			<polygon style="clip-path:url(#SVGID_00000022523789348590909650000017491052927497740972_);fill:#55C95A;" points="76.329,7 
				74.445,7.587 72.425,8.241 70.365,9.616 68.917,11.61 67.739,13.802 67.45,16.29 68.077,19.604 69.19,21.698 70.7,23.515 
				72.852,24.473 74.561,25.033 76.33,25.291 76.767,25.48 77.676,25.48 78.122,25.326 80.619,24.798 82.647,23.966 84.168,22.406 
				85.444,20.653 85.993,18.541 86.328,16.96 86.328,14.963 85.83,13.115 84.675,10.941 83.096,9.112 80.898,8.063 78.069,7 			"/>
		</g>
	</g>
</g>
<g id="Layer_2">
	<g id="Layer_3">
	</g>
</g>
</svg>
