<?xml version="1.0" encoding="iso-8859-1"?>
<!-- Generator: Adobe Illustrator 26.0.1, SVG Export Plug-In . SVG Version: 6.00 Build 0)  -->
<svg version="1.1" xmlns="http://www.w3.org/2000/svg" xmlns:xlink="http://www.w3.org/1999/xlink" x="0px" y="0px"
	 viewBox="0 0 100 100" style="enable-background:new 0 0 100 100;" xml:space="preserve">
<g id="Layer_1">
</g>
<g id="Layer_2">
	<g id="L3_L3_L2_00000165935801267182912320000006375300163177925288_">
		<g>
			<defs>
				<rect id="SVGID_1_" x="5" y="6" width="88.96" height="90.743"/>
			</defs>
			<clipPath id="SVGID_00000093889949307971139110000001893967200927104165_">
				<use xlink:href="#SVGID_1_"  style="overflow:visible;"/>
			</clipPath>
			<g style="clip-path:url(#SVGID_00000093889949307971139110000001893967200927104165_);">
				<defs>
					<rect id="SVGID_00000005239086666584939190000012349982032943310525_" x="5.004" y="31.002" width="41.85" height="39.145"/>
				</defs>
				<clipPath id="SVGID_00000101817103406257954490000002519643530673175470_">
					<use xlink:href="#SVGID_00000005239086666584939190000012349982032943310525_"  style="overflow:visible;"/>
				</clipPath>
				<path style="clip-path:url(#SVGID_00000101817103406257954490000002519643530673175470_);fill:#F26C2B;" d="M46.854,49.472v4.32
					c-0.1,0.32-0.19,0.64-0.29,0.96c-0.62,1.94-1.1,3.94-1.9,5.8c-0.42,0.98-1.25,1.9-2.11,2.56c-1.74,1.34-3.62,2.48-5.54,3.76
					c0.54,0.92,1.13,1.93,1.74,2.96c-2.67,0.91-14.34-0.29-15.63-1.61c1-2.61,1.86-5.28,2.93-7.97c0.65-1.6,1.37-3.22,2.23-4.82
					c0.95,1.17,1.73,2.13,2.53,3.12c1.82-1.3,3.59-2.57,5.43-3.89c0.22-2.01,2.57-3.46,1.4-6.06c0.8,0.07,1.35,0.13,1.9,0.17
					c2.21,0.17,4.42,0.33,6.63,0.5C46.404,49.292,46.634,49.402,46.854,49.472"/>
				<path style="clip-path:url(#SVGID_00000101817103406257954490000002519643530673175470_);fill:#55C95A;" d="M39.364,31.002
					c1.67,1.17,6.35,9.46,7.32,12.97c-3.08,1-6.21,1.81-9.48,2.43c-1.14,0.22-2.29,0.42-3.46,0.59c0.42-1.37,0.74-2.45,1.14-3.75
					c-2.2-0.72-4.36-1.83-6.6-2.04c-1.95-0.18-4.27-0.29-5.84,1.66c-0.3-0.53-0.6-1.05-0.89-1.56c-1.1-1.92-2.15-3.76-3.23-5.65
					c2.19-1.64,4.45-3.27,7.31-3.72c0.12-0.02,0.26,0.01,0.36-0.03c3.83-1.81,7.11-0.14,10.39,1.62c0.48,0.25,1.01,0.4,1.59,0.63
					C38.454,33.062,38.904,32.042,39.364,31.002"/>
				<path style="clip-path:url(#SVGID_00000101817103406257954490000002519643530673175470_);fill:#E33A3A;" d="M8.644,55.762
					c-0.24-1.57-0.1-3.21-0.13-4.83c-0.01-0.46,0-0.93,0-1.41c-1.28-0.07-2.4-0.13-3.51-0.18c0.2-2.35,7.28-11.86,9.39-12.58
					c1.59,1.92,3.26,3.81,4.83,5.87c1.22,1.59,2.37,3.29,3.39,5.19c-1.51,0.21-2.62,0.36-3.9,0.54c0.17,2.13-0.06,4.4,0.64,6.32
					c0.68,1.86,1.82,3.79,4.25,4.78c-1.79,2.52-3.45,4.86-5.18,7.3c-2.62-1.48-5.19-2.85-6.86-5.41c-0.32-0.49-0.78-0.89-1.2-1.3
					C9.154,58.872,8.884,57.282,8.644,55.762"/>
			</g>
			<g style="clip-path:url(#SVGID_00000093889949307971139110000001893967200927104165_);">
				<defs>
					<rect id="SVGID_00000036965806443653128170000009400093810967280258_" x="51.003" y="6.002" width="41.85" height="39.145"/>
				</defs>
				<clipPath id="SVGID_00000094615395629851808930000016836600449376232329_">
					<use xlink:href="#SVGID_00000036965806443653128170000009400093810967280258_"  style="overflow:visible;"/>
				</clipPath>
				<path style="clip-path:url(#SVGID_00000094615395629851808930000016836600449376232329_);fill:#AD70D6;" d="M92.854,24.472v4.32
					c-0.1,0.32-0.189,0.64-0.289,0.96c-0.62,1.94-1.101,3.94-1.9,5.8c-0.42,0.98-1.25,1.9-2.111,2.56
					c-1.739,1.34-3.62,2.48-5.54,3.76c0.54,0.92,1.13,1.93,1.74,2.96c-2.67,0.91-14.339-0.29-15.629-1.61
					c1-2.61,1.86-5.28,2.929-7.97c0.651-1.6,1.37-3.22,2.231-4.82c0.95,1.17,1.729,2.13,2.53,3.12c1.819-1.3,3.59-2.57,5.43-3.89
					c0.219-2.01,2.57-3.46,1.399-6.06c0.801,0.07,1.351,0.13,1.9,0.17c2.21,0.17,4.42,0.33,6.63,0.5
					C92.404,24.292,92.633,24.402,92.854,24.472"/>
				<path style="clip-path:url(#SVGID_00000094615395629851808930000016836600449376232329_);fill:#5699DE;" d="M85.364,6.002
					c1.67,1.17,6.35,9.46,7.319,12.97c-3.08,1-6.21,1.81-9.479,2.43c-1.141,0.22-2.29,0.42-3.46,0.59
					c0.42-1.37,0.739-2.45,1.141-3.75c-2.202-0.72-4.362-1.83-6.601-2.04c-1.95-0.18-4.271-0.29-5.841,1.66
					c-0.3-0.53-0.6-1.05-0.89-1.56c-1.099-1.92-2.15-3.76-3.229-5.65c2.189-1.64,4.449-3.27,7.311-3.72
					c0.119-0.02,0.258,0.01,0.359-0.03c3.83-1.81,7.109-0.14,10.391,1.62c0.479,0.25,1.008,0.4,1.588,0.63
					C84.454,8.062,84.903,7.042,85.364,6.002"/>
				<path style="clip-path:url(#SVGID_00000094615395629851808930000016836600449376232329_);fill:#E1D153;" d="M54.644,30.762
					c-0.24-1.57-0.1-3.21-0.13-4.83c-0.01-0.46,0-0.93,0-1.41c-1.28-0.07-2.4-0.13-3.51-0.18c0.2-2.35,7.28-11.86,9.39-12.58
					c1.59,1.92,3.26,3.81,4.83,5.87c1.22,1.59,2.37,3.29,3.39,5.19c-1.51,0.21-2.62,0.36-3.9,0.54c0.17,2.13-0.06,4.4,0.64,6.32
					c0.68,1.86,1.82,3.79,4.25,4.78c-1.79,2.52-3.45,4.86-5.18,7.3c-2.62-1.48-5.19-2.85-6.86-5.41c-0.32-0.49-0.78-0.89-1.2-1.3
					C55.154,33.872,54.884,32.282,54.644,30.762"/>
			</g>
			<g style="clip-path:url(#SVGID_00000093889949307971139110000001893967200927104165_);">
				<defs>
					<rect id="SVGID_00000067227455145893876560000012970383510573144198_" x="60.264" y="60.001" width="30.095" height="18.776"/>
				</defs>
				<clipPath id="SVGID_00000036965764769287073890000008053011397233992090_">
					<use xlink:href="#SVGID_00000067227455145893876560000012970383510573144198_"  style="overflow:visible;"/>
				</clipPath>
				<path style="clip-path:url(#SVGID_00000036965764769287073890000008053011397233992090_);fill:#523742;" d="M86.692,66.496
					c1.33-0.04,2.04-2.21,3.67-1.07c-0.27,4.389-0.529,8.73-0.81,13.349c-4.259-0.639-8.21-2.149-12.23-3.33
					c-0.22-0.34-0.4-0.63-0.63-0.97c1.08-0.929,2.19-1.87,3.32-2.839c-0.9-2.8-3.33-3.451-5.509-3.8
					c-3.55-0.57-4.851,2.269-5.92,4.63c-0.101,0.96-0.161,1.62-0.25,2.5c-2.83-0.651-5.401-1.241-8.011-1.85
					c-0.02-0.25-0.1-0.471-0.029-0.62c0.779-1.91,1.299-4.011,2.45-5.66c2.889-4.13,6.849-6.66,12.069-6.83
					c3.34-0.1,6.391,0.639,8.851,3.01C84.743,64.056,85.642,65.275,86.692,66.496"/>
			</g>
			<g style="clip-path:url(#SVGID_00000093889949307971139110000001893967200927104165_);">
				<defs>
					<rect id="SVGID_00000181788214625327608930000012756560565053562275_" x="59.003" y="76.656" width="29.36" height="18.212"/>
				</defs>
				<clipPath id="SVGID_00000163760720484580786220000014842319760637556922_">
					<use xlink:href="#SVGID_00000181788214625327608930000012756560565053562275_"  style="overflow:visible;"/>
				</clipPath>
				<path style="clip-path:url(#SVGID_00000163760720484580786220000014842319760637556922_);fill:#9F9EB1;" d="M88.362,82.446
					c-0.1,0.3-0.17,0.6-0.29,0.87c-1.52,3.449-3.13,6.93-6.51,8.9c-1.899,1.11-4.16,1.589-6.26,2.36c-2.15,0.78-4.139-0.2-6.16-0.61
					c-1.67-0.331-2.86-1.56-4-2.76c-0.82-0.861-1.62-1.74-2.62-2.83c-1.019,0.299-2.139,0.63-3.519,1.04
					c0.239-4.151,0.489-8.3,0.759-12.76c4,1.189,7.88,2.35,12.161,3.63c-1.181,1.019-2.121,1.83-3.031,2.63v1.59
					c1.491,2.589,3.87,3.08,6.63,3.14c3.42,0.079,4.13-2.66,5.59-4.93v-1.92C83.562,81.356,85.923,81.885,88.362,82.446"/>
			</g>
		</g>
	</g>
</g>
</svg>
