<?xml version="1.0" encoding="iso-8859-1"?>
<!-- Generator: Adobe Illustrator 26.0.1, SVG Export Plug-In . SVG Version: 6.00 Build 0)  -->
<svg version="1.1" xmlns="http://www.w3.org/2000/svg" xmlns:xlink="http://www.w3.org/1999/xlink" x="0px" y="0px"
	 viewBox="0 0 100 100" style="enable-background:new 0 0 100 100;" xml:space="preserve">
<g id="Layer_1">
	<g id="G_x28__T1_T1_T1_L1__x29__L3_L1_00000056417375515384559520000013051435905445767568_">
		<g>
			<defs>
				<rect id="SVGID_1_" x="7" width="90.813" height="97.499"/>
			</defs>
			<clipPath id="SVGID_00000093883568790868454130000001631177569179369404_">
				<use xlink:href="#SVGID_1_"  style="overflow:visible;"/>
			</clipPath>
			<polygon style="clip-path:url(#SVGID_00000093883568790868454130000001631177569179369404_);fill:#523742;" points="
				61.383,32.173 59.797,33.35 58.107,34.634 56.616,36.612 55.908,38.973 55.521,41.431 56.07,43.872 56.072,43.877 57.757,46.796 
				59.499,48.405 61.525,49.621 63.873,49.815 65.67,49.777 67.425,49.437 67.902,49.471 68.755,49.172 69.128,48.877 
				71.311,47.554 72.95,46.099 73.87,44.124 74.496,42.048 74.316,39.874 74.11,38.271 73.449,36.383 72.369,34.807 70.561,33.135 
				68.466,31.931 66.045,31.667 63.026,31.598 			"/>
			<g style="clip-path:url(#SVGID_00000093883568790868454130000001631177569179369404_);">
				<defs>
					
						<rect id="SVGID_00000077297014913164408430000002385758983982540985_" x="25.515" y="36.974" transform="matrix(0.8441 -0.5362 0.5362 0.8441 -17.9901 28.4828)" width="28.928" height="16.4"/>
				</defs>
				<clipPath id="SVGID_00000165919305009597035300000007134574831461650109_">
					<use xlink:href="#SVGID_00000077297014913164408430000002385758983982540985_"  style="overflow:visible;"/>
				</clipPath>
				<path style="clip-path:url(#SVGID_00000165919305009597035300000007134574831461650109_);fill:#E33A3A;" d="M33.7,53.668
					c-2.535-1.34-7.05-7.369-7.05-7.369c1.152-1.916,1.505-1.605,3.684-3.525c0.089-0.079,1.609-0.993,1.688-1.072
					c0.446-0.455,4.641-2.931,8.346-3.21c0.542-0.042,1.075-0.202,1.682-0.322c-0.175-1.171-0.341-2.278-0.51-3.406
					c2.036,0.098,10.429,4.583,13.128,7.024c-2.779,3.359-5.799,6.47-9.298,9.49c-0.385-1.381-0.688-2.465-1.054-3.777
					c-2.242,0.572-4.086,1.078-6.088,2.105C36.481,50.503,34.852,51.751,33.7,53.668"/>
			</g>
			<g style="clip-path:url(#SVGID_00000093883568790868454130000001631177569179369404_);">
				<defs>
					
						<rect id="SVGID_00000047022701657018816420000002391249086554634636_" x="63.206" y="1.499" transform="matrix(0.9731 -0.2302 0.2302 0.9731 -1.7571 16.8649)" width="16.401" height="28.93"/>
				</defs>
				<clipPath id="SVGID_00000025435648955850768380000007672312347223740863_">
					<use xlink:href="#SVGID_00000047022701657018816420000002391249086554634636_"  style="overflow:visible;"/>
				</clipPath>
				<path style="clip-path:url(#SVGID_00000025435648955850768380000007672312347223740863_);fill:#F26C2B;" d="M65.439,7.249
					c2.096-1.956,9.271-4.248,9.271-4.248c1.433,1.716,1.024,1.948,2.124,4.636c0.045,0.11,0.411,1.846,0.46,1.946
					c0.284,0.57,1.249,5.345,0.299,8.937c-0.138,0.526-0.161,1.082-0.247,1.694c1.164,0.219,2.264,0.425,3.385,0.634
					c-0.76,1.892-7.746,8.353-10.937,10.104c-2.262-3.726-4.213-7.599-5.92-11.893c1.43,0.087,2.554,0.157,3.915,0.24
					c0.193-2.306,0.319-4.214,0.004-6.441C67.518,10.913,66.873,8.965,65.439,7.249"/>
			</g>
			<g style="clip-path:url(#SVGID_00000093883568790868454130000001631177569179369404_);">
				<defs>
					
						<rect id="SVGID_00000145053802899491817020000004172192922267404421_" x="73.024" y="44.68" transform="matrix(0.4328 -0.9015 0.9015 0.4328 -7.2497 106.7664)" width="16.401" height="28.929"/>
				</defs>
				<clipPath id="SVGID_00000029755778090408822610000011874634359403978625_">
					<use xlink:href="#SVGID_00000145053802899491817020000004172192922267404421_"  style="overflow:visible;"/>
				</clipPath>
				<path style="clip-path:url(#SVGID_00000029755778090408822610000011874634359403978625_);fill:#55C95A;" d="M91.753,59.982
					c0.204,2.86-2.524,9.881-2.524,9.881c-2.236,0.036-2.159-0.429-4.941-1.263c-0.114-0.033-1.693-0.841-1.803-0.865
					c-0.622-0.138-4.942-2.389-7.138-5.386c-0.322-0.438-0.74-0.805-1.162-1.257c-0.902,0.768-1.753,1.494-2.621,2.234
					c-0.994-1.781-1.626-11.275-0.982-14.857c4.319,0.583,8.559,1.5,12.971,2.872c-0.968,1.058-1.728,1.888-2.648,2.893
					c1.671,1.601,3.077,2.898,5.006,4.053C87.597,59.295,89.518,60.018,91.753,59.982"/>
			</g>
			<g style="clip-path:url(#SVGID_00000093883568790868454130000001631177569179369404_);">
				<defs>
					<rect id="SVGID_00000134934797008901846590000005518027533926319499_" x="7.004" y="58.354" width="41.85" height="39.145"/>
				</defs>
				<clipPath id="SVGID_00000013184145963319815590000004554431769690610600_">
					<use xlink:href="#SVGID_00000134934797008901846590000005518027533926319499_"  style="overflow:visible;"/>
				</clipPath>
				<path style="clip-path:url(#SVGID_00000013184145963319815590000004554431769690610600_);fill:#AD70D6;" d="M48.854,76.824v4.32
					c-0.1,0.32-0.19,0.64-0.29,0.96c-0.62,1.94-1.1,3.94-1.9,5.8c-0.42,0.98-1.25,1.9-2.11,2.56c-1.74,1.34-3.62,2.48-5.54,3.76
					c0.54,0.92,1.13,1.93,1.74,2.96c-2.67,0.91-14.34-0.29-15.63-1.61c1-2.61,1.86-5.28,2.93-7.97c0.65-1.6,1.37-3.22,2.23-4.82
					c0.95,1.17,1.73,2.13,2.53,3.12c1.82-1.3,3.59-2.57,5.43-3.89c0.22-2.01,2.57-3.46,1.4-6.06c0.8,0.07,1.35,0.13,1.9,0.17
					c2.21,0.17,4.42,0.33,6.63,0.5C48.404,76.644,48.634,76.754,48.854,76.824"/>
				<path style="clip-path:url(#SVGID_00000013184145963319815590000004554431769690610600_);fill:#5699DE;" d="M41.364,58.354
					c1.67,1.17,6.35,9.46,7.32,12.97c-3.08,1-6.21,1.81-9.48,2.43c-1.14,0.22-2.29,0.42-3.46,0.59c0.42-1.37,0.74-2.45,1.14-3.75
					c-2.2-0.72-4.36-1.83-6.6-2.04c-1.95-0.18-4.27-0.29-5.84,1.66c-0.3-0.53-0.6-1.05-0.89-1.56c-1.1-1.92-2.15-3.76-3.23-5.65
					c2.19-1.64,4.45-3.27,7.31-3.72c0.12-0.02,0.26,0.01,0.36-0.03c3.83-1.81,7.11-0.14,10.39,1.62c0.48,0.25,1.01,0.4,1.59,0.63
					C40.454,60.414,40.904,59.394,41.364,58.354"/>
				<path style="clip-path:url(#SVGID_00000013184145963319815590000004554431769690610600_);fill:#E1D153;" d="M10.644,83.114
					c-0.24-1.57-0.1-3.21-0.13-4.83c-0.01-0.46,0-0.93,0-1.41c-1.28-0.07-2.4-0.13-3.51-0.18c0.2-2.35,7.28-11.86,9.39-12.58
					c1.59,1.92,3.26,3.81,4.83,5.87c1.22,1.59,2.37,3.29,3.39,5.19c-1.51,0.21-2.62,0.36-3.9,0.54c0.17,2.13-0.06,4.4,0.64,6.32
					c0.68,1.86,1.82,3.79,4.25,4.78c-1.79,2.52-3.45,4.86-5.18,7.3c-2.62-1.48-5.19-2.85-6.86-5.41c-0.32-0.49-0.78-0.89-1.2-1.3
					C11.154,86.224,10.884,84.634,10.644,83.114"/>
			</g>
			<polygon style="clip-path:url(#SVGID_00000093883568790868454130000001631177569179369404_);fill:#9F9EB1;" points="
				79.961,77.352 78.077,77.939 76.056,78.593 73.996,79.967 72.548,81.962 71.371,84.154 71.082,86.634 71.082,86.647 
				71.708,89.956 72.822,92.05 74.332,93.867 76.484,94.825 78.193,95.384 79.961,95.643 80.399,95.832 81.306,95.832 
				81.753,95.678 84.251,95.15 86.278,94.318 87.799,92.758 89.076,91.005 89.625,88.893 89.96,87.308 89.96,85.315 89.462,83.467 
				88.306,81.293 86.728,79.463 84.53,78.415 81.7,77.352 			"/>
		</g>
	</g>
</g>
<g id="Layer_2">
	<g id="Layer_3">
	</g>
</g>
</svg>
