<svg id="Layer_1" data-name="Layer 1" xmlns="http://www.w3.org/2000/svg" xmlns:xlink="http://www.w3.org/1999/xlink" viewBox="0 0 84.05 87.3"><defs><style>.cls-1{fill:none;}.cls-2{clip-path:url(#clip-path);}.cls-3{clip-path:url(#clip-path-3);}.cls-4{fill:#523742;}.cls-5{clip-path:url(#clip-path-5);}.cls-6{fill:#e33a3a;}.cls-7{clip-path:url(#clip-path-7);}.cls-8{fill:#f26c2b;}.cls-9{clip-path:url(#clip-path-9);}.cls-10{fill:#55c95a;}.cls-11{clip-path:url(#clip-path-11);}.cls-12{clip-path:url(#clip-path-13);}.cls-13{fill:#e1d153;}.cls-14{clip-path:url(#clip-path-15);}.cls-15{clip-path:url(#clip-path-17);}.cls-16{fill:#9f9eb1;}.cls-17{clip-path:url(#clip-path-19);}.cls-18{clip-path:url(#clip-path-21);}.cls-19{fill:#5699de;}.cls-20{clip-path:url(#clip-path-23);}.cls-21{clip-path:url(#clip-path-25);}.cls-22{fill:#ad70d6;}</style><clipPath id="clip-path" transform="translate(-8.08 -7.35)"><rect class="cls-1" x="39.03" y="19.05" width="18.48" height="18.96" transform="translate(12.1 71.38) rotate(-80.42)"/></clipPath><clipPath id="clip-path-3" transform="translate(-8.08 -7.35)"><rect class="cls-1" x="39.03" y="19.08" width="18.71" height="19.05" transform="translate(12.12 71.56) rotate(-80.42)"/></clipPath><clipPath id="clip-path-5" transform="translate(-8.08 -7.35)"><rect class="cls-1" x="18.88" y="1.32" width="16.4" height="28.93" transform="translate(7.01 39.86) rotate(-80.42)"/></clipPath><clipPath id="clip-path-7" transform="translate(-8.08 -7.35)"><rect class="cls-1" x="56.13" y="9.26" width="28.93" height="16.4" transform="translate(10.53 58.45) rotate(-48.21)"/></clipPath><clipPath id="clip-path-9" transform="translate(-8.08 -7.35)"><rect class="cls-1" x="41.3" y="38.96" width="16.4" height="28.93" transform="translate(-17.47 24.8) rotate(-24.04)"/></clipPath><clipPath id="clip-path-11" transform="translate(-8.08 -7.35)"><rect class="cls-1" x="8" y="51" width="18.96" height="18.48"/></clipPath><clipPath id="clip-path-13" transform="translate(-8.08 -7.35)"><rect class="cls-1" x="8.08" y="50.95" width="19.05" height="18.71"/></clipPath><clipPath id="clip-path-15" transform="translate(-8.08 -7.35)"><rect class="cls-1" x="73" y="51" width="18.96" height="18.48"/></clipPath><clipPath id="clip-path-17" transform="translate(-8.08 -7.35)"><rect class="cls-1" x="73.08" y="50.95" width="19.05" height="18.71"/></clipPath><clipPath id="clip-path-19" transform="translate(-8.08 -7.35)"><rect class="cls-1" x="25" y="76" width="18.96" height="18.48"/></clipPath><clipPath id="clip-path-21" transform="translate(-8.08 -7.35)"><rect class="cls-1" x="25.08" y="75.95" width="19.05" height="18.71"/></clipPath><clipPath id="clip-path-23" transform="translate(-8.08 -7.35)"><rect class="cls-1" x="55" y="76" width="18.96" height="18.48"/></clipPath><clipPath id="clip-path-25" transform="translate(-8.08 -7.35)"><rect class="cls-1" x="55.08" y="75.95" width="19.05" height="18.71"/></clipPath></defs><g id="L1"><g class="cls-2"><g class="cls-2"><g class="cls-3"><g class="cls-3"><polygon class="cls-4" points="49.81 22.16 49.55 23.13 48.82 24.96 47.93 26.96 46.38 28.47 44.62 29.76 42.48 30.24 39.93 30.35 38.94 30.51 38.17 30.01 36.47 29.46 34.88 28.63 32.91 27.32 31.73 25.28 30.98 23.03 30.91 19.66 31.61 17.25 33.14 15.29 34.9 13.56 37.16 12.55 39.26 12.24 41.36 11.96 42.8 12.19 45.54 13.79 47.53 15.19 48.79 17.25 49.56 19.59 49.81 22.16"/></g></g></g></g></g><g id="T1_2"><g class="cls-5"><g class="cls-5"><path class="cls-6" d="M16.73,17.89c-1-2.69-.31-10.19-.31-10.19,2.14-.65,2.19-.19,5.1-.15.12,0,1.86.34,2,.33a19.06,19.06,0,0,1,8.35,3.2A16.08,16.08,0,0,0,33.3,12c.66-1,1.28-1.92,1.9-2.88,1.45,1.44,4.69,10.39,5.06,14A78.79,78.79,0,0,1,27,23.93l1.74-3.51a26.66,26.66,0,0,0-5.93-2.51,10.82,10.82,0,0,0-6.08,0" transform="translate(-8.08 -7.35)"/></g></g></g><g id="T1_2-2" data-name="T1_2"><g class="cls-7"><g class="cls-7"><path class="cls-8" d="M74.32,7.58c2.81.6,8.79,5.17,8.79,5.17-.59,2.16-1,2-2.59,4.4-.06.1-1.27,1.39-1.33,1.49A19,19,0,0,1,72,24a13.55,13.55,0,0,0-1.53.76l1.42,3.14c-2,.46-11.28-1.57-14.55-3.19a79.85,79.85,0,0,1,6.37-11.66c.75,1.23,1.34,2.19,2,3.35a27.27,27.27,0,0,0,5.29-3.68,10.79,10.79,0,0,0,3.25-5.14" transform="translate(-8.08 -7.35)"/></g></g></g><g id="T1_2-3" data-name="T1_2"><g class="cls-9"><g class="cls-9"><path class="cls-10" d="M57,60.88c-1.69,2.31-8.31,5.9-8.31,5.9-1.73-1.42-1.37-1.73-3-4.16-.07-.1-.75-1.74-.82-1.83a19.14,19.14,0,0,1-2-8.72,14.47,14.47,0,0,0-.07-1.71H39.43c.39-2,6-9.64,8.86-12a77.76,77.76,0,0,1,8,10.58l-3.89.5a27.06,27.06,0,0,0,1.2,6.33A10.89,10.89,0,0,0,57,60.88" transform="translate(-8.08 -7.35)"/></g></g></g><g id="L1-2" data-name="L1"><g class="cls-11"><g class="cls-11"><g class="cls-12"><g class="cls-12"><polygon class="cls-13" points="19.05 52.26 18.95 53.26 18.54 55.19 17.99 57.3 16.72 59.05 15.2 60.61 13.17 61.44 10.67 61.97 9.72 62.3 8.88 61.94 7.11 61.68 5.4 61.12 3.25 60.16 1.74 58.34 0.63 56.25 0 52.94 0.29 50.45 1.47 48.26 2.92 46.26 4.97 44.89 7 44.23 9.02 43.6 10.48 43.59 13.45 44.71 15.65 45.76 17.23 47.59 18.38 49.76 19.05 52.26"/></g></g></g></g></g><g id="L1-3" data-name="L1"><g class="cls-14"><g class="cls-14"><g class="cls-15"><g class="cls-15"><polygon class="cls-16" points="84.05 52.26 83.95 53.26 83.54 55.19 82.99 57.3 81.72 59.05 80.2 60.61 78.17 61.44 75.67 61.97 74.72 62.3 73.88 61.94 72.11 61.68 70.4 61.12 68.25 60.16 66.74 58.34 65.63 56.25 65 52.94 65.29 50.45 66.47 48.26 67.92 46.26 69.97 44.89 72 44.23 74.02 43.6 75.48 43.59 78.45 44.71 80.65 45.76 82.22 47.59 83.38 49.76 84.05 52.26"/></g></g></g></g></g><g id="L1-4" data-name="L1"><g class="cls-17"><g class="cls-17"><g class="cls-18"><g class="cls-18"><polygon class="cls-19" points="36.05 77.26 35.95 78.26 35.54 80.19 34.99 82.3 33.72 84.05 32.2 85.61 30.17 86.44 27.67 86.97 26.72 87.3 25.88 86.94 24.11 86.68 22.4 86.12 20.25 85.16 18.74 83.34 17.63 81.25 17 77.94 17.29 75.45 18.47 73.25 19.91 71.26 21.98 69.89 24 69.23 26.02 68.6 27.48 68.59 30.45 69.71 32.65 70.76 34.23 72.59 35.38 74.76 36.05 77.26"/></g></g></g></g></g><g id="L1-5" data-name="L1"><g class="cls-20"><g class="cls-20"><g class="cls-21"><g class="cls-21"><polygon class="cls-22" points="66.05 77.26 65.95 78.26 65.54 80.19 64.99 82.3 63.72 84.05 62.2 85.61 60.17 86.44 57.67 86.97 56.72 87.3 55.88 86.94 54.11 86.68 52.4 86.12 50.25 85.16 48.74 83.34 47.63 81.25 47 77.94 47.29 75.45 48.47 73.25 49.91 71.26 51.98 69.89 53.99 69.23 56.02 68.6 57.48 68.59 60.45 69.71 62.65 70.76 64.22 72.59 65.38 74.76 66.05 77.26"/></g></g></g></g></g></svg>