<?xml version="1.0" encoding="iso-8859-1"?>
<!-- Generator: Adobe Illustrator 26.0.1, SVG Export Plug-In . SVG Version: 6.00 Build 0)  -->
<svg version="1.1" xmlns="http://www.w3.org/2000/svg" xmlns:xlink="http://www.w3.org/1999/xlink" x="0px" y="0px"
	 viewBox="0 0 100 100" style="enable-background:new 0 0 100 100;" xml:space="preserve">
<g id="Layer_1">
	<g id="L2_L2_L2_G_x28__T1_L1__x29__00000148644958751397164580000014380107110672317103_">
		<g>
			<defs>
				<rect id="SVGID_1_" x="9" y="9.26" width="82" height="81.48"/>
			</defs>
			<clipPath id="SVGID_00000036972374593596405800000003977735726565256362_">
				<use xlink:href="#SVGID_1_"  style="overflow:visible;"/>
			</clipPath>
			<g style="clip-path:url(#SVGID_00000036972374593596405800000003977735726565256362_);">
				<defs>
					<rect id="SVGID_00000027568456370406811210000013698874211969045132_" x="9" y="9.26" width="82" height="81.48"/>
				</defs>
				<clipPath id="SVGID_00000099650973209229746050000000706706462901139640_">
					<use xlink:href="#SVGID_00000027568456370406811210000013698874211969045132_"  style="overflow:visible;"/>
				</clipPath>
				<g style="clip-path:url(#SVGID_00000099650973209229746050000000706706462901139640_);">
					<defs>
						<rect id="SVGID_00000043446381217656730360000000725819769157760680_" x="9" y="9.26" width="79.96" height="81.48"/>
					</defs>
					<clipPath id="SVGID_00000022526759276039046600000002057765732550107301_">
						<use xlink:href="#SVGID_00000043446381217656730360000000725819769157760680_"  style="overflow:visible;"/>
					</clipPath>
					<g style="opacity:0.96;clip-path:url(#SVGID_00000022526759276039046600000002057765732550107301_);">
						<g>
							<defs>
								<rect id="SVGID_00000046341811198882964810000008994553357406624939_" x="10" y="9.257" width="31.363" height="34.872"/>
							</defs>
							<clipPath id="SVGID_00000052089647788100814640000012093071931388640957_">
								<use xlink:href="#SVGID_00000046341811198882964810000008994553357406624939_"  style="overflow:visible;"/>
							</clipPath>
							<g style="clip-path:url(#SVGID_00000052089647788100814640000012093071931388640957_);">
								<defs>
									
										<rect id="SVGID_00000178168144737483117800000010196288016490146472_" x="11.264" y="9.26" width="30.093" height="18.776"/>
								</defs>
								<clipPath id="SVGID_00000079483781799729085030000004043293168570224013_">
									<use xlink:href="#SVGID_00000178168144737483117800000010196288016490146472_"  style="overflow:visible;"/>
								</clipPath>
								<path style="clip-path:url(#SVGID_00000079483781799729085030000004043293168570224013_);fill:#AD70D6;" d="M37.693,15.756
									c1.33-0.04,2.04-2.21,3.67-1.07c-0.27,4.39-0.53,8.73-0.81,13.35c-4.26-0.64-8.21-2.15-12.23-3.33
									c-0.22-0.34-0.4-0.63-0.63-0.97c1.08-0.93,2.19-1.87,3.32-2.84c-0.9-2.8-3.33-3.45-5.51-3.8c-3.55-0.57-4.85,2.27-5.92,4.63
									c-0.1,0.96-0.16,1.62-0.25,2.5c-2.83-0.65-5.4-1.24-8.01-1.85c-0.02-0.25-0.1-0.47-0.03-0.62c0.78-1.91,1.3-4.01,2.45-5.66
									c2.89-4.13,6.85-6.66,12.07-6.83c3.34-0.1,6.39,0.64,8.85,3.01C35.743,13.316,36.643,14.536,37.693,15.756"/>
							</g>
							<g style="clip-path:url(#SVGID_00000052089647788100814640000012093071931388640957_);">
								<defs>
									
										<rect id="SVGID_00000005953244743412132830000017241600863374404787_" x="10.003" y="25.916" width="29.361" height="18.213"/>
								</defs>
								<clipPath id="SVGID_00000041271426462554989140000015411607087404772023_">
									<use xlink:href="#SVGID_00000005953244743412132830000017241600863374404787_"  style="overflow:visible;"/>
								</clipPath>
								<path style="clip-path:url(#SVGID_00000041271426462554989140000015411607087404772023_);fill:#F26C2B;" d="M39.363,31.706
									c-0.1,0.3-0.17,0.6-0.29,0.87c-1.52,3.45-3.13,6.93-6.51,8.9c-1.9,1.11-4.16,1.59-6.26,2.36c-2.15,0.78-4.14-0.2-6.16-0.61
									c-1.67-0.33-2.86-1.56-4-2.76c-0.82-0.86-1.62-1.74-2.62-2.83c-1.02,0.3-2.14,0.63-3.52,1.04c0.24-4.15,0.49-8.3,0.76-12.76
									c4,1.19,7.88,2.35,12.16,3.63c-1.18,1.02-2.12,1.83-3.03,2.63v1.59c1.49,2.59,3.87,3.08,6.63,3.14
									c3.42,0.08,4.13-2.66,5.59-4.93v-1.92C34.563,30.616,36.923,31.146,39.363,31.706"/>
							</g>
						</g>
					</g>
					<g style="opacity:0.96;clip-path:url(#SVGID_00000022526759276039046600000002057765732550107301_);">
						<g>
							<defs>
								<rect id="SVGID_00000144311703483118555150000014589532881887438234_" x="55" y="9.257" width="31.363" height="34.872"/>
							</defs>
							<clipPath id="SVGID_00000151511114249842768030000000147783737398238090_">
								<use xlink:href="#SVGID_00000144311703483118555150000014589532881887438234_"  style="overflow:visible;"/>
							</clipPath>
							<g style="clip-path:url(#SVGID_00000151511114249842768030000000147783737398238090_);">
								<defs>
									
										<rect id="SVGID_00000168096018081090306530000006611220216083160972_" x="56.264" y="9.26" width="30.094" height="18.776"/>
								</defs>
								<clipPath id="SVGID_00000117674991057739254670000003394444579196183937_">
									<use xlink:href="#SVGID_00000168096018081090306530000006611220216083160972_"  style="overflow:visible;"/>
								</clipPath>
								<path style="clip-path:url(#SVGID_00000117674991057739254670000003394444579196183937_);fill:#55C95A;" d="M82.692,15.756
									c1.33-0.04,2.04-2.21,3.67-1.07c-0.27,4.39-0.529,8.73-0.81,13.35c-4.259-0.64-8.21-2.15-12.23-3.33
									c-0.22-0.34-0.4-0.63-0.63-0.97c1.08-0.93,2.19-1.87,3.32-2.84c-0.9-2.8-3.33-3.45-5.509-3.8
									c-3.55-0.57-4.851,2.27-5.92,4.63c-0.101,0.96-0.161,1.62-0.25,2.5c-2.83-0.65-5.401-1.24-8.011-1.85
									c-0.02-0.25-0.1-0.47-0.029-0.62c0.779-1.91,1.299-4.01,2.45-5.66c2.889-4.13,6.849-6.66,12.069-6.83
									c3.34-0.1,6.391,0.64,8.851,3.01C80.743,13.316,81.642,14.536,82.692,15.756"/>
							</g>
							<g style="clip-path:url(#SVGID_00000151511114249842768030000000147783737398238090_);">
								<defs>
									
										<rect id="SVGID_00000157306019820319679210000001660837621444511163_" x="55.003" y="25.916" width="29.361" height="18.213"/>
								</defs>
								<clipPath id="SVGID_00000121281407226647831810000009724903756922437534_">
									<use xlink:href="#SVGID_00000157306019820319679210000001660837621444511163_"  style="overflow:visible;"/>
								</clipPath>
								<path style="clip-path:url(#SVGID_00000121281407226647831810000009724903756922437534_);fill:#5699DE;" d="M84.362,31.706
									c-0.1,0.3-0.17,0.6-0.29,0.87c-1.52,3.45-3.13,6.93-6.51,8.9c-1.899,1.11-4.16,1.59-6.26,2.36
									c-2.15,0.78-4.139-0.2-6.16-0.61c-1.67-0.33-2.86-1.56-4-2.76c-0.82-0.86-1.62-1.74-2.62-2.83
									c-1.019,0.3-2.139,0.63-3.519,1.04c0.239-4.15,0.489-8.3,0.759-12.76c4,1.19,7.88,2.35,12.161,3.63
									c-1.181,1.02-2.121,1.83-3.031,2.63v1.59c1.491,2.59,3.87,3.08,6.63,3.14c3.42,0.08,4.13-2.66,5.59-4.93v-1.92
									C79.562,30.616,81.923,31.146,84.362,31.706"/>
							</g>
						</g>
					</g>
					<g style="opacity:0.96;clip-path:url(#SVGID_00000022526759276039046600000002057765732550107301_);">
						<g>
							<defs>
								<rect id="SVGID_00000167391449779202985200000014319867318385600927_" x="9" y="53.257" width="31.363" height="34.872"/>
							</defs>
							<clipPath id="SVGID_00000171721680894010468380000004171654226471748517_">
								<use xlink:href="#SVGID_00000167391449779202985200000014319867318385600927_"  style="overflow:visible;"/>
							</clipPath>
							<g style="clip-path:url(#SVGID_00000171721680894010468380000004171654226471748517_);">
								<defs>
									
										<rect id="SVGID_00000076588907922151814690000016491062839386344613_" x="10.264" y="53.261" width="30.094" height="18.775"/>
								</defs>
								<clipPath id="SVGID_00000183218895877921014680000004605341027140460677_">
									<use xlink:href="#SVGID_00000076588907922151814690000016491062839386344613_"  style="overflow:visible;"/>
								</clipPath>
								<path style="clip-path:url(#SVGID_00000183218895877921014680000004605341027140460677_);fill:#E1D153;" d="M36.693,59.756
									c1.33-0.04,2.04-2.21,3.67-1.07c-0.27,4.389-0.53,8.73-0.81,13.349c-4.26-0.639-8.21-2.149-12.23-3.33
									c-0.22-0.34-0.4-0.63-0.63-0.97c1.08-0.929,2.19-1.87,3.32-2.839c-0.9-2.8-3.33-3.451-5.51-3.8
									c-3.55-0.57-4.85,2.269-5.92,4.63c-0.1,0.96-0.16,1.62-0.25,2.5c-2.83-0.651-5.4-1.241-8.01-1.85
									c-0.02-0.25-0.1-0.471-0.03-0.62c0.78-1.91,1.3-4.011,2.45-5.66c2.89-4.13,6.85-6.66,12.07-6.83
									c3.34-0.1,6.39,0.639,8.85,3.01C34.743,57.316,35.643,58.535,36.693,59.756"/>
							</g>
							<g style="clip-path:url(#SVGID_00000171721680894010468380000004171654226471748517_);">
								<defs>
									
										<rect id="SVGID_00000180359075652473425140000001580831504713692591_" x="9.003" y="69.916" width="29.361" height="18.212"/>
								</defs>
								<clipPath id="SVGID_00000163033134114013730420000009156668138121186443_">
									<use xlink:href="#SVGID_00000180359075652473425140000001580831504713692591_"  style="overflow:visible;"/>
								</clipPath>
								<path style="clip-path:url(#SVGID_00000163033134114013730420000009156668138121186443_);fill:#E33A3A;" d="M38.363,75.706
									c-0.1,0.3-0.17,0.6-0.29,0.87c-1.52,3.449-3.13,6.93-6.51,8.9c-1.9,1.11-4.16,1.589-6.26,2.36
									c-2.15,0.78-4.14-0.2-6.16-0.61c-1.67-0.331-2.86-1.56-4-2.76c-0.82-0.861-1.62-1.74-2.62-2.83
									c-1.02,0.299-2.14,0.63-3.52,1.04c0.24-4.151,0.49-8.3,0.76-12.76c4,1.189,7.88,2.35,12.16,3.63
									c-1.18,1.019-2.12,1.83-3.03,2.63v1.59c1.49,2.589,3.87,3.08,6.63,3.14c3.42,0.079,4.13-2.66,5.59-4.93v-1.92
									C33.563,74.616,35.923,75.145,38.363,75.706"/>
							</g>
						</g>
					</g>
					<g style="opacity:0.96;clip-path:url(#SVGID_00000022526759276039046600000002057765732550107301_);">
						<g>
							<defs>
								<rect id="SVGID_00000134935644687155373560000011641216570724934816_" x="70" y="49.208" width="19.135" height="18.706"/>
							</defs>
							<clipPath id="SVGID_00000037655828167477163440000011324156397534115258_">
								<use xlink:href="#SVGID_00000134935644687155373560000011641216570724934816_"  style="overflow:visible;"/>
							</clipPath>
						</g>
					</g>
					<g style="opacity:0.96;clip-path:url(#SVGID_00000022526759276039046600000002057765732550107301_);">
						<g>
							<defs>
								<rect id="SVGID_00000160186171422468007450000001949189498021860530_" x="52" y="72.208" width="19.135" height="18.706"/>
							</defs>
							<clipPath id="SVGID_00000117644809000091733620000009807149599954973877_">
								<use xlink:href="#SVGID_00000160186171422468007450000001949189498021860530_"  style="overflow:visible;"/>
							</clipPath>
						</g>
					</g>
				</g>
				<polygon style="clip-path:url(#SVGID_00000099650973209229746050000000706706462901139640_);fill:#9F9EB1;" points="
					81.766,63.658 80.022,64.216 78.156,64.837 76.253,66.142 74.915,68.036 73.827,70.118 73.561,72.475 73.561,72.486 
					74.139,75.63 75.167,77.62 76.562,79.344 78.55,80.255 80.129,80.786 81.763,81.032 82.169,81.212 83.004,81.212 83.418,81.066 
					85.725,80.563 87.6,79.772 89.004,78.292 90.183,76.626 90.69,74.621 91,73.118 91,71.219 90.539,69.467 89.472,67.401 
					88.015,65.662 85.983,64.667 83.368,63.658 				"/>
				<g style="clip-path:url(#SVGID_00000099650973209229746050000000706706462901139640_);">
					<defs>
						<polygon id="SVGID_00000033352261131390280370000011235780197129139642_" points="43.323,71.611 54.865,84.928 75.622,65.908 
							64.081,52.592 						"/>
					</defs>
					<clipPath id="SVGID_00000038389045832348144270000003046366396457805996_">
						<use xlink:href="#SVGID_00000033352261131390280370000011235780197129139642_"  style="overflow:visible;"/>
					</clipPath>
					<path style="clip-path:url(#SVGID_00000038389045832348144270000003046366396457805996_);fill:#523742;" d="M65.544,59.518
						c0.892-0.869,0.049-2.856,1.873-3.077c2.512,3.283,5,6.525,7.647,9.979c-3.332,2.236-6.984,3.662-10.482,5.366
						c-0.361-0.101-0.663-0.194-1.03-0.29c0.173-1.342,0.361-2.709,0.544-4.112c-2.342-1.417-4.417-0.341-6.135,0.787
						c-2.799,1.84-1.95,4.675-1.238,7.025c0.522,0.744,0.886,1.249,1.364,1.931c-2.351,1.328-4.487,2.532-6.661,3.749
						c-0.167-0.164-0.358-0.27-0.402-0.42c-0.636-1.847-1.568-3.665-1.789-5.562c-0.546-4.755,0.631-9.052,4.126-12.47
						c2.242-2.182,4.801-3.585,7.955-3.459C62.7,59.02,64.07,59.317,65.544,59.518"/>
				</g>
			</g>
		</g>
	</g>
</g>
<g id="Layer_2">
	<g id="Layer_3">
	</g>
</g>
</svg>
