<?xml version="1.0" encoding="iso-8859-1"?>
<!-- Generator: Adobe Illustrator 26.0.1, SVG Export Plug-In . SVG Version: 6.00 Build 0)  -->
<svg version="1.1" xmlns="http://www.w3.org/2000/svg" xmlns:xlink="http://www.w3.org/1999/xlink" x="0px" y="0px"
	 viewBox="0 0 100 100" style="enable-background:new 0 0 100 100;" xml:space="preserve">
<g id="Layer_1">
	<g id="L3_L3_T2_00000031902900663210956240000010882798097772922009_">
		<g>
			<defs>
				<rect id="SVGID_1_" x="4" y="7" width="88.96" height="90.743"/>
			</defs>
			<clipPath id="SVGID_00000024705007923524314350000007522104552021429674_">
				<use xlink:href="#SVGID_1_"  style="overflow:visible;"/>
			</clipPath>
			<g style="clip-path:url(#SVGID_00000024705007923524314350000007522104552021429674_);">
				<defs>
					<rect id="SVGID_00000119098701084208189700000016730797202987850898_" x="4.004" y="32.002" width="41.85" height="39.145"/>
				</defs>
				<clipPath id="SVGID_00000008125133104732945510000004569918384539319703_">
					<use xlink:href="#SVGID_00000119098701084208189700000016730797202987850898_"  style="overflow:visible;"/>
				</clipPath>
				<path style="clip-path:url(#SVGID_00000008125133104732945510000004569918384539319703_);fill:#55C95A;" d="M45.854,50.472v4.32
					c-0.1,0.32-0.19,0.64-0.29,0.96c-0.62,1.94-1.1,3.94-1.9,5.8c-0.42,0.98-1.25,1.9-2.11,2.56c-1.74,1.34-3.62,2.48-5.54,3.76
					c0.54,0.92,1.13,1.93,1.74,2.96c-2.67,0.91-14.34-0.29-15.63-1.61c1-2.61,1.86-5.28,2.93-7.97c0.65-1.6,1.37-3.22,2.23-4.82
					c0.95,1.17,1.73,2.13,2.53,3.12c1.82-1.3,3.59-2.57,5.43-3.89c0.22-2.01,2.57-3.46,1.4-6.06c0.8,0.07,1.35,0.13,1.9,0.17
					c2.21,0.17,4.42,0.33,6.63,0.5C45.404,50.292,45.634,50.402,45.854,50.472"/>
				<path style="clip-path:url(#SVGID_00000008125133104732945510000004569918384539319703_);fill:#F26C2B;" d="M38.364,32.002
					c1.67,1.17,6.35,9.46,7.32,12.97c-3.08,1-6.21,1.81-9.48,2.43c-1.14,0.22-2.29,0.42-3.46,0.59c0.42-1.37,0.74-2.45,1.14-3.75
					c-2.2-0.72-4.36-1.83-6.6-2.04c-1.95-0.18-4.27-0.29-5.84,1.66c-0.3-0.53-0.6-1.05-0.89-1.56c-1.1-1.92-2.15-3.76-3.23-5.65
					c2.19-1.64,4.45-3.27,7.31-3.72c0.12-0.02,0.26,0.01,0.36-0.03c3.83-1.81,7.11-0.14,10.39,1.62c0.48,0.25,1.01,0.4,1.59,0.63
					C37.454,34.062,37.904,33.042,38.364,32.002"/>
				<path style="clip-path:url(#SVGID_00000008125133104732945510000004569918384539319703_);fill:#E33A3A;" d="M7.644,56.762
					c-0.24-1.57-0.1-3.21-0.13-4.83c-0.01-0.46,0-0.93,0-1.41c-1.28-0.07-2.4-0.13-3.51-0.18c0.2-2.35,7.28-11.86,9.39-12.58
					c1.59,1.92,3.26,3.81,4.83,5.87c1.22,1.59,2.37,3.29,3.39,5.19c-1.51,0.21-2.62,0.36-3.9,0.54c0.17,2.13-0.06,4.4,0.64,6.32
					c0.68,1.86,1.82,3.79,4.25,4.78c-1.79,2.52-3.45,4.86-5.18,7.3c-2.62-1.48-5.19-2.85-6.86-5.41c-0.32-0.49-0.78-0.89-1.2-1.3
					C8.154,59.872,7.884,58.282,7.644,56.762"/>
			</g>
			<g style="clip-path:url(#SVGID_00000024705007923524314350000007522104552021429674_);">
				<defs>
					<rect id="SVGID_00000161596806496063635610000003958057257272017799_" x="50.003" y="7.002" width="41.85" height="39.145"/>
				</defs>
				<clipPath id="SVGID_00000103960166794673027190000000678249252011505298_">
					<use xlink:href="#SVGID_00000161596806496063635610000003958057257272017799_"  style="overflow:visible;"/>
				</clipPath>
				<path style="clip-path:url(#SVGID_00000103960166794673027190000000678249252011505298_);fill:#5699DE;" d="M91.854,25.472v4.32
					c-0.1,0.32-0.189,0.64-0.289,0.96c-0.62,1.94-1.101,3.94-1.9,5.8c-0.42,0.98-1.25,1.9-2.111,2.56
					c-1.739,1.34-3.62,2.48-5.54,3.76c0.54,0.92,1.13,1.93,1.74,2.96c-2.67,0.91-14.339-0.29-15.629-1.61
					c1-2.61,1.86-5.28,2.929-7.97c0.651-1.6,1.37-3.22,2.231-4.82c0.95,1.17,1.729,2.13,2.53,3.12c1.819-1.3,3.59-2.57,5.43-3.89
					c0.219-2.01,2.57-3.46,1.399-6.06c0.801,0.07,1.351,0.13,1.9,0.17c2.21,0.17,4.42,0.33,6.63,0.5
					C91.404,25.292,91.633,25.402,91.854,25.472"/>
				<path style="clip-path:url(#SVGID_00000103960166794673027190000000678249252011505298_);fill:#AD70D6;" d="M84.364,7.002
					c1.67,1.17,6.35,9.46,7.319,12.97c-3.08,1-6.21,1.81-9.479,2.43c-1.141,0.22-2.29,0.42-3.46,0.59
					c0.42-1.37,0.739-2.45,1.14-3.75c-2.201-0.72-4.361-1.83-6.6-2.04c-1.95-0.18-4.271-0.29-5.841,1.66
					c-0.3-0.53-0.6-1.05-0.89-1.56c-1.099-1.92-2.15-3.76-3.229-5.65c2.189-1.64,4.449-3.27,7.31-3.72
					c0.12-0.02,0.259,0.01,0.36-0.03c3.83-1.81,7.109-0.14,10.39,1.62c0.48,0.25,1.009,0.4,1.589,0.63
					C83.454,9.062,83.903,8.042,84.364,7.002"/>
				<path style="clip-path:url(#SVGID_00000103960166794673027190000000678249252011505298_);fill:#E1D153;" d="M53.644,31.762
					c-0.24-1.57-0.1-3.21-0.13-4.83c-0.01-0.46,0-0.93,0-1.41c-1.28-0.07-2.4-0.13-3.51-0.18c0.2-2.35,7.28-11.86,9.39-12.58
					c1.59,1.92,3.26,3.81,4.83,5.87c1.22,1.59,2.37,3.29,3.39,5.19c-1.51,0.21-2.62,0.36-3.9,0.54c0.17,2.13-0.06,4.4,0.64,6.32
					c0.68,1.86,1.82,3.79,4.25,4.78c-1.79,2.52-3.45,4.86-5.18,7.3c-2.62-1.48-5.19-2.85-6.86-5.41c-0.32-0.49-0.78-0.89-1.2-1.3
					C54.154,34.872,53.884,33.282,53.644,31.762"/>
			</g>
			<polygon style="clip-path:url(#SVGID_00000024705007923524314350000007522104552021429674_);fill:#9F9EB1;" points="82.964,75 
				81.076,75.589 79.055,76.242 76.996,77.615 75.548,79.61 74.37,81.802 74.082,84.283 74.082,84.295 74.707,87.604 75.821,89.699 
				77.331,91.515 79.483,92.474 81.192,93.032 82.96,93.292 83.4,93.481 84.304,93.481 84.751,93.327 87.25,92.798 89.279,91.966 
				90.799,90.407 92.075,88.653 92.624,86.542 92.959,84.96 92.959,82.961 92.461,81.115 91.305,78.941 89.728,77.11 87.529,76.063 
				84.698,75 			"/>
			<g style="clip-path:url(#SVGID_00000024705007923524314350000007522104552021429674_);">
				<defs>
					
						<rect id="SVGID_00000140720700452585990700000015886899523522899380_" x="43.783" y="70.982" transform="matrix(0.7465 -0.6654 0.6654 0.7465 -38.5633 59.517)" width="30.098" height="18.778"/>
				</defs>
				<clipPath id="SVGID_00000139261584398055018600000011520202310553372549_">
					<use xlink:href="#SVGID_00000140720700452585990700000015886899523522899380_"  style="overflow:visible;"/>
				</clipPath>
				<path style="clip-path:url(#SVGID_00000139261584398055018600000011520202310553372549_);fill:#523742;" d="M65.404,70.642
					c0.966-0.915,0.053-3.007,2.027-3.24c2.72,3.457,5.413,6.87,8.278,10.506c-3.606,2.355-7.56,3.856-11.346,5.65
					c-0.391-0.107-0.718-0.204-1.115-0.306c0.187-1.412,0.39-2.852,0.589-4.329c-2.536-1.491-4.782-0.359-6.642,0.829
					c-3.03,1.937-2.111,4.922-1.34,7.396c0.565,0.783,0.959,1.315,1.477,2.033c-2.545,1.398-4.857,2.666-7.211,3.947
					c-0.181-0.173-0.387-0.284-0.435-0.442c-0.688-1.945-1.697-3.859-1.936-5.856c-0.591-5.006,0.683-9.53,4.466-13.129
					c2.427-2.297,5.197-3.774,8.611-3.641C62.325,70.118,63.808,70.43,65.404,70.642"/>
			</g>
		</g>
	</g>
</g>
<g id="Layer_2">
	<g id="Layer_3">
	</g>
</g>
</svg>
