<?xml version="1.0" encoding="iso-8859-1"?>
<!-- Generator: Adobe Illustrator 26.0.1, SVG Export Plug-In . SVG Version: 6.00 Build 0)  -->
<svg version="1.1" xmlns="http://www.w3.org/2000/svg" xmlns:xlink="http://www.w3.org/1999/xlink" x="0px" y="0px"
	 viewBox="0 0 100 100" style="enable-background:new 0 0 100 100;" xml:space="preserve">
<g id="Layer_1">
	<g id="L3_G_x28__T1_L1__x29__T1_T1_T1_00000005239616109782313420000010635442678949825455_">
		<g>
			<defs>
				<rect id="SVGID_1_" x="6" y="9" width="101.892" height="86.633"/>
			</defs>
			<clipPath id="SVGID_00000007397084471278065450000008633203184475294627_">
				<use xlink:href="#SVGID_1_"  style="overflow:visible;"/>
			</clipPath>
			<g style="clip-path:url(#SVGID_00000007397084471278065450000008633203184475294627_);">
				<defs>
					<rect id="SVGID_00000135673304231445766540000011111567303297797252_" x="72.082" y="9.001" width="18.878" height="18.48"/>
				</defs>
				<clipPath id="SVGID_00000065785166285776935230000009815117216517959563_">
					<use xlink:href="#SVGID_00000135673304231445766540000011111567303297797252_"  style="overflow:visible;"/>
				</clipPath>
				<g style="clip-path:url(#SVGID_00000065785166285776935230000009815117216517959563_);">
					<defs>
						<rect id="SVGID_00000007429138063455831690000003074050544719379864_" x="72.08" y="8.95" width="19.06" height="18.7"/>
					</defs>
					<clipPath id="SVGID_00000135674178279835651690000007840957031624014984_">
						<use xlink:href="#SVGID_00000007429138063455831690000003074050544719379864_"  style="overflow:visible;"/>
					</clipPath>
					<g style="clip-path:url(#SVGID_00000135674178279835651690000007840957031624014984_);">
						<defs>
							<rect id="SVGID_00000029742930070414664540000005671505258077130122_" x="72.08" y="8.95" width="19.06" height="18.7"/>
						</defs>
						<clipPath id="SVGID_00000068637008133709501640000016803734987232027815_">
							<use xlink:href="#SVGID_00000029742930070414664540000005671505258077130122_"  style="overflow:visible;"/>
						</clipPath>
						<polygon style="clip-path:url(#SVGID_00000068637008133709501640000016803734987232027815_);fill:#AD70D6;" points="
							90.46,15.12 91.14,17.61 91.03,18.61 90.62,20.54 90.08,22.65 88.8,24.41 87.28,25.97 85.25,26.8 82.75,27.33 81.8,27.65 
							80.96,27.29 79.19,27.03 77.481,26.47 75.33,25.51 73.82,23.7 72.71,21.6 72.08,18.29 72.37,15.8 73.55,13.61 75,11.62 
							77.06,10.24 79.08,9.59 81.1,8.96 82.56,8.95 85.53,10.06 87.731,11.11 89.31,12.94 						"/>
					</g>
				</g>
			</g>
			<g style="clip-path:url(#SVGID_00000007397084471278065450000008633203184475294627_);">
				<defs>
					<rect id="SVGID_00000042015060153788192770000008927716200367530400_" x="12.081" y="9.001" width="18.878" height="18.48"/>
				</defs>
				<clipPath id="SVGID_00000049209343294931613220000009882226248530125956_">
					<use xlink:href="#SVGID_00000042015060153788192770000008927716200367530400_"  style="overflow:visible;"/>
				</clipPath>
				<g style="clip-path:url(#SVGID_00000049209343294931613220000009882226248530125956_);">
					<defs>
						<rect id="SVGID_00000084526950067693023540000016486012955133805724_" x="12.08" y="8.95" width="19.06" height="18.7"/>
					</defs>
					<clipPath id="SVGID_00000029729486818162957450000008514307210374105757_">
						<use xlink:href="#SVGID_00000084526950067693023540000016486012955133805724_"  style="overflow:visible;"/>
					</clipPath>
					<g style="clip-path:url(#SVGID_00000029729486818162957450000008514307210374105757_);">
						<defs>
							<rect id="SVGID_00000052815644667506745490000009687512447962410627_" x="12.08" y="8.95" width="19.06" height="18.7"/>
						</defs>
						<clipPath id="SVGID_00000029011460720839217540000011875217946058034076_">
							<use xlink:href="#SVGID_00000052815644667506745490000009687512447962410627_"  style="overflow:visible;"/>
						</clipPath>
						<polygon style="clip-path:url(#SVGID_00000029011460720839217540000011875217946058034076_);fill:#E1D153;" points="
							30.46,15.12 31.14,17.61 31.03,18.61 30.62,20.54 30.08,22.65 28.8,24.41 27.28,25.97 25.25,26.8 22.75,27.33 21.8,27.65 
							20.96,27.29 19.19,27.03 17.48,26.47 15.33,25.51 13.82,23.7 12.71,21.6 12.08,18.29 12.37,15.8 13.55,13.61 15,11.62 
							17.06,10.24 19.08,9.59 21.1,8.96 22.56,8.95 25.53,10.06 27.73,11.11 29.31,12.94 						"/>
					</g>
				</g>
			</g>
			<g style="clip-path:url(#SVGID_00000007397084471278065450000008633203184475294627_);">
				<defs>
					<rect id="SVGID_00000114790851464518715830000009409917735017954747_" x="43.082" y="16" width="18.878" height="18.481"/>
				</defs>
				<clipPath id="SVGID_00000017517930338869033090000012488759335926861483_">
					<use xlink:href="#SVGID_00000114790851464518715830000009409917735017954747_"  style="overflow:visible;"/>
				</clipPath>
				<g style="clip-path:url(#SVGID_00000017517930338869033090000012488759335926861483_);">
					<defs>
						<rect id="SVGID_00000170266364404372952410000010721938011469994655_" x="43.08" y="15.95" width="19.06" height="18.7"/>
					</defs>
					<clipPath id="SVGID_00000019675916766987314860000008949733250996847758_">
						<use xlink:href="#SVGID_00000170266364404372952410000010721938011469994655_"  style="overflow:visible;"/>
					</clipPath>
					<g style="clip-path:url(#SVGID_00000019675916766987314860000008949733250996847758_);">
						<defs>
							<rect id="SVGID_00000105398902937655779230000006085066663739000491_" x="43.08" y="15.95" width="19.06" height="18.7"/>
						</defs>
						<clipPath id="SVGID_00000087377126121412250540000001296588305729175469_">
							<use xlink:href="#SVGID_00000105398902937655779230000006085066663739000491_"  style="overflow:visible;"/>
						</clipPath>
						<polygon style="clip-path:url(#SVGID_00000087377126121412250540000001296588305729175469_);fill:#5699DE;" points="
							61.46,22.12 62.14,24.61 62.03,25.61 61.62,27.54 61.08,29.65 59.8,31.41 58.28,32.97 56.25,33.8 53.75,34.33 52.8,34.65 
							51.96,34.29 50.19,34.03 48.48,33.47 46.33,32.51 44.82,30.7 43.71,28.6 43.08,25.29 43.37,22.8 44.55,20.61 46,18.62 
							48.06,17.24 50.08,16.59 52.1,15.96 53.56,15.95 56.53,17.06 58.731,18.11 60.31,19.94 						"/>
					</g>
				</g>
			</g>
			<g style="clip-path:url(#SVGID_00000007397084471278065450000008633203184475294627_);">
				<defs>
					<rect id="SVGID_00000003096831059034631430000001292646807037521806_" x="6.005" y="47.002" width="46.995" height="43.958"/>
				</defs>
				<clipPath id="SVGID_00000005984109152523791830000017320355951439619005_">
					<use xlink:href="#SVGID_00000003096831059034631430000001292646807037521806_"  style="overflow:visible;"/>
				</clipPath>
				<g style="clip-path:url(#SVGID_00000005984109152523791830000017320355951439619005_);">
					<defs>
						<rect id="SVGID_00000067936167680297691620000002971810598701335702_" x="20.96" y="47" width="31.85" height="17.96"/>
					</defs>
					<clipPath id="SVGID_00000098935547641342734870000004676127481491371686_">
						<use xlink:href="#SVGID_00000067936167680297691620000002971810598701335702_"  style="overflow:visible;"/>
					</clipPath>
					<g style="clip-path:url(#SVGID_00000098935547641342734870000004676127481491371686_);">
						<defs>
							<rect id="SVGID_00000072960033800455474750000000057821222367088039_" x="20.96" y="47" width="31.85" height="17.96"/>
						</defs>
						<clipPath id="SVGID_00000161614917029172079250000016603215477054251967_">
							<use xlink:href="#SVGID_00000072960033800455474750000000057821222367088039_"  style="overflow:visible;"/>
						</clipPath>
						<path style="clip-path:url(#SVGID_00000161614917029172079250000016603215477054251967_);fill:#55C95A;" d="M44.59,47
							c1.87,1.32,7.13,10.63,8.22,14.57c-3.46,1.12-6.97,2.03-10.65,2.73c-1.28,0.24-2.57,0.47-3.88,0.66
							c0.47-1.54,0.83-2.75,1.28-4.21c-2.47-0.81-4.9-2.06-7.41-2.29c-2.19-0.21-4.8-0.33-6.56,1.86c-0.34-0.59-0.68-1.18-1-1.75
							c-1.24-2.16-2.42-4.22-3.63-6.35c2.46-1.84,5-3.67,8.21-4.17c0.14-0.03,0.29,0.01,0.41-0.04c4.3-2.03,7.98-0.15,11.66,1.82
							c0.54,0.28,1.14,0.45,1.79,0.71C43.57,49.32,44.07,48.17,44.59,47"/>
					</g>
				</g>
				<g style="clip-path:url(#SVGID_00000005984109152523791830000017320355951439619005_);">
					<defs>
						<rect id="SVGID_00000003071783677028077710000005421189412762857386_" x="26.35" y="66.77" width="26.65" height="24.196"/>
					</defs>
					<clipPath id="SVGID_00000041294935990114609150000001890831752111677856_">
						<use xlink:href="#SVGID_00000003071783677028077710000005421189412762857386_"  style="overflow:visible;"/>
					</clipPath>
					<g style="clip-path:url(#SVGID_00000041294935990114609150000001890831752111677856_);">
						<defs>
							<rect id="SVGID_00000160152091476037246190000008889110747932067458_" x="26.35" y="66.77" width="26.65" height="24.196"/>
						</defs>
						<clipPath id="SVGID_00000151536873311494402920000013629726607809415851_">
							<use xlink:href="#SVGID_00000160152091476037246190000008889110747932067458_"  style="overflow:visible;"/>
						</clipPath>
						<path style="clip-path:url(#SVGID_00000151536873311494402920000013629726607809415851_);fill:#F26C2B;" d="M53,67.74v4.85
							c-0.11,0.36-0.21,0.719-0.33,1.08c-0.69,2.179-1.23,4.429-2.13,6.52c-0.47,1.1-1.4,2.13-2.37,2.869
							c-1.95,1.511-4.06,2.79-6.22,4.221c0.61,1.04,1.27,2.17,1.95,3.33c-2.99,1.02-16.1-0.33-17.55-1.81
							c1.13-2.93,2.09-5.93,3.29-8.951c0.73-1.799,1.54-3.619,2.51-5.409c1.06,1.31,1.94,2.39,2.84,3.5
							c2.04-1.46,4.03-2.89,6.1-4.37c0.24-2.261,2.88-3.88,1.57-6.801c0.9,0.08,1.51,0.141,2.13,0.191
							c2.48,0.19,4.96,0.37,7.45,0.559C52.49,67.54,52.75,67.66,53,67.74"/>
					</g>
				</g>
				<g style="clip-path:url(#SVGID_00000005984109152523791830000017320355951439619005_);">
					<defs>
						<rect id="SVGID_00000010303581275083807930000018354406516834457533_" x="6" y="53.47" width="20.89" height="33.69"/>
					</defs>
					<clipPath id="SVGID_00000182489667274742162080000006051177615157272499_">
						<use xlink:href="#SVGID_00000010303581275083807930000018354406516834457533_"  style="overflow:visible;"/>
					</clipPath>
					<g style="clip-path:url(#SVGID_00000182489667274742162080000006051177615157272499_);">
						<defs>
							<rect id="SVGID_00000066475213423288071010000007822383340525081500_" x="6" y="53.47" width="20.89" height="33.69"/>
						</defs>
						<clipPath id="SVGID_00000149346437782058632970000013104315510257206171_">
							<use xlink:href="#SVGID_00000066475213423288071010000007822383340525081500_"  style="overflow:visible;"/>
						</clipPath>
						<path style="clip-path:url(#SVGID_00000149346437782058632970000013104315510257206171_);fill:#E33A3A;" d="M22.12,73.59
							c0.76,2.09,2.04,4.26,4.77,5.37c-2.01,2.83-3.87,5.46-5.82,8.2c-2.94-1.66-5.82-3.2-7.7-6.08c-0.36-0.55-0.88-1-1.35-1.46
							c-1.36-1.32-1.66-3.11-1.93-4.81c-0.27-1.77-0.11-3.61-0.14-5.43c-0.02-0.51,0-1.04,0-1.58c-1.44-0.08-2.7-0.149-3.95-0.2
							c0.23-2.64,8.18-13.32,10.55-14.13c1.78,2.16,3.66,4.28,5.42,6.59c1.37,1.79,2.66,3.7,3.81,5.83c-1.7,0.24-2.94,0.4-4.38,0.61
							C21.59,68.89,21.33,71.441,22.12,73.59"/>
					</g>
				</g>
			</g>
			<polygon style="clip-path:url(#SVGID_00000007397084471278065450000008633203184475294627_);fill:#523742;" points="
				83.168,74.124 80.952,75.204 78.882,76.584 77.457,78.644 76.451,81.864 76.449,84.235 76.928,86.548 78.376,88.407 
				79.621,89.703 81.061,90.763 81.358,91.135 82.162,91.564 82.625,91.637 85.077,92.345 87.259,92.565 89.335,91.903 
				91.284,90.956 92.763,89.351 93.802,88.113 94.741,86.35 95.17,84.487 95.174,82.023 94.641,79.666 93.194,77.708 91.198,75.439 
				89.66,74.62 87.723,74.254 85.633,73.879 			"/>
			<g style="clip-path:url(#SVGID_00000007397084471278065450000008633203184475294627_);">
				<defs>
					
						<rect id="SVGID_00000122685923751991473360000016007771627380087743_" x="69.545" y="44.81" transform="matrix(0.7071 -0.7071 0.7071 0.7071 -19.1417 72.3376)" width="16.4" height="28.929"/>
				</defs>
				<clipPath id="SVGID_00000026862479129757071280000007459373098997513119_">
					<use xlink:href="#SVGID_00000122685923751991473360000016007771627380087743_"  style="overflow:visible;"/>
				</clipPath>
				<path style="clip-path:url(#SVGID_00000026862479129757071280000007459373098997513119_);fill:#9F9EB1;" d="M68.089,54.994
					c0.755-2.766,5.655-8.485,5.655-8.485c2.122,0.707,1.896,1.119,4.244,2.828c0.096,0.071,1.319,1.354,1.414,1.414
					c0.541,0.336,3.871,3.891,4.95,7.447c0.159,0.521,0.431,1.006,0.68,1.571c1.105-0.425,2.149-0.828,3.213-1.238
					c0.348,2.008-2.202,11.176-3.998,14.343c-3.881-1.983-7.577-4.253-11.285-7.009c1.263-0.678,2.256-1.209,3.456-1.852
					c-1.047-2.064-1.942-3.753-3.38-5.484C71.782,57.019,70.21,55.701,68.089,54.994"/>
			</g>
		</g>
	</g>
</g>
<g id="Layer_2">
	<g id="Layer_3">
	</g>
</g>
</svg>
