<?xml version="1.0" encoding="iso-8859-1"?>
<!-- Generator: Adobe Illustrator 26.0.1, SVG Export Plug-In . SVG Version: 6.00 Build 0)  -->
<svg version="1.1" xmlns="http://www.w3.org/2000/svg" xmlns:xlink="http://www.w3.org/1999/xlink" x="0px" y="0px"
	 viewBox="0 0 100 100" style="enable-background:new 0 0 100 100;" xml:space="preserve">
<g id="Layer_1">
	<g id="L1_00000183944691580186497120000012658415738921983878_">
		<g>
			<defs>
				<rect id="SVGID_1_" x="34" y="33" width="18.96" height="18.48"/>
			</defs>
			<clipPath id="SVGID_00000121992310570052269920000009609619629574223500_">
				<use xlink:href="#SVGID_1_"  style="overflow:visible;"/>
			</clipPath>
			<g style="clip-path:url(#SVGID_00000121992310570052269920000009609619629574223500_);">
				<defs>
					<rect id="SVGID_00000151507207473743489220000015539152478191980678_" x="34" y="33" width="18.96" height="18.48"/>
				</defs>
				<clipPath id="SVGID_00000170263068617377203000000011631172674615312052_">
					<use xlink:href="#SVGID_00000151507207473743489220000015539152478191980678_"  style="overflow:visible;"/>
				</clipPath>
				<g style="clip-path:url(#SVGID_00000170263068617377203000000011631172674615312052_);">
					<defs>
						
							<rect id="SVGID_00000009571941803829767740000013940240956439164304_" x="34.082" y="32.948" width="19.053" height="18.706"/>
					</defs>
					<clipPath id="SVGID_00000158005691047879165510000012379039270082702755_">
						<use xlink:href="#SVGID_00000009571941803829767740000013940240956439164304_"  style="overflow:visible;"/>
					</clipPath>
					<g style="clip-path:url(#SVGID_00000158005691047879165510000012379039270082702755_);">
						<defs>
							
								<rect id="SVGID_00000004514795926630682750000015424637253238534591_" x="34.082" y="32.948" width="19.053" height="18.706"/>
						</defs>
						<clipPath id="SVGID_00000154414826953368814970000011967164519803894423_">
							<use xlink:href="#SVGID_00000004514795926630682750000015424637253238534591_"  style="overflow:visible;"/>
						</clipPath>
						<polygon style="clip-path:url(#SVGID_00000154414826953368814970000011967164519803894423_);fill:#9F9EB1;" points="
							53.135,41.613 53.033,42.612 52.624,44.541 52.075,46.653 50.799,48.406 49.278,49.966 47.25,50.798 44.753,51.326 
							43.801,51.654 42.961,51.291 41.192,51.033 39.483,50.474 37.331,49.515 35.821,47.698 34.708,45.604 34.081,42.29 
							34.37,39.802 35.548,37.61 36.996,35.616 39.056,34.241 41.076,33.587 43.102,32.956 44.561,32.948 47.529,34.063 
							49.727,35.112 51.306,36.941 52.461,39.116 						"/>
					</g>
				</g>
			</g>
		</g>
	</g>
	<g id="T1_x5F_2_00000173849324960168638190000002981234462994662589_">
		<g>
			<defs>
				
					<rect id="SVGID_00000029746660265394921630000000351353035943870619_" x="20.38" y="8.12" transform="matrix(0.4264 -0.9045 0.9045 0.4264 -4.0354 38.8063)" width="16.4" height="28.929"/>
			</defs>
			<clipPath id="SVGID_00000007417138179409585440000010969854124742808727_">
				<use xlink:href="#SVGID_00000029746660265394921630000000351353035943870619_"  style="overflow:visible;"/>
			</clipPath>
			<g style="clip-path:url(#SVGID_00000007417138179409585440000010969854124742808727_);">
				<defs>
					
						<rect id="SVGID_00000134969154029680645600000018051243035259497105_" x="20.38" y="8.12" transform="matrix(0.4264 -0.9045 0.9045 0.4264 -4.0355 38.8063)" width="16.4" height="28.929"/>
				</defs>
				<clipPath id="SVGID_00000140004361293541793850000009381991669430114474_">
					<use xlink:href="#SVGID_00000134969154029680645600000018051243035259497105_"  style="overflow:visible;"/>
				</clipPath>
				<path style="clip-path:url(#SVGID_00000140004361293541793850000009381991669430114474_);fill:#F26C2B;" d="M18.045,21.822
					c-0.224-2.858,2.455-9.898,2.455-9.898c2.235-0.052,2.161,0.413,4.949,1.227c0.115,0.033,1.7,0.829,1.809,0.853
					c0.623,0.133,4.959,2.354,7.176,5.335c0.325,0.436,0.746,0.8,1.171,1.249c0.896-0.774,1.742-1.506,2.605-2.252
					c1.006,1.773,1.705,11.263,1.087,14.85c-4.324-0.553-8.569-1.44-12.991-2.781c0.96-1.064,1.715-1.9,2.627-2.912
					c-1.682-1.588-3.096-2.876-5.035-4.017C22.206,22.479,20.281,21.77,18.045,21.822"/>
			</g>
		</g>
	</g>
	<g id="T1_x5F_2_00000039829519483951949580000013056584958400846260_">
		<g>
			<defs>
				
					<rect id="SVGID_00000070830218712978564450000007897652237468460983_" x="42.822" y="11.755" transform="matrix(0.2284 -0.9736 0.9736 0.2284 24.7758 71.1703)" width="28.929" height="16.4"/>
			</defs>
			<clipPath id="SVGID_00000000222590279333804700000001463842861001028496_">
				<use xlink:href="#SVGID_00000070830218712978564450000007897652237468460983_"  style="overflow:visible;"/>
			</clipPath>
			<g style="clip-path:url(#SVGID_00000000222590279333804700000001463842861001028496_);">
				<defs>
					
						<rect id="SVGID_00000005251837568746982890000008841292944945092497_" x="42.822" y="11.755" transform="matrix(0.2284 -0.9736 0.9736 0.2284 24.7758 71.1703)" width="28.929" height="16.4"/>
				</defs>
				<clipPath id="SVGID_00000170271107444048223310000000078444601280127364_">
					<use xlink:href="#SVGID_00000005251837568746982890000008841292944945092497_"  style="overflow:visible;"/>
				</clipPath>
				<path style="clip-path:url(#SVGID_00000170271107444048223310000000078444601280127364_);fill:#E1D153;" d="M55.836,9.493
					c2.749-0.815,10.192,0.337,10.192,0.337c0.517,2.176,0.047,2.2-0.168,5.096c-0.008,0.119-0.456,1.835-0.457,1.947
					c0,0.637-1.268,5.341-3.721,8.131c-0.359,0.409-0.627,0.896-0.977,1.406c0.944,0.714,1.836,1.39,2.746,2.078
					c-1.524,1.354-10.66,4.017-14.297,4.16c-0.361-4.344-0.378-8.681,0.011-13.286c1.241,0.717,2.216,1.281,3.396,1.962
					c1.202-1.977,2.167-3.628,2.879-5.762C56.061,13.699,56.353,11.668,55.836,9.493"/>
			</g>
		</g>
	</g>
	<g id="T1_x5F_2_00000024695917130510716430000007514712849793624510_">
		<g>
			<defs>
				
					<rect id="SVGID_00000057834358195482308200000012088880702216394116_" x="55.144" y="32.457" transform="matrix(0.8455 -0.534 0.534 0.8455 -10.9553 43.4553)" width="28.929" height="16.4"/>
			</defs>
			<clipPath id="SVGID_00000147197827135330297950000008498967622854091704_">
				<use xlink:href="#SVGID_00000057834358195482308200000012088880702216394116_"  style="overflow:visible;"/>
			</clipPath>
			<g style="clip-path:url(#SVGID_00000147197827135330297950000008498967622854091704_);">
				<defs>
					
						<rect id="SVGID_00000119806917473333442750000017008969678211709330_" x="55.144" y="32.457" transform="matrix(0.8455 -0.534 0.534 0.8455 -10.9553 43.4553)" width="28.929" height="16.4"/>
				</defs>
				<clipPath id="SVGID_00000180354440111191610980000012115892849772363152_">
					<use xlink:href="#SVGID_00000119806917473333442750000017008969678211709330_"  style="overflow:visible;"/>
				</clipPath>
				<path style="clip-path:url(#SVGID_00000180354440111191610980000012115892849772363152_);fill:#55C95A;" d="M75.91,32.18
					c2.531,1.346,7.031,7.387,7.031,7.387c-1.157,1.914-1.509,1.601-3.693,3.516c-0.09,0.079-1.612,0.989-1.691,1.068
					c-0.447,0.454-4.649,2.919-8.354,3.188c-0.543,0.04-1.076,0.199-1.682,0.318c0.172,1.171,0.334,2.278,0.501,3.407
					c-2.036-0.104-10.417-4.611-13.11-7.058c2.788-3.351,5.817-6.455,9.323-9.465c0.382,1.382,0.682,2.467,1.045,3.78
					c2.243-0.566,4.089-1.067,6.093-2.09C73.121,35.338,74.753,34.094,75.91,32.18"/>
			</g>
		</g>
	</g>
	<g id="T1_x5F_2_00000183938222274945521590000002079176419934323855_">
		<g>
			<defs>
				
					<rect id="SVGID_00000030481667227313381790000003902410488726353795_" x="50.304" y="48.658" transform="matrix(0.5019 -0.8649 0.8649 0.5019 -25.4561 82.0412)" width="16.4" height="28.929"/>
			</defs>
			<clipPath id="SVGID_00000060004788059686580150000018168175545707496364_">
				<use xlink:href="#SVGID_00000030481667227313381790000003902410488726353795_"  style="overflow:visible;"/>
			</clipPath>
			<g style="clip-path:url(#SVGID_00000060004788059686580150000018168175545707496364_);">
				<defs>
					
						<rect id="SVGID_00000010278161450387542950000001779395591019270312_" x="50.304" y="48.658" transform="matrix(0.5019 -0.8649 0.8649 0.5019 -25.456 82.0412)" width="16.4" height="28.929"/>
				</defs>
				<clipPath id="SVGID_00000183214877317305042000000003864375201201710217_">
					<use xlink:href="#SVGID_00000010278161450387542950000001779395591019270312_"  style="overflow:visible;"/>
				</clipPath>
				<path style="clip-path:url(#SVGID_00000183214877317305042000000003864375201201710217_);fill:#AD70D6;" d="M68.935,64.781
					c-0.021,2.867-3.289,9.653-3.289,9.653c-2.232-0.139-2.118-0.596-4.826-1.645c-0.112-0.043-1.623-0.971-1.73-1.004
					c-0.609-0.186-4.74-2.768-6.695-5.927c-0.287-0.462-0.675-0.861-1.061-1.344c-0.958,0.695-1.864,1.352-2.787,2.022
					c-0.851-1.852-0.739-11.368,0.183-14.889c4.261,0.919,8.415,2.165,12.707,3.878c-1.048,0.978-1.871,1.747-2.866,2.677
					c1.541,1.726,2.84,3.129,4.674,4.432C64.845,63.771,66.704,64.642,68.935,64.781"/>
			</g>
		</g>
	</g>
	<g id="T1_x5F_2_00000065786973702935426360000008070912151096546192_">
		<g>
			<defs>
				
					<rect id="SVGID_00000038383726943759891750000012232182530454546333_" x="4.006" y="37.102" transform="matrix(0.7942 -0.6076 0.6076 0.7942 -23.7258 20.5454)" width="28.929" height="16.4"/>
			</defs>
			<clipPath id="SVGID_00000176730736295973802830000013751815467606121917_">
				<use xlink:href="#SVGID_00000038383726943759891750000012232182530454546333_"  style="overflow:visible;"/>
			</clipPath>
			<g style="clip-path:url(#SVGID_00000176730736295973802830000013751815467606121917_);">
				<defs>
					
						<rect id="SVGID_00000041256318484298574210000008096947396051592126_" x="4.006" y="37.102" transform="matrix(0.7942 -0.6076 0.6076 0.7942 -23.7258 20.5454)" width="28.929" height="16.4"/>
				</defs>
				<clipPath id="SVGID_00000135686082858895236670000018437335910605465763_">
					<use xlink:href="#SVGID_00000041256318484298574210000008096947396051592126_"  style="overflow:visible;"/>
				</clipPath>
				<path style="clip-path:url(#SVGID_00000135686082858895236670000018437335910605465763_);fill:#E33A3A;" d="M12.954,54.309
					c-2.642-1.114-7.665-6.727-7.665-6.727c0.981-2.009,1.36-1.73,3.363-3.832c0.082-0.087,1.517-1.129,1.588-1.215
					c0.404-0.492,4.369-3.323,8.035-3.924c0.537-0.088,1.054-0.295,1.647-0.467c-0.276-1.151-0.537-2.239-0.804-3.348
					c2.037-0.079,10.788,3.659,13.69,5.855c-2.477,3.587-5.215,6.95-8.437,10.263c-0.504-1.342-0.9-2.396-1.38-3.671
					c-2.183,0.765-3.977,1.43-5.881,2.627C15.449,50.915,13.935,52.3,12.954,54.309"/>
			</g>
		</g>
	</g>
	<g id="T1_x5F_2_00000176747212796057099440000007371701413415715733_">
		<g>
			<defs>
				
					<rect id="SVGID_00000182486199095277728490000010413849138958081697_" x="15.987" y="56.409" transform="matrix(0.1633 -0.9866 0.9866 0.1633 -38.2624 84.1038)" width="28.929" height="16.4"/>
			</defs>
			<clipPath id="SVGID_00000014591688922457326220000013631767726070312873_">
				<use xlink:href="#SVGID_00000182486199095277728490000010413849138958081697_"  style="overflow:visible;"/>
			</clipPath>
			<g style="clip-path:url(#SVGID_00000014591688922457326220000013631767726070312873_);">
				<defs>
					
						<rect id="SVGID_00000080204589072244084200000017924798860592842907_" x="15.987" y="56.409" transform="matrix(0.1633 -0.9866 0.9866 0.1633 -38.2624 84.1038)" width="28.929" height="16.4"/>
				</defs>
				<clipPath id="SVGID_00000135683685433184462120000017228661006402699922_">
					<use xlink:href="#SVGID_00000080204589072244084200000017924798860592842907_"  style="overflow:visible;"/>
				</clipPath>
				<path style="clip-path:url(#SVGID_00000135683685433184462120000017228661006402699922_);fill:#5699DE;" d="M32.594,74.952
					c-2.689,0.995-10.192,0.341-10.192,0.341c-0.66-2.136-0.193-2.192-0.17-5.096c0.001-0.12,0.333-1.862,0.327-1.973
					c-0.042-0.635,0.911-5.413,3.173-8.36c0.331-0.432,0.566-0.936,0.881-1.468c-0.989-0.65-1.924-1.265-2.878-1.891
					c1.431-1.452,10.37-4.715,13.989-5.099c0.649,4.311,0.954,8.637,0.871,13.257c-1.286-0.633-2.296-1.131-3.518-1.733
					c-1.068,2.052-1.921,3.764-2.49,5.94C32.09,70.77,31.933,72.816,32.594,74.952"/>
			</g>
		</g>
	</g>
	<g id="L1_00000125565504152316137340000001645805164104025014_">
		<g>
			<defs>
				<rect id="SVGID_00000084490243380313057400000007634399865405079189_" x="75" y="74" width="18.96" height="18.48"/>
			</defs>
			<clipPath id="SVGID_00000112626103892572725180000006251489816565835688_">
				<use xlink:href="#SVGID_00000084490243380313057400000007634399865405079189_"  style="overflow:visible;"/>
			</clipPath>
			<g style="clip-path:url(#SVGID_00000112626103892572725180000006251489816565835688_);">
				<defs>
					<rect id="SVGID_00000151519369972130794650000004283398934448479907_" x="75" y="74" width="18.96" height="18.48"/>
				</defs>
				<clipPath id="SVGID_00000145031322961826955180000012918320419503298734_">
					<use xlink:href="#SVGID_00000151519369972130794650000004283398934448479907_"  style="overflow:visible;"/>
				</clipPath>
				<g style="clip-path:url(#SVGID_00000145031322961826955180000012918320419503298734_);">
					<defs>
						
							<rect id="SVGID_00000168801088467186548160000011655293217388300698_" x="75.082" y="73.948" width="19.053" height="18.706"/>
					</defs>
					<clipPath id="SVGID_00000168831497572941310080000011963675196886792893_">
						<use xlink:href="#SVGID_00000168801088467186548160000011655293217388300698_"  style="overflow:visible;"/>
					</clipPath>
					<g style="clip-path:url(#SVGID_00000168831497572941310080000011963675196886792893_);">
						<defs>
							
								<rect id="SVGID_00000029739701317943051100000009812587819701258115_" x="75.082" y="73.948" width="19.053" height="18.706"/>
						</defs>
						<clipPath id="SVGID_00000036233813386745866050000012741089264669084570_">
							<use xlink:href="#SVGID_00000029739701317943051100000009812587819701258115_"  style="overflow:visible;"/>
						</clipPath>
						<polygon style="clip-path:url(#SVGID_00000036233813386745866050000012741089264669084570_);fill:#523742;" points="
							94.135,82.613 94.033,83.612 93.624,85.541 93.075,87.653 91.799,89.406 90.278,90.966 88.25,91.798 85.753,92.326 
							84.801,92.654 83.961,92.291 82.192,92.033 80.483,91.474 78.331,90.515 76.821,88.698 75.708,86.604 75.081,83.29 
							75.37,80.802 76.548,78.61 77.996,76.616 80.056,75.241 82.076,74.587 84.102,73.956 85.561,73.948 88.529,75.063 
							90.727,76.112 92.306,77.941 93.461,80.116 						"/>
					</g>
				</g>
			</g>
		</g>
	</g>
</g>
<g id="Layer_2">
	<g id="Layer_3">
	</g>
</g>
</svg>
