<?xml version="1.0" encoding="iso-8859-1"?>
<!-- Generator: Adobe Illustrator 26.0.1, SVG Export Plug-In . SVG Version: 6.00 Build 0)  -->
<svg version="1.1" xmlns="http://www.w3.org/2000/svg" xmlns:xlink="http://www.w3.org/1999/xlink" x="0px" y="0px"
	 viewBox="0 0 100 100" style="enable-background:new 0 0 100 100;" xml:space="preserve">
<g id="Layer_1">
	<g id="G_x28__T1_T1_T1_L3__x29__T1_L1_00000120524220713851158980000004622841697655477426_">
		<g>
			<defs>
				<rect id="SVGID_1_" x="-2" y="3" width="102.767" height="96.721"/>
			</defs>
			<clipPath id="SVGID_00000034051592378205209110000016448149841271722909_">
				<use xlink:href="#SVGID_1_"  style="overflow:visible;"/>
			</clipPath>
			<g style="clip-path:url(#SVGID_00000034051592378205209110000016448149841271722909_);">
				<defs>
					<rect id="SVGID_00000108285825930104169970000012346038063424570284_" x="-2" y="3" width="102.767" height="96.721"/>
				</defs>
				<clipPath id="SVGID_00000077295514847401589740000011903913080846400146_">
					<use xlink:href="#SVGID_00000108285825930104169970000012346038063424570284_"  style="overflow:visible;"/>
				</clipPath>
				<g style="clip-path:url(#SVGID_00000077295514847401589740000011903913080846400146_);">
					<defs>
						<rect id="SVGID_00000001640311767350289870000017506099000725404582_" x="-2" y="3" width="102.767" height="96.721"/>
					</defs>
					<clipPath id="SVGID_00000121980057259602997600000004740360022876529835_">
						<use xlink:href="#SVGID_00000001640311767350289870000017506099000725404582_"  style="overflow:visible;"/>
					</clipPath>
					<g style="opacity:0.99;clip-path:url(#SVGID_00000121980057259602997600000004740360022876529835_);">
						<g>
							<defs>
								
									<rect id="SVGID_00000034793943450682209810000017195410660829276337_" x="18.408" y="14.642" width="47.766" height="52.098"/>
							</defs>
							<clipPath id="SVGID_00000178166409207752372690000016567805427901848454_">
								<use xlink:href="#SVGID_00000034793943450682209810000017195410660829276337_"  style="overflow:visible;"/>
							</clipPath>
							<g style="clip-path:url(#SVGID_00000178166409207752372690000016567805427901848454_);">
								<defs>
									<polygon id="SVGID_00000012444164300844886700000017559958449257566346_" points="18.412,17.375 20.774,66.739 
										66.17,64.011 63.809,14.647 									"/>
								</defs>
								<clipPath id="SVGID_00000003067519469610097500000004518838114371055232_">
									<use xlink:href="#SVGID_00000012444164300844886700000017559958449257566346_"  style="overflow:visible;"/>
								</clipPath>
								<g style="clip-path:url(#SVGID_00000003067519469610097500000004518838114371055232_);">
									<defs>
										
											<rect id="SVGID_00000031189247477850719230000017049981840126164637_" x="23.097" y="15.928" width="34.56" height="22.64"/>
									</defs>
									<clipPath id="SVGID_00000048497487509219867930000000073556142327145867_">
										<use xlink:href="#SVGID_00000031189247477850719230000017049981840126164637_"  style="overflow:visible;"/>
									</clipPath>
									<g style="clip-path:url(#SVGID_00000048497487509219867930000000073556142327145867_);">
										<defs>
											
												<rect id="SVGID_00000032643145531367959270000005810835265872885647_" x="23.097" y="15.928" width="34.56" height="22.64"/>
										</defs>
										<clipPath id="SVGID_00000085951508884937734430000014734008745273529236_">
											<use xlink:href="#SVGID_00000032643145531367959270000005810835265872885647_"  style="overflow:visible;"/>
										</clipPath>
										<path style="clip-path:url(#SVGID_00000085951508884937734430000014734008745273529236_);fill:#5699DE;" d="
											M57.656,26.128c-2.13,2-4.229,4.11-6.53,6.1c-1.78,1.55-3.679,3.03-5.83,4.36c-0.329-1.76-0.57-3.06-0.849-4.56
											c-2.46,0.35-5.101,0.24-7.291,1.19c-2.12,0.94-4.29,2.42-5.3,5.35c-3.03-1.93-5.83-3.73-8.76-5.6
											c1.57-3.19,3.01-6.32,5.88-8.47c0.56-0.41,0.991-0.98,1.44-1.51c1.31-1.5,3.13-1.93,4.88-2.32
											c1.81-0.4,3.72-0.34,5.6-0.49c0.531-0.05,1.08-0.07,1.63-0.1c0.01-1.52,0.02-2.84,0.01-4.15
											C45.276,15.998,56.707,23.688,57.656,26.128"/>
									</g>
								</g>
								<g style="clip-path:url(#SVGID_00000003067519469610097500000004518838114371055232_);">
									<defs>
										
											<rect id="SVGID_00000114768772145553898930000007331039678608401854_" x="20.074" y="38.618" width="25.162" height="26.98"/>
									</defs>
									<clipPath id="SVGID_00000173118456795170411990000013153051595489016238_">
										<use xlink:href="#SVGID_00000114768772145553898930000007331039678608401854_"  style="overflow:visible;"/>
									</clipPath>
									<g style="clip-path:url(#SVGID_00000173118456795170411990000013153051595489016238_);">
										<defs>
											
												<rect id="SVGID_00000120530315625431342440000018008272670949475769_" x="20.074" y="38.618" width="25.162" height="26.98"/>
										</defs>
										<clipPath id="SVGID_00000121244774757914214340000004288444274301330109_">
											<use xlink:href="#SVGID_00000120530315625431342440000018008272670949475769_"  style="overflow:visible;"/>
										</clipPath>
										<path style="clip-path:url(#SVGID_00000121244774757914214340000004288444274301330109_);fill:#E1D153;" d="
											M45.237,54.379c-0.03,0.939-0.07,1.6-0.09,2.25c-0.07,2.619-0.13,5.239-0.2,7.85c-0.01,0.28-0.13,0.559-0.2,0.82
											l-5.01,0.3c-0.37-0.09-0.75-0.18-1.13-0.271c-2.28-0.599-4.63-1.029-6.83-1.84c-1.16-0.429-2.27-1.339-3.09-2.309
											c-1.65-1.96-3.08-4.101-4.67-6.271c-1.04,0.7-2.18,1.46-3.34,2.25c-1.2-3.08-0.47-16.929,0.99-18.539
											c3.08,0.989,6.23,1.82,9.41,2.9c1.89,0.65,3.81,1.39,5.71,2.29c-1.3,1.199-2.37,2.19-3.47,3.199
											c1.61,2.06,3.18,4.06,4.82,6.141C40.477,53.269,42.287,55.939,45.237,54.379"/>
									</g>
								</g>
								<g style="clip-path:url(#SVGID_00000003067519469610097500000004518838114371055232_);">
									<defs>
										
											<rect id="SVGID_00000090996840729963822490000009240157854908253881_" x="46.887" y="30.678" width="18.86" height="34.04"/>
									</defs>
									<clipPath id="SVGID_00000127738225346801201970000016564805394082818750_">
										<use xlink:href="#SVGID_00000090996840729963822490000009240157854908253881_"  style="overflow:visible;"/>
									</clipPath>
									<g style="clip-path:url(#SVGID_00000127738225346801201970000016564805394082818750_);">
										<defs>
											
												<rect id="SVGID_00000177452812592195024310000014719524162937253562_" x="46.887" y="30.678" width="18.86" height="34.04"/>
										</defs>
										<clipPath id="SVGID_00000111903544896424417940000002218237476817860992_">
											<use xlink:href="#SVGID_00000177452812592195024310000014719524162937253562_"  style="overflow:visible;"/>
										</clipPath>
										<path style="clip-path:url(#SVGID_00000111903544896424417940000002218237476817860992_);fill:#AD70D6;" d="
											M63.946,39.469c2.32,4.39,0.57,8.38-1.29,12.37c-0.26,0.58-0.409,1.22-0.64,1.92c1.29,0.489,2.5,0.95,3.731,1.42
											c-1.261,2.05-10.611,8.149-14.631,9.54c-1.33-3.57-2.45-7.2-3.35-11.02c-0.32-1.33-0.62-2.67-0.88-4.04
											c1.61,0.4,2.88,0.7,4.41,1.09c0.711-2.65,1.88-5.27,2.001-7.93c0.099-2.31,0.089-5.06-2.261-6.77
											c0.6-0.39,1.19-0.79,1.761-1.16c2.17-1.43,4.239-2.8,6.37-4.21c2.029,2.47,4.04,5.02,4.729,8.37
											C63.926,39.189,63.896,39.349,63.946,39.469"/>
									</g>
								</g>
							</g>
						</g>
					</g>
				</g>
				<g style="clip-path:url(#SVGID_00000077295514847401589740000011903913080846400146_);">
					<defs>
						<polygon id="SVGID_00000173854672686592314870000004631264757724868244_" points="63.154,38.848 76.044,52.974 
							100.767,29.573 87.876,15.447 						"/>
					</defs>
					<clipPath id="SVGID_00000014602905101380345080000015766487031449132946_">
						<use xlink:href="#SVGID_00000173854672686592314870000004631264757724868244_"  style="overflow:visible;"/>
					</clipPath>
					<g style="clip-path:url(#SVGID_00000014602905101380345080000015766487031449132946_);">
						<defs>
							<rect id="SVGID_00000035505438724004751430000012934155849508703364_" x="65.867" y="22.968" width="31.1" height="23.694"/>
						</defs>
						<clipPath id="SVGID_00000139289992005007407680000008343904657982811783_">
							<use xlink:href="#SVGID_00000035505438724004751430000012934155849508703364_"  style="overflow:visible;"/>
						</clipPath>
						<g style="clip-path:url(#SVGID_00000139289992005007407680000008343904657982811783_);">
							<defs>
								
									<rect id="SVGID_00000137108361009021338370000016258756211585418676_" x="65.867" y="22.968" width="31.1" height="23.694"/>
							</defs>
							<clipPath id="SVGID_00000103233589043061677140000000896659155728336560_">
								<use xlink:href="#SVGID_00000137108361009021338370000016258756211585418676_"  style="overflow:visible;"/>
							</clipPath>
							<path style="clip-path:url(#SVGID_00000103233589043061677140000000896659155728336560_);fill:#F26C2B;" d="M96.967,29.958
								c-0.931,2.48-1.391,2.2-3.49,4.91c-0.09,0.11-1.64,1.51-1.71,1.62c-0.42,0.62-4.7,4.42-8.88,5.57
								c-0.61,0.16-1.191,0.47-1.86,0.74c0.45,1.32,0.86,2.57,1.29,3.84c-2.35,0.34-12.86-3.02-16.451-5.25
								c2.491-4.51,5.301-8.79,8.681-13.07c0.72,1.52,1.29,2.71,1.98,4.15c2.45-1.16,4.45-2.15,6.53-3.79
								c1.809-1.43,3.41-3.23,4.34-5.71C90.567,23.958,96.967,29.958,96.967,29.958"/>
						</g>
					</g>
				</g>
				<g style="clip-path:url(#SVGID_00000077295514847401589740000011903913080846400146_);">
					<defs>
						<polygon id="SVGID_00000137842174666492884080000006385555460141665981_" points="-2,22.341 31.5,24.474 32.886,5.133 
							-0.615,3.001 						"/>
					</defs>
					<clipPath id="SVGID_00000072972574968089088910000016526506764207315860_">
						<use xlink:href="#SVGID_00000137842174666492884080000006385555460141665981_"  style="overflow:visible;"/>
					</clipPath>
					<g style="clip-path:url(#SVGID_00000072972574968089088910000016526506764207315860_);">
						<defs>
							<rect id="SVGID_00000105387147829595207970000001942006651866845873_" x="2.237" y="4.738" width="29.24" height="18.58"/>
						</defs>
						<clipPath id="SVGID_00000152973479029291026790000007525887781617457289_">
							<use xlink:href="#SVGID_00000105387147829595207970000001942006651866845873_"  style="overflow:visible;"/>
						</clipPath>
						<g style="clip-path:url(#SVGID_00000152973479029291026790000007525887781617457289_);">
							<defs>
								<rect id="SVGID_00000023966598918934256470000006313637196540965283_" x="2.237" y="4.738" width="29.24" height="18.58"/>
							</defs>
							<clipPath id="SVGID_00000061443319149293650240000014941742048324254633_">
								<use xlink:href="#SVGID_00000023966598918934256470000006313637196540965283_"  style="overflow:visible;"/>
							</clipPath>
							<path style="clip-path:url(#SVGID_00000061443319149293650240000014941742048324254633_);fill:#55C95A;" d="M24.107,4.868
								c1.83,1.51,6.55,11.63,7.37,15.83c-4.91,1.28-9.88,2.16-15.23,2.62c0.59-1.59,1.06-2.84,1.63-4.35
								c-2.49-1.01-4.56-1.8-7.13-2.21c-2.25-0.36-4.64-0.3-7.04,0.74c-1.43-3.05-1.47-11.95-1.47-11.95
								c2.4-1.03,2.52-0.48,5.88-0.81c0.13-0.01,2.18,0.17,2.31,0.15c0.73-0.12,6.36,0.42,10,2.73c0.54,0.34,1.15,0.55,1.79,0.86
								C22.866,7.239,23.476,6.069,24.107,4.868"/>
						</g>
					</g>
				</g>
				<g style="clip-path:url(#SVGID_00000077295514847401589740000011903913080846400146_);">
					<defs>
						<polygon id="SVGID_00000109721509776738791310000004179246249909821071_" points="11.557,97.479 30.57,98.335 32.402,64.185 
							13.387,63.33 						"/>
					</defs>
					<clipPath id="SVGID_00000096038860919485599290000009705206314746757300_">
						<use xlink:href="#SVGID_00000109721509776738791310000004179246249909821071_"  style="overflow:visible;"/>
					</clipPath>
					<g style="clip-path:url(#SVGID_00000096038860919485599290000009705206314746757300_);">
						<defs>
							<rect id="SVGID_00000168825364315277608640000009183498515776180909_" x="13.196" y="64.318" width="18.19" height="30.18"/>
						</defs>
						<clipPath id="SVGID_00000020385593962275538920000009412104513757169846_">
							<use xlink:href="#SVGID_00000168825364315277608640000009183498515776180909_"  style="overflow:visible;"/>
						</clipPath>
						<g style="clip-path:url(#SVGID_00000020385593962275538920000009412104513757169846_);">
							<defs>
								
									<rect id="SVGID_00000028283005949559354400000015038883549520160185_" x="13.196" y="64.318" width="18.19" height="30.18"/>
							</defs>
							<clipPath id="SVGID_00000127729643656767050830000009028236365680992947_">
								<use xlink:href="#SVGID_00000028283005949559354400000015038883549520160185_"  style="overflow:visible;"/>
							</clipPath>
							<path style="clip-path:url(#SVGID_00000127729643656767050830000009028236365680992947_);fill:#E33A3A;" d="M28.697,64.318
								c1.3,4.96,2.2,9.99,2.69,15.43c-1.57-0.57-2.8-1.01-4.28-1.539c-0.98,2.559-1.74,4.689-2.12,7.319
								c-0.34,2.3-0.26,4.72,0.78,7.141c-2.98,1.54-11.72,1.829-11.72,1.829c-1.04-2.409-0.5-2.539-0.85-5.95
								c-0.01-0.14,0.15-2.23,0.13-2.36c-0.13-0.74,0.36-6.479,2.6-10.26c0.33-0.549,0.54-1.17,0.83-1.839
								c-1.22-0.63-2.38-1.221-3.56-1.821C14.667,70.368,24.567,65.278,28.697,64.318"/>
						</g>
					</g>
				</g>
				<polygon style="clip-path:url(#SVGID_00000077295514847401589740000011903913080846400146_);fill:#523742;" points="
					81.73,76.978 79.842,77.566 77.823,78.22 75.762,79.594 74.314,81.588 73.136,83.78 72.848,86.261 72.848,86.273 73.474,89.582 
					74.588,91.677 76.097,93.493 78.25,94.452 79.959,95.011 81.727,95.27 82.167,95.459 83.071,95.459 83.519,95.305 
					86.016,94.776 88.045,93.944 89.565,92.385 90.842,90.631 91.39,88.52 91.726,86.934 91.726,84.943 91.227,83.094 
					90.073,80.919 88.494,79.089 86.296,78.041 83.464,76.978 				"/>
				<g style="clip-path:url(#SVGID_00000077295514847401589740000011903913080846400146_);">
					<defs>
						
							<rect id="SVGID_00000121253134521027539670000014495323970277049785_" x="42.549" y="72.96" transform="matrix(0.7465 -0.6653 0.6653 0.7465 -40.1913 59.1942)" width="30.098" height="18.779"/>
					</defs>
					<clipPath id="SVGID_00000159452781189182751870000009027897447215860881_">
						<use xlink:href="#SVGID_00000121253134521027539670000014495323970277049785_"  style="overflow:visible;"/>
					</clipPath>
					<path style="clip-path:url(#SVGID_00000159452781189182751870000009027897447215860881_);fill:#9F9EB1;" d="M64.171,72.62
						c0.966-0.915,0.053-3.007,2.027-3.24c2.72,3.457,5.413,6.87,8.278,10.506c-3.606,2.355-7.56,3.856-11.346,5.65
						c-0.391-0.107-0.718-0.204-1.115-0.306c0.187-1.412,0.39-2.852,0.589-4.329c-2.536-1.491-4.782-0.359-6.642,0.829
						c-3.03,1.937-2.111,4.922-1.34,7.396c0.565,0.783,0.959,1.315,1.477,2.033c-2.545,1.398-4.857,2.666-7.211,3.947
						c-0.181-0.173-0.387-0.284-0.435-0.442c-0.688-1.945-1.697-3.859-1.936-5.856c-0.591-5.006,0.683-9.53,4.466-13.129
						c2.427-2.297,5.197-3.774,8.611-3.641C61.092,72.096,62.575,72.408,64.171,72.62"/>
				</g>
			</g>
		</g>
	</g>
</g>
<g id="Layer_2">
	<g id="Layer_3">
	</g>
</g>
</svg>
