<?xml version="1.0" encoding="iso-8859-1"?>
<!-- Generator: Adobe Illustrator 26.0.1, SVG Export Plug-In . SVG Version: 6.00 Build 0)  -->
<svg version="1.1" xmlns="http://www.w3.org/2000/svg" xmlns:xlink="http://www.w3.org/1999/xlink" x="0px" y="0px"
	 viewBox="0 0 100 100" style="enable-background:new 0 0 100 100;" xml:space="preserve">
<g id="Layer_1">
	<g id="G_x28__T1_L1__x29_3_L2_00000000930091368973952030000006557720172889745590_">
		<g>
			<defs>
				<rect id="SVGID_1_" x="5" y="9" width="88.96" height="83.868"/>
			</defs>
			<clipPath id="SVGID_00000128462299075269527310000018218105278561784963_">
				<use xlink:href="#SVGID_1_"  style="overflow:visible;"/>
			</clipPath>
			<polygon style="clip-path:url(#SVGID_00000128462299075269527310000018218105278561784963_);fill:#5699DE;" points="38.959,29 
				37.076,29.587 35.057,30.24 32.997,31.615 31.548,33.61 30.37,35.801 30.081,38.29 30.709,41.604 31.82,43.698 33.331,45.514 
				35.483,46.474 37.192,47.032 38.962,47.291 39.4,47.48 40.306,47.48 40.754,47.326 43.25,46.798 45.279,45.966 46.8,44.405 
				48.074,42.652 48.625,40.541 48.96,38.96 48.96,36.962 48.461,35.116 47.307,32.94 45.728,31.111 43.529,30.063 40.701,29 			"/>
			<g style="clip-path:url(#SVGID_00000128462299075269527310000018218105278561784963_);">
				<defs>
					
						<rect id="SVGID_00000080208516663528946110000008731479508915345286_" x="13.026" y="6.596" transform="matrix(0.2915 -0.9566 0.9566 0.2915 -5.1063 35.227)" width="16.4" height="28.929"/>
				</defs>
				<clipPath id="SVGID_00000122722655983822526480000005194359135429884299_">
					<use xlink:href="#SVGID_00000080208516663528946110000008731479508915345286_"  style="overflow:visible;"/>
				</clipPath>
				<path style="clip-path:url(#SVGID_00000122722655983822526480000005194359135429884299_);fill:#F26C2B;" d="M10.692,21.824
					c-0.634-2.796,1.001-10.148,1.001-10.148c2.205-0.374,2.199,0.096,5.075,0.5c0.118,0.017,1.801,0.575,1.913,0.583
					c0.635,0.042,5.246,1.614,7.87,4.244c0.385,0.385,0.854,0.685,1.34,1.067c0.774-0.895,1.507-1.741,2.253-2.604
					c1.251,1.609,3.312,10.899,3.217,14.538c-4.358,0.076-8.687-0.19-13.256-0.878c0.796-1.192,1.422-2.128,2.179-3.26
					c-1.894-1.329-3.479-2.399-5.561-3.25C14.904,21.874,12.897,21.45,10.692,21.824"/>
			</g>
			<polygon style="clip-path:url(#SVGID_00000128462299075269527310000018218105278561784963_);fill:#E1D153;" points="82.958,29 
				81.076,29.587 79.056,30.24 76.996,31.615 75.548,33.61 74.37,35.801 74.081,38.29 74.709,41.604 75.82,43.698 77.331,45.514 
				79.483,46.474 81.192,47.032 82.962,47.291 83.399,47.48 84.306,47.48 84.754,47.326 87.25,46.798 89.279,45.966 90.8,44.405 
				92.074,42.652 92.624,40.541 92.96,38.96 92.96,36.962 92.461,35.116 91.306,32.94 89.728,31.111 87.529,30.063 84.7,29 			"/>
			<g style="clip-path:url(#SVGID_00000128462299075269527310000018218105278561784963_);">
				<defs>
					
						<rect id="SVGID_00000016796938406500071100000016770371675888130494_" x="57.026" y="6.596" transform="matrix(0.2915 -0.9566 0.9566 0.2915 26.0693 77.3167)" width="16.4" height="28.929"/>
				</defs>
				<clipPath id="SVGID_00000104674849394625166470000017944057421551951745_">
					<use xlink:href="#SVGID_00000016796938406500071100000016770371675888130494_"  style="overflow:visible;"/>
				</clipPath>
				<path style="clip-path:url(#SVGID_00000104674849394625166470000017944057421551951745_);fill:#55C95A;" d="M54.692,21.824
					c-0.634-2.796,1.001-10.148,1.001-10.148c2.205-0.374,2.199,0.096,5.075,0.5c0.118,0.017,1.801,0.575,1.913,0.583
					c0.635,0.042,5.246,1.614,7.87,4.244c0.385,0.385,0.854,0.685,1.34,1.067c0.774-0.895,1.507-1.741,2.253-2.604
					c1.251,1.609,3.312,10.899,3.217,14.538c-4.358,0.076-8.687-0.19-13.256-0.878c0.796-1.192,1.422-2.128,2.179-3.26
					c-1.894-1.329-3.479-2.399-5.561-3.25C58.904,21.874,56.897,21.45,54.692,21.824"/>
			</g>
			<polygon style="clip-path:url(#SVGID_00000128462299075269527310000018218105278561784963_);fill:#AD70D6;" points="39.959,74 
				38.077,74.588 36.057,75.24 33.997,76.615 32.548,78.611 31.37,80.801 31.081,83.291 31.709,86.604 32.821,88.698 34.331,90.514 
				36.484,91.474 38.192,92.032 39.962,92.292 40.398,92.48 41.309,92.48 41.754,92.327 44.251,91.798 46.279,90.966 47.8,89.405 
				49.075,87.652 49.625,85.542 49.96,83.96 49.96,81.962 49.462,80.116 48.307,77.94 46.728,76.111 44.53,75.063 41.701,74 			"/>
			<g style="clip-path:url(#SVGID_00000128462299075269527310000018218105278561784963_);">
				<defs>
					
						<rect id="SVGID_00000088134645017350781110000003144047367183080632_" x="14.026" y="51.596" transform="matrix(0.2915 -0.9566 0.9566 0.2915 -47.444 68.0672)" width="16.4" height="28.929"/>
				</defs>
				<clipPath id="SVGID_00000039855301304439897220000001126408041048769948_">
					<use xlink:href="#SVGID_00000088134645017350781110000003144047367183080632_"  style="overflow:visible;"/>
				</clipPath>
				<path style="clip-path:url(#SVGID_00000039855301304439897220000001126408041048769948_);fill:#E33A3A;" d="M11.692,66.824
					c-0.634-2.796,1.001-10.148,1.001-10.148c2.205-0.374,2.199,0.096,5.075,0.5c0.118,0.017,1.801,0.575,1.913,0.583
					c0.635,0.042,5.246,1.614,7.87,4.244c0.385,0.385,0.854,0.685,1.34,1.067c0.774-0.895,1.507-1.741,2.253-2.604
					c1.251,1.609,3.312,10.899,3.217,14.538c-4.358,0.076-8.687-0.19-13.256-0.878c0.796-1.192,1.422-2.128,2.179-3.26
					c-1.894-1.329-3.479-2.399-5.561-3.25C15.904,66.874,13.897,66.45,11.692,66.824"/>
			</g>
			<g style="clip-path:url(#SVGID_00000128462299075269527310000018218105278561784963_);">
				<defs>
					<rect id="SVGID_00000063622667053090347800000005124019851407243171_" x="60.264" y="58" width="30.094" height="18.775"/>
				</defs>
				<clipPath id="SVGID_00000092414463039624591150000017905255934789485701_">
					<use xlink:href="#SVGID_00000063622667053090347800000005124019851407243171_"  style="overflow:visible;"/>
				</clipPath>
				<path style="clip-path:url(#SVGID_00000092414463039624591150000017905255934789485701_);fill:#523742;" d="M86.693,64.496
					c1.33-0.04,2.04-2.21,3.67-1.07c-0.27,4.39-0.53,8.73-0.81,13.35c-4.26-0.64-8.21-2.15-12.23-3.33
					c-0.22-0.34-0.4-0.63-0.63-0.97c1.08-0.93,2.19-1.87,3.32-2.84c-0.9-2.8-3.33-3.45-5.51-3.8c-3.55-0.57-4.85,2.27-5.92,4.63
					c-0.1,0.96-0.16,1.62-0.25,2.5c-2.83-0.65-5.4-1.24-8.01-1.85c-0.02-0.25-0.1-0.47-0.03-0.62c0.78-1.91,1.3-4.01,2.45-5.66
					c2.89-4.13,6.85-6.66,12.07-6.83c3.34-0.1,6.39,0.64,8.85,3.01C84.743,62.056,85.643,63.276,86.693,64.496"/>
			</g>
			<g style="clip-path:url(#SVGID_00000128462299075269527310000018218105278561784963_);">
				<defs>
					<rect id="SVGID_00000168831603382230706780000002930784405312947094_" x="59.003" y="74.657" width="29.36" height="18.212"/>
				</defs>
				<clipPath id="SVGID_00000147936328061773160620000002595259498463923331_">
					<use xlink:href="#SVGID_00000168831603382230706780000002930784405312947094_"  style="overflow:visible;"/>
				</clipPath>
				<path style="clip-path:url(#SVGID_00000147936328061773160620000002595259498463923331_);fill:#9F9EB1;" d="M88.363,80.446
					c-0.1,0.3-0.17,0.6-0.29,0.87c-1.52,3.45-3.13,6.93-6.51,8.9c-1.9,1.11-4.16,1.59-6.26,2.36c-2.15,0.78-4.14-0.2-6.16-0.61
					c-1.67-0.33-2.86-1.56-4-2.76c-0.82-0.86-1.62-1.74-2.62-2.83c-1.02,0.3-2.14,0.63-3.52,1.04c0.24-4.15,0.49-8.3,0.76-12.76
					c4,1.19,7.88,2.35,12.16,3.63c-1.18,1.02-2.12,1.83-3.03,2.63v1.59c1.49,2.59,3.87,3.08,6.63,3.14
					c3.42,0.08,4.13-2.66,5.59-4.93v-1.92C83.563,79.356,85.923,79.886,88.363,80.446"/>
			</g>
		</g>
	</g>
</g>
<g id="Layer_2">
	<g id="Layer_3">
	</g>
</g>
</svg>
