<?xml version="1.0" encoding="iso-8859-1"?>
<!-- Generator: Adobe Illustrator 26.0.1, SVG Export Plug-In . SVG Version: 6.00 Build 0)  -->
<svg version="1.1" xmlns="http://www.w3.org/2000/svg" xmlns:xlink="http://www.w3.org/1999/xlink" x="0px" y="0px"
	 viewBox="0 0 100 100" style="enable-background:new 0 0 100 100;" xml:space="preserve">
<g id="Layer_1">
	<g id="L3_G_x28__T1_L1__x29__T1_T1_T1_00000137830367707929985910000003481726531871006908_">
		<g>
			<defs>
				<rect id="SVGID_1_" x="5" y="9" width="101.892" height="86.633"/>
			</defs>
			<clipPath id="SVGID_00000164509561591940668530000014655126826204395693_">
				<use xlink:href="#SVGID_1_"  style="overflow:visible;"/>
			</clipPath>
			<g style="clip-path:url(#SVGID_00000164509561591940668530000014655126826204395693_);">
				<defs>
					<rect id="SVGID_00000105426999977562945830000011117759212854518698_" x="71.082" y="9.001" width="18.878" height="18.48"/>
				</defs>
				<clipPath id="SVGID_00000111159759547699657370000001815327132799237812_">
					<use xlink:href="#SVGID_00000105426999977562945830000011117759212854518698_"  style="overflow:visible;"/>
				</clipPath>
				<g style="clip-path:url(#SVGID_00000111159759547699657370000001815327132799237812_);">
					<defs>
						<rect id="SVGID_00000053539694351118546410000003245202786460757418_" x="71.08" y="8.95" width="19.06" height="18.7"/>
					</defs>
					<clipPath id="SVGID_00000076563072554105282360000010631034293603944639_">
						<use xlink:href="#SVGID_00000053539694351118546410000003245202786460757418_"  style="overflow:visible;"/>
					</clipPath>
					<g style="clip-path:url(#SVGID_00000076563072554105282360000010631034293603944639_);">
						<defs>
							<rect id="SVGID_00000173145507222393232860000012120748856708050827_" x="71.08" y="8.95" width="19.06" height="18.7"/>
						</defs>
						<clipPath id="SVGID_00000126322415830885583890000011233745289210457019_">
							<use xlink:href="#SVGID_00000173145507222393232860000012120748856708050827_"  style="overflow:visible;"/>
						</clipPath>
						<polygon style="clip-path:url(#SVGID_00000126322415830885583890000011233745289210457019_);fill:#AD70D6;" points="
							89.46,15.12 90.14,17.61 90.03,18.61 89.62,20.54 89.08,22.65 87.8,24.41 86.28,25.97 84.25,26.8 81.75,27.33 80.8,27.65 
							79.96,27.29 78.19,27.03 76.481,26.47 74.33,25.51 72.82,23.7 71.71,21.6 71.08,18.29 71.37,15.8 72.55,13.61 74,11.62 
							76.06,10.24 78.08,9.59 80.1,8.96 81.56,8.95 84.53,10.06 86.731,11.11 88.31,12.94 						"/>
					</g>
				</g>
			</g>
			<g style="clip-path:url(#SVGID_00000164509561591940668530000014655126826204395693_);">
				<defs>
					<rect id="SVGID_00000163757617976975986520000011246930693956831678_" x="11.081" y="9.001" width="18.878" height="18.48"/>
				</defs>
				<clipPath id="SVGID_00000060006328658153767020000002869989762491926463_">
					<use xlink:href="#SVGID_00000163757617976975986520000011246930693956831678_"  style="overflow:visible;"/>
				</clipPath>
				<g style="clip-path:url(#SVGID_00000060006328658153767020000002869989762491926463_);">
					<defs>
						<rect id="SVGID_00000088845713208787167040000007858976609429615276_" x="11.08" y="8.95" width="19.06" height="18.7"/>
					</defs>
					<clipPath id="SVGID_00000135657527366075444190000000272222178455995044_">
						<use xlink:href="#SVGID_00000088845713208787167040000007858976609429615276_"  style="overflow:visible;"/>
					</clipPath>
					<g style="clip-path:url(#SVGID_00000135657527366075444190000000272222178455995044_);">
						<defs>
							<rect id="SVGID_00000095317309212192600680000005450858373557012906_" x="11.08" y="8.95" width="19.06" height="18.7"/>
						</defs>
						<clipPath id="SVGID_00000103943881970740800930000009815253343083520650_">
							<use xlink:href="#SVGID_00000095317309212192600680000005450858373557012906_"  style="overflow:visible;"/>
						</clipPath>
						<polygon style="clip-path:url(#SVGID_00000103943881970740800930000009815253343083520650_);fill:#E1D153;" points="
							29.46,15.12 30.14,17.61 30.03,18.61 29.62,20.54 29.08,22.65 27.8,24.41 26.28,25.97 24.25,26.8 21.75,27.33 20.8,27.65 
							19.96,27.29 18.19,27.03 16.48,26.47 14.33,25.51 12.82,23.7 11.71,21.6 11.08,18.29 11.37,15.8 12.55,13.61 14,11.62 
							16.06,10.24 18.08,9.59 20.1,8.96 21.56,8.95 24.53,10.06 26.73,11.11 28.31,12.94 						"/>
					</g>
				</g>
			</g>
			<g style="clip-path:url(#SVGID_00000164509561591940668530000014655126826204395693_);">
				<defs>
					<rect id="SVGID_00000179641974100324022840000016831927006287773071_" x="42.082" y="16" width="18.878" height="18.481"/>
				</defs>
				<clipPath id="SVGID_00000015320170437949958550000004038129133268478137_">
					<use xlink:href="#SVGID_00000179641974100324022840000016831927006287773071_"  style="overflow:visible;"/>
				</clipPath>
				<g style="clip-path:url(#SVGID_00000015320170437949958550000004038129133268478137_);">
					<defs>
						<rect id="SVGID_00000066512689797660054970000009015706538106584752_" x="42.08" y="15.95" width="19.06" height="18.7"/>
					</defs>
					<clipPath id="SVGID_00000125597732449604676300000000514184152201121210_">
						<use xlink:href="#SVGID_00000066512689797660054970000009015706538106584752_"  style="overflow:visible;"/>
					</clipPath>
					<g style="clip-path:url(#SVGID_00000125597732449604676300000000514184152201121210_);">
						<defs>
							<rect id="SVGID_00000003066980937090875810000003958280987204215695_" x="42.08" y="15.95" width="19.06" height="18.7"/>
						</defs>
						<clipPath id="SVGID_00000051348121557460559240000011892729389768900798_">
							<use xlink:href="#SVGID_00000003066980937090875810000003958280987204215695_"  style="overflow:visible;"/>
						</clipPath>
						<polygon style="clip-path:url(#SVGID_00000051348121557460559240000011892729389768900798_);fill:#5699DE;" points="
							60.46,22.12 61.14,24.61 61.03,25.61 60.62,27.54 60.08,29.65 58.8,31.41 57.28,32.97 55.25,33.8 52.75,34.33 51.8,34.65 
							50.96,34.29 49.19,34.03 47.48,33.47 45.33,32.51 43.82,30.7 42.71,28.6 42.08,25.29 42.37,22.8 43.55,20.61 45,18.62 
							47.06,17.24 49.08,16.59 51.1,15.96 52.56,15.95 55.53,17.06 57.731,18.11 59.31,19.94 						"/>
					</g>
				</g>
			</g>
			<g style="clip-path:url(#SVGID_00000164509561591940668530000014655126826204395693_);">
				<defs>
					<rect id="SVGID_00000173866242140223350570000005716712729405844632_" x="5.005" y="47.002" width="46.995" height="43.958"/>
				</defs>
				<clipPath id="SVGID_00000083773814682114191060000000156713557207132831_">
					<use xlink:href="#SVGID_00000173866242140223350570000005716712729405844632_"  style="overflow:visible;"/>
				</clipPath>
				<g style="clip-path:url(#SVGID_00000083773814682114191060000000156713557207132831_);">
					<defs>
						<rect id="SVGID_00000090282447218803338890000011576497066300293819_" x="19.96" y="47" width="31.85" height="17.96"/>
					</defs>
					<clipPath id="SVGID_00000098899512585485335170000011617410301964427166_">
						<use xlink:href="#SVGID_00000090282447218803338890000011576497066300293819_"  style="overflow:visible;"/>
					</clipPath>
					<g style="clip-path:url(#SVGID_00000098899512585485335170000011617410301964427166_);">
						<defs>
							<rect id="SVGID_00000162353831211033818890000017581036761410729126_" x="19.96" y="47" width="31.85" height="17.96"/>
						</defs>
						<clipPath id="SVGID_00000041277840779658662840000000867668055774572707_">
							<use xlink:href="#SVGID_00000162353831211033818890000017581036761410729126_"  style="overflow:visible;"/>
						</clipPath>
						<path style="clip-path:url(#SVGID_00000041277840779658662840000000867668055774572707_);fill:#55C95A;" d="M43.59,47
							c1.87,1.32,7.13,10.63,8.22,14.57c-3.46,1.12-6.97,2.03-10.65,2.73c-1.28,0.24-2.57,0.47-3.88,0.66
							c0.47-1.54,0.83-2.75,1.28-4.21c-2.47-0.81-4.9-2.06-7.41-2.29c-2.19-0.21-4.8-0.33-6.56,1.86c-0.34-0.59-0.68-1.18-1-1.75
							c-1.24-2.16-2.42-4.22-3.63-6.35c2.46-1.84,5-3.67,8.21-4.17c0.14-0.03,0.29,0.01,0.41-0.04c4.3-2.03,7.98-0.15,11.66,1.82
							c0.54,0.28,1.14,0.45,1.79,0.71C42.57,49.32,43.07,48.17,43.59,47"/>
					</g>
				</g>
				<g style="clip-path:url(#SVGID_00000083773814682114191060000000156713557207132831_);">
					<defs>
						<rect id="SVGID_00000102513527953351773660000003237170353973144465_" x="25.35" y="66.77" width="26.65" height="24.196"/>
					</defs>
					<clipPath id="SVGID_00000044139787616144625260000017538882605341435554_">
						<use xlink:href="#SVGID_00000102513527953351773660000003237170353973144465_"  style="overflow:visible;"/>
					</clipPath>
					<g style="clip-path:url(#SVGID_00000044139787616144625260000017538882605341435554_);">
						<defs>
							<rect id="SVGID_00000154408614000674447480000012893979409491901337_" x="25.35" y="66.77" width="26.65" height="24.196"/>
						</defs>
						<clipPath id="SVGID_00000043430488972211633790000004803567351654516618_">
							<use xlink:href="#SVGID_00000154408614000674447480000012893979409491901337_"  style="overflow:visible;"/>
						</clipPath>
						<path style="clip-path:url(#SVGID_00000043430488972211633790000004803567351654516618_);fill:#F26C2B;" d="M52,67.74v4.85
							c-0.11,0.36-0.21,0.719-0.33,1.08c-0.69,2.179-1.23,4.429-2.13,6.52c-0.47,1.1-1.4,2.13-2.37,2.869
							c-1.95,1.511-4.06,2.79-6.22,4.221c0.61,1.04,1.27,2.17,1.95,3.33c-2.99,1.02-16.1-0.33-17.55-1.81
							c1.13-2.93,2.09-5.93,3.29-8.951c0.73-1.799,1.54-3.619,2.51-5.409c1.06,1.31,1.94,2.39,2.84,3.5
							c2.04-1.46,4.03-2.89,6.1-4.37c0.24-2.261,2.88-3.88,1.57-6.801c0.9,0.08,1.51,0.141,2.13,0.191
							c2.48,0.19,4.96,0.37,7.45,0.559C51.49,67.54,51.75,67.66,52,67.74"/>
					</g>
				</g>
				<g style="clip-path:url(#SVGID_00000083773814682114191060000000156713557207132831_);">
					<defs>
						<rect id="SVGID_00000064326560824022916430000008067440480746768264_" x="5" y="53.47" width="20.89" height="33.69"/>
					</defs>
					<clipPath id="SVGID_00000038374795724016765150000012675867828505842600_">
						<use xlink:href="#SVGID_00000064326560824022916430000008067440480746768264_"  style="overflow:visible;"/>
					</clipPath>
					<g style="clip-path:url(#SVGID_00000038374795724016765150000012675867828505842600_);">
						<defs>
							<rect id="SVGID_00000060745693831420648070000005480618185017069476_" x="5" y="53.47" width="20.89" height="33.69"/>
						</defs>
						<clipPath id="SVGID_00000026884191745852559080000010289870488439162045_">
							<use xlink:href="#SVGID_00000060745693831420648070000005480618185017069476_"  style="overflow:visible;"/>
						</clipPath>
						<path style="clip-path:url(#SVGID_00000026884191745852559080000010289870488439162045_);fill:#E33A3A;" d="M21.12,73.59
							c0.76,2.09,2.04,4.26,4.77,5.37c-2.01,2.83-3.87,5.46-5.82,8.2c-2.94-1.66-5.82-3.2-7.7-6.08c-0.36-0.55-0.88-1-1.35-1.46
							c-1.36-1.32-1.66-3.11-1.93-4.81c-0.27-1.77-0.11-3.61-0.14-5.43c-0.02-0.51,0-1.04,0-1.58c-1.44-0.08-2.7-0.149-3.95-0.2
							c0.23-2.64,8.18-13.32,10.55-14.13c1.78,2.16,3.66,4.28,5.42,6.59c1.37,1.79,2.66,3.7,3.81,5.83c-1.7,0.24-2.94,0.4-4.38,0.61
							C20.59,68.89,20.33,71.441,21.12,73.59"/>
					</g>
				</g>
			</g>
			<polygon style="clip-path:url(#SVGID_00000164509561591940668530000014655126826204395693_);fill:#9F9EB1;" points="
				82.168,74.124 79.952,75.204 77.882,76.584 76.457,78.644 75.451,81.864 75.449,84.235 75.928,86.548 77.376,88.407 
				78.621,89.703 80.061,90.763 80.358,91.135 81.162,91.564 81.625,91.637 84.077,92.345 86.259,92.565 88.335,91.903 
				90.284,90.956 91.763,89.351 92.802,88.113 93.741,86.35 94.17,84.487 94.174,82.023 93.641,79.666 92.194,77.708 90.198,75.439 
				88.66,74.62 86.723,74.254 84.633,73.879 			"/>
			<g style="clip-path:url(#SVGID_00000164509561591940668530000014655126826204395693_);">
				<defs>
					
						<rect id="SVGID_00000060026317697633485470000006030623603516019588_" x="68.545" y="44.81" transform="matrix(0.7071 -0.7071 0.7071 0.7071 -19.4347 71.6304)" width="16.4" height="28.929"/>
				</defs>
				<clipPath id="SVGID_00000178904990299868799250000002331218944667911605_">
					<use xlink:href="#SVGID_00000060026317697633485470000006030623603516019588_"  style="overflow:visible;"/>
				</clipPath>
				<path style="clip-path:url(#SVGID_00000178904990299868799250000002331218944667911605_);fill:#523742;" d="M67.089,54.994
					c0.755-2.766,5.655-8.485,5.655-8.485c2.122,0.707,1.896,1.119,4.244,2.828c0.096,0.071,1.319,1.354,1.414,1.414
					c0.541,0.336,3.871,3.891,4.95,7.447c0.159,0.521,0.431,1.006,0.68,1.571c1.105-0.425,2.149-0.828,3.213-1.238
					c0.348,2.008-2.202,11.176-3.998,14.343c-3.881-1.983-7.577-4.253-11.285-7.009c1.263-0.678,2.256-1.209,3.456-1.852
					c-1.047-2.064-1.942-3.753-3.38-5.484C70.782,57.019,69.21,55.701,67.089,54.994"/>
			</g>
		</g>
	</g>
</g>
<g id="Layer_2">
	<g id="Layer_3">
	</g>
</g>
</svg>
