<?xml version="1.0" encoding="iso-8859-1"?>
<!-- Generator: Adobe Illustrator 26.0.1, SVG Export Plug-In . SVG Version: 6.00 Build 0)  -->
<svg version="1.1" xmlns="http://www.w3.org/2000/svg" xmlns:xlink="http://www.w3.org/1999/xlink" x="0px" y="0px"
	 viewBox="0 0 100 100" style="enable-background:new 0 0 100 100;" xml:space="preserve">
<g id="Layer_1">
	<g id="L6_L2_00000113354969561236188950000007736721955204593847_">
		<g>
			<defs>
				<rect id="SVGID_1_" x="9" y="6" width="82.979" height="89"/>
			</defs>
			<clipPath id="SVGID_00000183928511780467687150000014812113958108120239_">
				<use xlink:href="#SVGID_1_"  style="overflow:visible;"/>
			</clipPath>
			<g style="clip-path:url(#SVGID_00000183928511780467687150000014812113958108120239_);">
				<defs>
					<rect id="SVGID_00000083797028560070382630000011030199641150698940_" x="67.199" y="21.814" width="24.78" height="29.056"/>
				</defs>
				<clipPath id="SVGID_00000050623901187816956310000015079231589790331305_">
					<use xlink:href="#SVGID_00000083797028560070382630000011030199641150698940_"  style="overflow:visible;"/>
				</clipPath>
				<path style="clip-path:url(#SVGID_00000050623901187816956310000015079231589790331305_);fill:#55C95A;" d="M91.979,35.579
					v0.786c-0.175,1.003-0.403,2.006-0.523,3.01c-0.382,3.195-0.72,6.391-1.102,9.576c-0.065,0.556-0.24,1.09-0.426,1.92
					c-0.796-0.186-1.526-0.317-2.235-0.513c-0.688-0.196-1.386-0.436-2.051-0.698c-3.338-1.309-6.675-2.629-10.002-3.97
					c-0.294-0.12-0.502-0.437-0.96-0.851c1.102-0.949,2.127-1.822,3.251-2.803c-0.982-1.483-1.876-3.108-3.043-4.537
					c-1.331-1.636-2.837-3.141-4.363-4.603c-0.928-0.883-2.062-1.57-3.326-2.52c3.402-3.021,6.5-5.78,9.631-8.561
					c4.286,3.937,8.441,7.613,10.459,13.197c1.472-0.905,2.661-1.636,3.992-2.465C91.542,33.714,91.76,34.641,91.979,35.579"/>
			</g>
			<g style="clip-path:url(#SVGID_00000183928511780467687150000014812113958108120239_);">
				<defs>
					<rect id="SVGID_00000067928247957341790000000017337001265455115931_" x="68.808" y="54.481" width="23.171" height="29.132"/>
				</defs>
				<clipPath id="SVGID_00000152226248723633073170000002590540459553158816_">
					<use xlink:href="#SVGID_00000067928247957341790000000017337001265455115931_"  style="overflow:visible;"/>
				</clipPath>
				<path style="clip-path:url(#SVGID_00000152226248723633073170000002590540459553158816_);fill:#AD70D6;" d="M91.979,60.524
					c-0.534,1.177-0.96,2.094-1.451,3.161c-1.145,4.363-3.981,7.975-6.926,11.507c1.386,1.06,2.399,1.834,3.719,2.837
					c-5.758,3.107-11.943,3.589-17.985,5.584c-0.207-1.047-0.415-1.756-0.48-2.486c-0.077-0.873-0.043-1.767-0.032-2.663
					c0-0.806,0.021-1.624,0.044-2.442c0.01-0.786,0.053-1.56,0.053-2.345v-6.86c1.8,0.185,2.956,1.167,4.167,1.952
					c3.73-4.003,5.552-8.954,7.199-14.288C84.333,56.575,88.063,58.504,91.979,60.524"/>
			</g>
			<g style="clip-path:url(#SVGID_00000183928511780467687150000014812113958108120239_);">
				<defs>
					<rect id="SVGID_00000057837107562557404170000016305984940678249107_" x="9.989" y="54.971" width="24.151" height="29.471"/>
				</defs>
				<clipPath id="SVGID_00000095304155537097052420000015693704842160857770_">
					<use xlink:href="#SVGID_00000057837107562557404170000016305984940678249107_"  style="overflow:visible;"/>
				</clipPath>
				<path style="clip-path:url(#SVGID_00000095304155537097052420000015693704842160857770_);fill:#E1D153;" d="M32.472,74.146
					c0.6,0.534,1.047,1.222,1.668,1.952c-3.326,2.837-6.489,5.541-9.783,8.344c-0.774-0.938-1.396-1.69-2.192-2.65
					c-1.865-0.666-2.825-2.705-4.167-4.297c-1.243-1.472-2.464-2.999-2.846-5.029c-0.109-0.533-0.807-0.97-1.2-1.418
					c-1.265,0.808-2.443,1.56-3.948,2.509c-0.142-6.565,0.796-12.608,2.018-18.585c0.872,0.143,1.45,0.131,1.941,0.328
					c0.546,0.23,0.992,0.654,1.527,0.883c3.959,1.221,7.798,2.792,11.649,4.766c-0.579,1.635-2.389,1.865-3.545,3.053
					c1.723,2.368,3.283,4.747,5.093,6.905C29.745,72.162,31.24,73.034,32.472,74.146"/>
			</g>
			<g style="clip-path:url(#SVGID_00000183928511780467687150000014812113958108120239_);">
				<defs>
					<rect id="SVGID_00000183243135595701885910000000946391144440145594_" x="36.344" y="6.044" width="31.378" height="21.213"/>
				</defs>
				<clipPath id="SVGID_00000119106705945243309920000013536560146309526951_">
					<use xlink:href="#SVGID_00000183243135595701885910000000946391144440145594_"  style="overflow:visible;"/>
				</clipPath>
				<path style="clip-path:url(#SVGID_00000119106705945243309920000013536560146309526951_);fill:#5699DE;" d="M53.554,6.044
					c5.541,3.25,9.338,8.006,14.168,12.118c-4.612,3.326-9.041,6.337-14.135,9.096v-4.515c-5.617-1.004-10.754,0.01-16.109,1.57
					c-0.393-4.472-0.753-8.583-1.134-12.903c2.999-0.436,5.726-1.036,8.463-1.178c2.76-0.152,5.53,0.153,8.355,0.262
					C53.293,9.054,53.402,7.713,53.554,6.044"/>
			</g>
			<g style="clip-path:url(#SVGID_00000183928511780467687150000014812113958108120239_);">
				<defs>
					<rect id="SVGID_00000108266744020737943040000014341127170134644919_" x="9.196" y="20.648" width="22.272" height="28.849"/>
				</defs>
				<clipPath id="SVGID_00000048476912681423372340000013542051405933796748_">
					<use xlink:href="#SVGID_00000108266744020737943040000014341127170134644919_"  style="overflow:visible;"/>
				</clipPath>
				<path style="clip-path:url(#SVGID_00000048476912681423372340000013542051405933796748_);fill:#E33A3A;" d="M31.468,35.994
					c0.011,0.36-0.164,0.709-0.306,1.254c-1.352-0.785-2.53-1.472-3.817-2.225c-0.981,1.494-2.05,2.902-2.901,4.439
					c-1.374,2.487-2.64,5.029-3.01,7.929c-0.088,0.688-0.644,1.31-1.058,2.105c-3.796-1.854-7.504-3.664-11.18-5.453
					c1.724-5.595,3.85-10.623,7.973-14.713c-1.385-1.047-2.497-1.887-3.894-2.945c5.672-2.923,11.66-3.872,17.462-5.737
					c0.229,0.807,0.469,1.298,0.48,1.8C31.326,26.963,31.413,31.478,31.468,35.994"/>
			</g>
			<g style="clip-path:url(#SVGID_00000183928511780467687150000014812113958108120239_);">
				<defs>
					<rect id="SVGID_00000150068186010274906920000013585420178001994926_" x="33.399" y="72.826" width="31.182" height="20.68"/>
				</defs>
				<clipPath id="SVGID_00000164492209757132341960000008848758503732060093_">
					<use xlink:href="#SVGID_00000150068186010274906920000013585420178001994926_"  style="overflow:visible;"/>
				</clipPath>
				<path style="clip-path:url(#SVGID_00000164492209757132341960000008848758503732060093_);fill:#F26C2B;" d="M63.316,75.597
					c0.436,4.352,0.841,8.354,1.265,12.565c-1.199,0.175-2.105,0.294-3.033,0.425c-4.406,1.572-8.942,1.352-13.622,0.577
					c-0.142,1.561-0.251,2.912-0.371,4.342c-1.832-0.339-3.032-1.351-4.221-2.442c-3.076-2.815-6.184-5.584-9.282-8.367
					c-0.152-0.142-0.283-0.328-0.654-0.742c4.406-3.217,8.726-6.402,13.819-9.129v4.604c1.254,0.075,2.356,0.261,3.425,0.174
					c2.356-0.196,4.7-0.469,7.034-0.829C59.476,76.492,61.254,76.033,63.316,75.597"/>
			</g>
			<g style="clip-path:url(#SVGID_00000183928511780467687150000014812113958108120239_);">
				<defs>
					<rect id="SVGID_00000023983979390977760500000005666333918023780997_" x="36.265" y="34.001" width="30.095" height="18.776"/>
				</defs>
				<clipPath id="SVGID_00000004542596475407020180000014639046679543049364_">
					<use xlink:href="#SVGID_00000023983979390977760500000005666333918023780997_"  style="overflow:visible;"/>
				</clipPath>
				<path style="clip-path:url(#SVGID_00000004542596475407020180000014639046679543049364_);fill:#523742;" d="M62.692,40.496
					c1.33-0.04,2.04-2.21,3.67-1.07c-0.27,4.39-0.529,8.73-0.81,13.35c-4.259-0.64-8.21-2.15-12.23-3.33
					c-0.22-0.34-0.4-0.63-0.63-0.97c1.08-0.93,2.19-1.87,3.32-2.84c-0.9-2.8-3.33-3.45-5.509-3.8c-3.551-0.57-4.851,2.27-5.921,4.63
					c-0.099,0.96-0.16,1.62-0.25,2.5c-2.829-0.65-5.4-1.24-8.01-1.85c-0.02-0.25-0.1-0.47-0.03-0.62c0.78-1.91,1.3-4.01,2.45-5.66
					c2.89-4.13,6.85-6.66,12.07-6.83c3.34-0.1,6.391,0.64,8.851,3.01C60.743,38.056,61.642,39.276,62.692,40.496"/>
			</g>
			<g style="clip-path:url(#SVGID_00000183928511780467687150000014812113958108120239_);">
				<defs>
					<rect id="SVGID_00000011741690222903063420000002528726223763096741_" x="35.003" y="50.656" width="29.36" height="18.212"/>
				</defs>
				<clipPath id="SVGID_00000139289554823076476270000014970502931616000168_">
					<use xlink:href="#SVGID_00000011741690222903063420000002528726223763096741_"  style="overflow:visible;"/>
				</clipPath>
				<path style="clip-path:url(#SVGID_00000139289554823076476270000014970502931616000168_);fill:#9F9EB1;" d="M64.362,56.446
					c-0.1,0.3-0.17,0.6-0.29,0.87c-1.52,3.449-3.13,6.93-6.51,8.9c-1.899,1.11-4.16,1.589-6.26,2.36c-2.149,0.78-4.14-0.2-6.16-0.61
					c-1.67-0.331-2.86-1.56-4-2.76c-0.82-0.861-1.62-1.74-2.62-2.83c-1.02,0.299-2.139,0.63-3.52,1.04
					c0.24-4.151,0.49-8.3,0.76-12.761c4,1.191,7.88,2.351,12.16,3.631c-1.18,1.019-2.12,1.83-3.03,2.63v1.59
					c1.491,2.589,3.87,3.08,6.63,3.14c3.42,0.079,4.13-2.66,5.59-4.93v-1.92C59.562,55.356,61.923,55.885,64.362,56.446"/>
			</g>
		</g>
	</g>
</g>
<g id="Layer_2">
	<g id="Layer_3">
	</g>
</g>
</svg>
