<?xml version="1.0" encoding="iso-8859-1"?>
<!-- Generator: Adobe Illustrator 26.0.1, SVG Export Plug-In . SVG Version: 6.00 Build 0)  -->
<svg version="1.1" xmlns="http://www.w3.org/2000/svg" xmlns:xlink="http://www.w3.org/1999/xlink" x="0px" y="0px"
	 viewBox="0 0 100 100" style="enable-background:new 0 0 100 100;" xml:space="preserve">
<g id="Layer_1">
	<g id="G_x28__T1_T1_T1_L2__x29__L3_00000064351162115282277040000006073489608106721932_">
		<g>
			<defs>
				<rect id="SVGID_1_" x="1" y="2" width="93.854" height="95.147"/>
			</defs>
			<clipPath id="SVGID_00000118367406123683404770000007995842049203713161_">
				<use xlink:href="#SVGID_1_"  style="overflow:visible;"/>
			</clipPath>
			<g style="clip-path:url(#SVGID_00000118367406123683404770000007995842049203713161_);">
				<defs>
					<rect id="SVGID_00000178908732640665930660000007017883160016311963_" x="26.572" y="35.615" width="30.095" height="18.776"/>
				</defs>
				<clipPath id="SVGID_00000056386636881822884510000013105104523855294601_">
					<use xlink:href="#SVGID_00000178908732640665930660000007017883160016311963_"  style="overflow:visible;"/>
				</clipPath>
				<path style="clip-path:url(#SVGID_00000056386636881822884510000013105104523855294601_);fill:#523742;" d="M53,42.11
					c1.33-0.04,2.04-2.21,3.67-1.07c-0.27,4.389-0.529,8.73-0.81,13.349c-4.259-0.639-8.21-2.149-12.23-3.33
					c-0.22-0.34-0.4-0.63-0.63-0.97c1.08-0.929,2.19-1.87,3.32-2.839c-0.9-2.8-3.33-3.451-5.509-3.8
					c-3.551-0.57-4.851,2.269-5.921,4.63c-0.099,0.96-0.16,1.62-0.25,2.5c-2.829-0.651-5.4-1.241-8.01-1.85
					c-0.02-0.25-0.1-0.471-0.03-0.62c0.78-1.91,1.3-4.011,2.45-5.66c2.89-4.13,6.85-6.66,12.07-6.83
					c3.34-0.1,6.391,0.639,8.851,3.01C51.051,39.67,51.95,40.889,53,42.11"/>
			</g>
			<g style="clip-path:url(#SVGID_00000118367406123683404770000007995842049203713161_);">
				<defs>
					<rect id="SVGID_00000047057224216293352780000010003454381741105825_" x="25.31" y="52.271" width="29.36" height="18.212"/>
				</defs>
				<clipPath id="SVGID_00000120530313376265702430000000366814790302980533_">
					<use xlink:href="#SVGID_00000047057224216293352780000010003454381741105825_"  style="overflow:visible;"/>
				</clipPath>
				<path style="clip-path:url(#SVGID_00000120530313376265702430000000366814790302980533_);fill:#9F9EB1;" d="M54.669,58.06
					c-0.1,0.3-0.17,0.6-0.29,0.87c-1.52,3.449-3.13,6.93-6.51,8.9c-1.899,1.11-4.16,1.589-6.26,2.36c-2.15,0.78-4.14-0.2-6.16-0.61
					c-1.67-0.331-2.86-1.56-4-2.76c-0.82-0.861-1.62-1.74-2.62-2.83c-1.02,0.299-2.139,0.63-3.52,1.04
					c0.24-4.151,0.49-8.3,0.76-12.76c4,1.189,7.88,2.35,12.16,3.63c-1.18,1.019-2.12,1.83-3.03,2.63v1.59
					c1.491,2.589,3.87,3.08,6.63,3.14c3.42,0.079,4.13-2.66,5.59-4.93v-1.92C49.869,56.97,52.23,57.499,54.669,58.06"/>
			</g>
			<g style="clip-path:url(#SVGID_00000118367406123683404770000007995842049203713161_);">
				<defs>
					
						<rect id="SVGID_00000095300574770670614290000012638184384407055785_" x="8.572" y="16.35" transform="matrix(0.1923 -0.9813 0.9813 0.1923 -16.6929 41.3473)" width="16.4" height="28.929"/>
				</defs>
				<clipPath id="SVGID_00000114038589131703772290000008656983992299252618_">
					<use xlink:href="#SVGID_00000095300574770670614290000012638184384407055785_"  style="overflow:visible;"/>
				</clipPath>
				<path style="clip-path:url(#SVGID_00000114038589131703772290000008656983992299252618_);fill:#E33A3A;" d="M6.37,32.649
					c-0.915-2.717-0.039-10.198-0.039-10.198c2.155-0.596,2.197-0.128,5.099-0.019c0.12,0.004,1.851,0.388,1.963,0.384
					c0.636-0.022,5.383,1.071,8.262,3.42c0.422,0.343,0.919,0.594,1.442,0.924c0.679-0.969,1.321-1.886,1.975-2.821
					c1.409,1.474,4.406,10.505,4.684,14.134c-4.328,0.522-8.661,0.698-13.278,0.48c0.672-1.267,1.199-2.262,1.836-3.466
					c-2.019-1.129-3.705-2.032-5.863-2.665C10.566,32.269,8.525,32.052,6.37,32.649"/>
			</g>
			<g style="clip-path:url(#SVGID_00000118367406123683404770000007995842049203713161_);">
				<defs>
					
						<rect id="SVGID_00000063615839022509881090000005547239170532610698_" x="28.97" y="4.162" transform="matrix(0.8661 -0.4998 0.4998 0.8661 -4.3342 21.0702)" width="16.4" height="28.929"/>
				</defs>
				<clipPath id="SVGID_00000173873425779988683240000017518102497481756545_">
					<use xlink:href="#SVGID_00000063615839022509881090000005547239170532610698_"  style="overflow:visible;"/>
				</clipPath>
				<path style="clip-path:url(#SVGID_00000173873425779988683240000017518102497481756545_);fill:#F26C2B;" d="M28.952,11.991
					c1.446-2.475,7.662-6.73,7.662-6.73c1.865,1.232,1.539,1.572,3.364,3.831c0.077,0.092,0.924,1.65,1,1.732
					c0.436,0.464,2.731,4.762,2.852,8.475c0.018,0.544,0.156,1.083,0.25,1.694c1.177-0.125,2.29-0.243,3.425-0.364
					c-0.186,2.03-5.024,10.224-7.577,12.818c-3.237-2.92-6.218-6.071-9.086-9.694c1.396-0.327,2.493-0.583,3.819-0.894
					c-0.476-2.264-0.903-4.128-1.844-6.171C31.995,14.904,30.818,13.223,28.952,11.991"/>
			</g>
			<g style="clip-path:url(#SVGID_00000118367406123683404770000007995842049203713161_);">
				<defs>
					
						<rect id="SVGID_00000089546625972510627380000004994349496164248971_" x="43.705" y="15.427" transform="matrix(0.1236 -0.9923 0.9923 0.1236 27.5345 78.4308)" width="28.93" height="16.4"/>
				</defs>
				<clipPath id="SVGID_00000048479098422856259020000012596198986911584154_">
					<use xlink:href="#SVGID_00000089546625972510627380000004994349496164248971_"  style="overflow:visible;"/>
				</clipPath>
				<path style="clip-path:url(#SVGID_00000048479098422856259020000012596198986911584154_);fill:#55C95A;" d="M55.615,13.378
					c2.646-1.103,10.17-0.75,10.17-0.75c0.746,2.109,0.281,2.183,0.375,5.086c0.004,0.12-0.259,1.873-0.247,1.985
					c0.067,0.633-0.694,5.445-2.836,8.48c-0.314,0.445-0.528,0.958-0.821,1.502c1.013,0.611,1.973,1.187,2.951,1.775
					c-1.372,1.507-10.173,5.127-13.774,5.656c-0.821-4.281-1.299-8.591-1.402-13.212c1.311,0.582,2.34,1.039,3.585,1.591
					c0.985-2.093,1.769-3.838,2.25-6.036C56.286,17.537,56.36,15.486,55.615,13.378"/>
			</g>
			<g style="clip-path:url(#SVGID_00000118367406123683404770000007995842049203713161_);">
				<defs>
					<rect id="SVGID_00000000940559159142690810000013285793910826258316_" x="53.004" y="58.002" width="41.85" height="39.145"/>
				</defs>
				<clipPath id="SVGID_00000003090047966524086250000003282281754266903179_">
					<use xlink:href="#SVGID_00000000940559159142690810000013285793910826258316_"  style="overflow:visible;"/>
				</clipPath>
				<path style="clip-path:url(#SVGID_00000003090047966524086250000003282281754266903179_);fill:#AD70D6;" d="M94.854,76.472v4.32
					c-0.1,0.32-0.19,0.64-0.29,0.96c-0.62,1.94-1.1,3.94-1.9,5.8c-0.42,0.98-1.25,1.9-2.11,2.56c-1.74,1.34-3.62,2.48-5.54,3.76
					c0.54,0.92,1.13,1.93,1.74,2.96c-2.67,0.91-14.34-0.29-15.63-1.61c1-2.61,1.86-5.28,2.93-7.97c0.65-1.6,1.37-3.22,2.23-4.82
					c0.95,1.17,1.73,2.13,2.53,3.12c1.82-1.3,3.59-2.57,5.43-3.89c0.22-2.01,2.57-3.46,1.4-6.06c0.8,0.07,1.35,0.13,1.9,0.17
					c2.21,0.17,4.42,0.33,6.63,0.5C94.404,76.292,94.634,76.402,94.854,76.472"/>
				<path style="clip-path:url(#SVGID_00000003090047966524086250000003282281754266903179_);fill:#5699DE;" d="M87.364,58.002
					c1.67,1.17,6.35,9.46,7.32,12.97c-3.08,1-6.21,1.81-9.48,2.43c-1.14,0.22-2.29,0.42-3.46,0.59c0.42-1.37,0.74-2.45,1.14-3.75
					c-2.2-0.72-4.36-1.83-6.6-2.04c-1.95-0.18-4.27-0.29-5.84,1.66c-0.3-0.53-0.6-1.05-0.89-1.56c-1.1-1.92-2.15-3.76-3.23-5.65
					c2.19-1.64,4.45-3.27,7.31-3.72c0.12-0.02,0.26,0.01,0.36-0.03c3.83-1.81,7.11-0.14,10.39,1.62c0.48,0.25,1.01,0.4,1.59,0.63
					C86.454,60.062,86.904,59.042,87.364,58.002"/>
				<path style="clip-path:url(#SVGID_00000003090047966524086250000003282281754266903179_);fill:#E1D153;" d="M56.644,82.762
					c-0.24-1.57-0.1-3.21-0.13-4.83c-0.01-0.46,0-0.93,0-1.41c-1.28-0.07-2.4-0.13-3.51-0.18c0.2-2.35,7.28-11.86,9.39-12.58
					c1.59,1.92,3.26,3.81,4.83,5.87c1.22,1.59,2.37,3.29,3.39,5.19c-1.51,0.21-2.62,0.36-3.9,0.54c0.17,2.13-0.06,4.4,0.64,6.32
					c0.68,1.86,1.82,3.79,4.25,4.78c-1.79,2.52-3.45,4.86-5.18,7.3c-2.62-1.48-5.19-2.85-6.86-5.41c-0.32-0.49-0.78-0.89-1.2-1.3
					C57.154,85.872,56.884,84.282,56.644,82.762"/>
			</g>
		</g>
	</g>
</g>
<g id="Layer_2">
	<g id="Layer_3">
	</g>
</g>
</svg>
