<?xml version="1.0" encoding="iso-8859-1"?>
<!-- Generator: Adobe Illustrator 26.0.1, SVG Export Plug-In . SVG Version: 6.00 Build 0)  -->
<svg version="1.1" xmlns="http://www.w3.org/2000/svg" xmlns:xlink="http://www.w3.org/1999/xlink" x="0px" y="0px"
	 viewBox="0 0 100 100" style="enable-background:new 0 0 100 100;" xml:space="preserve">
<g id="Layer_1">
	<g id="G_x28__T1_T1_T1_T1_L1_x29__L3_00000029013159583092773140000013332341730242076834_">
		<g>
			<defs>
				<rect id="SVGID_1_" x="-12" y="-14" width="109" height="112"/>
			</defs>
			<clipPath id="SVGID_00000131335671950624860840000001866644219132833941_">
				<use xlink:href="#SVGID_1_"  style="overflow:visible;"/>
			</clipPath>
			<g style="clip-path:url(#SVGID_00000131335671950624860840000001866644219132833941_);">
				<defs>
					<rect id="SVGID_00000083783447572006946710000017346717934811075234_" x="55.086" y="59.256" width="40.669" height="38.744"/>
				</defs>
				<clipPath id="SVGID_00000107588598279479440080000011716007742982103198_">
					<use xlink:href="#SVGID_00000083783447572006946710000017346717934811075234_"  style="overflow:visible;"/>
				</clipPath>
				<path style="clip-path:url(#SVGID_00000107588598279479440080000011716007742982103198_);fill:#AD70D6;" d="M95.755,77.537
					v4.276c-0.097,0.317-0.185,0.633-0.282,0.95c-0.603,1.92-1.069,3.9-1.846,5.741c-0.408,0.97-1.215,1.881-2.05,2.534
					c-1.691,1.326-3.518,2.455-5.384,3.722c0.525,0.911,1.098,1.91,1.691,2.93c-2.595,0.901-13.935-0.287-15.189-1.594
					c0.972-2.583,1.808-5.226,2.847-7.889c0.632-1.584,1.331-3.187,2.167-4.771c0.923,1.158,1.681,2.108,2.459,3.088
					c1.769-1.287,3.489-2.544,5.277-3.85c0.214-1.989,2.497-3.425,1.361-5.998c0.777,0.069,1.312,0.129,1.846,0.168
					c2.148,0.168,4.295,0.327,6.443,0.495C95.318,77.359,95.541,77.468,95.755,77.537"/>
				<path style="clip-path:url(#SVGID_00000107588598279479440080000011716007742982103198_);fill:#5699DE;" d="M88.476,59.256
					c1.623,1.158,6.171,9.363,7.113,12.837c-2.993,0.99-6.035,1.791-9.213,2.405c-1.108,0.218-2.225,0.416-3.362,0.584
					c0.408-1.356,0.719-2.425,1.108-3.712c-2.138-0.713-4.237-1.811-6.414-2.019c-1.895-0.178-4.15-0.287-5.675,1.643
					c-0.292-0.525-0.583-1.039-0.865-1.544c-1.069-1.9-2.089-3.722-3.139-5.592c2.128-1.623,4.324-3.237,7.104-3.682
					c0.117-0.02,0.253,0.01,0.35-0.03c3.722-1.791,6.909-0.139,10.097,1.603c0.466,0.247,0.982,0.396,1.545,0.624
					C87.592,61.295,88.029,60.285,88.476,59.256"/>
				<path style="clip-path:url(#SVGID_00000107588598279479440080000011716007742982103198_);fill:#E1D153;" d="M58.623,83.762
					c-0.233-1.554-0.097-3.177-0.126-4.781c-0.01-0.455,0-0.92,0-1.396c-1.244-0.069-2.332-0.129-3.411-0.178
					c0.194-2.326,7.075-11.739,9.125-12.451c1.545,1.9,3.168,3.771,4.694,5.81c1.186,1.574,2.303,3.256,3.294,5.137
					c-1.467,0.208-2.546,0.356-3.79,0.534c0.165,2.108-0.058,4.355,0.622,6.255c0.661,1.841,1.769,3.751,4.13,4.731
					c-1.74,2.494-3.353,4.81-5.034,7.225c-2.546-1.465-5.044-2.821-6.666-5.355c-0.311-0.485-0.758-0.881-1.166-1.287
					C59.118,86.84,58.856,85.267,58.623,83.762"/>
			</g>
			<g style="clip-path:url(#SVGID_00000131335671950624860840000001866644219132833941_);">
				<defs>
					<polygon id="SVGID_00000111173011143691909940000014360197260263594902_" points="31.017,7.279 46.695,32.43 62.102,22.467 
						46.424,-2.682 					"/>
				</defs>
				<clipPath id="SVGID_00000039098239033647420900000013295384609354387349_">
					<use xlink:href="#SVGID_00000111173011143691909940000014360197260263594902_"  style="overflow:visible;"/>
				</clipPath>
				<path style="clip-path:url(#SVGID_00000039098239033647420900000013295384609354387349_);fill:#F26C2B;" d="M54.858,22.847
					c0.726,1.09,2.876,0.532,2.79,2.499c-3.743,2.103-7.438,4.189-11.375,6.405c-1.693-3.899-2.512-8-3.639-11.985
					c0.165-0.364,0.309-0.669,0.468-1.042c1.325,0.41,2.674,0.838,4.059,1.268c1.828-2.238,1.096-4.613,0.247-6.62
					c-1.381-3.269-4.388-2.848-6.882-2.49c-0.839,0.426-1.412,0.726-2.18,1.117c-0.941-2.709-1.795-5.169-2.654-7.674
					c0.194-0.15,0.333-0.332,0.493-0.353c1.973-0.362,3.966-1.042,5.919-0.956c4.894,0.224,9.033,2.191,11.891,6.463
					c1.822,2.737,2.803,5.678,2.14,8.991C55.845,19.923,55.312,21.323,54.858,22.847"/>
			</g>
			<g style="clip-path:url(#SVGID_00000131335671950624860840000001866644219132833941_);">
				<defs>
					<polygon id="SVGID_00000070095468587874230010000011400450014130958502_" points="52.535,45.532 63.491,60.397 86.883,42.513 
						75.928,27.649 					"/>
				</defs>
				<clipPath id="SVGID_00000152980626795718495490000002465004233115614139_">
					<use xlink:href="#SVGID_00000070095468587874230010000011400450014130958502_"  style="overflow:visible;"/>
				</clipPath>
				<path style="clip-path:url(#SVGID_00000152980626795718495490000002465004233115614139_);fill:#55C95A;" d="M62.552,53.072
					c-1.01,0.822-0.297,2.962-2.229,3.028c-2.351-3.636-4.68-7.226-7.158-11.05c3.684-2.024,7.634-3.176,11.448-4.63
					c0.369,0.138,0.678,0.261,1.055,0.393c-0.297,1.379-0.611,2.782-0.923,4.222c2.333,1.681,4.601,0.753,6.499-0.266
					c3.092-1.658,2.446-4.679,1.9-7.182c-0.482-0.82-0.821-1.377-1.265-2.128c2.579-1.167,4.921-2.227,7.305-3.294
					c0.162,0.185,0.352,0.312,0.385,0.473c0.508,1.976,1.329,3.947,1.398,5.936c0.164,4.986-1.438,9.342-5.397,12.577
					c-2.538,2.065-5.339,3.29-8.634,2.876C65.492,53.845,64.08,53.413,62.552,53.072"/>
			</g>
			<g style="clip-path:url(#SVGID_00000131335671950624860840000001866644219132833941_);">
				<defs>
					<polygon id="SVGID_00000062873263153630155850000018102041435468275628_" points="-1.798,41.312 9.144,56.188 32.553,38.326 
						21.611,23.451 					"/>
				</defs>
				<clipPath id="SVGID_00000117658030456129793290000002600812070925973376_">
					<use xlink:href="#SVGID_00000062873263153630155850000018102041435468275628_"  style="overflow:visible;"/>
				</clipPath>
				<path style="clip-path:url(#SVGID_00000117658030456129793290000002600812070925973376_);fill:#E33A3A;" d="M22.543,30.776
					c1.011-0.821,0.299-2.962,2.231-3.026c2.348,3.638,4.675,7.23,7.148,11.056c-3.686,2.021-7.638,3.169-11.452,4.62
					c-0.37-0.139-0.679-0.262-1.055-0.394c0.298-1.378,0.613-2.781,0.928-4.219c-2.331-1.685-4.601-0.757-6.5,0.259
					c-3.093,1.656-2.45,4.677-1.906,7.181c0.481,0.82,0.819,1.378,1.262,2.129c-2.58,1.164-4.922,2.222-7.308,3.287
					c-0.161-0.186-0.351-0.313-0.384-0.473C5,49.22,4.181,47.248,4.114,45.258c-0.158-4.986,1.447-9.34,5.408-12.573
					c2.539-2.062,5.342-3.285,8.636-2.867C19.605,30.001,21.015,30.433,22.543,30.776"/>
			</g>
			<g style="clip-path:url(#SVGID_00000131335671950624860840000001866644219132833941_);">
				<defs>
					<polygon id="SVGID_00000127751395814684739370000001737786047497269951_" points="22.771,59.942 37.08,85.925 52.996,76.833 
						38.689,50.851 					"/>
				</defs>
				<clipPath id="SVGID_00000135689052200080465060000005088064578842577842_">
					<use xlink:href="#SVGID_00000127751395814684739370000001737786047497269951_"  style="overflow:visible;"/>
				</clipPath>
				<path style="clip-path:url(#SVGID_00000135689052200080465060000005088064578842577842_);fill:#9F9EB1;" d="M30.025,59.964
					c-0.666-1.129-2.843-0.691-2.651-2.65c3.849-1.893,7.652-3.769,11.7-5.764c1.483,3.988,2.08,8.128,2.991,12.17
					c-0.183,0.355-0.344,0.65-0.523,1.013c-1.301-0.482-2.626-0.985-3.986-1.491c-1.945,2.133-1.34,4.545-0.601,6.597
					c1.204,3.341,4.229,3.088,6.738,2.869c0.861-0.379,1.449-0.645,2.238-0.994c0.794,2.757,1.515,5.262,2.239,7.811
					c-0.202,0.138-0.351,0.313-0.511,0.326c-1.989,0.251-4.017,0.82-5.962,0.625c-4.874-0.495-8.901-2.689-11.526-7.113
					c-1.673-2.835-2.496-5.826-1.656-9.097C28.884,62.829,29.49,61.461,30.025,59.964"/>
			</g>
			<polygon style="clip-path:url(#SVGID_00000131335671950624860840000001866644219132833941_);fill:#523742;" points="
				37.381,49.178 35.647,47.372 35.288,47.079 34.815,46.322 34.743,45.856 34.032,44.241 33.601,42.516 33.267,40.208 
				33.971,37.983 35.11,35.941 37.501,33.661 37.502,33.659 39.694,32.582 42.105,32.403 44.495,32.555 46.696,33.547 
				48.285,34.888 49.749,36.152 50.655,37.605 51.255,40.532 51.541,42.926 50.862,45.215 49.68,47.335 48.424,48.731 
				46.788,49.789 45.313,50.348 43.294,51.01 41.192,50.873 39.12,50.431 			"/>
		</g>
	</g>
</g>
<g id="Layer_2">
	<g id="Layer_3">
	</g>
</g>
</svg>
