<?xml version="1.0" encoding="iso-8859-1"?>
<!-- Generator: Adobe Illustrator 26.0.1, SVG Export Plug-In . SVG Version: 6.00 Build 0)  -->
<svg version="1.1" id="Layer_1" xmlns="http://www.w3.org/2000/svg" xmlns:xlink="http://www.w3.org/1999/xlink" x="0px" y="0px"
	 viewBox="0 0 100 100" style="enable-background:new 0 0 100 100;" xml:space="preserve">
<g id="L2_1_" style="display:none;">
	<g style="display:inline;">
		<defs>
			
				<rect id="SVGID_1_" x="58.278" y="59.27" transform="matrix(0.887 -0.4617 0.4617 0.887 -27.0611 42.8151)" width="31.359" height="34.868"/>
		</defs>
		<clipPath id="SVGID_00000165948464638385840160000007728167751689458623_">
			<use xlink:href="#SVGID_1_"  style="overflow:visible;"/>
		</clipPath>
		<g style="clip-path:url(#SVGID_00000165948464638385840160000007728167751689458623_);">
			<defs>
				
					<rect id="SVGID_00000039130717733939545910000003293745704409090977_" x="58.279" y="59.27" transform="matrix(0.887 -0.4617 0.4617 0.887 -27.0611 42.8152)" width="31.359" height="34.868"/>
			</defs>
			<clipPath id="SVGID_00000088112788774673903280000015523982467923076758_">
				<use xlink:href="#SVGID_00000039130717733939545910000003293745704409090977_"  style="overflow:visible;"/>
			</clipPath>
			<g style="clip-path:url(#SVGID_00000088112788774673903280000015523982467923076758_);">
				<defs>
					
						<rect id="SVGID_00000107558907611160853400000013613458769065595560_" x="55.755" y="59.884" transform="matrix(0.887 -0.4617 0.4617 0.887 -23.9861 40.5194)" width="30.098" height="18.779"/>
				</defs>
				<clipPath id="SVGID_00000073684870756515795310000017645404581085029529_">
					<use xlink:href="#SVGID_00000107558907611160853400000013613458769065595560_"  style="overflow:visible;"/>
				</clipPath>
				<g style="clip-path:url(#SVGID_00000073684870756515795310000017645404581085029529_);">
					<defs>
						
							<rect id="SVGID_00000069364833584725851260000017965987622814763953_" x="55.755" y="59.884" transform="matrix(0.887 -0.4617 0.4617 0.887 -23.9861 40.5194)" width="30.098" height="18.779"/>
					</defs>
					<clipPath id="SVGID_00000078038673705377023750000016645859346045601422_">
						<use xlink:href="#SVGID_00000069364833584725851260000017965987622814763953_"  style="overflow:visible;"/>
					</clipPath>
					<path style="clip-path:url(#SVGID_00000078038673705377023750000016645859346045601422_);fill:#9F9EB1;" d="M79.563,61.455
						c1.161-0.65,0.789-2.902,2.761-2.644c1.788,4.019,3.561,7.988,5.446,12.216c-4.074,1.399-8.275,1.884-12.386,2.693
						c-0.352-0.2-0.646-0.374-1.007-0.57c0.529-1.324,1.079-2.67,1.634-4.052c-2.091-2.068-4.547-1.523-6.642-0.827
						c-3.412,1.134-3.254,4.253-3.113,6.84c0.355,0.898,0.606,1.511,0.933,2.333c-2.81,0.73-5.362,1.393-7.959,2.058
						c-0.133-0.213-0.306-0.371-0.313-0.536c-0.19-2.054-0.698-4.157-0.44-6.152c0.657-4.998,3.001-9.07,7.553-11.631
						c2.916-1.631,5.964-2.383,9.24-1.416C76.707,60.191,78.069,60.857,79.563,61.455"/>
				</g>
			</g>
			<g style="clip-path:url(#SVGID_00000088112788774673903280000015523982467923076758_);">
				<defs>
					
						<rect id="SVGID_00000007429404028945209680000000046591066421265056_" x="62.239" y="75.445" transform="matrix(0.887 -0.4617 0.4617 0.887 -30.3499 45.0689)" width="29.36" height="18.213"/>
				</defs>
				<clipPath id="SVGID_00000150825442833810741460000014535491217659230120_">
					<use xlink:href="#SVGID_00000007429404028945209680000000046591066421265056_"  style="overflow:visible;"/>
				</clipPath>
				<g style="clip-path:url(#SVGID_00000150825442833810741460000014535491217659230120_);">
					<defs>
						
							<rect id="SVGID_00000073720100149364474360000010445369554849220501_" x="62.239" y="75.445" transform="matrix(0.887 -0.4617 0.4617 0.887 -30.3499 45.0689)" width="29.36" height="18.213"/>
					</defs>
					<clipPath id="SVGID_00000074411936007867732710000001005520149682045597_">
						<use xlink:href="#SVGID_00000073720100149364474360000010445369554849220501_"  style="overflow:visible;"/>
					</clipPath>
					<path style="clip-path:url(#SVGID_00000074411936007867732710000001005520149682045597_);fill:#523742;" d="M88.409,74.832
						c0.05,0.312,0.126,0.611,0.144,0.906c0.245,3.762,0.423,7.592-1.665,10.9c-1.173,1.862-2.956,3.331-4.463,4.984
						c-1.547,1.685-3.765,1.734-5.746,2.303c-1.634,0.478-3.257-0.063-4.822-0.601c-1.124-0.384-2.24-0.795-3.631-1.301
						c-0.766,0.737-1.607,1.547-2.642,2.548c-1.703-3.792-3.398-7.589-5.218-11.669c4.098-0.791,8.075-1.554,12.462-2.395
						c-0.576,1.45-1.036,2.602-1.473,3.732l0.734,1.41c2.518,1.609,4.855,0.945,7.331-0.276c3.071-1.508,2.435-4.266,2.682-6.954
						l-0.887-1.703C83.648,76.081,85.986,75.462,88.409,74.832"/>
				</g>
			</g>
		</g>
	</g>
</g>
<g id="T2_x5F_3_1_" style="display:none;">
	<g style="display:inline;">
		<defs>
			
				<rect id="SVGID_00000052794892788815996840000014071641741595943601_" x="9.413" y="46.357" transform="matrix(0.6229 -0.7823 0.7823 0.6229 -39.0102 52.362)" width="50.788" height="40.574"/>
		</defs>
		<clipPath id="SVGID_00000108988211321531684080000008852447366251996844_">
			<use xlink:href="#SVGID_00000052794892788815996840000014071641741595943601_"  style="overflow:visible;"/>
		</clipPath>
		<g style="clip-path:url(#SVGID_00000108988211321531684080000008852447366251996844_);">
			<defs>
				<polygon id="SVGID_00000181082873462761803240000013042258755525930152_" points="15.946,84.086 34.376,61.788 21.735,51.34 
					3.336,73.6 3.306,73.639 				"/>
			</defs>
			<clipPath id="SVGID_00000145747071933366895200000001863513772920641156_">
				<use xlink:href="#SVGID_00000181082873462761803240000013042258755525930152_"  style="overflow:visible;"/>
			</clipPath>
			<path style="clip-path:url(#SVGID_00000145747071933366895200000001863513772920641156_);fill:#55C95A;" d="M15.492,77.731
				c-2.825-0.49-8.981-4.829-8.981-4.829c0.503-2.178,0.935-1.991,2.413-4.49c0.061-0.102,1.223-1.442,1.275-1.542
				c0.283-0.57,3.508-4.222,6.947-5.631c0.502-0.207,0.959-0.526,1.499-0.826c-0.529-1.06-1.027-2.062-1.537-3.081
				c1.967-0.536,11.335,1.136,14.656,2.623c-1.605,4.052-3.517,7.945-5.911,11.898c-0.792-1.194-1.416-2.132-2.17-3.267
				c-1.956,1.237-3.554,2.287-5.139,3.883C17.16,73.862,15.996,75.552,15.492,77.731"/>
		</g>
		<g style="clip-path:url(#SVGID_00000108988211321531684080000008852447366251996844_);">
			<defs>
				
					<rect id="SVGID_00000153682127781752721970000000886328406135158411_" x="35.981" y="46.416" transform="matrix(0.057 -0.9984 0.9984 0.057 -19.1172 101.5208)" width="16.4" height="28.929"/>
			</defs>
			<clipPath id="SVGID_00000131329724754505986520000011995031675016867255_">
				<use xlink:href="#SVGID_00000153682127781752721970000000886328406135158411_"  style="overflow:visible;"/>
			</clipPath>
			<path style="clip-path:url(#SVGID_00000131329724754505986520000011995031675016867255_);fill:#E1D153;" d="M34.126,64.115
				c-1.277-2.567-1.427-10.098-1.427-10.098c2.053-0.885,2.158-0.426,5.049-0.714c0.118-0.012,1.886,0.133,1.996,0.113
				c0.627-0.109,5.48,0.329,8.651,2.264c0.465,0.282,0.992,0.462,1.553,0.719c0.542-1.053,1.053-2.048,1.574-3.064
				c1.596,1.269,5.796,9.807,6.563,13.364c-4.216,1.106-8.485,1.871-13.088,2.283c0.493-1.346,0.881-2.404,1.348-3.683
				c-2.155-0.843-3.947-1.508-6.173-1.842C38.229,63.167,36.179,63.231,34.126,64.115"/>
		</g>
	</g>
</g>
<g id="T2_x5F_3_2_" style="display:none;">
	<g style="display:inline;">
		<defs>
			
				<rect id="SVGID_00000109002699301472852760000016664687414151075219_" x="24.465" y="21.047" transform="matrix(0.996 -0.0892 0.0892 0.996 -3.4901 4.6148)" width="50.788" height="40.574"/>
		</defs>
		<clipPath id="SVGID_00000112595895793132747230000006371202560538457514_">
			<use xlink:href="#SVGID_00000109002699301472852760000016664687414151075219_"  style="overflow:visible;"/>
		</clipPath>
		<g style="clip-path:url(#SVGID_00000112595895793132747230000006371202560538457514_);">
			<defs>
				<polygon id="SVGID_00000104672644131114980110000012656528504526266556_" points="24.219,39.725 53.075,37.671 51.91,21.312 
					23.103,23.363 23.054,23.368 				"/>
			</defs>
			<clipPath id="SVGID_00000134941950635337498070000008994869596584394415_">
				<use xlink:href="#SVGID_00000104672644131114980110000012656528504526266556_"  style="overflow:visible;"/>
			</clipPath>
			<path style="clip-path:url(#SVGID_00000134941950635337498070000008994869596584394415_);fill:#F26C2B;" d="M28.505,35.01
				c-1.595-2.382-2.704-9.832-2.704-9.832c1.923-1.139,2.086-0.698,4.915-1.353c0.116-0.026,1.888-0.11,1.995-0.142
				c0.608-0.189,5.476-0.375,8.869,1.14c0.497,0.221,1.043,0.331,1.632,0.514c0.402-1.114,0.783-2.167,1.169-3.239
				c1.746,1.053,7.002,8.986,8.218,12.416c-4.04,1.635-8.176,2.939-12.689,3.935c0.318-1.397,0.565-2.496,0.866-3.825
				c-2.245-0.562-4.108-0.993-6.357-1.039C32.455,33.547,30.429,33.871,28.505,35.01"/>
		</g>
		<g style="clip-path:url(#SVGID_00000112595895793132747230000006371202560538457514_);">
			<defs>
				
					<rect id="SVGID_00000041285512838562506870000014513994984255396789_" x="52.3" y="29.674" transform="matrix(0.7617 -0.6479 0.6479 0.7617 -14.1818 49.7132)" width="16.4" height="28.929"/>
			</defs>
			<clipPath id="SVGID_00000070098306284565469970000000359437543033671593_">
				<use xlink:href="#SVGID_00000041285512838562506870000014513994984255396789_"  style="overflow:visible;"/>
			</clipPath>
			<path style="clip-path:url(#SVGID_00000070098306284565469970000000359437543033671593_);fill:#5699DE;" d="M51.219,39.095
				c0.976-2.696,6.322-8.002,6.322-8.002c2.057,0.875,1.797,1.268,4.001,3.161c0.09,0.077,1.206,1.456,1.296,1.522
				c0.512,0.379,3.544,4.192,4.333,7.822c0.117,0.531,0.35,1.037,0.552,1.62c1.136-0.335,2.209-0.652,3.303-0.976
				c0.184,2.031-3.096,10.963-5.14,13.974c-3.71-2.287-7.21-4.848-10.685-7.895c1.314-0.573,2.347-1.022,3.595-1.567
				c-0.878-2.141-1.633-3.897-2.928-5.738C54.737,41.41,53.276,39.971,51.219,39.095"/>
		</g>
	</g>
</g>
<g id="T2_x5F_3_3_" style="display:none;">
	<g style="display:inline;">
		<defs>
			
				<rect id="SVGID_00000010301574901920327810000014862385392496618416_" x="57.933" y="7.225" transform="matrix(0.6372 -0.7707 0.7707 0.6372 3.2415 72.1224)" width="40.574" height="50.788"/>
		</defs>
		<clipPath id="SVGID_00000042711828625856146660000006172671749264989610_">
			<use xlink:href="#SVGID_00000010301574901920327810000014862385392496618416_"  style="overflow:visible;"/>
		</clipPath>
		<g style="clip-path:url(#SVGID_00000042711828625856146660000006172671749264989610_);">
			<defs>
				<polygon id="SVGID_00000116948857246469938130000014084224821341743234_" points="61.127,13.44 83.083,32.277 93.761,19.83 
					71.843,1.025 71.805,0.994 				"/>
			</defs>
			<clipPath id="SVGID_00000111170821062170606880000010939607473424482688_">
				<use xlink:href="#SVGID_00000116948857246469938130000014084224821341743234_"  style="overflow:visible;"/>
			</clipPath>
			<path style="clip-path:url(#SVGID_00000111170821062170606880000010939607473424482688_);fill:#E33A3A;" d="M67.49,13.103
				c0.542-2.815,4.994-8.891,4.994-8.891c2.168,0.543,1.974,0.971,4.445,2.495c0.101,0.063,1.419,1.25,1.518,1.303
				c0.565,0.293,4.157,3.585,5.502,7.049c0.198,0.506,0.508,0.969,0.799,1.514c1.07-0.509,2.08-0.989,3.109-1.48
				c0.5,1.977-1.344,11.312-2.892,14.606c-4.022-1.68-7.879-3.662-11.788-6.129c1.208-0.77,2.158-1.377,3.306-2.109
				c-1.201-1.979-2.221-3.596-3.788-5.21C71.327,14.842,69.659,13.647,67.49,13.103"/>
		</g>
		<g style="clip-path:url(#SVGID_00000042711828625856146660000006172671749264989610_);">
			<defs>
				
					<rect id="SVGID_00000063624564108024033940000004346490695937175724_" x="69.346" y="33.896" transform="matrix(0.0753 -0.9972 0.9972 0.0753 35.5236 122.4997)" width="28.929" height="16.4"/>
			</defs>
			<clipPath id="SVGID_00000103944362270725220510000015394472647511018901_">
				<use xlink:href="#SVGID_00000063624564108024033940000004346490695937175724_"  style="overflow:visible;"/>
			</clipPath>
			<path style="clip-path:url(#SVGID_00000103944362270725220510000015394472647511018901_);fill:#AD70D6;" d="M80.761,31.984
				c2.59-1.23,10.122-1.241,10.122-1.241c0.847,2.069,0.386,2.165,0.621,5.061c0.01,0.118-0.167,1.883-0.15,1.994
				c0.097,0.629-0.43,5.473-2.422,8.608c-0.29,0.459-0.481,0.983-0.747,1.54c1.043,0.561,2.028,1.09,3.034,1.63
				c-1.298,1.573-9.912,5.615-13.483,6.317c-1.028-4.235-1.715-8.518-2.042-13.128c1.337,0.517,2.387,0.925,3.658,1.415
				c0.882-2.139,1.58-3.919,1.955-6.138C81.634,36.104,81.607,34.053,80.761,31.984"/>
		</g>
	</g>
</g>
<g id="G_x28__T2_T2_T2_L2__x29__00000165940877089327296860000012595016154105808523_">
	<g>
		<defs>
			<rect id="SVGID_00000131329049751871768000000007393898628966903185_" x="3" y="1" width="107.599" height="98.606"/>
		</defs>
		<clipPath id="SVGID_00000021116892570011451560000018008510578395961018_">
			<use xlink:href="#SVGID_00000131329049751871768000000007393898628966903185_"  style="overflow:visible;"/>
		</clipPath>
		<g style="clip-path:url(#SVGID_00000021116892570011451560000018008510578395961018_);">
			<defs>
				
					<rect id="SVGID_00000171693035502742803290000014133326789517723810_" x="55.638" y="60.084" transform="matrix(0.887 -0.4618 0.4618 0.887 -24.0926 40.4907)" width="30.095" height="18.776"/>
			</defs>
			<clipPath id="SVGID_00000094595307254722376240000007935685158173059220_">
				<use xlink:href="#SVGID_00000171693035502742803290000014133326789517723810_"  style="overflow:visible;"/>
			</clipPath>
			<path style="clip-path:url(#SVGID_00000094595307254722376240000007935685158173059220_);fill:#9F9EB1;" d="M79.445,61.652
				c1.161-0.65,0.789-2.902,2.761-2.645c1.788,4.02,3.561,7.99,5.446,12.216c-4.074,1.4-8.275,1.884-12.386,2.694
				c-0.352-0.201-0.646-0.374-1.007-0.57c0.529-1.323,1.08-2.67,1.634-4.051c-2.092-2.069-4.547-1.523-6.642-0.828
				c-3.412,1.134-3.254,4.253-3.114,6.841c0.355,0.898,0.607,1.511,0.933,2.333c-2.811,0.731-5.362,1.394-7.959,2.058
				c-0.134-0.213-0.306-0.371-0.313-0.536c-0.19-2.055-0.699-4.158-0.44-6.153c0.656-4.997,3.001-9.07,7.553-11.63
				c2.916-1.631,5.963-2.383,9.239-1.417C76.589,60.387,77.95,61.054,79.445,61.652"/>
		</g>
		<g style="clip-path:url(#SVGID_00000021116892570011451560000018008510578395961018_);">
			<defs>
				
					<rect id="SVGID_00000062160597036494939480000004722204137123286927_" x="62.121" y="75.642" transform="matrix(0.887 -0.4617 0.4617 0.887 -30.4524 45.0315)" width="29.359" height="18.213"/>
			</defs>
			<clipPath id="SVGID_00000080186874882833261770000000843708418010466207_">
				<use xlink:href="#SVGID_00000062160597036494939480000004722204137123286927_"  style="overflow:visible;"/>
			</clipPath>
			<path style="clip-path:url(#SVGID_00000080186874882833261770000000843708418010466207_);fill:#523742;" d="M88.291,75.029
				c0.05,0.312,0.126,0.61,0.145,0.905c0.245,3.762,0.423,7.593-1.666,10.901c-1.172,1.862-2.956,3.331-4.462,4.983
				c-1.547,1.686-3.765,1.734-5.746,2.304c-1.634,0.478-3.257-0.064-4.823-0.602c-1.124-0.384-2.24-0.795-3.631-1.3
				c-0.765,0.737-1.607,1.547-2.641,2.548c-1.703-3.792-3.399-7.589-5.218-11.67c4.098-0.791,8.074-1.553,12.462-2.394
				c-0.575,1.449-1.035,2.601-1.473,3.731l0.734,1.411c2.517,1.61,4.855,0.945,7.331-0.276c3.07-1.508,2.435-4.267,2.682-6.954
				l-0.886-1.703C83.53,76.278,85.868,75.659,88.291,75.029"/>
		</g>
		<g style="clip-path:url(#SVGID_00000021116892570011451560000018008510578395961018_);">
			<defs>
				<polygon id="SVGID_00000171689607867648093800000011068983085202683012_" points="3.217,73.799 3.187,73.836 15.82,84.278 
					15.827,84.283 34.257,61.986 21.617,51.537 				"/>
			</defs>
			<clipPath id="SVGID_00000183206851031221464430000013983172292353595549_">
				<use xlink:href="#SVGID_00000171689607867648093800000011068983085202683012_"  style="overflow:visible;"/>
			</clipPath>
			<path style="clip-path:url(#SVGID_00000183206851031221464430000013983172292353595549_);fill:#55C95A;" d="M15.374,77.928
				c-2.824-0.49-8.98-4.829-8.98-4.829c0.502-2.178,0.934-1.991,2.413-4.49c0.061-0.103,1.223-1.442,1.275-1.542
				c0.282-0.57,3.508-4.222,6.946-5.631c0.502-0.207,0.959-0.526,1.499-0.826c-0.529-1.06-1.028-2.062-1.537-3.081
				c1.967-0.537,11.335,1.135,14.656,2.624c-1.605,4.051-3.517,7.944-5.911,11.897c-0.792-1.193-1.416-2.132-2.17-3.267
				c-1.956,1.238-3.554,2.288-5.139,3.883C17.042,74.06,15.878,75.749,15.374,77.928"/>
		</g>
		<g style="clip-path:url(#SVGID_00000021116892570011451560000018008510578395961018_);">
			<defs>
				<polygon id="SVGID_00000085239793947644773640000012959138771745811901_" points="29.154,68.441 58.036,70.088 58.97,53.716 
					58.969,53.715 30.088,52.067 				"/>
			</defs>
			<clipPath id="SVGID_00000130615434704678992880000005715610835446452658_">
				<use xlink:href="#SVGID_00000085239793947644773640000012959138771745811901_"  style="overflow:visible;"/>
			</clipPath>
			<path style="clip-path:url(#SVGID_00000130615434704678992880000005715610835446452658_);fill:#E1D153;" d="M34.007,64.313
				c-1.277-2.567-1.427-10.099-1.427-10.099c2.053-0.884,2.158-0.424,5.049-0.713c0.118-0.012,1.886,0.132,1.996,0.113
				c0.628-0.109,5.48,0.329,8.652,2.263c0.464,0.283,0.991,0.463,1.553,0.719c0.541-1.053,1.052-2.048,1.574-3.063
				C53,54.801,57.2,63.34,57.966,66.898c-4.214,1.105-8.484,1.871-13.087,2.282c0.493-1.346,0.881-2.403,1.348-3.683
				c-2.156-0.843-3.948-1.508-6.173-1.842C38.111,63.365,36.061,63.428,34.007,64.313"/>
		</g>
		<g style="clip-path:url(#SVGID_00000021116892570011451560000018008510578395961018_);">
			<defs>
				<polygon id="SVGID_00000018953980520137826050000010289500520122124718_" points="23.005,23.559 22.936,23.565 24.1,39.917 
					24.101,39.922 52.955,37.868 51.792,21.51 				"/>
			</defs>
			<clipPath id="SVGID_00000127019824691753515780000011055695010907327146_">
				<use xlink:href="#SVGID_00000018953980520137826050000010289500520122124718_"  style="overflow:visible;"/>
			</clipPath>
			<path style="clip-path:url(#SVGID_00000127019824691753515780000011055695010907327146_);fill:#F26C2B;" d="M28.386,35.208
				c-1.595-2.382-2.704-9.832-2.704-9.832c1.923-1.139,2.086-0.698,4.915-1.353c0.116-0.026,1.888-0.109,1.995-0.141
				c0.607-0.189,5.477-0.376,8.869,1.139c0.497,0.221,1.043,0.332,1.633,0.515c0.402-1.114,0.782-2.166,1.168-3.239
				c1.746,1.053,7.002,8.986,8.218,12.416c-4.04,1.635-8.176,2.939-12.689,3.935c0.317-1.397,0.565-2.496,0.866-3.824
				c-2.245-0.562-4.108-0.994-6.357-1.039C32.336,33.745,30.31,34.069,28.386,35.208"/>
		</g>
		<g style="clip-path:url(#SVGID_00000021116892570011451560000018008510578395961018_);">
			<defs>
				<polygon id="SVGID_00000143602915757220506150000008467730228834514870_" points="44.764,38.631 63.506,60.666 75.998,50.042 
					75.998,50.04 57.257,28.005 				"/>
			</defs>
			<clipPath id="SVGID_00000166672411880067080050000017158514184745637760_">
				<use xlink:href="#SVGID_00000143602915757220506150000008467730228834514870_"  style="overflow:visible;"/>
			</clipPath>
			<path style="clip-path:url(#SVGID_00000166672411880067080050000017158514184745637760_);fill:#5699DE;" d="M51.1,39.293
				c0.976-2.696,6.322-8.002,6.322-8.002c2.057,0.875,1.797,1.268,4.001,3.16c0.09,0.078,1.205,1.457,1.296,1.523
				c0.512,0.379,3.544,4.192,4.333,7.822c0.117,0.531,0.351,1.037,0.552,1.621c1.136-0.335,2.209-0.652,3.304-0.976
				c0.183,2.031-3.097,10.963-5.141,13.974c-3.71-2.288-7.211-4.848-10.686-7.895c1.315-0.573,2.348-1.022,3.596-1.568
				c-0.878-2.141-1.634-3.896-2.928-5.737C54.619,41.608,53.158,40.169,51.1,39.293"/>
		</g>
		<g style="clip-path:url(#SVGID_00000021116892570011451560000018008510578395961018_);">
			<defs>
				<polygon id="SVGID_00000080904155177898189890000017355993899970293431_" points="61.009,13.637 82.963,32.474 93.642,20.028 
					71.729,1.227 71.715,1.215 71.686,1.192 				"/>
			</defs>
			<clipPath id="SVGID_00000045612643667778546530000000803596898750245804_">
				<use xlink:href="#SVGID_00000080904155177898189890000017355993899970293431_"  style="overflow:visible;"/>
			</clipPath>
			<path style="clip-path:url(#SVGID_00000045612643667778546530000000803596898750245804_);fill:#E33A3A;" d="M67.371,13.301
				c0.542-2.815,4.994-8.891,4.994-8.891c2.168,0.543,1.974,0.972,4.445,2.495c0.101,0.063,1.419,1.25,1.518,1.303
				c0.564,0.294,4.156,3.586,5.502,7.049c0.198,0.506,0.509,0.969,0.799,1.514c1.069-0.509,2.08-0.989,3.109-1.48
				c0.5,1.976-1.344,11.312-2.892,14.606c-4.022-1.68-7.879-3.662-11.788-6.129c1.209-0.77,2.158-1.377,3.306-2.11
				c-1.201-1.978-2.222-3.595-3.788-5.21C71.209,15.039,69.54,13.844,67.371,13.301"/>
		</g>
		<g style="clip-path:url(#SVGID_00000021116892570011451560000018008510578395961018_);">
			<defs>
				<polygon id="SVGID_00000115485915462979546400000001626292407442294926_" points="74.427,56.1 74.427,56.1 90.78,57.334 
					92.958,28.488 76.604,27.253 				"/>
			</defs>
			<clipPath id="SVGID_00000055684620463929744510000015279219926125167521_">
				<use xlink:href="#SVGID_00000115485915462979546400000001626292407442294926_"  style="overflow:visible;"/>
			</clipPath>
			<path style="clip-path:url(#SVGID_00000055684620463929744510000015279219926125167521_);fill:#AD70D6;" d="M80.642,32.181
				c2.591-1.229,10.123-1.241,10.123-1.241c0.847,2.069,0.386,2.165,0.62,5.061c0.01,0.118-0.167,1.883-0.149,1.994
				c0.097,0.629-0.43,5.473-2.422,8.608c-0.29,0.459-0.481,0.983-0.747,1.54c1.042,0.561,2.028,1.09,3.033,1.63
				c-1.297,1.572-9.911,5.614-13.482,6.316c-1.029-4.235-1.715-8.517-2.042-13.127c1.337,0.517,2.387,0.925,3.658,1.415
				c0.883-2.139,1.58-3.919,1.955-6.138C81.515,36.302,81.489,34.251,80.642,32.181"/>
		</g>
	</g>
</g>
</svg>
