<?xml version="1.0" encoding="iso-8859-1"?>
<!-- Generator: Adobe Illustrator 26.0.1, SVG Export Plug-In . SVG Version: 6.00 Build 0)  -->
<svg version="1.1" xmlns="http://www.w3.org/2000/svg" xmlns:xlink="http://www.w3.org/1999/xlink" x="0px" y="0px"
	 viewBox="0 0 100 100" style="enable-background:new 0 0 100 100;" xml:space="preserve">
<g id="Layer_1">
	<g id="G_x28__tree_x28__T2_T1_T1_L1_x29___x29__l3_00000153697541942776177060000008754246050330265245_">
		<g>
			<defs>
				<rect id="SVGID_1_" x="12" y="2" width="74.738" height="94.147"/>
			</defs>
			<clipPath id="SVGID_00000021821138573832018120000000331607445359512209_">
				<use xlink:href="#SVGID_1_"  style="overflow:visible;"/>
			</clipPath>
			<g style="clip-path:url(#SVGID_00000021821138573832018120000000331607445359512209_);">
				<defs>
					<rect id="SVGID_00000018207366792704441310000011869144655103053216_" x="24.004" y="57.002" width="41.85" height="39.145"/>
				</defs>
				<clipPath id="SVGID_00000173847203453363802470000015274375632316452750_">
					<use xlink:href="#SVGID_00000018207366792704441310000011869144655103053216_"  style="overflow:visible;"/>
				</clipPath>
				<path style="clip-path:url(#SVGID_00000173847203453363802470000015274375632316452750_);fill:#55C95A;" d="M65.854,75.472v4.32
					c-0.1,0.32-0.19,0.64-0.29,0.96c-0.62,1.94-1.1,3.94-1.9,5.8c-0.42,0.98-1.25,1.9-2.11,2.56c-1.74,1.34-3.62,2.48-5.54,3.76
					c0.54,0.92,1.13,1.93,1.74,2.96c-2.67,0.91-14.34-0.29-15.63-1.61c1-2.61,1.86-5.28,2.93-7.97c0.65-1.6,1.37-3.22,2.23-4.82
					c0.95,1.17,1.73,2.13,2.53,3.12c1.82-1.3,3.59-2.57,5.43-3.89c0.22-2.01,2.57-3.46,1.4-6.06c0.8,0.07,1.35,0.13,1.9,0.17
					c2.21,0.17,4.42,0.33,6.63,0.5C65.404,75.292,65.634,75.402,65.854,75.472"/>
				<path style="clip-path:url(#SVGID_00000173847203453363802470000015274375632316452750_);fill:#F26C2B;" d="M58.364,57.002
					c1.67,1.17,6.35,9.46,7.32,12.97c-3.08,1-6.21,1.81-9.48,2.43c-1.14,0.22-2.29,0.42-3.46,0.59c0.42-1.37,0.74-2.45,1.14-3.75
					c-2.2-0.72-4.36-1.83-6.6-2.04c-1.95-0.18-4.27-0.29-5.84,1.66c-0.3-0.53-0.6-1.05-0.89-1.56c-1.1-1.92-2.15-3.76-3.23-5.65
					c2.19-1.64,4.45-3.27,7.31-3.72c0.12-0.02,0.26,0.01,0.36-0.03c3.83-1.81,7.11-0.14,10.39,1.62c0.48,0.25,1.01,0.4,1.59,0.63
					C57.454,59.062,57.904,58.042,58.364,57.002"/>
				<path style="clip-path:url(#SVGID_00000173847203453363802470000015274375632316452750_);fill:#E33A3A;" d="M27.644,81.762
					c-0.24-1.57-0.1-3.21-0.13-4.83c-0.01-0.46,0-0.93,0-1.41c-1.28-0.07-2.4-0.13-3.51-0.18c0.2-2.35,7.28-11.86,9.39-12.58
					c1.59,1.92,3.26,3.81,4.83,5.87c1.22,1.59,2.37,3.29,3.39,5.19c-1.51,0.21-2.62,0.36-3.9,0.54c0.17,2.13-0.06,4.4,0.64,6.32
					c0.68,1.86,1.82,3.79,4.25,4.78c-1.79,2.52-3.45,4.86-5.18,7.3c-2.62-1.48-5.19-2.85-6.86-5.41c-0.32-0.49-0.78-0.89-1.2-1.3
					C28.154,84.872,27.884,83.282,27.644,81.762"/>
			</g>
			<polygon style="clip-path:url(#SVGID_00000021821138573832018120000000331607445359512209_);fill:#9F9EB1;" points="
				71.491,41.118 69.884,42.26 68.167,43.508 66.636,45.455 65.879,47.801 65.44,50.249 65.938,52.705 67.563,55.661 69.271,57.305 
				71.271,58.563 73.615,58.807 75.413,58.807 77.175,58.503 77.65,58.546 78.512,58.265 78.889,57.979 81.098,56.702 
				82.768,55.281 83.729,53.326 84.396,51.263 84.264,49.086 84.091,47.479 83.47,45.579 82.423,43.98 80.65,42.27 78.581,41.022 
				76.166,40.708 73.147,40.576 			"/>
			<g style="clip-path:url(#SVGID_00000021821138573832018120000000331607445359512209_);">
				<defs>
					<polygon id="SVGID_00000102515111079689131050000017466359710213183125_" points="37.544,31.17 37.872,47.565 37.872,47.566 
						66.796,46.986 66.467,30.589 					"/>
				</defs>
				<clipPath id="SVGID_00000182492988467149463090000010055573941641134738_">
					<use xlink:href="#SVGID_00000102515111079689131050000017466359710213183125_"  style="overflow:visible;"/>
				</clipPath>
				<path style="clip-path:url(#SVGID_00000182492988467149463090000010055573941641134738_);fill:#523742;" d="M42.394,43.076
					c-1.471-2.461-2.2-9.957-2.2-9.957c1.979-1.04,2.12-0.592,4.979-1.101c0.117-0.02,1.89-0.013,1.999-0.04
					c0.617-0.157,5.488-0.095,8.799,1.59c0.486,0.246,1.025,0.386,1.605,0.598c0.458-1.091,0.892-2.123,1.333-3.175
					c1.689,1.141,6.534,9.331,7.574,12.82c-4.119,1.425-8.317,2.517-12.874,3.282c0.387-1.38,0.691-2.464,1.059-3.775
					c-2.213-0.675-4.052-1.2-6.295-1.362C46.412,41.815,44.373,42.036,42.394,43.076"/>
			</g>
			<g style="clip-path:url(#SVGID_00000021821138573832018120000000331607445359512209_);">
				<defs>
					
						<rect id="SVGID_00000101800281230505896850000016351762279928755378_" x="12.876" y="39.257" transform="matrix(0.6123 -0.7906 0.7906 0.6123 -26.9209 40.0136)" width="28.929" height="16.4"/>
				</defs>
				<clipPath id="SVGID_00000059312085416772976740000006432857370468584638_">
					<use xlink:href="#SVGID_00000101800281230505896850000016351762279928755378_"  style="overflow:visible;"/>
				</clipPath>
				<path style="clip-path:url(#SVGID_00000059312085416772976740000006432857370468584638_);fill:#E1D153;" d="M24.312,57.576
					c-2.839-0.401-9.131-4.542-9.131-4.542c0.434-2.194,0.872-2.02,2.271-4.565c0.057-0.105,1.178-1.48,1.225-1.582
					c0.265-0.579,3.373-4.33,6.764-5.849c0.496-0.222,0.943-0.554,1.473-0.873c-0.562-1.042-1.093-2.027-1.635-3.031
					c1.95-0.598,11.366,0.777,14.733,2.158c-1.477,4.102-3.263,8.053-5.531,12.08c-0.83-1.168-1.483-2.086-2.273-3.196
					c-1.915,1.298-3.478,2.399-5.013,4.044C25.855,53.656,24.746,55.382,24.312,57.576"/>
			</g>
			<g style="clip-path:url(#SVGID_00000021821138573832018120000000331607445359512209_);">
				<defs>
					
						<rect id="SVGID_00000090979017846899124010000003718789637589221043_" x="37.348" y="3.568" transform="matrix(0.5757 -0.8177 0.8177 0.5757 4.581 44.8933)" width="16.4" height="28.929"/>
				</defs>
				<clipPath id="SVGID_00000050625281116312336130000005022307259329427840_">
					<use xlink:href="#SVGID_00000090979017846899124010000003718789637589221043_"  style="overflow:visible;"/>
				</clipPath>
				<path style="clip-path:url(#SVGID_00000050625281116312336130000005022307259329427840_);fill:#5699DE;" d="M35.301,15.467
					c0.272-2.854,4.122-9.328,4.122-9.328c2.211,0.334,2.058,0.779,4.664,2.061c0.107,0.053,1.532,1.109,1.635,1.152
					c0.591,0.238,4.48,3.172,6.151,6.49c0.245,0.486,0.597,0.917,0.939,1.432c1.015-0.608,1.975-1.183,2.954-1.77
					c0.685,1.92-0.259,11.389-1.486,14.815c-4.164-1.288-8.193-2.893-12.319-4.975c1.13-0.883,2.017-1.577,3.09-2.416
					c-1.384-1.854-2.556-3.366-4.268-4.824C39.287,16.83,37.512,15.801,35.301,15.467"/>
			</g>
			<g style="clip-path:url(#SVGID_00000021821138573832018120000000331607445359512209_);">
				<defs>
					
						<rect id="SVGID_00000109714481066243165390000017036771129745975710_" x="53.231" y="9.057" transform="matrix(0.1066 -0.9943 0.9943 0.1066 43.3218 82.7273)" width="28.929" height="16.4"/>
				</defs>
				<clipPath id="SVGID_00000018235866794971565030000011646753331699985057_">
					<use xlink:href="#SVGID_00000109714481066243165390000017036771129745975710_"  style="overflow:visible;"/>
				</clipPath>
				<path style="clip-path:url(#SVGID_00000018235866794971565030000011646753331699985057_);fill:#AD70D6;" d="M64.967,7.053
					c2.627-1.147,10.156-0.922,10.156-0.922c0.781,2.095,0.318,2.177,0.461,5.078c0.007,0.119-0.226,1.878-0.213,1.989
					c0.078,0.632-0.6,5.456-2.691,8.527c-0.306,0.45-0.512,0.967-0.796,1.516c1.025,0.593,1.993,1.153,2.981,1.724
					c-1.346,1.531-10.084,5.3-13.675,5.89c-0.894-4.267-1.446-8.568-1.627-13.186c1.32,0.559,2.357,0.998,3.611,1.529
					c0.95-2.11,1.704-3.867,2.147-6.073C65.709,11.2,65.748,9.148,64.967,7.053"/>
			</g>
		</g>
	</g>
</g>
<g id="Layer_2">
	<g id="Layer_3">
	</g>
</g>
</svg>
