<?xml version="1.0" encoding="iso-8859-1"?>
<!-- Generator: Adobe Illustrator 26.0.1, SVG Export Plug-In . SVG Version: 6.00 Build 0)  -->
<svg version="1.1" xmlns="http://www.w3.org/2000/svg" xmlns:xlink="http://www.w3.org/1999/xlink" x="0px" y="0px"
	 viewBox="0 0 100 100" style="enable-background:new 0 0 100 100;" xml:space="preserve">
<g id="Layer_1">
	
		<image style="display:none;overflow:visible;" width="80" height="80" xlink:href="../old_images/xrule140.jpg"  transform="matrix(0.2 0 0 0.2 2.3721 81.0468)">
	</image>
	<g id="G_x28__T1_L1__x29__4_00000105417897979447745990000001452229388932057747_">
		<g>
			<defs>
				<rect id="SVGID_1_" x="5" y="8" width="88.96" height="83.48"/>
			</defs>
			<clipPath id="SVGID_00000143582191795329336710000011491400922054204297_">
				<use xlink:href="#SVGID_1_"  style="overflow:visible;"/>
			</clipPath>
			<polygon style="clip-path:url(#SVGID_00000143582191795329336710000011491400922054204297_);fill:#F26C2B;" points="38.959,28 
				37.076,28.587 35.057,29.24 32.997,30.615 31.548,32.61 30.37,34.801 30.081,37.29 30.709,40.604 31.82,42.698 33.331,44.514 
				35.483,45.474 37.192,46.032 38.962,46.291 39.4,46.48 40.306,46.48 40.754,46.326 43.25,45.798 45.279,44.966 46.8,43.405 
				48.074,41.652 48.625,39.541 48.96,37.96 48.96,35.962 48.461,34.116 47.307,31.94 45.728,30.111 43.529,29.063 40.701,28 			"/>
			<g style="clip-path:url(#SVGID_00000143582191795329336710000011491400922054204297_);">
				<defs>
					
						<rect id="SVGID_00000152262804366145426610000015768805611009060234_" x="13.026" y="5.595" transform="matrix(0.2915 -0.9566 0.9566 0.2915 -4.1493 34.5182)" width="16.4" height="28.929"/>
				</defs>
				<clipPath id="SVGID_00000047060407095381255190000015498878800928171414_">
					<use xlink:href="#SVGID_00000152262804366145426610000015768805611009060234_"  style="overflow:visible;"/>
				</clipPath>
				<path style="clip-path:url(#SVGID_00000047060407095381255190000015498878800928171414_);fill:#E1D153;" d="M10.692,20.824
					c-0.634-2.796,1.001-10.148,1.001-10.148c2.205-0.374,2.199,0.096,5.075,0.5c0.118,0.017,1.801,0.575,1.913,0.583
					c0.635,0.042,5.246,1.614,7.87,4.244c0.385,0.385,0.854,0.685,1.34,1.067c0.774-0.895,1.507-1.741,2.253-2.604
					c1.251,1.609,3.312,10.899,3.217,14.538c-4.358,0.076-8.687-0.19-13.256-0.878c0.796-1.192,1.422-2.128,2.179-3.26
					c-1.894-1.329-3.479-2.399-5.561-3.25C14.904,20.874,12.897,20.45,10.692,20.824"/>
			</g>
			<polygon style="clip-path:url(#SVGID_00000143582191795329336710000011491400922054204297_);fill:#55C95A;" points="82.958,28 
				81.076,28.587 79.056,29.24 76.996,30.615 75.548,32.61 74.37,34.801 74.081,37.29 74.709,40.604 75.82,42.698 77.331,44.514 
				79.483,45.474 81.192,46.032 82.962,46.291 83.399,46.48 84.306,46.48 84.754,46.326 87.25,45.798 89.279,44.966 90.8,43.405 
				92.074,41.652 92.624,39.541 92.96,37.96 92.96,35.962 92.461,34.116 91.306,31.94 89.728,30.111 87.529,29.063 84.7,28 			"/>
			<g style="clip-path:url(#SVGID_00000143582191795329336710000011491400922054204297_);">
				<defs>
					
						<rect id="SVGID_00000018948402056326493310000007137683781455048121_" x="57.026" y="5.595" transform="matrix(0.2915 -0.9566 0.9566 0.2915 27.0264 76.6078)" width="16.4" height="28.929"/>
				</defs>
				<clipPath id="SVGID_00000053514573478373045780000013483158026466665880_">
					<use xlink:href="#SVGID_00000018948402056326493310000007137683781455048121_"  style="overflow:visible;"/>
				</clipPath>
				<path style="clip-path:url(#SVGID_00000053514573478373045780000013483158026466665880_);fill:#AD70D6;" d="M54.692,20.824
					c-0.634-2.796,1.001-10.148,1.001-10.148c2.205-0.374,2.199,0.096,5.075,0.5c0.118,0.017,1.801,0.575,1.913,0.583
					c0.635,0.042,5.246,1.614,7.87,4.244c0.385,0.385,0.854,0.685,1.34,1.067c0.774-0.895,1.507-1.741,2.253-2.604
					c1.251,1.609,3.312,10.899,3.217,14.538c-4.358,0.076-8.687-0.19-13.256-0.878c0.796-1.192,1.422-2.128,2.179-3.26
					c-1.894-1.329-3.479-2.399-5.561-3.25C58.904,20.874,56.897,20.45,54.692,20.824"/>
			</g>
			<polygon style="clip-path:url(#SVGID_00000143582191795329336710000011491400922054204297_);fill:#E33A3A;" points="39.959,73 
				38.077,73.587 36.057,74.24 33.997,75.615 32.548,77.61 31.37,79.801 31.081,82.29 31.709,85.604 32.821,87.698 34.331,89.514 
				36.484,90.474 38.192,91.032 39.962,91.291 40.4,91.48 41.306,91.48 41.754,91.326 44.251,90.798 46.279,89.966 47.8,88.405 
				49.075,86.652 49.625,84.541 49.96,82.96 49.96,80.962 49.462,79.116 48.307,76.94 46.728,75.111 44.53,74.063 41.701,73 			"/>
			<g style="clip-path:url(#SVGID_00000143582191795329336710000011491400922054204297_);">
				<defs>
					
						<rect id="SVGID_00000021108606991464598640000017162169213354891411_" x="14.026" y="50.595" transform="matrix(0.2915 -0.9566 0.9566 0.2915 -46.4869 67.3589)" width="16.4" height="28.929"/>
				</defs>
				<clipPath id="SVGID_00000108270443920045813770000006103792489543523976_">
					<use xlink:href="#SVGID_00000021108606991464598640000017162169213354891411_"  style="overflow:visible;"/>
				</clipPath>
				<path style="clip-path:url(#SVGID_00000108270443920045813770000006103792489543523976_);fill:#5699DE;" d="M11.692,65.824
					c-0.634-2.796,1.001-10.148,1.001-10.148c2.205-0.374,2.199,0.096,5.075,0.5c0.118,0.017,1.801,0.575,1.913,0.583
					c0.635,0.042,5.246,1.614,7.87,4.244c0.385,0.385,0.854,0.685,1.34,1.067c0.774-0.895,1.507-1.741,2.253-2.604
					c1.251,1.609,3.312,10.899,3.217,14.538c-4.358,0.076-8.687-0.19-13.256-0.878c0.796-1.192,1.422-2.128,2.179-3.26
					c-1.894-1.329-3.479-2.399-5.561-3.25C15.904,65.874,13.897,65.45,11.692,65.824"/>
			</g>
			<polygon style="clip-path:url(#SVGID_00000143582191795329336710000011491400922054204297_);fill:#9F9EB1;" points="82.959,73 
				81.076,73.587 79.057,74.24 76.997,75.615 75.548,77.61 74.37,79.801 74.081,82.29 74.709,85.604 75.82,87.698 77.331,89.514 
				79.483,90.474 81.192,91.032 82.962,91.291 83.4,91.48 84.306,91.48 84.754,91.326 87.25,90.798 89.279,89.966 90.8,88.405 
				92.074,86.652 92.625,84.541 92.96,82.96 92.96,80.962 92.461,79.116 91.307,76.94 89.728,75.111 87.529,74.063 84.701,73 			"/>
			<g style="clip-path:url(#SVGID_00000143582191795329336710000011491400922054204297_);">
				<defs>
					
						<rect id="SVGID_00000170244449978389018550000008544203077507005857_" x="58.026" y="50.595" transform="matrix(0.2915 -0.9566 0.9566 0.2915 -15.3113 109.4486)" width="16.4" height="28.929"/>
				</defs>
				<clipPath id="SVGID_00000133518124084199986030000008419551333310348710_">
					<use xlink:href="#SVGID_00000170244449978389018550000008544203077507005857_"  style="overflow:visible;"/>
				</clipPath>
			</g>
		</g>
	</g>
	<polygon style="fill:#523742;" points="59.811,50.807 57.928,51.394 55.909,52.047 53.849,53.422 52.4,55.417 51.222,57.608 
		50.933,60.097 51.561,63.411 52.672,65.505 54.183,67.321 56.335,68.281 58.044,68.839 59.814,69.098 60.252,69.287 61.158,69.287 
		61.606,69.133 64.102,68.605 66.131,67.773 67.652,66.212 68.926,64.459 69.477,62.348 69.812,60.767 69.812,58.769 69.313,56.923 
		68.159,54.747 66.58,52.918 64.381,51.87 61.553,50.807 	"/>
</g>
<g id="Layer_2">
	<g id="Layer_3">
	</g>
</g>
</svg>
