<?xml version="1.0" encoding="iso-8859-1"?>
<!-- Generator: Adobe Illustrator 26.0.1, SVG Export Plug-In . SVG Version: 6.00 Build 0)  -->
<svg version="1.1" xmlns="http://www.w3.org/2000/svg" xmlns:xlink="http://www.w3.org/1999/xlink" x="0px" y="0px"
	 viewBox="0 0 100 100" style="enable-background:new 0 0 100 100;" xml:space="preserve">
<g id="Layer_1">
	<g id="G_x28__T1_L1__x29_3_L2_00000092453015819169376530000016429773588273846146_">
		<g>
			<defs>
				<rect id="SVGID_1_" x="5.52" y="8.066" width="88.96" height="83.868"/>
			</defs>
			<clipPath id="SVGID_00000180347202426170333050000009530721782043721405_">
				<use xlink:href="#SVGID_1_"  style="overflow:visible;"/>
			</clipPath>
			<polygon style="clip-path:url(#SVGID_00000180347202426170333050000009530721782043721405_);fill:#F26C2B;" points="
				39.479,28.066 37.596,28.653 35.577,29.306 33.517,30.681 32.068,32.676 30.89,34.867 30.601,37.356 31.229,40.67 32.34,42.764 
				33.851,44.58 36.003,45.54 37.712,46.098 39.482,46.357 39.92,46.546 40.826,46.546 41.274,46.392 43.77,45.864 45.799,45.032 
				47.32,43.471 48.594,41.718 49.145,39.607 49.48,38.026 49.48,36.028 48.981,34.182 47.827,32.006 46.248,30.177 44.049,29.129 
				41.221,28.066 			"/>
			<g style="clip-path:url(#SVGID_00000180347202426170333050000009530721782043721405_);">
				<defs>
					
						<rect id="SVGID_00000089551665060775324130000010738224956648446907_" x="13.546" y="5.662" transform="matrix(0.2915 -0.9566 0.9566 0.2915 -3.8442 35.0625)" width="16.4" height="28.929"/>
				</defs>
				<clipPath id="SVGID_00000159469286623629448840000004303274042306177157_">
					<use xlink:href="#SVGID_00000089551665060775324130000010738224956648446907_"  style="overflow:visible;"/>
				</clipPath>
				<path style="clip-path:url(#SVGID_00000159469286623629448840000004303274042306177157_);fill:#AD70D6;" d="M11.212,20.89
					c-0.634-2.796,1.001-10.148,1.001-10.148c2.205-0.374,2.199,0.096,5.075,0.5c0.118,0.017,1.801,0.575,1.913,0.583
					c0.635,0.042,5.246,1.614,7.87,4.244c0.385,0.385,0.854,0.685,1.34,1.067c0.774-0.895,1.507-1.741,2.253-2.604
					c1.251,1.609,3.312,10.899,3.217,14.538c-4.358,0.076-8.687-0.19-13.256-0.878c0.796-1.192,1.422-2.128,2.179-3.26
					c-1.894-1.329-3.479-2.399-5.561-3.25C15.424,20.94,13.417,20.516,11.212,20.89"/>
			</g>
			<polygon style="clip-path:url(#SVGID_00000180347202426170333050000009530721782043721405_);fill:#55C95A;" points="
				83.478,28.066 81.596,28.653 79.576,29.306 77.516,30.681 76.068,32.676 74.89,34.867 74.601,37.356 75.229,40.67 76.34,42.764 
				77.851,44.58 80.003,45.54 81.712,46.098 83.482,46.357 83.919,46.546 84.826,46.546 85.274,46.392 87.77,45.864 89.799,45.032 
				91.32,43.471 92.594,41.718 93.144,39.607 93.48,38.026 93.48,36.028 92.981,34.182 91.826,32.006 90.248,30.177 88.049,29.129 
				85.22,28.066 			"/>
			<g style="clip-path:url(#SVGID_00000180347202426170333050000009530721782043721405_);">
				<defs>
					
						<rect id="SVGID_00000002370384318484145490000005515842130173792141_" x="57.546" y="5.662" transform="matrix(0.2915 -0.9566 0.9566 0.2915 27.3314 77.1521)" width="16.4" height="28.929"/>
				</defs>
				<clipPath id="SVGID_00000156554180118339181150000018236613397904182445_">
					<use xlink:href="#SVGID_00000002370384318484145490000005515842130173792141_"  style="overflow:visible;"/>
				</clipPath>
				<path style="clip-path:url(#SVGID_00000156554180118339181150000018236613397904182445_);fill:#5699DE;" d="M55.212,20.89
					c-0.634-2.796,1.001-10.148,1.001-10.148c2.205-0.374,2.199,0.096,5.075,0.5c0.118,0.017,1.801,0.575,1.913,0.583
					c0.635,0.042,5.246,1.614,7.87,4.244c0.385,0.385,0.854,0.685,1.34,1.067c0.774-0.895,1.507-1.741,2.253-2.604
					c1.251,1.609,3.312,10.899,3.217,14.538c-4.358,0.076-8.687-0.19-13.256-0.878c0.796-1.192,1.422-2.128,2.179-3.26
					c-1.894-1.329-3.479-2.399-5.561-3.25C59.424,20.94,57.417,20.516,55.212,20.89"/>
			</g>
			<polygon style="clip-path:url(#SVGID_00000180347202426170333050000009530721782043721405_);fill:#E33A3A;" points="
				40.479,73.066 38.597,73.654 36.577,74.306 34.517,75.681 33.068,77.677 31.89,79.867 31.601,82.357 32.229,85.67 33.341,87.764 
				34.851,89.58 37.004,90.54 38.712,91.098 40.482,91.358 40.918,91.546 41.829,91.546 42.274,91.393 44.771,90.864 46.799,90.032 
				48.32,88.471 49.595,86.718 50.145,84.608 50.48,83.026 50.48,81.028 49.982,79.182 48.827,77.006 47.248,75.177 45.05,74.129 
				42.221,73.066 			"/>
			<g style="clip-path:url(#SVGID_00000180347202426170333050000009530721782043721405_);">
				<defs>
					
						<rect id="SVGID_00000103979710196119376350000002202518413513946256_" x="14.546" y="50.662" transform="matrix(0.2915 -0.9566 0.9566 0.2915 -46.1819 67.9027)" width="16.4" height="28.929"/>
				</defs>
				<clipPath id="SVGID_00000128483663228891080260000015600565228322882725_">
					<use xlink:href="#SVGID_00000103979710196119376350000002202518413513946256_"  style="overflow:visible;"/>
				</clipPath>
				<path style="clip-path:url(#SVGID_00000128483663228891080260000015600565228322882725_);fill:#E1D153;" d="M12.212,65.89
					c-0.634-2.796,1.001-10.148,1.001-10.148c2.205-0.374,2.199,0.096,5.075,0.5c0.118,0.017,1.801,0.575,1.913,0.583
					c0.635,0.042,5.246,1.614,7.87,4.244c0.385,0.385,0.854,0.685,1.34,1.067c0.774-0.895,1.507-1.741,2.253-2.604
					c1.251,1.609,3.312,10.899,3.217,14.538c-4.358,0.076-8.687-0.19-13.256-0.878c0.796-1.192,1.422-2.128,2.179-3.26
					c-1.894-1.329-3.479-2.399-5.561-3.25C16.424,65.94,14.417,65.516,12.212,65.89"/>
			</g>
			<g style="clip-path:url(#SVGID_00000180347202426170333050000009530721782043721405_);">
				<defs>
					<rect id="SVGID_00000177460606150495047690000001233490356601296306_" x="60.784" y="57.066" width="30.094" height="18.775"/>
				</defs>
				<clipPath id="SVGID_00000158029397988184001800000017899417972060370085_">
					<use xlink:href="#SVGID_00000177460606150495047690000001233490356601296306_"  style="overflow:visible;"/>
				</clipPath>
				<path style="clip-path:url(#SVGID_00000158029397988184001800000017899417972060370085_);fill:#523742;" d="M87.213,63.562
					c1.33-0.04,2.04-2.21,3.67-1.07c-0.27,4.39-0.53,8.73-0.81,13.35c-4.26-0.64-8.21-2.15-12.23-3.33
					c-0.22-0.34-0.4-0.63-0.63-0.97c1.08-0.93,2.19-1.87,3.32-2.84c-0.9-2.8-3.33-3.45-5.51-3.8c-3.55-0.57-4.85,2.27-5.92,4.63
					c-0.1,0.96-0.16,1.62-0.25,2.5c-2.83-0.65-5.4-1.24-8.01-1.85c-0.02-0.25-0.1-0.47-0.03-0.62c0.78-1.91,1.3-4.01,2.45-5.66
					c2.89-4.13,6.85-6.66,12.07-6.83c3.34-0.1,6.39,0.64,8.85,3.01C85.263,61.122,86.163,62.342,87.213,63.562"/>
			</g>
			<g style="clip-path:url(#SVGID_00000180347202426170333050000009530721782043721405_);">
				<defs>
					<rect id="SVGID_00000016050156517097262560000013006992169431070852_" x="59.523" y="73.722" width="29.36" height="18.212"/>
				</defs>
				<clipPath id="SVGID_00000012464217804019528330000005552246223130865341_">
					<use xlink:href="#SVGID_00000016050156517097262560000013006992169431070852_"  style="overflow:visible;"/>
				</clipPath>
				<path style="clip-path:url(#SVGID_00000012464217804019528330000005552246223130865341_);fill:#9F9EB1;" d="M88.883,79.512
					c-0.1,0.3-0.17,0.6-0.29,0.87c-1.52,3.45-3.13,6.93-6.51,8.9c-1.9,1.11-4.16,1.59-6.26,2.36c-2.15,0.78-4.14-0.2-6.16-0.61
					c-1.67-0.33-2.86-1.56-4-2.76c-0.82-0.86-1.62-1.74-2.62-2.83c-1.02,0.3-2.14,0.63-3.52,1.04c0.24-4.15,0.49-8.3,0.76-12.76
					c4,1.19,7.88,2.35,12.16,3.63c-1.18,1.02-2.12,1.83-3.03,2.63v1.59c1.49,2.59,3.87,3.08,6.63,3.14
					c3.42,0.08,4.13-2.66,5.59-4.93v-1.92C84.083,78.422,86.443,78.952,88.883,79.512"/>
			</g>
		</g>
	</g>
</g>
<g id="Layer_2">
	<g id="Layer_3">
	</g>
</g>
</svg>
