<?xml version="1.0" encoding="iso-8859-1"?>
<!-- Generator: Adobe Illustrator 26.0.1, SVG Export Plug-In . SVG Version: 6.00 Build 0)  -->
<svg version="1.1" xmlns="http://www.w3.org/2000/svg" xmlns:xlink="http://www.w3.org/1999/xlink" x="0px" y="0px"
	 viewBox="0 0 100 100" style="enable-background:new 0 0 100 100;" xml:space="preserve">
<g id="Layer_2">
	<g id="G_x28__T1_T1_T1_L3__x29__T1_L1_00000079443845415053589250000000230980209004821174_">
		<g>
			<defs>
				<rect id="SVGID_1_" x="-1" y="2" width="102.767" height="96.721"/>
			</defs>
			<clipPath id="SVGID_00000036236465782399535910000008210194131170573222_">
				<use xlink:href="#SVGID_1_"  style="overflow:visible;"/>
			</clipPath>
			<g style="clip-path:url(#SVGID_00000036236465782399535910000008210194131170573222_);">
				<defs>
					<rect id="SVGID_00000156575424267878312860000014741461147729276092_" x="-1" y="2" width="102.767" height="96.721"/>
				</defs>
				<clipPath id="SVGID_00000067918893305447167510000001499656180091921816_">
					<use xlink:href="#SVGID_00000156575424267878312860000014741461147729276092_"  style="overflow:visible;"/>
				</clipPath>
				<g style="clip-path:url(#SVGID_00000067918893305447167510000001499656180091921816_);">
					<defs>
						<rect id="SVGID_00000161606610753975167810000015175838693247677850_" x="-1" y="2" width="102.767" height="96.721"/>
					</defs>
					<clipPath id="SVGID_00000165207065823761200860000009980230683460120205_">
						<use xlink:href="#SVGID_00000161606610753975167810000015175838693247677850_"  style="overflow:visible;"/>
					</clipPath>
					<g style="opacity:0.99;clip-path:url(#SVGID_00000165207065823761200860000009980230683460120205_);">
						<g>
							<defs>
								
									<rect id="SVGID_00000072977194478206169020000012507383872339981459_" x="19.408" y="13.642" width="47.766" height="52.098"/>
							</defs>
							<clipPath id="SVGID_00000096780152237104448250000006522785729575236224_">
								<use xlink:href="#SVGID_00000072977194478206169020000012507383872339981459_"  style="overflow:visible;"/>
							</clipPath>
							<g style="clip-path:url(#SVGID_00000096780152237104448250000006522785729575236224_);">
								<defs>
									<polygon id="SVGID_00000103976371482609663290000010547832503151304577_" points="19.412,16.375 21.774,65.739 
										67.17,63.011 64.809,13.647 									"/>
								</defs>
								<clipPath id="SVGID_00000107560428077199097970000001730712635263901588_">
									<use xlink:href="#SVGID_00000103976371482609663290000010547832503151304577_"  style="overflow:visible;"/>
								</clipPath>
								<g style="clip-path:url(#SVGID_00000107560428077199097970000001730712635263901588_);">
									<defs>
										
											<rect id="SVGID_00000108283504123625764260000011875497919212290724_" x="24.097" y="14.928" width="34.56" height="22.64"/>
									</defs>
									<clipPath id="SVGID_00000050663399478641725420000006053219386043105423_">
										<use xlink:href="#SVGID_00000108283504123625764260000011875497919212290724_"  style="overflow:visible;"/>
									</clipPath>
									<g style="clip-path:url(#SVGID_00000050663399478641725420000006053219386043105423_);">
										<defs>
											
												<rect id="SVGID_00000107568869355135104190000010968095446706896023_" x="24.097" y="14.928" width="34.56" height="22.64"/>
										</defs>
										<clipPath id="SVGID_00000063608813270590009600000016228617793437173409_">
											<use xlink:href="#SVGID_00000107568869355135104190000010968095446706896023_"  style="overflow:visible;"/>
										</clipPath>
										<path style="clip-path:url(#SVGID_00000063608813270590009600000016228617793437173409_);fill:#55C95A;" d="
											M58.656,25.128c-2.13,2-4.229,4.11-6.53,6.1c-1.78,1.55-3.679,3.03-5.83,4.36c-0.329-1.76-0.57-3.06-0.849-4.56
											c-2.46,0.35-5.101,0.24-7.291,1.19c-2.12,0.94-4.29,2.42-5.3,5.35c-3.03-1.93-5.83-3.73-8.76-5.6
											c1.57-3.19,3.01-6.32,5.88-8.47c0.56-0.41,0.991-0.98,1.44-1.51c1.31-1.5,3.13-1.93,4.88-2.32
											c1.81-0.4,3.72-0.34,5.6-0.49c0.531-0.05,1.08-0.07,1.63-0.1c0.01-1.52,0.02-2.84,0.01-4.15
											C46.276,14.998,57.707,22.688,58.656,25.128"/>
									</g>
								</g>
								<g style="clip-path:url(#SVGID_00000107560428077199097970000001730712635263901588_);">
									<defs>
										
											<rect id="SVGID_00000134236488533270167390000005187020605399306414_" x="21.074" y="37.618" width="25.162" height="26.98"/>
									</defs>
									<clipPath id="SVGID_00000134960879259279541950000001899341684292698539_">
										<use xlink:href="#SVGID_00000134236488533270167390000005187020605399306414_"  style="overflow:visible;"/>
									</clipPath>
									<g style="clip-path:url(#SVGID_00000134960879259279541950000001899341684292698539_);">
										<defs>
											
												<rect id="SVGID_00000034793220131413529420000006740901216350557870_" x="21.074" y="37.618" width="25.162" height="26.98"/>
										</defs>
										<clipPath id="SVGID_00000013896338323433894580000005985780129421577388_">
											<use xlink:href="#SVGID_00000034793220131413529420000006740901216350557870_"  style="overflow:visible;"/>
										</clipPath>
										<path style="clip-path:url(#SVGID_00000013896338323433894580000005985780129421577388_);fill:#F26C2B;" d="
											M46.237,53.379c-0.03,0.939-0.07,1.6-0.09,2.25c-0.07,2.619-0.13,5.239-0.2,7.85c-0.01,0.28-0.13,0.559-0.2,0.82
											l-5.01,0.3c-0.37-0.09-0.75-0.18-1.13-0.271c-2.28-0.599-4.63-1.029-6.83-1.84c-1.16-0.429-2.27-1.339-3.09-2.309
											c-1.65-1.96-3.08-4.101-4.67-6.271c-1.04,0.7-2.18,1.46-3.34,2.25c-1.2-3.08-0.47-16.929,0.99-18.539
											c3.08,0.989,6.23,1.82,9.41,2.9c1.89,0.65,3.81,1.39,5.71,2.29c-1.3,1.199-2.37,2.19-3.47,3.199
											c1.61,2.06,3.18,4.06,4.82,6.141C41.477,52.269,43.287,54.939,46.237,53.379"/>
									</g>
								</g>
								<g style="clip-path:url(#SVGID_00000107560428077199097970000001730712635263901588_);">
									<defs>
										
											<rect id="SVGID_00000059267770049489103170000011180536879280630668_" x="47.887" y="29.678" width="18.86" height="34.04"/>
									</defs>
									<clipPath id="SVGID_00000146461399243807446600000011683101753228415384_">
										<use xlink:href="#SVGID_00000059267770049489103170000011180536879280630668_"  style="overflow:visible;"/>
									</clipPath>
									<g style="clip-path:url(#SVGID_00000146461399243807446600000011683101753228415384_);">
										<defs>
											
												<rect id="SVGID_00000165920683335002953030000007367815780418988212_" x="47.887" y="29.678" width="18.86" height="34.04"/>
										</defs>
										<clipPath id="SVGID_00000086658307188867446490000018337268413480567977_">
											<use xlink:href="#SVGID_00000165920683335002953030000007367815780418988212_"  style="overflow:visible;"/>
										</clipPath>
										<path style="clip-path:url(#SVGID_00000086658307188867446490000018337268413480567977_);fill:#E33A3A;" d="
											M64.946,38.469c2.32,4.39,0.57,8.38-1.29,12.37c-0.26,0.58-0.409,1.22-0.64,1.92c1.29,0.489,2.5,0.95,3.731,1.42
											c-1.261,2.05-10.611,8.149-14.631,9.54c-1.33-3.57-2.45-7.2-3.35-11.02c-0.32-1.33-0.62-2.67-0.88-4.04
											c1.61,0.4,2.88,0.7,4.41,1.09c0.711-2.65,1.88-5.27,2.001-7.93c0.099-2.31,0.089-5.06-2.261-6.77
											c0.6-0.39,1.19-0.79,1.761-1.16c2.17-1.43,4.239-2.8,6.37-4.21c2.029,2.47,4.04,5.02,4.729,8.37
											C64.926,38.189,64.896,38.349,64.946,38.469"/>
									</g>
								</g>
							</g>
						</g>
					</g>
				</g>
				<g style="clip-path:url(#SVGID_00000067918893305447167510000001499656180091921816_);">
					<defs>
						<polygon id="SVGID_00000098915104368645361280000015801899119621478565_" points="64.154,37.848 77.044,51.974 
							101.767,28.573 88.876,14.447 						"/>
					</defs>
					<clipPath id="SVGID_00000116195853588309256190000007281441149835430579_">
						<use xlink:href="#SVGID_00000098915104368645361280000015801899119621478565_"  style="overflow:visible;"/>
					</clipPath>
					<g style="clip-path:url(#SVGID_00000116195853588309256190000007281441149835430579_);">
						<defs>
							<rect id="SVGID_00000158003638417827252530000010575299414641993114_" x="66.867" y="21.968" width="31.1" height="23.694"/>
						</defs>
						<clipPath id="SVGID_00000163061966664000829550000005001876185230906299_">
							<use xlink:href="#SVGID_00000158003638417827252530000010575299414641993114_"  style="overflow:visible;"/>
						</clipPath>
						<g style="clip-path:url(#SVGID_00000163061966664000829550000005001876185230906299_);">
							<defs>
								
									<rect id="SVGID_00000071520676374851590050000015713719437360684444_" x="66.867" y="21.968" width="31.1" height="23.694"/>
							</defs>
							<clipPath id="SVGID_00000096038939044517726590000011837023022787636911_">
								<use xlink:href="#SVGID_00000071520676374851590050000015713719437360684444_"  style="overflow:visible;"/>
							</clipPath>
							<path style="clip-path:url(#SVGID_00000096038939044517726590000011837023022787636911_);fill:#5699DE;" d="M97.967,28.958
								c-0.931,2.48-1.391,2.2-3.49,4.91c-0.09,0.11-1.64,1.51-1.71,1.62c-0.42,0.62-4.7,4.42-8.88,5.57
								c-0.61,0.16-1.191,0.47-1.86,0.74c0.45,1.32,0.86,2.57,1.29,3.84c-2.35,0.34-12.86-3.02-16.451-5.25
								c2.491-4.51,5.301-8.79,8.681-13.07c0.72,1.52,1.29,2.71,1.98,4.15c2.45-1.16,4.45-2.15,6.53-3.79
								c1.809-1.43,3.41-3.23,4.34-5.71C91.567,22.958,97.967,28.958,97.967,28.958"/>
						</g>
					</g>
				</g>
				<g style="clip-path:url(#SVGID_00000067918893305447167510000001499656180091921816_);">
					<defs>
						<polygon id="SVGID_00000139990035482994388080000009183609964800506523_" points="-1,21.341 32.5,23.474 33.886,4.133 
							0.385,2.001 						"/>
					</defs>
					<clipPath id="SVGID_00000073002730869835918700000001062071387543603894_">
						<use xlink:href="#SVGID_00000139990035482994388080000009183609964800506523_"  style="overflow:visible;"/>
					</clipPath>
					<g style="clip-path:url(#SVGID_00000073002730869835918700000001062071387543603894_);">
						<defs>
							<rect id="SVGID_00000098930114060605096820000013882071083339660200_" x="3.237" y="3.738" width="29.24" height="18.58"/>
						</defs>
						<clipPath id="SVGID_00000020377889065502337090000016531677188006463153_">
							<use xlink:href="#SVGID_00000098930114060605096820000013882071083339660200_"  style="overflow:visible;"/>
						</clipPath>
						<g style="clip-path:url(#SVGID_00000020377889065502337090000016531677188006463153_);">
							<defs>
								<rect id="SVGID_00000098185466365285492230000016954167802534077570_" x="3.237" y="3.738" width="29.24" height="18.58"/>
							</defs>
							<clipPath id="SVGID_00000016035016000068617960000001964140865250527390_">
								<use xlink:href="#SVGID_00000098185466365285492230000016954167802534077570_"  style="overflow:visible;"/>
							</clipPath>
							<path style="clip-path:url(#SVGID_00000016035016000068617960000001964140865250527390_);fill:#AD70D6;" d="M25.107,3.868
								c1.83,1.51,6.55,11.63,7.37,15.83c-4.91,1.28-9.88,2.16-15.23,2.62c0.59-1.59,1.06-2.84,1.63-4.35
								c-2.49-1.01-4.56-1.8-7.13-2.21c-2.25-0.36-4.64-0.3-7.04,0.74c-1.43-3.05-1.47-11.95-1.47-11.95
								c2.4-1.03,2.52-0.48,5.88-0.81c0.13-0.01,2.18,0.17,2.31,0.15c0.73-0.12,6.36,0.42,10,2.73c0.54,0.34,1.15,0.55,1.79,0.86
								C23.866,6.239,24.476,5.069,25.107,3.868"/>
						</g>
					</g>
				</g>
				<g style="clip-path:url(#SVGID_00000067918893305447167510000001499656180091921816_);">
					<defs>
						<polygon id="SVGID_00000044878314840372571840000007252216635235191191_" points="12.557,96.479 31.57,97.335 33.402,63.185 
							14.387,62.33 						"/>
					</defs>
					<clipPath id="SVGID_00000031910090844425257400000001804207603198803643_">
						<use xlink:href="#SVGID_00000044878314840372571840000007252216635235191191_"  style="overflow:visible;"/>
					</clipPath>
					<g style="clip-path:url(#SVGID_00000031910090844425257400000001804207603198803643_);">
						<defs>
							<rect id="SVGID_00000150822565282624539250000013717099480390884257_" x="14.196" y="63.318" width="18.19" height="30.18"/>
						</defs>
						<clipPath id="SVGID_00000070829721834823219680000015464018235908172186_">
							<use xlink:href="#SVGID_00000150822565282624539250000013717099480390884257_"  style="overflow:visible;"/>
						</clipPath>
						<g style="clip-path:url(#SVGID_00000070829721834823219680000015464018235908172186_);">
							<defs>
								
									<rect id="SVGID_00000149370169325189549280000000671932233106744708_" x="14.196" y="63.318" width="18.19" height="30.18"/>
							</defs>
							<clipPath id="SVGID_00000011030231694215983310000010533581923892914621_">
								<use xlink:href="#SVGID_00000149370169325189549280000000671932233106744708_"  style="overflow:visible;"/>
							</clipPath>
							<path style="clip-path:url(#SVGID_00000011030231694215983310000010533581923892914621_);fill:#E1D153;" d="M29.697,63.318
								c1.3,4.96,2.2,9.99,2.69,15.43c-1.57-0.57-2.8-1.01-4.28-1.539c-0.98,2.559-1.74,4.689-2.12,7.319
								c-0.34,2.3-0.26,4.72,0.78,7.141c-2.98,1.54-11.72,1.829-11.72,1.829c-1.04-2.409-0.5-2.539-0.85-5.95
								c-0.01-0.14,0.15-2.23,0.13-2.36c-0.13-0.74,0.36-6.479,2.6-10.26c0.33-0.549,0.54-1.17,0.83-1.839
								c-1.22-0.63-2.38-1.221-3.56-1.821C15.667,69.368,25.567,64.278,29.697,63.318"/>
						</g>
					</g>
				</g>
				<polygon style="clip-path:url(#SVGID_00000067918893305447167510000001499656180091921816_);fill:#9F9EB1;" points="
					82.73,75.978 80.842,76.566 78.823,77.22 76.762,78.594 75.314,80.588 74.136,82.78 73.848,85.261 73.848,85.273 74.474,88.582 
					75.588,90.677 77.097,92.493 79.25,93.452 80.959,94.011 82.727,94.27 83.167,94.459 84.071,94.459 84.519,94.305 
					87.016,93.776 89.045,92.944 90.565,91.385 91.842,89.631 92.39,87.52 92.726,85.934 92.726,83.943 92.227,82.094 
					91.073,79.919 89.494,78.089 87.296,77.041 84.464,75.978 				"/>
				<g style="clip-path:url(#SVGID_00000067918893305447167510000001499656180091921816_);">
					<defs>
						
							<rect id="SVGID_00000055697345558797769670000001316488196229696671_" x="43.549" y="71.96" transform="matrix(0.7465 -0.6653 0.6653 0.7465 -39.2725 59.6061)" width="30.098" height="18.779"/>
					</defs>
					<clipPath id="SVGID_00000106860424076017627810000009249169184414302116_">
						<use xlink:href="#SVGID_00000055697345558797769670000001316488196229696671_"  style="overflow:visible;"/>
					</clipPath>
					<path style="clip-path:url(#SVGID_00000106860424076017627810000009249169184414302116_);fill:#523742;" d="M65.171,71.62
						c0.966-0.915,0.053-3.007,2.027-3.24c2.72,3.457,5.413,6.87,8.278,10.506c-3.606,2.355-7.56,3.856-11.346,5.65
						c-0.391-0.107-0.718-0.204-1.115-0.306c0.187-1.412,0.39-2.852,0.589-4.329c-2.536-1.491-4.782-0.359-6.642,0.829
						c-3.03,1.937-2.111,4.922-1.34,7.396c0.565,0.783,0.959,1.315,1.477,2.033c-2.545,1.398-4.857,2.666-7.211,3.947
						c-0.181-0.173-0.387-0.284-0.435-0.442c-0.688-1.945-1.697-3.859-1.936-5.856c-0.591-5.006,0.683-9.53,4.466-13.129
						c2.427-2.297,5.197-3.774,8.611-3.641C62.092,71.096,63.575,71.408,65.171,71.62"/>
				</g>
			</g>
		</g>
	</g>
</g>
<g id="Layer_1" style="display:none;">
	
		<image style="display:inline;overflow:visible;" width="80" height="80" xlink:href="../old_images/xrule10.jpg"  transform="matrix(0.2 0 0 0.2 1.5223 81.0468)">
	</image>
</g>
</svg>
