<?xml version="1.0" encoding="iso-8859-1"?>
<!-- Generator: Adobe Illustrator 26.0.1, SVG Export Plug-In . SVG Version: 6.00 Build 0)  -->
<svg version="1.1" xmlns="http://www.w3.org/2000/svg" xmlns:xlink="http://www.w3.org/1999/xlink" x="0px" y="0px"
	 viewBox="0 0 100 100" style="enable-background:new 0 0 100 100;" xml:space="preserve">
<g id="Layer_1">
	<g id="G_x28__tree_x28__T2_T1_T1_L1_x29___x29__00000080926861315787109910000014778578568989919132_">
		<g>
			<defs>
				<rect id="SVGID_1_" x="11.631" y="34" width="74.738" height="67.231"/>
			</defs>
			<clipPath id="SVGID_00000149375618881791629730000002368680948162851259_">
				<use xlink:href="#SVGID_1_"  style="overflow:visible;"/>
			</clipPath>
			<polygon style="clip-path:url(#SVGID_00000149375618881791629730000002368680948162851259_);fill:#523742;" points="
				71.122,73.117 69.515,74.26 67.798,75.508 66.267,77.455 65.51,79.8 65.071,82.249 65.569,84.705 67.194,87.66 68.902,89.305 
				70.902,90.563 73.246,90.806 75.044,90.806 76.806,90.502 77.28,90.546 78.144,90.264 78.52,89.979 80.729,88.702 82.399,87.281 
				83.36,85.325 84.027,83.263 83.895,81.086 83.722,79.478 83.101,77.579 82.054,75.979 80.281,74.27 78.212,73.022 75.797,72.708 
				72.778,72.576 			"/>
			<g style="clip-path:url(#SVGID_00000149375618881791629730000002368680948162851259_);">
				<defs>
					<polygon id="SVGID_00000034061130741185235490000011442802491515387011_" points="37.175,63.169 37.175,63.169 37.503,79.566 
						66.427,78.986 66.098,62.59 					"/>
				</defs>
				<clipPath id="SVGID_00000038407459497435895910000003600615566565662366_">
					<use xlink:href="#SVGID_00000034061130741185235490000011442802491515387011_"  style="overflow:visible;"/>
				</clipPath>
				<path style="clip-path:url(#SVGID_00000038407459497435895910000003600615566565662366_);fill:#9F9EB1;" d="M42.025,75.076
					c-1.471-2.461-2.2-9.957-2.2-9.957c1.979-1.04,2.12-0.592,4.979-1.101c0.117-0.02,1.89-0.013,1.999-0.04
					c0.617-0.157,5.488-0.095,8.799,1.59c0.486,0.246,1.025,0.386,1.605,0.598c0.458-1.091,0.892-2.123,1.333-3.175
					c1.689,1.141,6.534,9.331,7.574,12.82c-4.119,1.425-8.317,2.517-12.874,3.282c0.387-1.38,0.691-2.464,1.059-3.775
					c-2.213-0.675-4.052-1.2-6.295-1.362C46.044,73.815,44.005,74.036,42.025,75.076"/>
			</g>
			<g style="clip-path:url(#SVGID_00000149375618881791629730000002368680948162851259_);">
				<defs>
					
						<rect id="SVGID_00000125598257006729113930000008239993931584270004_" x="12.507" y="71.257" transform="matrix(0.6123 -0.7906 0.7906 0.6123 -52.3627 52.1262)" width="28.929" height="16.4"/>
				</defs>
				<clipPath id="SVGID_00000178192851279417613230000013132736465515183287_">
					<use xlink:href="#SVGID_00000125598257006729113930000008239993931584270004_"  style="overflow:visible;"/>
				</clipPath>
				<path style="clip-path:url(#SVGID_00000178192851279417613230000013132736465515183287_);fill:#E33A3A;" d="M23.943,89.576
					c-2.839-0.401-9.131-4.542-9.131-4.542c0.434-2.193,0.872-2.02,2.271-4.565c0.057-0.105,1.178-1.48,1.225-1.582
					c0.265-0.579,3.373-4.33,6.764-5.849c0.496-0.222,0.943-0.554,1.473-0.873c-0.562-1.042-1.093-2.027-1.635-3.031
					c1.95-0.598,11.366,0.777,14.733,2.158c-1.477,4.102-3.263,8.053-5.531,12.08c-0.83-1.168-1.483-2.086-2.273-3.196
					c-1.915,1.298-3.478,2.399-5.013,4.044C25.486,85.656,24.377,87.382,23.943,89.576"/>
			</g>
			<g style="clip-path:url(#SVGID_00000149375618881791629730000002368680948162851259_);">
				<defs>
					
						<rect id="SVGID_00000174601272224392182760000004132613741981111690_" x="36.979" y="35.568" transform="matrix(0.5757 -0.8177 0.8177 0.5757 -21.7401 58.1688)" width="16.4" height="28.929"/>
				</defs>
				<clipPath id="SVGID_00000039852530256455268710000018267524886908390041_">
					<use xlink:href="#SVGID_00000174601272224392182760000004132613741981111690_"  style="overflow:visible;"/>
				</clipPath>
				<path style="clip-path:url(#SVGID_00000039852530256455268710000018267524886908390041_);fill:#F26C2B;" d="M34.933,47.467
					c0.272-2.854,4.122-9.328,4.122-9.328c2.211,0.334,2.058,0.779,4.664,2.061c0.107,0.053,1.532,1.109,1.635,1.152
					c0.591,0.238,4.48,3.172,6.151,6.49c0.245,0.486,0.597,0.917,0.939,1.432c1.015-0.608,1.975-1.183,2.954-1.77
					c0.685,1.92-0.259,11.389-1.486,14.815c-4.164-1.288-8.193-2.893-12.319-4.975c1.13-0.883,2.017-1.577,3.09-2.416
					c-1.384-1.854-2.556-3.366-4.268-4.824C38.919,48.83,37.144,47.801,34.933,47.467"/>
			</g>
			<g style="clip-path:url(#SVGID_00000149375618881791629730000002368680948162851259_);">
				<defs>
					
						<rect id="SVGID_00000093861523562414256190000011474624146406709651_" x="52.862" y="41.057" transform="matrix(0.1067 -0.9943 0.9943 0.1067 11.1672 110.943)" width="28.929" height="16.4"/>
				</defs>
				<clipPath id="SVGID_00000131332849098600354720000013525975574233643690_">
					<use xlink:href="#SVGID_00000093861523562414256190000011474624146406709651_"  style="overflow:visible;"/>
				</clipPath>
				<path style="clip-path:url(#SVGID_00000131332849098600354720000013525975574233643690_);fill:#55C95A;" d="M64.598,39.053
					c2.627-1.147,10.156-0.922,10.156-0.922c0.781,2.095,0.318,2.177,0.461,5.078c0.007,0.119-0.226,1.878-0.213,1.989
					c0.078,0.632-0.6,5.456-2.691,8.527c-0.306,0.45-0.512,0.967-0.796,1.516c1.025,0.593,1.993,1.153,2.981,1.724
					c-1.346,1.531-10.084,5.3-13.675,5.89c-0.894-4.267-1.446-8.568-1.627-13.186c1.32,0.559,2.357,0.998,3.611,1.529
					c0.95-2.11,1.704-3.867,2.147-6.073C65.34,43.2,65.379,41.148,64.598,39.053"/>
			</g>
		</g>
	</g>
	<g id="L1_00000004520520674785220420000008400495954582572707_">
		<g>
			<defs>
				<rect id="SVGID_00000149364396186300730920000009771553873066157442_" x="12" y="6" width="18.96" height="18.48"/>
			</defs>
			<clipPath id="SVGID_00000143577025638120621800000000310059188286124991_">
				<use xlink:href="#SVGID_00000149364396186300730920000009771553873066157442_"  style="overflow:visible;"/>
			</clipPath>
			<g style="clip-path:url(#SVGID_00000143577025638120621800000000310059188286124991_);">
				<defs>
					<rect id="SVGID_00000050625793054008046980000017550007909006140308_" x="12" y="6" width="18.96" height="18.48"/>
				</defs>
				<clipPath id="SVGID_00000007408181267256480230000005954553626564811668_">
					<use xlink:href="#SVGID_00000050625793054008046980000017550007909006140308_"  style="overflow:visible;"/>
				</clipPath>
				<g style="clip-path:url(#SVGID_00000007408181267256480230000005954553626564811668_);">
					<defs>
						<rect id="SVGID_00000098210128195287102970000012056485798846622113_" x="12.082" y="5.948" width="19.053" height="18.706"/>
					</defs>
					<clipPath id="SVGID_00000153703892608531245750000017359867671967807921_">
						<use xlink:href="#SVGID_00000098210128195287102970000012056485798846622113_"  style="overflow:visible;"/>
					</clipPath>
					<g style="clip-path:url(#SVGID_00000153703892608531245750000017359867671967807921_);">
						<defs>
							
								<rect id="SVGID_00000111898326908113498450000015104185251398066851_" x="12.082" y="5.948" width="19.053" height="18.706"/>
						</defs>
						<clipPath id="SVGID_00000170264524688872889580000007459761250355279234_">
							<use xlink:href="#SVGID_00000111898326908113498450000015104185251398066851_"  style="overflow:visible;"/>
						</clipPath>
						<polygon style="clip-path:url(#SVGID_00000170264524688872889580000007459761250355279234_);fill:#E1D153;" points="
							31.135,14.613 31.033,15.612 30.624,17.541 30.075,19.653 28.799,21.406 27.278,22.966 25.25,23.798 22.753,24.326 
							21.801,24.654 20.961,24.291 19.192,24.033 17.483,23.474 15.331,22.515 13.821,20.698 12.708,18.604 12.081,15.29 
							12.37,12.802 13.548,10.61 14.996,8.616 17.056,7.241 19.076,6.587 21.102,5.956 22.561,5.948 25.529,7.063 27.727,8.112 
							29.306,9.941 30.461,12.116 						"/>
					</g>
				</g>
			</g>
		</g>
	</g>
	<g id="L1_00000068646405680373476140000004915155179208934792_">
		<g>
			<defs>
				<rect id="SVGID_00000052809390755213694740000012546649427272472988_" x="38" y="11" width="18.96" height="18.48"/>
			</defs>
			<clipPath id="SVGID_00000080207759066306287270000002739725545977152954_">
				<use xlink:href="#SVGID_00000052809390755213694740000012546649427272472988_"  style="overflow:visible;"/>
			</clipPath>
			<g style="clip-path:url(#SVGID_00000080207759066306287270000002739725545977152954_);">
				<defs>
					<rect id="SVGID_00000044864493430217184550000004205356277685581229_" x="38" y="11" width="18.96" height="18.48"/>
				</defs>
				<clipPath id="SVGID_00000117634381738673274370000004322068848083232130_">
					<use xlink:href="#SVGID_00000044864493430217184550000004205356277685581229_"  style="overflow:visible;"/>
				</clipPath>
				<g style="clip-path:url(#SVGID_00000117634381738673274370000004322068848083232130_);">
					<defs>
						
							<rect id="SVGID_00000115515816849849662970000003759120289510463881_" x="38.082" y="10.948" width="19.053" height="18.706"/>
					</defs>
					<clipPath id="SVGID_00000107567383220981333310000013482062566751741342_">
						<use xlink:href="#SVGID_00000115515816849849662970000003759120289510463881_"  style="overflow:visible;"/>
					</clipPath>
					<g style="clip-path:url(#SVGID_00000107567383220981333310000013482062566751741342_);">
						<defs>
							
								<rect id="SVGID_00000060032922010340915320000011673132735630391455_" x="38.082" y="10.948" width="19.053" height="18.706"/>
						</defs>
						<clipPath id="SVGID_00000123436251458231476560000004318884310451993490_">
							<use xlink:href="#SVGID_00000060032922010340915320000011673132735630391455_"  style="overflow:visible;"/>
						</clipPath>
						<polygon style="clip-path:url(#SVGID_00000123436251458231476560000004318884310451993490_);fill:#5699DE;" points="
							57.135,19.613 57.033,20.612 56.624,22.541 56.075,24.653 54.799,26.406 53.278,27.966 51.25,28.798 48.753,29.326 
							47.801,29.654 46.961,29.291 45.192,29.033 43.483,28.474 41.331,27.515 39.821,25.698 38.708,23.604 38.081,20.29 
							38.37,17.802 39.548,15.61 40.996,13.616 43.056,12.241 45.076,11.587 47.102,10.956 48.561,10.948 51.529,12.063 
							53.727,13.112 55.306,14.941 56.461,17.116 						"/>
					</g>
				</g>
			</g>
		</g>
	</g>
	<g id="L1_00000023990574759395894720000003803885354522844604_">
		<g>
			<defs>
				<rect id="SVGID_00000128478832415545519320000003522555334612933516_" x="66" y="5" width="18.96" height="18.48"/>
			</defs>
			<clipPath id="SVGID_00000149382306810450990860000009785834549100487569_">
				<use xlink:href="#SVGID_00000128478832415545519320000003522555334612933516_"  style="overflow:visible;"/>
			</clipPath>
			<g style="clip-path:url(#SVGID_00000149382306810450990860000009785834549100487569_);">
				<defs>
					<rect id="SVGID_00000129198768294522047630000017121579203723809176_" x="66" y="5" width="18.96" height="18.48"/>
				</defs>
				<clipPath id="SVGID_00000123406950473225409510000005979405664819001264_">
					<use xlink:href="#SVGID_00000129198768294522047630000017121579203723809176_"  style="overflow:visible;"/>
				</clipPath>
				<g style="clip-path:url(#SVGID_00000123406950473225409510000005979405664819001264_);">
					<defs>
						<rect id="SVGID_00000009552074360063393220000009197321141120885641_" x="66.082" y="4.948" width="19.053" height="18.706"/>
					</defs>
					<clipPath id="SVGID_00000121992424538420084090000008708311322937605309_">
						<use xlink:href="#SVGID_00000009552074360063393220000009197321141120885641_"  style="overflow:visible;"/>
					</clipPath>
					<g style="clip-path:url(#SVGID_00000121992424538420084090000008708311322937605309_);">
						<defs>
							
								<rect id="SVGID_00000167357452666335300420000000171620087794484141_" x="66.082" y="4.948" width="19.053" height="18.706"/>
						</defs>
						<clipPath id="SVGID_00000098921166947092328920000016764699932355685800_">
							<use xlink:href="#SVGID_00000167357452666335300420000000171620087794484141_"  style="overflow:visible;"/>
						</clipPath>
						<polygon style="clip-path:url(#SVGID_00000098921166947092328920000016764699932355685800_);fill:#AD70D6;" points="
							85.135,13.613 85.033,14.612 84.624,16.541 84.075,18.653 82.799,20.406 81.278,21.966 79.25,22.798 76.753,23.326 
							75.801,23.654 74.961,23.291 73.192,23.033 71.483,22.474 69.331,21.515 67.821,19.698 66.708,17.604 66.081,14.29 
							66.37,11.802 67.548,9.61 68.996,7.616 71.056,6.241 73.076,5.587 75.102,4.956 76.561,4.948 79.529,6.063 81.727,7.112 
							83.306,8.941 84.461,11.116 						"/>
					</g>
				</g>
			</g>
		</g>
	</g>
</g>
<g id="Layer_2">
	<g id="Layer_3">
	</g>
</g>
</svg>
