<?xml version="1.0" encoding="iso-8859-1"?>
<!-- Generator: Adobe Illustrator 26.0.1, SVG Export Plug-In . SVG Version: 6.00 Build 0)  -->
<svg version="1.1" xmlns="http://www.w3.org/2000/svg" xmlns:xlink="http://www.w3.org/1999/xlink" x="0px" y="0px"
	 viewBox="0 0 100 100" style="enable-background:new 0 0 100 100;" xml:space="preserve">
<g id="Layer_1">
	<g id="G_x28__T1_L1__x29_3_L1_L1_00000041297670088981026170000013890619898951206828_">
		<g>
			<defs>
				<rect id="SVGID_1_" x="4" y="9" width="88.96" height="83.48"/>
			</defs>
			<clipPath id="SVGID_00000133512749851288790570000009607365053668720789_">
				<use xlink:href="#SVGID_1_"  style="overflow:visible;"/>
			</clipPath>
			<polygon style="clip-path:url(#SVGID_00000133512749851288790570000009607365053668720789_);fill:#E1D153;" points="37.959,29 
				36.076,29.587 34.057,30.24 31.997,31.615 30.548,33.61 29.37,35.801 29.081,38.29 29.709,41.604 30.82,43.698 32.331,45.514 
				34.483,46.474 36.192,47.032 37.962,47.291 38.4,47.48 39.306,47.48 39.754,47.326 42.25,46.798 44.279,45.966 45.8,44.405 
				47.074,42.652 47.625,40.541 47.96,38.96 47.96,36.962 47.461,35.116 46.307,32.94 44.728,31.111 42.529,30.063 39.701,29 			"/>
			<g style="clip-path:url(#SVGID_00000133512749851288790570000009607365053668720789_);">
				<defs>
					
						<rect id="SVGID_00000152264033343745908210000011998892397332952197_" x="12.026" y="6.595" transform="matrix(0.2915 -0.9566 0.9566 0.2915 -5.8144 34.2701)" width="16.4" height="28.929"/>
				</defs>
				<clipPath id="SVGID_00000105401950212581302500000001284023433205951904_">
					<use xlink:href="#SVGID_00000152264033343745908210000011998892397332952197_"  style="overflow:visible;"/>
				</clipPath>
				<path style="clip-path:url(#SVGID_00000105401950212581302500000001284023433205951904_);fill:#E33A3A;" d="M9.692,21.824
					c-0.634-2.796,1.001-10.148,1.001-10.148c2.205-0.374,2.199,0.096,5.075,0.5c0.118,0.017,1.801,0.575,1.913,0.583
					c0.635,0.042,5.246,1.614,7.87,4.244c0.385,0.385,0.854,0.685,1.34,1.067c0.774-0.895,1.507-1.741,2.253-2.604
					c1.251,1.609,3.312,10.899,3.217,14.538c-4.358,0.076-8.687-0.19-13.256-0.878c0.796-1.192,1.422-2.128,2.179-3.26
					c-1.894-1.329-3.479-2.399-5.561-3.25C13.904,21.874,11.897,21.45,9.692,21.824"/>
			</g>
			<polygon style="clip-path:url(#SVGID_00000133512749851288790570000009607365053668720789_);fill:#AD70D6;" points="81.958,29 
				80.076,29.587 78.056,30.24 75.996,31.615 74.548,33.61 73.37,35.801 73.081,38.29 73.709,41.604 74.82,43.698 76.331,45.514 
				78.483,46.474 80.192,47.032 81.962,47.291 82.399,47.48 83.306,47.48 83.754,47.326 86.25,46.798 88.279,45.966 89.8,44.405 
				91.074,42.652 91.624,40.541 91.96,38.96 91.96,36.962 91.461,35.116 90.306,32.94 88.728,31.111 86.529,30.063 83.7,29 			"/>
			<g style="clip-path:url(#SVGID_00000133512749851288790570000009607365053668720789_);">
				<defs>
					
						<rect id="SVGID_00000096021174968214382760000013785911378166220206_" x="56.026" y="6.595" transform="matrix(0.2915 -0.9566 0.9566 0.2915 25.3613 76.3597)" width="16.4" height="28.929"/>
				</defs>
				<clipPath id="SVGID_00000078724209634547252840000002613925529291576996_">
					<use xlink:href="#SVGID_00000096021174968214382760000013785911378166220206_"  style="overflow:visible;"/>
				</clipPath>
				<path style="clip-path:url(#SVGID_00000078724209634547252840000002613925529291576996_);fill:#F26C2B;" d="M53.692,21.824
					c-0.634-2.796,1.001-10.148,1.001-10.148c2.205-0.374,2.199,0.096,5.075,0.5c0.118,0.017,1.801,0.575,1.913,0.583
					c0.635,0.042,5.246,1.614,7.87,4.244c0.385,0.385,0.854,0.685,1.34,1.067c0.774-0.895,1.507-1.741,2.253-2.604
					c1.251,1.609,3.312,10.899,3.217,14.538c-4.358,0.076-8.687-0.19-13.256-0.878c0.796-1.192,1.422-2.128,2.179-3.26
					c-1.894-1.329-3.479-2.399-5.561-3.25C57.904,21.874,55.897,21.45,53.692,21.824"/>
			</g>
			<polygon style="clip-path:url(#SVGID_00000133512749851288790570000009607365053668720789_);fill:#5699DE;" points="38.959,74 
				37.077,74.587 35.057,75.24 32.997,76.615 31.548,78.61 30.37,80.801 30.081,83.29 30.709,86.604 31.821,88.698 33.331,90.514 
				35.484,91.474 37.192,92.032 38.962,92.291 39.4,92.48 40.306,92.48 40.754,92.326 43.251,91.798 45.279,90.966 46.8,89.405 
				48.075,87.652 48.625,85.541 48.96,83.96 48.96,81.962 48.462,80.116 47.307,77.94 45.728,76.111 43.53,75.063 40.701,74 			"/>
			<g style="clip-path:url(#SVGID_00000133512749851288790570000009607365053668720789_);">
				<defs>
					
						<rect id="SVGID_00000065794643036032967500000014058007811535505075_" x="13.026" y="51.595" transform="matrix(0.2915 -0.9566 0.9566 0.2915 -48.1521 67.1103)" width="16.4" height="28.929"/>
				</defs>
				<clipPath id="SVGID_00000046335640877599490350000001593071179429823895_">
					<use xlink:href="#SVGID_00000065794643036032967500000014058007811535505075_"  style="overflow:visible;"/>
				</clipPath>
				<path style="clip-path:url(#SVGID_00000046335640877599490350000001593071179429823895_);fill:#55C95A;" d="M10.692,66.824
					c-0.634-2.796,1.001-10.148,1.001-10.148c2.205-0.374,2.199,0.096,5.075,0.5c0.118,0.017,1.801,0.575,1.913,0.583
					c0.635,0.042,5.246,1.614,7.87,4.244c0.385,0.385,0.854,0.685,1.34,1.067c0.774-0.895,1.507-1.741,2.253-2.604
					c1.251,1.609,3.312,10.899,3.217,14.538c-4.358,0.076-8.687-0.19-13.256-0.878c0.796-1.192,1.422-2.128,2.179-3.26
					c-1.894-1.329-3.479-2.399-5.561-3.25C14.904,66.874,12.897,66.45,10.692,66.824"/>
			</g>
			<polygon style="clip-path:url(#SVGID_00000133512749851288790570000009607365053668720789_);fill:#9F9EB1;" points="81.959,74 
				80.076,74.587 78.057,75.24 75.996,76.615 74.548,78.61 73.37,80.801 73.08,83.29 73.709,86.604 74.82,88.698 76.331,90.514 
				78.483,91.474 80.192,92.032 81.962,92.291 82.4,92.48 83.306,92.48 83.754,92.326 86.25,91.798 88.279,90.966 89.8,89.405 
				91.074,87.652 91.625,85.541 91.96,83.96 91.96,81.962 91.461,80.116 90.306,77.94 88.728,76.111 86.529,75.063 83.701,74 			"/>
			<polygon style="clip-path:url(#SVGID_00000133512749851288790570000009607365053668720789_);fill:#523742;" points="
				58.811,51.807 56.928,52.394 54.909,53.047 52.849,54.422 51.4,56.417 50.222,58.608 49.933,61.097 50.561,64.411 51.672,66.505 
				53.183,68.321 55.335,69.281 57.044,69.839 58.814,70.098 59.252,70.287 60.158,70.287 60.606,70.133 63.102,69.605 
				65.131,68.773 66.652,67.212 67.926,65.459 68.477,63.348 68.812,61.767 68.812,59.769 68.313,57.923 67.159,55.747 
				65.58,53.918 63.381,52.87 60.553,51.807 			"/>
		</g>
	</g>
</g>
<g id="Layer_2">
	<g id="Layer_3">
	</g>
</g>
</svg>
