<?xml version="1.0" encoding="iso-8859-1"?>
<!-- Generator: Adobe Illustrator 26.0.1, SVG Export Plug-In . SVG Version: 6.00 Build 0)  -->
<svg version="1.1" xmlns="http://www.w3.org/2000/svg" xmlns:xlink="http://www.w3.org/1999/xlink" x="0px" y="0px"
	 viewBox="0 0 100 100" style="enable-background:new 0 0 100 100;" xml:space="preserve">
<g id="Layer_1">
	<g id="G_x28__T1_T1_T1_L3__x29__T1_L1_00000093860702820595433500000005847302907583237534_">
		<g>
			<defs>
				<rect id="SVGID_1_" x="-1" y="4" width="102.767" height="96.721"/>
			</defs>
			<clipPath id="SVGID_00000139287564964233370240000014513814559860223404_">
				<use xlink:href="#SVGID_1_"  style="overflow:visible;"/>
			</clipPath>
			<g style="clip-path:url(#SVGID_00000139287564964233370240000014513814559860223404_);">
				<defs>
					<rect id="SVGID_00000167388283824446244900000008647531382547767967_" x="-1" y="4" width="102.767" height="96.721"/>
				</defs>
				<clipPath id="SVGID_00000090991707378437492240000005613339758770546835_">
					<use xlink:href="#SVGID_00000167388283824446244900000008647531382547767967_"  style="overflow:visible;"/>
				</clipPath>
				<g style="clip-path:url(#SVGID_00000090991707378437492240000005613339758770546835_);">
					<defs>
						<rect id="SVGID_00000155825023882256706640000005767211939110105985_" x="-1" y="4" width="102.767" height="96.721"/>
					</defs>
					<clipPath id="SVGID_00000023281356059853784080000016070916595097739961_">
						<use xlink:href="#SVGID_00000155825023882256706640000005767211939110105985_"  style="overflow:visible;"/>
					</clipPath>
					<g style="opacity:0.99;clip-path:url(#SVGID_00000023281356059853784080000016070916595097739961_);">
						<g>
							<defs>
								
									<rect id="SVGID_00000080170032251466293120000000490380532981040011_" x="19.408" y="15.642" width="47.766" height="52.098"/>
							</defs>
							<clipPath id="SVGID_00000054982250125043457930000017310249064246122120_">
								<use xlink:href="#SVGID_00000080170032251466293120000000490380532981040011_"  style="overflow:visible;"/>
							</clipPath>
							<g style="clip-path:url(#SVGID_00000054982250125043457930000017310249064246122120_);">
								<defs>
									<polygon id="SVGID_00000158726841513704597000000009359167758457775270_" points="19.412,18.375 21.774,67.739 
										67.17,65.011 64.809,15.647 									"/>
								</defs>
								<clipPath id="SVGID_00000118364447666893914210000017850177363656727213_">
									<use xlink:href="#SVGID_00000158726841513704597000000009359167758457775270_"  style="overflow:visible;"/>
								</clipPath>
								<g style="clip-path:url(#SVGID_00000118364447666893914210000017850177363656727213_);">
									<defs>
										
											<rect id="SVGID_00000163063520844094040020000018345840141423978646_" x="24.097" y="16.928" width="34.56" height="22.64"/>
									</defs>
									<clipPath id="SVGID_00000055688755696483846530000010983432453028332423_">
										<use xlink:href="#SVGID_00000163063520844094040020000018345840141423978646_"  style="overflow:visible;"/>
									</clipPath>
									<g style="clip-path:url(#SVGID_00000055688755696483846530000010983432453028332423_);">
										<defs>
											
												<rect id="SVGID_00000042721406311599863140000010690779544735012770_" x="24.097" y="16.928" width="34.56" height="22.64"/>
										</defs>
										<clipPath id="SVGID_00000102533984857993562210000013111201789899477149_">
											<use xlink:href="#SVGID_00000042721406311599863140000010690779544735012770_"  style="overflow:visible;"/>
										</clipPath>
										<path style="clip-path:url(#SVGID_00000102533984857993562210000013111201789899477149_);fill:#5699DE;" d="
											M58.656,27.128c-2.13,2-4.229,4.11-6.53,6.1c-1.78,1.55-3.679,3.03-5.83,4.36c-0.329-1.76-0.57-3.06-0.849-4.56
											c-2.46,0.35-5.101,0.24-7.291,1.19c-2.12,0.94-4.29,2.42-5.3,5.35c-3.03-1.93-5.83-3.73-8.76-5.6
											c1.57-3.19,3.01-6.32,5.88-8.47c0.56-0.41,0.991-0.98,1.44-1.51c1.31-1.5,3.13-1.93,4.88-2.32
											c1.81-0.4,3.72-0.34,5.6-0.49c0.531-0.05,1.08-0.07,1.63-0.1c0.01-1.52,0.02-2.84,0.01-4.15
											C46.276,16.998,57.707,24.688,58.656,27.128"/>
									</g>
								</g>
								<g style="clip-path:url(#SVGID_00000118364447666893914210000017850177363656727213_);">
									<defs>
										
											<rect id="SVGID_00000026868424495469852800000015904640859214135687_" x="21.074" y="39.618" width="25.162" height="26.98"/>
									</defs>
									<clipPath id="SVGID_00000065074213865434941190000017008747722430277802_">
										<use xlink:href="#SVGID_00000026868424495469852800000015904640859214135687_"  style="overflow:visible;"/>
									</clipPath>
									<g style="clip-path:url(#SVGID_00000065074213865434941190000017008747722430277802_);">
										<defs>
											
												<rect id="SVGID_00000149360071716642552430000005564349052679489160_" x="21.074" y="39.618" width="25.162" height="26.98"/>
										</defs>
										<clipPath id="SVGID_00000083802941996064226970000009548836296246524328_">
											<use xlink:href="#SVGID_00000149360071716642552430000005564349052679489160_"  style="overflow:visible;"/>
										</clipPath>
										<path style="clip-path:url(#SVGID_00000083802941996064226970000009548836296246524328_);fill:#AD70D6;" d="
											M46.237,55.379c-0.03,0.939-0.07,1.6-0.09,2.25c-0.07,2.619-0.13,5.239-0.2,7.85c-0.01,0.28-0.13,0.559-0.2,0.82
											l-5.01,0.3c-0.37-0.09-0.75-0.18-1.13-0.271c-2.28-0.599-4.63-1.029-6.83-1.84c-1.16-0.429-2.27-1.339-3.09-2.309
											c-1.65-1.96-3.08-4.101-4.67-6.271c-1.04,0.7-2.18,1.46-3.34,2.25c-1.2-3.08-0.47-16.929,0.99-18.539
											c3.08,0.989,6.23,1.82,9.41,2.9c1.89,0.65,3.81,1.39,5.71,2.29c-1.3,1.199-2.37,2.19-3.47,3.199
											c1.61,2.06,3.18,4.06,4.82,6.141C41.477,54.269,43.287,56.939,46.237,55.379"/>
									</g>
								</g>
								<g style="clip-path:url(#SVGID_00000118364447666893914210000017850177363656727213_);">
									<defs>
										
											<rect id="SVGID_00000150092061451370064700000017138585307698524603_" x="47.887" y="31.678" width="18.86" height="34.04"/>
									</defs>
									<clipPath id="SVGID_00000016057640693040521650000015274719759219601310_">
										<use xlink:href="#SVGID_00000150092061451370064700000017138585307698524603_"  style="overflow:visible;"/>
									</clipPath>
									<g style="clip-path:url(#SVGID_00000016057640693040521650000015274719759219601310_);">
										<defs>
											
												<rect id="SVGID_00000152253433046878289010000018414454890409914024_" x="47.887" y="31.678" width="18.86" height="34.04"/>
										</defs>
										<clipPath id="SVGID_00000060739366116491885850000003627218599732894119_">
											<use xlink:href="#SVGID_00000152253433046878289010000018414454890409914024_"  style="overflow:visible;"/>
										</clipPath>
										<path style="clip-path:url(#SVGID_00000060739366116491885850000003627218599732894119_);fill:#E1D153;" d="
											M64.946,40.469c2.32,4.39,0.57,8.38-1.29,12.37c-0.26,0.58-0.409,1.22-0.64,1.92c1.29,0.489,2.5,0.95,3.731,1.42
											c-1.261,2.05-10.611,8.149-14.631,9.54c-1.33-3.57-2.45-7.2-3.35-11.02c-0.32-1.33-0.62-2.67-0.88-4.04
											c1.61,0.4,2.88,0.7,4.41,1.09c0.711-2.65,1.88-5.27,2.001-7.93c0.099-2.31,0.089-5.06-2.261-6.77
											c0.6-0.39,1.19-0.79,1.761-1.16c2.17-1.43,4.239-2.8,6.37-4.21c2.029,2.47,4.04,5.02,4.729,8.37
											C64.926,40.189,64.896,40.349,64.946,40.469"/>
									</g>
								</g>
							</g>
						</g>
					</g>
				</g>
				<g style="clip-path:url(#SVGID_00000090991707378437492240000005613339758770546835_);">
					<defs>
						<polygon id="SVGID_00000181080579764983228330000007763038462094022824_" points="64.154,39.848 77.044,53.974 
							101.767,30.573 88.876,16.447 						"/>
					</defs>
					<clipPath id="SVGID_00000160912240876278940480000014388341200693809338_">
						<use xlink:href="#SVGID_00000181080579764983228330000007763038462094022824_"  style="overflow:visible;"/>
					</clipPath>
					<g style="clip-path:url(#SVGID_00000160912240876278940480000014388341200693809338_);">
						<defs>
							<rect id="SVGID_00000160904232056119731740000012441463878693139596_" x="66.867" y="23.968" width="31.1" height="23.694"/>
						</defs>
						<clipPath id="SVGID_00000171683427537584947520000007298174517814621869_">
							<use xlink:href="#SVGID_00000160904232056119731740000012441463878693139596_"  style="overflow:visible;"/>
						</clipPath>
						<g style="clip-path:url(#SVGID_00000171683427537584947520000007298174517814621869_);">
							<defs>
								
									<rect id="SVGID_00000176739255034639746780000015271785180418414476_" x="66.867" y="23.968" width="31.1" height="23.694"/>
							</defs>
							<clipPath id="SVGID_00000005259450855329932480000008277723076687212418_">
								<use xlink:href="#SVGID_00000176739255034639746780000015271785180418414476_"  style="overflow:visible;"/>
							</clipPath>
							<path style="clip-path:url(#SVGID_00000005259450855329932480000008277723076687212418_);fill:#55C95A;" d="M97.967,30.958
								c-0.931,2.48-1.391,2.2-3.49,4.91c-0.09,0.11-1.64,1.51-1.71,1.62c-0.42,0.62-4.7,4.42-8.88,5.57
								c-0.61,0.16-1.191,0.47-1.86,0.74c0.45,1.32,0.86,2.57,1.29,3.84c-2.35,0.34-12.86-3.02-16.451-5.25
								c2.491-4.51,5.301-8.79,8.681-13.07c0.72,1.52,1.29,2.71,1.98,4.15c2.45-1.16,4.45-2.15,6.53-3.79
								c1.809-1.43,3.41-3.23,4.34-5.71C91.567,24.958,97.967,30.958,97.967,30.958"/>
						</g>
					</g>
				</g>
				<g style="clip-path:url(#SVGID_00000090991707378437492240000005613339758770546835_);">
					<defs>
						<polygon id="SVGID_00000150814011659889283660000018001716310319430558_" points="-1,23.341 32.5,25.474 33.886,6.133 
							0.385,4.001 						"/>
					</defs>
					<clipPath id="SVGID_00000079458486746934470040000008957680845630417051_">
						<use xlink:href="#SVGID_00000150814011659889283660000018001716310319430558_"  style="overflow:visible;"/>
					</clipPath>
					<g style="clip-path:url(#SVGID_00000079458486746934470040000008957680845630417051_);">
						<defs>
							<rect id="SVGID_00000170990513822758499000000000508568805972967299_" x="3.237" y="5.738" width="29.24" height="18.58"/>
						</defs>
						<clipPath id="SVGID_00000012470228819589506900000002912959011775313060_">
							<use xlink:href="#SVGID_00000170990513822758499000000000508568805972967299_"  style="overflow:visible;"/>
						</clipPath>
						<g style="clip-path:url(#SVGID_00000012470228819589506900000002912959011775313060_);">
							<defs>
								<rect id="SVGID_00000025440376791295060580000004824400529083873170_" x="3.237" y="5.738" width="29.24" height="18.58"/>
							</defs>
							<clipPath id="SVGID_00000072967442990161945870000002440632472933586610_">
								<use xlink:href="#SVGID_00000025440376791295060580000004824400529083873170_"  style="overflow:visible;"/>
							</clipPath>
							<path style="clip-path:url(#SVGID_00000072967442990161945870000002440632472933586610_);fill:#F26C2B;" d="M25.107,5.868
								c1.83,1.51,6.55,11.63,7.37,15.83c-4.91,1.28-9.88,2.16-15.23,2.62c0.59-1.59,1.06-2.84,1.63-4.35
								c-2.49-1.01-4.56-1.8-7.13-2.21c-2.25-0.36-4.64-0.3-7.04,0.74c-1.43-3.05-1.47-11.95-1.47-11.95
								c2.4-1.03,2.52-0.48,5.88-0.81c0.13-0.01,2.18,0.17,2.31,0.15c0.73-0.12,6.36,0.42,10,2.73c0.54,0.34,1.15,0.55,1.79,0.86
								C23.866,8.239,24.476,7.069,25.107,5.868"/>
						</g>
					</g>
				</g>
				<g style="clip-path:url(#SVGID_00000090991707378437492240000005613339758770546835_);">
					<defs>
						<polygon id="SVGID_00000003071763151288977910000003109099197319444670_" points="12.557,98.479 31.57,99.335 33.402,65.185 
							14.387,64.33 						"/>
					</defs>
					<clipPath id="SVGID_00000021821227383355880390000000916582732253973137_">
						<use xlink:href="#SVGID_00000003071763151288977910000003109099197319444670_"  style="overflow:visible;"/>
					</clipPath>
					<g style="clip-path:url(#SVGID_00000021821227383355880390000000916582732253973137_);">
						<defs>
							<rect id="SVGID_00000082351043265575916550000016604899430618915975_" x="14.196" y="65.318" width="18.19" height="30.18"/>
						</defs>
						<clipPath id="SVGID_00000180363193776591543240000000491451851256045454_">
							<use xlink:href="#SVGID_00000082351043265575916550000016604899430618915975_"  style="overflow:visible;"/>
						</clipPath>
						<g style="clip-path:url(#SVGID_00000180363193776591543240000000491451851256045454_);">
							<defs>
								
									<rect id="SVGID_00000132049277787668908730000013296059170650515364_" x="14.196" y="65.318" width="18.19" height="30.18"/>
							</defs>
							<clipPath id="SVGID_00000015332027380885817970000015820069961892977562_">
								<use xlink:href="#SVGID_00000132049277787668908730000013296059170650515364_"  style="overflow:visible;"/>
							</clipPath>
							<path style="clip-path:url(#SVGID_00000015332027380885817970000015820069961892977562_);fill:#E33A3A;" d="M29.697,65.318
								c1.3,4.96,2.2,9.99,2.69,15.43c-1.57-0.57-2.8-1.01-4.28-1.539c-0.98,2.559-1.74,4.689-2.12,7.319
								c-0.34,2.3-0.26,4.72,0.78,7.141c-2.98,1.54-11.72,1.829-11.72,1.829c-1.04-2.409-0.5-2.539-0.85-5.95
								c-0.01-0.14,0.15-2.23,0.13-2.36c-0.13-0.74,0.36-6.479,2.6-10.26c0.33-0.549,0.54-1.17,0.83-1.839
								c-1.22-0.63-2.38-1.221-3.56-1.821C15.667,71.368,25.567,66.278,29.697,65.318"/>
						</g>
					</g>
				</g>
				<polygon style="clip-path:url(#SVGID_00000090991707378437492240000005613339758770546835_);fill:#9F9EB1;" points="
					82.73,77.978 80.842,78.566 78.823,79.22 76.762,80.594 75.314,82.588 74.136,84.78 73.848,87.261 73.848,87.273 74.474,90.582 
					75.588,92.677 77.097,94.493 79.25,95.452 80.959,96.011 82.727,96.27 83.167,96.459 84.071,96.459 84.519,96.305 
					87.016,95.776 89.045,94.944 90.565,93.385 91.842,91.631 92.39,89.52 92.726,87.934 92.726,85.943 92.227,84.094 
					91.073,81.919 89.494,80.089 87.296,79.041 84.464,77.978 				"/>
				<g style="clip-path:url(#SVGID_00000090991707378437492240000005613339758770546835_);">
					<defs>
						
							<rect id="SVGID_00000081607052803948492710000009462342851073088679_" x="43.549" y="73.96" transform="matrix(0.7465 -0.6653 0.6653 0.7465 -40.6032 60.113)" width="30.098" height="18.779"/>
					</defs>
					<clipPath id="SVGID_00000099644097450921169180000011640314157537481661_">
						<use xlink:href="#SVGID_00000081607052803948492710000009462342851073088679_"  style="overflow:visible;"/>
					</clipPath>
					<path style="clip-path:url(#SVGID_00000099644097450921169180000011640314157537481661_);fill:#523742;" d="M65.171,73.62
						c0.966-0.915,0.053-3.007,2.027-3.24c2.72,3.457,5.413,6.87,8.278,10.506c-3.606,2.355-7.56,3.856-11.346,5.65
						c-0.391-0.107-0.718-0.204-1.115-0.306c0.187-1.412,0.39-2.852,0.589-4.329c-2.536-1.491-4.782-0.359-6.642,0.829
						c-3.03,1.937-2.111,4.922-1.34,7.396c0.565,0.783,0.959,1.315,1.477,2.033c-2.545,1.398-4.857,2.666-7.211,3.947
						c-0.181-0.173-0.387-0.284-0.435-0.442c-0.688-1.945-1.697-3.859-1.936-5.856c-0.591-5.006,0.683-9.53,4.466-13.129
						c2.427-2.297,5.197-3.774,8.611-3.641C62.092,73.096,63.575,73.408,65.171,73.62"/>
				</g>
			</g>
		</g>
	</g>
</g>
<g id="Layer_2">
	<g id="Layer_3">
	</g>
</g>
</svg>
