<?xml version="1.0" encoding="iso-8859-1"?>
<!-- Generator: Adobe Illustrator 26.0.1, SVG Export Plug-In . SVG Version: 6.00 Build 0)  -->
<svg version="1.1" xmlns="http://www.w3.org/2000/svg" xmlns:xlink="http://www.w3.org/1999/xlink" x="0px" y="0px"
	 viewBox="0 0 100 100" style="enable-background:new 0 0 100 100;" xml:space="preserve">
<g id="Layer_1">
	<g id="L3_L1_L1_L1_L1_L1_00000110470437313946434340000012502937706725531567_">
		<g>
			<defs>
				<rect id="SVGID_1_" x="8" y="12" width="84.96" height="82.743"/>
			</defs>
			<clipPath id="SVGID_00000175321444867528968600000017759220056655638174_">
				<use xlink:href="#SVGID_1_"  style="overflow:visible;"/>
			</clipPath>
			<polygon style="clip-path:url(#SVGID_00000175321444867528968600000017759220056655638174_);fill:#55C95A;" points="82.26,12 
				79.43,13.063 77.232,14.111 75.654,15.94 74.498,18.115 74,19.965 74,21.956 74.336,23.541 74.884,25.653 76.161,27.405 
				77.682,28.966 79.709,29.798 82.207,30.326 82.654,30.48 83.561,30.48 83.999,30.291 85.768,30.032 87.476,29.473 89.629,28.515 
				91.138,26.698 92.252,24.604 92.878,21.295 92.878,21.282 92.59,18.801 91.412,16.61 89.964,14.615 87.904,13.24 85.883,12.587 
				83.999,12 			"/>
			<polygon style="clip-path:url(#SVGID_00000175321444867528968600000017759220056655638174_);fill:#523742;" points="82.26,40 
				79.43,41.063 77.232,42.111 75.654,43.941 74.498,46.116 74,47.965 74,49.956 74.336,51.541 74.884,53.653 76.161,55.405 
				77.682,56.966 79.709,57.798 82.207,58.326 82.654,58.48 83.561,58.48 83.999,58.291 85.768,58.032 87.476,57.474 89.629,56.515 
				91.138,54.698 92.252,52.604 92.878,49.295 92.878,49.282 92.59,46.801 91.412,44.61 89.964,42.615 87.904,41.241 85.883,40.587 
				83.999,40 			"/>
			<polygon style="clip-path:url(#SVGID_00000175321444867528968600000017759220056655638174_);fill:#9F9EB1;" points="82.26,70 
				79.43,71.063 77.232,72.112 75.654,73.941 74.498,76.116 74,77.965 74,79.956 74.336,81.541 74.884,83.653 76.161,85.406 
				77.682,86.966 79.709,87.798 82.207,88.326 82.655,88.481 83.56,88.481 83.999,88.291 85.768,88.033 87.476,87.474 
				89.629,86.515 91.138,84.698 92.252,82.604 92.878,79.295 92.878,79.282 92.59,76.802 91.412,74.61 89.964,72.616 87.904,71.241 
				85.883,70.587 83.999,70 			"/>
			<polygon style="clip-path:url(#SVGID_00000175321444867528968600000017759220056655638174_);fill:#F26C2B;" points="50.26,12 
				47.43,13.063 45.232,14.111 43.653,15.94 42.498,18.115 42,19.963 42,21.96 42.336,23.541 42.884,25.653 44.161,27.405 
				45.682,28.966 47.709,29.798 50.206,30.326 50.653,30.48 51.56,30.48 51.998,30.291 53.767,30.032 55.476,29.473 57.628,28.515 
				59.138,26.698 60.251,24.604 60.878,21.29 60.589,18.801 59.411,16.61 57.963,14.615 55.903,13.24 53.883,12.587 51.999,12 			
				"/>
			<polygon style="clip-path:url(#SVGID_00000175321444867528968600000017759220056655638174_);fill:#E33A3A;" points="17.26,12 
				14.43,13.063 12.232,14.111 10.654,15.94 9.498,18.115 9,19.963 9,21.956 9.336,23.541 9.884,25.653 11.161,27.405 
				12.682,28.966 14.709,29.798 17.207,30.326 17.654,30.48 18.561,30.48 18.999,30.291 20.767,30.032 22.476,29.473 24.628,28.515 
				26.138,26.698 27.252,24.604 27.878,21.29 27.589,18.801 26.411,16.61 24.964,14.615 22.904,13.24 20.883,12.587 18.999,12 			
				"/>
			<g style="clip-path:url(#SVGID_00000175321444867528968600000017759220056655638174_);">
				<defs>
					<rect id="SVGID_00000086690787695236023050000012698745336831900855_" x="8.005" y="40.003" width="47.995" height="46.144"/>
				</defs>
				<clipPath id="SVGID_00000138540761757646110910000014452064527572287891_">
					<use xlink:href="#SVGID_00000086690787695236023050000012698745336831900855_"  style="overflow:visible;"/>
				</clipPath>
				<path style="clip-path:url(#SVGID_00000138540761757646110910000014452064527572287891_);fill:#AD70D6;" d="M56,61.775v5.092
					c-0.115,0.378-0.218,0.755-0.333,1.132c-0.711,2.287-1.261,4.645-2.179,6.837c-0.481,1.156-1.433,2.24-2.419,3.018
					c-1.996,1.58-4.152,2.924-6.354,4.432c0.619,1.085,1.296,2.275,1.996,3.49c-3.063,1.072-16.446-0.342-17.926-1.898
					c1.147-3.077,2.134-6.224,3.361-9.395c0.745-1.886,1.571-3.796,2.557-5.682c1.09,1.379,1.984,2.511,2.902,3.678
					c2.087-1.533,4.117-3.03,6.227-4.586c0.252-2.369,2.947-4.079,1.606-7.144c0.917,0.083,1.548,0.154,2.179,0.201
					c2.534,0.2,5.069,0.389,7.603,0.589C55.484,61.563,55.748,61.692,56,61.775"/>
				<path style="clip-path:url(#SVGID_00000138540761757646110910000014452064527572287891_);fill:#5699DE;" d="M47.41,40.002
					c1.915,1.379,7.282,11.152,8.395,15.289c-3.532,1.179-7.122,2.134-10.872,2.865c-1.308,0.259-2.626,0.495-3.968,0.695
					c0.481-1.615,0.848-2.888,1.307-4.42c-2.523-0.849-5-2.158-7.569-2.405c-2.236-0.212-4.897-0.342-6.698,1.957
					c-0.344-0.625-0.688-1.238-1.02-1.839c-1.262-2.264-2.466-4.433-3.705-6.661c2.512-1.933,5.104-3.854,8.384-4.385
					c0.137-0.023,0.298,0.012,0.413-0.035c4.392-2.134,8.154-0.165,11.915,1.91c0.551,0.294,1.159,0.471,1.824,0.742
					C46.366,42.43,46.882,41.228,47.41,40.002"/>
				<path style="clip-path:url(#SVGID_00000138540761757646110910000014452064527572287891_);fill:#E1D153;" d="M12.179,69.189
					c-0.275-1.851-0.115-3.784-0.149-5.694c-0.012-0.542,0-1.096,0-1.662c-1.468-0.082-2.753-0.153-4.025-0.212
					c0.229-2.77,8.349-13.981,10.768-14.829c1.824,2.263,3.739,4.491,5.54,6.919c1.399,1.874,2.718,3.878,3.887,6.118
					c-1.731,0.248-3.004,0.425-4.472,0.637c0.195,2.511-0.069,5.187,0.734,7.45c0.78,2.192,2.087,4.468,4.874,5.635
					c-2.053,2.97-3.957,5.729-5.941,8.605c-3.005-1.745-5.952-3.36-7.867-6.377c-0.367-0.578-0.895-1.05-1.376-1.533
					C12.764,72.855,12.454,70.981,12.179,69.189"/>
			</g>
		</g>
	</g>
</g>
<g id="Layer_2">
	<g id="Layer_3">
	</g>
</g>
</svg>
