<?xml version="1.0" encoding="iso-8859-1"?>
<!-- Generator: Adobe Illustrator 26.0.1, SVG Export Plug-In . SVG Version: 6.00 Build 0)  -->
<svg version="1.1" xmlns="http://www.w3.org/2000/svg" xmlns:xlink="http://www.w3.org/1999/xlink" x="0px" y="0px"
	 viewBox="0 0 100 100" style="enable-background:new 0 0 100 100;" xml:space="preserve">
<g id="Layer_1">
	<g id="G_x28__T1_T1_T1_L1__x29__L1_L1_L1_L1_00000118369037381372579130000010406626170824462771_">
		<g>
			<defs>
				<rect id="SVGID_1_" x="9" width="83.96" height="95.27"/>
			</defs>
			<clipPath id="SVGID_00000146471808827992202750000006048458646161917846_">
				<use xlink:href="#SVGID_1_"  style="overflow:visible;"/>
			</clipPath>
			<polygon style="clip-path:url(#SVGID_00000146471808827992202750000006048458646161917846_);fill:#9F9EB1;" points="
				48.338,18.386 46.237,18.695 43.977,19.708 42.217,21.433 40.691,23.398 39.992,25.802 39.991,25.805 40.059,29.175 
				40.808,31.425 41.994,33.468 43.957,34.772 45.549,35.608 47.25,36.157 47.651,36.416 48.544,36.567 49.011,36.49 51.561,36.384 
				53.699,35.902 55.459,34.617 57.009,33.1 57.901,31.109 58.496,29.603 58.828,27.638 58.644,25.733 57.867,23.396 56.614,21.329 
				54.622,19.93 52.009,18.41 50.292,18.121 			"/>
			<g style="clip-path:url(#SVGID_00000146471808827992202750000006048458646161917846_);">
				<defs>
					
						<rect id="SVGID_00000097478078751862492410000001450826558134038151_" x="19.878" y="0.11" transform="matrix(0.1664 -0.9861 0.9861 0.1664 9.0334 39.8349)" width="16.4" height="28.929"/>
				</defs>
				<clipPath id="SVGID_00000103943777816450448260000004696196923257701286_">
					<use xlink:href="#SVGID_00000097478078751862492410000001450826558134038151_"  style="overflow:visible;"/>
				</clipPath>
				<path style="clip-path:url(#SVGID_00000103943777816450448260000004696196923257701286_);fill:#E1D153;" d="M17.728,16.683
					C16.741,13.991,17.42,6.49,17.42,6.49c2.139-0.654,2.193-0.186,5.097-0.154c0.12,0,1.86,0.339,1.972,0.332
					c0.635-0.039,5.41,0.929,8.35,3.201c0.431,0.332,0.934,0.569,1.465,0.886c0.653-0.987,1.271-1.92,1.9-2.872
					c1.447,1.436,4.682,10.385,5.055,14.006c-4.313,0.635-8.64,0.926-13.26,0.829c0.638-1.285,1.138-2.293,1.744-3.513
					c-2.049-1.075-3.758-1.934-5.932-2.509C21.912,16.192,19.867,16.03,17.728,16.683"/>
			</g>
			<g style="clip-path:url(#SVGID_00000146471808827992202750000006048458646161917846_);">
				<defs>
					
						<rect id="SVGID_00000027564510041866872930000008421073527468560829_" x="57.125" y="8.049" transform="matrix(0.6665 -0.7455 0.7455 0.6665 11.7624 58.7906)" width="28.929" height="16.4"/>
				</defs>
				<clipPath id="SVGID_00000077293497216306198640000013961336636236962981_">
					<use xlink:href="#SVGID_00000027564510041866872930000008421073527468560829_"  style="overflow:visible;"/>
				</clipPath>
				<path style="clip-path:url(#SVGID_00000077293497216306198640000013961336636236962981_);fill:#5699DE;" d="M75.323,6.368
					c2.804,0.6,8.788,5.173,8.788,5.173c-0.587,2.158-1.012,1.954-2.587,4.394c-0.064,0.101-1.278,1.393-1.332,1.492
					c-0.306,0.558-3.67,4.082-7.159,5.358c-0.511,0.187-0.98,0.487-1.53,0.767c0.486,1.079,0.946,2.099,1.416,3.139
					c-1.987,0.459-11.283-1.575-14.544-3.19c1.761-3.987,3.822-7.803,6.367-11.66c0.746,1.224,1.333,2.185,2.043,3.348
					c2.001-1.16,3.639-2.149,5.285-3.681C73.508,10.169,74.735,8.525,75.323,6.368"/>
			</g>
			<g style="clip-path:url(#SVGID_00000146471808827992202750000006048458646161917846_);">
				<defs>
					
						<rect id="SVGID_00000071523289708799390950000013617949309685422720_" x="42.298" y="37.751" transform="matrix(0.9133 -0.4074 0.4074 0.9133 -16.8909 25.0998)" width="16.4" height="28.93"/>
				</defs>
				<clipPath id="SVGID_00000098207784891302677920000017875088649089900447_">
					<use xlink:href="#SVGID_00000071523289708799390950000013617949309685422720_"  style="overflow:visible;"/>
				</clipPath>
				<path style="clip-path:url(#SVGID_00000098207784891302677920000017875088649089900447_);fill:#AD70D6;" d="M57.984,59.668
					c-1.695,2.312-8.318,5.899-8.318,5.899c-1.728-1.419-1.369-1.722-2.95-4.159c-0.065-0.099-0.747-1.736-0.815-1.826
					c-0.384-0.507-2.222-5.018-1.958-8.725c0.039-0.543-0.042-1.093-0.073-1.71c-1.183,0.002-2.303,0.004-3.443,0.007
					c0.394-2,6.056-9.649,8.864-11.964c2.917,3.24,5.554,6.682,8.032,10.583c-1.422,0.181-2.539,0.322-3.891,0.493
					c0.24,2.301,0.471,4.2,1.195,6.33C55.259,56.455,56.256,58.248,57.984,59.668"/>
			</g>
			<polygon style="clip-path:url(#SVGID_00000146471808827992202750000006048458646161917846_);fill:#E33A3A;" points="
				17.958,50.79 16.076,51.377 14.056,52.031 11.996,53.406 10.548,55.399 9.37,57.591 9.082,60.072 9.082,60.085 9.708,63.394 
				10.821,65.488 12.332,67.304 14.483,68.263 16.193,68.823 17.961,69.081 18.401,69.271 19.303,69.271 19.753,69.116 
				22.25,68.588 24.278,67.756 25.799,66.196 27.075,64.442 27.624,62.331 27.96,60.745 27.96,58.755 27.461,56.906 26.306,54.73 
				24.727,52.901 22.529,51.852 19.7,50.79 			"/>
			<polygon style="clip-path:url(#SVGID_00000146471808827992202750000006048458646161917846_);fill:#523742;" points="
				82.958,50.79 81.076,51.377 79.057,52.031 76.996,53.406 75.548,55.399 74.37,57.591 74.082,60.072 74.082,60.085 74.708,63.394 
				75.821,65.488 77.331,67.304 79.483,68.263 81.192,68.823 82.961,69.081 83.401,69.271 84.303,69.271 84.753,69.116 
				87.25,68.588 89.278,67.756 90.799,66.196 92.075,64.442 92.624,62.331 92.96,60.745 92.96,58.754 92.461,56.906 91.307,54.73 
				89.727,52.901 87.529,51.852 84.7,50.79 			"/>
			<polygon style="clip-path:url(#SVGID_00000146471808827992202750000006048458646161917846_);fill:#F26C2B;" points="
				34.961,76.79 33.076,77.377 31.056,78.031 28.996,79.406 27.548,81.399 26.37,83.591 26.081,86.08 26.708,89.394 27.822,91.488 
				29.332,93.304 31.484,94.264 33.192,94.823 34.961,95.081 35.399,95.27 36.306,95.27 36.753,95.116 39.251,94.588 41.278,93.756 
				42.799,92.196 44.075,90.442 44.625,88.331 44.96,86.745 44.96,84.755 44.462,82.906 43.306,80.73 41.728,78.901 39.529,77.852 
				36.701,76.79 			"/>
			<polygon style="clip-path:url(#SVGID_00000146471808827992202750000006048458646161917846_);fill:#55C95A;" points="
				64.961,76.79 63.077,77.377 61.057,78.031 58.996,79.406 57.548,81.399 56.37,83.591 56.082,86.072 56.082,86.085 56.708,89.394 
				57.822,91.488 59.331,93.304 61.484,94.264 63.193,94.823 64.961,95.081 65.399,95.27 66.306,95.27 66.753,95.116 69.25,94.588 
				71.278,93.756 72.799,92.196 74.076,90.442 74.625,88.331 74.96,86.745 74.96,84.754 74.461,82.906 73.307,80.73 71.728,78.901 
				69.53,77.852 66.701,76.79 			"/>
		</g>
	</g>
</g>
<g id="Layer_2">
	<g id="Layer_3">
	</g>
</g>
</svg>
