<?xml version="1.0" encoding="iso-8859-1"?>
<!-- Generator: Adobe Illustrator 26.0.1, SVG Export Plug-In . SVG Version: 6.00 Build 0)  -->
<svg version="1.1" xmlns="http://www.w3.org/2000/svg" xmlns:xlink="http://www.w3.org/1999/xlink" x="0px" y="0px"
	 viewBox="0 0 100 100" style="enable-background:new 0 0 100 100;" xml:space="preserve">
<g id="Layer_1">
	<g id="G_x28__tree_x28__T2_T1_T1_L1_x29___x29__L1_L1_L1_00000119834081346340137170000000311212624080297624_">
		<g>
			<defs>
				<rect id="SVGID_1_" x="12" y="7" width="74.738" height="96.231"/>
			</defs>
			<clipPath id="SVGID_00000093146667439732462460000015172040169379077760_">
				<use xlink:href="#SVGID_1_"  style="overflow:visible;"/>
			</clipPath>
			<polygon style="clip-path:url(#SVGID_00000093146667439732462460000015172040169379077760_);fill:#523742;" points="
				71.491,75.117 69.884,76.26 68.167,77.508 66.636,79.455 65.879,81.8 65.44,84.249 65.938,86.705 67.563,89.66 69.271,91.305 
				71.271,92.563 73.615,92.806 75.413,92.806 77.175,92.502 77.649,92.546 78.513,92.264 78.889,91.979 81.098,90.702 
				82.768,89.281 83.729,87.325 84.396,85.263 84.264,83.086 84.091,81.478 83.47,79.579 82.423,77.979 80.65,76.27 78.581,75.022 
				76.166,74.708 73.147,74.576 			"/>
			<g style="clip-path:url(#SVGID_00000093146667439732462460000015172040169379077760_);">
				<defs>
					
						<rect id="SVGID_00000183936339928613986400000008409387808246767786_" x="37.705" y="64.877" transform="matrix(0.9998 -0.02 0.02 0.9998 -1.4511 1.058)" width="28.929" height="16.4"/>
				</defs>
				<clipPath id="SVGID_00000080907316421784161050000012457847949257458859_">
					<use xlink:href="#SVGID_00000183936339928613986400000008409387808246767786_"  style="overflow:visible;"/>
				</clipPath>
				<path style="clip-path:url(#SVGID_00000080907316421784161050000012457847949257458859_);fill:#9F9EB1;" d="M42.394,77.076
					c-1.471-2.461-2.2-9.957-2.2-9.957c1.979-1.04,2.12-0.592,4.979-1.101c0.117-0.02,1.89-0.013,1.999-0.04
					c0.617-0.157,5.488-0.095,8.799,1.59c0.486,0.246,1.025,0.386,1.605,0.598c0.458-1.091,0.892-2.123,1.333-3.175
					c1.689,1.141,6.534,9.331,7.574,12.82c-4.119,1.425-8.317,2.517-12.874,3.282c0.387-1.38,0.691-2.464,1.059-3.775
					c-2.213-0.675-4.052-1.2-6.295-1.362C46.412,75.815,44.373,76.036,42.394,77.076"/>
			</g>
			<g style="clip-path:url(#SVGID_00000093146667439732462460000015172040169379077760_);">
				<defs>
					
						<rect id="SVGID_00000152959810196300181430000017151444799127521427_" x="12.875" y="73.257" transform="matrix(0.6123 -0.7906 0.7906 0.6123 -53.8015 53.1946)" width="28.929" height="16.4"/>
				</defs>
				<clipPath id="SVGID_00000120519653674939491270000016788126990387264389_">
					<use xlink:href="#SVGID_00000152959810196300181430000017151444799127521427_"  style="overflow:visible;"/>
				</clipPath>
				<path style="clip-path:url(#SVGID_00000120519653674939491270000016788126990387264389_);fill:#E33A3A;" d="M24.312,91.576
					c-2.839-0.401-9.131-4.542-9.131-4.542c0.434-2.193,0.872-2.02,2.271-4.565c0.057-0.105,1.178-1.48,1.225-1.582
					c0.265-0.579,3.373-4.33,6.764-5.849c0.496-0.222,0.943-0.554,1.473-0.873c-0.562-1.042-1.093-2.027-1.635-3.031
					c1.95-0.598,11.366,0.777,14.733,2.158c-1.477,4.102-3.263,8.053-5.531,12.08c-0.83-1.168-1.483-2.086-2.273-3.196
					c-1.915,1.298-3.478,2.399-5.013,4.044C25.855,87.656,24.746,89.382,24.312,91.576"/>
			</g>
			<g style="clip-path:url(#SVGID_00000093146667439732462460000015172040169379077760_);">
				<defs>
					
						<rect id="SVGID_00000139994584446624989200000001505091370950466963_" x="37.348" y="37.568" transform="matrix(0.5757 -0.8177 0.8177 0.5757 -23.2189 59.3189)" width="16.4" height="28.929"/>
				</defs>
				<clipPath id="SVGID_00000026151463297160405620000016615656487133010589_">
					<use xlink:href="#SVGID_00000139994584446624989200000001505091370950466963_"  style="overflow:visible;"/>
				</clipPath>
				<path style="clip-path:url(#SVGID_00000026151463297160405620000016615656487133010589_);fill:#F26C2B;" d="M35.301,49.467
					c0.272-2.854,4.122-9.328,4.122-9.328c2.211,0.334,2.058,0.779,4.664,2.061c0.107,0.053,1.532,1.109,1.635,1.152
					c0.591,0.238,4.48,3.172,6.151,6.49c0.245,0.486,0.597,0.917,0.939,1.432c1.015-0.608,1.975-1.183,2.954-1.77
					c0.685,1.92-0.259,11.389-1.486,14.815c-4.164-1.288-8.193-2.893-12.319-4.975c1.13-0.883,2.017-1.577,3.09-2.416
					c-1.384-1.854-2.556-3.366-4.268-4.824C39.287,50.83,37.512,49.801,35.301,49.467"/>
			</g>
			<g style="clip-path:url(#SVGID_00000093146667439732462460000015172040169379077760_);">
				<defs>
					
						<rect id="SVGID_00000135676646305195327780000016286807063602027192_" x="53.231" y="43.057" transform="matrix(0.1066 -0.9943 0.9943 0.1066 9.5123 113.1003)" width="28.929" height="16.4"/>
				</defs>
				<clipPath id="SVGID_00000075866027648777165970000009030899555352837010_">
					<use xlink:href="#SVGID_00000135676646305195327780000016286807063602027192_"  style="overflow:visible;"/>
				</clipPath>
				<path style="clip-path:url(#SVGID_00000075866027648777165970000009030899555352837010_);fill:#55C95A;" d="M64.967,41.053
					c2.627-1.147,10.156-0.922,10.156-0.922c0.781,2.095,0.318,2.177,0.461,5.078c0.007,0.119-0.226,1.878-0.213,1.989
					c0.078,0.632-0.6,5.456-2.691,8.527c-0.306,0.45-0.512,0.967-0.796,1.516c1.025,0.593,1.993,1.153,2.981,1.724
					c-1.346,1.531-10.084,5.3-13.675,5.89c-0.894-4.267-1.446-8.568-1.627-13.186c1.32,0.559,2.357,0.998,3.611,1.529
					c0.95-2.11,1.704-3.867,2.147-6.073C65.709,45.2,65.748,43.148,64.967,41.053"/>
			</g>
			<polygon style="clip-path:url(#SVGID_00000093146667439732462460000015172040169379077760_);fill:#E1D153;" points="21.329,8 
				19.445,8.587 17.425,9.241 15.365,10.616 13.917,12.61 12.739,14.802 12.45,17.29 13.077,20.604 14.19,22.698 15.7,24.515 
				17.852,25.474 19.561,26.033 21.33,26.291 21.769,26.481 22.673,26.481 23.122,26.326 25.619,25.798 27.647,24.966 
				29.168,23.406 30.444,21.653 30.993,19.541 31.328,17.96 31.328,15.963 30.83,14.116 29.675,11.941 28.096,10.112 25.898,9.063 
				23.069,8 			"/>
			<polygon style="clip-path:url(#SVGID_00000093146667439732462460000015172040169379077760_);fill:#5699DE;" points="47.329,13 
				45.445,13.587 43.425,14.24 41.365,15.615 39.917,17.61 38.739,19.801 38.45,22.29 39.077,25.604 40.19,27.698 41.7,29.515 
				43.852,30.474 45.561,31.032 47.33,31.291 47.768,31.48 48.675,31.48 49.122,31.326 51.619,30.798 53.646,29.966 55.167,28.405 
				56.444,26.653 56.993,24.541 57.328,22.96 57.328,20.963 56.83,19.116 55.675,16.94 54.096,15.111 51.898,14.063 49.068,13 			
				"/>
			<polygon style="clip-path:url(#SVGID_00000093146667439732462460000015172040169379077760_);fill:#AD70D6;" points="75.329,7 
				73.445,7.587 71.425,8.241 69.365,9.616 67.917,11.61 66.739,13.802 66.45,16.29 67.077,19.604 68.19,21.698 69.7,23.515 
				71.852,24.473 73.561,25.033 75.33,25.291 75.767,25.48 76.676,25.48 77.122,25.326 79.619,24.798 81.647,23.966 83.168,22.406 
				84.444,20.653 84.993,18.541 85.328,16.96 85.328,14.963 84.83,13.115 83.675,10.941 82.096,9.112 79.898,8.063 77.069,7 			"/>
		</g>
	</g>
</g>
<g id="Layer_2">
	<g id="Layer_3">
	</g>
</g>
</svg>
