<?xml version="1.0" encoding="iso-8859-1"?>
<!-- Generator: Adobe Illustrator 26.0.1, SVG Export Plug-In . SVG Version: 6.00 Build 0)  -->
<svg version="1.1" xmlns="http://www.w3.org/2000/svg" xmlns:xlink="http://www.w3.org/1999/xlink" x="0px" y="0px"
	 viewBox="0 0 100 100" style="enable-background:new 0 0 100 100;" xml:space="preserve">
<g id="Layer_1">
	<g id="G_x28__T1_T1_T1_T1_T1_T1_L2__x29__00000170972165882264126290000018185280379781545407_">
		<g>
			<defs>
				<rect id="SVGID_1_" x="-2" y="7" width="103.806" height="82.14"/>
			</defs>
			<clipPath id="SVGID_00000148632074475968014200000009018787707969744550_">
				<use xlink:href="#SVGID_1_"  style="overflow:visible;"/>
			</clipPath>
			<g style="clip-path:url(#SVGID_00000148632074475968014200000009018787707969744550_);">
				<defs>
					
						<rect id="SVGID_00000069387147737072322800000011111775442561880232_" x="30.743" y="41.502" transform="matrix(0.9997 -0.0264 0.0264 0.9997 -1.4119 1.339)" width="38.601" height="25.36"/>
				</defs>
				<clipPath id="SVGID_00000171681140191124025270000017268126636709342648_">
					<use xlink:href="#SVGID_00000069387147737072322800000011111775442561880232_"  style="overflow:visible;"/>
				</clipPath>
				<path style="clip-path:url(#SVGID_00000171681140191124025270000017268126636709342648_);fill:#523742;" d="M64.534,49.892
					c1.704-0.099,2.537-3.053,4.668-1.569c-0.19,5.937-0.369,11.806-0.563,18.053c-5.485-0.72-10.604-2.625-15.8-4.082
					c-0.295-0.451-0.536-0.837-0.843-1.288c1.352-1.293,2.742-2.599,4.156-3.947c-1.254-3.751-4.393-4.546-7.201-4.945
					c-4.572-0.649-6.138,3.23-7.426,6.452c-0.094,1.3-0.147,2.193-0.231,3.384c-3.652-0.781-6.968-1.491-10.337-2.226
					c-0.034-0.337-0.145-0.631-0.06-0.836c0.932-2.606,1.524-5.459,2.939-7.726c3.559-5.674,8.546-9.225,15.233-9.631
					c4.28-0.248,8.217,0.648,11.456,3.765C61.947,46.663,63.144,48.28,64.534,49.892"/>
			</g>
			<g style="clip-path:url(#SVGID_00000148632074475968014200000009018787707969744550_);">
				<defs>
					<polygon id="SVGID_00000128443807496677756750000011122721776402314145_" points="29.39,64.548 30.04,89.14 48.19,88.66 
						67.687,88.145 67.037,63.554 					"/>
				</defs>
				<clipPath id="SVGID_00000121239853644131527410000000053389478134462872_">
					<use xlink:href="#SVGID_00000128443807496677756750000011122721776402314145_"  style="overflow:visible;"/>
				</clipPath>
				<path style="clip-path:url(#SVGID_00000121239853644131527410000000053389478134462872_);fill:#9F9EB1;" d="M67.244,71.372
					c-0.118,0.408-0.197,0.816-0.341,1.185c-1.826,4.709-3.766,9.463-8.03,12.237c-2.397,1.563-5.277,2.288-7.943,3.399
					c-2.729,1.126-5.315-0.13-7.92-0.615c-2.153-0.389-3.723-2.01-5.227-3.591c-1.083-1.134-2.14-2.295-3.461-3.733
					c-1.297,0.44-2.721,0.923-4.476,1.524c0.159-5.612,0.332-11.224,0.519-17.255c5.172,1.471,10.188,2.906,15.722,4.489
					c-1.477,1.417-2.653,2.543-3.792,3.654l0.057,2.147c2.003,3.447,5.072,4.028,8.613,4.015c4.388-0.008,5.201-3.731,6.992-6.846
					l-0.068-2.592C61.05,70.063,64.095,70.698,67.244,71.372"/>
			</g>
			<g style="clip-path:url(#SVGID_00000148632074475968014200000009018787707969744550_);">
				<defs>
					
						<rect id="SVGID_00000163067393981177336110000003089869075619161481_" x="-0.675" y="43.672" transform="matrix(0.9807 -0.1957 0.1957 0.9807 -9.8833 3.7009)" width="28.929" height="16.4"/>
				</defs>
				<clipPath id="SVGID_00000152260419277712468210000012788938285296059307_">
					<use xlink:href="#SVGID_00000163067393981177336110000003089869075619161481_"  style="overflow:visible;"/>
				</clipPath>
				<path style="clip-path:url(#SVGID_00000152260419277712468210000012788938285296059307_);fill:#E33A3A;" d="M4.87,57.529
					c-1.881-2.164-3.918-9.415-3.918-9.415c1.765-1.372,1.982-0.955,4.707-1.959c0.112-0.042,1.86-0.346,1.962-0.392
					c0.579-0.263,5.385-1.059,8.942,0.017c0.521,0.157,1.076,0.199,1.684,0.306c0.259-1.155,0.504-2.247,0.753-3.361
					c1.864,0.827,8.074,8.037,9.712,11.287c-3.804,2.13-7.743,3.943-12.095,5.497c0.138-1.426,0.247-2.547,0.378-3.903
					c-2.297-0.275-4.2-0.468-6.437-0.232C8.605,55.58,6.636,56.157,4.87,57.529"/>
			</g>
			<g style="clip-path:url(#SVGID_00000148632074475968014200000009018787707969744550_);">
				<defs>
					
						<rect id="SVGID_00000103947507713882654980000010210197050907671200_" x="16.415" y="20.457" transform="matrix(0.4587 -0.8886 0.8886 0.4587 -17.7069 40.7747)" width="16.4" height="28.929"/>
				</defs>
				<clipPath id="SVGID_00000072969605117202208310000007660013480301397166_">
					<use xlink:href="#SVGID_00000103947507713882654980000010210197050907671200_"  style="overflow:visible;"/>
				</clipPath>
				<path style="clip-path:url(#SVGID_00000072969605117202208310000007660013480301397166_);fill:#F26C2B;" d="M14.114,33.779
					c-0.12-2.864,2.81-9.803,2.81-9.803c2.236,0.029,2.145,0.49,4.902,1.405c0.113,0.037,1.668,0.889,1.777,0.917
					c0.617,0.156,4.87,2.531,6.979,5.591c0.309,0.447,0.717,0.826,1.126,1.29c0.923-0.742,1.795-1.442,2.684-2.157
					c0.942,1.808,1.298,11.317,0.551,14.879c-4.301-0.708-8.511-1.748-12.883-3.247c0.998-1.029,1.783-1.837,2.731-2.815
					c-1.624-1.648-2.991-2.986-4.887-4.196C18.249,34.586,16.35,33.808,14.114,33.779"/>
			</g>
			<g style="clip-path:url(#SVGID_00000148632074475968014200000009018787707969744550_);">
				<defs>
					
						<rect id="SVGID_00000034072747161237888680000007625713814020792704_" x="32.636" y="9.121" transform="matrix(0.8329 -0.5535 0.5535 0.8329 -6.2291 26.543)" width="16.399" height="28.929"/>
				</defs>
				<clipPath id="SVGID_00000062903918949867714680000014434888310240496564_">
					<use xlink:href="#SVGID_00000034072747161237888680000007625713814020792704_"  style="overflow:visible;"/>
				</clipPath>
				<path style="clip-path:url(#SVGID_00000062903918949867714680000014434888310240496564_);fill:#E1D153;" d="M32.215,17.482
					c1.287-2.562,7.222-7.2,7.222-7.2c1.94,1.112,1.636,1.471,3.6,3.61c0.081,0.088,1.026,1.589,1.107,1.666
					c0.464,0.436,3.025,4.58,3.381,8.278c0.052,0.542,0.224,1.071,0.356,1.675c1.167-0.199,2.27-0.387,3.395-0.58
					c-0.057,2.038-4.368,10.521-6.753,13.271c-3.415-2.71-6.588-5.666-9.679-9.101c1.372-0.414,2.451-0.739,3.755-1.133
					c-0.618-2.229-1.162-4.063-2.23-6.042C35.436,20.197,34.155,18.594,32.215,17.482"/>
			</g>
			<g style="clip-path:url(#SVGID_00000148632074475968014200000009018787707969744550_);">
				<defs>
					
						<rect id="SVGID_00000121959214928198947440000012367997587534241205_" x="53.18" y="10.101" transform="matrix(0.9999 -0.0125 0.0125 0.9999 -0.3018 0.7679)" width="16.4" height="28.929"/>
				</defs>
				<clipPath id="SVGID_00000120531735559764585890000015162109901629883839_">
					<use xlink:href="#SVGID_00000121959214928198947440000012367997587534241205_"  style="overflow:visible;"/>
				</clipPath>
				<path style="clip-path:url(#SVGID_00000120531735559764585890000015162109901629883839_);fill:#55C95A;" d="M57.455,14.759
					c2.472-1.452,9.974-2.125,9.974-2.125c1.025,1.988,0.575,2.124,1.063,4.987c0.02,0.118-0.002,1.892,0.025,2
					c0.152,0.618,0.053,5.489-1.657,8.788c-0.25,0.483-0.393,1.021-0.61,1.599c1.088,0.467,2.117,0.908,3.165,1.357
					c-1.154,1.681-9.381,6.463-12.876,7.476c-1.396-4.13-2.456-8.335-3.186-12.898c1.377,0.398,2.459,0.71,3.768,1.088
					c0.692-2.208,1.231-4.043,1.409-6.285C58.685,18.788,58.48,16.746,57.455,14.759"/>
			</g>
			<g style="clip-path:url(#SVGID_00000148632074475968014200000009018787707969744550_);">
				<defs>
					
						<rect id="SVGID_00000141413628798059191280000010238704572312713150_" x="63.845" y="26.427" transform="matrix(0.4976 -0.8674 0.8674 0.4976 9.3072 85.323)" width="28.929" height="16.401"/>
				</defs>
				<clipPath id="SVGID_00000160911930748304401710000011226043562960829333_">
					<use xlink:href="#SVGID_00000141413628798059191280000010238704572312713150_"  style="overflow:visible;"/>
				</clipPath>
				<path style="clip-path:url(#SVGID_00000160911930748304401710000011226043562960829333_);fill:#5699DE;" d="M79.915,24.187
					c2.867,0.006,9.669,3.241,9.669,3.241c-0.127,2.232-0.585,2.121-1.62,4.834c-0.042,0.112-0.963,1.628-0.995,1.735
					c-0.183,0.61-2.744,4.754-5.894,6.726c-0.46,0.288-0.857,0.679-1.338,1.067c0.7,0.955,1.361,1.858,2.036,2.777
					c-1.848,0.861-11.364,0.797-14.889-0.107c0.897-4.266,2.122-8.426,3.813-12.727c0.984,1.043,1.757,1.862,2.692,2.852
					c1.718-1.549,3.115-2.855,4.408-4.696C78.926,28.282,79.787,26.419,79.915,24.187"/>
			</g>
			<g style="clip-path:url(#SVGID_00000148632074475968014200000009018787707969744550_);">
				<defs>
					
						<rect id="SVGID_00000121256885303683389280000002522498922699593135_" x="70.856" y="43.436" transform="matrix(0.7981 -0.6026 0.6026 0.7981 -13.8849 61.8392)" width="28.929" height="16.4"/>
				</defs>
				<clipPath id="SVGID_00000034087056142352401800000014711662620114300607_">
					<use xlink:href="#SVGID_00000121256885303683389280000002522498922699593135_"  style="overflow:visible;"/>
				</clipPath>
				<path style="clip-path:url(#SVGID_00000034087056142352401800000014711662620114300607_);fill:#AD70D6;" d="M90.895,42.663
					c2.634,1.131,7.622,6.776,7.622,6.776c-0.994,2.003-1.371,1.721-3.388,3.811c-0.083,0.086-1.524,1.119-1.596,1.205
					c-0.408,0.489-4.39,3.295-8.06,3.872c-0.538,0.085-1.056,0.288-1.65,0.457c0.268,1.152,0.522,2.242,0.782,3.353
					c-2.037,0.066-10.764-3.727-13.652-5.942c2.5-3.572,5.259-6.917,8.502-10.209c0.496,1.345,0.885,2.402,1.357,3.68
					c2.188-0.751,3.985-1.404,5.897-2.59C88.379,46.041,89.901,44.666,90.895,42.663"/>
			</g>
		</g>
	</g>
</g>
<g id="Layer_2">
</g>
</svg>
