<?xml version="1.0" encoding="iso-8859-1"?>
<!-- Generator: Adobe Illustrator 26.0.1, SVG Export Plug-In . SVG Version: 6.00 Build 0)  -->
<svg version="1.1" xmlns="http://www.w3.org/2000/svg" xmlns:xlink="http://www.w3.org/1999/xlink" x="0px" y="0px"
	 viewBox="0 0 100 100" style="enable-background:new 0 0 100 100;" xml:space="preserve">
<g id="Layer_1">
	<g id="G_x28__T1_L1__x29__4_00000029725750986599941570000011062693390840771472_">
		<g>
			<defs>
				<rect id="SVGID_1_" x="4" y="9" width="88.96" height="83.48"/>
			</defs>
			<clipPath id="SVGID_00000026164076511166376290000003145775378972802459_">
				<use xlink:href="#SVGID_1_"  style="overflow:visible;"/>
			</clipPath>
			<polygon style="clip-path:url(#SVGID_00000026164076511166376290000003145775378972802459_);fill:#E1D153;" points="37.959,29 
				36.076,29.587 34.057,30.24 31.997,31.615 30.548,33.61 29.37,35.801 29.081,38.29 29.709,41.604 30.82,43.698 32.331,45.514 
				34.483,46.474 36.192,47.032 37.962,47.291 38.4,47.48 39.306,47.48 39.754,47.326 42.25,46.798 44.279,45.966 45.8,44.405 
				47.074,42.652 47.625,40.541 47.96,38.96 47.96,36.962 47.461,35.116 46.307,32.94 44.728,31.111 42.529,30.063 39.701,29 			"/>
			<g style="clip-path:url(#SVGID_00000026164076511166376290000003145775378972802459_);">
				<defs>
					
						<rect id="SVGID_00000084503318740269565230000006114147191053585299_" x="12.026" y="6.595" transform="matrix(0.2915 -0.9566 0.9566 0.2915 -5.8144 34.2701)" width="16.4" height="28.929"/>
				</defs>
				<clipPath id="SVGID_00000135667676094650882190000016776009060086526611_">
					<use xlink:href="#SVGID_00000084503318740269565230000006114147191053585299_"  style="overflow:visible;"/>
				</clipPath>
				<path style="clip-path:url(#SVGID_00000135667676094650882190000016776009060086526611_);fill:#F26C2B;" d="M9.692,21.824
					c-0.634-2.796,1.001-10.148,1.001-10.148c2.205-0.374,2.199,0.096,5.075,0.5c0.118,0.017,1.801,0.575,1.913,0.583
					c0.635,0.042,5.246,1.614,7.87,4.244c0.385,0.385,0.854,0.685,1.34,1.067c0.774-0.895,1.507-1.741,2.253-2.604
					c1.251,1.609,3.312,10.899,3.217,14.538c-4.358,0.076-8.687-0.19-13.256-0.878c0.796-1.192,1.422-2.128,2.179-3.26
					c-1.894-1.329-3.479-2.399-5.561-3.25C13.904,21.874,11.897,21.45,9.692,21.824"/>
			</g>
			<polygon style="clip-path:url(#SVGID_00000026164076511166376290000003145775378972802459_);fill:#AD70D6;" points="81.958,29 
				80.076,29.587 78.056,30.24 75.996,31.615 74.548,33.61 73.37,35.801 73.081,38.29 73.709,41.604 74.82,43.698 76.331,45.514 
				78.483,46.474 80.192,47.032 81.962,47.291 82.399,47.48 83.306,47.48 83.754,47.326 86.25,46.798 88.279,45.966 89.8,44.405 
				91.074,42.652 91.624,40.541 91.96,38.96 91.96,36.962 91.461,35.116 90.306,32.94 88.728,31.111 86.529,30.063 83.7,29 			"/>
			<g style="clip-path:url(#SVGID_00000026164076511166376290000003145775378972802459_);">
				<defs>
					
						<rect id="SVGID_00000163038717560857939160000002924515785887920789_" x="56.026" y="6.595" transform="matrix(0.2915 -0.9566 0.9566 0.2915 25.3613 76.3597)" width="16.4" height="28.929"/>
				</defs>
				<clipPath id="SVGID_00000067232162923422945960000004045717492074235301_">
					<use xlink:href="#SVGID_00000163038717560857939160000002924515785887920789_"  style="overflow:visible;"/>
				</clipPath>
				<path style="clip-path:url(#SVGID_00000067232162923422945960000004045717492074235301_);fill:#55C95A;" d="M53.692,21.824
					c-0.634-2.796,1.001-10.148,1.001-10.148c2.205-0.374,2.199,0.096,5.075,0.5c0.118,0.017,1.801,0.575,1.913,0.583
					c0.635,0.042,5.246,1.614,7.87,4.244c0.385,0.385,0.854,0.685,1.34,1.067c0.774-0.895,1.507-1.741,2.253-2.604
					c1.251,1.609,3.312,10.899,3.217,14.538c-4.358,0.076-8.687-0.19-13.256-0.878c0.796-1.192,1.422-2.128,2.179-3.26
					c-1.894-1.329-3.479-2.399-5.561-3.25C57.904,21.874,55.897,21.45,53.692,21.824"/>
			</g>
			<polygon style="clip-path:url(#SVGID_00000026164076511166376290000003145775378972802459_);fill:#5699DE;" points="38.959,74 
				37.077,74.587 35.057,75.24 32.997,76.615 31.548,78.61 30.37,80.801 30.081,83.29 30.709,86.604 31.821,88.698 33.331,90.514 
				35.484,91.474 37.192,92.032 38.962,92.291 39.4,92.48 40.306,92.48 40.754,92.326 43.251,91.798 45.279,90.966 46.8,89.405 
				48.075,87.652 48.625,85.541 48.96,83.96 48.96,81.962 48.462,80.116 47.307,77.94 45.728,76.111 43.53,75.063 40.701,74 			"/>
			<g style="clip-path:url(#SVGID_00000026164076511166376290000003145775378972802459_);">
				<defs>
					
						<rect id="SVGID_00000175318002807844847930000006344182464415077304_" x="13.026" y="51.595" transform="matrix(0.2915 -0.9566 0.9566 0.2915 -48.1521 67.1109)" width="16.4" height="28.929"/>
				</defs>
				<clipPath id="SVGID_00000106139964120673637620000014383033558593766577_">
					<use xlink:href="#SVGID_00000175318002807844847930000006344182464415077304_"  style="overflow:visible;"/>
				</clipPath>
				<path style="clip-path:url(#SVGID_00000106139964120673637620000014383033558593766577_);fill:#E33A3A;" d="M10.692,66.824
					c-0.634-2.796,1.001-10.148,1.001-10.148c2.205-0.374,2.199,0.096,5.075,0.5c0.118,0.017,1.801,0.575,1.913,0.583
					c0.635,0.042,5.246,1.614,7.87,4.244c0.385,0.385,0.854,0.685,1.34,1.067c0.774-0.895,1.507-1.741,2.253-2.604
					c1.251,1.609,3.312,10.899,3.217,14.538c-4.358,0.076-8.687-0.19-13.256-0.878c0.796-1.192,1.422-2.128,2.179-3.26
					c-1.894-1.329-3.479-2.399-5.561-3.25C14.904,66.874,12.897,66.45,10.692,66.824"/>
			</g>
			<polygon style="clip-path:url(#SVGID_00000026164076511166376290000003145775378972802459_);fill:#9F9EB1;" points="82.959,74 
				81.076,74.587 79.057,75.24 76.997,76.615 75.548,78.61 74.37,80.801 74.081,83.29 74.709,86.604 75.82,88.698 77.331,90.514 
				79.483,91.474 81.192,92.032 82.962,92.291 83.4,92.48 84.306,92.48 84.754,92.326 87.25,91.798 89.279,90.966 90.8,89.405 
				92.074,87.652 92.625,85.541 92.96,83.96 92.96,81.962 92.461,80.116 91.307,77.94 89.728,76.111 87.529,75.063 84.701,74 			"/>
			<g style="clip-path:url(#SVGID_00000026164076511166376290000003145775378972802459_);">
				<defs>
					
						<rect id="SVGID_00000079466224624233865690000004964176483597892502_" x="57.026" y="51.595" transform="matrix(0.2915 -0.9566 0.9566 0.2915 -16.9764 109.2005)" width="16.4" height="28.929"/>
				</defs>
				<clipPath id="SVGID_00000019663108940261848270000018339191573483009440_">
					<use xlink:href="#SVGID_00000079466224624233865690000004964176483597892502_"  style="overflow:visible;"/>
				</clipPath>
				<path style="clip-path:url(#SVGID_00000019663108940261848270000018339191573483009440_);fill:#523742;" d="M54.692,66.824
					c-0.634-2.796,1.001-10.148,1.001-10.148c2.205-0.374,2.199,0.096,5.075,0.5c0.118,0.017,1.801,0.575,1.913,0.583
					c0.635,0.042,5.246,1.614,7.87,4.244c0.385,0.385,0.854,0.685,1.34,1.067c0.774-0.895,1.507-1.741,2.253-2.604
					c1.251,1.609,3.312,10.899,3.217,14.538c-4.358,0.076-8.687-0.19-13.256-0.878c0.796-1.192,1.422-2.128,2.179-3.26
					c-1.894-1.329-3.479-2.399-5.561-3.25C58.904,66.874,56.897,66.45,54.692,66.824"/>
			</g>
		</g>
	</g>
</g>
<g id="Layer_2">
	<g id="Layer_3">
	</g>
</g>
</svg>
