<?xml version="1.0" encoding="iso-8859-1"?>
<!-- Generator: Adobe Illustrator 26.0.1, SVG Export Plug-In . SVG Version: 6.00 Build 0)  -->
<svg version="1.1" xmlns="http://www.w3.org/2000/svg" xmlns:xlink="http://www.w3.org/1999/xlink" x="0px" y="0px"
	 viewBox="0 0 100 100" style="enable-background:new 0 0 100 100;" xml:space="preserve">
<g id="Layer_1">
	<g id="G_x28__T1_T1_T1_L3__x29__T1_L1_00000121263874774952305160000017426470212849733801_">
		<g>
			<defs>
				<rect id="SVGID_1_" x="-1" y="3" width="102.767" height="96.721"/>
			</defs>
			<clipPath id="SVGID_00000090287482514908685280000000257115941296133816_">
				<use xlink:href="#SVGID_1_"  style="overflow:visible;"/>
			</clipPath>
			<g style="clip-path:url(#SVGID_00000090287482514908685280000000257115941296133816_);">
				<defs>
					<rect id="SVGID_00000117668178758401984950000008879901586357095588_" x="-1" y="3" width="102.767" height="96.721"/>
				</defs>
				<clipPath id="SVGID_00000079456307134415850400000002223418447138366853_">
					<use xlink:href="#SVGID_00000117668178758401984950000008879901586357095588_"  style="overflow:visible;"/>
				</clipPath>
				<g style="clip-path:url(#SVGID_00000079456307134415850400000002223418447138366853_);">
					<defs>
						<rect id="SVGID_00000096757035769668167010000007085495079232063657_" x="-1" y="3" width="102.767" height="96.721"/>
					</defs>
					<clipPath id="SVGID_00000052786185272660196780000011924082071028386950_">
						<use xlink:href="#SVGID_00000096757035769668167010000007085495079232063657_"  style="overflow:visible;"/>
					</clipPath>
					<g style="opacity:0.99;clip-path:url(#SVGID_00000052786185272660196780000011924082071028386950_);">
						<g>
							<defs>
								
									<rect id="SVGID_00000120521167956280825110000013448062795339475588_" x="19.408" y="14.642" width="47.766" height="52.098"/>
							</defs>
							<clipPath id="SVGID_00000004513236140498275960000000938299137660293031_">
								<use xlink:href="#SVGID_00000120521167956280825110000013448062795339475588_"  style="overflow:visible;"/>
							</clipPath>
							<g style="clip-path:url(#SVGID_00000004513236140498275960000000938299137660293031_);">
								<defs>
									<polygon id="SVGID_00000018237305957170039980000008602329460558078633_" points="19.412,17.375 21.774,66.739 
										67.17,64.011 64.809,14.647 									"/>
								</defs>
								<clipPath id="SVGID_00000091732803003490345350000012905738704065254827_">
									<use xlink:href="#SVGID_00000018237305957170039980000008602329460558078633_"  style="overflow:visible;"/>
								</clipPath>
								<g style="clip-path:url(#SVGID_00000091732803003490345350000012905738704065254827_);">
									<defs>
										
											<rect id="SVGID_00000109746200544698460850000017243175710739933874_" x="24.097" y="15.928" width="34.56" height="22.64"/>
									</defs>
									<clipPath id="SVGID_00000099626218849543193670000012334179349165194405_">
										<use xlink:href="#SVGID_00000109746200544698460850000017243175710739933874_"  style="overflow:visible;"/>
									</clipPath>
									<g style="clip-path:url(#SVGID_00000099626218849543193670000012334179349165194405_);">
										<defs>
											
												<rect id="SVGID_00000024716195961047717210000006200634564173380542_" x="24.097" y="15.928" width="34.56" height="22.64"/>
										</defs>
										<clipPath id="SVGID_00000155857545944999102360000007809475195190544527_">
											<use xlink:href="#SVGID_00000024716195961047717210000006200634564173380542_"  style="overflow:visible;"/>
										</clipPath>
										<path style="clip-path:url(#SVGID_00000155857545944999102360000007809475195190544527_);fill:#F26C2B;" d="
											M58.656,26.128c-2.13,2-4.229,4.11-6.53,6.1c-1.78,1.55-3.679,3.03-5.83,4.36c-0.329-1.76-0.57-3.06-0.849-4.56
											c-2.46,0.35-5.101,0.24-7.291,1.19c-2.12,0.94-4.29,2.42-5.3,5.35c-3.03-1.93-5.83-3.73-8.76-5.6
											c1.57-3.19,3.01-6.32,5.88-8.47c0.56-0.41,0.991-0.98,1.44-1.51c1.31-1.5,3.13-1.93,4.88-2.32
											c1.81-0.4,3.72-0.34,5.6-0.49c0.531-0.05,1.08-0.07,1.63-0.1c0.01-1.52,0.02-2.84,0.01-4.15
											C46.276,15.998,57.707,23.688,58.656,26.128"/>
									</g>
								</g>
								<g style="clip-path:url(#SVGID_00000091732803003490345350000012905738704065254827_);">
									<defs>
										
											<rect id="SVGID_00000093887006354033641030000006566578395423666577_" x="21.074" y="38.618" width="25.162" height="26.98"/>
									</defs>
									<clipPath id="SVGID_00000085932615926191576770000011281303861986599817_">
										<use xlink:href="#SVGID_00000093887006354033641030000006566578395423666577_"  style="overflow:visible;"/>
									</clipPath>
									<g style="clip-path:url(#SVGID_00000085932615926191576770000011281303861986599817_);">
										<defs>
											
												<rect id="SVGID_00000143595613970390287220000008232892658128019075_" x="21.074" y="38.618" width="25.162" height="26.98"/>
										</defs>
										<clipPath id="SVGID_00000131325726846700383140000012874400358972758457_">
											<use xlink:href="#SVGID_00000143595613970390287220000008232892658128019075_"  style="overflow:visible;"/>
										</clipPath>
										<path style="clip-path:url(#SVGID_00000131325726846700383140000012874400358972758457_);fill:#E33A3A;" d="
											M46.237,54.379c-0.03,0.939-0.07,1.6-0.09,2.25c-0.07,2.619-0.13,5.239-0.2,7.85c-0.01,0.28-0.13,0.559-0.2,0.82
											l-5.01,0.3c-0.37-0.09-0.75-0.18-1.13-0.271c-2.28-0.599-4.63-1.029-6.83-1.84c-1.16-0.429-2.27-1.339-3.09-2.309
											c-1.65-1.96-3.08-4.101-4.67-6.271c-1.04,0.7-2.18,1.46-3.34,2.25c-1.2-3.08-0.47-16.929,0.99-18.539
											c3.08,0.989,6.23,1.82,9.41,2.9c1.89,0.65,3.81,1.39,5.71,2.29c-1.3,1.199-2.37,2.19-3.47,3.199
											c1.61,2.06,3.18,4.06,4.82,6.141C41.477,53.269,43.287,55.939,46.237,54.379"/>
									</g>
								</g>
								<g style="clip-path:url(#SVGID_00000091732803003490345350000012905738704065254827_);">
									<defs>
										
											<rect id="SVGID_00000079476468482017599060000008946431975185487507_" x="47.887" y="30.678" width="18.86" height="34.04"/>
									</defs>
									<clipPath id="SVGID_00000000919749239563640110000010999164433234465215_">
										<use xlink:href="#SVGID_00000079476468482017599060000008946431975185487507_"  style="overflow:visible;"/>
									</clipPath>
									<g style="clip-path:url(#SVGID_00000000919749239563640110000010999164433234465215_);">
										<defs>
											
												<rect id="SVGID_00000137811972906430687570000017231895010626281363_" x="47.887" y="30.678" width="18.86" height="34.04"/>
										</defs>
										<clipPath id="SVGID_00000062877719112627629860000004155661761410367635_">
											<use xlink:href="#SVGID_00000137811972906430687570000017231895010626281363_"  style="overflow:visible;"/>
										</clipPath>
										<path style="clip-path:url(#SVGID_00000062877719112627629860000004155661761410367635_);fill:#55C95A;" d="
											M64.946,39.469c2.32,4.39,0.57,8.38-1.29,12.37c-0.26,0.58-0.409,1.22-0.64,1.92c1.29,0.489,2.5,0.95,3.731,1.42
											c-1.261,2.05-10.611,8.149-14.631,9.54c-1.33-3.57-2.45-7.2-3.35-11.02c-0.32-1.33-0.62-2.67-0.88-4.04
											c1.61,0.4,2.88,0.7,4.41,1.09c0.711-2.65,1.88-5.27,2.001-7.93c0.099-2.31,0.089-5.06-2.261-6.77
											c0.6-0.39,1.19-0.79,1.761-1.16c2.17-1.43,4.239-2.8,6.37-4.21c2.029,2.47,4.04,5.02,4.729,8.37
											C64.926,39.189,64.896,39.349,64.946,39.469"/>
									</g>
								</g>
							</g>
						</g>
					</g>
				</g>
				<g style="clip-path:url(#SVGID_00000079456307134415850400000002223418447138366853_);">
					<defs>
						<polygon id="SVGID_00000067223838129183293470000017269871443457811871_" points="64.154,38.848 77.044,52.974 
							101.767,29.573 88.876,15.447 						"/>
					</defs>
					<clipPath id="SVGID_00000051350012449079881210000004237533859549883582_">
						<use xlink:href="#SVGID_00000067223838129183293470000017269871443457811871_"  style="overflow:visible;"/>
					</clipPath>
					<g style="clip-path:url(#SVGID_00000051350012449079881210000004237533859549883582_);">
						<defs>
							<rect id="SVGID_00000137113406011761626180000002765990713148009385_" x="66.867" y="22.968" width="31.1" height="23.694"/>
						</defs>
						<clipPath id="SVGID_00000156578148810610258180000002414564719745754259_">
							<use xlink:href="#SVGID_00000137113406011761626180000002765990713148009385_"  style="overflow:visible;"/>
						</clipPath>
						<g style="clip-path:url(#SVGID_00000156578148810610258180000002414564719745754259_);">
							<defs>
								
									<rect id="SVGID_00000091725730063701810780000000933636287300484226_" x="66.867" y="22.968" width="31.1" height="23.694"/>
							</defs>
							<clipPath id="SVGID_00000030484084926129872370000004152306087762398633_">
								<use xlink:href="#SVGID_00000091725730063701810780000000933636287300484226_"  style="overflow:visible;"/>
							</clipPath>
							<path style="clip-path:url(#SVGID_00000030484084926129872370000004152306087762398633_);fill:#5699DE;" d="M97.967,29.958
								c-0.931,2.48-1.391,2.2-3.49,4.91c-0.09,0.11-1.64,1.51-1.71,1.62c-0.42,0.62-4.7,4.42-8.88,5.57
								c-0.61,0.16-1.191,0.47-1.86,0.74c0.45,1.32,0.86,2.57,1.29,3.84c-2.35,0.34-12.86-3.02-16.451-5.25
								c2.491-4.51,5.301-8.79,8.681-13.07c0.72,1.52,1.29,2.71,1.98,4.15c2.45-1.16,4.45-2.15,6.53-3.79
								c1.809-1.43,3.41-3.23,4.34-5.71C91.567,23.958,97.967,29.958,97.967,29.958"/>
						</g>
					</g>
				</g>
				<g style="clip-path:url(#SVGID_00000079456307134415850400000002223418447138366853_);">
					<defs>
						<polygon id="SVGID_00000057829551791226585070000016160677371529038208_" points="-1,22.341 32.5,24.474 33.886,5.133 
							0.385,3.001 						"/>
					</defs>
					<clipPath id="SVGID_00000055692020031245604510000006178502733045762722_">
						<use xlink:href="#SVGID_00000057829551791226585070000016160677371529038208_"  style="overflow:visible;"/>
					</clipPath>
					<g style="clip-path:url(#SVGID_00000055692020031245604510000006178502733045762722_);">
						<defs>
							<rect id="SVGID_00000160890307256807762470000013856068567342974877_" x="3.237" y="4.738" width="29.24" height="18.58"/>
						</defs>
						<clipPath id="SVGID_00000116927997443042599070000008858890566333192112_">
							<use xlink:href="#SVGID_00000160890307256807762470000013856068567342974877_"  style="overflow:visible;"/>
						</clipPath>
						<g style="clip-path:url(#SVGID_00000116927997443042599070000008858890566333192112_);">
							<defs>
								<rect id="SVGID_00000003807656885374801520000013290183626682515356_" x="3.237" y="4.738" width="29.24" height="18.58"/>
							</defs>
							<clipPath id="SVGID_00000013183606375798843610000003950532038729995677_">
								<use xlink:href="#SVGID_00000003807656885374801520000013290183626682515356_"  style="overflow:visible;"/>
							</clipPath>
							<path style="clip-path:url(#SVGID_00000013183606375798843610000003950532038729995677_);fill:#AD70D6;" d="M25.107,4.868
								c1.83,1.51,6.55,11.63,7.37,15.83c-4.91,1.28-9.88,2.16-15.23,2.62c0.59-1.59,1.06-2.84,1.63-4.35
								c-2.49-1.01-4.56-1.8-7.13-2.21c-2.25-0.36-4.64-0.3-7.04,0.74c-1.43-3.05-1.47-11.95-1.47-11.95
								c2.4-1.03,2.52-0.48,5.88-0.81c0.13-0.01,2.18,0.17,2.31,0.15c0.73-0.12,6.36,0.42,10,2.73c0.54,0.34,1.15,0.55,1.79,0.86
								C23.866,7.239,24.476,6.069,25.107,4.868"/>
						</g>
					</g>
				</g>
				<g style="clip-path:url(#SVGID_00000079456307134415850400000002223418447138366853_);">
					<defs>
						<polygon id="SVGID_00000142166612644612970090000010596395420266540428_" points="12.557,97.479 31.57,98.335 33.402,64.185 
							14.387,63.33 						"/>
					</defs>
					<clipPath id="SVGID_00000052782772569646188640000015560526383400850561_">
						<use xlink:href="#SVGID_00000142166612644612970090000010596395420266540428_"  style="overflow:visible;"/>
					</clipPath>
					<g style="clip-path:url(#SVGID_00000052782772569646188640000015560526383400850561_);">
						<defs>
							<rect id="SVGID_00000078748887563338161280000004894551122979178138_" x="14.196" y="64.318" width="18.19" height="30.18"/>
						</defs>
						<clipPath id="SVGID_00000022535649751504742240000017549029411225684631_">
							<use xlink:href="#SVGID_00000078748887563338161280000004894551122979178138_"  style="overflow:visible;"/>
						</clipPath>
						<g style="clip-path:url(#SVGID_00000022535649751504742240000017549029411225684631_);">
							<defs>
								
									<rect id="SVGID_00000003802257681190371250000003699947982793128855_" x="14.196" y="64.318" width="18.19" height="30.18"/>
							</defs>
							<clipPath id="SVGID_00000155142162170032044530000009402636777909810054_">
								<use xlink:href="#SVGID_00000003802257681190371250000003699947982793128855_"  style="overflow:visible;"/>
							</clipPath>
							<path style="clip-path:url(#SVGID_00000155142162170032044530000009402636777909810054_);fill:#E1D153;" d="M29.697,64.318
								c1.3,4.96,2.2,9.99,2.69,15.43c-1.57-0.57-2.8-1.01-4.28-1.539c-0.98,2.559-1.74,4.689-2.12,7.319
								c-0.34,2.3-0.26,4.72,0.78,7.141c-2.98,1.54-11.72,1.829-11.72,1.829c-1.04-2.409-0.5-2.539-0.85-5.95
								c-0.01-0.14,0.15-2.23,0.13-2.36c-0.13-0.74,0.36-6.479,2.6-10.26c0.33-0.549,0.54-1.17,0.83-1.839
								c-1.22-0.63-2.38-1.221-3.56-1.821C15.667,70.368,25.567,65.278,29.697,64.318"/>
						</g>
					</g>
				</g>
				<polygon style="clip-path:url(#SVGID_00000079456307134415850400000002223418447138366853_);fill:#9F9EB1;" points="
					82.73,76.978 80.842,77.566 78.823,78.22 76.762,79.594 75.314,81.588 74.136,83.78 73.848,86.261 73.848,86.273 74.474,89.582 
					75.588,91.677 77.097,93.493 79.25,94.452 80.959,95.011 82.727,95.27 83.167,95.459 84.071,95.459 84.519,95.305 
					87.016,94.776 89.045,93.944 90.565,92.385 91.842,90.631 92.39,88.52 92.726,86.934 92.726,84.943 92.227,83.094 
					91.073,80.919 89.494,79.089 87.296,78.041 84.464,76.978 				"/>
				<g style="clip-path:url(#SVGID_00000079456307134415850400000002223418447138366853_);">
					<defs>
						
							<rect id="SVGID_00000042724985070804065130000000838120186620025753_" x="43.549" y="72.96" transform="matrix(0.7465 -0.6653 0.6653 0.7465 -39.9379 59.8595)" width="30.098" height="18.779"/>
					</defs>
					<clipPath id="SVGID_00000176741483430639186730000000497300132434461365_">
						<use xlink:href="#SVGID_00000042724985070804065130000000838120186620025753_"  style="overflow:visible;"/>
					</clipPath>
					<path style="clip-path:url(#SVGID_00000176741483430639186730000000497300132434461365_);fill:#523742;" d="M65.171,72.62
						c0.966-0.915,0.053-3.007,2.027-3.24c2.72,3.457,5.413,6.87,8.278,10.506c-3.606,2.355-7.56,3.856-11.346,5.65
						c-0.391-0.107-0.718-0.204-1.115-0.306c0.187-1.412,0.39-2.852,0.589-4.329c-2.536-1.491-4.782-0.359-6.642,0.829
						c-3.03,1.937-2.111,4.922-1.34,7.396c0.565,0.783,0.959,1.315,1.477,2.033c-2.545,1.398-4.857,2.666-7.211,3.947
						c-0.181-0.173-0.387-0.284-0.435-0.442c-0.688-1.945-1.697-3.859-1.936-5.856c-0.591-5.006,0.683-9.53,4.466-13.129
						c2.427-2.297,5.197-3.774,8.611-3.641C62.092,72.096,63.575,72.408,65.171,72.62"/>
				</g>
			</g>
		</g>
	</g>
</g>
<g id="Layer_2">
	<g id="Layer_3">
	</g>
</g>
</svg>
