<?xml version="1.0" encoding="iso-8859-1"?>
<!-- Generator: Adobe Illustrator 26.0.1, SVG Export Plug-In . SVG Version: 6.00 Build 0)  -->
<svg version="1.1" id="Layer_1" xmlns="http://www.w3.org/2000/svg" xmlns:xlink="http://www.w3.org/1999/xlink" x="0px" y="0px"
	 viewBox="0 0 100 100" style="enable-background:new 0 0 100 100;" xml:space="preserve">
<g id="L1_1_" style="display:none;">
	<g style="display:inline;">
		<defs>
			<rect id="SVGID_1_" x="28" y="27" width="18.96" height="18.48"/>
		</defs>
		<clipPath id="SVGID_00000039113100883332763690000002643535840052349580_">
			<use xlink:href="#SVGID_1_"  style="overflow:visible;"/>
		</clipPath>
		<g style="clip-path:url(#SVGID_00000039113100883332763690000002643535840052349580_);">
			<defs>
				<rect id="SVGID_00000093898871174197073060000016394030186540183966_" x="28" y="27" width="18.96" height="18.48"/>
			</defs>
			<clipPath id="SVGID_00000120519083860342774570000013999815960250548873_">
				<use xlink:href="#SVGID_00000093898871174197073060000016394030186540183966_"  style="overflow:visible;"/>
			</clipPath>
			<g style="clip-path:url(#SVGID_00000120519083860342774570000013999815960250548873_);">
				<defs>
					<rect id="SVGID_00000064312512552615995730000004047966341069745596_" x="28.082" y="26.948" width="19.053" height="18.706"/>
				</defs>
				<clipPath id="SVGID_00000158002987618134572290000015595133577232483511_">
					<use xlink:href="#SVGID_00000064312512552615995730000004047966341069745596_"  style="overflow:visible;"/>
				</clipPath>
				<g style="clip-path:url(#SVGID_00000158002987618134572290000015595133577232483511_);">
					<defs>
						
							<rect id="SVGID_00000176037259248697950000000006818851978878558101_" x="28.082" y="26.948" width="19.053" height="18.706"/>
					</defs>
					<clipPath id="SVGID_00000106837571125906428180000016456836054236871068_">
						<use xlink:href="#SVGID_00000176037259248697950000000006818851978878558101_"  style="overflow:visible;"/>
					</clipPath>
					<polygon style="clip-path:url(#SVGID_00000106837571125906428180000016456836054236871068_);fill:#AD70D6;" points="
						47.135,35.613 47.033,36.612 46.624,38.541 46.075,40.653 44.799,42.406 43.278,43.966 41.25,44.798 38.753,45.326 
						37.801,45.654 36.961,45.291 35.192,45.033 33.483,44.474 31.331,43.515 29.821,41.698 28.708,39.604 28.081,36.29 
						28.37,33.802 29.548,31.61 30.996,29.616 33.056,28.241 35.076,27.587 37.102,26.956 38.561,26.948 41.529,28.063 
						43.727,29.112 45.306,30.941 46.461,33.116 					"/>
				</g>
			</g>
		</g>
	</g>
</g>
<g id="L1_2_" style="display:none;">
	<g style="display:inline;">
		<defs>
			<rect id="SVGID_00000096761017433179347350000004083684823261301182_" x="52" y="27" width="18.96" height="18.48"/>
		</defs>
		<clipPath id="SVGID_00000183935056497101941110000000733857616969330074_">
			<use xlink:href="#SVGID_00000096761017433179347350000004083684823261301182_"  style="overflow:visible;"/>
		</clipPath>
		<g style="clip-path:url(#SVGID_00000183935056497101941110000000733857616969330074_);">
			<defs>
				<rect id="SVGID_00000152246032121611427890000006447109311678232493_" x="52" y="27" width="18.96" height="18.48"/>
			</defs>
			<clipPath id="SVGID_00000150802960771915934830000008002804191184255399_">
				<use xlink:href="#SVGID_00000152246032121611427890000006447109311678232493_"  style="overflow:visible;"/>
			</clipPath>
			<g style="clip-path:url(#SVGID_00000150802960771915934830000008002804191184255399_);">
				<defs>
					<rect id="SVGID_00000034794456546738300700000011116946818969404347_" x="52.082" y="26.948" width="19.053" height="18.706"/>
				</defs>
				<clipPath id="SVGID_00000078017564974639966580000011179673159948653698_">
					<use xlink:href="#SVGID_00000034794456546738300700000011116946818969404347_"  style="overflow:visible;"/>
				</clipPath>
				<g style="clip-path:url(#SVGID_00000078017564974639966580000011179673159948653698_);">
					<defs>
						
							<rect id="SVGID_00000124122505120163320160000002162048492537306027_" x="52.082" y="26.948" width="19.053" height="18.706"/>
					</defs>
					<clipPath id="SVGID_00000065053894410470000760000002568378786981939118_">
						<use xlink:href="#SVGID_00000124122505120163320160000002162048492537306027_"  style="overflow:visible;"/>
					</clipPath>
					<polygon style="clip-path:url(#SVGID_00000065053894410470000760000002568378786981939118_);fill:#5699DE;" points="
						71.135,35.613 71.033,36.612 70.624,38.541 70.075,40.653 68.799,42.406 67.278,43.966 65.25,44.798 62.753,45.326 
						61.801,45.654 60.961,45.291 59.192,45.033 57.483,44.474 55.331,43.515 53.821,41.698 52.708,39.604 52.081,36.29 
						52.37,33.802 53.548,31.61 54.996,29.616 57.056,28.241 59.076,27.587 61.102,26.956 62.561,26.948 65.529,28.063 
						67.727,29.112 69.306,30.941 70.461,33.116 					"/>
				</g>
			</g>
		</g>
	</g>
</g>
<g id="L1_3_" style="display:none;">
	<g style="display:inline;">
		<defs>
			<rect id="SVGID_00000082344836836486150190000004525339682019283600_" x="52" y="52" width="18.96" height="18.48"/>
		</defs>
		<clipPath id="SVGID_00000096741003568278142510000004654052852280711842_">
			<use xlink:href="#SVGID_00000082344836836486150190000004525339682019283600_"  style="overflow:visible;"/>
		</clipPath>
		<g style="clip-path:url(#SVGID_00000096741003568278142510000004654052852280711842_);">
			<defs>
				<rect id="SVGID_00000026846241635047741920000011141390021341656977_" x="52" y="52" width="18.96" height="18.48"/>
			</defs>
			<clipPath id="SVGID_00000080916877935114462300000001546019561388668862_">
				<use xlink:href="#SVGID_00000026846241635047741920000011141390021341656977_"  style="overflow:visible;"/>
			</clipPath>
			<g style="clip-path:url(#SVGID_00000080916877935114462300000001546019561388668862_);">
				<defs>
					<rect id="SVGID_00000071542963218599504300000011897188903844042682_" x="52.082" y="51.948" width="19.053" height="18.706"/>
				</defs>
				<clipPath id="SVGID_00000076566054721160735180000009370107967605554622_">
					<use xlink:href="#SVGID_00000071542963218599504300000011897188903844042682_"  style="overflow:visible;"/>
				</clipPath>
				<g style="clip-path:url(#SVGID_00000076566054721160735180000009370107967605554622_);">
					<defs>
						
							<rect id="SVGID_00000099628863154354637120000000985436613689326521_" x="52.082" y="51.948" width="19.053" height="18.706"/>
					</defs>
					<clipPath id="SVGID_00000008870078779670129520000002985111965178525102_">
						<use xlink:href="#SVGID_00000099628863154354637120000000985436613689326521_"  style="overflow:visible;"/>
					</clipPath>
				</g>
			</g>
		</g>
	</g>
</g>
<g id="L1_4_" style="display:none;">
	<g style="display:inline;">
		<defs>
			<rect id="SVGID_00000134209445356901776810000012227391797872476340_" x="28" y="52" width="18.96" height="18.48"/>
		</defs>
		<clipPath id="SVGID_00000125582390919977990720000005120421654813729208_">
			<use xlink:href="#SVGID_00000134209445356901776810000012227391797872476340_"  style="overflow:visible;"/>
		</clipPath>
		<g style="clip-path:url(#SVGID_00000125582390919977990720000005120421654813729208_);">
			<defs>
				<rect id="SVGID_00000072242208929899681940000013245852731338733202_" x="28" y="52" width="18.96" height="18.48"/>
			</defs>
			<clipPath id="SVGID_00000001630239416927397450000005969100158095556260_">
				<use xlink:href="#SVGID_00000072242208929899681940000013245852731338733202_"  style="overflow:visible;"/>
			</clipPath>
			<g style="clip-path:url(#SVGID_00000001630239416927397450000005969100158095556260_);">
				<defs>
					<rect id="SVGID_00000085960355611365199180000009345239595866527903_" x="28.082" y="51.948" width="19.053" height="18.706"/>
				</defs>
				<clipPath id="SVGID_00000027602059059141946020000001289848080347098512_">
					<use xlink:href="#SVGID_00000085960355611365199180000009345239595866527903_"  style="overflow:visible;"/>
				</clipPath>
				<g style="clip-path:url(#SVGID_00000027602059059141946020000001289848080347098512_);">
					<defs>
						
							<rect id="SVGID_00000097467080549032835490000013266580251110750610_" x="28.082" y="51.948" width="19.053" height="18.706"/>
					</defs>
					<clipPath id="SVGID_00000060018073343871753690000008962780900434742937_">
						<use xlink:href="#SVGID_00000097467080549032835490000013266580251110750610_"  style="overflow:visible;"/>
					</clipPath>
					<polygon style="clip-path:url(#SVGID_00000060018073343871753690000008962780900434742937_);fill:#E1D153;" points="
						47.135,60.613 47.033,61.612 46.624,63.541 46.075,65.653 44.799,67.406 43.278,68.966 41.25,69.798 38.753,70.326 
						37.801,70.654 36.961,70.291 35.192,70.033 33.483,69.474 31.331,68.515 29.821,66.698 28.708,64.604 28.081,61.29 
						28.37,58.802 29.548,56.61 30.996,54.616 33.056,53.241 35.076,52.587 37.102,51.956 38.561,51.948 41.529,53.063 
						43.727,54.112 45.306,55.941 46.461,58.116 					"/>
				</g>
			</g>
		</g>
	</g>
</g>
<g id="T1_x5F_2_1_" style="display:none;">
	<g style="display:inline;">
		<defs>
			
				<rect id="SVGID_00000027580662460258402630000016806201797792089759_" x="9.026" y="6.595" transform="matrix(0.227 -0.9739 0.9739 0.227 -7.1943 33.0555)" width="16.4" height="28.929"/>
		</defs>
		<clipPath id="SVGID_00000075859422683920408850000005732755256793456527_">
			<use xlink:href="#SVGID_00000027580662460258402630000016806201797792089759_"  style="overflow:visible;"/>
		</clipPath>
		<g style="clip-path:url(#SVGID_00000075859422683920408850000005732755256793456527_);">
			<defs>
				
					<rect id="SVGID_00000145776741230371749810000012371813531598166174_" x="9.026" y="6.595" transform="matrix(0.227 -0.9739 0.9739 0.227 -7.1943 33.0555)" width="16.4" height="28.929"/>
			</defs>
			<clipPath id="SVGID_00000142865129881782255070000007394573111963427736_">
				<use xlink:href="#SVGID_00000145776741230371749810000012371813531598166174_"  style="overflow:visible;"/>
			</clipPath>
			<path style="clip-path:url(#SVGID_00000142865129881782255070000007394573111963427736_);fill:#F26C2B;" d="M6.766,22.525
				c-0.819-2.748,0.322-10.193,0.322-10.193c2.175-0.52,2.2-0.05,5.096,0.161c0.119,0.008,1.836,0.454,1.948,0.454
				c0.637,0,5.342,1.261,8.136,3.71c0.409,0.358,0.897,0.626,1.407,0.975c0.713-0.945,1.387-1.838,2.074-2.749
				c1.356,1.523,4.031,10.654,4.18,14.291c-4.344,0.367-8.68,0.391-13.286,0.008c0.716-1.242,1.278-2.218,1.958-3.398
				c-1.978-1.199-3.631-2.162-5.766-2.871C10.972,22.294,8.941,22.005,6.766,22.525"/>
		</g>
	</g>
</g>
<g id="T1_x5F_2_2_" style="display:none;">
	<g style="display:inline;">
		<defs>
			
				<rect id="SVGID_00000098917414331950203730000001189589839694862213_" x="65.614" y="10.527" transform="matrix(0.4417 -0.8972 0.8972 0.4417 27.9059 82.2988)" width="28.929" height="16.4"/>
		</defs>
		<clipPath id="SVGID_00000005949830261395311110000009846176807642739633_">
			<use xlink:href="#SVGID_00000098917414331950203730000001189589839694862213_"  style="overflow:visible;"/>
		</clipPath>
		<g style="clip-path:url(#SVGID_00000005949830261395311110000009846176807642739633_);">
			<defs>
				
					<rect id="SVGID_00000083063136164315532840000004361425150683495602_" x="65.614" y="10.527" transform="matrix(0.4417 -0.8972 0.8972 0.4417 27.9059 82.2988)" width="28.929" height="16.4"/>
			</defs>
			<clipPath id="SVGID_00000003090115607919004690000006247499583217914012_">
				<use xlink:href="#SVGID_00000083063136164315532840000004361425150683495602_"  style="overflow:visible;"/>
			</clipPath>
			<path style="clip-path:url(#SVGID_00000003090115607919004690000006247499583217914012_);fill:#55C95A;" d="M81.021,8.207
				c2.862-0.175,9.855,2.623,9.855,2.623c0.014,2.236-0.45,2.154-1.311,4.928c-0.035,0.114-0.858,1.685-0.883,1.794
				c-0.144,0.62-2.438,4.918-5.456,7.084c-0.442,0.318-0.813,0.732-1.268,1.15c0.759,0.909,1.476,1.768,2.208,2.643
				c-1.79,0.976-11.291,1.514-14.866,0.834c0.626-4.314,1.586-8.543,3.001-12.942c1.048,0.978,1.871,1.747,2.867,2.676
				c1.616-1.655,2.928-3.047,4.102-4.966C80.293,12.356,81.034,10.443,81.021,8.207"/>
		</g>
	</g>
</g>
<g id="T1_x5F_2_3_" style="display:none;">
	<g style="display:inline;">
		<defs>
			
				<rect id="SVGID_00000167371717565120488130000003149593499829036716_" x="6.614" y="72.527" transform="matrix(0.3378 -0.9412 0.9412 0.3378 -62.024 73.2991)" width="28.929" height="16.4"/>
		</defs>
		<clipPath id="SVGID_00000070817998306158734920000003836446248422982059_">
			<use xlink:href="#SVGID_00000167371717565120488130000003149593499829036716_"  style="overflow:visible;"/>
		</clipPath>
		<g style="clip-path:url(#SVGID_00000070817998306158734920000003836446248422982059_);">
			<defs>
				
					<rect id="SVGID_00000064355227665687284310000005891385118386540421_" x="6.614" y="72.527" transform="matrix(0.3378 -0.9412 0.9412 0.3378 -62.024 73.2991)" width="28.929" height="16.4"/>
			</defs>
			<clipPath id="SVGID_00000161609098116884876450000013783382168404049544_">
				<use xlink:href="#SVGID_00000064355227665687284310000005891385118386540421_"  style="overflow:visible;"/>
			</clipPath>
			<path style="clip-path:url(#SVGID_00000161609098116884876450000013783382168404049544_);fill:#E33A3A;" d="M21.328,91.287
				c-2.824,0.496-10.088-1.495-10.088-1.495c-0.266-2.22,0.204-2.191,0.748-5.044c0.022-0.117,0.662-1.771,0.676-1.882
				c0.073-0.633,1.868-5.161,4.623-7.654c0.403-0.365,0.725-0.819,1.131-1.286c-0.856-0.817-1.666-1.59-2.491-2.377
				c1.669-1.171,11.048-2.776,14.678-2.504c-0.136,4.357-0.613,8.667-1.524,13.198c-1.151-0.854-2.056-1.525-3.15-2.336
				c-1.42,1.827-2.566,3.358-3.516,5.396C21.584,87.082,21.063,89.067,21.328,91.287"/>
		</g>
	</g>
</g>
<g id="T1_x5F_2_4_" style="display:none;">
	<g style="display:inline;">
		<defs>
			
				<rect id="SVGID_00000130648786089658938340000007680879716400143268_" x="71.879" y="65.263" transform="matrix(0.3791 -0.9254 0.9254 0.3791 -24.0546 123.606)" width="16.4" height="28.929"/>
		</defs>
		<clipPath id="SVGID_00000176745506558404172140000006720687508466741676_">
			<use xlink:href="#SVGID_00000130648786089658938340000007680879716400143268_"  style="overflow:visible;"/>
		</clipPath>
		<g style="clip-path:url(#SVGID_00000176745506558404172140000006720687508466741676_);">
			<defs>
				
					<rect id="SVGID_00000086687094778374116400000017462731836847105714_" x="71.879" y="65.263" transform="matrix(0.3791 -0.9254 0.9254 0.3791 -24.0545 123.606)" width="16.4" height="28.929"/>
			</defs>
			<clipPath id="SVGID_00000149343128625567226890000014019997472834875326_">
				<use xlink:href="#SVGID_00000086687094778374116400000017462731836847105714_"  style="overflow:visible;"/>
			</clipPath>
		</g>
	</g>
</g>
<g id="L2_1_" style="display:none;">
	<g style="display:inline;">
		<defs>
			<rect id="SVGID_00000053541105584159907140000006893342222826458765_" x="55" y="56" width="31.359" height="34.868"/>
		</defs>
		<clipPath id="SVGID_00000178204138674492784330000014047736432317484416_">
			<use xlink:href="#SVGID_00000053541105584159907140000006893342222826458765_"  style="overflow:visible;"/>
		</clipPath>
		<g style="clip-path:url(#SVGID_00000178204138674492784330000014047736432317484416_);">
			<defs>
				<rect id="SVGID_00000067235266398468374970000007340958572975010229_" x="55" y="56" width="31.359" height="34.868"/>
			</defs>
			<clipPath id="SVGID_00000024680552248878233550000014383452945929579168_">
				<use xlink:href="#SVGID_00000067235266398468374970000007340958572975010229_"  style="overflow:visible;"/>
			</clipPath>
			<g style="clip-path:url(#SVGID_00000024680552248878233550000014383452945929579168_);">
				<defs>
					<rect id="SVGID_00000093155085986201695050000017395519837819881140_" x="56.264" y="55.997" width="30.098" height="18.779"/>
				</defs>
				<clipPath id="SVGID_00000022530665396394916130000005374187349813967012_">
					<use xlink:href="#SVGID_00000093155085986201695050000017395519837819881140_"  style="overflow:visible;"/>
				</clipPath>
				<g style="clip-path:url(#SVGID_00000022530665396394916130000005374187349813967012_);">
					<defs>
						
							<rect id="SVGID_00000176014501559643764790000004335025386701581478_" x="56.264" y="55.997" width="30.098" height="18.779"/>
					</defs>
					<clipPath id="SVGID_00000052819200087766557820000014085796864666376335_">
						<use xlink:href="#SVGID_00000176014501559643764790000004335025386701581478_"  style="overflow:visible;"/>
					</clipPath>
					<path style="clip-path:url(#SVGID_00000052819200087766557820000014085796864666376335_);fill:#523742;" d="M82.693,62.496
						c1.33-0.04,2.04-2.21,3.67-1.07c-0.27,4.39-0.53,8.73-0.81,13.35c-4.26-0.64-8.21-2.15-12.23-3.33
						c-0.22-0.34-0.4-0.63-0.63-0.97c1.08-0.93,2.19-1.87,3.32-2.84c-0.9-2.8-3.33-3.45-5.51-3.8c-3.55-0.57-4.85,2.27-5.92,4.63
						c-0.1,0.96-0.16,1.62-0.25,2.5c-2.83-0.65-5.4-1.24-8.01-1.85c-0.02-0.25-0.1-0.47-0.03-0.62c0.78-1.91,1.3-4.01,2.45-5.66
						c2.89-4.13,6.85-6.66,12.07-6.83c3.34-0.1,6.39,0.64,8.85,3.01C80.743,60.056,81.643,61.276,82.693,62.496"/>
				</g>
			</g>
			<g style="clip-path:url(#SVGID_00000024680552248878233550000014383452945929579168_);">
				<defs>
					<rect id="SVGID_00000106114955697947356410000012622101372391241396_" x="55.003" y="72.656" width="29.36" height="18.213"/>
				</defs>
				<clipPath id="SVGID_00000062167346003289966600000011802472667728946853_">
					<use xlink:href="#SVGID_00000106114955697947356410000012622101372391241396_"  style="overflow:visible;"/>
				</clipPath>
				<g style="clip-path:url(#SVGID_00000062167346003289966600000011802472667728946853_);">
					<defs>
						<rect id="SVGID_00000023245350120289358420000003664224236565481866_" x="55.003" y="72.656" width="29.36" height="18.213"/>
					</defs>
					<clipPath id="SVGID_00000078761086616124767130000003400244983809473209_">
						<use xlink:href="#SVGID_00000023245350120289358420000003664224236565481866_"  style="overflow:visible;"/>
					</clipPath>
					<path style="clip-path:url(#SVGID_00000078761086616124767130000003400244983809473209_);fill:#9F9EB1;" d="M84.363,78.446
						c-0.1,0.3-0.17,0.6-0.29,0.87c-1.52,3.45-3.13,6.93-6.51,8.9c-1.9,1.11-4.16,1.59-6.26,2.36c-2.15,0.78-4.14-0.2-6.16-0.61
						c-1.67-0.33-2.86-1.56-4-2.76c-0.82-0.86-1.62-1.74-2.62-2.83c-1.02,0.3-2.14,0.63-3.52,1.04c0.24-4.15,0.49-8.3,0.76-12.76
						c4,1.19,7.88,2.35,12.16,3.63c-1.18,1.02-2.12,1.83-3.03,2.63v1.59c1.49,2.59,3.87,3.08,6.63,3.14
						c3.42,0.08,4.13-2.66,5.59-4.93v-1.92C79.563,77.356,81.923,77.886,84.363,78.446"/>
				</g>
			</g>
		</g>
	</g>
</g>
<g id="G_x28__T1_L1__x29_3_L2_00000154424883366266654360000015164447617603844244_">
	<g>
		<defs>
			<rect id="SVGID_00000157290849623801887380000017993778165741784721_" x="3" y="7" width="88.96" height="83.868"/>
		</defs>
		<clipPath id="SVGID_00000067204304582480089270000000850611786311983806_">
			<use xlink:href="#SVGID_00000157290849623801887380000017993778165741784721_"  style="overflow:visible;"/>
		</clipPath>
		<polygon style="clip-path:url(#SVGID_00000067204304582480089270000000850611786311983806_);fill:#AD70D6;" points="36.959,27 
			35.076,27.587 33.057,28.24 30.997,29.615 29.548,31.61 28.37,33.801 28.081,36.29 28.709,39.604 29.82,41.698 31.331,43.514 
			33.483,44.474 35.192,45.032 36.962,45.291 37.4,45.48 38.306,45.48 38.754,45.326 41.25,44.798 43.279,43.966 44.8,42.405 
			46.074,40.652 46.625,38.541 46.96,36.96 46.96,34.962 46.461,33.116 45.307,30.94 43.728,29.111 41.529,28.063 38.701,27 		"/>
		<g style="clip-path:url(#SVGID_00000067204304582480089270000000850611786311983806_);">
			<defs>
				
					<rect id="SVGID_00000005961430383352459550000006849691454748653964_" x="11.026" y="4.596" transform="matrix(0.2915 -0.9566 0.9566 0.2915 -4.6102 31.8968)" width="16.4" height="28.929"/>
			</defs>
			<clipPath id="SVGID_00000121261891927574360590000005301815441034789504_">
				<use xlink:href="#SVGID_00000005961430383352459550000006849691454748653964_"  style="overflow:visible;"/>
			</clipPath>
			<path style="clip-path:url(#SVGID_00000121261891927574360590000005301815441034789504_);fill:#F26C2B;" d="M8.692,19.824
				C8.058,17.028,9.693,9.676,9.693,9.676c2.205-0.374,2.199,0.096,5.075,0.5c0.118,0.017,1.801,0.575,1.913,0.583
				c0.635,0.042,5.246,1.614,7.87,4.244c0.385,0.385,0.854,0.685,1.34,1.067c0.774-0.895,1.507-1.741,2.253-2.604
				c1.251,1.609,3.312,10.899,3.217,14.538c-4.358,0.076-8.687-0.19-13.256-0.878c0.796-1.192,1.422-2.128,2.179-3.26
				c-1.894-1.329-3.479-2.399-5.561-3.25C12.904,19.874,10.897,19.45,8.692,19.824"/>
		</g>
		<polygon style="clip-path:url(#SVGID_00000067204304582480089270000000850611786311983806_);fill:#5699DE;" points="80.958,27 
			79.076,27.587 77.056,28.24 74.996,29.615 73.548,31.61 72.37,33.801 72.081,36.29 72.709,39.604 73.82,41.698 75.331,43.514 
			77.483,44.474 79.192,45.032 80.962,45.291 81.399,45.48 82.306,45.48 82.754,45.326 85.25,44.798 87.279,43.966 88.8,42.405 
			90.074,40.652 90.624,38.541 90.96,36.96 90.96,34.962 90.461,33.116 89.306,30.94 87.728,29.111 85.529,28.063 82.7,27 		"/>
		<g style="clip-path:url(#SVGID_00000067204304582480089270000000850611786311983806_);">
			<defs>
				
					<rect id="SVGID_00000105390854741021968210000002468004821412009886_" x="55.026" y="4.596" transform="matrix(0.2915 -0.9566 0.9566 0.2915 26.5654 73.9864)" width="16.4" height="28.929"/>
			</defs>
			<clipPath id="SVGID_00000162329824793275046580000009395064345838682774_">
				<use xlink:href="#SVGID_00000105390854741021968210000002468004821412009886_"  style="overflow:visible;"/>
			</clipPath>
			<path style="clip-path:url(#SVGID_00000162329824793275046580000009395064345838682774_);fill:#55C95A;" d="M52.692,19.824
				c-0.634-2.796,1.001-10.148,1.001-10.148c2.205-0.374,2.199,0.096,5.075,0.5c0.118,0.017,1.801,0.575,1.913,0.583
				c0.635,0.042,5.246,1.614,7.87,4.244c0.385,0.385,0.854,0.685,1.34,1.067c0.774-0.895,1.507-1.741,2.253-2.604
				c1.251,1.609,3.312,10.899,3.217,14.538c-4.358,0.076-8.687-0.19-13.256-0.878c0.796-1.192,1.422-2.128,2.179-3.26
				c-1.894-1.329-3.479-2.399-5.561-3.25C56.904,19.874,54.897,19.45,52.692,19.824"/>
		</g>
		<polygon style="clip-path:url(#SVGID_00000067204304582480089270000000850611786311983806_);fill:#E1D153;" points="37.959,72 
			36.077,72.588 34.057,73.24 31.997,74.615 30.548,76.611 29.37,78.801 29.081,81.291 29.709,84.604 30.821,86.698 32.331,88.514 
			34.484,89.474 36.192,90.032 37.962,90.292 38.398,90.48 39.309,90.48 39.754,90.327 42.251,89.798 44.279,88.966 45.8,87.405 
			47.075,85.652 47.625,83.542 47.96,81.96 47.96,79.962 47.462,78.116 46.307,75.94 44.728,74.111 42.53,73.063 39.701,72 		"/>
		<g style="clip-path:url(#SVGID_00000067204304582480089270000000850611786311983806_);">
			<defs>
				
					<rect id="SVGID_00000169525265082772082080000004223472151772139678_" x="12.026" y="49.596" transform="matrix(0.2915 -0.9566 0.9566 0.2915 -46.9479 64.737)" width="16.4" height="28.929"/>
			</defs>
			<clipPath id="SVGID_00000006691079821968124680000008132632450548308118_">
				<use xlink:href="#SVGID_00000169525265082772082080000004223472151772139678_"  style="overflow:visible;"/>
			</clipPath>
			<path style="clip-path:url(#SVGID_00000006691079821968124680000008132632450548308118_);fill:#E33A3A;" d="M9.692,64.824
				c-0.634-2.796,1.001-10.148,1.001-10.148c2.205-0.374,2.199,0.096,5.075,0.5c0.118,0.017,1.801,0.575,1.913,0.583
				c0.635,0.042,5.246,1.614,7.87,4.244c0.385,0.385,0.854,0.685,1.34,1.067c0.774-0.895,1.507-1.741,2.253-2.604
				c1.251,1.609,3.312,10.899,3.217,14.538c-4.358,0.076-8.687-0.19-13.256-0.878c0.796-1.192,1.422-2.128,2.179-3.26
				c-1.894-1.329-3.479-2.399-5.561-3.25C13.904,64.874,11.897,64.45,9.692,64.824"/>
		</g>
		<g style="clip-path:url(#SVGID_00000067204304582480089270000000850611786311983806_);">
			<defs>
				<rect id="SVGID_00000174565698318581002000000004427734052215736215_" x="58.264" y="56" width="30.094" height="18.775"/>
			</defs>
			<clipPath id="SVGID_00000038414005253286176430000010799852883564634555_">
				<use xlink:href="#SVGID_00000174565698318581002000000004427734052215736215_"  style="overflow:visible;"/>
			</clipPath>
			<path style="clip-path:url(#SVGID_00000038414005253286176430000010799852883564634555_);fill:#523742;" d="M84.693,62.496
				c1.33-0.04,2.04-2.21,3.67-1.07c-0.27,4.39-0.53,8.73-0.81,13.35c-4.26-0.64-8.21-2.15-12.23-3.33c-0.22-0.34-0.4-0.63-0.63-0.97
				c1.08-0.93,2.19-1.87,3.32-2.84c-0.9-2.8-3.33-3.45-5.51-3.8c-3.55-0.57-4.85,2.27-5.92,4.63c-0.1,0.96-0.16,1.62-0.25,2.5
				c-2.83-0.65-5.4-1.24-8.01-1.85c-0.02-0.25-0.1-0.47-0.03-0.62c0.78-1.91,1.3-4.01,2.45-5.66c2.89-4.13,6.85-6.66,12.07-6.83
				c3.34-0.1,6.39,0.64,8.85,3.01C82.743,60.056,83.643,61.276,84.693,62.496"/>
		</g>
		<g style="clip-path:url(#SVGID_00000067204304582480089270000000850611786311983806_);">
			<defs>
				<rect id="SVGID_00000180360121051120873300000000793098457438267546_" x="57.003" y="72.657" width="29.36" height="18.212"/>
			</defs>
			<clipPath id="SVGID_00000060710583646480102630000016681267261013968007_">
				<use xlink:href="#SVGID_00000180360121051120873300000000793098457438267546_"  style="overflow:visible;"/>
			</clipPath>
			<path style="clip-path:url(#SVGID_00000060710583646480102630000016681267261013968007_);fill:#9F9EB1;" d="M86.363,78.446
				c-0.1,0.3-0.17,0.6-0.29,0.87c-1.52,3.45-3.13,6.93-6.51,8.9c-1.9,1.11-4.16,1.59-6.26,2.36c-2.15,0.78-4.14-0.2-6.16-0.61
				c-1.67-0.33-2.86-1.56-4-2.76c-0.82-0.86-1.62-1.74-2.62-2.83c-1.02,0.3-2.14,0.63-3.52,1.04c0.24-4.15,0.49-8.3,0.76-12.76
				c4,1.19,7.88,2.35,12.16,3.63c-1.18,1.02-2.12,1.83-3.03,2.63v1.59c1.49,2.59,3.87,3.08,6.63,3.14c3.42,0.08,4.13-2.66,5.59-4.93
				v-1.92C81.563,77.356,83.923,77.886,86.363,78.446"/>
		</g>
	</g>
</g>
</svg>
