<?xml version="1.0" encoding="iso-8859-1"?>
<!-- Generator: Adobe Illustrator 26.0.1, SVG Export Plug-In . SVG Version: 6.00 Build 0)  -->
<svg version="1.1" xmlns="http://www.w3.org/2000/svg" xmlns:xlink="http://www.w3.org/1999/xlink" x="0px" y="0px"
	 viewBox="0 0 100 100" style="enable-background:new 0 0 100 100;" xml:space="preserve">
<g id="Layer_1">
	<g id="L3_1_" style="opacity:0.99;">
		<g>
			<defs>
				<polygon id="SVGID_1_" points="64.044,14.663 66.407,64.033 21.007,66.761 18.645,17.391 				"/>
			</defs>
			<clipPath id="SVGID_00000152975347871977444060000014705428070395084164_">
				<use xlink:href="#SVGID_1_"  style="overflow:visible;"/>
			</clipPath>
			<g style="clip-path:url(#SVGID_00000152975347871977444060000014705428070395084164_);">
				<defs>
					<polygon id="SVGID_00000147209783950305042200000006861625543677038260_" points="18.641,17.396 21.003,66.761 66.404,64.032 
						64.042,14.668 					"/>
				</defs>
				<clipPath id="SVGID_00000111882260609579930000000003829745286119125383_">
					<use xlink:href="#SVGID_00000147209783950305042200000006861625543677038260_"  style="overflow:visible;"/>
				</clipPath>
				<g style="clip-path:url(#SVGID_00000111882260609579930000000003829745286119125383_);">
					<defs>
						<polygon id="SVGID_00000132076343984681384440000017418148211396802195_" points="18.641,17.396 21.003,66.761 66.404,64.032 
							64.042,14.668 						"/>
					</defs>
					<clipPath id="SVGID_00000154425595983560194170000005871777948227763342_">
						<use xlink:href="#SVGID_00000132076343984681384440000017418148211396802195_"  style="overflow:visible;"/>
					</clipPath>
					<g id="XMLID_3_" style="clip-path:url(#SVGID_00000154425595983560194170000005871777948227763342_);">
						<g>
							<path style="fill:#AD70D6;" d="M57.89,26.15c-2.13,2-4.23,4.11-6.53,6.1c-1.78,1.55-3.68,3.03-5.83,4.36
								c-0.33-1.76-0.57-3.06-0.85-4.56c-2.46,0.35-5.1,0.24-7.29,1.19c-2.12,0.94-4.29,2.42-5.3,5.35
								c-3.03-1.93-5.83-3.73-8.76-5.6c1.57-3.19,3.01-6.32,5.88-8.47c0.56-0.41,0.99-0.98,1.44-1.51c1.31-1.5,3.13-1.93,4.88-2.32
								c1.81-0.4,3.72-0.34,5.6-0.49c0.53-0.05,1.08-0.07,1.63-0.1c0.01-1.52,0.02-2.84,0.01-4.15
								C45.51,16.02,56.94,23.71,57.89,26.15z"/>
						</g>
						<g>
						</g>
					</g>
					<g id="XMLID_1_" style="clip-path:url(#SVGID_00000154425595983560194170000005871777948227763342_);">
						<g>
							<path style="fill:#5699DE;" d="M45.47,54.4c-0.03,0.94-0.07,1.6-0.09,2.25c-0.07,2.62-0.13,5.24-0.2,7.85
								c-0.01,0.28-0.13,0.56-0.2,0.82l-5.01,0.3c-0.37-0.09-0.75-0.18-1.13-0.27c-2.28-0.6-4.63-1.03-6.83-1.84
								c-1.16-0.43-2.27-1.34-3.09-2.31c-1.65-1.96-3.08-4.1-4.67-6.27c-1.04,0.7-2.18,1.46-3.34,2.25
								c-1.2-3.08-0.47-16.93,0.99-18.54c3.08,0.99,6.23,1.82,9.41,2.9c1.89,0.65,3.81,1.39,5.71,2.29c-1.3,1.2-2.37,2.19-3.47,3.2
								c1.61,2.06,3.18,4.06,4.82,6.14C40.71,53.29,42.52,55.96,45.47,54.4z"/>
						</g>
						<g>
						</g>
					</g>
					<g id="XMLID_2_" style="clip-path:url(#SVGID_00000154425595983560194170000005871777948227763342_);">
						<g>
							<path style="fill:#E1D153;" d="M64.18,39.49c2.32,4.39,0.57,8.38-1.29,12.37c-0.26,0.58-0.41,1.22-0.64,1.92
								c1.29,0.49,2.5,0.95,3.73,1.42c-1.26,2.05-10.61,8.15-14.63,9.54c-1.33-3.57-2.45-7.2-3.35-11.02
								c-0.32-1.33-0.62-2.67-0.88-4.04c1.61,0.4,2.88,0.7,4.41,1.09c0.71-2.65,1.88-5.27,2-7.93c0.1-2.31,0.09-5.06-2.26-6.77
								c0.6-0.39,1.19-0.79,1.76-1.16c2.17-1.43,4.24-2.8,6.37-4.21c2.03,2.47,4.04,5.02,4.73,8.37
								C64.16,39.21,64.13,39.37,64.18,39.49z"/>
						</g>
						<g>
						</g>
					</g>
				</g>
			</g>
		</g>
		<polygon style="fill:none;" points="64.044,14.663 66.406,64.033 21.007,66.761 18.645,17.391 		"/>
	</g>
	<g id="T_x5F_1_x5F_2_1_">
		<g>
			<defs>
				<polygon id="SVGID_00000035529408060016351890000014809836570247866039_" points="99.514,26.756 78.17,53.375 63.467,41.217 
					84.811,14.598 				"/>
			</defs>
			<clipPath id="SVGID_00000118368700874183416530000005902827320039731875_">
				<use xlink:href="#SVGID_00000035529408060016351890000014809836570247866039_"  style="overflow:visible;"/>
			</clipPath>
			<g style="clip-path:url(#SVGID_00000118368700874183416530000005902827320039731875_);">
				<defs>
					<polygon id="SVGID_00000013175417558022943630000010226018608098929850_" points="99.514,26.756 78.17,53.375 63.467,41.217 
						84.811,14.598 					"/>
				</defs>
				<clipPath id="SVGID_00000183212982123918786050000014457768160565089675_">
					<use xlink:href="#SVGID_00000013175417558022943630000010226018608098929850_"  style="overflow:visible;"/>
				</clipPath>
			</g>
		</g>
	</g>
	<g>
		<defs>
			<polygon id="SVGID_00000152260277836366016530000009919459517730379392_" points="101,29.595 76.278,52.996 63.387,38.869 
				88.109,15.469 			"/>
		</defs>
		<clipPath id="SVGID_00000149376258045889662560000004208096174737754790_">
			<use xlink:href="#SVGID_00000152260277836366016530000009919459517730379392_"  style="overflow:visible;"/>
		</clipPath>
		<g style="clip-path:url(#SVGID_00000149376258045889662560000004208096174737754790_);">
			<defs>
				<polygon id="SVGID_00000142155584124759107680000005460698976162011327_" points="101,29.595 76.277,52.995 63.387,38.869 
					88.109,15.469 				"/>
			</defs>
			<clipPath id="SVGID_00000058557627161165983830000017109067572827680140_">
				<use xlink:href="#SVGID_00000142155584124759107680000005460698976162011327_"  style="overflow:visible;"/>
			</clipPath>
			<g id="XMLID_4_" style="clip-path:url(#SVGID_00000058557627161165983830000017109067572827680140_);">
				<g>
					<path style="fill:#55C95A;" d="M97.2,29.98c-0.93,2.48-1.39,2.2-3.49,4.91C93.62,35,92.07,36.4,92,36.51
						c-0.42,0.62-4.7,4.42-8.88,5.57c-0.61,0.16-1.19,0.47-1.86,0.74c0.45,1.32,0.86,2.57,1.29,3.84C80.2,47,69.69,43.64,66.1,41.41
						c2.49-4.51,5.3-8.79,8.68-13.07c0.72,1.52,1.29,2.71,1.98,4.15c2.45-1.16,4.45-2.15,6.53-3.79c1.81-1.43,3.41-3.23,4.34-5.71
						C90.8,23.98,97.2,29.98,97.2,29.98z"/>
				</g>
				<g>
				</g>
			</g>
		</g>
	</g>
	<g>
		<defs>
			<polygon id="SVGID_00000039822801997534284910000004996996463502461594_" points="-0.381,3.022 33.119,5.154 31.734,24.495 
				-1.767,22.363 			"/>
		</defs>
		<clipPath id="SVGID_00000138534081471492518590000017033898031257051550_">
			<use xlink:href="#SVGID_00000039822801997534284910000004996996463502461594_"  style="overflow:visible;"/>
		</clipPath>
		<g style="clip-path:url(#SVGID_00000138534081471492518590000017033898031257051550_);">
			<defs>
				<polygon id="SVGID_00000005968847637335747970000017953247870247335311_" points="-0.381,3.022 33.119,5.154 31.734,24.495 
					-1.767,22.363 				"/>
			</defs>
			<clipPath id="SVGID_00000134219952296392937870000000380528825642280602_">
				<use xlink:href="#SVGID_00000005968847637335747970000017953247870247335311_"  style="overflow:visible;"/>
			</clipPath>
			<g id="XMLID_6_" style="clip-path:url(#SVGID_00000134219952296392937870000000380528825642280602_);">
				<g>
					<path style="fill:#E33A3A;" d="M24.34,4.89c1.83,1.51,6.55,11.63,7.37,15.83c-4.91,1.28-9.88,2.16-15.23,2.62
						c0.59-1.59,1.06-2.84,1.63-4.35c-2.49-1.01-4.56-1.8-7.13-2.21c-2.25-0.36-4.64-0.3-7.04,0.74C2.51,14.47,2.47,5.57,2.47,5.57
						c2.4-1.03,2.52-0.48,5.88-0.81c0.13-0.01,2.18,0.17,2.31,0.15c0.73-0.12,6.36,0.42,10,2.73c0.54,0.34,1.15,0.55,1.79,0.86
						C23.1,7.26,23.71,6.09,24.34,4.89z"/>
				</g>
				<g>
				</g>
			</g>
		</g>
	</g>
	<g>
		<defs>
			<polygon id="SVGID_00000031178109988023580790000015605611429993215678_" points="11.79,96.501 13.621,62.352 32.635,63.207 
				30.804,97.356 			"/>
		</defs>
		<clipPath id="SVGID_00000121992851322717341220000016200796317815952275_">
			<use xlink:href="#SVGID_00000031178109988023580790000015605611429993215678_"  style="overflow:visible;"/>
		</clipPath>
		<g style="clip-path:url(#SVGID_00000121992851322717341220000016200796317815952275_);">
			<defs>
				<polygon id="SVGID_00000034061641876586879490000009533728249507944626_" points="11.79,96.501 13.621,62.352 32.635,63.207 
					30.804,97.356 				"/>
			</defs>
			<clipPath id="SVGID_00000024688382802020685390000001178761215791444156_">
				<use xlink:href="#SVGID_00000034061641876586879490000009533728249507944626_"  style="overflow:visible;"/>
			</clipPath>
			<g id="XMLID_5_" style="clip-path:url(#SVGID_00000024688382802020685390000001178761215791444156_);">
				<g>
					<path style="fill:#F26C2B;" d="M28.93,63.34c1.3,4.96,2.2,9.99,2.69,15.43c-1.57-0.57-2.8-1.01-4.28-1.54
						c-0.98,2.56-1.74,4.69-2.12,7.32c-0.34,2.3-0.26,4.72,0.78,7.14c-2.98,1.54-11.72,1.83-11.72,1.83
						c-1.04-2.41-0.5-2.54-0.85-5.95c-0.01-0.14,0.15-2.23,0.13-2.36c-0.13-0.74,0.36-6.48,2.6-10.26c0.33-0.55,0.54-1.17,0.83-1.84
						c-1.22-0.63-2.38-1.22-3.56-1.82C14.9,69.39,24.8,64.3,28.93,63.34z"/>
				</g>
				<g>
				</g>
			</g>
		</g>
	</g>
	<g>
		<defs>
			<rect id="SVGID_00000136389285236838197010000004128273967885505460_" x="63" y="62" width="30.46" height="33.868"/>
		</defs>
		<clipPath id="SVGID_00000155112371136703625390000000488288938269710226_">
			<use xlink:href="#SVGID_00000136389285236838197010000004128273967885505460_"  style="overflow:visible;"/>
		</clipPath>
		<g style="clip-path:url(#SVGID_00000155112371136703625390000000488288938269710226_);">
			<defs>
				<rect id="SVGID_00000047743236315759204360000002735464041521341585_" x="63" y="62" width="30.46" height="33.868"/>
			</defs>
			<clipPath id="SVGID_00000180353259667294321380000011709378091610418359_">
				<use xlink:href="#SVGID_00000047743236315759204360000002735464041521341585_"  style="overflow:visible;"/>
			</clipPath>
			<g style="clip-path:url(#SVGID_00000180353259667294321380000011709378091610418359_);">
				<defs>
					<rect id="SVGID_00000095331986249518146720000003606178367321130405_" x="64.228" y="61.997" width="29.235" height="18.24"/>
				</defs>
				<clipPath id="SVGID_00000009585446111041510390000002772078593696947603_">
					<use xlink:href="#SVGID_00000095331986249518146720000003606178367321130405_"  style="overflow:visible;"/>
				</clipPath>
				<g style="clip-path:url(#SVGID_00000009585446111041510390000002772078593696947603_);">
					<defs>
						<rect id="SVGID_00000080909027773216656090000015013352357715720618_" x="64.228" y="61.997" width="29.235" height="18.24"/>
					</defs>
					<clipPath id="SVGID_00000180333162869144975770000017499738400917521806_">
						<use xlink:href="#SVGID_00000080909027773216656090000015013352357715720618_"  style="overflow:visible;"/>
					</clipPath>
					<g id="XMLID_7_" style="clip-path:url(#SVGID_00000180333162869144975770000017499738400917521806_);">
						<g>
							<path style="fill:#523742;" d="M93.46,67.27c-0.26,4.26-0.51,8.48-0.78,12.97C88.54,79.62,84.7,78.15,80.8,77
								c-0.22-0.33-0.39-0.61-0.61-0.94c1.04-0.9,2.12-1.82,3.22-2.76c-0.87-2.72-3.23-3.35-5.35-3.69
								c-3.45-0.55-4.71,2.21-5.75,4.5c-0.1,0.93-0.16,1.57-0.24,2.43c-2.75-0.63-5.25-1.21-7.79-1.8c-0.01-0.24-0.09-0.46-0.02-0.6
								c0.75-1.86,1.26-3.9,2.38-5.5c2.8-4.01,6.65-6.47,11.72-6.63c3.24-0.1,6.21,0.62,8.6,2.92c1.04,1.01,1.92,2.19,2.94,3.38
								C91.19,68.27,91.88,66.16,93.46,67.27z"/>
						</g>
						<g>
						</g>
					</g>
				</g>
			</g>
			<g style="clip-path:url(#SVGID_00000180353259667294321380000011709378091610418359_);">
				<defs>
					<rect id="SVGID_00000177476991478569159450000017029320088463098801_" x="63.003" y="78.178" width="28.518" height="17.69"/>
				</defs>
				<clipPath id="SVGID_00000141456063068706159640000006119116440654877321_">
					<use xlink:href="#SVGID_00000177476991478569159450000017029320088463098801_"  style="overflow:visible;"/>
				</clipPath>
				<g style="clip-path:url(#SVGID_00000141456063068706159640000006119116440654877321_);">
					<defs>
						<rect id="SVGID_00000132084770112007208730000001017043327029413279_" x="63.003" y="78.178" width="28.518" height="17.69"/>
					</defs>
					<clipPath id="SVGID_00000093880197528017750080000011688123088234864031_">
						<use xlink:href="#SVGID_00000132084770112007208730000001017043327029413279_"  style="overflow:visible;"/>
					</clipPath>
					<path style="clip-path:url(#SVGID_00000093880197528017750080000011688123088234864031_);fill:#9F9EB1;" d="M91.521,83.802
						c-0.097,0.291-0.165,0.583-0.282,0.845c-1.476,3.351-3.04,6.731-6.323,8.645c-1.846,1.078-4.041,1.544-6.08,2.292
						c-2.088,0.758-4.021-0.194-5.983-0.593c-1.622-0.321-2.778-1.515-3.885-2.681c-0.796-0.835-1.574-1.69-2.545-2.749
						c-0.991,0.291-2.079,0.612-3.419,1.01c0.233-4.031,0.476-8.062,0.738-12.394c3.885,1.156,7.654,2.283,11.811,3.526
						c-1.146,0.991-2.059,1.778-2.943,2.555v1.544c1.447,2.516,3.759,2.992,6.44,3.05c3.322,0.078,4.012-2.584,5.43-4.789V82.2
						C86.858,82.744,89.15,83.258,91.521,83.802"/>
				</g>
			</g>
		</g>
	</g>
</g>
<g id="Layer_2">
</g>
</svg>
