<?xml version="1.0" encoding="iso-8859-1"?>
<!-- Generator: Adobe Illustrator 26.0.1, SVG Export Plug-In . SVG Version: 6.00 Build 0)  -->
<svg version="1.1" id="Layer_1" xmlns="http://www.w3.org/2000/svg" xmlns:xlink="http://www.w3.org/1999/xlink" x="0px" y="0px"
	 viewBox="0 0 100 100" style="enable-background:new 0 0 100 100;" xml:space="preserve">
<g id="L1_1_" style="display:none;">
	<g style="display:inline;">
		<defs>
			<rect id="SVGID_1_" x="28" y="27" width="18.96" height="18.48"/>
		</defs>
		<clipPath id="SVGID_00000023269389270752093950000008517619012110728378_">
			<use xlink:href="#SVGID_1_"  style="overflow:visible;"/>
		</clipPath>
		<g style="clip-path:url(#SVGID_00000023269389270752093950000008517619012110728378_);">
			<defs>
				<rect id="SVGID_00000089557703467503628210000014523882871554244747_" x="28" y="27" width="18.96" height="18.48"/>
			</defs>
			<clipPath id="SVGID_00000049939169953437779470000012443825777838963343_">
				<use xlink:href="#SVGID_00000089557703467503628210000014523882871554244747_"  style="overflow:visible;"/>
			</clipPath>
			<g style="clip-path:url(#SVGID_00000049939169953437779470000012443825777838963343_);">
				<defs>
					<rect id="SVGID_00000043449377437210116010000017010231389849777053_" x="28.082" y="26.948" width="19.053" height="18.706"/>
				</defs>
				<clipPath id="SVGID_00000061446816487685233630000016036883894332989375_">
					<use xlink:href="#SVGID_00000043449377437210116010000017010231389849777053_"  style="overflow:visible;"/>
				</clipPath>
				<g style="clip-path:url(#SVGID_00000061446816487685233630000016036883894332989375_);">
					<defs>
						
							<rect id="SVGID_00000025429772821889661910000016125034274876793262_" x="28.082" y="26.948" width="19.053" height="18.706"/>
					</defs>
					<clipPath id="SVGID_00000123439135610173412810000012599149309602438539_">
						<use xlink:href="#SVGID_00000025429772821889661910000016125034274876793262_"  style="overflow:visible;"/>
					</clipPath>
					<polygon style="clip-path:url(#SVGID_00000123439135610173412810000012599149309602438539_);fill:#AD70D6;" points="
						47.135,35.613 47.033,36.612 46.624,38.541 46.075,40.653 44.799,42.406 43.278,43.966 41.25,44.798 38.753,45.326 
						37.801,45.654 36.961,45.291 35.192,45.033 33.483,44.474 31.331,43.515 29.821,41.698 28.708,39.604 28.081,36.29 
						28.37,33.802 29.548,31.61 30.996,29.616 33.056,28.241 35.076,27.587 37.102,26.956 38.561,26.948 41.529,28.063 
						43.727,29.112 45.306,30.941 46.461,33.116 					"/>
				</g>
			</g>
		</g>
	</g>
</g>
<g id="L1_2_" style="display:none;">
	<g style="display:inline;">
		<defs>
			<rect id="SVGID_00000016049839377519725810000014597722761369433759_" x="52" y="27" width="18.96" height="18.48"/>
		</defs>
		<clipPath id="SVGID_00000044878579486077773230000001802589368755237540_">
			<use xlink:href="#SVGID_00000016049839377519725810000014597722761369433759_"  style="overflow:visible;"/>
		</clipPath>
		<g style="clip-path:url(#SVGID_00000044878579486077773230000001802589368755237540_);">
			<defs>
				<rect id="SVGID_00000143582235501355970270000001171532396404890026_" x="52" y="27" width="18.96" height="18.48"/>
			</defs>
			<clipPath id="SVGID_00000074425512487510196730000008075449785382775434_">
				<use xlink:href="#SVGID_00000143582235501355970270000001171532396404890026_"  style="overflow:visible;"/>
			</clipPath>
			<g style="clip-path:url(#SVGID_00000074425512487510196730000008075449785382775434_);">
				<defs>
					<rect id="SVGID_00000072253189023198918260000003256117546537667722_" x="52.082" y="26.948" width="19.053" height="18.706"/>
				</defs>
				<clipPath id="SVGID_00000168089515489957340140000001852871883604845240_">
					<use xlink:href="#SVGID_00000072253189023198918260000003256117546537667722_"  style="overflow:visible;"/>
				</clipPath>
				<g style="clip-path:url(#SVGID_00000168089515489957340140000001852871883604845240_);">
					<defs>
						
							<rect id="SVGID_00000105411014882824577000000005871650885027501699_" x="52.082" y="26.948" width="19.053" height="18.706"/>
					</defs>
					<clipPath id="SVGID_00000008116378863182675410000008713402493868700857_">
						<use xlink:href="#SVGID_00000105411014882824577000000005871650885027501699_"  style="overflow:visible;"/>
					</clipPath>
					<polygon style="clip-path:url(#SVGID_00000008116378863182675410000008713402493868700857_);fill:#5699DE;" points="
						71.135,35.613 71.033,36.612 70.624,38.541 70.075,40.653 68.799,42.406 67.278,43.966 65.25,44.798 62.753,45.326 
						61.801,45.654 60.961,45.291 59.192,45.033 57.483,44.474 55.331,43.515 53.821,41.698 52.708,39.604 52.081,36.29 
						52.37,33.802 53.548,31.61 54.996,29.616 57.056,28.241 59.076,27.587 61.102,26.956 62.561,26.948 65.529,28.063 
						67.727,29.112 69.306,30.941 70.461,33.116 					"/>
				</g>
			</g>
		</g>
	</g>
</g>
<g id="L1_3_" style="display:none;">
	<g style="display:inline;">
		<defs>
			<rect id="SVGID_00000111896130907275672860000005236230559249788574_" x="52" y="52" width="18.96" height="18.48"/>
		</defs>
		<clipPath id="SVGID_00000132804053180771460740000009024215503110387356_">
			<use xlink:href="#SVGID_00000111896130907275672860000005236230559249788574_"  style="overflow:visible;"/>
		</clipPath>
		<g style="clip-path:url(#SVGID_00000132804053180771460740000009024215503110387356_);">
			<defs>
				<rect id="SVGID_00000011723835599227463320000004574339686948864920_" x="52" y="52" width="18.96" height="18.48"/>
			</defs>
			<clipPath id="SVGID_00000152239963499271001750000002495934195817101496_">
				<use xlink:href="#SVGID_00000011723835599227463320000004574339686948864920_"  style="overflow:visible;"/>
			</clipPath>
			<g style="clip-path:url(#SVGID_00000152239963499271001750000002495934195817101496_);">
				<defs>
					<rect id="SVGID_00000062178622047493321180000006966367044413912247_" x="52.082" y="51.948" width="19.053" height="18.706"/>
				</defs>
				<clipPath id="SVGID_00000005246605281846975690000000674374935219088774_">
					<use xlink:href="#SVGID_00000062178622047493321180000006966367044413912247_"  style="overflow:visible;"/>
				</clipPath>
				<g style="clip-path:url(#SVGID_00000005246605281846975690000000674374935219088774_);">
					<defs>
						
							<rect id="SVGID_00000039131674540084843130000002672987050958038682_" x="52.082" y="51.948" width="19.053" height="18.706"/>
					</defs>
					<clipPath id="SVGID_00000140727096399171694640000013285362561912955543_">
						<use xlink:href="#SVGID_00000039131674540084843130000002672987050958038682_"  style="overflow:visible;"/>
					</clipPath>
					<polygon style="clip-path:url(#SVGID_00000140727096399171694640000013285362561912955543_);fill:#9F9EB1;" points="
						71.135,60.613 71.033,61.612 70.624,63.541 70.075,65.653 68.799,67.406 67.278,68.966 65.25,69.798 62.753,70.326 
						61.801,70.654 60.961,70.291 59.192,70.033 57.483,69.474 55.331,68.515 53.821,66.698 52.708,64.604 52.081,61.29 
						52.37,58.802 53.548,56.61 54.996,54.616 57.056,53.241 59.076,52.587 61.102,51.956 62.561,51.948 65.529,53.063 
						67.727,54.112 69.306,55.941 70.461,58.116 					"/>
				</g>
			</g>
		</g>
	</g>
</g>
<g id="L1_4_" style="display:none;">
	<g style="display:inline;">
		<defs>
			<rect id="SVGID_00000020397786204879582230000013213010033780570808_" x="28" y="52" width="18.96" height="18.48"/>
		</defs>
		<clipPath id="SVGID_00000112625732617101346020000004047219138936410021_">
			<use xlink:href="#SVGID_00000020397786204879582230000013213010033780570808_"  style="overflow:visible;"/>
		</clipPath>
		<g style="clip-path:url(#SVGID_00000112625732617101346020000004047219138936410021_);">
			<defs>
				<rect id="SVGID_00000171703735186408677780000009724801698019974566_" x="28" y="52" width="18.96" height="18.48"/>
			</defs>
			<clipPath id="SVGID_00000147912487640670747320000012061367353393350548_">
				<use xlink:href="#SVGID_00000171703735186408677780000009724801698019974566_"  style="overflow:visible;"/>
			</clipPath>
			<g style="clip-path:url(#SVGID_00000147912487640670747320000012061367353393350548_);">
				<defs>
					<rect id="SVGID_00000108291169096705436770000005544569233887885245_" x="28.082" y="51.948" width="19.053" height="18.706"/>
				</defs>
				<clipPath id="SVGID_00000147935819665587673510000011111992752738161587_">
					<use xlink:href="#SVGID_00000108291169096705436770000005544569233887885245_"  style="overflow:visible;"/>
				</clipPath>
				<g style="clip-path:url(#SVGID_00000147935819665587673510000011111992752738161587_);">
					<defs>
						
							<rect id="SVGID_00000053525498890277677250000007803803490027637898_" x="28.082" y="51.948" width="19.053" height="18.706"/>
					</defs>
					<clipPath id="SVGID_00000092430964571765435830000001568473193223512751_">
						<use xlink:href="#SVGID_00000053525498890277677250000007803803490027637898_"  style="overflow:visible;"/>
					</clipPath>
					<polygon style="clip-path:url(#SVGID_00000092430964571765435830000001568473193223512751_);fill:#E1D153;" points="
						47.135,60.613 47.033,61.612 46.624,63.541 46.075,65.653 44.799,67.406 43.278,68.966 41.25,69.798 38.753,70.326 
						37.801,70.654 36.961,70.291 35.192,70.033 33.483,69.474 31.331,68.515 29.821,66.698 28.708,64.604 28.081,61.29 
						28.37,58.802 29.548,56.61 30.996,54.616 33.056,53.241 35.076,52.587 37.102,51.956 38.561,51.948 41.529,53.063 
						43.727,54.112 45.306,55.941 46.461,58.116 					"/>
				</g>
			</g>
		</g>
	</g>
</g>
<g id="T1_x5F_2_1_" style="display:none;">
	<g style="display:inline;">
		<defs>
			
				<rect id="SVGID_00000090258503304200853340000000489933135320107951_" x="9.026" y="6.595" transform="matrix(0.227 -0.9739 0.9739 0.227 -7.1943 33.0555)" width="16.4" height="28.929"/>
		</defs>
		<clipPath id="SVGID_00000114790612572893941630000010185285102207528622_">
			<use xlink:href="#SVGID_00000090258503304200853340000000489933135320107951_"  style="overflow:visible;"/>
		</clipPath>
		<g style="clip-path:url(#SVGID_00000114790612572893941630000010185285102207528622_);">
			<defs>
				
					<rect id="SVGID_00000065069238635475307850000003493307217410899864_" x="9.026" y="6.595" transform="matrix(0.227 -0.9739 0.9739 0.227 -7.1943 33.0555)" width="16.4" height="28.929"/>
			</defs>
			<clipPath id="SVGID_00000141415531526448362990000006448350153592046517_">
				<use xlink:href="#SVGID_00000065069238635475307850000003493307217410899864_"  style="overflow:visible;"/>
			</clipPath>
			<path style="clip-path:url(#SVGID_00000141415531526448362990000006448350153592046517_);fill:#F26C2B;" d="M6.766,22.525
				c-0.819-2.748,0.322-10.193,0.322-10.193c2.175-0.52,2.2-0.05,5.096,0.161c0.119,0.008,1.836,0.454,1.948,0.454
				c0.637,0,5.342,1.261,8.136,3.71c0.409,0.358,0.897,0.626,1.407,0.975c0.713-0.945,1.387-1.838,2.074-2.749
				c1.356,1.523,4.031,10.654,4.18,14.291c-4.344,0.367-8.68,0.391-13.286,0.008c0.716-1.242,1.278-2.218,1.958-3.398
				c-1.978-1.199-3.631-2.162-5.766-2.871C10.972,22.294,8.941,22.005,6.766,22.525"/>
		</g>
	</g>
</g>
<g id="T1_x5F_2_2_" style="display:none;">
	<g style="display:inline;">
		<defs>
			
				<rect id="SVGID_00000052090110241560478650000009644636646114670515_" x="65.614" y="10.527" transform="matrix(0.4417 -0.8972 0.8972 0.4417 27.9059 82.2988)" width="28.929" height="16.4"/>
		</defs>
		<clipPath id="SVGID_00000000201298052917408730000010152226229183681942_">
			<use xlink:href="#SVGID_00000052090110241560478650000009644636646114670515_"  style="overflow:visible;"/>
		</clipPath>
		<g style="clip-path:url(#SVGID_00000000201298052917408730000010152226229183681942_);">
			<defs>
				
					<rect id="SVGID_00000162311635255733522120000003100061310370316439_" x="65.614" y="10.527" transform="matrix(0.4417 -0.8972 0.8972 0.4417 27.9059 82.2988)" width="28.929" height="16.4"/>
			</defs>
			<clipPath id="SVGID_00000003807035364898921960000000402793461947441847_">
				<use xlink:href="#SVGID_00000162311635255733522120000003100061310370316439_"  style="overflow:visible;"/>
			</clipPath>
			<path style="clip-path:url(#SVGID_00000003807035364898921960000000402793461947441847_);fill:#55C95A;" d="M81.021,8.207
				c2.862-0.175,9.855,2.623,9.855,2.623c0.014,2.236-0.45,2.154-1.311,4.928c-0.035,0.114-0.858,1.685-0.883,1.794
				c-0.144,0.62-2.438,4.918-5.456,7.084c-0.442,0.318-0.813,0.732-1.268,1.15c0.759,0.909,1.476,1.768,2.208,2.643
				c-1.79,0.976-11.291,1.514-14.866,0.834c0.626-4.314,1.586-8.543,3.001-12.942c1.048,0.978,1.871,1.747,2.867,2.676
				c1.616-1.655,2.928-3.047,4.102-4.966C80.293,12.356,81.034,10.443,81.021,8.207"/>
		</g>
	</g>
</g>
<g id="T1_x5F_2_3_" style="display:none;">
	<g style="display:inline;">
		<defs>
			
				<rect id="SVGID_00000156566651382998426900000011402142793476012678_" x="6.614" y="72.527" transform="matrix(0.3378 -0.9412 0.9412 0.3378 -62.024 73.2991)" width="28.929" height="16.4"/>
		</defs>
		<clipPath id="SVGID_00000021809109963738727810000016730286313119174828_">
			<use xlink:href="#SVGID_00000156566651382998426900000011402142793476012678_"  style="overflow:visible;"/>
		</clipPath>
		<g style="clip-path:url(#SVGID_00000021809109963738727810000016730286313119174828_);">
			<defs>
				
					<rect id="SVGID_00000032639109227297090590000012772145719046884273_" x="6.614" y="72.527" transform="matrix(0.3378 -0.9412 0.9412 0.3378 -62.024 73.2991)" width="28.929" height="16.4"/>
			</defs>
			<clipPath id="SVGID_00000023275909876039079670000012376016307994817468_">
				<use xlink:href="#SVGID_00000032639109227297090590000012772145719046884273_"  style="overflow:visible;"/>
			</clipPath>
			<path style="clip-path:url(#SVGID_00000023275909876039079670000012376016307994817468_);fill:#E33A3A;" d="M21.328,91.287
				c-2.824,0.496-10.088-1.495-10.088-1.495c-0.266-2.22,0.204-2.191,0.748-5.044c0.022-0.117,0.662-1.771,0.676-1.882
				c0.073-0.633,1.868-5.161,4.623-7.654c0.403-0.365,0.725-0.819,1.131-1.286c-0.856-0.817-1.666-1.59-2.491-2.377
				c1.669-1.171,11.048-2.776,14.678-2.504c-0.136,4.357-0.613,8.667-1.524,13.198c-1.151-0.854-2.056-1.525-3.15-2.336
				c-1.42,1.827-2.566,3.358-3.516,5.396C21.584,87.082,21.063,89.067,21.328,91.287"/>
		</g>
	</g>
</g>
<g id="T1_x5F_2_4_" style="display:none;">
	<g style="display:inline;">
		<defs>
			
				<rect id="SVGID_00000029031068075016119020000017961725117824925063_" x="71.879" y="65.263" transform="matrix(0.3791 -0.9254 0.9254 0.3791 -24.0546 123.606)" width="16.4" height="28.929"/>
		</defs>
		<clipPath id="SVGID_00000175283347713226358190000012070964798648643760_">
			<use xlink:href="#SVGID_00000029031068075016119020000017961725117824925063_"  style="overflow:visible;"/>
		</clipPath>
		<g style="clip-path:url(#SVGID_00000175283347713226358190000012070964798648643760_);">
			<defs>
				
					<rect id="SVGID_00000059285782481488193430000014869786151014279869_" x="71.879" y="65.263" transform="matrix(0.3791 -0.9254 0.9254 0.3791 -24.0545 123.606)" width="16.4" height="28.929"/>
			</defs>
			<clipPath id="SVGID_00000003812993646548931630000013723799215804407949_">
				<use xlink:href="#SVGID_00000059285782481488193430000014869786151014279869_"  style="overflow:visible;"/>
			</clipPath>
			<path style="clip-path:url(#SVGID_00000003812993646548931630000013723799215804407949_);fill:#523742;" d="M90.639,79.945
				c0.371,2.843-1.94,10.012-1.94,10.012c-2.23,0.167-2.18-0.301-5.006-0.97c-0.116-0.027-1.74-0.74-1.851-0.758
				c-0.629-0.101-5.074-2.095-7.442-4.957c-0.347-0.419-0.786-0.761-1.234-1.186c-0.854,0.819-1.662,1.594-2.485,2.384
				c-1.096-1.719-2.285-11.16-1.853-14.774c4.347,0.328,8.632,0.995,13.118,2.106c-0.904,1.112-1.614,1.986-2.473,3.044
				c1.762,1.499,3.241,2.712,5.236,3.752C86.449,79.504,88.409,80.112,90.639,79.945"/>
		</g>
	</g>
</g>
<g id="G_x28__T1_L1__x29__4_00000105387262857805190710000016474940618876673452_">
	<g>
		<defs>
			<rect id="SVGID_00000152224118906918799280000013306576248181495223_" x="2" y="8" width="88.96" height="83.48"/>
		</defs>
		<clipPath id="SVGID_00000163043005372161834180000004467726323466685872_">
			<use xlink:href="#SVGID_00000152224118906918799280000013306576248181495223_"  style="overflow:visible;"/>
		</clipPath>
		<polygon style="clip-path:url(#SVGID_00000163043005372161834180000004467726323466685872_);fill:#AD70D6;" points="35.959,28 
			34.076,28.587 32.057,29.24 29.997,30.615 28.548,32.61 27.37,34.801 27.081,37.29 27.709,40.604 28.82,42.698 30.331,44.514 
			32.483,45.474 34.192,46.032 35.962,46.291 36.4,46.48 37.306,46.48 37.754,46.326 40.25,45.798 42.279,44.966 43.8,43.405 
			45.074,41.652 45.625,39.541 45.96,37.96 45.96,35.962 45.461,34.116 44.307,31.94 42.728,30.111 40.529,29.063 37.701,28 		"/>
		<g style="clip-path:url(#SVGID_00000163043005372161834180000004467726323466685872_);">
			<defs>
				
					<rect id="SVGID_00000036246709712611244360000004693245023934250170_" x="10.026" y="5.595" transform="matrix(0.2915 -0.9566 0.9566 0.2915 -6.2749 31.6484)" width="16.4" height="28.929"/>
			</defs>
			<clipPath id="SVGID_00000095338366150143507740000014758503823237030804_">
				<use xlink:href="#SVGID_00000036246709712611244360000004693245023934250170_"  style="overflow:visible;"/>
			</clipPath>
			<path style="clip-path:url(#SVGID_00000095338366150143507740000014758503823237030804_);fill:#F26C2B;" d="M7.692,20.824
				c-0.634-2.796,1.001-10.148,1.001-10.148c2.205-0.374,2.199,0.096,5.075,0.5c0.118,0.017,1.801,0.575,1.913,0.583
				c0.635,0.042,5.246,1.614,7.87,4.244c0.385,0.385,0.854,0.685,1.34,1.067c0.774-0.895,1.507-1.741,2.253-2.604
				c1.251,1.609,3.312,10.899,3.217,14.538c-4.358,0.076-8.687-0.19-13.256-0.878c0.796-1.192,1.422-2.128,2.179-3.26
				c-1.894-1.329-3.479-2.399-5.561-3.25C11.904,20.874,9.897,20.45,7.692,20.824"/>
		</g>
		<polygon style="clip-path:url(#SVGID_00000163043005372161834180000004467726323466685872_);fill:#5699DE;" points="79.958,28 
			78.076,28.587 76.056,29.24 73.996,30.615 72.548,32.61 71.37,34.801 71.081,37.29 71.709,40.604 72.82,42.698 74.331,44.514 
			76.483,45.474 78.192,46.032 79.962,46.291 80.399,46.48 81.306,46.48 81.754,46.326 84.25,45.798 86.279,44.966 87.8,43.405 
			89.074,41.652 89.624,39.541 89.96,37.96 89.96,35.962 89.461,34.116 88.306,31.94 86.728,30.111 84.529,29.063 81.7,28 		"/>
		<g style="clip-path:url(#SVGID_00000163043005372161834180000004467726323466685872_);">
			<defs>
				
					<rect id="SVGID_00000109001078289452285810000001804282706922865056_" x="54.026" y="5.595" transform="matrix(0.2915 -0.9566 0.9566 0.2915 24.9008 73.738)" width="16.4" height="28.929"/>
			</defs>
			<clipPath id="SVGID_00000016764182463687362880000006278758242620445105_">
				<use xlink:href="#SVGID_00000109001078289452285810000001804282706922865056_"  style="overflow:visible;"/>
			</clipPath>
			<path style="clip-path:url(#SVGID_00000016764182463687362880000006278758242620445105_);fill:#55C95A;" d="M51.692,20.824
				c-0.634-2.796,1.001-10.148,1.001-10.148c2.205-0.374,2.199,0.096,5.075,0.5c0.118,0.017,1.801,0.575,1.913,0.583
				c0.635,0.042,5.246,1.614,7.87,4.244c0.385,0.385,0.854,0.685,1.34,1.067c0.774-0.895,1.507-1.741,2.253-2.604
				c1.251,1.609,3.312,10.899,3.217,14.538c-4.358,0.076-8.687-0.19-13.256-0.878c0.796-1.192,1.422-2.128,2.179-3.26
				c-1.894-1.329-3.479-2.399-5.561-3.25C55.904,20.874,53.897,20.45,51.692,20.824"/>
		</g>
		<polygon style="clip-path:url(#SVGID_00000163043005372161834180000004467726323466685872_);fill:#E1D153;" points="36.959,73 
			35.077,73.587 33.057,74.24 30.997,75.615 29.548,77.61 28.37,79.801 28.081,82.29 28.709,85.604 29.821,87.698 31.331,89.514 
			33.484,90.474 35.192,91.032 36.962,91.291 37.4,91.48 38.306,91.48 38.754,91.326 41.251,90.798 43.279,89.966 44.8,88.405 
			46.075,86.652 46.625,84.541 46.96,82.96 46.96,80.962 46.462,79.116 45.307,76.94 43.728,75.111 41.53,74.063 38.701,73 		"/>
		<g style="clip-path:url(#SVGID_00000163043005372161834180000004467726323466685872_);">
			<defs>
				
					<rect id="SVGID_00000149343599928136993790000001582051336389229496_" x="11.026" y="50.595" transform="matrix(0.2915 -0.9566 0.9566 0.2915 -48.6126 64.4892)" width="16.4" height="28.929"/>
			</defs>
			<clipPath id="SVGID_00000052103986971198554870000004413999766755193245_">
				<use xlink:href="#SVGID_00000149343599928136993790000001582051336389229496_"  style="overflow:visible;"/>
			</clipPath>
			<path style="clip-path:url(#SVGID_00000052103986971198554870000004413999766755193245_);fill:#E33A3A;" d="M8.692,65.824
				c-0.634-2.796,1.001-10.148,1.001-10.148c2.205-0.374,2.199,0.096,5.075,0.5c0.118,0.017,1.801,0.575,1.913,0.583
				c0.635,0.042,5.246,1.614,7.87,4.244c0.385,0.385,0.854,0.685,1.34,1.067c0.774-0.895,1.507-1.741,2.253-2.604
				c1.251,1.609,3.312,10.899,3.217,14.538c-4.358,0.076-8.687-0.19-13.256-0.878c0.796-1.192,1.422-2.128,2.179-3.26
				c-1.894-1.329-3.479-2.399-5.561-3.25C12.904,65.874,10.897,65.45,8.692,65.824"/>
		</g>
		<polygon style="clip-path:url(#SVGID_00000163043005372161834180000004467726323466685872_);fill:#9F9EB1;" points="80.959,73 
			79.076,73.587 77.057,74.24 74.997,75.615 73.548,77.61 72.37,79.801 72.081,82.29 72.709,85.604 73.82,87.698 75.331,89.514 
			77.483,90.474 79.192,91.032 80.962,91.291 81.4,91.48 82.306,91.48 82.754,91.326 85.25,90.798 87.279,89.966 88.8,88.405 
			90.074,86.652 90.625,84.541 90.96,82.96 90.96,80.962 90.461,79.116 89.307,76.94 87.728,75.111 85.529,74.063 82.701,73 		"/>
		<g style="clip-path:url(#SVGID_00000163043005372161834180000004467726323466685872_);">
			<defs>
				
					<rect id="SVGID_00000068674367816613453490000015261724954629186194_" x="55.026" y="50.595" transform="matrix(0.2915 -0.9566 0.9566 0.2915 -17.4369 106.5788)" width="16.4" height="28.929"/>
			</defs>
			<clipPath id="SVGID_00000142880371227560246040000010166974553953283202_">
				<use xlink:href="#SVGID_00000068674367816613453490000015261724954629186194_"  style="overflow:visible;"/>
			</clipPath>
			<path style="clip-path:url(#SVGID_00000142880371227560246040000010166974553953283202_);fill:#523742;" d="M52.692,65.824
				c-0.634-2.796,1.001-10.148,1.001-10.148c2.205-0.374,2.199,0.096,5.075,0.5c0.118,0.017,1.801,0.575,1.913,0.583
				c0.635,0.042,5.246,1.614,7.87,4.244c0.385,0.385,0.854,0.685,1.34,1.067c0.774-0.895,1.507-1.741,2.253-2.604
				c1.251,1.609,3.312,10.899,3.217,14.538c-4.358,0.076-8.687-0.19-13.256-0.878c0.796-1.192,1.422-2.128,2.179-3.26
				c-1.894-1.329-3.479-2.399-5.561-3.25C56.904,65.874,54.897,65.45,52.692,65.824"/>
		</g>
	</g>
</g>
</svg>
