<?xml version="1.0" encoding="iso-8859-1"?>
<!-- Generator: Adobe Illustrator 26.0.1, SVG Export Plug-In . SVG Version: 6.00 Build 0)  -->
<svg version="1.1" xmlns="http://www.w3.org/2000/svg" xmlns:xlink="http://www.w3.org/1999/xlink" x="0px" y="0px"
	 viewBox="0 0 100 100" style="enable-background:new 0 0 100 100;" xml:space="preserve">
<g id="Layer_1" style="display:none;">
	
		<image style="display:inline;overflow:visible;" width="80" height="80" xlink:href="../old_images/xrule16.jpg"  transform="matrix(0.2 0 0 0.2 1.5223 83.0468)">
	</image>
</g>
<g id="Layer_2">
	<g id="Layer_3">
		<g id="G_x28__T1_T1_T1_T1_L1__x29__00000065065765771783516930000016972591478473102499_">
			<g>
				<defs>
					
						<rect id="SVGID_1_" x="0.345" y="2.131" transform="matrix(0.3198 -0.9475 0.9475 0.3198 -12.1293 70.3524)" width="85.181" height="82.987"/>
				</defs>
				<clipPath id="SVGID_00000176728621846273886520000016308669310114721432_">
					<use xlink:href="#SVGID_1_"  style="overflow:visible;"/>
				</clipPath>
				<g style="clip-path:url(#SVGID_00000176728621846273886520000016308669310114721432_);">
					<defs>
						
							<rect id="SVGID_00000040554983615618210180000004731681928231631238_" x="34.021" y="0.855" transform="matrix(0.7649 -0.6441 0.6441 0.7649 -0.0401 31.6989)" width="18.779" height="30.098"/>
					</defs>
					<clipPath id="SVGID_00000029045097002672266140000007314831301797094563_">
						<use xlink:href="#SVGID_00000040554983615618210180000004731681928231631238_"  style="overflow:visible;"/>
					</clipPath>
					<path style="clip-path:url(#SVGID_00000029045097002672266140000007314831301797094563_);fill:#5699DE;" d="M52.951,22.747
						c0.887,0.992,3.005,0.137,3.183,2.118c-3.533,2.621-7.02,5.218-10.735,7.979c-2.253-3.671-3.643-7.665-5.33-11.5
						c0.119-0.387,0.225-0.713,0.337-1.107c1.407,0.228,2.84,0.471,4.311,0.711c1.562-2.492,0.494-4.769-0.643-6.663
						c-1.85-3.083-4.859-2.248-7.355-1.546c-0.798,0.542-1.342,0.921-2.073,1.419c-1.326-2.583-2.529-4.929-3.744-7.319
						c0.178-0.176,0.295-0.379,0.455-0.422c1.963-0.634,3.904-1.589,5.907-1.772c5.022-0.45,9.507,0.951,13,4.835
						c2.228,2.49,3.625,5.3,3.397,8.708C53.562,19.683,53.208,21.157,52.951,22.747"/>
				</g>
				<g style="clip-path:url(#SVGID_00000176728621846273886520000016308669310114721432_);">
					<defs>
						
							<rect id="SVGID_00000075847251832859845210000008655753381108747435_" x="55.908" y="32.515" transform="matrix(0.7123 -0.7019 0.7019 0.7123 -8.9969 61.8605)" width="30.098" height="18.779"/>
					</defs>
					<clipPath id="SVGID_00000137103792216634167530000009872323138236967311_">
						<use xlink:href="#SVGID_00000075847251832859845210000008655753381108747435_"  style="overflow:visible;"/>
					</clipPath>
					<path style="clip-path:url(#SVGID_00000137103792216634167530000009872323138236967311_);fill:#AD70D6;" d="M64.881,51.95
						c-0.919,0.962,0.098,3.006-1.864,3.338c-2.889-3.317-5.749-6.591-8.792-10.078c3.483-2.534,7.356-4.23,11.049-6.211
						c0.395,0.088,0.726,0.168,1.129,0.248c-0.117,1.421-0.247,2.87-0.371,4.354c2.606,1.362,4.793,0.12,6.591-1.161
						c2.929-2.086,1.862-5.021,0.968-7.453c-0.602-0.754-1.023-1.266-1.577-1.956c2.472-1.523,4.718-2.907,7.004-4.304
						c0.19,0.163,0.402,0.264,0.457,0.42c0.785,1.908,1.889,3.769,2.227,5.752c0.841,4.97-0.205,9.551-3.804,13.336
						c-2.309,2.416-5,4.029-8.416,4.068C67.983,52.319,66.485,52.082,64.881,51.95"/>
				</g>
				<g style="clip-path:url(#SVGID_00000176728621846273886520000016308669310114721432_);">
					<defs>
						
							<rect id="SVGID_00000008846695923884944840000001782985169208802693_" x="-0.067" y="35.783" transform="matrix(0.713 -0.7012 0.7012 0.713 -27.3746 23.4708)" width="30.098" height="18.779"/>
					</defs>
					<clipPath id="SVGID_00000139971976265638595480000006720518254030849698_">
						<use xlink:href="#SVGID_00000008846695923884944840000001782985169208802693_"  style="overflow:visible;"/>
					</clipPath>
					<path style="clip-path:url(#SVGID_00000139971976265638595480000006720518254030849698_);fill:#E1D153;" d="M21.067,35.132
						c0.92-0.961-0.095-3.006,1.866-3.336c2.886,3.319,5.744,6.596,8.784,10.086c-3.486,2.531-7.361,4.224-11.054,6.201
						c-0.396-0.088-0.727-0.168-1.13-0.249c0.118-1.421,0.25-2.869,0.376-4.352c-2.605-1.366-4.794-0.125-6.593,1.154
						c-2.93,2.083-1.867,5.02-0.974,7.452c0.601,0.755,1.021,1.267,1.574,1.958c-2.473,1.521-4.719,2.902-7.009,4.297
						c-0.189-0.164-0.4-0.265-0.455-0.421c-0.784-1.909-1.885-3.771-2.222-5.754c-0.835-4.97,0.214-9.551,3.817-13.333
						c2.31-2.414,5.004-4.024,8.42-4.059C17.966,34.76,19.463,34.999,21.067,35.132"/>
				</g>
				<g style="clip-path:url(#SVGID_00000176728621846273886520000016308669310114721432_);">
					<defs>
						
							<rect id="SVGID_00000136375433112131950850000014311185259230506128_" x="32.405" y="55.63" transform="matrix(0.7989 -0.6014 0.6014 0.7989 -34.1046 39.3472)" width="18.779" height="30.098"/>
					</defs>
					<clipPath id="SVGID_00000010281773334806514120000016427315282995475631_">
						<use xlink:href="#SVGID_00000136375433112131950850000014311185259230506128_"  style="overflow:visible;"/>
					</clipPath>
					<path style="clip-path:url(#SVGID_00000010281773334806514120000016427315282995475631_);fill:#523742;" d="M32.641,63.327
						c-0.832-1.038-2.993-0.301-3.062-2.288c3.669-2.425,7.294-4.827,11.153-7.382c2.051,3.789,3.22,7.852,4.695,11.774
						c-0.139,0.381-0.263,0.698-0.396,1.086c-1.392-0.303-2.811-0.625-4.266-0.944c-1.696,2.403-0.753,4.735,0.279,6.687
						c1.679,3.179,4.73,2.51,7.259,1.945c0.827-0.498,1.391-0.846,2.148-1.304c1.182,2.651,2.256,5.06,3.339,7.512
						c-0.188,0.166-0.315,0.362-0.477,0.396c-1.995,0.526-3.986,1.373-5.996,1.446c-5.038,0.175-9.441-1.467-12.715-5.536
						c-2.09-2.608-3.332-5.49-2.918-8.881C31.865,66.352,32.298,64.9,32.641,63.327"/>
				</g>
				<polygon style="clip-path:url(#SVGID_00000176728621846273886520000016308669310114721432_);fill:#9F9EB1;" points="
					43.694,33.893 41.237,34.069 38.801,34.58 36.712,35.96 36.711,35.962 34.58,38.575 33.695,40.775 33.277,43.1 33.93,45.365 
					34.603,47.032 35.546,48.552 35.683,49.008 36.267,49.702 36.673,49.945 38.685,51.515 40.628,52.53 42.801,52.688 
					44.963,52.536 46.932,51.595 48.361,50.832 49.887,49.548 50.978,47.977 51.897,45.692 52.28,43.306 51.666,40.949 
					50.658,38.101 49.538,36.771 47.874,35.707 46.072,34.583 				"/>
			</g>
		</g>
		<g id="L3_00000121278984189170429070000002977991398247847585_">
			<g>
				<defs>
					<rect id="SVGID_00000127022736219897279090000007195441263620331162_" x="58" y="60" width="37.577" height="35.147"/>
				</defs>
				<clipPath id="SVGID_00000039846544031874795780000008754851743655716767_">
					<use xlink:href="#SVGID_00000127022736219897279090000007195441263620331162_"  style="overflow:visible;"/>
				</clipPath>
				<g style="clip-path:url(#SVGID_00000039846544031874795780000008754851743655716767_);">
					<defs>
						<rect id="SVGID_00000063600989259593977400000018392198457911747249_" x="58" y="60" width="37.577" height="35.147"/>
					</defs>
					<clipPath id="SVGID_00000079471714085065643450000017375651799084622731_">
						<use xlink:href="#SVGID_00000063600989259593977400000018392198457911747249_"  style="overflow:visible;"/>
					</clipPath>
					<g style="clip-path:url(#SVGID_00000079471714085065643450000017375651799084622731_);">
						<defs>
							
								<rect id="SVGID_00000083785506019424057360000013371318286634002608_" x="58.003" y="60.002" width="37.574" height="35.148"/>
						</defs>
						<clipPath id="SVGID_00000128445038839567093070000011239679374210445217_">
							<use xlink:href="#SVGID_00000083785506019424057360000013371318286634002608_"  style="overflow:visible;"/>
						</clipPath>
						<g style="clip-path:url(#SVGID_00000128445038839567093070000011239679374210445217_);">
							<defs>
								
									<rect id="SVGID_00000062902355425865138250000006314830115568734903_" x="58.003" y="60.002" width="37.574" height="35.148"/>
							</defs>
							<clipPath id="SVGID_00000037656625911474490710000012765892954867617413_">
								<use xlink:href="#SVGID_00000062902355425865138250000006314830115568734903_"  style="overflow:visible;"/>
							</clipPath>
							<path style="clip-path:url(#SVGID_00000037656625911474490710000012765892954867617413_);fill:#F26C2B;" d="M95.577,76.585
								v3.879c-0.09,0.287-0.171,0.575-0.26,0.862c-0.557,1.742-0.988,3.537-1.706,5.207c-0.377,0.88-1.122,1.706-1.894,2.298
								c-1.562,1.203-3.25,2.227-4.974,3.376c0.485,0.826,1.015,1.733,1.562,2.658c-2.397,0.817-12.875-0.26-14.033-1.445
								c0.898-2.343,1.67-4.74,2.631-7.156c0.584-1.437,1.23-2.891,2.002-4.327c0.853,1.05,1.553,1.912,2.271,2.801
								c1.634-1.167,3.223-2.307,4.875-3.493c0.198-1.805,2.307-3.106,1.257-5.441c0.718,0.063,1.212,0.117,1.706,0.153
								c1.984,0.153,3.968,0.296,5.953,0.449C95.173,76.423,95.38,76.522,95.577,76.585"/>
							<path style="clip-path:url(#SVGID_00000037656625911474490710000012765892954867617413_);fill:#55C95A;" d="M88.853,60.002
								c1.499,1.05,5.701,8.493,6.572,11.645c-2.765,0.898-5.575,1.625-8.511,2.182c-1.024,0.198-2.056,0.377-3.106,0.53
								c0.377-1.23,0.664-2.2,1.024-3.367c-1.975-0.646-3.914-1.643-5.926-1.832c-1.751-0.162-3.834-0.26-5.243,1.49
								c-0.269-0.476-0.539-0.943-0.799-1.401c-0.988-1.724-1.93-3.376-2.9-5.073c1.966-1.472,3.995-2.936,6.563-3.34
								c0.108-0.018,0.233,0.009,0.323-0.027c3.439-1.625,6.383-0.126,9.328,1.454c0.431,0.224,0.907,0.359,1.428,0.566
								C88.035,61.851,88.44,60.936,88.853,60.002"/>
							<path style="clip-path:url(#SVGID_00000037656625911474490710000012765892954867617413_);fill:#E33A3A;" d="M61.271,82.232
								c-0.215-1.41-0.09-2.882-0.117-4.336c-0.009-0.413,0-0.835,0-1.266c-1.149-0.063-2.155-0.117-3.151-0.162
								c0.18-2.11,6.536-10.648,8.431-11.295c1.428,1.724,2.927,3.421,4.336,5.27c1.095,1.428,2.128,2.954,3.044,4.66
								c-1.356,0.189-2.352,0.323-3.501,0.485c0.153,1.912-0.054,3.95,0.575,5.674c0.611,1.67,1.634,3.403,3.816,4.292
								c-1.607,2.263-3.097,4.363-4.651,6.554c-2.352-1.329-4.66-2.559-6.159-4.857c-0.287-0.44-0.7-0.799-1.077-1.167
								C61.729,85.024,61.487,83.596,61.271,82.232"/>
						</g>
					</g>
				</g>
			</g>
		</g>
	</g>
</g>
</svg>
