<svg id="Layer_1" data-name="Layer 1" xmlns="http://www.w3.org/2000/svg" xmlns:xlink="http://www.w3.org/1999/xlink" viewBox="0 0 81.66 88.54"><defs><style>.cls-1{fill:none;}.cls-2{clip-path:url(#clip-path);}.cls-3{clip-path:url(#clip-path-3);}.cls-4{fill:#523742;}.cls-5{clip-path:url(#clip-path-5);}.cls-6{fill:#e33a3a;}.cls-7{clip-path:url(#clip-path-7);}.cls-8{clip-path:url(#clip-path-9);}.cls-9{fill:#9f9eb1;}.cls-10{clip-path:url(#clip-path-11);}.cls-11{clip-path:url(#clip-path-13);}.cls-12{fill:#5699de;}.cls-13{clip-path:url(#clip-path-15);}.cls-14{fill:#f26c2b;}.cls-15{clip-path:url(#clip-path-17);}.cls-16{clip-path:url(#clip-path-19);}.cls-17{fill:#e1d153;}.cls-18{clip-path:url(#clip-path-21);}.cls-19{clip-path:url(#clip-path-22);}.cls-20{fill:#55c95a;}.cls-21{clip-path:url(#clip-path-23);}.cls-22{clip-path:url(#clip-path-25);}.cls-23{fill:#ad70d6;}</style><clipPath id="clip-path" transform="translate(-7.48 -7.11)"><rect class="cls-1" x="33.35" y="35.8" width="18.48" height="18.96" transform="translate(-16.93 63.23) rotate(-63.54)"/></clipPath><clipPath id="clip-path-3" transform="translate(-7.48 -7.11)"><rect class="cls-1" x="33.32" y="35.87" width="18.71" height="19.05" transform="translate(-16.98 63.37) rotate(-63.54)"/></clipPath><clipPath id="clip-path-5" transform="translate(-7.48 -7.11)"><rect class="cls-1" x="4.08" y="15.91" width="28.93" height="16.4" transform="translate(-11.47 29.07) rotate(-61.82)"/></clipPath><clipPath id="clip-path-7" transform="translate(-7.48 -7.11)"><rect class="cls-1" x="70" y="77" width="18.96" height="18.48"/></clipPath><clipPath id="clip-path-9" transform="translate(-7.48 -7.11)"><rect class="cls-1" x="70.08" y="76.95" width="19.05" height="18.71"/></clipPath><clipPath id="clip-path-11" transform="translate(-7.48 -7.11)"><rect class="cls-1" x="32.67" y="2.85" width="19.27" height="30.59" transform="translate(-0.66 34.67) rotate(-44.25)"/></clipPath><clipPath id="clip-path-13" transform="translate(-7.48 -7.11)"><rect class="cls-1" x="32.92" y="3.1" width="18.78" height="30.1" transform="translate(-0.66 34.67) rotate(-44.25)"/></clipPath><clipPath id="clip-path-15" transform="translate(-7.48 -7.11)"><rect class="cls-1" x="67.61" y="21.87" width="16.4" height="28.93" transform="translate(-8.18 39.93) rotate(-28.06)"/></clipPath><clipPath id="clip-path-17" transform="translate(-7.48 -7.11)"><rect class="cls-1" x="52.38" y="49.29" width="30.59" height="19.27" transform="translate(-9.61 13.33) rotate(-10.51)"/></clipPath><clipPath id="clip-path-19" transform="translate(-7.48 -7.11)"><rect class="cls-1" x="52.63" y="49.54" width="30.1" height="18.78" transform="translate(-9.61 13.33) rotate(-10.51)"/></clipPath><clipPath id="clip-path-21" transform="translate(-7.48 -7.11)"><rect class="cls-1" x="28.82" y="66.26" width="16.4" height="28.93" transform="matrix(0.04, -1, 1, 0.04, -45.29, 114.08)"/></clipPath><clipPath id="clip-path-22" transform="translate(-7.48 -7.11)"><rect class="cls-1" x="28.82" y="66.26" width="16.4" height="28.93" transform="translate(-45.29 114.08) rotate(-87.42)"/></clipPath><clipPath id="clip-path-23" transform="translate(-7.48 -7.11)"><rect class="cls-1" x="4.37" y="52.6" width="30.59" height="19.27" transform="translate(-45.07 70.6) rotate(-79.82)"/></clipPath><clipPath id="clip-path-25" transform="translate(-7.48 -7.11)"><rect class="cls-1" x="4.62" y="52.85" width="30.1" height="18.78" transform="translate(-45.07 70.59) rotate(-79.82)"/></clipPath></defs><g id="L1"><g class="cls-2"><g class="cls-2"><g class="cls-3"><g class="cls-3"><polygon class="cls-4" points="44.03 41.91 43.49 42.76 42.27 44.31 40.84 45.95 38.91 46.95 36.86 47.67 34.67 47.51 32.2 46.87 31.2 46.74 30.61 46.04 29.14 45.02 27.86 43.76 26.36 41.95 25.82 39.65 25.76 37.27 26.67 34.03 28.04 31.93 30.07 30.49 32.26 29.35 34.71 29.04 36.81 29.35 38.91 29.69 40.22 30.34 42.38 32.66 43.88 34.57 44.48 36.91 44.54 39.38 44.03 41.91"/></g></g></g></g></g><g id="T_1_2"><g class="cls-5"><g class="cls-5"><path class="cls-6" d="M17.24,34.59c-2.87.08-9.76-3-9.76-3C7.54,29.4,8,29.49,9,26.75c0-.11.91-1.65.94-1.76a19.05,19.05,0,0,1,5.7-6.89c.45-.31.84-.71,1.31-1.11l-2.12-2.72c1.82-.91,11.34-1.12,14.89-.32a78.85,78.85,0,0,1-3.45,12.83L23.46,24a27.33,27.33,0,0,0-4.27,4.82,10.88,10.88,0,0,0-2,5.76" transform="translate(-7.48 -7.11)"/></g></g></g><g id="L1-2" data-name="L1"><g class="cls-7"><g class="cls-7"><g class="cls-8"><g class="cls-8"><polygon class="cls-9" points="81.66 78.5 81.55 79.5 81.14 81.43 80.59 83.54 79.32 85.3 77.8 86.86 75.77 87.69 73.27 88.22 72.32 88.54 71.48 88.18 69.71 87.92 68 87.36 65.85 86.41 64.34 84.59 63.23 82.49 62.6 79.18 62.89 76.69 64.07 74.5 65.52 72.51 67.58 71.13 69.6 70.48 71.62 69.85 73.08 69.84 76.05 70.95 78.25 72 79.83 73.83 80.98 76.01 81.66 78.5"/></g></g></g></g></g><g id="T_1_1"><g class="cls-10"><g class="cls-10"><g class="cls-11"><g class="cls-11"><path class="cls-12" d="M52.32,24.28c1,.93,3-.08,3.33,1.89L45.52,34.9c-2.51-3.5-4.19-7.38-6.15-11.08.09-.4.18-.73.26-1.13,1.42.12,2.87.26,4.35.4,1.38-2.6.15-4.8-1.12-6.6-2.07-2.94-5-1.89-7.45-1l-2,1.56c-1.5-2.48-2.88-4.73-4.26-7,.17-.18.27-.4.42-.45,1.92-.77,3.78-1.87,5.77-2.19a14.79,14.79,0,0,1,13.31,3.88c2.4,2.32,4,5,4,8.44,0,1.49-.24,3-.38,4.59" transform="translate(-7.48 -7.11)"/></g></g></g></g></g><g id="T_1_2-2" data-name="T_1_2"><g class="cls-13"><g class="cls-13"><path class="cls-14" d="M67.82,29.43C69.35,27,75.7,23,75.7,23c1.82,1.29,1.49,1.62,3.23,3.94.08.09.87,1.68.95,1.76a19.21,19.21,0,0,1,2.56,8.57,15.78,15.78,0,0,0,.19,1.7l3.44-.25c-.25,2-5.37,10-8,12.56a79.62,79.62,0,0,1-8.75-10l3.85-.76a27.33,27.33,0,0,0-1.64-6.23,10.84,10.84,0,0,0-3.7-4.82" transform="translate(-7.48 -7.11)"/></g></g></g><g id="T_1_1-2" data-name="T_1_1"><g class="cls-15"><g class="cls-15"><g class="cls-16"><g class="cls-16"><path class="cls-17" d="M57,63.84c-1.3.28-1.6,2.55-3.41,1.72-.54-4.36-1.08-8.68-1.64-13.27,4.3-.15,8.46.62,12.63,1,.28.3.51.55.8.84q-1.35,1.66-2.75,3.4c1.4,2.59,3.9,2.79,6.11,2.73,3.59-.09,4.35-3.11,5-5.63-.08-1-.14-1.62-.21-2.5l8.21.35c.06.25.18.45.14.61-.42,2-.54,4.18-1.37,6a14.84,14.84,0,0,1-10.63,8.92c-3.26.7-6.4.53-9.25-1.35-1.25-.82-2.36-1.86-3.61-2.87" transform="translate(-7.48 -7.11)"/></g></g></g></g></g><g id="T_1_2-3" data-name="T_1_2"><g class="cls-18"><g class="cls-19"><path class="cls-20" d="M47,77.37c1.3,2.55,1.55,10.08,1.55,10.08-2.05.91-2.16.45-5,.77-.12,0-1.89-.11-2-.09A19,19,0,0,1,32.87,86a13.29,13.29,0,0,0-1.56-.7c-.53,1-1,2.06-1.54,3.08-1.61-1.25-5.91-9.74-6.72-13.29a79.43,79.43,0,0,1,13.06-2.44c-.48,1.35-.85,2.42-1.31,3.7A27.43,27.43,0,0,0,41,78.1a10.86,10.86,0,0,0,6-.73" transform="translate(-7.48 -7.11)"/></g></g></g><g id="T_1_1-3" data-name="T_1_1"><g class="cls-21"><g class="cls-21"><g class="cls-22"><g class="cls-22"><path class="cls-23" d="M18.83,50.53c.2-1.32-1.81-2.4-.4-3.8l13,3.16C30,54,27.86,57.59,26,61.33l-1.07.45L22.71,58c-2.91.39-4,2.67-4.71,4.75-1.19,3.4,1.37,5.18,3.51,6.65l2.41.69c-1.14,2.67-2.17,5.09-3.23,7.55-.25,0-.48,0-.62-.08-1.74-1.1-3.72-2-5.14-3.41a14.8,14.8,0,0,1-4.58-13.08c.49-3.31,1.75-6.18,4.52-8.18,1.22-.88,2.58-1.55,4-2.37" transform="translate(-7.48 -7.11)"/></g></g></g></g></g></svg>