<?xml version="1.0" encoding="iso-8859-1"?>
<!-- Generator: Adobe Illustrator 26.0.1, SVG Export Plug-In . SVG Version: 6.00 Build 0)  -->
<svg version="1.1" xmlns="http://www.w3.org/2000/svg" xmlns:xlink="http://www.w3.org/1999/xlink" x="0px" y="0px"
	 viewBox="0 0 100 100" style="enable-background:new 0 0 100 100;" xml:space="preserve">
<g id="Layer_1">
	<g id="G_x28__T1_T1_T1_L3__x29__L2_00000150064838362799444050000008214520844587447170_">
		<g>
			<defs>
				<rect id="SVGID_1_" x="-1" y="4" width="102.767" height="94.335"/>
			</defs>
			<clipPath id="SVGID_00000132084852697804151840000009256490829512976536_">
				<use xlink:href="#SVGID_1_"  style="overflow:visible;"/>
			</clipPath>
			<g style="clip-path:url(#SVGID_00000132084852697804151840000009256490829512976536_);">
				<defs>
					<polygon id="SVGID_00000147916318799467732220000002362636385153058735_" points="19.412,18.375 21.774,67.739 67.17,65.011 
						64.809,15.647 					"/>
				</defs>
				<clipPath id="SVGID_00000164506084167336967960000016307762788967924636_">
					<use xlink:href="#SVGID_00000147916318799467732220000002362636385153058735_"  style="overflow:visible;"/>
				</clipPath>
				<path style="clip-path:url(#SVGID_00000164506084167336967960000016307762788967924636_);fill:#5699DE;" d="M45.75,66.299
					L40.74,66.6c-0.377-0.096-0.753-0.18-1.13-0.276c-2.284-0.595-4.631-1.022-6.833-1.837c-1.16-0.426-2.274-1.341-3.088-2.31
					c-1.652-1.959-3.081-4.097-4.673-6.273c-1.037,0.702-2.175,1.468-3.335,2.259c-1.206-3.086-0.473-16.935,0.985-18.549
					c3.084,0.998,6.229,1.827,9.408,2.901c1.893,0.655,3.812,1.391,5.716,2.295c-1.303,1.202-2.373,2.189-3.476,3.201
					c1.611,2.057,3.184,4.056,4.818,6.134c2.344,0.12,4.158,2.791,7.107,1.229c-0.036,0.948-0.074,1.602-0.09,2.253
					c-0.072,2.619-0.133,5.236-0.205,7.856C45.934,65.755,45.819,66.034,45.75,66.299"/>
				<path style="clip-path:url(#SVGID_00000164506084167336967960000016307762788967924636_);fill:#AD70D6;" d="M66.748,56.176
					c-1.263,2.052-10.613,8.149-14.629,9.539c-1.333-3.563-2.45-7.199-3.353-11.014c-0.319-1.329-0.616-2.671-0.879-4.04
					c1.612,0.4,2.882,0.703,4.413,1.084c0.711-2.645,1.876-5.271,1.993-7.927c0.099-2.313,0.096-5.058-2.254-6.773
					c0.597-0.391,1.184-0.781,1.759-1.159c2.164-1.431,4.238-2.798,6.37-4.204c2.025,2.469,4.043,5.021,4.726,8.364
					c0.03,0.14,0.003,0.307,0.055,0.422c2.316,4.392,0.564,8.377-1.292,12.369c-0.263,0.584-0.407,1.219-0.641,1.919
					C64.308,55.246,65.516,55.706,66.748,56.176"/>
				<path style="clip-path:url(#SVGID_00000164506084167336967960000016307762788967924636_);fill:#E1D153;" d="M36.3,21.665
					c1.807-0.392,3.717-0.341,5.594-0.49c0.533-0.044,1.078-0.065,1.635-0.098c0.009-1.515,0.016-2.84,0.011-4.153
					c2.737,0.073,14.165,7.761,15.119,10.199c-2.137,2.01-4.235,4.111-6.535,6.107c-1.775,1.55-3.682,3.025-5.827,4.36
					c-0.33-1.766-0.566-3.065-0.847-4.562c-2.461,0.348-5.106,0.236-7.294,1.195c-2.118,0.932-4.292,2.411-5.303,5.346
					c-3.023-1.935-5.831-3.731-8.758-5.601c1.568-3.194,3.012-6.321,5.887-8.469c0.55-0.412,0.988-0.982,1.44-1.506
					C32.722,22.483,34.55,22.054,36.3,21.665"/>
			</g>
			<g style="clip-path:url(#SVGID_00000132084852697804151840000009256490829512976536_);">
				<defs>
					<polygon id="SVGID_00000175291279227441757930000015527073206222160829_" points="64.154,39.849 77.044,53.974 101.767,30.573 
						88.876,16.448 					"/>
				</defs>
				<clipPath id="SVGID_00000067931930951572275760000006985878847754201782_">
					<use xlink:href="#SVGID_00000175291279227441757930000015527073206222160829_"  style="overflow:visible;"/>
				</clipPath>
				<path style="clip-path:url(#SVGID_00000067931930951572275760000006985878847754201782_);fill:#55C95A;" d="M88.394,23.965
					c3.171,0.995,9.569,6.996,9.569,6.996c-0.923,2.479-1.39,2.195-3.487,4.905c-0.086,0.112-1.636,1.508-1.709,1.618
					c-0.416,0.627-4.703,4.427-8.88,5.57c-0.611,0.167-1.187,0.472-1.855,0.745c0.44,1.32,0.856,2.568,1.281,3.841
					c-2.347,0.335-12.858-3.017-16.445-5.254c2.488-4.512,5.3-8.792,8.679-13.069c0.724,1.517,1.292,2.71,1.981,4.151
					c2.444-1.159,4.448-2.154,6.524-3.788C85.866,28.253,87.47,26.444,88.394,23.965"/>
			</g>
			<g style="clip-path:url(#SVGID_00000132084852697804151840000009256490829512976536_);">
				<defs>
					<polygon id="SVGID_00000162310302675764788000000016067357667706190218_" points="0.385,4.001 -1,23.342 32.5,25.474 
						33.886,6.133 					"/>
				</defs>
				<clipPath id="SVGID_00000031190796782285721320000008211376474651101850_">
					<use xlink:href="#SVGID_00000162310302675764788000000016067357667706190218_"  style="overflow:visible;"/>
				</clipPath>
				<path style="clip-path:url(#SVGID_00000031190796782285721320000008211376474651101850_);fill:#F26C2B;" d="M4.71,18.494
					C3.275,15.452,3.239,6.553,3.239,6.553c2.4-1.032,2.513-0.489,5.874-0.81c0.139-0.014,2.188,0.168,2.316,0.147
					c0.73-0.125,6.355,0.422,10.002,2.729c0.534,0.337,1.142,0.554,1.791,0.86c0.647-1.24,1.259-2.414,1.882-3.61
					c1.83,1.509,6.548,11.626,7.376,15.834c-4.916,1.28-9.886,2.156-15.237,2.613c0.596-1.588,1.065-2.835,1.631-4.343
					c-2.485-1.011-4.555-1.808-7.131-2.216C9.493,17.4,7.11,17.462,4.71,18.494"/>
			</g>
			<g style="clip-path:url(#SVGID_00000132084852697804151840000009256490829512976536_);">
				<defs>
					<polygon id="SVGID_00000092439903632298048530000013579045607194539176_" points="12.557,97.479 31.57,98.335 33.402,64.185 
						14.387,63.33 					"/>
				</defs>
				<clipPath id="SVGID_00000090976911884196526530000011861189296894844329_">
					<use xlink:href="#SVGID_00000092439903632298048530000013579045607194539176_"  style="overflow:visible;"/>
				</clipPath>
				<path style="clip-path:url(#SVGID_00000090976911884196526530000011861189296894844329_);fill:#E33A3A;" d="M26.763,92.664
					c-2.977,1.547-11.72,1.839-11.72,1.839c-1.033-2.413-0.501-2.544-0.843-5.954c-0.015-0.141,0.148-2.232,0.126-2.362
					c-0.128-0.739,0.365-6.478,2.603-10.255c0.327-0.553,0.535-1.178,0.831-1.847c-1.225-0.623-2.382-1.212-3.561-1.812
					c1.467-1.905,11.37-6.997,15.498-7.959c1.296,4.966,2.196,9.997,2.687,15.43c-1.564-0.561-2.793-1.003-4.28-1.536
					c-0.973,2.559-1.74,4.687-2.121,7.32C25.651,87.828,25.73,90.251,26.763,92.664"/>
			</g>
			<g style="clip-path:url(#SVGID_00000132084852697804151840000009256490829512976536_);">
				<defs>
					<rect id="SVGID_00000141439518036783943980000004684967555206714540_" x="64.995" y="62.978" width="29.231" height="18.238"/>
				</defs>
				<clipPath id="SVGID_00000014627212340278058390000012073650716418289050_">
					<use xlink:href="#SVGID_00000141439518036783943980000004684967555206714540_"  style="overflow:visible;"/>
				</clipPath>
			</g>
			<g style="clip-path:url(#SVGID_00000132084852697804151840000009256490829512976536_);">
				<defs>
					<rect id="SVGID_00000105418143505817813840000002913213919523062426_" x="63.769" y="79.156" width="28.517" height="17.69"/>
				</defs>
				<clipPath id="SVGID_00000000907696547822580530000003233280860192693949_">
					<use xlink:href="#SVGID_00000105418143505817813840000002913213919523062426_"  style="overflow:visible;"/>
				</clipPath>
			</g>
		</g>
	</g>
	<g id="T2_x5F_4_00000170997983186895076660000011601230382150997942_">
		<g>
			<defs>
				<rect id="SVGID_00000106105134861462977330000006247714353160788644_" x="43" y="62" width="51.96" height="34.743"/>
			</defs>
			<clipPath id="SVGID_00000096767340539816855850000006943123865646646715_">
				<use xlink:href="#SVGID_00000106105134861462977330000006247714353160788644_"  style="overflow:visible;"/>
			</clipPath>
			<polygon style="clip-path:url(#SVGID_00000096767340539816855850000006943123865646646715_);fill:#9F9EB1;" points="84.964,74 
				83.076,74.588 81.056,75.242 78.996,76.616 77.548,78.61 76.37,80.802 76.082,83.283 76.082,83.295 76.708,86.604 77.821,88.699 
				79.331,90.515 81.483,91.474 83.192,92.033 84.961,92.292 85.4,92.481 86.305,92.481 86.752,92.327 89.25,91.798 91.279,90.966 
				92.799,89.407 94.075,87.653 94.624,85.542 94.96,83.96 94.96,81.961 94.461,80.116 93.306,77.941 91.728,76.111 89.529,75.063 
				86.698,74 			"/>
			<g style="clip-path:url(#SVGID_00000096767340539816855850000006943123865646646715_);">
				<defs>
					
						<rect id="SVGID_00000067931804999356379670000008879087827162859144_" x="45.783" y="69.982" transform="matrix(0.7465 -0.6653 0.6653 0.7465 -37.3902 60.5907)" width="30.098" height="18.779"/>
				</defs>
				<clipPath id="SVGID_00000165227808533542842360000010099358214336917386_">
					<use xlink:href="#SVGID_00000067931804999356379670000008879087827162859144_"  style="overflow:visible;"/>
				</clipPath>
				<path style="clip-path:url(#SVGID_00000165227808533542842360000010099358214336917386_);fill:#523742;" d="M67.404,69.642
					c0.966-0.915,0.053-3.007,2.027-3.24c2.72,3.457,5.413,6.87,8.278,10.506c-3.606,2.355-7.56,3.856-11.346,5.65
					c-0.391-0.107-0.718-0.204-1.115-0.306c0.187-1.412,0.39-2.852,0.589-4.329c-2.536-1.491-4.782-0.359-6.642,0.829
					c-3.03,1.937-2.111,4.922-1.34,7.396c0.565,0.783,0.959,1.315,1.477,2.033c-2.545,1.398-4.857,2.666-7.211,3.947
					c-0.181-0.173-0.387-0.284-0.435-0.442c-0.688-1.945-1.697-3.859-1.936-5.856c-0.591-5.006,0.683-9.53,4.466-13.129
					c2.427-2.297,5.197-3.774,8.611-3.641C64.325,69.118,65.808,69.43,67.404,69.642"/>
			</g>
		</g>
	</g>
</g>
<g id="Layer_2">
	<g id="Layer_3">
	</g>
</g>
</svg>
