<?xml version="1.0" encoding="iso-8859-1"?>
<!-- Generator: Adobe Illustrator 26.0.1, SVG Export Plug-In . SVG Version: 6.00 Build 0)  -->
<svg version="1.1" xmlns="http://www.w3.org/2000/svg" xmlns:xlink="http://www.w3.org/1999/xlink" x="0px" y="0px"
	 viewBox="0 0 100 100" style="enable-background:new 0 0 100 100;" xml:space="preserve">
<g id="Layer_1">
	<g id="G_x28__tree_x28__T2_T1_T1__x29__T1_T1_T1_L1_x29__00000057134536617292071850000006544358415913311155_">
		<g>
			<defs>
				<rect id="SVGID_1_" x="1" width="96.899" height="100.394"/>
			</defs>
			<clipPath id="SVGID_00000117663252181893309950000005186420227198457769_">
				<use xlink:href="#SVGID_1_"  style="overflow:visible;"/>
			</clipPath>
			<g style="clip-path:url(#SVGID_00000117663252181893309950000005186420227198457769_);">
				<defs>
					<rect id="SVGID_00000166654743034870819280000016439297150291846590_" x="1" y="21.487" width="27.243" height="15.321"/>
				</defs>
				<clipPath id="SVGID_00000114045960028267464650000013580624281611240354_">
					<use xlink:href="#SVGID_00000166654743034870819280000016439297150291846590_"  style="overflow:visible;"/>
				</clipPath>
				<path style="clip-path:url(#SVGID_00000114045960028267464650000013580624281611240354_);fill:#E1D153;" d="M5.341,32.699
					c-1.338-2.326-1.883-9.342-1.883-9.342c1.883-0.934,2.006-0.512,4.708-0.934c0.111-0.018,1.781,0.023,1.884,0
					c0.583-0.136,5.169,0.014,8.255,1.65c0.452,0.239,0.956,0.379,1.499,0.588c0.452-1.011,0.879-1.966,1.315-2.941
					c1.568,1.098,5.975,8.839,6.888,12.116c-3.905,1.256-7.877,2.196-12.183,2.825c0.391-1.282,0.698-2.289,1.069-3.507
					c-2.071-0.672-3.792-1.197-5.902-1.389C9.149,31.597,7.224,31.765,5.341,32.699"/>
			</g>
			<g style="clip-path:url(#SVGID_00000117663252181893309950000005186420227198457769_);">
				<defs>
					<polygon id="SVGID_00000000906740943567166610000016928982879509470390_" points="22.485,6.258 33.611,30.927 47.708,24.67 
						36.582,0.001 					"/>
				</defs>
				<clipPath id="SVGID_00000143617810243182783240000002073588687287550099_">
					<use xlink:href="#SVGID_00000000906740943567166610000016928982879509470390_"  style="overflow:visible;"/>
				</clipPath>
				<path style="clip-path:url(#SVGID_00000143617810243182783240000002073588687287550099_);fill:#5699DE;" d="M28.038,8.511
					c1.594-2.162,7.827-5.521,7.827-5.521c1.629,1.324,1.29,1.608,2.782,3.882c0.062,0.094,0.706,1.623,0.77,1.706
					c0.363,0.473,2.098,4.686,1.853,8.149c-0.036,0.507,0.042,1.021,0.071,1.598c1.114-0.004,2.168-0.007,3.243-0.011
					c-0.37,1.869-5.693,9.021-8.335,11.186c-2.751-3.023-5.238-6.236-7.575-9.878c1.339-0.17,2.391-0.303,3.663-0.465
					c-0.228-2.149-0.447-3.922-1.132-5.911C30.608,11.509,29.667,9.835,28.038,8.511"/>
			</g>
			<g style="clip-path:url(#SVGID_00000117663252181893309950000005186420227198457769_);">
				<defs>
					<polygon id="SVGID_00000170991402205815070090000015771254691223889562_" points="44.027,29.901 55.851,39.758 73.377,19.067 
						61.554,9.21 					"/>
				</defs>
				<clipPath id="SVGID_00000086660774651294925060000005539063822447600824_">
					<use xlink:href="#SVGID_00000170991402205815070090000015771254691223889562_"  style="overflow:visible;"/>
				</clipPath>
				<path style="clip-path:url(#SVGID_00000086660774651294925060000005539063822447600824_);fill:#AD70D6;" d="M61.932,15.151
					c2.656,0.48,8.421,4.579,8.421,4.579c-0.49,2.032-0.896,1.854-2.308,4.178c-0.058,0.095-1.163,1.337-1.211,1.43
					c-0.271,0.531-3.337,3.917-6.584,5.208c-0.476,0.19-0.909,0.483-1.419,0.76c0.489,0.994,0.952,1.934,1.424,2.891
					c-1.857,0.485-10.665-1.148-13.782-2.563c1.543-3.773,3.373-7.395,5.657-11.07c0.738,1.121,1.318,2.002,2.019,3.068
					c1.851-1.141,3.363-2.11,4.869-3.589C60.333,18.753,61.441,17.182,61.932,15.151"/>
			</g>
			<g style="clip-path:url(#SVGID_00000117663252181893309950000005186420227198457769_);">
				<defs>
					
						<rect id="SVGID_00000031911687747715880980000004500168349625311153_" x="70.576" y="59.329" transform="matrix(0.9999 -0.0105 0.0105 0.9999 -0.6993 0.8885)" width="27.243" height="15.321"/>
				</defs>
				<clipPath id="SVGID_00000165212703717749662910000009218045775557449117_">
					<use xlink:href="#SVGID_00000031911687747715880980000004500168349625311153_"  style="overflow:visible;"/>
				</clipPath>
				<path style="clip-path:url(#SVGID_00000165212703717749662910000009218045775557449117_);fill:#55C95A;" d="M93.44,63.342
					c1.363,2.312,1.982,9.322,1.982,9.322c-1.874,0.954-2.002,0.533-4.699,0.983c-0.111,0.019-1.781-0.005-1.883,0.02
					c-0.582,0.141-5.169,0.039-8.272-1.565c-0.455-0.234-0.961-0.369-1.505-0.573c-0.442,1.016-0.859,1.976-1.284,2.955
					c-1.58-1.082-6.068-8.776-7.016-12.044c3.892-1.296,7.854-2.278,12.153-2.951c-0.378,1.286-0.674,2.296-1.032,3.518
					c2.078,0.65,3.804,1.157,5.916,1.328C89.644,64.484,91.567,64.296,93.44,63.342"/>
			</g>
			<g style="clip-path:url(#SVGID_00000117663252181893309950000005186420227198457769_);">
				<defs>
					<polygon id="SVGID_00000039829707582696168150000008060357774017437845_" points="48.16,75.841 59.545,100.394 73.576,93.991 
						62.191,69.438 					"/>
				</defs>
				<clipPath id="SVGID_00000035492138048651165890000011277571149341514637_">
					<use xlink:href="#SVGID_00000039829707582696168150000008060357774017437845_"  style="overflow:visible;"/>
				</clipPath>
				<path style="clip-path:url(#SVGID_00000035492138048651165890000011277571149341514637_);fill:#F26C2B;" d="M67.999,91.796
					c-1.571,2.178-7.768,5.602-7.768,5.602c-1.643-1.307-1.308-1.595-2.824-3.854c-0.062-0.092-0.722-1.614-0.787-1.697
					c-0.368-0.47-2.147-4.664-1.939-8.129c0.03-0.508-0.052-1.021-0.087-1.597c-1.115,0.015-2.169,0.029-3.243,0.044
					c0.35-1.873,5.597-9.079,8.217-11.272c2.782,2.995,5.303,6.182,7.678,9.799c-1.337,0.184-2.387,0.328-3.658,0.503
					c0.25,2.147,0.489,3.918,1.194,5.899C65.398,88.824,66.356,90.489,67.999,91.796"/>
			</g>
			<g style="clip-path:url(#SVGID_00000117663252181893309950000005186420227198457769_);">
				<defs>
					<polygon id="SVGID_00000119836083472936837180000006029187571525184179_" points="21.53,78.73 33.458,88.464 50.765,67.593 
						38.837,57.859 					"/>
				</defs>
				<clipPath id="SVGID_00000008145325215785405680000014971825542384720820_">
					<use xlink:href="#SVGID_00000119836083472936837180000006029187571525184179_"  style="overflow:visible;"/>
				</clipPath>
				<path style="clip-path:url(#SVGID_00000008145325215785405680000014971825542384720820_);fill:#E33A3A;" d="M33.017,82.527
					c-2.661-0.453-8.469-4.492-8.469-4.492c0.469-2.036,0.876-1.863,2.264-4.201c0.057-0.096,1.149-1.349,1.196-1.443
					c0.266-0.533,3.295-3.951,6.529-5.276c0.473-0.194,0.903-0.492,1.411-0.775c-0.5-0.988-0.972-1.923-1.455-2.875
					c1.852-0.505,10.677,1.037,13.809,2.419c-1.504,3.79-3.295,7.431-5.541,11.129c-0.749-1.114-1.338-1.989-2.051-3.047
					c-1.838,1.16-3.341,2.145-4.831,3.639C34.578,78.91,33.486,80.492,33.017,82.527"/>
			</g>
			<polygon style="clip-path:url(#SVGID_00000117663252181893309950000005186420227198457769_);fill:#9F9EB1;" points="58.336,50 
				56.453,50.588 54.434,51.24 52.373,52.615 50.925,54.611 49.747,56.801 49.458,59.291 50.086,62.605 51.197,64.699 
				52.708,66.514 54.86,67.474 56.569,68.032 58.339,68.292 58.775,68.48 59.686,68.48 60.131,68.327 62.627,67.798 64.656,66.967 
				66.177,65.405 67.451,63.652 68.002,61.542 68.337,59.96 68.337,57.962 67.838,56.116 66.684,53.94 65.105,52.111 62.906,51.064 
				60.078,50 			"/>
			<g style="clip-path:url(#SVGID_00000117663252181893309950000005186420227198457769_);">
				<defs>
					
						<rect id="SVGID_00000127747282236970429190000014449936525723915421_" x="32.404" y="27.596" transform="matrix(0.2914 -0.9566 0.9566 0.2914 -11.4631 68.6458)" width="16.4" height="28.93"/>
				</defs>
				<clipPath id="SVGID_00000045608321442993725780000000269116888368965264_">
					<use xlink:href="#SVGID_00000127747282236970429190000014449936525723915421_"  style="overflow:visible;"/>
				</clipPath>
				<path style="clip-path:url(#SVGID_00000045608321442993725780000000269116888368965264_);fill:#523742;" d="M30.069,42.825
					c-0.634-2.796,1.001-10.148,1.001-10.148c2.205-0.374,2.199,0.096,5.075,0.5c0.118,0.017,1.801,0.575,1.913,0.583
					c0.635,0.042,5.246,1.614,7.87,4.244c0.385,0.385,0.854,0.685,1.34,1.067c0.774-0.895,1.507-1.741,2.253-2.604
					c1.251,1.609,3.312,10.899,3.217,14.538c-4.358,0.076-8.687-0.19-13.256-0.878c0.796-1.192,1.422-2.128,2.179-3.26
					c-1.894-1.329-3.479-2.399-5.561-3.25C34.281,42.875,32.274,42.451,30.069,42.825"/>
			</g>
		</g>
	</g>
</g>
<g id="Layer_2">
	<g id="Layer_3">
	</g>
</g>
</svg>
