<?xml version="1.0" encoding="iso-8859-1"?>
<!-- Generator: Adobe Illustrator 26.0.1, SVG Export Plug-In . SVG Version: 6.00 Build 0)  -->
<svg version="1.1" xmlns="http://www.w3.org/2000/svg" xmlns:xlink="http://www.w3.org/1999/xlink" x="0px" y="0px"
	 viewBox="0 0 100 100" style="enable-background:new 0 0 100 100;" xml:space="preserve">
<g id="Layer_1">
	<g id="L3_L3_L1_L1_00000124863293752253974990000003176831378928007552_">
		<g>
			<defs>
				<rect id="SVGID_1_" x="8" y="10" width="84.854" height="80.147"/>
			</defs>
			<clipPath id="SVGID_00000072253350398312026860000013360207404024949644_">
				<use xlink:href="#SVGID_1_"  style="overflow:visible;"/>
			</clipPath>
			<polygon style="clip-path:url(#SVGID_00000072253350398312026860000013360207404024949644_);fill:#9F9EB1;" points="
				76.96,15.001 75.076,15.588 73.056,16.241 70.996,17.616 69.548,19.611 68.37,21.802 68.081,24.291 68.708,27.605 69.821,29.699 
				71.331,31.516 73.483,32.475 75.192,33.033 76.961,33.292 77.399,33.481 78.306,33.481 78.753,33.327 81.25,32.799 
				83.278,31.967 84.799,30.406 86.075,28.654 86.624,26.542 86.959,24.961 86.959,22.964 86.461,21.117 85.306,18.941 
				83.727,17.112 81.529,16.064 78.699,15.001 			"/>
			<polygon style="clip-path:url(#SVGID_00000072253350398312026860000013360207404024949644_);fill:#523742;" points="
				24.958,67.001 23.076,67.588 21.056,68.241 18.996,69.616 17.548,71.611 16.37,73.802 16.082,76.283 16.082,76.296 
				16.708,79.605 17.821,81.698 19.331,83.515 21.483,84.474 23.192,85.033 24.961,85.292 25.399,85.481 26.306,85.481 
				26.753,85.327 29.25,84.799 31.278,83.966 32.799,82.406 34.075,80.653 34.624,78.542 34.96,76.956 34.96,74.966 34.461,73.116 
				33.306,70.941 31.727,69.112 29.529,68.063 26.7,67.001 			"/>
			<g style="clip-path:url(#SVGID_00000072253350398312026860000013360207404024949644_);">
				<defs>
					<rect id="SVGID_00000134247705702157552170000005891101799404228794_" x="8" y="10" width="84.854" height="80.147"/>
				</defs>
				<clipPath id="SVGID_00000076596988049794054380000012305640545982501010_">
					<use xlink:href="#SVGID_00000134247705702157552170000005891101799404228794_"  style="overflow:visible;"/>
				</clipPath>
				<path style="clip-path:url(#SVGID_00000076596988049794054380000012305640545982501010_);fill:#55C95A;" d="M49.854,28.473v4.32
					c-0.1,0.32-0.19,0.64-0.29,0.96c-0.62,1.94-1.1,3.94-1.9,5.8c-0.42,0.98-1.25,1.9-2.11,2.56c-1.74,1.34-3.62,2.48-5.54,3.76
					c0.54,0.92,1.13,1.93,1.74,2.96c-2.67,0.91-14.34-0.29-15.63-1.61c1-2.61,1.86-5.28,2.93-7.97c0.65-1.6,1.37-3.22,2.23-4.82
					c0.95,1.17,1.73,2.13,2.53,3.12c1.82-1.3,3.59-2.57,5.43-3.89c0.22-2.01,2.57-3.46,1.4-6.06c0.8,0.07,1.35,0.13,1.9,0.17
					c2.21,0.17,4.42,0.33,6.63,0.5C49.404,28.293,49.634,28.403,49.854,28.473"/>
				<path style="clip-path:url(#SVGID_00000076596988049794054380000012305640545982501010_);fill:#F26C2B;" d="M42.364,10.002
					c1.67,1.17,6.35,9.46,7.32,12.97c-3.08,1-6.21,1.81-9.48,2.43c-1.14,0.22-2.29,0.42-3.46,0.59c0.42-1.37,0.74-2.45,1.14-3.75
					c-2.2-0.72-4.36-1.83-6.6-2.04c-1.95-0.18-4.27-0.29-5.84,1.66c-0.3-0.53-0.6-1.05-0.89-1.56c-1.1-1.92-2.15-3.76-3.23-5.65
					c2.19-1.64,4.45-3.27,7.31-3.72c0.12-0.02,0.26,0.01,0.36-0.03c3.83-1.81,7.11-0.14,10.39,1.62c0.48,0.25,1.01,0.4,1.59,0.63
					C41.454,12.062,41.904,11.042,42.364,10.002"/>
			</g>
			<g style="clip-path:url(#SVGID_00000072253350398312026860000013360207404024949644_);">
				<defs>
					<rect id="SVGID_00000014632976683252486380000009003844182836494524_" x="51.004" y="51.002" width="41.85" height="39.145"/>
				</defs>
				<clipPath id="SVGID_00000024697689332271711800000017704037327336690082_">
					<use xlink:href="#SVGID_00000014632976683252486380000009003844182836494524_"  style="overflow:visible;"/>
				</clipPath>
				<path style="clip-path:url(#SVGID_00000024697689332271711800000017704037327336690082_);fill:#5699DE;" d="M92.854,69.473v4.32
					c-0.1,0.32-0.19,0.64-0.29,0.96c-0.62,1.94-1.1,3.94-1.9,5.8c-0.42,0.98-1.25,1.9-2.11,2.56c-1.74,1.34-3.62,2.48-5.54,3.76
					c0.54,0.92,1.13,1.93,1.74,2.96c-2.67,0.91-14.34-0.29-15.63-1.61c1-2.61,1.86-5.28,2.93-7.97c0.65-1.6,1.37-3.22,2.23-4.82
					c0.95,1.17,1.73,2.13,2.53,3.12c1.82-1.3,3.59-2.57,5.43-3.89c0.22-2.01,2.57-3.46,1.4-6.06c0.8,0.07,1.35,0.13,1.9,0.17
					c2.21,0.17,4.42,0.33,6.63,0.5C92.404,69.293,92.634,69.403,92.854,69.473"/>
				<path style="clip-path:url(#SVGID_00000024697689332271711800000017704037327336690082_);fill:#AD70D6;" d="M85.364,51.002
					c1.67,1.17,6.35,9.46,7.32,12.97c-3.08,1-6.21,1.81-9.48,2.43c-1.14,0.22-2.29,0.42-3.46,0.59c0.42-1.37,0.74-2.45,1.14-3.75
					c-2.2-0.72-4.36-1.83-6.6-2.04c-1.95-0.18-4.27-0.29-5.84,1.66c-0.3-0.53-0.6-1.05-0.89-1.56c-1.1-1.92-2.15-3.76-3.23-5.65
					c2.19-1.64,4.45-3.27,7.31-3.72c0.12-0.02,0.26,0.01,0.36-0.03c3.83-1.81,7.11-0.14,10.39,1.62c0.48,0.25,1.01,0.4,1.59,0.63
					C84.454,53.062,84.904,52.042,85.364,51.002"/>
				<path style="clip-path:url(#SVGID_00000024697689332271711800000017704037327336690082_);fill:#E1D153;" d="M54.644,75.762
					c-0.24-1.57-0.1-3.21-0.13-4.83c-0.01-0.46,0-0.93,0-1.41c-1.28-0.07-2.4-0.13-3.51-0.18c0.2-2.35,7.28-11.86,9.39-12.58
					c1.59,1.92,3.26,3.81,4.83,5.87c1.22,1.59,2.37,3.29,3.39,5.19c-1.51,0.21-2.62,0.36-3.9,0.54c0.17,2.13-0.06,4.4,0.64,6.32
					c0.68,1.86,1.82,3.79,4.25,4.78c-1.79,2.52-3.45,4.86-5.18,7.3c-2.62-1.48-5.19-2.85-6.86-5.41c-0.32-0.49-0.78-0.89-1.2-1.3
					C55.154,78.872,54.884,77.282,54.644,75.762"/>
			</g>
			<g style="clip-path:url(#SVGID_00000072253350398312026860000013360207404024949644_);">
				<defs>
					<rect id="SVGID_00000142872025817223696050000009169662731548806807_" x="8" y="10" width="84.854" height="80.147"/>
				</defs>
				<clipPath id="SVGID_00000093179203480165466660000007030154805304151202_">
					<use xlink:href="#SVGID_00000142872025817223696050000009169662731548806807_"  style="overflow:visible;"/>
				</clipPath>
				<path style="clip-path:url(#SVGID_00000093179203480165466660000007030154805304151202_);fill:#E33A3A;" d="M21.653,46.072
					l-3.681-2.262c-0.22-0.253-0.445-0.497-0.666-0.75c-1.328-1.543-2.781-3-3.946-4.655c-0.615-0.871-0.965-2.06-1.077-3.138
					c-0.23-2.184-0.217-4.383-0.303-6.689c-1.066-0.021-2.236-0.047-3.432-0.067c0.622-2.751,7.755-12.066,9.555-12.473
					c1.7,2.218,3.524,4.349,5.256,6.669c1.023,1.391,2.026,2.853,2.939,4.423c-1.494,0.197-2.721,0.359-3.983,0.522
					c0.155,2.231,0.31,4.404,0.471,6.663c1.598,1.24,1.603,4.001,4.43,4.366c-0.478,0.645-0.817,1.082-1.139,1.529
					c-1.302,1.794-2.596,3.593-3.898,5.387C22.042,45.783,21.828,45.921,21.653,46.072"/>
			</g>
		</g>
	</g>
</g>
<g id="Layer_2">
	<g id="Layer_3">
	</g>
</g>
</svg>
