<?xml version="1.0" encoding="iso-8859-1"?>
<!-- Generator: Adobe Illustrator 26.0.1, SVG Export Plug-In . SVG Version: 6.00 Build 0)  -->
<svg version="1.1" xmlns="http://www.w3.org/2000/svg" xmlns:xlink="http://www.w3.org/1999/xlink" x="0px" y="0px"
	 viewBox="0 0 100 100" style="enable-background:new 0 0 100 100;" xml:space="preserve">
<g id="Layer_1" style="display:none;">
	
		<image style="display:inline;overflow:visible;" width="80" height="80" xlink:href="../old_images/xrule1.jpg"  transform="matrix(0.2 0 0 0.2 1.5223 81.0468)">
	</image>
</g>
<g id="Layer_2">
	<g id="L2_00000066482088523504498190000006751112338941314975_">
		<g>
			<defs>
				
					<rect id="SVGID_1_" x="29.408" y="44.52" transform="matrix(0.9997 -0.0264 0.0264 0.9997 -1.7798 1.3311)" width="40.224" height="47.098"/>
			</defs>
			<clipPath id="SVGID_00000090270249381765146110000014389902169025323197_">
				<use xlink:href="#SVGID_1_"  style="overflow:visible;"/>
			</clipPath>
			<g style="clip-path:url(#SVGID_00000090270249381765146110000014389902169025323197_);">
				<defs>
					
						<rect id="SVGID_00000052100459179009326350000001326598709132636055_" x="29.408" y="44.52" transform="matrix(0.9997 -0.0264 0.0264 0.9997 -1.7798 1.3311)" width="40.224" height="47.097"/>
				</defs>
				<clipPath id="SVGID_00000157281454622300361880000003650326993995233671_">
					<use xlink:href="#SVGID_00000052100459179009326350000001326598709132636055_"  style="overflow:visible;"/>
				</clipPath>
				<g style="clip-path:url(#SVGID_00000157281454622300361880000003650326993995233671_);">
					<defs>
						
							<rect id="SVGID_00000003091258295802762180000004162165442642424254_" x="30.742" y="44.498" transform="matrix(0.9997 -0.0264 0.0264 0.9997 -1.4922 1.3412)" width="38.607" height="25.365"/>
					</defs>
					<clipPath id="SVGID_00000045593273454910433090000014994707702593583495_">
						<use xlink:href="#SVGID_00000003091258295802762180000004162165442642424254_"  style="overflow:visible;"/>
					</clipPath>
					<g style="clip-path:url(#SVGID_00000045593273454910433090000014994707702593583495_);">
						<defs>
							
								<rect id="SVGID_00000176027616180365485240000006721010966966337927_" x="30.742" y="44.498" transform="matrix(0.9997 -0.0264 0.0264 0.9997 -1.4922 1.3412)" width="38.607" height="25.365"/>
						</defs>
						<clipPath id="SVGID_00000072278078253821101510000004318121914595530685_">
							<use xlink:href="#SVGID_00000176027616180365485240000006721010966966337927_"  style="overflow:visible;"/>
						</clipPath>
						<path style="clip-path:url(#SVGID_00000072278078253821101510000004318121914595530685_);fill:#9F9EB1;" d="M64.534,52.892
							c1.704-0.099,2.537-3.053,4.668-1.569c-0.19,5.937-0.368,11.806-0.563,18.053c-5.485-0.72-10.604-2.625-15.801-4.082
							c-0.294-0.452-0.535-0.837-0.842-1.288c1.352-1.292,2.741-2.599,4.156-3.947c-1.254-3.75-4.393-4.546-7.201-4.944
							c-4.572-0.649-6.138,3.229-7.426,6.452c-0.094,1.3-0.147,2.193-0.231,3.384c-3.652-0.782-6.968-1.491-10.337-2.227
							c-0.035-0.337-0.145-0.631-0.061-0.836c0.932-2.605,1.524-5.459,2.94-7.725c3.558-5.674,8.546-9.225,15.233-9.631
							c4.279-0.248,8.216,0.648,11.455,3.765C61.946,49.663,63.144,51.28,64.534,52.892"/>
					</g>
				</g>
				<g style="clip-path:url(#SVGID_00000157281454622300361880000003650326993995233671_);">
					<defs>
						
							<rect id="SVGID_00000078727872066645501070000000622897319731907518_" x="29.709" y="67.047" transform="matrix(0.9997 -0.0264 0.0264 0.9997 -2.078 1.3091)" width="37.66" height="24.601"/>
					</defs>
					<clipPath id="SVGID_00000104683315353915529530000011101516551722766484_">
						<use xlink:href="#SVGID_00000078727872066645501070000000622897319731907518_"  style="overflow:visible;"/>
					</clipPath>
					<g style="clip-path:url(#SVGID_00000104683315353915529530000011101516551722766484_);">
						<defs>
							
								<rect id="SVGID_00000168076424068947532820000000038064378872758193_" x="29.709" y="67.047" transform="matrix(0.9997 -0.0264 0.0264 0.9997 -2.078 1.3091)" width="37.66" height="24.601"/>
						</defs>
						<clipPath id="SVGID_00000135689708873530272320000016752145819246562980_">
							<use xlink:href="#SVGID_00000168076424068947532820000000038064378872758193_"  style="overflow:visible;"/>
						</clipPath>
						<path style="clip-path:url(#SVGID_00000135689708873530272320000016752145819246562980_);fill:#523742;" d="M67.244,74.372
							c-0.118,0.408-0.197,0.816-0.341,1.185c-1.826,4.71-3.766,9.463-8.03,12.238c-2.397,1.563-5.277,2.288-7.943,3.399
							c-2.729,1.126-5.316-0.13-7.92-0.615c-2.153-0.389-3.723-2.01-5.227-3.591c-1.082-1.133-2.139-2.295-3.46-3.733
							c-1.297,0.44-2.722,0.923-4.476,1.523c0.16-5.612,0.332-11.224,0.519-17.255c5.171,1.471,10.188,2.906,15.722,4.49
							c-1.477,1.417-2.653,2.543-3.791,3.654l0.057,2.147c2.003,3.447,5.072,4.028,8.613,4.015c4.388-0.008,5.201-3.732,6.992-6.846
							l-0.068-2.593C61.05,73.063,64.095,73.699,67.244,74.372"/>
					</g>
				</g>
			</g>
		</g>
	</g>
	<g id="T1_x5F_2_00000176749720983640931370000009937100373642291109_">
		<g>
			<defs>
				
					<rect id="SVGID_00000149348392171572702700000017285657995817625497_" x="-0.675" y="46.672" transform="matrix(0.9807 -0.1957 0.1957 0.9807 -10.4719 3.7597)" width="28.929" height="16.4"/>
			</defs>
			<clipPath id="SVGID_00000055706252795711286650000006844867160350867103_">
				<use xlink:href="#SVGID_00000149348392171572702700000017285657995817625497_"  style="overflow:visible;"/>
			</clipPath>
			<g style="clip-path:url(#SVGID_00000055706252795711286650000006844867160350867103_);">
				<defs>
					
						<rect id="SVGID_00000094604025105628724560000000396843274117846411_" x="-0.675" y="46.672" transform="matrix(0.9807 -0.1957 0.1957 0.9807 -10.4719 3.7597)" width="28.929" height="16.4"/>
				</defs>
				<clipPath id="SVGID_00000083782668001942186160000014799400705929904547_">
					<use xlink:href="#SVGID_00000094604025105628724560000000396843274117846411_"  style="overflow:visible;"/>
				</clipPath>
				<path style="clip-path:url(#SVGID_00000083782668001942186160000014799400705929904547_);fill:#E33A3A;" d="M4.87,60.529
					c-1.881-2.164-3.918-9.415-3.918-9.415c1.766-1.372,1.983-0.954,4.708-1.959c0.112-0.042,1.859-0.346,1.961-0.391
					c0.58-0.264,5.386-1.059,8.942,0.016c0.521,0.157,1.076,0.199,1.685,0.306c0.259-1.155,0.504-2.247,0.753-3.36
					c1.864,0.826,8.074,8.036,9.712,11.287c-3.804,2.13-7.743,3.943-12.095,5.497c0.138-1.427,0.247-2.548,0.378-3.904
					c-2.297-0.275-4.2-0.468-6.437-0.232C8.605,58.58,6.635,59.157,4.87,60.529"/>
			</g>
		</g>
	</g>
	<g id="T1_x5F_2_00000049184452640466299710000006440248703842508449_">
		<g>
			<defs>
				
					<rect id="SVGID_00000155827547652274593470000013771388383564171684_" x="16.414" y="23.457" transform="matrix(0.4587 -0.8886 0.8886 0.4587 -20.373 42.3982)" width="16.4" height="28.929"/>
			</defs>
			<clipPath id="SVGID_00000123410742535886394130000002974150200877178782_">
				<use xlink:href="#SVGID_00000155827547652274593470000013771388383564171684_"  style="overflow:visible;"/>
			</clipPath>
			<g style="clip-path:url(#SVGID_00000123410742535886394130000002974150200877178782_);">
				<defs>
					
						<rect id="SVGID_00000090996917288029337990000005709905001473904283_" x="16.414" y="23.457" transform="matrix(0.4587 -0.8886 0.8886 0.4587 -20.3731 42.3982)" width="16.4" height="28.929"/>
				</defs>
				<clipPath id="SVGID_00000051357603580287807740000010916940441197606306_">
					<use xlink:href="#SVGID_00000090996917288029337990000005709905001473904283_"  style="overflow:visible;"/>
				</clipPath>
				<path style="clip-path:url(#SVGID_00000051357603580287807740000010916940441197606306_);fill:#F26C2B;" d="M14.114,36.779
					c-0.12-2.864,2.81-9.803,2.81-9.803c2.236,0.029,2.145,0.491,4.902,1.405c0.114,0.037,1.669,0.89,1.777,0.917
					c0.617,0.156,4.871,2.531,6.979,5.59c0.309,0.448,0.717,0.827,1.126,1.29c0.923-0.741,1.796-1.442,2.685-2.157
					c0.941,1.808,1.298,11.317,0.551,14.88c-4.301-0.708-8.511-1.748-12.883-3.247c0.998-1.029,1.782-1.837,2.731-2.815
					c-1.624-1.648-2.991-2.986-4.887-4.196C18.249,37.586,16.35,36.808,14.114,36.779"/>
			</g>
		</g>
	</g>
	<g id="T1_x5F_2_00000046299531995157923350000004021823806665654915_">
		<g>
			<defs>
				
					<rect id="SVGID_00000121993898268265379350000004768564566947533967_" x="32.635" y="12.121" transform="matrix(0.8329 -0.5535 0.5535 0.8329 -7.8894 27.0447)" width="16.4" height="28.929"/>
			</defs>
			<clipPath id="SVGID_00000113348986589054079010000005965426595790335159_">
				<use xlink:href="#SVGID_00000121993898268265379350000004768564566947533967_"  style="overflow:visible;"/>
			</clipPath>
			<g style="clip-path:url(#SVGID_00000113348986589054079010000005965426595790335159_);">
				<defs>
					
						<rect id="SVGID_00000145042586007656315180000013592002517744114836_" x="32.635" y="12.121" transform="matrix(0.8329 -0.5535 0.5535 0.8329 -7.8895 27.0446)" width="16.4" height="28.929"/>
				</defs>
				<clipPath id="SVGID_00000125586164473414387390000017294375575251965056_">
					<use xlink:href="#SVGID_00000145042586007656315180000013592002517744114836_"  style="overflow:visible;"/>
				</clipPath>
				<path style="clip-path:url(#SVGID_00000125586164473414387390000017294375575251965056_);fill:#E1D153;" d="M32.215,20.482
					c1.287-2.562,7.222-7.2,7.222-7.2c1.94,1.112,1.636,1.472,3.6,3.611c0.081,0.088,1.026,1.589,1.107,1.666
					c0.464,0.436,3.026,4.58,3.381,8.278c0.052,0.541,0.224,1.071,0.356,1.675c1.167-0.199,2.27-0.387,3.395-0.58
					c-0.057,2.038-4.368,10.521-6.753,13.27c-3.415-2.71-6.588-5.666-9.679-9.101c1.372-0.414,2.451-0.739,3.755-1.132
					c-0.618-2.229-1.162-4.063-2.23-6.043C35.436,23.197,34.154,21.595,32.215,20.482"/>
			</g>
		</g>
	</g>
	<g id="T1_x5F_2_00000013887099885518356220000007049075645415772068_">
		<g>
			<defs>
				
					<rect id="SVGID_00000142871304610703608780000000765338066481059224_" x="53.18" y="13.101" transform="matrix(0.9999 -0.0125 0.0125 0.9999 -0.3393 0.7683)" width="16.4" height="28.929"/>
			</defs>
			<clipPath id="SVGID_00000086649451238441884330000002650613222531765891_">
				<use xlink:href="#SVGID_00000142871304610703608780000000765338066481059224_"  style="overflow:visible;"/>
			</clipPath>
			<g style="clip-path:url(#SVGID_00000086649451238441884330000002650613222531765891_);">
				<defs>
					
						<rect id="SVGID_00000091012255910308443300000000713747416489265052_" x="53.18" y="13.101" transform="matrix(0.9999 -0.0125 0.0125 0.9999 -0.3393 0.7683)" width="16.4" height="28.929"/>
				</defs>
				<clipPath id="SVGID_00000104708162398271245470000007398168826334176659_">
					<use xlink:href="#SVGID_00000091012255910308443300000000713747416489265052_"  style="overflow:visible;"/>
				</clipPath>
				<path style="clip-path:url(#SVGID_00000104708162398271245470000007398168826334176659_);fill:#55C95A;" d="M57.455,17.759
					c2.472-1.452,9.974-2.125,9.974-2.125c1.025,1.987,0.575,2.124,1.062,4.987c0.02,0.118-0.001,1.891,0.025,2
					c0.153,0.618,0.054,5.489-1.656,8.787c-0.25,0.483-0.393,1.021-0.61,1.6c1.088,0.466,2.116,0.908,3.165,1.357
					c-1.154,1.681-9.381,6.463-12.877,7.476c-1.396-4.13-2.455-8.335-3.185-12.898c1.377,0.398,2.459,0.71,3.768,1.088
					c0.691-2.208,1.231-4.043,1.409-6.285C58.686,21.788,58.48,19.747,57.455,17.759"/>
			</g>
		</g>
	</g>
	<g id="T1_x5F_2_00000062166076343072631030000002366898146973667250_">
		<g>
			<defs>
				
					<rect id="SVGID_00000145038785010586812710000012719167691716308147_" x="63.845" y="29.427" transform="matrix(0.4976 -0.8674 0.8674 0.4976 6.7072 86.8335)" width="28.929" height="16.4"/>
			</defs>
			<clipPath id="SVGID_00000091725494374676629670000000501851220591828406_">
				<use xlink:href="#SVGID_00000145038785010586812710000012719167691716308147_"  style="overflow:visible;"/>
			</clipPath>
			<g style="clip-path:url(#SVGID_00000091725494374676629670000000501851220591828406_);">
				<defs>
					
						<rect id="SVGID_00000039839493668511191330000016073048312069217186_" x="63.845" y="29.427" transform="matrix(0.4976 -0.8674 0.8674 0.4976 6.7072 86.8335)" width="28.929" height="16.4"/>
				</defs>
				<clipPath id="SVGID_00000152238073333847194950000000874398715818085780_">
					<use xlink:href="#SVGID_00000039839493668511191330000016073048312069217186_"  style="overflow:visible;"/>
				</clipPath>
				<path style="clip-path:url(#SVGID_00000152238073333847194950000000874398715818085780_);fill:#5699DE;" d="M79.915,27.187
					c2.867,0.006,9.669,3.241,9.669,3.241c-0.128,2.232-0.585,2.121-1.62,4.835c-0.042,0.112-0.963,1.628-0.995,1.735
					c-0.183,0.61-2.744,4.754-5.894,6.725c-0.461,0.289-0.858,0.679-1.339,1.067c0.7,0.955,1.361,1.858,2.036,2.777
					c-1.848,0.861-11.364,0.796-14.889-0.108c0.898-4.266,2.123-8.426,3.814-12.727c0.984,1.043,1.757,1.862,2.692,2.852
					c1.718-1.55,3.115-2.856,4.408-4.696C78.927,31.282,79.788,29.42,79.915,27.187"/>
			</g>
		</g>
	</g>
	<g id="T1_x5F_2_00000114785284663202711860000008673153303769675919_">
		<g>
			<defs>
				
					<rect id="SVGID_00000009586515172347299150000009271305742845389965_" x="70.857" y="46.435" transform="matrix(0.7981 -0.6026 0.6026 0.7981 -15.6926 62.4429)" width="28.929" height="16.4"/>
			</defs>
			<clipPath id="SVGID_00000021085635699613124740000000829120444910105531_">
				<use xlink:href="#SVGID_00000009586515172347299150000009271305742845389965_"  style="overflow:visible;"/>
			</clipPath>
			<g style="clip-path:url(#SVGID_00000021085635699613124740000000829120444910105531_);">
				<defs>
					
						<rect id="SVGID_00000075125040144173344290000012488344234472519074_" x="70.857" y="46.435" transform="matrix(0.7981 -0.6026 0.6026 0.7981 -15.6926 62.4428)" width="28.929" height="16.4"/>
				</defs>
				<clipPath id="SVGID_00000102507181911873863890000014990715355596199081_">
					<use xlink:href="#SVGID_00000075125040144173344290000012488344234472519074_"  style="overflow:visible;"/>
				</clipPath>
				<path style="clip-path:url(#SVGID_00000102507181911873863890000014990715355596199081_);fill:#AD70D6;" d="M90.895,45.663
					c2.634,1.131,7.622,6.776,7.622,6.776c-0.994,2.003-1.371,1.721-3.388,3.811c-0.083,0.086-1.524,1.119-1.596,1.205
					c-0.407,0.489-4.39,3.295-8.06,3.873c-0.537,0.085-1.055,0.288-1.65,0.456c0.269,1.153,0.523,2.243,0.783,3.354
					c-2.038,0.066-10.765-3.727-13.652-5.943c2.5-3.571,5.259-6.917,8.503-10.209c0.496,1.345,0.885,2.402,1.356,3.68
					c2.188-0.751,3.986-1.404,5.898-2.589C88.379,49.042,89.901,47.667,90.895,45.663"/>
			</g>
		</g>
	</g>
</g>
</svg>
