<?xml version="1.0" encoding="iso-8859-1"?>
<!-- Generator: Adobe Illustrator 26.0.1, SVG Export Plug-In . SVG Version: 6.00 Build 0)  -->
<svg version="1.1" id="Layer_1" xmlns="http://www.w3.org/2000/svg" xmlns:xlink="http://www.w3.org/1999/xlink" x="0px" y="0px"
	 viewBox="0 0 100 100" style="enable-background:new 0 0 100 100;" xml:space="preserve">
<g id="G_x28__T1_T1_T1_L2__x29__L1_L1_L1_1_" style="display:none;opacity:0.98;">
	<g style="display:inline;">
		<defs>
			<rect id="SVGID_1_" x="11" y="4" width="73.96" height="91.868"/>
		</defs>
		<clipPath id="SVGID_00000170968157042498807380000000054058213796082337_">
			<use xlink:href="#SVGID_1_"  style="overflow:visible;"/>
		</clipPath>
		<g style="clip-path:url(#SVGID_00000170968157042498807380000000054058213796082337_);">
			<defs>
				<rect id="SVGID_00000053532504952305574030000008837630628081746091_" x="37.265" y="61.001" width="30.095" height="18.776"/>
			</defs>
			<clipPath id="SVGID_00000171705814717639516850000006930794839121553319_">
				<use xlink:href="#SVGID_00000053532504952305574030000008837630628081746091_"  style="overflow:visible;"/>
			</clipPath>
			<path style="clip-path:url(#SVGID_00000171705814717639516850000006930794839121553319_);fill:#523742;" d="M63.692,67.496
				c1.33-0.04,2.04-2.21,3.67-1.07c-0.27,4.389-0.529,8.73-0.81,13.349c-4.259-0.639-8.21-2.149-12.23-3.33
				c-0.22-0.34-0.4-0.63-0.63-0.97c1.08-0.929,2.19-1.87,3.32-2.839c-0.9-2.8-3.33-3.451-5.509-3.8
				c-3.551-0.57-4.851,2.269-5.921,4.63c-0.099,0.96-0.16,1.62-0.25,2.5c-2.829-0.651-5.4-1.241-8.01-1.85
				c-0.02-0.25-0.1-0.471-0.03-0.62c0.78-1.91,1.3-4.011,2.45-5.66c2.89-4.13,6.85-6.66,12.07-6.83c3.34-0.1,6.391,0.639,8.851,3.01
				C61.743,65.056,62.642,66.275,63.692,67.496"/>
		</g>
		<g style="clip-path:url(#SVGID_00000170968157042498807380000000054058213796082337_);">
			<defs>
				<rect id="SVGID_00000096778890922537122520000007187180284725004478_" x="36.002" y="77.657" width="29.361" height="18.212"/>
			</defs>
			<clipPath id="SVGID_00000082347686265065628100000004181655931693893793_">
				<use xlink:href="#SVGID_00000096778890922537122520000007187180284725004478_"  style="overflow:visible;"/>
			</clipPath>
			<path style="clip-path:url(#SVGID_00000082347686265065628100000004181655931693893793_);fill:#9F9EB1;" d="M65.362,83.446
				c-0.1,0.3-0.17,0.6-0.29,0.87c-1.52,3.449-3.13,6.93-6.51,8.9c-1.899,1.11-4.16,1.589-6.26,2.36c-2.15,0.78-4.14-0.2-6.16-0.61
				c-1.67-0.331-2.86-1.56-4-2.76c-0.82-0.861-1.62-1.74-2.62-2.83c-1.02,0.299-2.139,0.63-3.52,1.04
				c0.24-4.151,0.49-8.3,0.76-12.76c4,1.189,7.88,2.35,12.16,3.63c-1.18,1.019-2.12,1.83-3.03,2.63v1.59
				c1.491,2.589,3.87,3.08,6.63,3.14c3.42,0.079,4.13-2.66,5.59-4.93v-1.92C60.562,82.356,62.923,82.885,65.362,83.446"/>
		</g>
		<g style="clip-path:url(#SVGID_00000170968157042498807380000000054058213796082337_);">
			<defs>
				
					<rect id="SVGID_00000051342788889432255450000013937830382557194929_" x="19.265" y="41.736" transform="matrix(0.1923 -0.9813 0.9813 0.1923 -32.968 72.3452)" width="16.4" height="28.929"/>
			</defs>
			<clipPath id="SVGID_00000077290266980639257080000009730785852036830633_">
				<use xlink:href="#SVGID_00000051342788889432255450000013937830382557194929_"  style="overflow:visible;"/>
			</clipPath>
			<path style="clip-path:url(#SVGID_00000077290266980639257080000009730785852036830633_);fill:#E1D153;" d="M17.062,58.035
				c-0.915-2.717-0.039-10.198-0.039-10.198c2.155-0.596,2.197-0.128,5.099-0.019c0.12,0.004,1.851,0.388,1.963,0.384
				c0.636-0.022,5.383,1.071,8.262,3.42c0.422,0.343,0.919,0.594,1.442,0.924c0.679-0.969,1.321-1.886,1.975-2.821
				c1.409,1.474,4.406,10.505,4.684,14.134c-4.328,0.522-8.661,0.698-13.278,0.48c0.672-1.267,1.199-2.262,1.836-3.466
				c-2.019-1.129-3.705-2.032-5.863-2.665C21.258,57.655,19.217,57.438,17.062,58.035"/>
		</g>
		<g style="clip-path:url(#SVGID_00000170968157042498807380000000054058213796082337_);">
			<defs>
				
					<rect id="SVGID_00000179625338911077186740000007398787445022748855_" x="39.663" y="29.548" transform="matrix(0.8661 -0.4998 0.4998 0.8661 -15.5907 29.8134)" width="16.4" height="28.929"/>
			</defs>
			<clipPath id="SVGID_00000025417014687428038810000016072906888593085628_">
				<use xlink:href="#SVGID_00000179625338911077186740000007398787445022748855_"  style="overflow:visible;"/>
			</clipPath>
			<path style="clip-path:url(#SVGID_00000025417014687428038810000016072906888593085628_);fill:#5699DE;" d="M39.645,37.377
				c1.446-2.475,7.662-6.73,7.662-6.73c1.865,1.232,1.539,1.572,3.364,3.831c0.077,0.092,0.924,1.65,1,1.732
				c0.436,0.464,2.731,4.762,2.852,8.475c0.018,0.544,0.156,1.083,0.25,1.694c1.177-0.125,2.29-0.243,3.425-0.364
				c-0.186,2.03-5.024,10.224-7.577,12.818c-3.237-2.92-6.218-6.071-9.086-9.694c1.396-0.327,2.493-0.583,3.819-0.894
				c-0.476-2.264-0.903-4.128-1.844-6.171C42.688,40.29,41.51,38.609,39.645,37.377"/>
		</g>
		<g style="clip-path:url(#SVGID_00000170968157042498807380000000054058213796082337_);">
			<defs>
				
					<rect id="SVGID_00000158026230332324848530000000796710730737343648_" x="54.398" y="40.813" transform="matrix(0.1236 -0.9923 0.9923 0.1236 11.7142 111.2897)" width="28.93" height="16.4"/>
			</defs>
			<clipPath id="SVGID_00000051353445823379094000000006808873786646835351_">
				<use xlink:href="#SVGID_00000158026230332324848530000000796710730737343648_"  style="overflow:visible;"/>
			</clipPath>
			<path style="clip-path:url(#SVGID_00000051353445823379094000000006808873786646835351_);fill:#AD70D6;" d="M66.308,38.764
				c2.646-1.103,10.17-0.75,10.17-0.75c0.746,2.109,0.281,2.183,0.375,5.086c0.004,0.12-0.259,1.873-0.247,1.985
				c0.067,0.633-0.694,5.445-2.836,8.48c-0.314,0.445-0.528,0.958-0.821,1.502c1.013,0.611,1.973,1.187,2.951,1.775
				c-1.372,1.507-10.173,5.127-13.774,5.656c-0.821-4.281-1.299-8.591-1.402-13.212c1.311,0.582,2.34,1.039,3.585,1.591
				c0.985-2.093,1.769-3.838,2.25-6.036C66.979,42.923,67.053,40.872,66.308,38.764"/>
		</g>
		<polygon style="clip-path:url(#SVGID_00000170968157042498807380000000054058213796082337_);fill:#E33A3A;" points="19.958,11 
			18.076,11.587 16.056,12.24 13.996,13.615 12.548,15.61 11.37,17.801 11.082,20.282 11.082,20.295 11.708,23.604 12.821,25.698 
			14.332,27.514 16.483,28.473 18.193,29.032 19.961,29.291 20.399,29.48 21.306,29.48 21.753,29.326 24.25,28.797 26.278,27.966 
			27.799,26.405 29.075,24.652 29.624,22.541 29.96,20.955 29.96,18.965 29.461,17.115 28.306,14.94 26.727,13.111 24.529,12.063 
			21.7,11 		"/>
		<polygon style="clip-path:url(#SVGID_00000170968157042498807380000000054058213796082337_);fill:#F26C2B;" points="46.961,4 
			45.076,4.587 43.056,5.24 40.996,6.615 39.548,8.61 38.37,10.801 38.082,13.282 38.082,13.295 38.708,16.604 39.822,18.698 
			41.332,20.515 43.484,21.474 45.193,22.032 46.961,22.291 47.399,22.48 48.306,22.48 48.753,22.326 51.25,21.798 53.278,20.966 
			54.799,19.405 56.076,17.653 56.624,15.541 56.96,13.955 56.96,11.964 56.461,10.116 55.307,7.941 53.728,6.111 51.53,5.063 
			48.701,4 		"/>
		<polygon style="clip-path:url(#SVGID_00000170968157042498807380000000054058213796082337_);fill:#55C95A;" points="74.961,9 
			73.077,9.588 71.057,10.241 68.996,11.616 67.548,13.611 66.37,15.802 66.082,18.283 66.082,18.295 66.708,21.604 67.821,23.698 
			69.331,25.515 71.484,26.474 73.193,27.033 74.961,27.292 75.399,27.481 76.305,27.481 76.753,27.326 79.25,26.798 81.278,25.966 
			82.798,24.406 84.075,22.653 84.624,20.542 84.96,18.956 84.96,16.964 84.461,15.116 83.307,12.941 81.727,11.112 79.53,10.064 
			76.7,9 		"/>
	</g>
</g>
<g id="G_x28__T1_T1_T1_L2__x29__L1_L1_L1_00000021836705749364555490000001386951745119469490_">
	<g>
		<defs>
			<rect id="SVGID_00000091719311942034314180000001562700148942882975_" x="11" y="4" width="73.96" height="91.868"/>
		</defs>
		<clipPath id="SVGID_00000069367448189719531180000012023275695736637569_">
			<use xlink:href="#SVGID_00000091719311942034314180000001562700148942882975_"  style="overflow:visible;"/>
		</clipPath>
		<g style="clip-path:url(#SVGID_00000069367448189719531180000012023275695736637569_);">
			<defs>
				<rect id="SVGID_00000048480255846760484350000008671399394538784912_" x="37.265" y="61.001" width="30.095" height="18.776"/>
			</defs>
			<clipPath id="SVGID_00000098913399622723554790000017862455994420492728_">
				<use xlink:href="#SVGID_00000048480255846760484350000008671399394538784912_"  style="overflow:visible;"/>
			</clipPath>
			<path style="clip-path:url(#SVGID_00000098913399622723554790000017862455994420492728_);fill:#523742;" d="M63.692,67.496
				c1.33-0.04,2.04-2.21,3.67-1.07c-0.27,4.389-0.529,8.73-0.81,13.349c-4.259-0.639-8.21-2.149-12.23-3.33
				c-0.22-0.34-0.4-0.63-0.63-0.97c1.08-0.929,2.19-1.87,3.32-2.839c-0.9-2.8-3.33-3.451-5.509-3.8
				c-3.551-0.57-4.851,2.269-5.921,4.63c-0.099,0.96-0.16,1.62-0.25,2.5c-2.829-0.651-5.4-1.241-8.01-1.85
				c-0.02-0.25-0.1-0.471-0.03-0.62c0.78-1.91,1.3-4.011,2.45-5.66c2.89-4.13,6.85-6.66,12.07-6.83c3.34-0.1,6.391,0.639,8.851,3.01
				C61.743,65.056,62.642,66.275,63.692,67.496"/>
		</g>
		<g style="clip-path:url(#SVGID_00000069367448189719531180000012023275695736637569_);">
			<defs>
				<rect id="SVGID_00000026138103620341399280000008315801756157778055_" x="36.002" y="77.657" width="29.361" height="18.212"/>
			</defs>
			<clipPath id="SVGID_00000171687184531883029110000003416611824502450366_">
				<use xlink:href="#SVGID_00000026138103620341399280000008315801756157778055_"  style="overflow:visible;"/>
			</clipPath>
			<path style="clip-path:url(#SVGID_00000171687184531883029110000003416611824502450366_);fill:#9F9EB1;" d="M65.362,83.446
				c-0.1,0.3-0.17,0.6-0.29,0.87c-1.52,3.449-3.13,6.93-6.51,8.9c-1.899,1.11-4.16,1.589-6.26,2.36c-2.15,0.78-4.14-0.2-6.16-0.61
				c-1.67-0.331-2.86-1.56-4-2.76c-0.82-0.861-1.62-1.74-2.62-2.83c-1.02,0.299-2.139,0.63-3.52,1.04
				c0.24-4.151,0.49-8.3,0.76-12.76c4,1.189,7.88,2.35,12.16,3.63c-1.18,1.019-2.12,1.83-3.03,2.63v1.59
				c1.491,2.589,3.87,3.08,6.63,3.14c3.42,0.079,4.13-2.66,5.59-4.93v-1.92C60.562,82.356,62.923,82.885,65.362,83.446"/>
		</g>
		<g style="clip-path:url(#SVGID_00000069367448189719531180000012023275695736637569_);">
			<defs>
				
					<rect id="SVGID_00000132056561193769203890000001978345135644454834_" x="19.265" y="41.736" transform="matrix(0.1923 -0.9813 0.9813 0.1923 -32.968 72.3452)" width="16.4" height="28.929"/>
			</defs>
			<clipPath id="SVGID_00000008840969367040899800000010500003965550433952_">
				<use xlink:href="#SVGID_00000132056561193769203890000001978345135644454834_"  style="overflow:visible;"/>
			</clipPath>
			<path style="clip-path:url(#SVGID_00000008840969367040899800000010500003965550433952_);fill:#E1D153;" d="M17.062,58.035
				c-0.915-2.717-0.039-10.198-0.039-10.198c2.155-0.596,2.197-0.128,5.099-0.019c0.12,0.004,1.851,0.388,1.963,0.384
				c0.636-0.022,5.383,1.071,8.262,3.42c0.422,0.343,0.919,0.594,1.442,0.924c0.679-0.969,1.321-1.886,1.975-2.821
				c1.409,1.474,4.406,10.505,4.684,14.134c-4.328,0.522-8.661,0.698-13.278,0.48c0.672-1.267,1.199-2.262,1.836-3.466
				c-2.019-1.129-3.705-2.032-5.863-2.665C21.258,57.655,19.217,57.438,17.062,58.035"/>
		</g>
		<g style="clip-path:url(#SVGID_00000069367448189719531180000012023275695736637569_);">
			<defs>
				
					<rect id="SVGID_00000123434701373073045160000017587397678871710347_" x="39.663" y="29.548" transform="matrix(0.8661 -0.4998 0.4998 0.8661 -15.5907 29.8134)" width="16.4" height="28.929"/>
			</defs>
			<clipPath id="SVGID_00000124847456849457123020000009454560221836855985_">
				<use xlink:href="#SVGID_00000123434701373073045160000017587397678871710347_"  style="overflow:visible;"/>
			</clipPath>
			<path style="clip-path:url(#SVGID_00000124847456849457123020000009454560221836855985_);fill:#5699DE;" d="M39.645,37.377
				c1.446-2.475,7.662-6.73,7.662-6.73c1.865,1.232,1.539,1.572,3.364,3.831c0.077,0.092,0.924,1.65,1,1.732
				c0.436,0.464,2.731,4.762,2.852,8.475c0.018,0.544,0.156,1.083,0.25,1.694c1.177-0.125,2.29-0.243,3.425-0.364
				c-0.186,2.03-5.024,10.224-7.577,12.818c-3.237-2.92-6.218-6.071-9.086-9.694c1.396-0.327,2.493-0.583,3.819-0.894
				c-0.476-2.264-0.903-4.128-1.844-6.171C42.688,40.29,41.51,38.609,39.645,37.377"/>
		</g>
		<g style="clip-path:url(#SVGID_00000069367448189719531180000012023275695736637569_);">
			<defs>
				
					<rect id="SVGID_00000176009421922027162130000007916339947288343962_" x="54.398" y="40.813" transform="matrix(0.1236 -0.9923 0.9923 0.1236 11.7142 111.2897)" width="28.93" height="16.4"/>
			</defs>
			<clipPath id="SVGID_00000046309014029807824790000015603259129680117390_">
				<use xlink:href="#SVGID_00000176009421922027162130000007916339947288343962_"  style="overflow:visible;"/>
			</clipPath>
			<path style="clip-path:url(#SVGID_00000046309014029807824790000015603259129680117390_);fill:#AD70D6;" d="M66.308,38.764
				c2.646-1.103,10.17-0.75,10.17-0.75c0.746,2.109,0.281,2.183,0.375,5.086c0.004,0.12-0.259,1.873-0.247,1.985
				c0.067,0.633-0.694,5.445-2.836,8.48c-0.314,0.445-0.528,0.958-0.821,1.502c1.013,0.611,1.973,1.187,2.951,1.775
				c-1.372,1.507-10.173,5.127-13.774,5.656c-0.821-4.281-1.299-8.591-1.402-13.212c1.311,0.582,2.34,1.039,3.585,1.591
				c0.985-2.093,1.769-3.838,2.25-6.036C66.979,42.923,67.053,40.872,66.308,38.764"/>
		</g>
		<polygon style="clip-path:url(#SVGID_00000069367448189719531180000012023275695736637569_);fill:#E33A3A;" points="19.958,11 
			18.076,11.587 16.056,12.24 13.996,13.615 12.548,15.61 11.37,17.801 11.082,20.282 11.082,20.295 11.708,23.604 12.821,25.698 
			14.332,27.514 16.483,28.473 18.193,29.032 19.961,29.291 20.399,29.48 21.306,29.48 21.753,29.326 24.25,28.797 26.278,27.966 
			27.799,26.405 29.075,24.652 29.624,22.541 29.96,20.955 29.96,18.965 29.461,17.115 28.306,14.94 26.727,13.111 24.529,12.063 
			21.7,11 		"/>
		<polygon style="clip-path:url(#SVGID_00000069367448189719531180000012023275695736637569_);fill:#F26C2B;" points="46.961,4 
			45.076,4.587 43.056,5.24 40.996,6.615 39.548,8.61 38.37,10.801 38.082,13.282 38.082,13.295 38.708,16.604 39.822,18.698 
			41.332,20.515 43.484,21.474 45.193,22.032 46.961,22.291 47.399,22.48 48.306,22.48 48.753,22.326 51.25,21.798 53.278,20.966 
			54.799,19.405 56.076,17.653 56.624,15.541 56.96,13.955 56.96,11.964 56.461,10.116 55.307,7.941 53.728,6.111 51.53,5.063 
			48.701,4 		"/>
		<polygon style="clip-path:url(#SVGID_00000069367448189719531180000012023275695736637569_);fill:#55C95A;" points="74.961,9 
			73.077,9.588 71.057,10.241 68.996,11.616 67.548,13.611 66.37,15.802 66.082,18.283 66.082,18.295 66.708,21.604 67.821,23.698 
			69.331,25.515 71.484,26.474 73.193,27.033 74.961,27.292 75.399,27.481 76.305,27.481 76.753,27.326 79.25,26.798 81.278,25.966 
			82.798,24.406 84.075,22.653 84.624,20.542 84.96,18.956 84.96,16.964 84.461,15.116 83.307,12.941 81.727,11.112 79.53,10.064 
			76.7,9 		"/>
	</g>
</g>
</svg>
