<?xml version="1.0" encoding="iso-8859-1"?>
<!-- Generator: Adobe Illustrator 26.0.1, SVG Export Plug-In . SVG Version: 6.00 Build 0)  -->
<svg version="1.1" id="Layer_1" xmlns="http://www.w3.org/2000/svg" xmlns:xlink="http://www.w3.org/1999/xlink" x="0px" y="0px"
	 viewBox="0 0 100 100" style="enable-background:new 0 0 100 100;" xml:space="preserve">
<g id="L2_1_" style="display:none;opacity:0.96;">
	<g style="display:inline;">
		<defs>
			<rect id="SVGID_1_" x="11" y="9" width="31.359" height="34.868"/>
		</defs>
		<clipPath id="SVGID_00000136399236875440636460000006881364760250809267_">
			<use xlink:href="#SVGID_1_"  style="overflow:visible;"/>
		</clipPath>
		<g style="clip-path:url(#SVGID_00000136399236875440636460000006881364760250809267_);">
			<defs>
				<rect id="SVGID_00000066497089914062566970000003521642235001428882_" x="11" y="9" width="31.359" height="34.868"/>
			</defs>
			<clipPath id="SVGID_00000170983425711327426400000005840980640372497066_">
				<use xlink:href="#SVGID_00000066497089914062566970000003521642235001428882_"  style="overflow:visible;"/>
			</clipPath>
			<g style="clip-path:url(#SVGID_00000170983425711327426400000005840980640372497066_);">
				<defs>
					<rect id="SVGID_00000115477839240891748370000011976815468341530774_" x="12.264" y="8.997" width="30.098" height="18.779"/>
				</defs>
				<clipPath id="SVGID_00000179629411007635079550000003217756643521655431_">
					<use xlink:href="#SVGID_00000115477839240891748370000011976815468341530774_"  style="overflow:visible;"/>
				</clipPath>
				<g style="clip-path:url(#SVGID_00000179629411007635079550000003217756643521655431_);">
					<defs>
						<rect id="SVGID_00000021815562578591310530000018420178050031025029_" x="12.264" y="8.997" width="30.098" height="18.779"/>
					</defs>
					<clipPath id="SVGID_00000043455201151072429740000001457216744701881535_">
						<use xlink:href="#SVGID_00000021815562578591310530000018420178050031025029_"  style="overflow:visible;"/>
					</clipPath>
					<path style="clip-path:url(#SVGID_00000043455201151072429740000001457216744701881535_);fill:#5699DE;" d="M38.693,15.496
						c1.33-0.04,2.04-2.21,3.67-1.07c-0.27,4.39-0.53,8.73-0.81,13.35c-4.26-0.64-8.21-2.15-12.23-3.33
						c-0.22-0.34-0.4-0.63-0.63-0.97c1.08-0.93,2.19-1.87,3.32-2.84c-0.9-2.8-3.33-3.45-5.51-3.8c-3.55-0.57-4.85,2.27-5.92,4.63
						c-0.1,0.96-0.16,1.62-0.25,2.5c-2.83-0.65-5.4-1.24-8.01-1.85c-0.02-0.25-0.1-0.47-0.03-0.62c0.78-1.91,1.3-4.01,2.45-5.66
						c2.89-4.13,6.85-6.66,12.07-6.83c3.34-0.1,6.39,0.64,8.85,3.01C36.743,13.056,37.643,14.276,38.693,15.496"/>
				</g>
			</g>
			<g style="clip-path:url(#SVGID_00000170983425711327426400000005840980640372497066_);">
				<defs>
					<rect id="SVGID_00000172442303861357517850000013122979529868530067_" x="11.003" y="25.656" width="29.36" height="18.213"/>
				</defs>
				<clipPath id="SVGID_00000160164133925316476020000007429667720610360248_">
					<use xlink:href="#SVGID_00000172442303861357517850000013122979529868530067_"  style="overflow:visible;"/>
				</clipPath>
				<g style="clip-path:url(#SVGID_00000160164133925316476020000007429667720610360248_);">
					<defs>
						<rect id="SVGID_00000096031137472306813890000017050134999553307833_" x="11.003" y="25.656" width="29.36" height="18.213"/>
					</defs>
					<clipPath id="SVGID_00000080198559110768944970000001923228855250791564_">
						<use xlink:href="#SVGID_00000096031137472306813890000017050134999553307833_"  style="overflow:visible;"/>
					</clipPath>
					<path style="clip-path:url(#SVGID_00000080198559110768944970000001923228855250791564_);fill:#F26C2B;" d="M40.363,31.446
						c-0.1,0.3-0.17,0.6-0.29,0.87c-1.52,3.45-3.13,6.93-6.51,8.9c-1.9,1.11-4.16,1.59-6.26,2.36c-2.15,0.78-4.14-0.2-6.16-0.61
						c-1.67-0.33-2.86-1.56-4-2.76c-0.82-0.86-1.62-1.74-2.62-2.83c-1.02,0.3-2.14,0.63-3.52,1.04c0.24-4.15,0.49-8.3,0.76-12.76
						c4,1.19,7.88,2.35,12.16,3.63c-1.18,1.02-2.12,1.83-3.03,2.63v1.59c1.49,2.59,3.87,3.08,6.63,3.14
						c3.42,0.08,4.13-2.66,5.59-4.93v-1.92C35.563,30.356,37.923,30.886,40.363,31.446"/>
				</g>
			</g>
		</g>
	</g>
</g>
<g id="L2_2_" style="display:none;opacity:0.96;">
	<g style="display:inline;">
		<defs>
			<rect id="SVGID_00000021095266300641273920000005494430602418332848_" x="56" y="9" width="31.359" height="34.868"/>
		</defs>
		<clipPath id="SVGID_00000144331865019292282550000014885265158061907122_">
			<use xlink:href="#SVGID_00000021095266300641273920000005494430602418332848_"  style="overflow:visible;"/>
		</clipPath>
		<g style="clip-path:url(#SVGID_00000144331865019292282550000014885265158061907122_);">
			<defs>
				<rect id="SVGID_00000003799748606182567220000015393756326284339346_" x="56" y="9" width="31.359" height="34.868"/>
			</defs>
			<clipPath id="SVGID_00000091011208146755850770000010455090939514746762_">
				<use xlink:href="#SVGID_00000003799748606182567220000015393756326284339346_"  style="overflow:visible;"/>
			</clipPath>
			<g style="clip-path:url(#SVGID_00000091011208146755850770000010455090939514746762_);">
				<defs>
					<rect id="SVGID_00000168075328663683946450000011458724488102956959_" x="57.264" y="8.997" width="30.098" height="18.779"/>
				</defs>
				<clipPath id="SVGID_00000100369379596662883310000003318279819034283445_">
					<use xlink:href="#SVGID_00000168075328663683946450000011458724488102956959_"  style="overflow:visible;"/>
				</clipPath>
				<g style="clip-path:url(#SVGID_00000100369379596662883310000003318279819034283445_);">
					<defs>
						<rect id="SVGID_00000024716013166156541250000002036372580704420252_" x="57.264" y="8.997" width="30.098" height="18.779"/>
					</defs>
					<clipPath id="SVGID_00000175311968264459446120000004605244931265765546_">
						<use xlink:href="#SVGID_00000024716013166156541250000002036372580704420252_"  style="overflow:visible;"/>
					</clipPath>
					<path style="clip-path:url(#SVGID_00000175311968264459446120000004605244931265765546_);fill:#E33A3A;" d="M83.693,15.496
						c1.33-0.04,2.04-2.21,3.67-1.07c-0.27,4.39-0.53,8.73-0.81,13.35c-4.26-0.64-8.21-2.15-12.23-3.33
						c-0.22-0.34-0.4-0.63-0.63-0.97c1.08-0.93,2.19-1.87,3.32-2.84c-0.9-2.8-3.33-3.45-5.51-3.8c-3.55-0.57-4.85,2.27-5.92,4.63
						c-0.1,0.96-0.16,1.62-0.25,2.5c-2.83-0.65-5.4-1.24-8.01-1.85c-0.02-0.25-0.1-0.47-0.03-0.62c0.78-1.91,1.3-4.01,2.45-5.66
						c2.89-4.13,6.85-6.66,12.07-6.83c3.34-0.1,6.39,0.64,8.85,3.01C81.743,13.056,82.643,14.276,83.693,15.496"/>
				</g>
			</g>
			<g style="clip-path:url(#SVGID_00000091011208146755850770000010455090939514746762_);">
				<defs>
					<rect id="SVGID_00000036964193081527057260000007282429396832484504_" x="56.003" y="25.656" width="29.36" height="18.213"/>
				</defs>
				<clipPath id="SVGID_00000062158855133229297320000001815364522045048469_">
					<use xlink:href="#SVGID_00000036964193081527057260000007282429396832484504_"  style="overflow:visible;"/>
				</clipPath>
				<g style="clip-path:url(#SVGID_00000062158855133229297320000001815364522045048469_);">
					<defs>
						<rect id="SVGID_00000052079155705723827720000013753660165130639034_" x="56.003" y="25.656" width="29.36" height="18.213"/>
					</defs>
					<clipPath id="SVGID_00000065064779938340737920000007983826343693767567_">
						<use xlink:href="#SVGID_00000052079155705723827720000013753660165130639034_"  style="overflow:visible;"/>
					</clipPath>
					<path style="clip-path:url(#SVGID_00000065064779938340737920000007983826343693767567_);fill:#AD70D6;" d="M85.363,31.446
						c-0.1,0.3-0.17,0.6-0.29,0.87c-1.52,3.45-3.13,6.93-6.51,8.9c-1.9,1.11-4.16,1.59-6.26,2.36c-2.15,0.78-4.14-0.2-6.16-0.61
						c-1.67-0.33-2.86-1.56-4-2.76c-0.82-0.86-1.62-1.74-2.62-2.83c-1.02,0.3-2.14,0.63-3.52,1.04c0.24-4.15,0.49-8.3,0.76-12.76
						c4,1.19,7.88,2.35,12.16,3.63c-1.18,1.02-2.12,1.83-3.03,2.63v1.59c1.49,2.59,3.87,3.08,6.63,3.14
						c3.42,0.08,4.13-2.66,5.59-4.93v-1.92C80.563,30.356,82.923,30.886,85.363,31.446"/>
				</g>
			</g>
		</g>
	</g>
</g>
<g id="L2_3_" style="display:none;opacity:0.96;">
	<g style="display:inline;">
		<defs>
			<rect id="SVGID_00000023253353493277597250000009017493721011124902_" x="10" y="53" width="31.359" height="34.868"/>
		</defs>
		<clipPath id="SVGID_00000050658530722496934030000003083790249705423532_">
			<use xlink:href="#SVGID_00000023253353493277597250000009017493721011124902_"  style="overflow:visible;"/>
		</clipPath>
		<g style="clip-path:url(#SVGID_00000050658530722496934030000003083790249705423532_);">
			<defs>
				<rect id="SVGID_00000183222906311806659560000000609490037999300251_" x="10" y="53" width="31.359" height="34.868"/>
			</defs>
			<clipPath id="SVGID_00000128450303472693392050000001376379591996144780_">
				<use xlink:href="#SVGID_00000183222906311806659560000000609490037999300251_"  style="overflow:visible;"/>
			</clipPath>
			<g style="clip-path:url(#SVGID_00000128450303472693392050000001376379591996144780_);">
				<defs>
					<rect id="SVGID_00000078765071343658970510000000503335561118488759_" x="11.264" y="52.997" width="30.098" height="18.779"/>
				</defs>
				<clipPath id="SVGID_00000094592702116670646480000016414484344778516116_">
					<use xlink:href="#SVGID_00000078765071343658970510000000503335561118488759_"  style="overflow:visible;"/>
				</clipPath>
				<g style="clip-path:url(#SVGID_00000094592702116670646480000016414484344778516116_);">
					<defs>
						
							<rect id="SVGID_00000170972976528103088740000014503494701322745230_" x="11.264" y="52.997" width="30.098" height="18.779"/>
					</defs>
					<clipPath id="SVGID_00000095305771914188305480000001916118177001239444_">
						<use xlink:href="#SVGID_00000170972976528103088740000014503494701322745230_"  style="overflow:visible;"/>
					</clipPath>
					<path style="clip-path:url(#SVGID_00000095305771914188305480000001916118177001239444_);fill:#55C95A;" d="M37.693,59.496
						c1.33-0.04,2.04-2.21,3.67-1.07c-0.27,4.39-0.53,8.73-0.81,13.35c-4.26-0.64-8.21-2.15-12.23-3.33
						c-0.22-0.34-0.4-0.63-0.63-0.97c1.08-0.93,2.19-1.87,3.32-2.84c-0.9-2.8-3.33-3.45-5.51-3.8c-3.55-0.57-4.85,2.27-5.92,4.63
						c-0.1,0.96-0.16,1.62-0.25,2.5c-2.83-0.65-5.4-1.24-8.01-1.85c-0.02-0.25-0.1-0.47-0.03-0.62c0.78-1.91,1.3-4.01,2.45-5.66
						c2.89-4.13,6.85-6.66,12.07-6.83c3.34-0.1,6.39,0.64,8.85,3.01C35.743,57.056,36.643,58.276,37.693,59.496"/>
				</g>
			</g>
			<g style="clip-path:url(#SVGID_00000128450303472693392050000001376379591996144780_);">
				<defs>
					<rect id="SVGID_00000096765635596312384930000006945145924540875426_" x="10.003" y="69.656" width="29.36" height="18.213"/>
				</defs>
				<clipPath id="SVGID_00000178908645904576407140000001335137762709436601_">
					<use xlink:href="#SVGID_00000096765635596312384930000006945145924540875426_"  style="overflow:visible;"/>
				</clipPath>
				<g style="clip-path:url(#SVGID_00000178908645904576407140000001335137762709436601_);">
					<defs>
						<rect id="SVGID_00000018915452046822695120000018413238839546704775_" x="10.003" y="69.656" width="29.36" height="18.213"/>
					</defs>
					<clipPath id="SVGID_00000021083223703650462050000017035861499970671512_">
						<use xlink:href="#SVGID_00000018915452046822695120000018413238839546704775_"  style="overflow:visible;"/>
					</clipPath>
					<path style="clip-path:url(#SVGID_00000021083223703650462050000017035861499970671512_);fill:#E1D153;" d="M39.363,75.446
						c-0.1,0.3-0.17,0.6-0.29,0.87c-1.52,3.45-3.13,6.93-6.51,8.9c-1.9,1.11-4.16,1.59-6.26,2.36c-2.15,0.78-4.14-0.2-6.16-0.61
						c-1.67-0.33-2.86-1.56-4-2.76c-0.82-0.86-1.62-1.74-2.62-2.83c-1.02,0.3-2.14,0.63-3.52,1.04c0.24-4.15,0.49-8.3,0.76-12.76
						c4,1.19,7.88,2.35,12.16,3.63c-1.18,1.02-2.12,1.83-3.03,2.63v1.59c1.49,2.59,3.87,3.08,6.63,3.14
						c3.42,0.08,4.13-2.66,5.59-4.93v-1.92C34.563,74.356,36.923,74.886,39.363,75.446"/>
				</g>
			</g>
		</g>
	</g>
</g>
<g id="L1_1_" style="display:none;opacity:0.96;">
	<g style="display:inline;">
		<defs>
			<rect id="SVGID_00000000187240951396736190000017774673820473258405_" x="71" y="49" width="18.96" height="18.48"/>
		</defs>
		<clipPath id="SVGID_00000159434897954325159650000014091273523392261004_">
			<use xlink:href="#SVGID_00000000187240951396736190000017774673820473258405_"  style="overflow:visible;"/>
		</clipPath>
		<g style="clip-path:url(#SVGID_00000159434897954325159650000014091273523392261004_);">
			<defs>
				<rect id="SVGID_00000040572344854650517610000007763031257833513632_" x="71" y="49" width="18.96" height="18.48"/>
			</defs>
			<clipPath id="SVGID_00000123402217191435113910000017717945642934859675_">
				<use xlink:href="#SVGID_00000040572344854650517610000007763031257833513632_"  style="overflow:visible;"/>
			</clipPath>
			<g style="clip-path:url(#SVGID_00000123402217191435113910000017717945642934859675_);">
				<defs>
					<rect id="SVGID_00000101088325301332117630000001139519086720373419_" x="71.082" y="48.948" width="19.053" height="18.706"/>
				</defs>
				<clipPath id="SVGID_00000127002786753787181930000015407621747016996239_">
					<use xlink:href="#SVGID_00000101088325301332117630000001139519086720373419_"  style="overflow:visible;"/>
				</clipPath>
				<g style="clip-path:url(#SVGID_00000127002786753787181930000015407621747016996239_);">
					<defs>
						
							<rect id="SVGID_00000013875893995479114930000010798484976268478339_" x="71.082" y="48.948" width="19.053" height="18.706"/>
					</defs>
					<clipPath id="SVGID_00000000205661785764962580000012519019330245015224_">
						<use xlink:href="#SVGID_00000013875893995479114930000010798484976268478339_"  style="overflow:visible;"/>
					</clipPath>
					<polygon style="clip-path:url(#SVGID_00000000205661785764962580000012519019330245015224_);fill:#523742;" points="
						90.135,57.613 90.033,58.612 89.624,60.541 89.075,62.653 87.799,64.406 86.278,65.966 84.25,66.798 81.753,67.326 
						80.801,67.654 79.961,67.291 78.192,67.033 76.483,66.474 74.331,65.515 72.821,63.698 71.708,61.604 71.081,58.29 
						71.37,55.802 72.548,53.61 73.996,51.616 76.056,50.241 78.076,49.587 80.102,48.956 81.561,48.948 84.529,50.063 
						86.727,51.112 88.306,52.941 89.461,55.116 					"/>
				</g>
			</g>
		</g>
	</g>
</g>
<g id="L1_2_" style="display:none;opacity:0.96;">
	<g style="display:inline;">
		<defs>
			<rect id="SVGID_00000011007036962773113250000011084293616366452907_" x="53" y="72" width="18.96" height="18.48"/>
		</defs>
		<clipPath id="SVGID_00000158006068526192553410000004995948912550452621_">
			<use xlink:href="#SVGID_00000011007036962773113250000011084293616366452907_"  style="overflow:visible;"/>
		</clipPath>
		<g style="clip-path:url(#SVGID_00000158006068526192553410000004995948912550452621_);">
			<defs>
				<rect id="SVGID_00000085242365315426089760000009056507751669648260_" x="53" y="72" width="18.96" height="18.48"/>
			</defs>
			<clipPath id="SVGID_00000143606130788916345700000002647535493465836478_">
				<use xlink:href="#SVGID_00000085242365315426089760000009056507751669648260_"  style="overflow:visible;"/>
			</clipPath>
			<g style="clip-path:url(#SVGID_00000143606130788916345700000002647535493465836478_);">
				<defs>
					<rect id="SVGID_00000107546905908758012660000000389456325674893977_" x="53.082" y="71.948" width="19.053" height="18.706"/>
				</defs>
				<clipPath id="SVGID_00000020370930840811526280000008853083920819768726_">
					<use xlink:href="#SVGID_00000107546905908758012660000000389456325674893977_"  style="overflow:visible;"/>
				</clipPath>
				<g style="clip-path:url(#SVGID_00000020370930840811526280000008853083920819768726_);">
					<defs>
						
							<rect id="SVGID_00000032622189257995080360000008106568639112715678_" x="53.082" y="71.948" width="19.053" height="18.706"/>
					</defs>
					<clipPath id="SVGID_00000171707224201021664990000003202022534346652071_">
						<use xlink:href="#SVGID_00000032622189257995080360000008106568639112715678_"  style="overflow:visible;"/>
					</clipPath>
					<polygon style="clip-path:url(#SVGID_00000171707224201021664990000003202022534346652071_);fill:#9F9EB1;" points="
						72.135,80.613 72.033,81.612 71.624,83.541 71.075,85.653 69.799,87.406 68.278,88.966 66.25,89.798 63.753,90.326 
						62.801,90.654 61.961,90.291 60.192,90.033 58.483,89.474 56.331,88.515 54.821,86.698 53.708,84.604 53.081,81.29 
						53.37,78.802 54.548,76.61 55.996,74.616 58.056,73.241 60.076,72.587 62.102,71.956 63.561,71.948 66.529,73.063 
						68.727,74.112 70.306,75.941 71.461,78.116 					"/>
				</g>
			</g>
		</g>
	</g>
</g>
<g id="L2_L2_L2_L1_L1_00000061433471809500281090000015503491353567139737_">
	<g>
		<defs>
			<rect id="SVGID_00000060749446210917852120000018283679305126576039_" x="9" y="9" width="79.96" height="81.48"/>
		</defs>
		<clipPath id="SVGID_00000092427387037142966650000017120824188243775926_">
			<use xlink:href="#SVGID_00000060749446210917852120000018283679305126576039_"  style="overflow:visible;"/>
		</clipPath>
		<g style="clip-path:url(#SVGID_00000092427387037142966650000017120824188243775926_);">
			<defs>
				<rect id="SVGID_00000167388453383621382840000010058945192886417034_" x="9" y="9" width="79.96" height="81.48"/>
			</defs>
			<clipPath id="SVGID_00000096020613244638766960000002861685809178210177_">
				<use xlink:href="#SVGID_00000167388453383621382840000010058945192886417034_"  style="overflow:visible;"/>
			</clipPath>
			<g style="clip-path:url(#SVGID_00000096020613244638766960000002861685809178210177_);">
				<defs>
					<rect id="SVGID_00000077326798903722901690000000408892943203200189_" x="9" y="9" width="79.96" height="81.48"/>
				</defs>
				<clipPath id="SVGID_00000036953343495610861480000000037448335217567412_">
					<use xlink:href="#SVGID_00000077326798903722901690000000408892943203200189_"  style="overflow:visible;"/>
				</clipPath>
				<g style="opacity:0.96;clip-path:url(#SVGID_00000036953343495610861480000000037448335217567412_);">
					<g>
						<defs>
							<rect id="SVGID_00000140000344504253306800000011868710443413477283_" x="10" y="8.997" width="31.363" height="34.872"/>
						</defs>
						<clipPath id="SVGID_00000123422755328334829170000014807114283768773539_">
							<use xlink:href="#SVGID_00000140000344504253306800000011868710443413477283_"  style="overflow:visible;"/>
						</clipPath>
						<g style="clip-path:url(#SVGID_00000123422755328334829170000014807114283768773539_);">
							<defs>
								<rect id="SVGID_00000057139259520668230020000005100734392572704909_" x="11.264" y="9" width="30.094" height="18.776"/>
							</defs>
							<clipPath id="SVGID_00000067936885495205117020000013298386567321388208_">
								<use xlink:href="#SVGID_00000057139259520668230020000005100734392572704909_"  style="overflow:visible;"/>
							</clipPath>
							<path style="clip-path:url(#SVGID_00000067936885495205117020000013298386567321388208_);fill:#5699DE;" d="M37.693,15.496
								c1.33-0.04,2.04-2.21,3.67-1.07c-0.27,4.39-0.53,8.73-0.81,13.35c-4.26-0.64-8.21-2.15-12.23-3.33
								c-0.22-0.34-0.4-0.63-0.63-0.97c1.08-0.93,2.19-1.87,3.32-2.84c-0.9-2.8-3.33-3.45-5.51-3.8c-3.55-0.57-4.85,2.27-5.92,4.63
								c-0.1,0.96-0.16,1.62-0.25,2.5c-2.83-0.65-5.4-1.24-8.01-1.85c-0.02-0.25-0.1-0.47-0.03-0.62c0.78-1.91,1.3-4.01,2.45-5.66
								c2.89-4.13,6.85-6.66,12.07-6.83c3.34-0.1,6.39,0.64,8.85,3.01C35.743,13.056,36.643,14.276,37.693,15.496"/>
						</g>
						<g style="clip-path:url(#SVGID_00000123422755328334829170000014807114283768773539_);">
							<defs>
								
									<rect id="SVGID_00000023248488344629321990000015359334344661289126_" x="10.003" y="25.656" width="29.36" height="18.213"/>
							</defs>
							<clipPath id="SVGID_00000003804010617249872130000006451951622948943523_">
								<use xlink:href="#SVGID_00000023248488344629321990000015359334344661289126_"  style="overflow:visible;"/>
							</clipPath>
							<path style="clip-path:url(#SVGID_00000003804010617249872130000006451951622948943523_);fill:#F26C2B;" d="M39.363,31.446
								c-0.1,0.3-0.17,0.6-0.29,0.87c-1.52,3.45-3.13,6.93-6.51,8.9c-1.9,1.11-4.16,1.59-6.26,2.36c-2.15,0.78-4.14-0.2-6.16-0.61
								c-1.67-0.33-2.86-1.56-4-2.76c-0.82-0.86-1.62-1.74-2.62-2.83c-1.02,0.3-2.14,0.63-3.52,1.04c0.24-4.15,0.49-8.3,0.76-12.76
								c4,1.19,7.88,2.35,12.16,3.63c-1.18,1.02-2.12,1.83-3.03,2.63v1.59c1.49,2.59,3.87,3.08,6.63,3.14
								c3.42,0.08,4.13-2.66,5.59-4.93v-1.92C34.563,30.356,36.923,30.886,39.363,31.446"/>
						</g>
					</g>
				</g>
				<g style="opacity:0.96;clip-path:url(#SVGID_00000036953343495610861480000000037448335217567412_);">
					<g>
						<defs>
							<rect id="SVGID_00000028314035171975021260000014290994086760489401_" x="55" y="8.997" width="31.363" height="34.872"/>
						</defs>
						<clipPath id="SVGID_00000090988755347890539620000012257933183884695734_">
							<use xlink:href="#SVGID_00000028314035171975021260000014290994086760489401_"  style="overflow:visible;"/>
						</clipPath>
						<g style="clip-path:url(#SVGID_00000090988755347890539620000012257933183884695734_);">
							<defs>
								<rect id="SVGID_00000016762536234701730540000006893564738633817752_" x="56.264" y="9" width="30.095" height="18.776"/>
							</defs>
							<clipPath id="SVGID_00000158743898234209845770000007333527236359317688_">
								<use xlink:href="#SVGID_00000016762536234701730540000006893564738633817752_"  style="overflow:visible;"/>
							</clipPath>
							<path style="clip-path:url(#SVGID_00000158743898234209845770000007333527236359317688_);fill:#E33A3A;" d="M82.692,15.496
								c1.33-0.04,2.04-2.21,3.67-1.07c-0.27,4.39-0.529,8.73-0.81,13.35c-4.259-0.64-8.21-2.15-12.23-3.33
								c-0.22-0.34-0.4-0.63-0.63-0.97c1.08-0.93,2.19-1.87,3.32-2.84c-0.9-2.8-3.33-3.45-5.509-3.8
								c-3.55-0.57-4.851,2.27-5.92,4.63c-0.101,0.96-0.161,1.62-0.25,2.5c-2.83-0.65-5.401-1.24-8.011-1.85
								c-0.02-0.25-0.1-0.47-0.029-0.62c0.779-1.91,1.299-4.01,2.45-5.66c2.889-4.13,6.849-6.66,12.069-6.83
								c3.34-0.1,6.391,0.64,8.851,3.01C80.743,13.056,81.642,14.276,82.692,15.496"/>
						</g>
						<g style="clip-path:url(#SVGID_00000090988755347890539620000012257933183884695734_);">
							<defs>
								
									<rect id="SVGID_00000161601187808344351950000002899193785358740662_" x="55.003" y="25.656" width="29.36" height="18.213"/>
							</defs>
							<clipPath id="SVGID_00000090295569403440411930000008161412970335504054_">
								<use xlink:href="#SVGID_00000161601187808344351950000002899193785358740662_"  style="overflow:visible;"/>
							</clipPath>
							<path style="clip-path:url(#SVGID_00000090295569403440411930000008161412970335504054_);fill:#AD70D6;" d="M84.362,31.446
								c-0.1,0.3-0.17,0.6-0.29,0.87c-1.52,3.45-3.13,6.93-6.51,8.9c-1.899,1.11-4.16,1.59-6.26,2.36
								c-2.15,0.78-4.139-0.2-6.16-0.61c-1.67-0.33-2.86-1.56-4-2.76c-0.82-0.86-1.62-1.74-2.62-2.83
								c-1.019,0.3-2.139,0.63-3.519,1.04c0.239-4.15,0.489-8.3,0.759-12.76c4,1.19,7.88,2.35,12.161,3.63
								c-1.181,1.02-2.121,1.83-3.031,2.63v1.59c1.491,2.59,3.87,3.08,6.63,3.14c3.42,0.08,4.13-2.66,5.59-4.93v-1.92
								C79.562,30.356,81.923,30.886,84.362,31.446"/>
						</g>
					</g>
				</g>
				<g style="opacity:0.96;clip-path:url(#SVGID_00000036953343495610861480000000037448335217567412_);">
					<g>
						<defs>
							<rect id="SVGID_00000129168908368353766380000015554128072815579273_" x="9" y="52.997" width="31.363" height="34.872"/>
						</defs>
						<clipPath id="SVGID_00000057829803026032094340000003152061602958805944_">
							<use xlink:href="#SVGID_00000129168908368353766380000015554128072815579273_"  style="overflow:visible;"/>
						</clipPath>
						<g style="clip-path:url(#SVGID_00000057829803026032094340000003152061602958805944_);">
							<defs>
								
									<rect id="SVGID_00000061446596305065434110000018323375230102705812_" x="10.264" y="53.001" width="30.094" height="18.775"/>
							</defs>
							<clipPath id="SVGID_00000106130629854265261130000007869002345282633362_">
								<use xlink:href="#SVGID_00000061446596305065434110000018323375230102705812_"  style="overflow:visible;"/>
							</clipPath>
							<path style="clip-path:url(#SVGID_00000106130629854265261130000007869002345282633362_);fill:#55C95A;" d="M36.693,59.496
								c1.33-0.04,2.04-2.21,3.67-1.07c-0.27,4.389-0.53,8.73-0.81,13.349c-4.26-0.639-8.21-2.149-12.23-3.33
								c-0.22-0.34-0.4-0.63-0.63-0.97c1.08-0.929,2.19-1.87,3.32-2.839c-0.9-2.8-3.33-3.451-5.51-3.8
								c-3.55-0.57-4.85,2.269-5.92,4.63c-0.1,0.96-0.16,1.62-0.25,2.5c-2.83-0.651-5.4-1.241-8.01-1.85
								c-0.02-0.25-0.1-0.471-0.03-0.62c0.78-1.91,1.3-4.011,2.45-5.66c2.89-4.13,6.85-6.66,12.07-6.83
								c3.34-0.1,6.39,0.639,8.85,3.01C34.743,57.056,35.643,58.275,36.693,59.496"/>
						</g>
						<g style="clip-path:url(#SVGID_00000057829803026032094340000003152061602958805944_);">
							<defs>
								
									<rect id="SVGID_00000051379257587424836180000005704245926615869098_" x="9.003" y="69.656" width="29.36" height="18.212"/>
							</defs>
							<clipPath id="SVGID_00000049193819392043259100000004246021574990379947_">
								<use xlink:href="#SVGID_00000051379257587424836180000005704245926615869098_"  style="overflow:visible;"/>
							</clipPath>
							<path style="clip-path:url(#SVGID_00000049193819392043259100000004246021574990379947_);fill:#E1D153;" d="M38.363,75.446
								c-0.1,0.3-0.17,0.6-0.29,0.87c-1.52,3.449-3.13,6.93-6.51,8.9c-1.9,1.11-4.16,1.589-6.26,2.36c-2.15,0.78-4.14-0.2-6.16-0.61
								c-1.67-0.331-2.86-1.56-4-2.76c-0.82-0.861-1.62-1.74-2.62-2.83c-1.02,0.299-2.14,0.63-3.52,1.04
								c0.24-4.151,0.49-8.3,0.76-12.76c4,1.189,7.88,2.35,12.16,3.63c-1.18,1.019-2.12,1.83-3.03,2.63v1.59
								c1.49,2.589,3.87,3.08,6.63,3.14c3.42,0.079,4.13-2.66,5.59-4.93v-1.92C33.563,74.356,35.923,74.885,38.363,75.446"/>
						</g>
					</g>
				</g>
				<g style="opacity:0.96;clip-path:url(#SVGID_00000036953343495610861480000000037448335217567412_);">
					<g>
						<defs>
							<rect id="SVGID_00000137850189312679375730000002818824540021646750_" x="70" y="48.948" width="19.135" height="18.706"/>
						</defs>
						<clipPath id="SVGID_00000156549902013544091220000003840973097648840370_">
							<use xlink:href="#SVGID_00000137850189312679375730000002818824540021646750_"  style="overflow:visible;"/>
						</clipPath>
						<polygon style="clip-path:url(#SVGID_00000156549902013544091220000003840973097648840370_);fill:#523742;" points="
							78.961,49 77.076,49.587 75.056,50.241 72.996,51.616 71.548,53.61 70.37,55.802 70.082,58.282 70.082,58.295 70.707,61.604 
							71.821,63.698 73.331,65.515 75.483,66.473 77.192,67.033 78.96,67.291 79.401,67.481 80.305,67.481 80.752,67.327 
							83.25,66.798 85.278,65.966 86.799,64.406 88.075,62.652 88.624,60.541 88.959,58.959 88.959,56.961 88.461,55.116 
							87.306,52.94 85.728,51.111 83.529,50.063 80.7,49 						"/>
					</g>
				</g>
				<g style="opacity:0.96;clip-path:url(#SVGID_00000036953343495610861480000000037448335217567412_);">
					<g>
						<defs>
							<rect id="SVGID_00000072259003095707583100000014773296010619491984_" x="52" y="71.948" width="19.135" height="18.706"/>
						</defs>
						<clipPath id="SVGID_00000129919172090069248600000015730176036583029921_">
							<use xlink:href="#SVGID_00000072259003095707583100000014773296010619491984_"  style="overflow:visible;"/>
						</clipPath>
						<polygon style="clip-path:url(#SVGID_00000129919172090069248600000015730176036583029921_);fill:#9F9EB1;" points="
							60.961,72 59.076,72.587 57.056,73.241 54.996,74.616 53.548,76.609 52.37,78.801 52.082,81.282 52.082,81.295 52.707,84.604 
							53.821,86.698 55.331,88.514 57.483,89.474 59.192,90.033 60.96,90.291 61.401,90.481 62.303,90.481 62.752,90.326 
							65.25,89.798 67.278,88.966 68.799,87.406 70.075,85.652 70.624,83.541 70.959,81.959 70.959,79.96 70.461,78.116 
							69.306,75.94 67.728,74.111 65.529,73.062 62.701,72 						"/>
					</g>
				</g>
			</g>
		</g>
	</g>
</g>
</svg>
