<?xml version="1.0" encoding="iso-8859-1"?>
<!-- Generator: Adobe Illustrator 26.0.1, SVG Export Plug-In . SVG Version: 6.00 Build 0)  -->
<svg version="1.1" xmlns="http://www.w3.org/2000/svg" xmlns:xlink="http://www.w3.org/1999/xlink" x="0px" y="0px"
	 viewBox="0 0 100 100" style="enable-background:new 0 0 100 100;" xml:space="preserve">
<g id="Layer_1">
	<g id="G_x28__T1_T1_T1_L3__x29__L1_L1_00000065035852992822885540000006409100515262719393_">
		<g>
			<defs>
				<rect id="SVGID_1_" x="-1" y="4" width="102.767" height="96.721"/>
			</defs>
			<clipPath id="SVGID_00000118372883545158502790000002521217869000751277_">
				<use xlink:href="#SVGID_1_"  style="overflow:visible;"/>
			</clipPath>
			<g style="clip-path:url(#SVGID_00000118372883545158502790000002521217869000751277_);">
				<defs>
					<rect id="SVGID_00000024689548979371303940000017213996367030209152_" x="-1" y="4" width="102.767" height="96.721"/>
				</defs>
				<clipPath id="SVGID_00000075121848926682234540000017999184787810190483_">
					<use xlink:href="#SVGID_00000024689548979371303940000017213996367030209152_"  style="overflow:visible;"/>
				</clipPath>
				<g style="clip-path:url(#SVGID_00000075121848926682234540000017999184787810190483_);">
					<defs>
						<rect id="SVGID_00000107552451818215946540000016473159077889190832_" x="-1" y="4" width="102.767" height="96.721"/>
					</defs>
					<clipPath id="SVGID_00000059306214493944966520000015301511498345027746_">
						<use xlink:href="#SVGID_00000107552451818215946540000016473159077889190832_"  style="overflow:visible;"/>
					</clipPath>
					<g style="opacity:0.99;clip-path:url(#SVGID_00000059306214493944966520000015301511498345027746_);">
						<g>
							<defs>
								
									<rect id="SVGID_00000064322623357768884300000000708439271804821422_" x="19.408" y="15.642" width="47.766" height="52.098"/>
							</defs>
							<clipPath id="SVGID_00000139269536273092071790000002828447438732082318_">
								<use xlink:href="#SVGID_00000064322623357768884300000000708439271804821422_"  style="overflow:visible;"/>
							</clipPath>
							<g style="clip-path:url(#SVGID_00000139269536273092071790000002828447438732082318_);">
								<defs>
									<polygon id="SVGID_00000050641514885678180460000016269612051712473238_" points="43.481,16.928 24.096,18.093 
										24.096,39.569 58.656,39.569 58.656,16.928 									"/>
								</defs>
								<clipPath id="SVGID_00000147940068413630593790000017209399344263260862_">
									<use xlink:href="#SVGID_00000050641514885678180460000016269612051712473238_"  style="overflow:visible;"/>
								</clipPath>
								<path style="clip-path:url(#SVGID_00000147940068413630593790000017209399344263260862_);fill:#55C95A;" d="M58.656,27.128
									c-2.13,2-4.229,4.11-6.53,6.1c-1.78,1.55-3.679,3.03-5.83,4.36c-0.329-1.76-0.57-3.06-0.849-4.56
									c-2.46,0.35-5.101,0.24-7.291,1.19c-2.12,0.94-4.29,2.42-5.3,5.35c-3.03-1.93-5.83-3.73-8.76-5.6
									c1.57-3.19,3.01-6.32,5.88-8.47c0.56-0.41,0.991-0.98,1.44-1.51c1.31-1.5,3.13-1.93,4.88-2.32c1.81-0.4,3.72-0.34,5.6-0.49
									c0.531-0.05,1.08-0.07,1.63-0.1c0.01-1.52,0.02-2.84,0.01-4.15C46.276,16.998,57.707,24.688,58.656,27.128"/>
							</g>
							<g style="clip-path:url(#SVGID_00000139269536273092071790000002828447438732082318_);">
								<defs>
									<polygon id="SVGID_00000082341383314786302490000015485167474949171877_" points="21.074,39.618 21.074,53.122 
										21.719,66.598 40.75,66.598 46.236,66.269 46.236,39.618 									"/>
								</defs>
								<clipPath id="SVGID_00000002370116067006185930000013510138734728390063_">
									<use xlink:href="#SVGID_00000082341383314786302490000015485167474949171877_"  style="overflow:visible;"/>
								</clipPath>
								<path style="clip-path:url(#SVGID_00000002370116067006185930000013510138734728390063_);fill:#E33A3A;" d="M46.237,55.379
									c-0.03,0.939-0.07,1.6-0.09,2.25c-0.07,2.619-0.13,5.239-0.2,7.85c-0.01,0.28-0.13,0.559-0.2,0.82l-5.01,0.3
									c-0.37-0.09-0.75-0.18-1.13-0.271c-2.28-0.599-4.63-1.029-6.83-1.84c-1.16-0.429-2.27-1.339-3.09-2.309
									c-1.65-1.96-3.08-4.101-4.67-6.271c-1.04,0.7-2.18,1.46-3.34,2.25c-1.2-3.08-0.47-16.929,0.99-18.539
									c3.08,0.989,6.23,1.82,9.41,2.9c1.89,0.65,3.81,1.39,5.71,2.29c-1.3,1.199-2.37,2.19-3.47,3.199
									c1.61,2.06,3.18,4.06,4.82,6.141C41.477,54.269,43.287,56.939,46.237,55.379"/>
							</g>
							<g style="clip-path:url(#SVGID_00000139269536273092071790000002828447438732082318_);">
								<defs>
									<polygon id="SVGID_00000093866584359529211350000016585732676707495096_" points="47.887,31.678 47.887,65.718 
										55.398,65.718 66.747,65.036 66.747,56.166 65.576,31.678 									"/>
								</defs>
								<clipPath id="SVGID_00000078738459721517155670000008946416681133838490_">
									<use xlink:href="#SVGID_00000093866584359529211350000016585732676707495096_"  style="overflow:visible;"/>
								</clipPath>
								<path style="clip-path:url(#SVGID_00000078738459721517155670000008946416681133838490_);fill:#F26C2B;" d="M64.946,40.469
									c2.32,4.39,0.57,8.38-1.29,12.37c-0.26,0.58-0.409,1.22-0.64,1.92c1.29,0.489,2.5,0.95,3.731,1.42
									c-1.261,2.05-10.611,8.149-14.631,9.54c-1.33-3.57-2.45-7.2-3.35-11.02c-0.32-1.33-0.62-2.67-0.88-4.04
									c1.61,0.4,2.88,0.7,4.41,1.09c0.711-2.65,1.88-5.27,2.001-7.93c0.099-2.31,0.089-5.06-2.261-6.77
									c0.6-0.39,1.19-0.79,1.761-1.16c2.17-1.43,4.239-2.8,6.37-4.21c2.029,2.47,4.04,5.02,4.729,8.37
									C64.926,40.189,64.896,40.349,64.946,40.469"/>
							</g>
						</g>
					</g>
				</g>
				<g style="clip-path:url(#SVGID_00000075121848926682234540000017999184787810190483_);">
					<defs>
						<polygon id="SVGID_00000117636028698768288550000005936402903058790272_" points="80.93,23.968 66.866,37.28 66.866,42.82 
							71.284,47.662 83.713,47.662 97.967,34.17 97.967,26.409 95.74,23.968 						"/>
					</defs>
					<clipPath id="SVGID_00000178163071191505685460000006869989766663777718_">
						<use xlink:href="#SVGID_00000117636028698768288550000005936402903058790272_"  style="overflow:visible;"/>
					</clipPath>
					<path style="clip-path:url(#SVGID_00000178163071191505685460000006869989766663777718_);fill:#AD70D6;" d="M97.967,30.958
						c-0.931,2.48-1.391,2.2-3.49,4.91c-0.09,0.11-1.64,1.51-1.71,1.62c-0.42,0.62-4.7,4.42-8.88,5.57
						c-0.61,0.16-1.191,0.47-1.86,0.74c0.45,1.32,0.86,2.57,1.29,3.84c-2.35,0.34-12.86-3.02-16.451-5.25
						c2.491-4.51,5.301-8.79,8.681-13.07c0.72,1.52,1.29,2.71,1.98,4.15c2.45-1.16,4.45-2.15,6.53-3.79
						c1.809-1.43,3.41-3.23,4.34-5.71C91.567,24.958,97.967,30.958,97.967,30.958"/>
				</g>
				<g style="clip-path:url(#SVGID_00000075121848926682234540000017999184787810190483_);">
					<defs>
						<polygon id="SVGID_00000074405167871660137420000001850606923984586405_" points="3.236,5.738 3.236,23.611 14.35,24.318 
							32.476,24.318 32.476,6.043 27.678,5.738 						"/>
					</defs>
					<clipPath id="SVGID_00000167370869172470471810000015397895593479655050_">
						<use xlink:href="#SVGID_00000074405167871660137420000001850606923984586405_"  style="overflow:visible;"/>
					</clipPath>
					<path style="clip-path:url(#SVGID_00000167370869172470471810000015397895593479655050_);fill:#5699DE;" d="M25.107,5.868
						c1.83,1.51,6.55,11.63,7.37,15.83c-4.91,1.28-9.88,2.16-15.23,2.62c0.59-1.59,1.06-2.84,1.63-4.35
						c-2.49-1.01-4.56-1.8-7.13-2.21c-2.25-0.36-4.64-0.3-7.04,0.74c-1.43-3.05-1.47-11.95-1.47-11.95c2.4-1.03,2.52-0.48,5.88-0.81
						c0.13-0.01,2.18,0.17,2.31,0.15c0.73-0.12,6.36,0.42,10,2.73c0.54,0.34,1.15,0.55,1.79,0.86
						C23.866,8.239,24.476,7.069,25.107,5.868"/>
				</g>
				<g style="clip-path:url(#SVGID_00000075121848926682234540000017999184787810190483_);">
					<defs>
						<polygon id="SVGID_00000173846117708124727420000007191703434265629090_" points="14.334,65.319 14.197,67.89 14.197,95.498 
							31.776,95.498 32.386,84.114 32.386,65.319 						"/>
					</defs>
					<clipPath id="SVGID_00000028284906088698374170000018255549699961089688_">
						<use xlink:href="#SVGID_00000173846117708124727420000007191703434265629090_"  style="overflow:visible;"/>
					</clipPath>
					<path style="clip-path:url(#SVGID_00000028284906088698374170000018255549699961089688_);fill:#E1D153;" d="M29.697,65.318
						c1.3,4.96,2.2,9.99,2.69,15.43c-1.57-0.57-2.8-1.01-4.28-1.539c-0.98,2.559-1.74,4.689-2.12,7.319
						c-0.34,2.3-0.26,4.72,0.78,7.141c-2.98,1.54-11.72,1.829-11.72,1.829c-1.04-2.409-0.5-2.539-0.85-5.95
						c-0.01-0.14,0.15-2.23,0.13-2.36c-0.13-0.74,0.36-6.479,2.6-10.26c0.33-0.549,0.54-1.17,0.83-1.839
						c-1.22-0.63-2.38-1.221-3.56-1.821C15.667,71.368,25.567,66.278,29.697,65.318"/>
				</g>
				<polygon style="clip-path:url(#SVGID_00000075121848926682234540000017999184787810190483_);fill:#9F9EB1;" points="
					82.73,73.978 80.842,74.566 78.823,75.22 76.762,76.594 75.314,78.588 74.136,80.78 73.848,83.261 73.848,83.273 74.474,86.582 
					75.588,88.677 77.097,90.493 79.25,91.452 80.959,92.011 82.727,92.27 83.167,92.459 84.071,92.459 84.519,92.305 
					87.016,91.776 89.045,90.944 90.565,89.385 91.842,87.631 92.39,85.52 92.726,83.934 92.726,81.943 92.227,80.094 
					91.073,77.919 89.494,76.089 87.296,75.041 84.464,73.978 				"/>
				<polygon style="clip-path:url(#SVGID_00000075121848926682234540000017999184787810190483_);fill:#523742;" points="58.96,74 
					57.076,74.587 55.056,75.241 52.996,76.616 51.548,78.61 50.37,80.802 50.081,83.29 50.708,86.604 51.821,88.698 53.331,90.515 
					55.483,91.473 57.192,92.033 58.961,92.291 59.398,92.48 60.307,92.48 60.753,92.326 63.25,91.797 65.278,90.966 66.799,89.406 
					68.075,87.653 68.624,85.541 68.959,83.96 68.959,81.963 68.461,80.115 67.306,77.941 65.727,76.112 63.529,75.063 60.699,74 
									"/>
			</g>
		</g>
	</g>
</g>
<g id="Layer_2">
	<g id="Layer_3">
	</g>
</g>
</svg>
