<?xml version="1.0" encoding="iso-8859-1"?>
<!-- Generator: Adobe Illustrator 26.0.1, SVG Export Plug-In . SVG Version: 6.00 Build 0)  -->
<svg version="1.1" id="Layer_1" xmlns="http://www.w3.org/2000/svg" xmlns:xlink="http://www.w3.org/1999/xlink" x="0px" y="0px"
	 viewBox="0 0 100 100" style="enable-background:new 0 0 100 100;" xml:space="preserve">
<g id="L2_1_" style="display:none;">
	<g style="display:inline;">
		<defs>
			<rect id="SVGID_1_" x="35" y="61" width="31.359" height="34.868"/>
		</defs>
		<clipPath id="SVGID_00000062912450484015176100000012350169027363495560_">
			<use xlink:href="#SVGID_1_"  style="overflow:visible;"/>
		</clipPath>
		<g style="clip-path:url(#SVGID_00000062912450484015176100000012350169027363495560_);">
			<defs>
				<rect id="SVGID_00000005258640254270468050000016887734833399791011_" x="35" y="61" width="31.359" height="34.868"/>
			</defs>
			<clipPath id="SVGID_00000081610383523606251730000007037337802659617720_">
				<use xlink:href="#SVGID_00000005258640254270468050000016887734833399791011_"  style="overflow:visible;"/>
			</clipPath>
			<g style="clip-path:url(#SVGID_00000081610383523606251730000007037337802659617720_);">
				<defs>
					<rect id="SVGID_00000033347999489971541080000004465618822619608990_" x="36.264" y="60.997" width="30.098" height="18.779"/>
				</defs>
				<clipPath id="SVGID_00000010300068995293625300000002402779157854354077_">
					<use xlink:href="#SVGID_00000033347999489971541080000004465618822619608990_"  style="overflow:visible;"/>
				</clipPath>
				<g style="clip-path:url(#SVGID_00000010300068995293625300000002402779157854354077_);">
					<defs>
						
							<rect id="SVGID_00000159447934170185990880000011994542217426528421_" x="36.264" y="60.997" width="30.098" height="18.779"/>
					</defs>
					<clipPath id="SVGID_00000162353031972499780370000010784141470184316831_">
						<use xlink:href="#SVGID_00000159447934170185990880000011994542217426528421_"  style="overflow:visible;"/>
					</clipPath>
					<path style="clip-path:url(#SVGID_00000162353031972499780370000010784141470184316831_);fill:#9F9EB1;" d="M62.693,67.496
						c1.33-0.04,2.04-2.21,3.67-1.07c-0.27,4.39-0.53,8.73-0.81,13.35c-4.26-0.64-8.21-2.15-12.23-3.33
						c-0.22-0.34-0.4-0.63-0.63-0.97c1.08-0.93,2.19-1.87,3.32-2.84c-0.9-2.8-3.33-3.45-5.51-3.8c-3.55-0.57-4.85,2.27-5.92,4.63
						c-0.1,0.96-0.16,1.62-0.25,2.5c-2.83-0.65-5.4-1.24-8.01-1.85c-0.02-0.25-0.1-0.47-0.03-0.62c0.78-1.91,1.3-4.01,2.45-5.66
						c2.89-4.13,6.85-6.66,12.07-6.83c3.34-0.1,6.39,0.64,8.85,3.01C60.743,65.056,61.643,66.276,62.693,67.496"/>
				</g>
			</g>
			<g style="clip-path:url(#SVGID_00000081610383523606251730000007037337802659617720_);">
				<defs>
					<rect id="SVGID_00000029032250801879645710000000414025435286989714_" x="35.003" y="77.656" width="29.36" height="18.213"/>
				</defs>
				<clipPath id="SVGID_00000066476747699279865330000006479124676782061195_">
					<use xlink:href="#SVGID_00000029032250801879645710000000414025435286989714_"  style="overflow:visible;"/>
				</clipPath>
				<g style="clip-path:url(#SVGID_00000066476747699279865330000006479124676782061195_);">
					<defs>
						<rect id="SVGID_00000030475605658700062860000011454607003690834581_" x="35.003" y="77.656" width="29.36" height="18.213"/>
					</defs>
					<clipPath id="SVGID_00000043431652937195294900000007013155376526629533_">
						<use xlink:href="#SVGID_00000030475605658700062860000011454607003690834581_"  style="overflow:visible;"/>
					</clipPath>
					<path style="clip-path:url(#SVGID_00000043431652937195294900000007013155376526629533_);fill:#523742;" d="M64.363,83.446
						c-0.1,0.3-0.17,0.6-0.29,0.87c-1.52,3.45-3.13,6.93-6.51,8.9c-1.9,1.11-4.16,1.59-6.26,2.36c-2.15,0.78-4.14-0.2-6.16-0.61
						c-1.67-0.33-2.86-1.56-4-2.76c-0.82-0.86-1.62-1.74-2.62-2.83c-1.02,0.3-2.14,0.63-3.52,1.04c0.24-4.15,0.49-8.3,0.76-12.76
						c4,1.19,7.88,2.35,12.16,3.63c-1.18,1.02-2.12,1.83-3.03,2.63v1.59c1.49,2.59,3.87,3.08,6.63,3.14
						c3.42,0.08,4.13-2.66,5.59-4.93v-1.92C59.563,82.356,61.923,82.886,64.363,83.446"/>
				</g>
			</g>
		</g>
	</g>
</g>
<g id="T1_x5F_2_1_" style="display:none;">
	<g style="display:inline;">
		<defs>
			
				<rect id="SVGID_00000011742546638957946160000013527726373924995755_" x="19.264" y="41.736" transform="matrix(0.1924 -0.9813 0.9813 0.1924 -32.9689 72.3415)" width="16.4" height="28.929"/>
		</defs>
		<clipPath id="SVGID_00000176758613176824863650000016268395172187676290_">
			<use xlink:href="#SVGID_00000011742546638957946160000013527726373924995755_"  style="overflow:visible;"/>
		</clipPath>
		<g style="clip-path:url(#SVGID_00000176758613176824863650000016268395172187676290_);">
			<defs>
				
					<rect id="SVGID_00000099625869230150007000000012302791377365228185_" x="19.264" y="41.736" transform="matrix(0.1924 -0.9813 0.9813 0.1924 -32.969 72.3416)" width="16.4" height="28.929"/>
			</defs>
			<clipPath id="SVGID_00000052789896555932070770000018408982991193845376_">
				<use xlink:href="#SVGID_00000099625869230150007000000012302791377365228185_"  style="overflow:visible;"/>
			</clipPath>
			<path style="clip-path:url(#SVGID_00000052789896555932070770000018408982991193845376_);fill:#E1D153;" d="M17.063,58.035
				c-0.916-2.717-0.039-10.198-0.039-10.198c2.155-0.597,2.197-0.128,5.099-0.02c0.119,0.004,1.851,0.388,1.963,0.385
				c0.636-0.023,5.384,1.071,8.263,3.419c0.422,0.344,0.919,0.594,1.441,0.924c0.679-0.969,1.321-1.886,1.975-2.821
				c1.409,1.474,4.407,10.505,4.684,14.134c-4.328,0.521-8.661,0.698-13.277,0.479c0.671-1.267,1.198-2.262,1.836-3.466
				c-2.02-1.129-3.705-2.032-5.864-2.665C21.258,57.655,19.218,57.439,17.063,58.035"/>
		</g>
	</g>
</g>
<g id="T1_x5F_2_2_" style="display:none;">
	<g style="display:inline;">
		<defs>
			
				<rect id="SVGID_00000101824529702009513530000012069548865661315501_" x="38.663" y="29.548" transform="matrix(0.8661 -0.4998 0.4998 0.8661 -15.7246 29.3135)" width="16.4" height="28.929"/>
		</defs>
		<clipPath id="SVGID_00000067949400104242674430000009956520589086956463_">
			<use xlink:href="#SVGID_00000101824529702009513530000012069548865661315501_"  style="overflow:visible;"/>
		</clipPath>
		<g style="clip-path:url(#SVGID_00000067949400104242674430000009956520589086956463_);">
			<defs>
				
					<rect id="SVGID_00000146464278317855072500000015251000253238974388_" x="38.663" y="29.548" transform="matrix(0.8661 -0.4998 0.4998 0.8661 -15.7246 29.3135)" width="16.4" height="28.929"/>
			</defs>
			<clipPath id="SVGID_00000079471838932112913850000007589216980940371645_">
				<use xlink:href="#SVGID_00000146464278317855072500000015251000253238974388_"  style="overflow:visible;"/>
			</clipPath>
			<path style="clip-path:url(#SVGID_00000079471838932112913850000007589216980940371645_);fill:#AD70D6;" d="M38.644,37.377
				c1.446-2.475,7.662-6.73,7.662-6.73c1.866,1.232,1.54,1.572,3.365,3.831c0.075,0.093,0.923,1.65,1,1.732
				c0.435,0.465,2.73,4.762,2.852,8.475c0.018,0.544,0.156,1.083,0.25,1.694c1.177-0.125,2.29-0.243,3.424-0.364
				c-0.185,2.03-5.023,10.224-7.577,12.818c-3.237-2.92-6.217-6.07-9.085-9.694c1.396-0.326,2.492-0.583,3.819-0.893
				c-0.476-2.264-0.903-4.128-1.844-6.171C41.688,40.29,40.51,38.61,38.644,37.377"/>
		</g>
	</g>
</g>
<g id="T1_x5F_2_3_" style="display:none;">
	<g style="display:inline;">
		<defs>
			
				<rect id="SVGID_00000039827103980959263000000018141858413043298465_" x="53.398" y="40.813" transform="matrix(0.1236 -0.9923 0.9923 0.1236 10.8407 110.2995)" width="28.929" height="16.4"/>
		</defs>
		<clipPath id="SVGID_00000052821402223314673390000005666571210269940609_">
			<use xlink:href="#SVGID_00000039827103980959263000000018141858413043298465_"  style="overflow:visible;"/>
		</clipPath>
		<g style="clip-path:url(#SVGID_00000052821402223314673390000005666571210269940609_);">
			<defs>
				
					<rect id="SVGID_00000130618326354459168020000011662067515799236025_" x="53.398" y="40.813" transform="matrix(0.1236 -0.9923 0.9923 0.1236 10.8406 110.2994)" width="28.929" height="16.4"/>
			</defs>
			<clipPath id="SVGID_00000085951672180971670390000016062879741744409521_">
				<use xlink:href="#SVGID_00000130618326354459168020000011662067515799236025_"  style="overflow:visible;"/>
			</clipPath>
			<path style="clip-path:url(#SVGID_00000085951672180971670390000016062879741744409521_);fill:#5699DE;" d="M65.307,38.764
				c2.646-1.102,10.17-0.749,10.17-0.749c0.745,2.108,0.281,2.182,0.375,5.085c0.004,0.119-0.258,1.873-0.247,1.985
				c0.067,0.633-0.693,5.445-2.836,8.481c-0.313,0.445-0.528,0.958-0.822,1.502c1.014,0.61,1.973,1.187,2.951,1.774
				c-1.372,1.508-10.172,5.127-13.773,5.657c-0.821-4.281-1.299-8.591-1.402-13.212c1.31,0.581,2.34,1.038,3.585,1.59
				c0.985-2.093,1.769-3.838,2.25-6.035C65.979,42.923,66.053,40.872,65.307,38.764"/>
		</g>
	</g>
</g>
<g id="L1_1_" style="display:none;">
	<g style="display:inline;">
		<defs>
			<rect id="SVGID_00000036968630721777332560000015372874192876424380_" x="10" y="11" width="18.96" height="18.48"/>
		</defs>
		<clipPath id="SVGID_00000065071118970833035250000000553338117816022673_">
			<use xlink:href="#SVGID_00000036968630721777332560000015372874192876424380_"  style="overflow:visible;"/>
		</clipPath>
		<g style="clip-path:url(#SVGID_00000065071118970833035250000000553338117816022673_);">
			<defs>
				<rect id="SVGID_00000068647668953641282960000013304705540655175045_" x="10" y="11" width="18.96" height="18.48"/>
			</defs>
			<clipPath id="SVGID_00000152981900448163767940000005372679144689775505_">
				<use xlink:href="#SVGID_00000068647668953641282960000013304705540655175045_"  style="overflow:visible;"/>
			</clipPath>
			<g style="clip-path:url(#SVGID_00000152981900448163767940000005372679144689775505_);">
				<defs>
					<rect id="SVGID_00000155862393546861877670000007969886857645823873_" x="10.082" y="10.948" width="19.053" height="18.706"/>
				</defs>
				<clipPath id="SVGID_00000050626525656118867540000006099331246508384389_">
					<use xlink:href="#SVGID_00000155862393546861877670000007969886857645823873_"  style="overflow:visible;"/>
				</clipPath>
				<g style="clip-path:url(#SVGID_00000050626525656118867540000006099331246508384389_);">
					<defs>
						
							<rect id="SVGID_00000114791526558654608830000011556659801538182017_" x="10.082" y="10.948" width="19.053" height="18.706"/>
					</defs>
					<clipPath id="SVGID_00000075142700665698802560000003317190860960049826_">
						<use xlink:href="#SVGID_00000114791526558654608830000011556659801538182017_"  style="overflow:visible;"/>
					</clipPath>
					<polygon style="clip-path:url(#SVGID_00000075142700665698802560000003317190860960049826_);fill:#E33A3A;" points="
						29.135,19.613 29.033,20.612 28.624,22.541 28.075,24.653 26.799,26.406 25.278,27.966 23.25,28.798 20.753,29.326 
						19.801,29.654 18.961,29.291 17.192,29.033 15.483,28.474 13.331,27.515 11.821,25.698 10.708,23.604 10.081,20.29 
						10.37,17.802 11.548,15.61 12.996,13.616 15.056,12.241 17.076,11.587 19.102,10.956 20.561,10.948 23.529,12.063 
						25.727,13.112 27.306,14.941 28.461,17.116 					"/>
				</g>
			</g>
		</g>
	</g>
</g>
<g id="L1_2_" style="display:none;">
	<g style="display:inline;">
		<defs>
			<rect id="SVGID_00000160166815234246416480000012750831796584004783_" x="37" y="4" width="18.96" height="18.48"/>
		</defs>
		<clipPath id="SVGID_00000183959667815978952200000004416201116927643566_">
			<use xlink:href="#SVGID_00000160166815234246416480000012750831796584004783_"  style="overflow:visible;"/>
		</clipPath>
		<g style="clip-path:url(#SVGID_00000183959667815978952200000004416201116927643566_);">
			<defs>
				<rect id="SVGID_00000021112060831149778680000000857569970195317666_" x="37" y="4" width="18.96" height="18.48"/>
			</defs>
			<clipPath id="SVGID_00000060724544068389236680000006367806318999217852_">
				<use xlink:href="#SVGID_00000021112060831149778680000000857569970195317666_"  style="overflow:visible;"/>
			</clipPath>
			<g style="clip-path:url(#SVGID_00000060724544068389236680000006367806318999217852_);">
				<defs>
					<rect id="SVGID_00000120520733828524757780000002578687843327483547_" x="37.082" y="3.948" width="19.053" height="18.706"/>
				</defs>
				<clipPath id="SVGID_00000063620731558533164970000012767144938953308804_">
					<use xlink:href="#SVGID_00000120520733828524757780000002578687843327483547_"  style="overflow:visible;"/>
				</clipPath>
				<g style="clip-path:url(#SVGID_00000063620731558533164970000012767144938953308804_);">
					<defs>
						<rect id="SVGID_00000144303561872727149320000009925261848018968233_" x="37.082" y="3.948" width="19.053" height="18.706"/>
					</defs>
					<clipPath id="SVGID_00000145740427734493209200000015162356610850896566_">
						<use xlink:href="#SVGID_00000144303561872727149320000009925261848018968233_"  style="overflow:visible;"/>
					</clipPath>
					<polygon style="clip-path:url(#SVGID_00000145740427734493209200000015162356610850896566_);fill:#F26C2B;" points="
						56.135,12.613 56.033,13.612 55.624,15.541 55.075,17.653 53.799,19.406 52.278,20.966 50.25,21.798 47.753,22.326 
						46.801,22.654 45.961,22.291 44.192,22.033 42.483,21.474 40.331,20.515 38.821,18.698 37.708,16.604 37.081,13.29 
						37.37,10.802 38.548,8.61 39.996,6.616 42.056,5.241 44.076,4.587 46.102,3.956 47.561,3.948 50.529,5.063 52.727,6.112 
						54.306,7.941 55.461,10.116 					"/>
				</g>
			</g>
		</g>
	</g>
</g>
<g id="L1_3_" style="display:none;">
	<g style="display:inline;">
		<defs>
			<rect id="SVGID_00000171693897492903481640000007785737518133904512_" x="65" y="9" width="18.96" height="18.48"/>
		</defs>
		<clipPath id="SVGID_00000163760576355847678260000010654571668522569899_">
			<use xlink:href="#SVGID_00000171693897492903481640000007785737518133904512_"  style="overflow:visible;"/>
		</clipPath>
		<g style="clip-path:url(#SVGID_00000163760576355847678260000010654571668522569899_);">
			<defs>
				<rect id="SVGID_00000092429761021975108350000011408009746594748852_" x="65" y="9" width="18.96" height="18.48"/>
			</defs>
			<clipPath id="SVGID_00000179647987560315878900000011112522940112016258_">
				<use xlink:href="#SVGID_00000092429761021975108350000011408009746594748852_"  style="overflow:visible;"/>
			</clipPath>
			<g style="clip-path:url(#SVGID_00000179647987560315878900000011112522940112016258_);">
				<defs>
					<rect id="SVGID_00000108283820727475908970000007415381557546496917_" x="65.082" y="8.948" width="19.053" height="18.706"/>
				</defs>
				<clipPath id="SVGID_00000100376953082287303010000003829620825222027691_">
					<use xlink:href="#SVGID_00000108283820727475908970000007415381557546496917_"  style="overflow:visible;"/>
				</clipPath>
				<g style="clip-path:url(#SVGID_00000100376953082287303010000003829620825222027691_);">
					<defs>
						<rect id="SVGID_00000106138482381129747340000010173046359027656123_" x="65.082" y="8.948" width="19.053" height="18.706"/>
					</defs>
					<clipPath id="SVGID_00000142876881845989876110000009818445770538904717_">
						<use xlink:href="#SVGID_00000106138482381129747340000010173046359027656123_"  style="overflow:visible;"/>
					</clipPath>
					<polygon style="clip-path:url(#SVGID_00000142876881845989876110000009818445770538904717_);fill:#55C95A;" points="
						84.135,17.613 84.033,18.612 83.624,20.541 83.075,22.653 81.799,24.406 80.278,25.966 78.25,26.798 75.753,27.326 
						74.801,27.654 73.961,27.291 72.192,27.033 70.483,26.474 68.331,25.515 66.821,23.698 65.708,21.604 65.081,18.29 
						65.37,15.802 66.548,13.61 67.996,11.616 70.056,10.241 72.076,9.587 74.102,8.956 75.561,8.948 78.529,10.063 80.727,11.112 
						82.306,12.941 83.461,15.116 					"/>
				</g>
			</g>
		</g>
	</g>
</g>
<g id="G_x28__T1_T1_T1_L2__x29__L1_L1_L1_00000116932869819248837800000010215011944908364960_">
	<g>
		<defs>
			<rect id="SVGID_00000065765819429554714330000009296470214376158379_" x="11" y="4" width="73.96" height="91.868"/>
		</defs>
		<clipPath id="SVGID_00000051355973404629748860000004901023209116159635_">
			<use xlink:href="#SVGID_00000065765819429554714330000009296470214376158379_"  style="overflow:visible;"/>
		</clipPath>
		<g style="clip-path:url(#SVGID_00000051355973404629748860000004901023209116159635_);">
			<defs>
				<rect id="SVGID_00000126324878873157451550000002346542145722259107_" x="37.265" y="61.001" width="30.095" height="18.776"/>
			</defs>
			<clipPath id="SVGID_00000172419616524636515950000006862553502249124993_">
				<use xlink:href="#SVGID_00000126324878873157451550000002346542145722259107_"  style="overflow:visible;"/>
			</clipPath>
			<path style="clip-path:url(#SVGID_00000172419616524636515950000006862553502249124993_);fill:#9F9EB1;" d="M63.692,67.496
				c1.33-0.04,2.04-2.21,3.67-1.07c-0.27,4.389-0.529,8.73-0.81,13.349c-4.259-0.639-8.21-2.149-12.23-3.33
				c-0.22-0.34-0.4-0.63-0.63-0.97c1.08-0.929,2.19-1.87,3.32-2.839c-0.9-2.8-3.33-3.451-5.509-3.8
				c-3.551-0.57-4.851,2.269-5.921,4.63c-0.099,0.96-0.16,1.62-0.25,2.5c-2.829-0.651-5.4-1.241-8.01-1.85
				c-0.02-0.25-0.1-0.471-0.03-0.62c0.78-1.91,1.3-4.011,2.45-5.66c2.89-4.13,6.85-6.66,12.07-6.83c3.34-0.1,6.391,0.639,8.851,3.01
				C61.743,65.056,62.642,66.275,63.692,67.496"/>
		</g>
		<g style="clip-path:url(#SVGID_00000051355973404629748860000004901023209116159635_);">
			<defs>
				<rect id="SVGID_00000001638509084799351710000016766469171896978602_" x="36.002" y="77.657" width="29.361" height="18.212"/>
			</defs>
			<clipPath id="SVGID_00000091735726396279118910000014647895692237219484_">
				<use xlink:href="#SVGID_00000001638509084799351710000016766469171896978602_"  style="overflow:visible;"/>
			</clipPath>
			<path style="clip-path:url(#SVGID_00000091735726396279118910000014647895692237219484_);fill:#523742;" d="M65.362,83.446
				c-0.1,0.3-0.17,0.6-0.29,0.87c-1.52,3.449-3.13,6.93-6.51,8.9c-1.899,1.11-4.16,1.589-6.26,2.36c-2.15,0.78-4.14-0.2-6.16-0.61
				c-1.67-0.331-2.86-1.56-4-2.76c-0.82-0.861-1.62-1.74-2.62-2.83c-1.02,0.299-2.139,0.63-3.52,1.04
				c0.24-4.151,0.49-8.3,0.76-12.76c4,1.189,7.88,2.35,12.16,3.63c-1.18,1.019-2.12,1.83-3.03,2.63v1.59
				c1.491,2.589,3.87,3.08,6.63,3.14c3.42,0.079,4.13-2.66,5.59-4.93v-1.92C60.562,82.356,62.923,82.885,65.362,83.446"/>
		</g>
		<g style="clip-path:url(#SVGID_00000051355973404629748860000004901023209116159635_);">
			<defs>
				
					<rect id="SVGID_00000111901693597514813560000014677944763186825142_" x="19.265" y="41.736" transform="matrix(0.1923 -0.9813 0.9813 0.1923 -32.968 72.3452)" width="16.4" height="28.929"/>
			</defs>
			<clipPath id="SVGID_00000139259982993915817370000005051443253031287454_">
				<use xlink:href="#SVGID_00000111901693597514813560000014677944763186825142_"  style="overflow:visible;"/>
			</clipPath>
			<path style="clip-path:url(#SVGID_00000139259982993915817370000005051443253031287454_);fill:#E1D153;" d="M17.062,58.035
				c-0.915-2.717-0.039-10.198-0.039-10.198c2.155-0.596,2.197-0.128,5.099-0.019c0.12,0.004,1.851,0.388,1.963,0.384
				c0.636-0.022,5.383,1.071,8.262,3.42c0.422,0.343,0.919,0.594,1.442,0.924c0.679-0.969,1.321-1.886,1.975-2.821
				c1.409,1.474,4.406,10.505,4.684,14.134c-4.328,0.522-8.661,0.698-13.278,0.48c0.672-1.267,1.199-2.262,1.836-3.466
				c-2.019-1.129-3.705-2.032-5.863-2.665C21.258,57.655,19.217,57.438,17.062,58.035"/>
		</g>
		<g style="clip-path:url(#SVGID_00000051355973404629748860000004901023209116159635_);">
			<defs>
				
					<rect id="SVGID_00000013181419426423303080000000346723060322819007_" x="39.663" y="29.548" transform="matrix(0.8661 -0.4998 0.4998 0.8661 -15.5907 29.8134)" width="16.4" height="28.929"/>
			</defs>
			<clipPath id="SVGID_00000088854683729012396070000001250458800250106526_">
				<use xlink:href="#SVGID_00000013181419426423303080000000346723060322819007_"  style="overflow:visible;"/>
			</clipPath>
			<path style="clip-path:url(#SVGID_00000088854683729012396070000001250458800250106526_);fill:#AD70D6;" d="M39.645,37.377
				c1.446-2.475,7.662-6.73,7.662-6.73c1.865,1.232,1.539,1.572,3.364,3.831c0.077,0.092,0.924,1.65,1,1.732
				c0.436,0.464,2.731,4.762,2.852,8.475c0.018,0.544,0.156,1.083,0.25,1.694c1.177-0.125,2.29-0.243,3.425-0.364
				c-0.186,2.03-5.024,10.224-7.577,12.818c-3.237-2.92-6.218-6.071-9.086-9.694c1.396-0.327,2.493-0.583,3.819-0.894
				c-0.476-2.264-0.903-4.128-1.844-6.171C42.688,40.29,41.51,38.609,39.645,37.377"/>
		</g>
		<g style="clip-path:url(#SVGID_00000051355973404629748860000004901023209116159635_);">
			<defs>
				
					<rect id="SVGID_00000044869854876450190480000009082898559749762224_" x="54.398" y="40.813" transform="matrix(0.1236 -0.9923 0.9923 0.1236 11.7142 111.2897)" width="28.93" height="16.4"/>
			</defs>
			<clipPath id="SVGID_00000008840231929873947290000004895654027797350068_">
				<use xlink:href="#SVGID_00000044869854876450190480000009082898559749762224_"  style="overflow:visible;"/>
			</clipPath>
			<path style="clip-path:url(#SVGID_00000008840231929873947290000004895654027797350068_);fill:#5699DE;" d="M66.308,38.764
				c2.646-1.103,10.17-0.75,10.17-0.75c0.746,2.109,0.281,2.183,0.375,5.086c0.004,0.12-0.259,1.873-0.247,1.985
				c0.067,0.633-0.694,5.445-2.836,8.48c-0.314,0.445-0.528,0.958-0.821,1.502c1.013,0.611,1.973,1.187,2.951,1.775
				c-1.372,1.507-10.173,5.127-13.774,5.656c-0.821-4.281-1.299-8.591-1.402-13.212c1.311,0.582,2.34,1.039,3.585,1.591
				c0.985-2.093,1.769-3.838,2.25-6.036C66.979,42.923,67.053,40.872,66.308,38.764"/>
		</g>
		<polygon style="clip-path:url(#SVGID_00000051355973404629748860000004901023209116159635_);fill:#E33A3A;" points="19.958,11 
			18.076,11.587 16.056,12.24 13.996,13.615 12.548,15.61 11.37,17.801 11.082,20.282 11.082,20.295 11.708,23.604 12.821,25.698 
			14.332,27.514 16.483,28.473 18.193,29.032 19.961,29.291 20.399,29.48 21.306,29.48 21.753,29.326 24.25,28.797 26.278,27.966 
			27.799,26.405 29.075,24.652 29.624,22.541 29.96,20.955 29.96,18.965 29.461,17.115 28.306,14.94 26.727,13.111 24.529,12.063 
			21.7,11 		"/>
		<polygon style="clip-path:url(#SVGID_00000051355973404629748860000004901023209116159635_);fill:#F26C2B;" points="46.961,4 
			45.076,4.587 43.056,5.24 40.996,6.615 39.548,8.61 38.37,10.801 38.082,13.282 38.082,13.295 38.708,16.604 39.822,18.698 
			41.332,20.515 43.484,21.474 45.193,22.032 46.961,22.291 47.399,22.48 48.306,22.48 48.753,22.326 51.25,21.798 53.278,20.966 
			54.799,19.405 56.076,17.653 56.624,15.541 56.96,13.955 56.96,11.964 56.461,10.116 55.307,7.941 53.728,6.111 51.53,5.063 
			48.701,4 		"/>
		<polygon style="clip-path:url(#SVGID_00000051355973404629748860000004901023209116159635_);fill:#55C95A;" points="74.961,9 
			73.077,9.588 71.057,10.241 68.996,11.616 67.548,13.611 66.37,15.802 66.082,18.283 66.082,18.295 66.708,21.604 67.821,23.698 
			69.331,25.515 71.484,26.474 73.193,27.033 74.961,27.292 75.399,27.481 76.305,27.481 76.753,27.326 79.25,26.798 81.278,25.966 
			82.798,24.406 84.075,22.653 84.624,20.542 84.96,18.956 84.96,16.964 84.461,15.116 83.307,12.941 81.727,11.112 79.53,10.064 
			76.7,9 		"/>
	</g>
</g>
</svg>
