<?xml version="1.0" encoding="iso-8859-1"?>
<!-- Generator: Adobe Illustrator 26.0.1, SVG Export Plug-In . SVG Version: 6.00 Build 0)  -->
<svg version="1.1" xmlns="http://www.w3.org/2000/svg" xmlns:xlink="http://www.w3.org/1999/xlink" x="0px" y="0px"
	 viewBox="0 0 100 100" style="enable-background:new 0 0 100 100;" xml:space="preserve">
<g id="Layer_1">
</g>
<g id="Layer_2">
	<g id="G_x28__T1_T1_T1_L1__x29__L1_L1_L1_L1_00000146487884888262344750000009773749636034888865_">
		<g>
			<defs>
				<polygon id="SVGID_1_" points="0.779,4 71.419,31.442 40.221,111.447 -30.419,84.005 				"/>
			</defs>
			<clipPath id="SVGID_00000139990914025966913830000004951725569041805963_">
				<use xlink:href="#SVGID_1_"  style="overflow:visible;"/>
			</clipPath>
			<polygon style="clip-path:url(#SVGID_00000139990914025966913830000004951725569041805963_);fill:#523742;" points="
				27.855,32.298 25.986,31.871 23.753,31.983 21.707,32.856 19.78,34.007 18.405,35.798 18.403,35.8 17.357,38.652 17.25,40.787 
				17.579,42.89 18.803,44.626 19.869,45.849 21.12,46.866 21.373,47.214 22.075,47.633 22.493,47.721 24.673,48.466 26.63,48.76 
				28.531,48.256 30.332,47.488 31.735,46.108 32.728,45.038 33.651,43.496 34.12,41.836 34.232,39.62 33.854,37.474 32.637,35.648 
				30.936,33.518 29.586,32.714 			"/>
			<g style="clip-path:url(#SVGID_00000139990914025966913830000004951725569041805963_);">
				<defs>
					<polygon id="SVGID_00000158002626366527125660000012171891595400241064_" points="-2.95,22.136 19.473,35.502 27.066,22.814 
						4.641,9.447 					"/>
				</defs>
				<clipPath id="SVGID_00000127040650712102978290000012048020994209594772_">
					<use xlink:href="#SVGID_00000158002626366527125660000012171891595400241064_"  style="overflow:visible;"/>
				</clipPath>
				<path style="clip-path:url(#SVGID_00000127040650712102978290000012048020994209594772_);fill:#F26C2B;" d="M2.659,20.863
					c0.051-2.583,3.079-8.66,3.079-8.66c2.014,0.15,1.906,0.561,4.339,1.537c0.101,0.039,1.454,0.893,1.55,0.923
					c0.547,0.175,4.248,2.548,5.977,5.417c0.254,0.42,0.599,0.783,0.942,1.223c0.873-0.615,1.698-1.197,2.539-1.791
					c0.747,1.679,0.539,10.251-0.333,13.414c-3.837-0.876-7.573-2.046-11.428-3.638c0.958-0.871,1.708-1.554,2.618-2.38
					c-1.372-1.572-2.529-2.852-4.169-4.046C6.34,21.818,4.672,21.014,2.659,20.863"/>
			</g>
			<g style="clip-path:url(#SVGID_00000139990914025966913830000004951725569041805963_);">
				<defs>
					<polygon id="SVGID_00000127020936527403139440000015278361585693034921_" points="33.123,37.421 39.83,50.595 63.115,38.785 
						56.406,25.61 					"/>
				</defs>
				<clipPath id="SVGID_00000090296426786746541890000016187790912785234843_">
					<use xlink:href="#SVGID_00000127020936527403139440000015278361585693034921_"  style="overflow:visible;"/>
				</clipPath>
				<path style="clip-path:url(#SVGID_00000090296426786746541890000016187790912785234843_);fill:#55C95A;" d="M54.495,31.026
					c2.163,1.42,5.7,7.216,5.7,7.216c-1.201,1.62-1.491,1.31-3.615,2.844c-0.087,0.064-1.531,0.752-1.609,0.818
					c-0.44,0.369-4.424,2.228-7.778,2.16c-0.491-0.01-0.984,0.089-1.538,0.144c0.056,1.065,0.109,2.072,0.163,3.099
					c-1.822-0.264-8.977-5.01-11.192-7.433c2.787-2.773,5.771-5.304,9.175-7.711c0.227,1.272,0.406,2.271,0.623,3.479
					c2.063-0.32,3.765-0.615,5.652-1.364C51.723,33.624,53.294,32.645,54.495,31.026"/>
			</g>
			<g style="clip-path:url(#SVGID_00000139990914025966913830000004951725569041805963_);">
				<defs>
					
						<rect id="SVGID_00000050647782317391617960000003715708400771341461_" x="11.191" y="48.378" transform="matrix(0.9988 -0.0485 0.0485 0.9988 -2.9544 0.9733)" width="14.806" height="26.07"/>
				</defs>
				<clipPath id="SVGID_00000102521467812519222170000016015237716804176269_">
					<use xlink:href="#SVGID_00000050647782317391617960000003715708400771341461_"  style="overflow:visible;"/>
				</clipPath>
				<path style="clip-path:url(#SVGID_00000102521467812519222170000016015237716804176269_);fill:#E33A3A;" d="M22.453,70.118
					c-2.183,1.388-8.93,2.235-8.93,2.235c-0.989-1.756-0.588-1.894-1.12-4.457c-0.022-0.104-0.06-1.702-0.088-1.8
					c-0.157-0.551-0.226-4.94,1.21-7.967c0.211-0.443,0.323-0.932,0.499-1.46c-0.996-0.385-1.939-0.749-2.899-1.119
					c0.986-1.551,8.255-6.124,11.376-7.15c1.393,3.674,2.485,7.427,3.292,11.513c-1.256-0.313-2.242-0.559-3.435-0.858
					c-0.552,2.011-0.979,3.681-1.067,5.706C21.212,66.529,21.464,68.36,22.453,70.118"/>
			</g>
		</g>
	</g>
	<g id="G_x28__T1_T1_T1_L1__x29__L1_L1_L1_L1_00000149377280695998484830000004043580197838795699_">
		<g>
			<defs>
				
					<rect id="SVGID_00000065778604292354557970000015382466829806728892_" x="12.16" y="28.371" transform="matrix(0.9707 -0.2401 0.2401 0.9707 -14.2847 15.1843)" width="86.004" height="75.668"/>
			</defs>
			<clipPath id="SVGID_00000139269066638753844200000015861441073191670199_">
				<use xlink:href="#SVGID_00000065778604292354557970000015382466829806728892_"  style="overflow:visible;"/>
			</clipPath>
			<polygon style="clip-path:url(#SVGID_00000139269066638753844200000015861441073191670199_);fill:#9F9EB1;" points="
				80.227,57.576 79.501,55.804 78.124,54.046 76.231,52.879 74.179,51.968 71.92,51.876 71.917,51.876 68.978,52.663 
				67.168,53.805 65.634,55.283 64.916,57.282 64.528,58.856 64.415,60.463 64.275,60.869 64.336,61.683 64.504,62.075 
				65.149,64.283 66.034,66.049 67.541,67.312 69.206,68.34 71.145,68.69 72.593,68.885 74.388,68.751 76.018,68.179 77.898,66.994 
				79.438,65.452 80.233,63.407 81,60.792 80.882,59.228 			"/>
			<g style="clip-path:url(#SVGID_00000139269066638753844200000015861441073191670199_);">
				<defs>
					
						<rect id="SVGID_00000139275988755233618590000001474633190923979661_" x="71.78" y="25.992" transform="matrix(0.9972 -0.0749 0.0749 0.9972 -2.7015 6.0425)" width="14.806" height="26.07"/>
				</defs>
				<clipPath id="SVGID_00000022546462177240401620000008299602351384025737_">
					<use xlink:href="#SVGID_00000139275988755233618590000001474633190923979661_"  style="overflow:visible;"/>
				</clipPath>
				<path style="clip-path:url(#SVGID_00000022546462177240401620000008299602351384025737_);fill:#5699DE;" d="M75.095,30.428
					c2.146-1.445,8.868-2.471,8.868-2.471c1.036,1.73,0.638,1.878,1.238,4.426c0.026,0.105,0.105,1.7,0.136,1.797
					c0.172,0.547,0.357,4.934-0.999,7.997c-0.198,0.449-0.297,0.94-0.46,1.473c1.006,0.358,1.958,0.697,2.929,1.042
					c-0.945,1.576-8.089,6.339-11.182,7.448c-1.49-3.636-2.682-7.359-3.596-11.422c1.264,0.281,2.256,0.5,3.457,0.767
					c0.499-2.025,0.882-3.706,0.915-5.732C76.431,33.982,76.13,32.158,75.095,30.428"/>
			</g>
			<g style="clip-path:url(#SVGID_00000139269066638753844200000015861441073191670199_);">
				<defs>
					<polygon id="SVGID_00000060727501280966262490000004084733120619058338_" points="79.061,64.823 72.127,77.88 95.205,90.09 
						102.138,77.031 					"/>
				</defs>
				<clipPath id="SVGID_00000043456790070284586130000009964149469863488179_">
					<use xlink:href="#SVGID_00000060727501280966262490000004084733120619058338_"  style="overflow:visible;"/>
				</clipPath>
				<path style="clip-path:url(#SVGID_00000043456790070284586130000009964149469863488179_);fill:#AD70D6;" d="M96.601,78.588
					c0.081,2.583-2.632,8.806-2.632,8.806c-2.019-0.047-1.932-0.463-4.411-1.314c-0.102-0.034-1.498-0.817-1.596-0.843
					c-0.555-0.147-4.372-2.329-6.246-5.106c-0.275-0.407-0.639-0.752-1.003-1.173c-0.841,0.658-1.635,1.281-2.445,1.917
					c-0.832-1.639-1.061-10.211-0.352-13.413c3.876,0.679,7.667,1.658,11.598,3.051c-0.911,0.917-1.627,1.638-2.492,2.511
					c1.45,1.5,2.671,2.719,4.37,3.828C92.877,77.821,94.583,78.539,96.601,78.588"/>
			</g>
			<g style="clip-path:url(#SVGID_00000139269066638753844200000015861441073191670199_);">
				<defs>
					<polygon id="SVGID_00000083062329637130193260000002925947321078742944_" points="56.798,52.934 36.19,68.952 45.287,80.612 
						65.894,64.595 					"/>
				</defs>
				<clipPath id="SVGID_00000041989398613460149700000005874329613944772771_">
					<use xlink:href="#SVGID_00000083062329637130193260000002925947321078742944_"  style="overflow:visible;"/>
				</clipPath>
				<path style="clip-path:url(#SVGID_00000041989398613460149700000005874329613944772771_);fill:#E1D153;" d="M46.131,74.932
					c-2.393-0.983-6.971-6.003-6.971-6.003c0.87-1.818,1.213-1.57,3.007-3.479c0.073-0.078,1.36-1.029,1.424-1.107
					c0.361-0.445,3.917-3.028,7.224-3.598c0.484-0.083,0.949-0.273,1.483-0.433c-0.258-1.035-0.502-2.014-0.751-3.011
					c1.838-0.087,9.768,3.214,12.405,5.17c-2.209,3.252-4.655,6.302-7.538,9.313c-0.466-1.205-0.832-2.152-1.274-3.298
					c-1.965,0.707-3.579,1.319-5.29,2.413C48.357,71.854,47.002,73.114,46.131,74.932"/>
			</g>
		</g>
	</g>
</g>
</svg>
