<?xml version="1.0" encoding="iso-8859-1"?>
<!-- Generator: Adobe Illustrator 26.0.1, SVG Export Plug-In . SVG Version: 6.00 Build 0)  -->
<svg version="1.1" xmlns="http://www.w3.org/2000/svg" xmlns:xlink="http://www.w3.org/1999/xlink" x="0px" y="0px"
	 viewBox="0 0 100 100" style="enable-background:new 0 0 100 100;" xml:space="preserve">
<g id="Layer_1">
	<g id="G_x28__T1_T1_T1_L3__x29__T1_L1_00000160880609036569956090000013084609429133383855_">
		<g>
			<defs>
				<rect id="SVGID_1_" x="-1" y="3" width="102.767" height="96.721"/>
			</defs>
			<clipPath id="SVGID_00000078756262773608285540000017091040872348950196_">
				<use xlink:href="#SVGID_1_"  style="overflow:visible;"/>
			</clipPath>
			<g style="clip-path:url(#SVGID_00000078756262773608285540000017091040872348950196_);">
				<defs>
					<rect id="SVGID_00000148644201571879261170000006252078625684903837_" x="-1" y="3" width="102.767" height="96.721"/>
				</defs>
				<clipPath id="SVGID_00000052811603398306966930000017903460976014144691_">
					<use xlink:href="#SVGID_00000148644201571879261170000006252078625684903837_"  style="overflow:visible;"/>
				</clipPath>
				<g style="clip-path:url(#SVGID_00000052811603398306966930000017903460976014144691_);">
					<defs>
						<rect id="SVGID_00000099639178630195856740000010079878908289708726_" x="-1" y="3" width="102.767" height="96.721"/>
					</defs>
					<clipPath id="SVGID_00000162329726195451024260000007336431684046980004_">
						<use xlink:href="#SVGID_00000099639178630195856740000010079878908289708726_"  style="overflow:visible;"/>
					</clipPath>
					<g style="opacity:0.99;clip-path:url(#SVGID_00000162329726195451024260000007336431684046980004_);">
						<g>
							<defs>
								
									<rect id="SVGID_00000109722817100747724860000004766886185619688105_" x="19.408" y="14.642" width="47.766" height="52.098"/>
							</defs>
							<clipPath id="SVGID_00000029037636464398523240000014130632633076556930_">
								<use xlink:href="#SVGID_00000109722817100747724860000004766886185619688105_"  style="overflow:visible;"/>
							</clipPath>
							<g style="clip-path:url(#SVGID_00000029037636464398523240000014130632633076556930_);">
								<defs>
									<polygon id="SVGID_00000178167236456985718950000018365606204395456386_" points="19.412,17.375 21.774,66.739 
										67.17,64.011 64.809,14.647 									"/>
								</defs>
								<clipPath id="SVGID_00000084489021190198737080000009433840154505815948_">
									<use xlink:href="#SVGID_00000178167236456985718950000018365606204395456386_"  style="overflow:visible;"/>
								</clipPath>
								<g style="clip-path:url(#SVGID_00000084489021190198737080000009433840154505815948_);">
									<defs>
										
											<rect id="SVGID_00000083085091674146250610000018320670231989442735_" x="24.097" y="15.928" width="34.56" height="22.64"/>
									</defs>
									<clipPath id="SVGID_00000037690435834960195180000014933366029876080517_">
										<use xlink:href="#SVGID_00000083085091674146250610000018320670231989442735_"  style="overflow:visible;"/>
									</clipPath>
									<g style="clip-path:url(#SVGID_00000037690435834960195180000014933366029876080517_);">
										<defs>
											
												<rect id="SVGID_00000049905496191461895540000001617952685070854561_" x="24.097" y="15.928" width="34.56" height="22.64"/>
										</defs>
										<clipPath id="SVGID_00000003789373385872386940000014862669272748924560_">
											<use xlink:href="#SVGID_00000049905496191461895540000001617952685070854561_"  style="overflow:visible;"/>
										</clipPath>
										<path style="clip-path:url(#SVGID_00000003789373385872386940000014862669272748924560_);fill:#5699DE;" d="
											M58.656,26.128c-2.13,2-4.229,4.11-6.53,6.1c-1.78,1.55-3.679,3.03-5.83,4.36c-0.329-1.76-0.57-3.06-0.849-4.56
											c-2.46,0.35-5.101,0.24-7.291,1.19c-2.12,0.94-4.29,2.42-5.3,5.35c-3.03-1.93-5.83-3.73-8.76-5.6
											c1.57-3.19,3.01-6.32,5.88-8.47c0.56-0.41,0.991-0.98,1.44-1.51c1.31-1.5,3.13-1.93,4.88-2.32
											c1.81-0.4,3.72-0.34,5.6-0.49c0.531-0.05,1.08-0.07,1.63-0.1c0.01-1.52,0.02-2.84,0.01-4.15
											C46.276,15.998,57.707,23.688,58.656,26.128"/>
									</g>
								</g>
								<g style="clip-path:url(#SVGID_00000084489021190198737080000009433840154505815948_);">
									<defs>
										
											<rect id="SVGID_00000106137049409828560710000014450420351473228447_" x="21.074" y="38.618" width="25.162" height="26.98"/>
									</defs>
									<clipPath id="SVGID_00000116216358347090530150000012564285953908927162_">
										<use xlink:href="#SVGID_00000106137049409828560710000014450420351473228447_"  style="overflow:visible;"/>
									</clipPath>
									<g style="clip-path:url(#SVGID_00000116216358347090530150000012564285953908927162_);">
										<defs>
											
												<rect id="SVGID_00000162351510574124829480000005926850688897034642_" x="21.074" y="38.618" width="25.162" height="26.98"/>
										</defs>
										<clipPath id="SVGID_00000132790553344729407510000004285226720234428826_">
											<use xlink:href="#SVGID_00000162351510574124829480000005926850688897034642_"  style="overflow:visible;"/>
										</clipPath>
										<path style="clip-path:url(#SVGID_00000132790553344729407510000004285226720234428826_);fill:#E1D153;" d="
											M46.237,54.379c-0.03,0.939-0.07,1.6-0.09,2.25c-0.07,2.619-0.13,5.239-0.2,7.85c-0.01,0.28-0.13,0.559-0.2,0.82
											l-5.01,0.3c-0.37-0.09-0.75-0.18-1.13-0.271c-2.28-0.599-4.63-1.029-6.83-1.84c-1.16-0.429-2.27-1.339-3.09-2.309
											c-1.65-1.96-3.08-4.101-4.67-6.271c-1.04,0.7-2.18,1.46-3.34,2.25c-1.2-3.08-0.47-16.929,0.99-18.539
											c3.08,0.989,6.23,1.82,9.41,2.9c1.89,0.65,3.81,1.39,5.71,2.29c-1.3,1.199-2.37,2.19-3.47,3.199
											c1.61,2.06,3.18,4.06,4.82,6.141C41.477,53.269,43.287,55.939,46.237,54.379"/>
									</g>
								</g>
								<g style="clip-path:url(#SVGID_00000084489021190198737080000009433840154505815948_);">
									<defs>
										
											<rect id="SVGID_00000020392364965931059670000016181323677477003907_" x="47.887" y="30.678" width="18.86" height="34.04"/>
									</defs>
									<clipPath id="SVGID_00000018921546621459724560000002013679493925429180_">
										<use xlink:href="#SVGID_00000020392364965931059670000016181323677477003907_"  style="overflow:visible;"/>
									</clipPath>
									<g style="clip-path:url(#SVGID_00000018921546621459724560000002013679493925429180_);">
										<defs>
											
												<rect id="SVGID_00000145049952678305029970000016768734739750145955_" x="47.887" y="30.678" width="18.86" height="34.04"/>
										</defs>
										<clipPath id="SVGID_00000140695336518468089180000012835429624717127610_">
											<use xlink:href="#SVGID_00000145049952678305029970000016768734739750145955_"  style="overflow:visible;"/>
										</clipPath>
										<path style="clip-path:url(#SVGID_00000140695336518468089180000012835429624717127610_);fill:#AD70D6;" d="
											M64.946,39.469c2.32,4.39,0.57,8.38-1.29,12.37c-0.26,0.58-0.409,1.22-0.64,1.92c1.29,0.489,2.5,0.95,3.731,1.42
											c-1.261,2.05-10.611,8.149-14.631,9.54c-1.33-3.57-2.45-7.2-3.35-11.02c-0.32-1.33-0.62-2.67-0.88-4.04
											c1.61,0.4,2.88,0.7,4.41,1.09c0.711-2.65,1.88-5.27,2.001-7.93c0.099-2.31,0.089-5.06-2.261-6.77
											c0.6-0.39,1.19-0.79,1.761-1.16c2.17-1.43,4.239-2.8,6.37-4.21c2.029,2.47,4.04,5.02,4.729,8.37
											C64.926,39.189,64.896,39.349,64.946,39.469"/>
									</g>
								</g>
							</g>
						</g>
					</g>
				</g>
				<g style="clip-path:url(#SVGID_00000052811603398306966930000017903460976014144691_);">
					<defs>
						<polygon id="SVGID_00000160176480871848381720000007219394610303532170_" points="64.154,38.848 77.044,52.974 
							101.767,29.573 88.876,15.447 						"/>
					</defs>
					<clipPath id="SVGID_00000085945553586607384220000004826011169561073041_">
						<use xlink:href="#SVGID_00000160176480871848381720000007219394610303532170_"  style="overflow:visible;"/>
					</clipPath>
					<g style="clip-path:url(#SVGID_00000085945553586607384220000004826011169561073041_);">
						<defs>
							<rect id="SVGID_00000132774767576873067450000001976393531111692729_" x="66.867" y="22.968" width="31.1" height="23.694"/>
						</defs>
						<clipPath id="SVGID_00000011024051966401106390000017042216658918359701_">
							<use xlink:href="#SVGID_00000132774767576873067450000001976393531111692729_"  style="overflow:visible;"/>
						</clipPath>
						<g style="clip-path:url(#SVGID_00000011024051966401106390000017042216658918359701_);">
							<defs>
								
									<rect id="SVGID_00000168081858008734273250000007358755103751257988_" x="66.867" y="22.968" width="31.1" height="23.694"/>
							</defs>
							<clipPath id="SVGID_00000073691862306061105100000013056957600495451042_">
								<use xlink:href="#SVGID_00000168081858008734273250000007358755103751257988_"  style="overflow:visible;"/>
							</clipPath>
							<path style="clip-path:url(#SVGID_00000073691862306061105100000013056957600495451042_);fill:#55C95A;" d="M97.967,29.958
								c-0.931,2.48-1.391,2.2-3.49,4.91c-0.09,0.11-1.64,1.51-1.71,1.62c-0.42,0.62-4.7,4.42-8.88,5.57
								c-0.61,0.16-1.191,0.47-1.86,0.74c0.45,1.32,0.86,2.57,1.29,3.84c-2.35,0.34-12.86-3.02-16.451-5.25
								c2.491-4.51,5.301-8.79,8.681-13.07c0.72,1.52,1.29,2.71,1.98,4.15c2.45-1.16,4.45-2.15,6.53-3.79
								c1.809-1.43,3.41-3.23,4.34-5.71C91.567,23.958,97.967,29.958,97.967,29.958"/>
						</g>
					</g>
				</g>
				<g style="clip-path:url(#SVGID_00000052811603398306966930000017903460976014144691_);">
					<defs>
						<polygon id="SVGID_00000122698843602898030120000002236425546469040278_" points="-1,22.341 32.5,24.474 33.886,5.133 
							0.385,3.001 						"/>
					</defs>
					<clipPath id="SVGID_00000104692376404120363760000013438631710741004474_">
						<use xlink:href="#SVGID_00000122698843602898030120000002236425546469040278_"  style="overflow:visible;"/>
					</clipPath>
					<g style="clip-path:url(#SVGID_00000104692376404120363760000013438631710741004474_);">
						<defs>
							<rect id="SVGID_00000019639707090063408230000006633612751345268372_" x="3.237" y="4.738" width="29.24" height="18.58"/>
						</defs>
						<clipPath id="SVGID_00000075150436948507932940000000486004902738016442_">
							<use xlink:href="#SVGID_00000019639707090063408230000006633612751345268372_"  style="overflow:visible;"/>
						</clipPath>
						<g style="clip-path:url(#SVGID_00000075150436948507932940000000486004902738016442_);">
							<defs>
								<rect id="SVGID_00000028303968201182835980000010672337791636744097_" x="3.237" y="4.738" width="29.24" height="18.58"/>
							</defs>
							<clipPath id="SVGID_00000125568605334800231790000013074017571882468511_">
								<use xlink:href="#SVGID_00000028303968201182835980000010672337791636744097_"  style="overflow:visible;"/>
							</clipPath>
							<path style="clip-path:url(#SVGID_00000125568605334800231790000013074017571882468511_);fill:#E33A3A;" d="M25.107,4.868
								c1.83,1.51,6.55,11.63,7.37,15.83c-4.91,1.28-9.88,2.16-15.23,2.62c0.59-1.59,1.06-2.84,1.63-4.35
								c-2.49-1.01-4.56-1.8-7.13-2.21c-2.25-0.36-4.64-0.3-7.04,0.74c-1.43-3.05-1.47-11.95-1.47-11.95
								c2.4-1.03,2.52-0.48,5.88-0.81c0.13-0.01,2.18,0.17,2.31,0.15c0.73-0.12,6.36,0.42,10,2.73c0.54,0.34,1.15,0.55,1.79,0.86
								C23.866,7.239,24.476,6.069,25.107,4.868"/>
						</g>
					</g>
				</g>
				<g style="clip-path:url(#SVGID_00000052811603398306966930000017903460976014144691_);">
					<defs>
						<polygon id="SVGID_00000029019214146848250080000006365519915642205573_" points="12.557,97.479 31.57,98.335 33.402,64.185 
							14.387,63.33 						"/>
					</defs>
					<clipPath id="SVGID_00000033332923069646381690000000056746399410754725_">
						<use xlink:href="#SVGID_00000029019214146848250080000006365519915642205573_"  style="overflow:visible;"/>
					</clipPath>
					<g style="clip-path:url(#SVGID_00000033332923069646381690000000056746399410754725_);">
						<defs>
							<rect id="SVGID_00000109004089243201449580000014664294567293500843_" x="14.196" y="64.318" width="18.19" height="30.18"/>
						</defs>
						<clipPath id="SVGID_00000053506002309753303890000008754675373513225102_">
							<use xlink:href="#SVGID_00000109004089243201449580000014664294567293500843_"  style="overflow:visible;"/>
						</clipPath>
						<g style="clip-path:url(#SVGID_00000053506002309753303890000008754675373513225102_);">
							<defs>
								
									<rect id="SVGID_00000070806651689267736320000005426341862581693887_" x="14.196" y="64.318" width="18.19" height="30.18"/>
							</defs>
							<clipPath id="SVGID_00000039818389366241026240000016155452567381123243_">
								<use xlink:href="#SVGID_00000070806651689267736320000005426341862581693887_"  style="overflow:visible;"/>
							</clipPath>
							<path style="clip-path:url(#SVGID_00000039818389366241026240000016155452567381123243_);fill:#F26C2B;" d="M29.697,64.318
								c1.3,4.96,2.2,9.99,2.69,15.43c-1.57-0.57-2.8-1.01-4.28-1.539c-0.98,2.559-1.74,4.689-2.12,7.319
								c-0.34,2.3-0.26,4.72,0.78,7.141c-2.98,1.54-11.72,1.829-11.72,1.829c-1.04-2.409-0.5-2.539-0.85-5.95
								c-0.01-0.14,0.15-2.23,0.13-2.36c-0.13-0.74,0.36-6.479,2.6-10.26c0.33-0.549,0.54-1.17,0.83-1.839
								c-1.22-0.63-2.38-1.221-3.56-1.821C15.667,70.368,25.567,65.278,29.697,64.318"/>
						</g>
					</g>
				</g>
				<polygon style="clip-path:url(#SVGID_00000052811603398306966930000017903460976014144691_);fill:#9F9EB1;" points="
					82.73,76.978 80.842,77.566 78.823,78.22 76.762,79.594 75.314,81.588 74.136,83.78 73.848,86.261 73.848,86.273 74.474,89.582 
					75.588,91.677 77.097,93.493 79.25,94.452 80.959,95.011 82.727,95.27 83.167,95.459 84.071,95.459 84.519,95.305 
					87.016,94.776 89.045,93.944 90.565,92.385 91.842,90.631 92.39,88.52 92.726,86.934 92.726,84.943 92.227,83.094 
					91.073,80.919 89.494,79.089 87.296,78.041 84.464,76.978 				"/>
				<g style="clip-path:url(#SVGID_00000052811603398306966930000017903460976014144691_);">
					<defs>
						
							<rect id="SVGID_00000069371076387351392200000003928897036636703622_" x="43.549" y="72.96" transform="matrix(0.7465 -0.6653 0.6653 0.7465 -39.9379 59.8595)" width="30.098" height="18.779"/>
					</defs>
					<clipPath id="SVGID_00000183250962820538494470000007690386623680359048_">
						<use xlink:href="#SVGID_00000069371076387351392200000003928897036636703622_"  style="overflow:visible;"/>
					</clipPath>
					<path style="clip-path:url(#SVGID_00000183250962820538494470000007690386623680359048_);fill:#523742;" d="M65.171,72.62
						c0.966-0.915,0.053-3.007,2.027-3.24c2.72,3.457,5.413,6.87,8.278,10.506c-3.606,2.355-7.56,3.856-11.346,5.65
						c-0.391-0.107-0.718-0.204-1.115-0.306c0.187-1.412,0.39-2.852,0.589-4.329c-2.536-1.491-4.782-0.359-6.642,0.829
						c-3.03,1.937-2.111,4.922-1.34,7.396c0.565,0.783,0.959,1.315,1.477,2.033c-2.545,1.398-4.857,2.666-7.211,3.947
						c-0.181-0.173-0.387-0.284-0.435-0.442c-0.688-1.945-1.697-3.859-1.936-5.856c-0.591-5.006,0.683-9.53,4.466-13.129
						c2.427-2.297,5.197-3.774,8.611-3.641C62.092,72.096,63.575,72.408,65.171,72.62"/>
				</g>
			</g>
		</g>
	</g>
</g>
<g id="Layer_2">
	<g id="Layer_3">
	</g>
</g>
</svg>
