<?xml version="1.0" encoding="iso-8859-1"?>
<!-- Generator: Adobe Illustrator 26.0.1, SVG Export Plug-In . SVG Version: 6.00 Build 0)  -->
<svg version="1.1" xmlns="http://www.w3.org/2000/svg" xmlns:xlink="http://www.w3.org/1999/xlink" x="0px" y="0px"
	 viewBox="0 0 100 100" style="enable-background:new 0 0 100 100;" xml:space="preserve">
<g id="Layer_1">
	<g id="G_x28__T1_T1_T1_L3__x29__T1_L1_00000104680430213873256800000005099375186464933258_">
		<g>
			<defs>
				<rect id="SVGID_1_" x="-2" y="2" width="102.767" height="96.721"/>
			</defs>
			<clipPath id="SVGID_00000165212327779771813030000005906123458632758425_">
				<use xlink:href="#SVGID_1_"  style="overflow:visible;"/>
			</clipPath>
			<g style="clip-path:url(#SVGID_00000165212327779771813030000005906123458632758425_);">
				<defs>
					<rect id="SVGID_00000107572810631821772360000003451872833873677734_" x="-2" y="2" width="102.767" height="96.721"/>
				</defs>
				<clipPath id="SVGID_00000052820970704903918130000012845720622078851999_">
					<use xlink:href="#SVGID_00000107572810631821772360000003451872833873677734_"  style="overflow:visible;"/>
				</clipPath>
				<g style="clip-path:url(#SVGID_00000052820970704903918130000012845720622078851999_);">
					<defs>
						<rect id="SVGID_00000066476462958772500630000000548562281540434622_" x="-2" y="2" width="102.767" height="96.721"/>
					</defs>
					<clipPath id="SVGID_00000183239455882691385310000004211887384352010891_">
						<use xlink:href="#SVGID_00000066476462958772500630000000548562281540434622_"  style="overflow:visible;"/>
					</clipPath>
					<g style="opacity:0.99;clip-path:url(#SVGID_00000183239455882691385310000004211887384352010891_);">
						<g>
							<defs>
								
									<rect id="SVGID_00000061441347763594363580000016502020642382898836_" x="18.408" y="13.642" width="47.766" height="52.098"/>
							</defs>
							<clipPath id="SVGID_00000060717433959637362240000010009200673418069929_">
								<use xlink:href="#SVGID_00000061441347763594363580000016502020642382898836_"  style="overflow:visible;"/>
							</clipPath>
							<g style="clip-path:url(#SVGID_00000060717433959637362240000010009200673418069929_);">
								<defs>
									<polygon id="SVGID_00000065767629807546376740000010968039317122849932_" points="18.412,16.375 20.774,65.739 
										66.17,63.011 63.809,13.647 									"/>
								</defs>
								<clipPath id="SVGID_00000166633290495842423440000006609475439752077462_">
									<use xlink:href="#SVGID_00000065767629807546376740000010968039317122849932_"  style="overflow:visible;"/>
								</clipPath>
								<g style="clip-path:url(#SVGID_00000166633290495842423440000006609475439752077462_);">
									<defs>
										
											<rect id="SVGID_00000134245719897150710120000016199574765350508184_" x="23.097" y="14.928" width="34.56" height="22.64"/>
									</defs>
									<clipPath id="SVGID_00000162326056455094091140000016940674492574669996_">
										<use xlink:href="#SVGID_00000134245719897150710120000016199574765350508184_"  style="overflow:visible;"/>
									</clipPath>
									<g style="clip-path:url(#SVGID_00000162326056455094091140000016940674492574669996_);">
										<defs>
											
												<rect id="SVGID_00000036932894847913723210000007092566348077455275_" x="23.097" y="14.928" width="34.56" height="22.64"/>
										</defs>
										<clipPath id="SVGID_00000009563313112270994840000001129986201418894741_">
											<use xlink:href="#SVGID_00000036932894847913723210000007092566348077455275_"  style="overflow:visible;"/>
										</clipPath>
										<path style="clip-path:url(#SVGID_00000009563313112270994840000001129986201418894741_);fill:#E1D153;" d="
											M57.656,25.128c-2.13,2-4.229,4.11-6.53,6.1c-1.78,1.55-3.679,3.03-5.83,4.36c-0.329-1.76-0.57-3.06-0.849-4.56
											c-2.46,0.35-5.101,0.24-7.291,1.19c-2.12,0.94-4.29,2.42-5.3,5.35c-3.03-1.93-5.83-3.73-8.76-5.6
											c1.57-3.19,3.01-6.32,5.88-8.47c0.56-0.41,0.991-0.98,1.44-1.51c1.31-1.5,3.13-1.93,4.88-2.32
											c1.81-0.4,3.72-0.34,5.6-0.49c0.531-0.05,1.08-0.07,1.63-0.1c0.01-1.52,0.02-2.84,0.01-4.15
											C45.276,14.998,56.707,22.688,57.656,25.128"/>
									</g>
								</g>
								<g style="clip-path:url(#SVGID_00000166633290495842423440000006609475439752077462_);">
									<defs>
										
											<rect id="SVGID_00000045583805302644744500000016394296175692826296_" x="20.074" y="37.618" width="25.162" height="26.98"/>
									</defs>
									<clipPath id="SVGID_00000163762535940825115710000012686786317894918025_">
										<use xlink:href="#SVGID_00000045583805302644744500000016394296175692826296_"  style="overflow:visible;"/>
									</clipPath>
									<g style="clip-path:url(#SVGID_00000163762535940825115710000012686786317894918025_);">
										<defs>
											
												<rect id="SVGID_00000067198305112891615980000008434780738864623016_" x="20.074" y="37.618" width="25.162" height="26.98"/>
										</defs>
										<clipPath id="SVGID_00000101825576784042533980000007470761392229695679_">
											<use xlink:href="#SVGID_00000067198305112891615980000008434780738864623016_"  style="overflow:visible;"/>
										</clipPath>
										<path style="clip-path:url(#SVGID_00000101825576784042533980000007470761392229695679_);fill:#AD70D6;" d="
											M45.237,53.379c-0.03,0.939-0.07,1.6-0.09,2.25c-0.07,2.619-0.13,5.239-0.2,7.85c-0.01,0.28-0.13,0.559-0.2,0.82
											l-5.01,0.3c-0.37-0.09-0.75-0.18-1.13-0.271c-2.28-0.599-4.63-1.029-6.83-1.84c-1.16-0.429-2.27-1.339-3.09-2.309
											c-1.65-1.96-3.08-4.101-4.67-6.271c-1.04,0.7-2.18,1.46-3.34,2.25c-1.2-3.08-0.47-16.929,0.99-18.539
											c3.08,0.989,6.23,1.82,9.41,2.9c1.89,0.65,3.81,1.39,5.71,2.29c-1.3,1.199-2.37,2.19-3.47,3.199
											c1.61,2.06,3.18,4.06,4.82,6.141C40.477,52.269,42.287,54.939,45.237,53.379"/>
									</g>
								</g>
								<g style="clip-path:url(#SVGID_00000166633290495842423440000006609475439752077462_);">
									<defs>
										
											<rect id="SVGID_00000155106744790770188610000002640793314472236698_" x="46.887" y="29.678" width="18.86" height="34.04"/>
									</defs>
									<clipPath id="SVGID_00000096749776626176291000000006643441389521680029_">
										<use xlink:href="#SVGID_00000155106744790770188610000002640793314472236698_"  style="overflow:visible;"/>
									</clipPath>
									<g style="clip-path:url(#SVGID_00000096749776626176291000000006643441389521680029_);">
										<defs>
											
												<rect id="SVGID_00000074438694289318722160000013864358104651341996_" x="46.887" y="29.678" width="18.86" height="34.04"/>
										</defs>
										<clipPath id="SVGID_00000058584769668563283640000011341193061602522256_">
											<use xlink:href="#SVGID_00000074438694289318722160000013864358104651341996_"  style="overflow:visible;"/>
										</clipPath>
										<path style="clip-path:url(#SVGID_00000058584769668563283640000011341193061602522256_);fill:#5699DE;" d="
											M63.946,38.469c2.32,4.39,0.57,8.38-1.29,12.37c-0.26,0.58-0.409,1.22-0.64,1.92c1.29,0.489,2.5,0.95,3.731,1.42
											c-1.261,2.05-10.611,8.149-14.631,9.54c-1.33-3.57-2.45-7.2-3.35-11.02c-0.32-1.33-0.62-2.67-0.88-4.04
											c1.61,0.4,2.88,0.7,4.41,1.09c0.711-2.65,1.88-5.27,2.001-7.93c0.099-2.31,0.089-5.06-2.261-6.77
											c0.6-0.39,1.19-0.79,1.761-1.16c2.17-1.43,4.239-2.8,6.37-4.21c2.029,2.47,4.04,5.02,4.729,8.37
											C63.926,38.189,63.896,38.349,63.946,38.469"/>
									</g>
								</g>
							</g>
						</g>
					</g>
				</g>
				<g style="clip-path:url(#SVGID_00000052820970704903918130000012845720622078851999_);">
					<defs>
						<polygon id="SVGID_00000104707732060375227300000005267533204192118704_" points="63.154,37.848 76.044,51.974 
							100.767,28.573 87.876,14.447 						"/>
					</defs>
					<clipPath id="SVGID_00000175280452193512135860000005900622527755153060_">
						<use xlink:href="#SVGID_00000104707732060375227300000005267533204192118704_"  style="overflow:visible;"/>
					</clipPath>
					<g style="clip-path:url(#SVGID_00000175280452193512135860000005900622527755153060_);">
						<defs>
							<rect id="SVGID_00000036216939039626921330000003027322092766882179_" x="65.867" y="21.968" width="31.1" height="23.694"/>
						</defs>
						<clipPath id="SVGID_00000163789105133314872220000005341315579385907376_">
							<use xlink:href="#SVGID_00000036216939039626921330000003027322092766882179_"  style="overflow:visible;"/>
						</clipPath>
						<g style="clip-path:url(#SVGID_00000163789105133314872220000005341315579385907376_);">
							<defs>
								
									<rect id="SVGID_00000145037954846785687720000007915039829756480642_" x="65.867" y="21.968" width="31.1" height="23.694"/>
							</defs>
							<clipPath id="SVGID_00000098211909707601384810000007235226390746779286_">
								<use xlink:href="#SVGID_00000145037954846785687720000007915039829756480642_"  style="overflow:visible;"/>
							</clipPath>
							<path style="clip-path:url(#SVGID_00000098211909707601384810000007235226390746779286_);fill:#55C95A;" d="M96.967,28.958
								c-0.931,2.48-1.391,2.2-3.49,4.91c-0.09,0.11-1.64,1.51-1.71,1.62c-0.42,0.62-4.7,4.42-8.88,5.57
								c-0.61,0.16-1.191,0.47-1.86,0.74c0.45,1.32,0.86,2.57,1.29,3.84c-2.35,0.34-12.86-3.02-16.451-5.25
								c2.491-4.51,5.301-8.79,8.681-13.07c0.72,1.52,1.29,2.71,1.98,4.15c2.45-1.16,4.45-2.15,6.53-3.79
								c1.809-1.43,3.41-3.23,4.34-5.71C90.567,22.958,96.967,28.958,96.967,28.958"/>
						</g>
					</g>
				</g>
				<g style="clip-path:url(#SVGID_00000052820970704903918130000012845720622078851999_);">
					<defs>
						<polygon id="SVGID_00000045577591805035706890000009218632117661586098_" points="-2,21.341 31.5,23.474 32.886,4.133 
							-0.615,2.001 						"/>
					</defs>
					<clipPath id="SVGID_00000101790680125370082070000003610169711271684502_">
						<use xlink:href="#SVGID_00000045577591805035706890000009218632117661586098_"  style="overflow:visible;"/>
					</clipPath>
					<g style="clip-path:url(#SVGID_00000101790680125370082070000003610169711271684502_);">
						<defs>
							<rect id="SVGID_00000093870529081435792680000006497183432675387296_" x="2.237" y="3.738" width="29.24" height="18.58"/>
						</defs>
						<clipPath id="SVGID_00000074405601765559339930000013768155260765545124_">
							<use xlink:href="#SVGID_00000093870529081435792680000006497183432675387296_"  style="overflow:visible;"/>
						</clipPath>
						<g style="clip-path:url(#SVGID_00000074405601765559339930000013768155260765545124_);">
							<defs>
								<rect id="SVGID_00000133518101082487493570000016510261434791798171_" x="2.237" y="3.738" width="29.24" height="18.58"/>
							</defs>
							<clipPath id="SVGID_00000165912644873258772140000012985864241736316332_">
								<use xlink:href="#SVGID_00000133518101082487493570000016510261434791798171_"  style="overflow:visible;"/>
							</clipPath>
							<path style="clip-path:url(#SVGID_00000165912644873258772140000012985864241736316332_);fill:#E33A3A;" d="M24.107,3.868
								c1.83,1.51,6.55,11.63,7.37,15.83c-4.91,1.28-9.88,2.16-15.23,2.62c0.59-1.59,1.06-2.84,1.63-4.35
								c-2.49-1.01-4.56-1.8-7.13-2.21c-2.25-0.36-4.64-0.3-7.04,0.74c-1.43-3.05-1.47-11.95-1.47-11.95
								c2.4-1.03,2.52-0.48,5.88-0.81c0.13-0.01,2.18,0.17,2.31,0.15c0.73-0.12,6.36,0.42,10,2.73c0.54,0.34,1.15,0.55,1.79,0.86
								C22.866,6.239,23.476,5.069,24.107,3.868"/>
						</g>
					</g>
				</g>
				<g style="clip-path:url(#SVGID_00000052820970704903918130000012845720622078851999_);">
					<defs>
						<polygon id="SVGID_00000145761414404717998960000010321127617544211099_" points="11.557,96.479 30.57,97.335 32.402,63.185 
							13.387,62.33 						"/>
					</defs>
					<clipPath id="SVGID_00000016051780011555121000000017111308750730735024_">
						<use xlink:href="#SVGID_00000145761414404717998960000010321127617544211099_"  style="overflow:visible;"/>
					</clipPath>
					<g style="clip-path:url(#SVGID_00000016051780011555121000000017111308750730735024_);">
						<defs>
							<rect id="SVGID_00000174574680948126302650000015106952660760680368_" x="13.196" y="63.318" width="18.19" height="30.18"/>
						</defs>
						<clipPath id="SVGID_00000132809695802827711570000012383434644026661557_">
							<use xlink:href="#SVGID_00000174574680948126302650000015106952660760680368_"  style="overflow:visible;"/>
						</clipPath>
						<g style="clip-path:url(#SVGID_00000132809695802827711570000012383434644026661557_);">
							<defs>
								
									<rect id="SVGID_00000013905143917662367170000000101581966348098464_" x="13.196" y="63.318" width="18.19" height="30.18"/>
							</defs>
							<clipPath id="SVGID_00000070117216161080087370000015850922838771546508_">
								<use xlink:href="#SVGID_00000013905143917662367170000000101581966348098464_"  style="overflow:visible;"/>
							</clipPath>
							<path style="clip-path:url(#SVGID_00000070117216161080087370000015850922838771546508_);fill:#F26C2B;" d="M28.697,63.318
								c1.3,4.96,2.2,9.99,2.69,15.43c-1.57-0.57-2.8-1.01-4.28-1.539c-0.98,2.559-1.74,4.689-2.12,7.319
								c-0.34,2.3-0.26,4.72,0.78,7.141c-2.98,1.54-11.72,1.829-11.72,1.829c-1.04-2.409-0.5-2.539-0.85-5.95
								c-0.01-0.14,0.15-2.23,0.13-2.36c-0.13-0.74,0.36-6.479,2.6-10.26c0.33-0.549,0.54-1.17,0.83-1.839
								c-1.22-0.63-2.38-1.221-3.56-1.821C14.667,69.368,24.567,64.278,28.697,63.318"/>
						</g>
					</g>
				</g>
				<polygon style="clip-path:url(#SVGID_00000052820970704903918130000012845720622078851999_);fill:#9F9EB1;" points="
					81.73,75.978 79.842,76.566 77.823,77.22 75.762,78.594 74.314,80.588 73.136,82.78 72.848,85.261 72.848,85.273 73.474,88.582 
					74.588,90.677 76.097,92.493 78.25,93.452 79.959,94.011 81.727,94.27 82.167,94.459 83.071,94.459 83.519,94.305 
					86.016,93.776 88.045,92.944 89.565,91.385 90.842,89.631 91.39,87.52 91.726,85.934 91.726,83.943 91.227,82.094 
					90.073,79.919 88.494,78.089 86.296,77.041 83.464,75.978 				"/>
				<g style="clip-path:url(#SVGID_00000052820970704903918130000012845720622078851999_);">
					<defs>
						
							<rect id="SVGID_00000112598834678253394450000010069606415282859141_" x="42.549" y="71.96" transform="matrix(0.7465 -0.6653 0.6653 0.7465 -39.526 58.9407)" width="30.098" height="18.779"/>
					</defs>
					<clipPath id="SVGID_00000084511355034606420670000006920611836738497450_">
						<use xlink:href="#SVGID_00000112598834678253394450000010069606415282859141_"  style="overflow:visible;"/>
					</clipPath>
					<path style="clip-path:url(#SVGID_00000084511355034606420670000006920611836738497450_);fill:#523742;" d="M64.171,71.62
						c0.966-0.915,0.053-3.007,2.027-3.24c2.72,3.457,5.413,6.87,8.278,10.506c-3.606,2.355-7.56,3.856-11.346,5.65
						c-0.391-0.107-0.718-0.204-1.115-0.306c0.187-1.412,0.39-2.852,0.589-4.329c-2.536-1.491-4.782-0.359-6.642,0.829
						c-3.03,1.937-2.111,4.922-1.34,7.396c0.565,0.783,0.959,1.315,1.477,2.033c-2.545,1.398-4.857,2.666-7.211,3.947
						c-0.181-0.173-0.387-0.284-0.435-0.442c-0.688-1.945-1.697-3.859-1.936-5.856c-0.591-5.006,0.683-9.53,4.466-13.129
						c2.427-2.297,5.197-3.774,8.611-3.641C61.092,71.096,62.575,71.408,64.171,71.62"/>
				</g>
			</g>
		</g>
	</g>
</g>
<g id="Layer_2">
	<g id="Layer_3">
	</g>
</g>
</svg>
