<?xml version="1.0" encoding="iso-8859-1"?>
<!-- Generator: Adobe Illustrator 26.0.1, SVG Export Plug-In . SVG Version: 6.00 Build 0)  -->
<svg version="1.1" xmlns="http://www.w3.org/2000/svg" xmlns:xlink="http://www.w3.org/1999/xlink" x="0px" y="0px"
	 viewBox="0 0 100 100" style="enable-background:new 0 0 100 100;" xml:space="preserve">
<g id="Layer_1">
	<g id="G_x28__T1_T1_T1_T1_T1_T1_T1_L1_x29__00000163060765629537817950000016819541231649560238_">
		<g>
			<defs>
				<rect id="SVGID_1_" x="-2" y="1" width="102.627" height="98.896"/>
			</defs>
			<clipPath id="SVGID_00000103955209199998918730000012395386496025126022_">
				<use xlink:href="#SVGID_1_"  style="overflow:visible;"/>
			</clipPath>
			<polygon style="clip-path:url(#SVGID_00000103955209199998918730000012395386496025126022_);fill:#523742;" points="
				47.431,38.985 45.262,39.661 42.937,40.413 40.567,41.996 38.901,44.291 37.546,46.815 37.214,49.671 37.214,49.684 
				37.935,53.493 39.216,55.904 40.953,57.995 43.428,59.099 45.395,59.743 47.43,60.04 47.934,60.257 48.977,60.257 49.492,60.08 
				52.365,59.472 54.698,58.514 56.449,56.719 57.917,54.701 58.548,52.27 58.935,50.449 58.935,48.152 58.36,46.025 57.032,43.522 
				55.215,41.416 52.686,40.209 49.429,38.985 			"/>
			<g style="clip-path:url(#SVGID_00000103955209199998918730000012395386496025126022_);">
				<defs>
					<rect id="SVGID_00000018233051476082367770000016333089982551238055_" x="-2" y="1.001" width="102.627" height="98.895"/>
				</defs>
				<clipPath id="SVGID_00000044875315143712727580000005800423052597311666_">
					<use xlink:href="#SVGID_00000018233051476082367770000016333089982551238055_"  style="overflow:visible;"/>
				</clipPath>
				<path style="clip-path:url(#SVGID_00000044875315143712727580000005800423052597311666_);fill:#F26C2B;" d="M25.114,7.965
					c2.567,0.179,2.432,0.703,5.539,1.934c0.128,0.05,1.859,1.131,1.982,1.17c0.699,0.219,5.43,3.226,7.653,6.879
					c0.326,0.535,0.77,0.997,1.209,1.556c1.109-0.792,2.157-1.54,3.225-2.304c0.963,2.14,0.754,13.091-0.336,17.136
					c-4.896-1.094-9.664-2.563-14.588-4.571c1.214-1.117,2.167-1.995,3.32-3.057c-1.758-1.999-3.241-3.626-5.34-5.141
					c-1.833-1.323-3.964-2.34-6.53-2.519"/>
				<path style="clip-path:url(#SVGID_00000044875315143712727580000005800423052597311666_);fill:#9F9EB1;" d="M21.248,19.048
					c0.048-3.3,3.866-11.083,3.866-11.083"/>
				<path style="clip-path:url(#SVGID_00000044875315143712727580000005800423052597311666_);fill:#E1D153;" d="M73.883,6.974
					c0.712,2.473,0.173,2.527,0.083,5.869c-0.003,0.137-0.424,2.135-0.419,2.263c0.034,0.733-1.168,6.21-3.836,9.552
					c-0.39,0.489-0.672,1.064-1.046,1.669c1.123,0.77,2.186,1.499,3.269,2.24c-1.679,1.64-12.034,5.198-16.206,5.56
					c-0.651-4.976-0.906-9.961-0.709-15.277c1.465,0.758,2.617,1.353,4.009,2.072c1.275-2.338,2.294-4.289,2.996-6.781
					c0.614-2.176,0.839-4.527,0.127-7.001"/>
				<path style="clip-path:url(#SVGID_00000044875315143712727580000005800423052597311666_);fill:#AD70D6;" d="M46.843,96.258
					c-1.91-1.725-1.48-2.055-3.167-4.941c-0.07-0.118-0.766-2.037-0.838-2.144c-0.415-0.604-2.285-5.89-1.782-10.137
					c0.073-0.622,0.01-1.26,0.008-1.971c-1.36-0.061-2.647-0.119-3.958-0.177c0.561-2.278,7.478-10.768,10.831-13.279
					c3.178,3.882,6.025,7.981,8.662,12.6c-1.644,0.131-2.936,0.233-4.498,0.358c0.151,2.659,0.315,4.854,1.033,7.341
					c0.627,2.173,1.676,4.288,3.586,6.013"/>
				<path style="clip-path:url(#SVGID_00000044875315143712727580000005800423052597311666_);fill:#9F9EB1;" d="M56.72,89.921
					c-2.073,2.567-9.877,6.337-9.877,6.337"/>
				<path style="clip-path:url(#SVGID_00000044875315143712727580000005800423052597311666_);fill:#5699DE;" d="M88.507,72.171
					c0.797,3.202-0.906,11.704-0.906,11.704c-2.527,0.483-2.531-0.059-5.849-0.454c-0.137-0.015-2.087-0.618-2.215-0.624
					c-0.732-0.033-6.074-1.73-9.157-4.694c-0.452-0.433-0.998-0.767-1.566-1.195c-0.87,1.049-1.692,2.041-2.529,3.052
					c-1.478-1.822-4.074-12.463-4.053-16.652c5.012-0.195,9.997,0.007,15.271,0.689c-0.888,1.39-1.586,2.483-2.429,3.804
					c2.211,1.483,4.06,2.677,6.476,3.605C83.66,72.216,85.98,72.654,88.507,72.171"/>
			</g>
			<g style="clip-path:url(#SVGID_00000103955209199998918730000012395386496025126022_);">
				<defs>
					
						<rect id="SVGID_00000070085051024305452680000017217198643943775933_" x="6.319" y="62.251" transform="matrix(0.3463 -0.9381 0.9381 0.3463 -52.2368 68.4077)" width="33.298" height="18.87"/>
				</defs>
				<clipPath id="SVGID_00000078027034792475014020000007482816849214786745_">
					<use xlink:href="#SVGID_00000070085051024305452680000017217198643943775933_"  style="overflow:visible;"/>
				</clipPath>
				<path style="clip-path:url(#SVGID_00000078027034792475014020000007482816849214786745_);fill:#9F9EB1;" d="M23.147,83.843
					c-3.254,0.542-11.591-1.825-11.591-1.825c-0.283-2.558,0.257-2.52,0.912-5.798c0.027-0.135,0.78-2.032,0.797-2.16
					c0.09-0.727,2.202-5.921,5.398-8.763c0.467-0.416,0.843-0.935,1.314-1.468c-0.977-0.949-1.9-1.847-2.842-2.762
					c1.932-1.331,12.739-3.082,16.912-2.731c-0.201,5.014-0.794,9.97-1.888,15.175c-1.316-0.994-2.35-1.776-3.6-2.721
					c-1.652,2.088-2.987,3.838-4.102,6.175C23.484,79.006,22.864,81.285,23.147,83.843"/>
			</g>
			<g style="clip-path:url(#SVGID_00000103955209199998918730000012395386496025126022_);">
				<defs>
					<rect id="SVGID_00000072968435613011580490000016414166738767669168_" x="-2" y="1.001" width="102.627" height="98.895"/>
				</defs>
				<clipPath id="SVGID_00000150092645113548753970000013684572574967911043_">
					<use xlink:href="#SVGID_00000072968435613011580490000016414166738767669168_"  style="overflow:visible;"/>
				</clipPath>
				<path style="clip-path:url(#SVGID_00000150092645113548753970000013684572574967911043_);fill:#E33A3A;" d="M1.388,38.981
					c2.039-1.57,2.286-1.088,5.427-2.23c0.129-0.047,2.141-0.388,2.259-0.44c0.668-0.3,6.202-1.191,10.288,0.067
					c0.598,0.183,1.237,0.235,1.936,0.361c0.305-1.328,0.592-2.584,0.885-3.864c2.14,0.961,9.246,9.294,11.113,13.044
					c-4.388,2.431-8.93,4.497-13.945,6.263c0.167-1.642,0.298-2.931,0.456-4.491c-2.642-0.329-4.83-0.562-7.405-0.301
					c-2.248,0.227-4.517,0.88-6.556,2.45"/>
				<path style="clip-path:url(#SVGID_00000150092645113548753970000013684572574967911043_);fill:#9F9EB1;" d="M5.846,49.839
					C3.694,47.338,1.388,38.98,1.388,38.98"/>
				<path style="clip-path:url(#SVGID_00000150092645113548753970000013684572574967911043_);fill:#55C95A;" d="M87.025,34.965
					c2.856,1.653,7.785,8.786,7.785,8.786c-1.409,2.153-1.801,1.779-4.392,3.891c-0.106,0.087-1.894,1.07-1.988,1.158
					c-0.533,0.503-5.466,3.164-9.739,3.321c-0.626,0.023-1.245,0.184-1.948,0.295c0.15,1.354,0.292,2.635,0.437,3.939
					c-2.338-0.203-11.792-5.733-14.79-8.66c3.344-3.738,6.954-7.183,11.109-10.5c0.383,1.605,0.684,2.866,1.048,4.391
					c2.603-0.559,4.746-1.059,7.092-2.151C83.688,38.481,85.616,37.118,87.025,34.965"/>
			</g>
		</g>
	</g>
</g>
<g id="Layer_2">
	<g id="Layer_3">
	</g>
</g>
</svg>
