<?xml version="1.0" encoding="iso-8859-1"?>
<!-- Generator: Adobe Illustrator 26.0.1, SVG Export Plug-In . SVG Version: 6.00 Build 0)  -->
<svg version="1.1" xmlns="http://www.w3.org/2000/svg" xmlns:xlink="http://www.w3.org/1999/xlink" x="0px" y="0px"
	 viewBox="0 0 100 100" style="enable-background:new 0 0 100 100;" xml:space="preserve">
<g id="Layer_1">
	<g id="L2_L2_L2_G_x28__T1_L1__x29__00000061468231484401914170000005546843340962099331_">
		<g>
			<defs>
				<rect id="SVGID_1_" x="9" y="11" width="82" height="81.48"/>
			</defs>
			<clipPath id="SVGID_00000147197463570908621540000010571754418649447848_">
				<use xlink:href="#SVGID_1_"  style="overflow:visible;"/>
			</clipPath>
			<g style="clip-path:url(#SVGID_00000147197463570908621540000010571754418649447848_);">
				<defs>
					<rect id="SVGID_00000183225334087813945520000001601728653577980050_" x="9" y="11" width="82" height="81.48"/>
				</defs>
				<clipPath id="SVGID_00000090289040876338912470000006423782448015968385_">
					<use xlink:href="#SVGID_00000183225334087813945520000001601728653577980050_"  style="overflow:visible;"/>
				</clipPath>
				<g style="clip-path:url(#SVGID_00000090289040876338912470000006423782448015968385_);">
					<defs>
						<rect id="SVGID_00000128465235456202971980000014038729237869017744_" x="9" y="11" width="79.96" height="81.48"/>
					</defs>
					<clipPath id="SVGID_00000085242291310832747000000005843141805710615737_">
						<use xlink:href="#SVGID_00000128465235456202971980000014038729237869017744_"  style="overflow:visible;"/>
					</clipPath>
					<g style="opacity:0.96;clip-path:url(#SVGID_00000085242291310832747000000005843141805710615737_);">
						<g>
							<defs>
								<rect id="SVGID_00000024712292992792302670000005495584300019554739_" x="10" y="10.997" width="31.363" height="34.872"/>
							</defs>
							<clipPath id="SVGID_00000090977871555760114760000018283543798833603502_">
								<use xlink:href="#SVGID_00000024712292992792302670000005495584300019554739_"  style="overflow:visible;"/>
							</clipPath>
							<g style="clip-path:url(#SVGID_00000090977871555760114760000018283543798833603502_);">
								<defs>
									<rect id="SVGID_00000181788496551050890210000018261342631688779194_" x="11.264" y="11" width="30.093" height="18.776"/>
								</defs>
								<clipPath id="SVGID_00000057845312316761105340000009575430315957909385_">
									<use xlink:href="#SVGID_00000181788496551050890210000018261342631688779194_"  style="overflow:visible;"/>
								</clipPath>
								<path style="clip-path:url(#SVGID_00000057845312316761105340000009575430315957909385_);fill:#E33A3A;" d="M37.693,17.496
									c1.33-0.04,2.04-2.21,3.67-1.07c-0.27,4.39-0.53,8.73-0.81,13.35c-4.26-0.64-8.21-2.15-12.23-3.33
									c-0.22-0.34-0.4-0.63-0.63-0.97c1.08-0.93,2.19-1.87,3.32-2.84c-0.9-2.8-3.33-3.45-5.51-3.8c-3.55-0.57-4.85,2.27-5.92,4.63
									c-0.1,0.96-0.16,1.62-0.25,2.5c-2.83-0.65-5.4-1.24-8.01-1.85c-0.02-0.25-0.1-0.47-0.03-0.62c0.78-1.91,1.3-4.01,2.45-5.66
									c2.89-4.13,6.85-6.66,12.07-6.83c3.34-0.1,6.39,0.64,8.85,3.01C35.743,15.056,36.643,16.276,37.693,17.496"/>
							</g>
							<g style="clip-path:url(#SVGID_00000090977871555760114760000018283543798833603502_);">
								<defs>
									
										<rect id="SVGID_00000031193879630971031920000011966100496766566573_" x="10.003" y="27.656" width="29.361" height="18.213"/>
								</defs>
								<clipPath id="SVGID_00000095332974428942188550000012222541090920067215_">
									<use xlink:href="#SVGID_00000031193879630971031920000011966100496766566573_"  style="overflow:visible;"/>
								</clipPath>
								<path style="clip-path:url(#SVGID_00000095332974428942188550000012222541090920067215_);fill:#5699DE;" d="M39.363,33.446
									c-0.1,0.3-0.17,0.6-0.29,0.87c-1.52,3.45-3.13,6.93-6.51,8.9c-1.9,1.11-4.16,1.59-6.26,2.36c-2.15,0.78-4.14-0.2-6.16-0.61
									c-1.67-0.33-2.86-1.56-4-2.76c-0.82-0.86-1.62-1.74-2.62-2.83c-1.02,0.3-2.14,0.63-3.52,1.04c0.24-4.15,0.49-8.3,0.76-12.76
									c4,1.19,7.88,2.35,12.16,3.63c-1.18,1.02-2.12,1.83-3.03,2.63v1.59c1.49,2.59,3.87,3.08,6.63,3.14
									c3.42,0.08,4.13-2.66,5.59-4.93v-1.92C34.563,32.356,36.923,32.886,39.363,33.446"/>
							</g>
						</g>
					</g>
					<g style="opacity:0.96;clip-path:url(#SVGID_00000085242291310832747000000005843141805710615737_);">
						<g>
							<defs>
								<rect id="SVGID_00000059286171909705650260000003590738014637695903_" x="55" y="10.997" width="31.363" height="34.872"/>
							</defs>
							<clipPath id="SVGID_00000032625256509810834330000018306516228444235920_">
								<use xlink:href="#SVGID_00000059286171909705650260000003590738014637695903_"  style="overflow:visible;"/>
							</clipPath>
							<g style="clip-path:url(#SVGID_00000032625256509810834330000018306516228444235920_);">
								<defs>
									<rect id="SVGID_00000058555983242662221340000013959910180385642422_" x="56.264" y="11" width="30.094" height="18.776"/>
								</defs>
								<clipPath id="SVGID_00000162341705347032863070000017521399584423091376_">
									<use xlink:href="#SVGID_00000058555983242662221340000013959910180385642422_"  style="overflow:visible;"/>
								</clipPath>
								<path style="clip-path:url(#SVGID_00000162341705347032863070000017521399584423091376_);fill:#AD70D6;" d="M82.692,17.496
									c1.33-0.04,2.04-2.21,3.67-1.07c-0.27,4.39-0.529,8.73-0.81,13.35c-4.259-0.64-8.21-2.15-12.23-3.33
									c-0.22-0.34-0.4-0.63-0.63-0.97c1.08-0.93,2.19-1.87,3.32-2.84c-0.9-2.8-3.33-3.45-5.509-3.8
									c-3.55-0.57-4.851,2.27-5.92,4.63c-0.101,0.96-0.161,1.62-0.25,2.5c-2.83-0.65-5.401-1.24-8.011-1.85
									c-0.02-0.25-0.1-0.47-0.029-0.62c0.779-1.91,1.299-4.01,2.45-5.66c2.889-4.13,6.849-6.66,12.069-6.83
									c3.34-0.1,6.391,0.64,8.851,3.01C80.743,15.056,81.642,16.276,82.692,17.496"/>
							</g>
							<g style="clip-path:url(#SVGID_00000032625256509810834330000018306516228444235920_);">
								<defs>
									
										<rect id="SVGID_00000018223169449681590190000001341470195343469197_" x="55.003" y="27.656" width="29.361" height="18.213"/>
								</defs>
								<clipPath id="SVGID_00000126316342820916563060000016689410414191258261_">
									<use xlink:href="#SVGID_00000018223169449681590190000001341470195343469197_"  style="overflow:visible;"/>
								</clipPath>
								<path style="clip-path:url(#SVGID_00000126316342820916563060000016689410414191258261_);fill:#55C95A;" d="M84.362,33.446
									c-0.1,0.3-0.17,0.6-0.29,0.87c-1.52,3.45-3.13,6.93-6.51,8.9c-1.899,1.11-4.16,1.59-6.26,2.36
									c-2.15,0.78-4.139-0.2-6.16-0.61c-1.67-0.33-2.86-1.56-4-2.76c-0.82-0.86-1.62-1.74-2.62-2.83
									c-1.019,0.3-2.139,0.63-3.519,1.04c0.239-4.15,0.489-8.3,0.759-12.76c4,1.19,7.88,2.35,12.161,3.63
									c-1.181,1.02-2.121,1.83-3.031,2.63v1.59c1.491,2.59,3.87,3.08,6.63,3.14c3.42,0.08,4.13-2.66,5.59-4.93v-1.92
									C79.562,32.356,81.923,32.886,84.362,33.446"/>
							</g>
						</g>
					</g>
					<g style="opacity:0.96;clip-path:url(#SVGID_00000085242291310832747000000005843141805710615737_);">
						<g>
							<defs>
								<rect id="SVGID_00000181790002517384352840000005242328822774044591_" x="9" y="54.997" width="31.363" height="34.872"/>
							</defs>
							<clipPath id="SVGID_00000179633906720771252960000004999926470640945075_">
								<use xlink:href="#SVGID_00000181790002517384352840000005242328822774044591_"  style="overflow:visible;"/>
							</clipPath>
							<g style="clip-path:url(#SVGID_00000179633906720771252960000004999926470640945075_);">
								<defs>
									
										<rect id="SVGID_00000155863645582451091660000003420648564446046870_" x="10.264" y="55.001" width="30.094" height="18.775"/>
								</defs>
								<clipPath id="SVGID_00000010282370480511949880000011183593618110246331_">
									<use xlink:href="#SVGID_00000155863645582451091660000003420648564446046870_"  style="overflow:visible;"/>
								</clipPath>
								<path style="clip-path:url(#SVGID_00000010282370480511949880000011183593618110246331_);fill:#F26C2B;" d="M36.693,61.496
									c1.33-0.04,2.04-2.21,3.67-1.07c-0.27,4.389-0.53,8.73-0.81,13.349c-4.26-0.639-8.21-2.149-12.23-3.33
									c-0.22-0.34-0.4-0.63-0.63-0.97c1.08-0.929,2.19-1.87,3.32-2.839c-0.9-2.8-3.33-3.451-5.51-3.8
									c-3.55-0.57-4.85,2.269-5.92,4.63c-0.1,0.96-0.16,1.62-0.25,2.5c-2.83-0.651-5.4-1.241-8.01-1.85
									c-0.02-0.25-0.1-0.471-0.03-0.62c0.78-1.91,1.3-4.011,2.45-5.66c2.89-4.13,6.85-6.66,12.07-6.83
									c3.34-0.1,6.39,0.639,8.85,3.01C34.743,59.056,35.643,60.275,36.693,61.496"/>
							</g>
							<g style="clip-path:url(#SVGID_00000179633906720771252960000004999926470640945075_);">
								<defs>
									
										<rect id="SVGID_00000056398039753391515480000015483978034133440904_" x="9.003" y="71.656" width="29.361" height="18.212"/>
								</defs>
								<clipPath id="SVGID_00000135669284886233024780000000531090735242944414_">
									<use xlink:href="#SVGID_00000056398039753391515480000015483978034133440904_"  style="overflow:visible;"/>
								</clipPath>
								<path style="clip-path:url(#SVGID_00000135669284886233024780000000531090735242944414_);fill:#E1D153;" d="M38.363,77.446
									c-0.1,0.3-0.17,0.6-0.29,0.87c-1.52,3.449-3.13,6.93-6.51,8.9c-1.9,1.11-4.16,1.589-6.26,2.36
									c-2.15,0.78-4.14-0.2-6.16-0.61c-1.67-0.331-2.86-1.56-4-2.76c-0.82-0.861-1.62-1.74-2.62-2.83
									c-1.02,0.299-2.14,0.63-3.52,1.04c0.24-4.151,0.49-8.3,0.76-12.76c4,1.189,7.88,2.35,12.16,3.63
									c-1.18,1.019-2.12,1.83-3.03,2.63v1.59c1.49,2.589,3.87,3.08,6.63,3.14c3.42,0.079,4.13-2.66,5.59-4.93v-1.92
									C33.563,76.356,35.923,76.885,38.363,77.446"/>
							</g>
						</g>
					</g>
					<g style="opacity:0.96;clip-path:url(#SVGID_00000085242291310832747000000005843141805710615737_);">
						<g>
							<defs>
								<rect id="SVGID_00000077295063339871467140000003189321466616687009_" x="70" y="50.948" width="19.135" height="18.706"/>
							</defs>
							<clipPath id="SVGID_00000098936850508717621380000016118058321804803775_">
								<use xlink:href="#SVGID_00000077295063339871467140000003189321466616687009_"  style="overflow:visible;"/>
							</clipPath>
						</g>
					</g>
					<g style="opacity:0.96;clip-path:url(#SVGID_00000085242291310832747000000005843141805710615737_);">
						<g>
							<defs>
								<rect id="SVGID_00000137104729578663014820000005793163637015459262_" x="52" y="73.948" width="19.135" height="18.706"/>
							</defs>
							<clipPath id="SVGID_00000176739634927782716900000009794252625335723681_">
								<use xlink:href="#SVGID_00000137104729578663014820000005793163637015459262_"  style="overflow:visible;"/>
							</clipPath>
						</g>
					</g>
				</g>
				<g style="clip-path:url(#SVGID_00000090289040876338912470000006423782448015968385_);">
					<defs>
						<polygon id="SVGID_00000178163623063309293740000015631373900093720756_" points="43.323,73.351 54.865,86.668 75.622,67.648 
							64.081,54.332 						"/>
					</defs>
					<clipPath id="SVGID_00000109028671921256743550000014897352500762288047_">
						<use xlink:href="#SVGID_00000178163623063309293740000015631373900093720756_"  style="overflow:visible;"/>
					</clipPath>
				</g>
			</g>
		</g>
	</g>
	<g id="L2_00000160910406396624463740000015500016360951742126_">
		<g>
			<defs>
				<rect id="SVGID_00000108290684358391322290000007427290927525684621_" x="54" y="55" width="31.359" height="34.868"/>
			</defs>
			<clipPath id="SVGID_00000147929096032609395040000008268067813128463277_">
				<use xlink:href="#SVGID_00000108290684358391322290000007427290927525684621_"  style="overflow:visible;"/>
			</clipPath>
			<g style="clip-path:url(#SVGID_00000147929096032609395040000008268067813128463277_);">
				<defs>
					<rect id="SVGID_00000047061013377244567190000000416228544050711457_" x="54" y="55" width="31.359" height="34.868"/>
				</defs>
				<clipPath id="SVGID_00000075121152328970155150000006684676911780430474_">
					<use xlink:href="#SVGID_00000047061013377244567190000000416228544050711457_"  style="overflow:visible;"/>
				</clipPath>
				<g style="clip-path:url(#SVGID_00000075121152328970155150000006684676911780430474_);">
					<defs>
						
							<rect id="SVGID_00000105390368009419274550000000703897434124297603_" x="55.264" y="54.997" width="30.098" height="18.779"/>
					</defs>
					<clipPath id="SVGID_00000086670345609588674730000009241411240639642767_">
						<use xlink:href="#SVGID_00000105390368009419274550000000703897434124297603_"  style="overflow:visible;"/>
					</clipPath>
					<g style="clip-path:url(#SVGID_00000086670345609588674730000009241411240639642767_);">
						<defs>
							
								<rect id="SVGID_00000115483171532510284040000012182391006371668125_" x="55.264" y="54.997" width="30.098" height="18.779"/>
						</defs>
						<clipPath id="SVGID_00000082356628299399396840000007502525233786407299_">
							<use xlink:href="#SVGID_00000115483171532510284040000012182391006371668125_"  style="overflow:visible;"/>
						</clipPath>
						<path style="clip-path:url(#SVGID_00000082356628299399396840000007502525233786407299_);fill:#523742;" d="M81.693,61.496
							c1.33-0.04,2.04-2.21,3.67-1.07c-0.27,4.39-0.53,8.73-0.81,13.35c-4.26-0.64-8.21-2.15-12.23-3.33
							c-0.22-0.34-0.4-0.63-0.63-0.97c1.08-0.93,2.19-1.87,3.32-2.84c-0.9-2.8-3.33-3.45-5.51-3.8c-3.55-0.57-4.85,2.27-5.92,4.63
							c-0.1,0.96-0.16,1.62-0.25,2.5c-2.83-0.65-5.4-1.24-8.01-1.85c-0.02-0.25-0.1-0.47-0.03-0.62c0.78-1.91,1.3-4.01,2.45-5.66
							c2.89-4.13,6.85-6.66,12.07-6.83c3.34-0.1,6.39,0.64,8.85,3.01C79.743,59.056,80.643,60.276,81.693,61.496"/>
					</g>
				</g>
				<g style="clip-path:url(#SVGID_00000075121152328970155150000006684676911780430474_);">
					<defs>
						<rect id="SVGID_00000014596351969025087270000016645898036403492233_" x="54.003" y="71.656" width="29.36" height="18.213"/>
					</defs>
					<clipPath id="SVGID_00000000222911601287962720000002187499541475740604_">
						<use xlink:href="#SVGID_00000014596351969025087270000016645898036403492233_"  style="overflow:visible;"/>
					</clipPath>
					<g style="clip-path:url(#SVGID_00000000222911601287962720000002187499541475740604_);">
						<defs>
							
								<rect id="SVGID_00000016772747119569950520000003976205867815256747_" x="54.003" y="71.656" width="29.36" height="18.213"/>
						</defs>
						<clipPath id="SVGID_00000111871728934992556700000013489649777140193167_">
							<use xlink:href="#SVGID_00000016772747119569950520000003976205867815256747_"  style="overflow:visible;"/>
						</clipPath>
						<path style="clip-path:url(#SVGID_00000111871728934992556700000013489649777140193167_);fill:#9F9EB1;" d="M83.363,77.446
							c-0.1,0.3-0.17,0.6-0.29,0.87c-1.52,3.45-3.13,6.93-6.51,8.9c-1.9,1.11-4.16,1.59-6.26,2.36c-2.15,0.78-4.14-0.2-6.16-0.61
							c-1.67-0.33-2.86-1.56-4-2.76c-0.82-0.86-1.62-1.74-2.62-2.83c-1.02,0.3-2.14,0.63-3.52,1.04c0.24-4.15,0.49-8.3,0.76-12.76
							c4,1.19,7.88,2.35,12.16,3.63c-1.18,1.02-2.12,1.83-3.03,2.63v1.59c1.49,2.59,3.87,3.08,6.63,3.14
							c3.42,0.08,4.13-2.66,5.59-4.93v-1.92C78.563,76.356,80.923,76.886,83.363,77.446"/>
					</g>
				</g>
			</g>
		</g>
	</g>
	
		<image style="display:none;overflow:visible;" width="80" height="80" xlink:href="../old_images/xrule29.jpg"  transform="matrix(0.2 0 0 0.2 42.3721 42.0468)">
	</image>
</g>
<g id="Layer_2">
	<g id="Layer_3">
	</g>
</g>
</svg>
