<?xml version="1.0" encoding="iso-8859-1"?>
<!-- Generator: Adobe Illustrator 26.0.1, SVG Export Plug-In . SVG Version: 6.00 Build 0)  -->
<svg version="1.1" xmlns="http://www.w3.org/2000/svg" xmlns:xlink="http://www.w3.org/1999/xlink" x="0px" y="0px"
	 viewBox="0 0 100 100" style="enable-background:new 0 0 100 100;" xml:space="preserve">
<g id="Layer_1">
	<g id="L2_L2_L2_G_x28__T1_L1__x29__00000069361590943320098090000001266807345913445537_">
		<g>
			<defs>
				<rect id="SVGID_1_" x="9" y="12" width="82" height="81.48"/>
			</defs>
			<clipPath id="SVGID_00000000940516981339783890000011749318707106969272_">
				<use xlink:href="#SVGID_1_"  style="overflow:visible;"/>
			</clipPath>
			<g style="clip-path:url(#SVGID_00000000940516981339783890000011749318707106969272_);">
				<defs>
					<rect id="SVGID_00000034793183009475382730000000858026531210917767_" x="9" y="12" width="82" height="81.48"/>
				</defs>
				<clipPath id="SVGID_00000043454403344847470130000016393596526666989490_">
					<use xlink:href="#SVGID_00000034793183009475382730000000858026531210917767_"  style="overflow:visible;"/>
				</clipPath>
				<polygon style="clip-path:url(#SVGID_00000043454403344847470130000016393596526666989490_);fill:#523742;" points="
					81.766,66.398 80.022,66.956 78.156,67.577 76.253,68.882 74.915,70.776 73.827,72.858 73.561,75.215 73.561,75.226 
					74.139,78.37 75.167,80.36 76.562,82.084 78.55,82.995 80.129,83.526 81.763,83.772 82.169,83.952 83.004,83.952 83.418,83.806 
					85.725,83.303 87.6,82.512 89.004,81.032 90.183,79.366 90.69,77.361 91,75.858 91,73.959 90.539,72.207 89.472,70.141 
					88.015,68.402 85.983,67.407 83.368,66.398 				"/>
				<g style="clip-path:url(#SVGID_00000043454403344847470130000016393596526666989490_);">
					<defs>
						<rect id="SVGID_00000080187173735034744440000000866802764536929687_" x="9" y="12" width="79.96" height="81.48"/>
					</defs>
					<clipPath id="SVGID_00000113337450232800775430000003520241014824408993_">
						<use xlink:href="#SVGID_00000080187173735034744440000000866802764536929687_"  style="overflow:visible;"/>
					</clipPath>
					<g style="opacity:0.96;clip-path:url(#SVGID_00000113337450232800775430000003520241014824408993_);">
						<g>
							<defs>
								<rect id="SVGID_00000107579887277183161950000009873585157494027926_" x="10" y="11.997" width="31.363" height="34.872"/>
							</defs>
							<clipPath id="SVGID_00000108305649136702292550000000273825203701313466_">
								<use xlink:href="#SVGID_00000107579887277183161950000009873585157494027926_"  style="overflow:visible;"/>
							</clipPath>
							<g style="clip-path:url(#SVGID_00000108305649136702292550000000273825203701313466_);">
								<defs>
									<rect id="SVGID_00000008860610615967368320000006804500989864043413_" x="11.264" y="12" width="30.093" height="18.776"/>
								</defs>
								<clipPath id="SVGID_00000105395317761868149410000005318775167063655815_">
									<use xlink:href="#SVGID_00000008860610615967368320000006804500989864043413_"  style="overflow:visible;"/>
								</clipPath>
								<path style="clip-path:url(#SVGID_00000105395317761868149410000005318775167063655815_);fill:#E33A3A;" d="M37.693,18.496
									c1.33-0.04,2.04-2.21,3.67-1.07c-0.27,4.39-0.53,8.73-0.81,13.35c-4.26-0.64-8.21-2.15-12.23-3.33
									c-0.22-0.34-0.4-0.63-0.63-0.97c1.08-0.93,2.19-1.87,3.32-2.84c-0.9-2.8-3.33-3.45-5.51-3.8c-3.55-0.57-4.85,2.27-5.92,4.63
									c-0.1,0.96-0.16,1.62-0.25,2.5c-2.83-0.65-5.4-1.24-8.01-1.85c-0.02-0.25-0.1-0.47-0.03-0.62c0.78-1.91,1.3-4.01,2.45-5.66
									c2.89-4.13,6.85-6.66,12.07-6.83c3.34-0.1,6.39,0.64,8.85,3.01C35.743,16.056,36.643,17.276,37.693,18.496"/>
							</g>
							<g style="clip-path:url(#SVGID_00000108305649136702292550000000273825203701313466_);">
								<defs>
									
										<rect id="SVGID_00000113324220945153185800000004534350258047256196_" x="10.003" y="28.656" width="29.361" height="18.213"/>
								</defs>
								<clipPath id="SVGID_00000127750761227830160550000015815011069265427634_">
									<use xlink:href="#SVGID_00000113324220945153185800000004534350258047256196_"  style="overflow:visible;"/>
								</clipPath>
								<path style="clip-path:url(#SVGID_00000127750761227830160550000015815011069265427634_);fill:#5699DE;" d="M39.363,34.446
									c-0.1,0.3-0.17,0.6-0.29,0.87c-1.52,3.45-3.13,6.93-6.51,8.9c-1.9,1.11-4.16,1.59-6.26,2.36c-2.15,0.78-4.14-0.2-6.16-0.61
									c-1.67-0.33-2.86-1.56-4-2.76c-0.82-0.86-1.62-1.74-2.62-2.83c-1.02,0.3-2.14,0.63-3.52,1.04c0.24-4.15,0.49-8.3,0.76-12.76
									c4,1.19,7.88,2.35,12.16,3.63c-1.18,1.02-2.12,1.83-3.03,2.63v1.59c1.49,2.59,3.87,3.08,6.63,3.14
									c3.42,0.08,4.13-2.66,5.59-4.93v-1.92C34.563,33.356,36.923,33.886,39.363,34.446"/>
							</g>
						</g>
					</g>
					<g style="opacity:0.96;clip-path:url(#SVGID_00000113337450232800775430000003520241014824408993_);">
						<g>
							<defs>
								<rect id="SVGID_00000124856809892913272510000014625677541417119115_" x="55" y="11.997" width="31.363" height="34.872"/>
							</defs>
							<clipPath id="SVGID_00000088092777935002080720000001537978382057453458_">
								<use xlink:href="#SVGID_00000124856809892913272510000014625677541417119115_"  style="overflow:visible;"/>
							</clipPath>
							<g style="clip-path:url(#SVGID_00000088092777935002080720000001537978382057453458_);">
								<defs>
									<rect id="SVGID_00000038408289467138276710000014723391763640242343_" x="56.264" y="12" width="30.094" height="18.776"/>
								</defs>
								<clipPath id="SVGID_00000090974842756943400720000016267512644962501820_">
									<use xlink:href="#SVGID_00000038408289467138276710000014723391763640242343_"  style="overflow:visible;"/>
								</clipPath>
								<path style="clip-path:url(#SVGID_00000090974842756943400720000016267512644962501820_);fill:#55C95A;" d="M82.692,18.496
									c1.33-0.04,2.04-2.21,3.67-1.07c-0.27,4.39-0.529,8.73-0.81,13.35c-4.259-0.64-8.21-2.15-12.23-3.33
									c-0.22-0.34-0.4-0.63-0.63-0.97c1.08-0.93,2.19-1.87,3.32-2.84c-0.9-2.8-3.33-3.45-5.509-3.8
									c-3.55-0.57-4.851,2.27-5.92,4.63c-0.101,0.96-0.161,1.62-0.25,2.5c-2.83-0.65-5.401-1.24-8.011-1.85
									c-0.02-0.25-0.1-0.47-0.029-0.62c0.779-1.91,1.299-4.01,2.45-5.66c2.889-4.13,6.849-6.66,12.069-6.83
									c3.34-0.1,6.391,0.64,8.851,3.01C80.743,16.056,81.642,17.276,82.692,18.496"/>
							</g>
							<g style="clip-path:url(#SVGID_00000088092777935002080720000001537978382057453458_);">
								<defs>
									
										<rect id="SVGID_00000138540365255649517340000004431696542189293209_" x="55.003" y="28.656" width="29.361" height="18.213"/>
								</defs>
								<clipPath id="SVGID_00000086668382387159612770000008760942476105200274_">
									<use xlink:href="#SVGID_00000138540365255649517340000004431696542189293209_"  style="overflow:visible;"/>
								</clipPath>
								<path style="clip-path:url(#SVGID_00000086668382387159612770000008760942476105200274_);fill:#AD70D6;" d="M84.362,34.446
									c-0.1,0.3-0.17,0.6-0.29,0.87c-1.52,3.45-3.13,6.93-6.51,8.9c-1.899,1.11-4.16,1.59-6.26,2.36
									c-2.15,0.78-4.139-0.2-6.16-0.61c-1.67-0.33-2.86-1.56-4-2.76c-0.82-0.86-1.62-1.74-2.62-2.83
									c-1.019,0.3-2.139,0.63-3.519,1.04c0.239-4.15,0.489-8.3,0.759-12.76c4,1.19,7.88,2.35,12.161,3.63
									c-1.181,1.02-2.121,1.83-3.031,2.63v1.59c1.491,2.59,3.87,3.08,6.63,3.14c3.42,0.08,4.13-2.66,5.59-4.93v-1.92
									C79.562,33.356,81.923,33.886,84.362,34.446"/>
							</g>
						</g>
					</g>
					<g style="opacity:0.96;clip-path:url(#SVGID_00000113337450232800775430000003520241014824408993_);">
						<g>
							<defs>
								<rect id="SVGID_00000005984322366184427840000002689337489902175136_" x="9" y="55.997" width="31.363" height="34.872"/>
							</defs>
							<clipPath id="SVGID_00000146500209088783298970000015903476489942775998_">
								<use xlink:href="#SVGID_00000005984322366184427840000002689337489902175136_"  style="overflow:visible;"/>
							</clipPath>
							<g style="clip-path:url(#SVGID_00000146500209088783298970000015903476489942775998_);">
								<defs>
									
										<rect id="SVGID_00000021101964924038997620000008800528846147428751_" x="10.264" y="56.001" width="30.094" height="18.775"/>
								</defs>
								<clipPath id="SVGID_00000013887367725610871750000004766367426997267842_">
									<use xlink:href="#SVGID_00000021101964924038997620000008800528846147428751_"  style="overflow:visible;"/>
								</clipPath>
								<path style="clip-path:url(#SVGID_00000013887367725610871750000004766367426997267842_);fill:#F26C2B;" d="M36.693,62.496
									c1.33-0.04,2.04-2.21,3.67-1.07c-0.27,4.389-0.53,8.73-0.81,13.349c-4.26-0.639-8.21-2.149-12.23-3.33
									c-0.22-0.34-0.4-0.63-0.63-0.97c1.08-0.929,2.19-1.87,3.32-2.839c-0.9-2.8-3.33-3.451-5.51-3.8
									c-3.55-0.57-4.85,2.269-5.92,4.63c-0.1,0.96-0.16,1.62-0.25,2.5c-2.83-0.651-5.4-1.241-8.01-1.85
									c-0.02-0.25-0.1-0.471-0.03-0.62c0.78-1.91,1.3-4.011,2.45-5.66c2.89-4.13,6.85-6.66,12.07-6.83
									c3.34-0.1,6.39,0.639,8.85,3.01C34.743,60.056,35.643,61.275,36.693,62.496"/>
							</g>
							<g style="clip-path:url(#SVGID_00000146500209088783298970000015903476489942775998_);">
								<defs>
									
										<rect id="SVGID_00000018239268265522128390000005423044084245255871_" x="9.003" y="72.656" width="29.361" height="18.212"/>
								</defs>
								<clipPath id="SVGID_00000132808020118786796570000011401080276886538624_">
									<use xlink:href="#SVGID_00000018239268265522128390000005423044084245255871_"  style="overflow:visible;"/>
								</clipPath>
								<path style="clip-path:url(#SVGID_00000132808020118786796570000011401080276886538624_);fill:#E1D153;" d="M38.363,78.446
									c-0.1,0.3-0.17,0.6-0.29,0.87c-1.52,3.449-3.13,6.93-6.51,8.9c-1.9,1.11-4.16,1.589-6.26,2.36
									c-2.15,0.78-4.14-0.2-6.16-0.61c-1.67-0.331-2.86-1.56-4-2.76c-0.82-0.861-1.62-1.74-2.62-2.83
									c-1.02,0.299-2.14,0.63-3.52,1.04c0.24-4.151,0.49-8.3,0.76-12.76c4,1.189,7.88,2.35,12.16,3.63
									c-1.18,1.019-2.12,1.83-3.03,2.63v1.59c1.49,2.589,3.87,3.08,6.63,3.14c3.42,0.079,4.13-2.66,5.59-4.93v-1.92
									C33.563,77.356,35.923,77.885,38.363,78.446"/>
							</g>
						</g>
					</g>
					<g style="opacity:0.96;clip-path:url(#SVGID_00000113337450232800775430000003520241014824408993_);">
						<g>
							<defs>
								<rect id="SVGID_00000110454153333333279420000008146017015611851953_" x="70" y="51.948" width="19.135" height="18.706"/>
							</defs>
							<clipPath id="SVGID_00000029016793426330048440000010958407200326818965_">
								<use xlink:href="#SVGID_00000110454153333333279420000008146017015611851953_"  style="overflow:visible;"/>
							</clipPath>
						</g>
					</g>
					<g style="opacity:0.96;clip-path:url(#SVGID_00000113337450232800775430000003520241014824408993_);">
						<g>
							<defs>
								<rect id="SVGID_00000057118847417901453650000016692836893731182987_" x="52" y="74.948" width="19.135" height="18.706"/>
							</defs>
							<clipPath id="SVGID_00000176019885648118894190000003832707220413611701_">
								<use xlink:href="#SVGID_00000057118847417901453650000016692836893731182987_"  style="overflow:visible;"/>
							</clipPath>
						</g>
					</g>
				</g>
				<g style="clip-path:url(#SVGID_00000043454403344847470130000016393596526666989490_);">
					<defs>
						<polygon id="SVGID_00000065770912700485177660000007327346608986844339_" points="43.323,74.351 54.865,87.668 75.622,68.648 
							64.081,55.332 						"/>
					</defs>
					<clipPath id="SVGID_00000047047624423205717750000009060593007317386137_">
						<use xlink:href="#SVGID_00000065770912700485177660000007327346608986844339_"  style="overflow:visible;"/>
					</clipPath>
					<path style="clip-path:url(#SVGID_00000047047624423205717750000009060593007317386137_);fill:#9F9EB1;" d="M65.544,62.258
						c0.892-0.869,0.049-2.856,1.873-3.077c2.512,3.283,5,6.525,7.647,9.979c-3.332,2.236-6.984,3.662-10.482,5.366
						c-0.361-0.101-0.663-0.194-1.03-0.29c0.173-1.342,0.361-2.709,0.544-4.112c-2.342-1.417-4.417-0.341-6.135,0.787
						c-2.799,1.84-1.95,4.675-1.238,7.025c0.522,0.744,0.886,1.249,1.364,1.931c-2.351,1.328-4.487,2.532-6.661,3.749
						c-0.167-0.164-0.358-0.27-0.402-0.42c-0.636-1.847-1.568-3.665-1.789-5.562c-0.546-4.755,0.631-9.052,4.126-12.47
						c2.242-2.182,4.801-3.585,7.955-3.459C62.7,61.76,64.07,62.057,65.544,62.258"/>
				</g>
			</g>
		</g>
	</g>
</g>
<g id="Layer_2">
	<g id="Layer_3">
	</g>
</g>
</svg>
