<?xml version="1.0" encoding="iso-8859-1"?>
<!-- Generator: Adobe Illustrator 26.0.1, SVG Export Plug-In . SVG Version: 6.00 Build 0)  -->
<svg version="1.1" id="Layer_1" xmlns="http://www.w3.org/2000/svg" xmlns:xlink="http://www.w3.org/1999/xlink" x="0px" y="0px"
	 viewBox="0 0 100 100" style="enable-background:new 0 0 100 100;" xml:space="preserve">
<g id="L3_G_x28__T1_L1__x29__T1_T1_T1_1_" style="display:none;">
	<g style="display:inline;">
		<defs>
			<rect id="SVGID_1_" x="5" y="8" width="101.892" height="86.633"/>
		</defs>
		<clipPath id="SVGID_00000168098805498323382610000002523611513533691804_">
			<use xlink:href="#SVGID_1_"  style="overflow:visible;"/>
		</clipPath>
		<g style="clip-path:url(#SVGID_00000168098805498323382610000002523611513533691804_);">
			<defs>
				<rect id="SVGID_00000096758649539843269600000006301007067548934556_" x="71.082" y="8.001" width="18.878" height="18.48"/>
			</defs>
			<clipPath id="SVGID_00000053544255133097005450000015918744198942486957_">
				<use xlink:href="#SVGID_00000096758649539843269600000006301007067548934556_"  style="overflow:visible;"/>
			</clipPath>
			<g style="clip-path:url(#SVGID_00000053544255133097005450000015918744198942486957_);">
				<defs>
					<rect id="SVGID_00000124127461698965691310000018242094443690789544_" x="71.08" y="7.95" width="19.06" height="18.7"/>
				</defs>
				<clipPath id="SVGID_00000119104009461864090490000013745053333234994351_">
					<use xlink:href="#SVGID_00000124127461698965691310000018242094443690789544_"  style="overflow:visible;"/>
				</clipPath>
				<g style="clip-path:url(#SVGID_00000119104009461864090490000013745053333234994351_);">
					<defs>
						<rect id="SVGID_00000179608286799597920440000002566654320083558290_" x="71.08" y="7.95" width="19.06" height="18.7"/>
					</defs>
					<clipPath id="SVGID_00000127734448222481380010000016873210281454182051_">
						<use xlink:href="#SVGID_00000179608286799597920440000002566654320083558290_"  style="overflow:visible;"/>
					</clipPath>
					<polygon style="clip-path:url(#SVGID_00000127734448222481380010000016873210281454182051_);fill:#F26C2B;" points="
						89.46,14.12 90.14,16.61 90.03,17.61 89.62,19.54 89.08,21.65 87.8,23.41 86.28,24.97 84.25,25.8 81.75,26.33 80.8,26.65 
						79.96,26.29 78.19,26.03 76.481,25.47 74.33,24.51 72.82,22.7 71.71,20.6 71.08,17.29 71.37,14.8 72.55,12.61 74,10.62 
						76.06,9.24 78.08,8.59 80.1,7.96 81.56,7.95 84.53,9.06 86.731,10.11 88.31,11.94 					"/>
				</g>
			</g>
		</g>
		<g style="clip-path:url(#SVGID_00000168098805498323382610000002523611513533691804_);">
			<defs>
				<rect id="SVGID_00000175285763761968282720000010619398967749875584_" x="11.081" y="8.001" width="18.878" height="18.48"/>
			</defs>
			<clipPath id="SVGID_00000147921102198209610210000010250956271421576105_">
				<use xlink:href="#SVGID_00000175285763761968282720000010619398967749875584_"  style="overflow:visible;"/>
			</clipPath>
			<g style="clip-path:url(#SVGID_00000147921102198209610210000010250956271421576105_);">
				<defs>
					<rect id="SVGID_00000009568271366596028480000018247324467616227721_" x="11.08" y="7.95" width="19.06" height="18.7"/>
				</defs>
				<clipPath id="SVGID_00000116949624746223467600000005148302895304019892_">
					<use xlink:href="#SVGID_00000009568271366596028480000018247324467616227721_"  style="overflow:visible;"/>
				</clipPath>
				<g style="clip-path:url(#SVGID_00000116949624746223467600000005148302895304019892_);">
					<defs>
						<rect id="SVGID_00000050651383846788872520000007417621991299891608_" x="11.08" y="7.95" width="19.06" height="18.7"/>
					</defs>
					<clipPath id="SVGID_00000112616337873451655690000011838161893285931948_">
						<use xlink:href="#SVGID_00000050651383846788872520000007417621991299891608_"  style="overflow:visible;"/>
					</clipPath>
					<polygon style="clip-path:url(#SVGID_00000112616337873451655690000011838161893285931948_);fill:#55C95A;" points="
						29.46,14.12 30.14,16.61 30.03,17.61 29.62,19.54 29.08,21.65 27.8,23.41 26.28,24.97 24.25,25.8 21.75,26.33 20.8,26.65 
						19.96,26.29 18.19,26.03 16.48,25.47 14.33,24.51 12.82,22.7 11.71,20.6 11.08,17.29 11.37,14.8 12.55,12.61 14,10.62 
						16.06,9.24 18.08,8.59 20.1,7.96 21.56,7.95 24.53,9.06 26.73,10.11 28.31,11.94 					"/>
				</g>
			</g>
		</g>
		<g style="clip-path:url(#SVGID_00000168098805498323382610000002523611513533691804_);">
			<defs>
				<rect id="SVGID_00000088104532041532249780000007774038493213308305_" x="42.082" y="15" width="18.878" height="18.481"/>
			</defs>
			<clipPath id="SVGID_00000096037215533772112700000017221559861738199736_">
				<use xlink:href="#SVGID_00000088104532041532249780000007774038493213308305_"  style="overflow:visible;"/>
			</clipPath>
			<g style="clip-path:url(#SVGID_00000096037215533772112700000017221559861738199736_);">
				<defs>
					<rect id="SVGID_00000164512334455187189080000017252210059702398107_" x="42.08" y="14.95" width="19.06" height="18.7"/>
				</defs>
				<clipPath id="SVGID_00000001646412584943497910000000660939137776151700_">
					<use xlink:href="#SVGID_00000164512334455187189080000017252210059702398107_"  style="overflow:visible;"/>
				</clipPath>
				<g style="clip-path:url(#SVGID_00000001646412584943497910000000660939137776151700_);">
					<defs>
						<rect id="SVGID_00000081628447140510666110000006559856362947208366_" x="42.08" y="14.95" width="19.06" height="18.7"/>
					</defs>
					<clipPath id="SVGID_00000072279996955790649600000010138236332721938575_">
						<use xlink:href="#SVGID_00000081628447140510666110000006559856362947208366_"  style="overflow:visible;"/>
					</clipPath>
					<polygon style="clip-path:url(#SVGID_00000072279996955790649600000010138236332721938575_);fill:#E33A3A;" points="
						60.46,21.12 61.14,23.61 61.03,24.61 60.62,26.54 60.08,28.65 58.8,30.41 57.28,31.97 55.25,32.8 52.75,33.33 51.8,33.65 
						50.96,33.29 49.19,33.03 47.48,32.47 45.33,31.51 43.82,29.7 42.71,27.6 42.08,24.29 42.37,21.8 43.55,19.61 45,17.62 
						47.06,16.24 49.08,15.59 51.1,14.96 52.56,14.95 55.53,16.06 57.731,17.11 59.31,18.94 					"/>
				</g>
			</g>
		</g>
		<g style="clip-path:url(#SVGID_00000168098805498323382610000002523611513533691804_);">
			<defs>
				<rect id="SVGID_00000116926120381646966030000003314221069126209468_" x="5.005" y="46.002" width="46.995" height="43.958"/>
			</defs>
			<clipPath id="SVGID_00000111187083765097831190000016045951813848418723_">
				<use xlink:href="#SVGID_00000116926120381646966030000003314221069126209468_"  style="overflow:visible;"/>
			</clipPath>
			<g style="clip-path:url(#SVGID_00000111187083765097831190000016045951813848418723_);">
				<defs>
					<rect id="SVGID_00000070087111959478610980000018298539566410909829_" x="19.96" y="46" width="31.85" height="17.96"/>
				</defs>
				<clipPath id="SVGID_00000013894996056928522790000017582476223166111402_">
					<use xlink:href="#SVGID_00000070087111959478610980000018298539566410909829_"  style="overflow:visible;"/>
				</clipPath>
				<g style="clip-path:url(#SVGID_00000013894996056928522790000017582476223166111402_);">
					<defs>
						<rect id="SVGID_00000065774613463953066910000003999756013289174186_" x="19.96" y="46" width="31.85" height="17.96"/>
					</defs>
					<clipPath id="SVGID_00000052104590328237663380000015252964230539416207_">
						<use xlink:href="#SVGID_00000065774613463953066910000003999756013289174186_"  style="overflow:visible;"/>
					</clipPath>
					<path style="clip-path:url(#SVGID_00000052104590328237663380000015252964230539416207_);fill:#5699DE;" d="M43.59,46
						c1.87,1.32,7.13,10.63,8.22,14.57c-3.46,1.12-6.97,2.03-10.65,2.73c-1.28,0.24-2.57,0.47-3.88,0.66
						c0.47-1.54,0.83-2.75,1.28-4.21c-2.47-0.81-4.9-2.06-7.41-2.29c-2.19-0.21-4.8-0.33-6.56,1.86c-0.34-0.59-0.68-1.18-1-1.75
						c-1.24-2.16-2.42-4.22-3.63-6.35c2.46-1.84,5-3.67,8.21-4.17c0.14-0.03,0.29,0.01,0.41-0.04c4.3-2.03,7.98-0.15,11.66,1.82
						c0.54,0.28,1.14,0.45,1.79,0.71C42.57,48.32,43.07,47.17,43.59,46"/>
				</g>
			</g>
			<g style="clip-path:url(#SVGID_00000111187083765097831190000016045951813848418723_);">
				<defs>
					<rect id="SVGID_00000182504095389595395160000011008432229425838222_" x="25.35" y="65.77" width="26.65" height="24.196"/>
				</defs>
				<clipPath id="SVGID_00000105410069541717279860000017984572896680146589_">
					<use xlink:href="#SVGID_00000182504095389595395160000011008432229425838222_"  style="overflow:visible;"/>
				</clipPath>
				<g style="clip-path:url(#SVGID_00000105410069541717279860000017984572896680146589_);">
					<defs>
						<rect id="SVGID_00000176726934217778957520000006690031800560240008_" x="25.35" y="65.77" width="26.65" height="24.196"/>
					</defs>
					<clipPath id="SVGID_00000086664154924348913850000006981912856615599751_">
						<use xlink:href="#SVGID_00000176726934217778957520000006690031800560240008_"  style="overflow:visible;"/>
					</clipPath>
					<path style="clip-path:url(#SVGID_00000086664154924348913850000006981912856615599751_);fill:#E1D153;" d="M52,66.74v4.85
						c-0.11,0.36-0.21,0.719-0.33,1.08c-0.69,2.179-1.23,4.429-2.13,6.52c-0.47,1.1-1.4,2.13-2.37,2.869
						c-1.95,1.511-4.06,2.79-6.22,4.221c0.61,1.04,1.27,2.17,1.95,3.33c-2.99,1.02-16.1-0.33-17.55-1.81
						c1.13-2.93,2.09-5.93,3.29-8.951c0.73-1.799,1.54-3.619,2.51-5.409c1.06,1.31,1.94,2.39,2.84,3.5c2.04-1.46,4.03-2.89,6.1-4.37
						c0.24-2.261,2.88-3.88,1.57-6.801c0.9,0.08,1.51,0.141,2.13,0.191c2.48,0.19,4.96,0.37,7.45,0.559
						C51.49,66.54,51.75,66.66,52,66.74"/>
				</g>
			</g>
			<g style="clip-path:url(#SVGID_00000111187083765097831190000016045951813848418723_);">
				<defs>
					<rect id="SVGID_00000023962641201666780160000011865383276682399659_" x="5" y="52.47" width="20.89" height="33.69"/>
				</defs>
				<clipPath id="SVGID_00000067226745699016827190000004686645219571046845_">
					<use xlink:href="#SVGID_00000023962641201666780160000011865383276682399659_"  style="overflow:visible;"/>
				</clipPath>
				<g style="clip-path:url(#SVGID_00000067226745699016827190000004686645219571046845_);">
					<defs>
						<rect id="SVGID_00000102539198769203452400000016960052101778659228_" x="5" y="52.47" width="20.89" height="33.69"/>
					</defs>
					<clipPath id="SVGID_00000096039498089987059720000007879050673928454541_">
						<use xlink:href="#SVGID_00000102539198769203452400000016960052101778659228_"  style="overflow:visible;"/>
					</clipPath>
					<path style="clip-path:url(#SVGID_00000096039498089987059720000007879050673928454541_);fill:#AD70D6;" d="M21.12,72.59
						c0.76,2.09,2.04,4.26,4.77,5.37c-2.01,2.83-3.87,5.46-5.82,8.2c-2.94-1.66-5.82-3.2-7.7-6.08c-0.36-0.55-0.88-1-1.35-1.46
						c-1.36-1.32-1.66-3.11-1.93-4.81c-0.27-1.77-0.11-3.61-0.14-5.43c-0.02-0.51,0-1.04,0-1.58c-1.44-0.08-2.7-0.149-3.95-0.2
						c0.23-2.64,8.18-13.32,10.55-14.13c1.78,2.16,3.66,4.28,5.42,6.59c1.37,1.79,2.66,3.7,3.81,5.83c-1.7,0.24-2.94,0.4-4.38,0.61
						C20.59,67.89,20.33,70.441,21.12,72.59"/>
				</g>
			</g>
		</g>
		<polygon style="clip-path:url(#SVGID_00000168098805498323382610000002523611513533691804_);fill:#523742;" points="
			82.168,73.124 79.952,74.204 77.882,75.584 76.457,77.644 75.451,80.864 75.449,83.235 75.928,85.548 77.376,87.407 
			78.621,88.703 80.061,89.763 80.358,90.135 81.162,90.564 81.625,90.637 84.077,91.345 86.259,91.565 88.335,90.903 
			90.284,89.956 91.763,88.351 92.802,87.113 93.741,85.35 94.17,83.487 94.174,81.023 93.641,78.666 92.194,76.708 90.198,74.439 
			88.66,73.62 86.723,73.254 84.633,72.879 		"/>
		<g style="clip-path:url(#SVGID_00000168098805498323382610000002523611513533691804_);">
			<defs>
				
					<rect id="SVGID_00000056407934366043445320000015759788016735706299_" x="68.545" y="43.81" transform="matrix(0.7071 -0.7071 0.7071 0.7071 -18.7275 71.3375)" width="16.4" height="28.929"/>
			</defs>
			<clipPath id="SVGID_00000017483860999159853670000015577389007157268144_">
				<use xlink:href="#SVGID_00000056407934366043445320000015759788016735706299_"  style="overflow:visible;"/>
			</clipPath>
			<path style="clip-path:url(#SVGID_00000017483860999159853670000015577389007157268144_);fill:#9F9EB1;" d="M67.089,53.994
				c0.755-2.766,5.655-8.485,5.655-8.485c2.122,0.707,1.896,1.119,4.244,2.828c0.096,0.071,1.319,1.354,1.414,1.414
				c0.541,0.336,3.871,3.891,4.95,7.447c0.159,0.521,0.431,1.006,0.68,1.571c1.105-0.425,2.149-0.828,3.213-1.238
				c0.348,2.008-2.202,11.176-3.998,14.343c-3.881-1.983-7.577-4.253-11.285-7.009c1.263-0.678,2.256-1.209,3.456-1.852
				c-1.047-2.064-1.942-3.753-3.38-5.484C70.782,56.019,69.21,54.701,67.089,53.994"/>
		</g>
	</g>
</g>
<g id="L3_G_x28__T1_L1__x29__T1_T1_T1_00000111896578744427633970000018305032369858218634_">
	<g>
		<defs>
			<rect id="SVGID_00000009569552592320951090000000035007003272040346_" x="5" y="8" width="101.892" height="86.633"/>
		</defs>
		<clipPath id="SVGID_00000026875803623335976230000013984041103143759795_">
			<use xlink:href="#SVGID_00000009569552592320951090000000035007003272040346_"  style="overflow:visible;"/>
		</clipPath>
		<g style="clip-path:url(#SVGID_00000026875803623335976230000013984041103143759795_);">
			<defs>
				<rect id="SVGID_00000025404219471472030130000005929866382500895619_" x="71.082" y="8.001" width="18.878" height="18.48"/>
			</defs>
			<clipPath id="SVGID_00000056394964153516314480000009711044805724139954_">
				<use xlink:href="#SVGID_00000025404219471472030130000005929866382500895619_"  style="overflow:visible;"/>
			</clipPath>
			<g style="clip-path:url(#SVGID_00000056394964153516314480000009711044805724139954_);">
				<defs>
					<rect id="SVGID_00000067940797855192098580000011180733090758033058_" x="71.08" y="7.95" width="19.06" height="18.7"/>
				</defs>
				<clipPath id="SVGID_00000068638859932921037720000005948423656898489782_">
					<use xlink:href="#SVGID_00000067940797855192098580000011180733090758033058_"  style="overflow:visible;"/>
				</clipPath>
				<g style="clip-path:url(#SVGID_00000068638859932921037720000005948423656898489782_);">
					<defs>
						<rect id="SVGID_00000145751445646613679300000008896698219540405420_" x="71.08" y="7.95" width="19.06" height="18.7"/>
					</defs>
					<clipPath id="SVGID_00000104678892587841932700000010257317191801557178_">
						<use xlink:href="#SVGID_00000145751445646613679300000008896698219540405420_"  style="overflow:visible;"/>
					</clipPath>
					<polygon style="clip-path:url(#SVGID_00000104678892587841932700000010257317191801557178_);fill:#F26C2B;" points="
						89.46,14.12 90.14,16.61 90.03,17.61 89.62,19.54 89.08,21.65 87.8,23.41 86.28,24.97 84.25,25.8 81.75,26.33 80.8,26.65 
						79.96,26.29 78.19,26.03 76.481,25.47 74.33,24.51 72.82,22.7 71.71,20.6 71.08,17.29 71.37,14.8 72.55,12.61 74,10.62 
						76.06,9.24 78.08,8.59 80.1,7.96 81.56,7.95 84.53,9.06 86.731,10.11 88.31,11.94 					"/>
				</g>
			</g>
		</g>
		<g style="clip-path:url(#SVGID_00000026875803623335976230000013984041103143759795_);">
			<defs>
				<rect id="SVGID_00000093150238639974630000000011373968611735018935_" x="11.081" y="8.001" width="18.878" height="18.48"/>
			</defs>
			<clipPath id="SVGID_00000057112460632570437620000011339648524818006718_">
				<use xlink:href="#SVGID_00000093150238639974630000000011373968611735018935_"  style="overflow:visible;"/>
			</clipPath>
			<g style="clip-path:url(#SVGID_00000057112460632570437620000011339648524818006718_);">
				<defs>
					<rect id="SVGID_00000052819257758022232490000013117698332583771021_" x="11.08" y="7.95" width="19.06" height="18.7"/>
				</defs>
				<clipPath id="SVGID_00000056417030687214802510000015027200863756902308_">
					<use xlink:href="#SVGID_00000052819257758022232490000013117698332583771021_"  style="overflow:visible;"/>
				</clipPath>
				<g style="clip-path:url(#SVGID_00000056417030687214802510000015027200863756902308_);">
					<defs>
						<rect id="SVGID_00000066484404088139032720000006160319769072316845_" x="11.08" y="7.95" width="19.06" height="18.7"/>
					</defs>
					<clipPath id="SVGID_00000019660770401228820120000002639308679290365352_">
						<use xlink:href="#SVGID_00000066484404088139032720000006160319769072316845_"  style="overflow:visible;"/>
					</clipPath>
					<polygon style="clip-path:url(#SVGID_00000019660770401228820120000002639308679290365352_);fill:#55C95A;" points="
						29.46,14.12 30.14,16.61 30.03,17.61 29.62,19.54 29.08,21.65 27.8,23.41 26.28,24.97 24.25,25.8 21.75,26.33 20.8,26.65 
						19.96,26.29 18.19,26.03 16.48,25.47 14.33,24.51 12.82,22.7 11.71,20.6 11.08,17.29 11.37,14.8 12.55,12.61 14,10.62 
						16.06,9.24 18.08,8.59 20.1,7.96 21.56,7.95 24.53,9.06 26.73,10.11 28.31,11.94 					"/>
				</g>
			</g>
		</g>
		<g style="clip-path:url(#SVGID_00000026875803623335976230000013984041103143759795_);">
			<defs>
				<rect id="SVGID_00000117670430879614588760000007334486627897186996_" x="42.082" y="15" width="18.878" height="18.481"/>
			</defs>
			<clipPath id="SVGID_00000103266418153387890550000004186333743214281112_">
				<use xlink:href="#SVGID_00000117670430879614588760000007334486627897186996_"  style="overflow:visible;"/>
			</clipPath>
			<g style="clip-path:url(#SVGID_00000103266418153387890550000004186333743214281112_);">
				<defs>
					<rect id="SVGID_00000036209160768668929970000002720968007064855988_" x="42.08" y="14.95" width="19.06" height="18.7"/>
				</defs>
				<clipPath id="SVGID_00000120551419936286984820000013791452261759693745_">
					<use xlink:href="#SVGID_00000036209160768668929970000002720968007064855988_"  style="overflow:visible;"/>
				</clipPath>
				<g style="clip-path:url(#SVGID_00000120551419936286984820000013791452261759693745_);">
					<defs>
						<rect id="SVGID_00000103960812716254401430000005654781487538182543_" x="42.08" y="14.95" width="19.06" height="18.7"/>
					</defs>
					<clipPath id="SVGID_00000137102274875476278130000015411097432604561027_">
						<use xlink:href="#SVGID_00000103960812716254401430000005654781487538182543_"  style="overflow:visible;"/>
					</clipPath>
					<polygon style="clip-path:url(#SVGID_00000137102274875476278130000015411097432604561027_);fill:#E33A3A;" points="
						60.46,21.12 61.14,23.61 61.03,24.61 60.62,26.54 60.08,28.65 58.8,30.41 57.28,31.97 55.25,32.8 52.75,33.33 51.8,33.65 
						50.96,33.29 49.19,33.03 47.48,32.47 45.33,31.51 43.82,29.7 42.71,27.6 42.08,24.29 42.37,21.8 43.55,19.61 45,17.62 
						47.06,16.24 49.08,15.59 51.1,14.96 52.56,14.95 55.53,16.06 57.731,17.11 59.31,18.94 					"/>
				</g>
			</g>
		</g>
		<g style="clip-path:url(#SVGID_00000026875803623335976230000013984041103143759795_);">
			<defs>
				<rect id="SVGID_00000147199837778140640310000000387188103795821481_" x="5.005" y="46.002" width="46.995" height="43.958"/>
			</defs>
			<clipPath id="SVGID_00000027583092183452487750000007831342659897530497_">
				<use xlink:href="#SVGID_00000147199837778140640310000000387188103795821481_"  style="overflow:visible;"/>
			</clipPath>
			<g style="clip-path:url(#SVGID_00000027583092183452487750000007831342659897530497_);">
				<defs>
					<rect id="SVGID_00000103248541725192098050000003264185409871639965_" x="19.96" y="46" width="31.85" height="17.96"/>
				</defs>
				<clipPath id="SVGID_00000151529209583142237710000001391595652839284894_">
					<use xlink:href="#SVGID_00000103248541725192098050000003264185409871639965_"  style="overflow:visible;"/>
				</clipPath>
				<g style="clip-path:url(#SVGID_00000151529209583142237710000001391595652839284894_);">
					<defs>
						<rect id="SVGID_00000151512456105654334390000016262744357568017067_" x="19.96" y="46" width="31.85" height="17.96"/>
					</defs>
					<clipPath id="SVGID_00000128468715042120522750000012972100844038379959_">
						<use xlink:href="#SVGID_00000151512456105654334390000016262744357568017067_"  style="overflow:visible;"/>
					</clipPath>
					<path style="clip-path:url(#SVGID_00000128468715042120522750000012972100844038379959_);fill:#5699DE;" d="M43.59,46
						c1.87,1.32,7.13,10.63,8.22,14.57c-3.46,1.12-6.97,2.03-10.65,2.73c-1.28,0.24-2.57,0.47-3.88,0.66
						c0.47-1.54,0.83-2.75,1.28-4.21c-2.47-0.81-4.9-2.06-7.41-2.29c-2.19-0.21-4.8-0.33-6.56,1.86c-0.34-0.59-0.68-1.18-1-1.75
						c-1.24-2.16-2.42-4.22-3.63-6.35c2.46-1.84,5-3.67,8.21-4.17c0.14-0.03,0.29,0.01,0.41-0.04c4.3-2.03,7.98-0.15,11.66,1.82
						c0.54,0.28,1.14,0.45,1.79,0.71C42.57,48.32,43.07,47.17,43.59,46"/>
				</g>
			</g>
			<g style="clip-path:url(#SVGID_00000027583092183452487750000007831342659897530497_);">
				<defs>
					<rect id="SVGID_00000060711072947697707790000018286010388146244007_" x="25.35" y="65.77" width="26.65" height="24.196"/>
				</defs>
				<clipPath id="SVGID_00000093166131266628485160000015992197929987205804_">
					<use xlink:href="#SVGID_00000060711072947697707790000018286010388146244007_"  style="overflow:visible;"/>
				</clipPath>
				<g style="clip-path:url(#SVGID_00000093166131266628485160000015992197929987205804_);">
					<defs>
						<rect id="SVGID_00000079482334755754185690000005744927715791398329_" x="25.35" y="65.77" width="26.65" height="24.196"/>
					</defs>
					<clipPath id="SVGID_00000181798895427174933390000009531169592718215072_">
						<use xlink:href="#SVGID_00000079482334755754185690000005744927715791398329_"  style="overflow:visible;"/>
					</clipPath>
					<path style="clip-path:url(#SVGID_00000181798895427174933390000009531169592718215072_);fill:#E1D153;" d="M52,66.74v4.85
						c-0.11,0.36-0.21,0.719-0.33,1.08c-0.69,2.179-1.23,4.429-2.13,6.52c-0.47,1.1-1.4,2.13-2.37,2.869
						c-1.95,1.511-4.06,2.79-6.22,4.221c0.61,1.04,1.27,2.17,1.95,3.33c-2.99,1.02-16.1-0.33-17.55-1.81
						c1.13-2.93,2.09-5.93,3.29-8.951c0.73-1.799,1.54-3.619,2.51-5.409c1.06,1.31,1.94,2.39,2.84,3.5c2.04-1.46,4.03-2.89,6.1-4.37
						c0.24-2.261,2.88-3.88,1.57-6.801c0.9,0.08,1.51,0.141,2.13,0.191c2.48,0.19,4.96,0.37,7.45,0.559
						C51.49,66.54,51.75,66.66,52,66.74"/>
				</g>
			</g>
			<g style="clip-path:url(#SVGID_00000027583092183452487750000007831342659897530497_);">
				<defs>
					<rect id="SVGID_00000111890441790974433780000013669428701530221751_" x="5" y="52.47" width="20.89" height="33.69"/>
				</defs>
				<clipPath id="SVGID_00000025419163148586125280000001684224891364200356_">
					<use xlink:href="#SVGID_00000111890441790974433780000013669428701530221751_"  style="overflow:visible;"/>
				</clipPath>
				<g style="clip-path:url(#SVGID_00000025419163148586125280000001684224891364200356_);">
					<defs>
						<rect id="SVGID_00000166642602889086056570000015705401870375668157_" x="5" y="52.47" width="20.89" height="33.69"/>
					</defs>
					<clipPath id="SVGID_00000165920581015747180790000006361728757941181575_">
						<use xlink:href="#SVGID_00000166642602889086056570000015705401870375668157_"  style="overflow:visible;"/>
					</clipPath>
					<path style="clip-path:url(#SVGID_00000165920581015747180790000006361728757941181575_);fill:#AD70D6;" d="M21.12,72.59
						c0.76,2.09,2.04,4.26,4.77,5.37c-2.01,2.83-3.87,5.46-5.82,8.2c-2.94-1.66-5.82-3.2-7.7-6.08c-0.36-0.55-0.88-1-1.35-1.46
						c-1.36-1.32-1.66-3.11-1.93-4.81c-0.27-1.77-0.11-3.61-0.14-5.43c-0.02-0.51,0-1.04,0-1.58c-1.44-0.08-2.7-0.149-3.95-0.2
						c0.23-2.64,8.18-13.32,10.55-14.13c1.78,2.16,3.66,4.28,5.42,6.59c1.37,1.79,2.66,3.7,3.81,5.83c-1.7,0.24-2.94,0.4-4.38,0.61
						C20.59,67.89,20.33,70.441,21.12,72.59"/>
				</g>
			</g>
		</g>
		<polygon style="clip-path:url(#SVGID_00000026875803623335976230000013984041103143759795_);fill:#523742;" points="
			82.168,73.124 79.952,74.204 77.882,75.584 76.457,77.644 75.451,80.864 75.449,83.235 75.928,85.548 77.376,87.407 
			78.621,88.703 80.061,89.763 80.358,90.135 81.162,90.564 81.625,90.637 84.077,91.345 86.259,91.565 88.335,90.903 
			90.284,89.956 91.763,88.351 92.802,87.113 93.741,85.35 94.17,83.487 94.174,81.023 93.641,78.666 92.194,76.708 90.198,74.439 
			88.66,73.62 86.723,73.254 84.633,72.879 		"/>
		<g style="clip-path:url(#SVGID_00000026875803623335976230000013984041103143759795_);">
			<defs>
				
					<rect id="SVGID_00000145055615765927638790000017987795622058671784_" x="68.545" y="43.81" transform="matrix(0.7071 -0.7071 0.7071 0.7071 -18.7275 71.3375)" width="16.4" height="28.929"/>
			</defs>
			<clipPath id="SVGID_00000010284957149901403730000000787196425693588103_">
				<use xlink:href="#SVGID_00000145055615765927638790000017987795622058671784_"  style="overflow:visible;"/>
			</clipPath>
			<path style="clip-path:url(#SVGID_00000010284957149901403730000000787196425693588103_);fill:#9F9EB1;" d="M67.089,53.994
				c0.755-2.766,5.655-8.485,5.655-8.485c2.122,0.707,1.896,1.119,4.244,2.828c0.096,0.071,1.319,1.354,1.414,1.414
				c0.541,0.336,3.871,3.891,4.95,7.447c0.159,0.521,0.431,1.006,0.68,1.571c1.105-0.425,2.149-0.828,3.213-1.238
				c0.348,2.008-2.202,11.176-3.998,14.343c-3.881-1.983-7.577-4.253-11.285-7.009c1.263-0.678,2.256-1.209,3.456-1.852
				c-1.047-2.064-1.942-3.753-3.38-5.484C70.782,56.019,69.21,54.701,67.089,53.994"/>
		</g>
	</g>
</g>
</svg>
