<?xml version="1.0" encoding="iso-8859-1"?>
<!-- Generator: Adobe Illustrator 26.0.1, SVG Export Plug-In . SVG Version: 6.00 Build 0)  -->
<svg version="1.1" xmlns="http://www.w3.org/2000/svg" xmlns:xlink="http://www.w3.org/1999/xlink" x="0px" y="0px"
	 viewBox="0 0 100 100" style="enable-background:new 0 0 100 100;" xml:space="preserve">
<g id="Layer_1">
	<g id="G_x28__T1_T1_T1_L1__x29__L1_L1_L1_L1_00000010994556852178700290000014597133125278411656_">
		<g>
			<defs>
				<rect id="SVGID_1_" x="8" y="1" width="83.96" height="95.27"/>
			</defs>
			<clipPath id="SVGID_00000158001193325362768670000017746610307365287309_">
				<use xlink:href="#SVGID_1_"  style="overflow:visible;"/>
			</clipPath>
			<polygon style="clip-path:url(#SVGID_00000158001193325362768670000017746610307365287309_);fill:#9F9EB1;" points="
				47.338,19.386 45.237,19.695 42.977,20.708 41.217,22.433 39.691,24.398 38.992,26.802 38.991,26.805 39.059,30.175 
				39.808,32.425 40.994,34.468 42.957,35.772 44.549,36.608 46.25,37.157 46.651,37.416 47.544,37.567 48.011,37.49 50.561,37.384 
				52.699,36.902 54.459,35.617 56.009,34.1 56.901,32.109 57.496,30.603 57.828,28.638 57.644,26.733 56.867,24.396 55.614,22.329 
				53.622,20.93 51.009,19.41 49.292,19.121 			"/>
			<g style="clip-path:url(#SVGID_00000158001193325362768670000017746610307365287309_);">
				<defs>
					
						<rect id="SVGID_00000001621601063145604490000003426843607532952730_" x="18.878" y="1.11" transform="matrix(0.1664 -0.9861 0.9861 0.1664 7.2138 39.6824)" width="16.4" height="28.929"/>
				</defs>
				<clipPath id="SVGID_00000142161394524282460010000009571029333328153780_">
					<use xlink:href="#SVGID_00000001621601063145604490000003426843607532952730_"  style="overflow:visible;"/>
				</clipPath>
				<path style="clip-path:url(#SVGID_00000142161394524282460010000009571029333328153780_);fill:#E33A3A;" d="M16.728,17.683
					C15.741,14.991,16.42,7.49,16.42,7.49c2.139-0.654,2.193-0.186,5.097-0.154c0.12,0,1.86,0.339,1.972,0.332
					c0.635-0.039,5.41,0.929,8.35,3.201c0.431,0.332,0.934,0.569,1.465,0.886c0.653-0.987,1.271-1.92,1.9-2.872
					c1.447,1.436,4.682,10.385,5.055,14.006c-4.313,0.635-8.64,0.926-13.26,0.829c0.638-1.285,1.138-2.293,1.744-3.513
					c-2.049-1.075-3.758-1.934-5.932-2.509C20.912,17.192,18.867,17.03,16.728,17.683"/>
			</g>
			<g style="clip-path:url(#SVGID_00000158001193325362768670000017746610307365287309_);">
				<defs>
					
						<rect id="SVGID_00000179607026166960389080000016692025009665766316_" x="56.125" y="9.049" transform="matrix(0.6665 -0.7455 0.7455 0.6665 10.6834 58.3786)" width="28.929" height="16.4"/>
				</defs>
				<clipPath id="SVGID_00000156569855555535390700000006615300011308439973_">
					<use xlink:href="#SVGID_00000179607026166960389080000016692025009665766316_"  style="overflow:visible;"/>
				</clipPath>
				<path style="clip-path:url(#SVGID_00000156569855555535390700000006615300011308439973_);fill:#F26C2B;" d="M74.323,7.368
					c2.804,0.6,8.788,5.173,8.788,5.173c-0.587,2.158-1.012,1.954-2.587,4.394c-0.064,0.101-1.278,1.393-1.332,1.492
					c-0.306,0.558-3.67,4.082-7.159,5.358c-0.511,0.187-0.98,0.487-1.53,0.767c0.486,1.079,0.946,2.099,1.416,3.139
					c-1.987,0.459-11.283-1.575-14.544-3.19c1.761-3.987,3.822-7.803,6.367-11.66c0.746,1.224,1.333,2.185,2.043,3.348
					c2.001-1.16,3.639-2.149,5.285-3.681C72.508,11.169,73.735,9.525,74.323,7.368"/>
			</g>
			<g style="clip-path:url(#SVGID_00000158001193325362768670000017746610307365287309_);">
				<defs>
					
						<rect id="SVGID_00000072253322850406244900000010625606110310730679_" x="41.298" y="38.751" transform="matrix(0.9133 -0.4074 0.4074 0.9133 -17.385 24.7792)" width="16.4" height="28.93"/>
				</defs>
				<clipPath id="SVGID_00000168832167960216011750000017886974610529624241_">
					<use xlink:href="#SVGID_00000072253322850406244900000010625606110310730679_"  style="overflow:visible;"/>
				</clipPath>
				<path style="clip-path:url(#SVGID_00000168832167960216011750000017886974610529624241_);fill:#55C95A;" d="M56.984,60.668
					c-1.695,2.312-8.318,5.899-8.318,5.899c-1.728-1.419-1.369-1.722-2.95-4.159c-0.065-0.099-0.747-1.736-0.815-1.826
					c-0.384-0.507-2.222-5.018-1.958-8.725c0.039-0.543-0.042-1.093-0.073-1.71c-1.183,0.002-2.303,0.004-3.443,0.007
					c0.394-2,6.056-9.649,8.864-11.964c2.917,3.24,5.554,6.682,8.032,10.583c-1.422,0.181-2.539,0.322-3.891,0.493
					c0.24,2.301,0.471,4.2,1.195,6.33C54.259,57.455,55.256,59.248,56.984,60.668"/>
			</g>
			<polygon style="clip-path:url(#SVGID_00000158001193325362768670000017746610307365287309_);fill:#E1D153;" points="
				16.958,51.79 15.076,52.377 13.056,53.031 10.996,54.406 9.548,56.399 8.37,58.591 8.082,61.072 8.082,61.085 8.708,64.394 
				9.821,66.488 11.332,68.304 13.483,69.263 15.193,69.823 16.961,70.081 17.401,70.271 18.303,70.271 18.753,70.116 21.25,69.588 
				23.278,68.756 24.799,67.196 26.075,65.442 26.624,63.331 26.96,61.745 26.96,59.755 26.461,57.906 25.306,55.73 23.727,53.901 
				21.529,52.852 18.7,51.79 			"/>
			<polygon style="clip-path:url(#SVGID_00000158001193325362768670000017746610307365287309_);fill:#AD70D6;" points="
				81.958,51.79 80.076,52.377 78.057,53.031 75.996,54.406 74.548,56.399 73.37,58.591 73.082,61.072 73.082,61.085 73.708,64.394 
				74.821,66.488 76.331,68.304 78.483,69.263 80.192,69.823 81.961,70.081 82.401,70.271 83.303,70.271 83.753,70.116 
				86.25,69.588 88.278,68.756 89.799,67.196 91.075,65.442 91.624,63.331 91.96,61.745 91.96,59.754 91.461,57.906 90.307,55.73 
				88.727,53.901 86.529,52.852 83.7,51.79 			"/>
			<polygon style="clip-path:url(#SVGID_00000158001193325362768670000017746610307365287309_);fill:#5699DE;" points="
				33.961,77.79 32.076,78.377 30.056,79.031 27.996,80.406 26.548,82.399 25.37,84.591 25.081,87.08 25.708,90.394 26.822,92.488 
				28.332,94.304 30.484,95.264 32.192,95.823 33.961,96.081 34.399,96.27 35.306,96.27 35.753,96.116 38.251,95.588 40.278,94.756 
				41.799,93.196 43.075,91.442 43.625,89.331 43.96,87.745 43.96,85.755 43.462,83.906 42.306,81.73 40.728,79.901 38.529,78.852 
				35.701,77.79 			"/>
			<polygon style="clip-path:url(#SVGID_00000158001193325362768670000017746610307365287309_);fill:#523742;" points="
				63.961,77.79 62.077,78.377 60.057,79.031 57.996,80.406 56.548,82.399 55.37,84.591 55.082,87.072 55.082,87.085 55.708,90.394 
				56.822,92.488 58.331,94.304 60.484,95.264 62.193,95.823 63.961,96.081 64.399,96.27 65.306,96.27 65.753,96.116 68.25,95.588 
				70.278,94.756 71.799,93.196 73.076,91.442 73.625,89.331 73.96,87.745 73.96,85.754 73.461,83.906 72.307,81.73 70.728,79.901 
				68.53,78.852 65.701,77.79 			"/>
		</g>
	</g>
</g>
<g id="Layer_2">
	<g id="Layer_3">
	</g>
</g>
</svg>
