<?xml version="1.0" encoding="iso-8859-1"?>
<!-- Generator: Adobe Illustrator 26.0.1, SVG Export Plug-In . SVG Version: 6.00 Build 0)  -->
<svg version="1.1" xmlns="http://www.w3.org/2000/svg" xmlns:xlink="http://www.w3.org/1999/xlink" x="0px" y="0px"
	 viewBox="0 0 100 100" style="enable-background:new 0 0 100 100;" xml:space="preserve">
<g id="Layer_1">
	<g id="L3_G_x28__T1_L1__x29__T1_T1_T1_00000055703304596162107340000013309685230144666789_">
		<g>
			<defs>
				<rect id="SVGID_1_" x="5" y="10" width="101.892" height="86.633"/>
			</defs>
			<clipPath id="SVGID_00000142164398968295103480000006523975711785074587_">
				<use xlink:href="#SVGID_1_"  style="overflow:visible;"/>
			</clipPath>
			<g style="clip-path:url(#SVGID_00000142164398968295103480000006523975711785074587_);">
				<defs>
					<rect id="SVGID_00000132787929196044136930000000096782859659308721_" x="71.082" y="10.001" width="18.878" height="18.48"/>
				</defs>
				<clipPath id="SVGID_00000013900733321935096690000001488022644624479152_">
					<use xlink:href="#SVGID_00000132787929196044136930000000096782859659308721_"  style="overflow:visible;"/>
				</clipPath>
				<g style="clip-path:url(#SVGID_00000013900733321935096690000001488022644624479152_);">
					<defs>
						<rect id="SVGID_00000133520819250693152880000010419202770758450833_" x="71.08" y="9.95" width="19.06" height="18.7"/>
					</defs>
					<clipPath id="SVGID_00000124868938789591096340000018326993182596213911_">
						<use xlink:href="#SVGID_00000133520819250693152880000010419202770758450833_"  style="overflow:visible;"/>
					</clipPath>
					<g style="clip-path:url(#SVGID_00000124868938789591096340000018326993182596213911_);">
						<defs>
							<rect id="SVGID_00000148658608723873126830000017778557595164968344_" x="71.08" y="9.95" width="19.06" height="18.7"/>
						</defs>
						<clipPath id="SVGID_00000036237037730758961680000009076008483159930280_">
							<use xlink:href="#SVGID_00000148658608723873126830000017778557595164968344_"  style="overflow:visible;"/>
						</clipPath>
						<polygon style="clip-path:url(#SVGID_00000036237037730758961680000009076008483159930280_);fill:#55C95A;" points="
							89.46,16.12 90.14,18.61 90.03,19.61 89.62,21.54 89.08,23.65 87.8,25.41 86.28,26.97 84.25,27.8 81.75,28.33 80.8,28.65 
							79.96,28.29 78.19,28.03 76.481,27.47 74.33,26.51 72.82,24.7 71.71,22.6 71.08,19.29 71.37,16.8 72.55,14.61 74,12.62 
							76.06,11.24 78.08,10.59 80.1,9.96 81.56,9.95 84.53,11.06 86.731,12.11 88.31,13.94 						"/>
					</g>
				</g>
			</g>
			<g style="clip-path:url(#SVGID_00000142164398968295103480000006523975711785074587_);">
				<defs>
					<rect id="SVGID_00000150795450789864016160000010693595898820038272_" x="11.081" y="10.001" width="18.878" height="18.48"/>
				</defs>
				<clipPath id="SVGID_00000143615115488954435230000008263108323663839890_">
					<use xlink:href="#SVGID_00000150795450789864016160000010693595898820038272_"  style="overflow:visible;"/>
				</clipPath>
				<g style="clip-path:url(#SVGID_00000143615115488954435230000008263108323663839890_);">
					<defs>
						<rect id="SVGID_00000157295418515424283120000004296483179979125914_" x="11.08" y="9.95" width="19.06" height="18.7"/>
					</defs>
					<clipPath id="SVGID_00000179610255128086257870000008411828110184365470_">
						<use xlink:href="#SVGID_00000157295418515424283120000004296483179979125914_"  style="overflow:visible;"/>
					</clipPath>
					<g style="clip-path:url(#SVGID_00000179610255128086257870000008411828110184365470_);">
						<defs>
							<rect id="SVGID_00000019677620942198349420000003016176193091398794_" x="11.08" y="9.95" width="19.06" height="18.7"/>
						</defs>
						<clipPath id="SVGID_00000183249900882140650540000016344562465337347004_">
							<use xlink:href="#SVGID_00000019677620942198349420000003016176193091398794_"  style="overflow:visible;"/>
						</clipPath>
						<polygon style="clip-path:url(#SVGID_00000183249900882140650540000016344562465337347004_);fill:#E33A3A;" points="
							29.46,16.12 30.14,18.61 30.03,19.61 29.62,21.54 29.08,23.65 27.8,25.41 26.28,26.97 24.25,27.8 21.75,28.33 20.8,28.65 
							19.96,28.29 18.19,28.03 16.48,27.47 14.33,26.51 12.82,24.7 11.71,22.6 11.08,19.29 11.37,16.8 12.55,14.61 14,12.62 
							16.06,11.24 18.08,10.59 20.1,9.96 21.56,9.95 24.53,11.06 26.73,12.11 28.31,13.94 						"/>
					</g>
				</g>
			</g>
			<g style="clip-path:url(#SVGID_00000142164398968295103480000006523975711785074587_);">
				<defs>
					<rect id="SVGID_00000144306246149326436060000013265440471815480998_" x="42.082" y="17" width="18.878" height="18.481"/>
				</defs>
				<clipPath id="SVGID_00000151530754582364383410000013554238317400522152_">
					<use xlink:href="#SVGID_00000144306246149326436060000013265440471815480998_"  style="overflow:visible;"/>
				</clipPath>
				<g style="clip-path:url(#SVGID_00000151530754582364383410000013554238317400522152_);">
					<defs>
						<rect id="SVGID_00000160869887026558545350000011127729188530425783_" x="42.08" y="16.95" width="19.06" height="18.7"/>
					</defs>
					<clipPath id="SVGID_00000176001312384266783030000002683536130808426651_">
						<use xlink:href="#SVGID_00000160869887026558545350000011127729188530425783_"  style="overflow:visible;"/>
					</clipPath>
					<g style="clip-path:url(#SVGID_00000176001312384266783030000002683536130808426651_);">
						<defs>
							<rect id="SVGID_00000130611657451638012420000015522700518249315773_" x="42.08" y="16.95" width="19.06" height="18.7"/>
						</defs>
						<clipPath id="SVGID_00000157291246047027566210000005774412441482111665_">
							<use xlink:href="#SVGID_00000130611657451638012420000015522700518249315773_"  style="overflow:visible;"/>
						</clipPath>
						<polygon style="clip-path:url(#SVGID_00000157291246047027566210000005774412441482111665_);fill:#F26C2B;" points="
							60.46,23.12 61.14,25.61 61.03,26.61 60.62,28.54 60.08,30.65 58.8,32.41 57.28,33.97 55.25,34.8 52.75,35.33 51.8,35.65 
							50.96,35.29 49.19,35.03 47.48,34.47 45.33,33.51 43.82,31.7 42.71,29.6 42.08,26.29 42.37,23.8 43.55,21.61 45,19.62 
							47.06,18.24 49.08,17.59 51.1,16.96 52.56,16.95 55.53,18.06 57.731,19.11 59.31,20.94 						"/>
					</g>
				</g>
			</g>
			<g style="clip-path:url(#SVGID_00000142164398968295103480000006523975711785074587_);">
				<defs>
					<rect id="SVGID_00000103246464878813860490000018066265004028012982_" x="5.005" y="48.002" width="46.995" height="43.958"/>
				</defs>
				<clipPath id="SVGID_00000060731557346954060050000003077679102027515793_">
					<use xlink:href="#SVGID_00000103246464878813860490000018066265004028012982_"  style="overflow:visible;"/>
				</clipPath>
				<g style="clip-path:url(#SVGID_00000060731557346954060050000003077679102027515793_);">
					<defs>
						<rect id="SVGID_00000170975755615871634700000008420691865740334001_" x="19.96" y="48" width="31.85" height="17.96"/>
					</defs>
					<clipPath id="SVGID_00000059270165087632594120000016195521265702359967_">
						<use xlink:href="#SVGID_00000170975755615871634700000008420691865740334001_"  style="overflow:visible;"/>
					</clipPath>
					<g style="clip-path:url(#SVGID_00000059270165087632594120000016195521265702359967_);">
						<defs>
							<rect id="SVGID_00000127725984269979388760000010409390651926867897_" x="19.96" y="48" width="31.85" height="17.96"/>
						</defs>
						<clipPath id="SVGID_00000143615996825665469390000002736022735358222722_">
							<use xlink:href="#SVGID_00000127725984269979388760000010409390651926867897_"  style="overflow:visible;"/>
						</clipPath>
						<path style="clip-path:url(#SVGID_00000143615996825665469390000002736022735358222722_);fill:#5699DE;" d="M43.59,48
							c1.87,1.32,7.13,10.63,8.22,14.57c-3.46,1.12-6.97,2.03-10.65,2.73c-1.28,0.24-2.57,0.47-3.88,0.66
							c0.47-1.54,0.83-2.75,1.28-4.21c-2.47-0.81-4.9-2.06-7.41-2.29c-2.19-0.21-4.8-0.33-6.56,1.86c-0.34-0.59-0.68-1.18-1-1.75
							c-1.24-2.16-2.42-4.22-3.63-6.35c2.46-1.84,5-3.67,8.21-4.17c0.14-0.03,0.29,0.01,0.41-0.04c4.3-2.03,7.98-0.15,11.66,1.82
							c0.54,0.28,1.14,0.45,1.79,0.71C42.57,50.32,43.07,49.17,43.59,48"/>
					</g>
				</g>
				<g style="clip-path:url(#SVGID_00000060731557346954060050000003077679102027515793_);">
					<defs>
						<rect id="SVGID_00000008872040053690029500000005270883408842944391_" x="25.35" y="67.77" width="26.65" height="24.196"/>
					</defs>
					<clipPath id="SVGID_00000072258032860050134820000013548863258107834772_">
						<use xlink:href="#SVGID_00000008872040053690029500000005270883408842944391_"  style="overflow:visible;"/>
					</clipPath>
					<g style="clip-path:url(#SVGID_00000072258032860050134820000013548863258107834772_);">
						<defs>
							<rect id="SVGID_00000142175777561478525000000003849971816122328998_" x="25.35" y="67.77" width="26.65" height="24.196"/>
						</defs>
						<clipPath id="SVGID_00000035519684649231624680000016036067739482370730_">
							<use xlink:href="#SVGID_00000142175777561478525000000003849971816122328998_"  style="overflow:visible;"/>
						</clipPath>
						<path style="clip-path:url(#SVGID_00000035519684649231624680000016036067739482370730_);fill:#AD70D6;" d="M52,68.74v4.85
							c-0.11,0.36-0.21,0.719-0.33,1.08c-0.69,2.179-1.23,4.429-2.13,6.52c-0.47,1.1-1.4,2.13-2.37,2.869
							c-1.95,1.511-4.06,2.79-6.22,4.221c0.61,1.04,1.27,2.17,1.95,3.33c-2.99,1.02-16.1-0.33-17.55-1.81
							c1.13-2.93,2.09-5.93,3.29-8.951c0.73-1.799,1.54-3.619,2.51-5.409c1.06,1.31,1.94,2.39,2.84,3.5
							c2.04-1.46,4.03-2.89,6.1-4.37c0.24-2.261,2.88-3.88,1.57-6.801c0.9,0.08,1.51,0.141,2.13,0.191
							c2.48,0.19,4.96,0.37,7.45,0.559C51.49,68.54,51.75,68.66,52,68.74"/>
					</g>
				</g>
				<g style="clip-path:url(#SVGID_00000060731557346954060050000003077679102027515793_);">
					<defs>
						<rect id="SVGID_00000147190247178218601060000013619176548894087830_" x="5" y="54.47" width="20.89" height="33.69"/>
					</defs>
					<clipPath id="SVGID_00000019675894256485863550000009357055841560155827_">
						<use xlink:href="#SVGID_00000147190247178218601060000013619176548894087830_"  style="overflow:visible;"/>
					</clipPath>
					<g style="clip-path:url(#SVGID_00000019675894256485863550000009357055841560155827_);">
						<defs>
							<rect id="SVGID_00000030485475920983997280000003525824807495342724_" x="5" y="54.47" width="20.89" height="33.69"/>
						</defs>
						<clipPath id="SVGID_00000114758782082328549180000013977336385764776865_">
							<use xlink:href="#SVGID_00000030485475920983997280000003525824807495342724_"  style="overflow:visible;"/>
						</clipPath>
						<path style="clip-path:url(#SVGID_00000114758782082328549180000013977336385764776865_);fill:#E1D153;" d="M21.12,74.59
							c0.76,2.09,2.04,4.26,4.77,5.37c-2.01,2.83-3.87,5.46-5.82,8.2c-2.94-1.66-5.82-3.2-7.7-6.08c-0.36-0.55-0.88-1-1.35-1.46
							c-1.36-1.32-1.66-3.11-1.93-4.81c-0.27-1.77-0.11-3.61-0.14-5.43c-0.02-0.51,0-1.04,0-1.58c-1.44-0.08-2.7-0.149-3.95-0.2
							c0.23-2.64,8.18-13.32,10.55-14.13c1.78,2.16,3.66,4.28,5.42,6.59c1.37,1.79,2.66,3.7,3.81,5.83c-1.7,0.24-2.94,0.4-4.38,0.61
							C20.59,69.89,20.33,72.441,21.12,74.59"/>
					</g>
				</g>
			</g>
			<polygon style="clip-path:url(#SVGID_00000142164398968295103480000006523975711785074587_);fill:#9F9EB1;" points="
				82.168,75.124 79.952,76.204 77.882,77.584 76.457,79.644 75.451,82.864 75.449,85.235 75.928,87.548 77.376,89.407 
				78.621,90.703 80.061,91.763 80.358,92.135 81.162,92.564 81.625,92.637 84.077,93.345 86.259,93.565 88.335,92.903 
				90.284,91.956 91.763,90.351 92.802,89.113 93.741,87.35 94.17,85.487 94.174,83.023 93.641,80.666 92.194,78.708 90.198,76.439 
				88.66,75.62 86.723,75.254 84.633,74.879 			"/>
			<g style="clip-path:url(#SVGID_00000142164398968295103480000006523975711785074587_);">
				<defs>
					
						<rect id="SVGID_00000112619202347267531180000013602238904620766604_" x="68.545" y="45.81" transform="matrix(0.7071 -0.7071 0.7071 0.7071 -20.1418 71.9233)" width="16.4" height="28.929"/>
				</defs>
				<clipPath id="SVGID_00000015345735413516771400000012719455951734319259_">
					<use xlink:href="#SVGID_00000112619202347267531180000013602238904620766604_"  style="overflow:visible;"/>
				</clipPath>
				<path style="clip-path:url(#SVGID_00000015345735413516771400000012719455951734319259_);fill:#523742;" d="M67.089,55.994
					c0.755-2.766,5.655-8.485,5.655-8.485c2.122,0.707,1.896,1.119,4.244,2.828c0.096,0.071,1.319,1.354,1.414,1.414
					c0.541,0.336,3.871,3.891,4.95,7.447c0.159,0.521,0.431,1.006,0.68,1.571c1.105-0.425,2.149-0.828,3.213-1.238
					c0.348,2.008-2.202,11.176-3.998,14.343c-3.881-1.983-7.577-4.253-11.285-7.009c1.263-0.678,2.256-1.209,3.456-1.852
					c-1.047-2.064-1.942-3.753-3.38-5.484C70.782,58.019,69.21,56.701,67.089,55.994"/>
			</g>
		</g>
	</g>
</g>
<g id="Layer_2">
	<g id="Layer_3">
	</g>
</g>
</svg>
