<?xml version="1.0" encoding="iso-8859-1"?>
<!-- Generator: Adobe Illustrator 26.0.1, SVG Export Plug-In . SVG Version: 6.00 Build 0)  -->
<svg version="1.1" xmlns="http://www.w3.org/2000/svg" xmlns:xlink="http://www.w3.org/1999/xlink" x="0px" y="0px"
	 viewBox="0 0 100 100" style="enable-background:new 0 0 100 100;" xml:space="preserve">
<g id="Layer_1">
	<g id="G_x28__T2_T2_T2_L1__x29__L1_00000076575876783998966540000015210764818204458930_">
		<g>
			<defs>
				<rect id="SVGID_1_" x="8" y="2" width="85.365" height="95.012"/>
			</defs>
			<clipPath id="SVGID_00000073707519900169619720000015583584000034189974_">
				<use xlink:href="#SVGID_1_"  style="overflow:visible;"/>
			</clipPath>
			<polygon style="clip-path:url(#SVGID_00000073707519900169619720000015583584000034189974_);fill:#523742;" points="
				43.253,37.994 41.068,39.134 39.036,40.572 37.669,42.67 36.754,45.917 36.818,48.287 37.36,50.586 38.859,52.404 40.14,53.666 
				41.609,54.685 41.916,55.049 42.729,55.454 43.197,55.515 45.669,56.154 47.854,56.313 49.911,55.594 51.834,54.593 
				53.266,52.948 54.273,51.678 55.162,49.893 55.538,48.018 55.473,45.556 54.875,43.215 53.374,41.297 51.316,39.085 
				49.758,38.31 47.81,37.996 45.71,37.681 			"/>
			<g style="clip-path:url(#SVGID_00000073707519900169619720000015583584000034189974_);">
				<defs>
					
						<rect id="SVGID_00000105411772135605678820000006919732905516159616_" x="7.595" y="17.44" transform="matrix(0.4722 -0.8815 0.8815 0.4722 -10.9592 32.9786)" width="28.929" height="16.4"/>
				</defs>
				<clipPath id="SVGID_00000089547334390567083070000013417729833340875455_">
					<use xlink:href="#SVGID_00000105411772135605678820000006919732905516159616_"  style="overflow:visible;"/>
				</clipPath>
				<path style="clip-path:url(#SVGID_00000089547334390567083070000013417729833340875455_);fill:#5699DE;" d="M20.757,36.123
					c-2.866,0.077-9.759-2.959-9.759-2.959c0.063-2.235,0.523-2.138,1.479-4.88c0.039-0.113,0.915-1.655,0.945-1.763
					c0.165-0.615,2.605-4.831,5.696-6.893c0.452-0.302,0.838-0.704,1.307-1.106c-0.727-0.934-1.414-1.817-2.116-2.717
					c1.823-0.913,11.337-1.125,14.886-0.324c-0.773,4.291-1.877,8.484-3.443,12.832c-1.014-1.013-1.809-1.81-2.773-2.773
					c-1.672,1.599-3.031,2.945-4.27,4.822C21.626,32.001,20.82,33.888,20.757,36.123"/>
			</g>
			<polygon style="clip-path:url(#SVGID_00000073707519900169619720000015583584000034189974_);fill:#9F9EB1;" points="
				82.478,78.532 80.593,79.119 78.574,79.773 76.513,81.148 75.065,83.141 73.887,85.333 73.599,87.814 73.599,87.827 
				74.225,91.136 75.339,93.23 76.848,95.046 79.001,96.006 80.71,96.565 82.478,96.823 82.916,97.012 83.823,97.012 84.27,96.858 
				86.767,96.33 88.795,95.498 90.316,93.938 91.593,92.184 92.141,90.073 92.477,88.487 92.477,86.496 91.978,84.648 
				90.824,82.472 89.245,80.643 87.047,79.594 84.218,78.532 			"/>
			<g style="clip-path:url(#SVGID_00000073707519900169619720000015583584000034189974_);">
				<defs>
					
						<rect id="SVGID_00000013874234123840119590000004911661138011532734_" x="36.44" y="4.633" transform="matrix(0.7163 -0.6978 0.6978 0.7163 -0.7323 37.5621)" width="18.779" height="30.098"/>
				</defs>
				<clipPath id="SVGID_00000114052538764334826980000015838783419124994204_">
					<use xlink:href="#SVGID_00000013874234123840119590000004911661138011532734_"  style="overflow:visible;"/>
				</clipPath>
				<path style="clip-path:url(#SVGID_00000114052538764334826980000015838783419124994204_);fill:#E33A3A;" d="M55.841,25.816
					c0.956,0.925,3.007-0.081,3.327,1.882c-3.333,2.87-6.623,5.712-10.128,8.735c-2.514-3.498-4.189-7.381-6.148-11.084
					c0.09-0.394,0.172-0.726,0.255-1.128c1.42,0.125,2.867,0.264,4.351,0.397c1.378-2.599,0.148-4.793-1.123-6.599
					c-2.069-2.94-5.01-1.89-7.448-1.01c-0.757,0.599-1.272,1.016-1.964,1.566c-1.51-2.481-2.88-4.734-4.265-7.029
					c0.165-0.188,0.267-0.399,0.423-0.454c1.913-0.774,3.78-1.867,5.764-2.194c4.976-0.812,9.551,0.259,13.315,3.879
					c2.403,2.323,4,5.024,4.019,8.44C56.228,22.716,55.982,24.212,55.841,25.816"/>
			</g>
			<g style="clip-path:url(#SVGID_00000073707519900169619720000015583584000034189974_);">
				<defs>
					
						<rect id="SVGID_00000142146715708723945950000013475190104328015495_" x="71.124" y="23.401" transform="matrix(0.8825 -0.4704 0.4704 0.8825 -8.4879 41.7638)" width="16.4" height="28.929"/>
				</defs>
				<clipPath id="SVGID_00000166670784448576010340000004898651373592352920_">
					<use xlink:href="#SVGID_00000142146715708723945950000013475190104328015495_"  style="overflow:visible;"/>
				</clipPath>
				<path style="clip-path:url(#SVGID_00000166670784448576010340000004898651373592352920_);fill:#E1D153;" d="M71.334,30.958
					c1.528-2.425,7.884-6.469,7.884-6.469c1.823,1.295,1.485,1.623,3.234,3.942c0.072,0.095,0.867,1.68,0.941,1.765
					c0.42,0.479,2.569,4.85,2.565,8.566c0,0.544,0.12,1.088,0.193,1.701c1.181-0.085,2.297-0.166,3.435-0.249
					c-0.253,2.023-5.364,10.05-8.003,12.556c-3.138-3.027-6.01-6.275-8.755-9.993c1.406-0.279,2.511-0.499,3.847-0.765
					c-0.401-2.279-0.764-4.156-1.636-6.23C74.277,33.972,73.157,32.253,71.334,30.958"/>
			</g>
			<g style="clip-path:url(#SVGID_00000073707519900169619720000015583584000034189974_);">
				<defs>
					
						<rect id="SVGID_00000145769150698060573540000007781277096588059535_" x="56.148" y="51.067" transform="matrix(0.9832 -0.1824 0.1824 0.9832 -9.8326 14.0001)" width="30.099" height="18.778"/>
				</defs>
				<clipPath id="SVGID_00000143591439453492835230000004436730480875869849_">
					<use xlink:href="#SVGID_00000145769150698060573540000007781277096588059535_"  style="overflow:visible;"/>
				</clipPath>
				<path style="clip-path:url(#SVGID_00000143591439453492835230000004436730480875869849_);fill:#F26C2B;" d="M60.536,65.374
					c-1.3,0.282-1.603,2.545-3.413,1.722c-0.535-4.366-1.07-8.681-1.638-13.274c4.305-0.148,8.464,0.616,12.632,1.044
					c0.278,0.294,0.509,0.546,0.797,0.839c-0.893,1.111-1.813,2.237-2.747,3.398c1.395,2.588,3.903,2.785,6.11,2.731
					c3.595-0.087,4.356-3.116,4.977-5.632c-0.076-0.962-0.138-1.622-0.21-2.504c2.901,0.123,5.536,0.235,8.213,0.359
					c0.065,0.242,0.184,0.444,0.142,0.604c-0.418,2.02-0.547,4.18-1.376,6.012c-2.089,4.588-5.521,7.797-10.623,8.916
					c-3.265,0.708-6.399,0.536-9.25-1.346C62.898,67.418,61.791,66.383,60.536,65.374"/>
			</g>
			<g style="clip-path:url(#SVGID_00000073707519900169619720000015583584000034189974_);">
				<defs>
					
						<rect id="SVGID_00000039131666644099963750000012948557506679200926_" x="32.339" y="67.792" transform="matrix(0.0449 -0.999 0.999 0.0449 -43.4565 119.0576)" width="16.399" height="28.929"/>
				</defs>
				<clipPath id="SVGID_00000175300134935488526350000016215724169982731658_">
					<use xlink:href="#SVGID_00000039131666644099963750000012948557506679200926_"  style="overflow:visible;"/>
				</clipPath>
				<path style="clip-path:url(#SVGID_00000175300134935488526350000016215724169982731658_);fill:#AD70D6;" d="M50.554,78.902
					c1.308,2.551,1.548,10.079,1.548,10.079c-2.042,0.909-2.153,0.452-5.039,0.775c-0.119,0.013-1.888-0.11-1.998-0.09
					c-0.626,0.117-5.483-0.262-8.678-2.159c-0.468-0.277-0.997-0.451-1.562-0.7c-0.528,1.059-1.028,2.061-1.536,3.082
					c-1.612-1.249-5.914-9.737-6.725-13.285c4.203-1.156,8.462-1.973,13.06-2.439c-0.477,1.351-0.851,2.414-1.303,3.699
					c2.165,0.817,3.965,1.461,6.194,1.767C46.461,79.899,48.511,79.811,50.554,78.902"/>
			</g>
			<g style="clip-path:url(#SVGID_00000073707519900169619720000015583584000034189974_);">
				<defs>
					
						<rect id="SVGID_00000122723053504010723000000008154997187896726711_" x="8.135" y="54.383" transform="matrix(0.1767 -0.9843 0.9843 0.1767 -43.6815 75.3208)" width="30.098" height="18.779"/>
				</defs>
				<clipPath id="SVGID_00000151517471904394902190000016891746856824481428_">
					<use xlink:href="#SVGID_00000122723053504010723000000008154997187896726711_"  style="overflow:visible;"/>
				</clipPath>
				<path style="clip-path:url(#SVGID_00000151517471904394902190000016891746856824481428_);fill:#55C95A;" d="M22.351,52.061
					c0.196-1.316-1.815-2.398-0.404-3.801c4.273,1.042,8.498,2.065,12.996,3.157c-1.383,4.08-3.568,7.701-5.44,11.449
					c-0.373,0.156-0.691,0.282-1.066,0.449c-0.724-1.228-1.453-2.486-2.208-3.771c-2.915,0.391-3.984,2.668-4.714,4.752
					c-1.189,3.393,1.377,5.175,3.51,6.645c0.928,0.268,1.566,0.444,2.417,0.688c-1.14,2.671-2.175,5.096-3.237,7.557
					c-0.25-0.024-0.48,0.016-0.616-0.08c-1.742-1.106-3.717-1.988-5.137-3.412c-3.555-3.574-5.345-7.919-4.589-13.087
					c0.492-3.306,1.759-6.177,4.527-8.179C19.604,53.549,20.964,52.879,22.351,52.061"/>
			</g>
		</g>
	</g>
</g>
<g id="Layer_2">
	<g id="Layer_3">
	</g>
</g>
</svg>
