<?xml version="1.0" encoding="iso-8859-1"?>
<!-- Generator: Adobe Illustrator 26.0.1, SVG Export Plug-In . SVG Version: 6.00 Build 0)  -->
<svg version="1.1" xmlns="http://www.w3.org/2000/svg" xmlns:xlink="http://www.w3.org/1999/xlink" x="0px" y="0px"
	 viewBox="0 0 100 100" style="enable-background:new 0 0 100 100;" xml:space="preserve">
<g id="Layer_1">
	<g id="L6_L1_L1_00000124842333793596011360000010640175206445126030_">
		<g>
			<defs>
				<rect id="SVGID_1_" x="6" y="6" width="86" height="89"/>
			</defs>
			<clipPath id="SVGID_00000031918364570718578940000014505819563954573714_">
				<use xlink:href="#SVGID_1_"  style="overflow:visible;"/>
			</clipPath>
			<g style="clip-path:url(#SVGID_00000031918364570718578940000014505819563954573714_);">
				<defs>
					<rect id="SVGID_00000132061122776676837130000018113916696291069375_" x="66.317" y="21.814" width="25.683" height="29.056"/>
				</defs>
				<clipPath id="SVGID_00000173876638108864640130000002598289457782271618_">
					<use xlink:href="#SVGID_00000132061122776676837130000018113916696291069375_"  style="overflow:visible;"/>
				</clipPath>
				<path style="clip-path:url(#SVGID_00000173876638108864640130000002598289457782271618_);fill:#F26C2B;" d="M92,35.579v0.786
					c-0.181,1.003-0.418,2.006-0.543,3.01c-0.395,3.195-0.746,6.391-1.142,9.576c-0.067,0.556-0.248,1.09-0.44,1.92
					c-0.825-0.186-1.583-0.317-2.317-0.513c-0.712-0.196-1.436-0.436-2.125-0.698c-3.459-1.309-6.918-2.629-10.367-3.97
					c-0.304-0.12-0.519-0.437-0.994-0.851c1.142-0.949,2.204-1.822,3.368-2.803c-1.017-1.483-1.944-3.108-3.153-4.537
					c-1.38-1.636-2.94-3.141-4.521-4.603c-0.962-0.883-2.137-1.57-3.449-2.52c3.528-3.021,6.738-5.78,9.982-8.561
					c4.442,3.937,8.749,7.613,10.841,13.197c1.525-0.905,2.757-1.636,4.136-2.465C91.548,33.714,91.773,34.641,92,35.579"/>
			</g>
			<g style="clip-path:url(#SVGID_00000031918364570718578940000014505819563954573714_);">
				<defs>
					<rect id="SVGID_00000057133770956197656050000002809332305296548796_" x="67.985" y="54.481" width="24.016" height="29.132"/>
				</defs>
				<clipPath id="SVGID_00000077300681187864547960000011310166531292436110_">
					<use xlink:href="#SVGID_00000057133770956197656050000002809332305296548796_"  style="overflow:visible;"/>
				</clipPath>
				<path style="clip-path:url(#SVGID_00000077300681187864547960000011310166531292436110_);fill:#E1D153;" d="M92,60.524
					c-0.554,1.177-0.995,2.094-1.504,3.161c-1.186,4.363-4.126,7.975-7.178,11.507c1.436,1.06,2.488,1.834,3.854,2.837
					c-5.967,3.107-12.376,3.589-18.639,5.584c-0.215-1.047-0.429-1.756-0.497-2.486c-0.081-0.873-0.046-1.767-0.034-2.663
					c0-0.806,0.022-1.624,0.045-2.442c0.012-0.786,0.057-1.56,0.057-2.345v-6.86c1.865,0.185,3.063,1.167,4.318,1.952
					c3.865-4.003,5.753-8.954,7.46-14.288C84.076,56.575,87.941,58.504,92,60.524"/>
			</g>
			<g style="clip-path:url(#SVGID_00000031918364570718578940000014505819563954573714_);">
				<defs>
					<rect id="SVGID_00000133505600381439445730000005242040865364431015_" x="7.025" y="54.971" width="25.031" height="29.471"/>
				</defs>
				<clipPath id="SVGID_00000028313103612708674320000007048508875204737701_">
					<use xlink:href="#SVGID_00000133505600381439445730000005242040865364431015_"  style="overflow:visible;"/>
				</clipPath>
				<path style="clip-path:url(#SVGID_00000028313103612708674320000007048508875204737701_);fill:#AD70D6;" d="M30.326,74.146
					c0.622,0.534,1.085,1.222,1.729,1.952c-3.447,2.837-6.726,5.541-10.139,8.344c-0.803-0.938-1.447-1.69-2.272-2.65
					c-1.933-0.666-2.928-2.705-4.318-4.297c-1.289-1.472-2.555-2.999-2.951-5.029c-0.112-0.533-0.836-0.97-1.243-1.418
					c-1.311,0.808-2.532,1.56-4.092,2.509c-0.147-6.565,0.825-12.608,2.091-18.585c0.904,0.143,1.504,0.131,2.012,0.328
					c0.565,0.23,1.029,0.654,1.583,0.883c4.103,1.221,8.082,2.792,12.072,4.766c-0.599,1.635-2.475,1.865-3.674,3.053
					c1.786,2.368,3.403,4.747,5.28,6.905C27.5,72.162,29.049,73.034,30.326,74.146"/>
			</g>
			<g style="clip-path:url(#SVGID_00000031918364570718578940000014505819563954573714_);">
				<defs>
					<rect id="SVGID_00000103959464404608003140000018368221361507233439_" x="34.339" y="6.044" width="32.521" height="21.213"/>
				</defs>
				<clipPath id="SVGID_00000129171377860890161940000009475534225360533680_">
					<use xlink:href="#SVGID_00000103959464404608003140000018368221361507233439_"  style="overflow:visible;"/>
				</clipPath>
				<path style="clip-path:url(#SVGID_00000129171377860890161940000009475534225360533680_);fill:#5699DE;" d="M52.176,6.044
					c5.742,3.25,9.678,8.006,14.684,12.118c-4.781,3.326-9.372,6.337-14.65,9.096v-4.515c-5.822-1.004-11.145,0.01-16.696,1.57
					c-0.407-4.472-0.78-8.583-1.175-12.903c3.108-0.436,5.934-1.036,8.772-1.178c2.859-0.152,5.731,0.153,8.66,0.262
					C51.906,9.054,52.018,7.713,52.176,6.044"/>
			</g>
			<g style="clip-path:url(#SVGID_00000031918364570718578940000014505819563954573714_);">
				<defs>
					<rect id="SVGID_00000132778671459714019450000006587340477184634531_" x="6.203" y="20.648" width="23.083" height="28.849"/>
				</defs>
				<clipPath id="SVGID_00000155857451677609964540000014220748716937577877_">
					<use xlink:href="#SVGID_00000132778671459714019450000006587340477184634531_"  style="overflow:visible;"/>
				</clipPath>
				<path style="clip-path:url(#SVGID_00000155857451677609964540000014220748716937577877_);fill:#E33A3A;" d="M29.286,35.994
					c0.011,0.36-0.169,0.709-0.316,1.254c-1.402-0.785-2.623-1.472-3.957-2.225c-1.017,1.494-2.125,2.902-3.007,4.439
					c-1.424,2.487-2.735,5.029-3.119,7.929c-0.091,0.688-0.667,1.31-1.097,2.105c-3.934-1.854-7.777-3.664-11.587-5.453
					c1.787-5.595,3.991-10.623,8.264-14.713c-1.436-1.047-2.589-1.887-4.036-2.945c5.878-2.923,12.084-3.872,18.098-5.737
					c0.237,0.807,0.486,1.298,0.497,1.8C29.139,26.963,29.229,31.478,29.286,35.994"/>
			</g>
			<g style="clip-path:url(#SVGID_00000031918364570718578940000014505819563954573714_);">
				<defs>
					<rect id="SVGID_00000133515826200740813160000016285897349687113903_" x="31.286" y="72.826" width="32.318" height="20.68"/>
				</defs>
				<clipPath id="SVGID_00000041993068504469398170000010997801704041379724_">
					<use xlink:href="#SVGID_00000133515826200740813160000016285897349687113903_"  style="overflow:visible;"/>
				</clipPath>
				<path style="clip-path:url(#SVGID_00000041993068504469398170000010997801704041379724_);fill:#55C95A;" d="M62.293,75.597
					c0.452,4.352,0.872,8.354,1.312,12.565c-1.243,0.175-2.182,0.294-3.143,0.425c-4.566,1.572-9.268,1.352-14.119,0.577
					c-0.147,1.561-0.259,2.912-0.384,4.342c-1.899-0.339-3.143-1.351-4.374-2.442c-3.188-2.815-6.41-5.584-9.62-8.367
					c-0.158-0.142-0.294-0.328-0.678-0.742c4.567-3.217,9.043-6.402,14.321-9.129v4.604c1.301,0.075,2.442,0.261,3.55,0.174
					c2.442-0.196,4.872-0.469,7.291-0.829C58.314,76.492,60.156,76.033,62.293,75.597"/>
			</g>
			<polygon style="clip-path:url(#SVGID_00000031918364570718578940000014505819563954573714_);fill:#523742;" points="35.961,42 
				34.077,42.587 32.056,43.241 29.996,44.615 28.549,46.61 27.371,48.802 27.082,51.282 27.082,51.295 27.709,54.604 
				28.822,56.698 30.332,58.515 32.484,59.474 34.193,60.033 35.961,60.291 36.401,60.481 37.306,60.481 37.754,60.327 
				40.251,59.798 42.278,58.966 43.799,57.406 45.076,55.652 45.625,53.541 45.96,51.955 45.96,49.963 45.462,48.116 44.306,45.941 
				42.728,44.112 40.53,43.063 37.7,42 			"/>
			<polygon style="clip-path:url(#SVGID_00000031918364570718578940000014505819563954573714_);fill:#9F9EB1;" points="60.961,42 
				59.077,42.587 57.057,43.241 54.996,44.615 53.548,46.61 52.37,48.802 52.082,51.282 52.082,51.295 52.708,54.604 53.822,56.698 
				55.331,58.515 57.484,59.474 59.193,60.033 60.961,60.291 61.401,60.481 62.305,60.481 62.753,60.327 65.25,59.798 
				67.278,58.966 68.799,57.406 70.076,55.652 70.624,53.541 70.96,51.955 70.96,49.964 70.461,48.116 69.307,45.941 67.728,44.112 
				65.53,43.063 62.7,42 			"/>
		</g>
	</g>
</g>
<g id="Layer_2">
	<g id="Layer_3">
	</g>
</g>
</svg>
