<?xml version="1.0" encoding="iso-8859-1"?>
<!-- Generator: Adobe Illustrator 26.0.1, SVG Export Plug-In . SVG Version: 6.00 Build 0)  -->
<svg version="1.1" xmlns="http://www.w3.org/2000/svg" xmlns:xlink="http://www.w3.org/1999/xlink" x="0px" y="0px"
	 viewBox="0 0 100 100" style="enable-background:new 0 0 100 100;" xml:space="preserve">
<g id="Layer_1">
	<g id="G_x28__T1_T1_T1_L3__x29__T1_L1_00000042728193974704940970000016775881960077126072_">
		<g>
			<defs>
				<rect id="SVGID_1_" x="-2" y="4" width="102.767" height="96.721"/>
			</defs>
			<clipPath id="SVGID_00000147899966933680842880000004122526738667288489_">
				<use xlink:href="#SVGID_1_"  style="overflow:visible;"/>
			</clipPath>
			<g style="clip-path:url(#SVGID_00000147899966933680842880000004122526738667288489_);">
				<defs>
					<rect id="SVGID_00000114066909377388077140000011956880548529487253_" x="-2" y="4" width="102.767" height="96.721"/>
				</defs>
				<clipPath id="SVGID_00000116214680102530423210000001468027495940396958_">
					<use xlink:href="#SVGID_00000114066909377388077140000011956880548529487253_"  style="overflow:visible;"/>
				</clipPath>
				<g style="clip-path:url(#SVGID_00000116214680102530423210000001468027495940396958_);">
					<defs>
						<rect id="SVGID_00000012459972436367114510000014951343448286268301_" x="-2" y="4" width="102.767" height="96.721"/>
					</defs>
					<clipPath id="SVGID_00000139985230822980650070000007623051151702823561_">
						<use xlink:href="#SVGID_00000012459972436367114510000014951343448286268301_"  style="overflow:visible;"/>
					</clipPath>
					<g style="opacity:0.99;clip-path:url(#SVGID_00000139985230822980650070000007623051151702823561_);">
						<g>
							<defs>
								
									<rect id="SVGID_00000173125278774394995790000002265238661348361095_" x="18.408" y="15.642" width="47.766" height="52.098"/>
							</defs>
							<clipPath id="SVGID_00000114757922008781422610000004257697294305712037_">
								<use xlink:href="#SVGID_00000173125278774394995790000002265238661348361095_"  style="overflow:visible;"/>
							</clipPath>
							<g style="clip-path:url(#SVGID_00000114757922008781422610000004257697294305712037_);">
								<defs>
									<polygon id="SVGID_00000147183247166816022570000016685352045128257698_" points="18.412,18.375 20.774,67.739 
										66.17,65.011 63.809,15.647 									"/>
								</defs>
								<clipPath id="SVGID_00000133505231567390763920000016999770911153358477_">
									<use xlink:href="#SVGID_00000147183247166816022570000016685352045128257698_"  style="overflow:visible;"/>
								</clipPath>
								<g style="clip-path:url(#SVGID_00000133505231567390763920000016999770911153358477_);">
									<defs>
										
											<rect id="SVGID_00000025431785419401448350000004241300697680396217_" x="23.097" y="16.928" width="34.56" height="22.64"/>
									</defs>
									<clipPath id="SVGID_00000006694724920206085070000017331203824890665127_">
										<use xlink:href="#SVGID_00000025431785419401448350000004241300697680396217_"  style="overflow:visible;"/>
									</clipPath>
									<g style="clip-path:url(#SVGID_00000006694724920206085070000017331203824890665127_);">
										<defs>
											
												<rect id="SVGID_00000173862353641975986870000009943641138754008983_" x="23.097" y="16.928" width="34.56" height="22.64"/>
										</defs>
										<clipPath id="SVGID_00000015345413412433861070000001846828114597438601_">
											<use xlink:href="#SVGID_00000173862353641975986870000009943641138754008983_"  style="overflow:visible;"/>
										</clipPath>
										<path style="clip-path:url(#SVGID_00000015345413412433861070000001846828114597438601_);fill:#5699DE;" d="
											M57.656,27.128c-2.13,2-4.229,4.11-6.53,6.1c-1.78,1.55-3.679,3.03-5.83,4.36c-0.329-1.76-0.57-3.06-0.849-4.56
											c-2.46,0.35-5.101,0.24-7.291,1.19c-2.12,0.94-4.29,2.42-5.3,5.35c-3.03-1.93-5.83-3.73-8.76-5.6
											c1.57-3.19,3.01-6.32,5.88-8.47c0.56-0.41,0.991-0.98,1.44-1.51c1.31-1.5,3.13-1.93,4.88-2.32
											c1.81-0.4,3.72-0.34,5.6-0.49c0.531-0.05,1.08-0.07,1.63-0.1c0.01-1.52,0.02-2.84,0.01-4.15
											C45.276,16.998,56.707,24.688,57.656,27.128"/>
									</g>
								</g>
								<g style="clip-path:url(#SVGID_00000133505231567390763920000016999770911153358477_);">
									<defs>
										
											<rect id="SVGID_00000006691166217204755110000008416014745251372677_" x="20.074" y="39.618" width="25.162" height="26.98"/>
									</defs>
									<clipPath id="SVGID_00000146485983221581218760000007808059886482918794_">
										<use xlink:href="#SVGID_00000006691166217204755110000008416014745251372677_"  style="overflow:visible;"/>
									</clipPath>
									<g style="clip-path:url(#SVGID_00000146485983221581218760000007808059886482918794_);">
										<defs>
											
												<rect id="SVGID_00000132804695239393552580000012342757950979965839_" x="20.074" y="39.618" width="25.162" height="26.98"/>
										</defs>
										<clipPath id="SVGID_00000180363960434557142700000017622137733134723243_">
											<use xlink:href="#SVGID_00000132804695239393552580000012342757950979965839_"  style="overflow:visible;"/>
										</clipPath>
										<path style="clip-path:url(#SVGID_00000180363960434557142700000017622137733134723243_);fill:#E1D153;" d="
											M45.237,55.379c-0.03,0.939-0.07,1.6-0.09,2.25c-0.07,2.619-0.13,5.239-0.2,7.85c-0.01,0.28-0.13,0.559-0.2,0.82
											l-5.01,0.3c-0.37-0.09-0.75-0.18-1.13-0.271c-2.28-0.599-4.63-1.029-6.83-1.84c-1.16-0.429-2.27-1.339-3.09-2.309
											c-1.65-1.96-3.08-4.101-4.67-6.271c-1.04,0.7-2.18,1.46-3.34,2.25c-1.2-3.08-0.47-16.929,0.99-18.539
											c3.08,0.989,6.23,1.82,9.41,2.9c1.89,0.65,3.81,1.39,5.71,2.29c-1.3,1.199-2.37,2.19-3.47,3.199
											c1.61,2.06,3.18,4.06,4.82,6.141C40.477,54.269,42.287,56.939,45.237,55.379"/>
									</g>
								</g>
								<g style="clip-path:url(#SVGID_00000133505231567390763920000016999770911153358477_);">
									<defs>
										
											<rect id="SVGID_00000133510513460790611040000018193126093787756217_" x="46.887" y="31.678" width="18.86" height="34.04"/>
									</defs>
									<clipPath id="SVGID_00000042709292361647342350000005752688679545145994_">
										<use xlink:href="#SVGID_00000133510513460790611040000018193126093787756217_"  style="overflow:visible;"/>
									</clipPath>
									<g style="clip-path:url(#SVGID_00000042709292361647342350000005752688679545145994_);">
										<defs>
											
												<rect id="SVGID_00000112606220712062534580000017711775549124597931_" x="46.887" y="31.678" width="18.86" height="34.04"/>
										</defs>
										<clipPath id="SVGID_00000120539261511460749370000010984773030840165799_">
											<use xlink:href="#SVGID_00000112606220712062534580000017711775549124597931_"  style="overflow:visible;"/>
										</clipPath>
										<path style="clip-path:url(#SVGID_00000120539261511460749370000010984773030840165799_);fill:#AD70D6;" d="
											M63.946,40.469c2.32,4.39,0.57,8.38-1.29,12.37c-0.26,0.58-0.409,1.22-0.64,1.92c1.29,0.489,2.5,0.95,3.731,1.42
											c-1.261,2.05-10.611,8.149-14.631,9.54c-1.33-3.57-2.45-7.2-3.35-11.02c-0.32-1.33-0.62-2.67-0.88-4.04
											c1.61,0.4,2.88,0.7,4.41,1.09c0.711-2.65,1.88-5.27,2.001-7.93c0.099-2.31,0.089-5.06-2.261-6.77
											c0.6-0.39,1.19-0.79,1.761-1.16c2.17-1.43,4.239-2.8,6.37-4.21c2.029,2.47,4.04,5.02,4.729,8.37
											C63.926,40.189,63.896,40.349,63.946,40.469"/>
									</g>
								</g>
							</g>
						</g>
					</g>
				</g>
				<g style="clip-path:url(#SVGID_00000116214680102530423210000001468027495940396958_);">
					<defs>
						<polygon id="SVGID_00000037667324588875957350000007463177672779916700_" points="63.154,39.848 76.044,53.974 
							100.767,30.573 87.876,16.447 						"/>
					</defs>
					<clipPath id="SVGID_00000007401733547462129730000007600773987683399609_">
						<use xlink:href="#SVGID_00000037667324588875957350000007463177672779916700_"  style="overflow:visible;"/>
					</clipPath>
					<g style="clip-path:url(#SVGID_00000007401733547462129730000007600773987683399609_);">
						<defs>
							<rect id="SVGID_00000112620604125279179450000007944800653320086188_" x="65.867" y="23.968" width="31.1" height="23.694"/>
						</defs>
						<clipPath id="SVGID_00000159440872582619449000000006303252102322540967_">
							<use xlink:href="#SVGID_00000112620604125279179450000007944800653320086188_"  style="overflow:visible;"/>
						</clipPath>
						<g style="clip-path:url(#SVGID_00000159440872582619449000000006303252102322540967_);">
							<defs>
								
									<rect id="SVGID_00000072975351807330464990000011639511653346394028_" x="65.867" y="23.968" width="31.1" height="23.694"/>
							</defs>
							<clipPath id="SVGID_00000168794914261632680290000015042636919993699239_">
								<use xlink:href="#SVGID_00000072975351807330464990000011639511653346394028_"  style="overflow:visible;"/>
							</clipPath>
							<path style="clip-path:url(#SVGID_00000168794914261632680290000015042636919993699239_);fill:#E33A3A;" d="M96.967,30.958
								c-0.931,2.48-1.391,2.2-3.49,4.91c-0.09,0.11-1.64,1.51-1.71,1.62c-0.42,0.62-4.7,4.42-8.88,5.57
								c-0.61,0.16-1.191,0.47-1.86,0.74c0.45,1.32,0.86,2.57,1.29,3.84c-2.35,0.34-12.86-3.02-16.451-5.25
								c2.491-4.51,5.301-8.79,8.681-13.07c0.72,1.52,1.29,2.71,1.98,4.15c2.45-1.16,4.45-2.15,6.53-3.79
								c1.809-1.43,3.41-3.23,4.34-5.71C90.567,24.958,96.967,30.958,96.967,30.958"/>
						</g>
					</g>
				</g>
				<g style="clip-path:url(#SVGID_00000116214680102530423210000001468027495940396958_);">
					<defs>
						<polygon id="SVGID_00000106116681555081235990000004314289022632876161_" points="-2,23.341 31.5,25.474 32.886,6.133 
							-0.615,4.001 						"/>
					</defs>
					<clipPath id="SVGID_00000012455932406662782630000007806427184914464447_">
						<use xlink:href="#SVGID_00000106116681555081235990000004314289022632876161_"  style="overflow:visible;"/>
					</clipPath>
					<g style="clip-path:url(#SVGID_00000012455932406662782630000007806427184914464447_);">
						<defs>
							<rect id="SVGID_00000062903187903258506890000013694314781893761209_" x="2.237" y="5.738" width="29.24" height="18.58"/>
						</defs>
						<clipPath id="SVGID_00000028286947515530344400000003692609169463833754_">
							<use xlink:href="#SVGID_00000062903187903258506890000013694314781893761209_"  style="overflow:visible;"/>
						</clipPath>
						<g style="clip-path:url(#SVGID_00000028286947515530344400000003692609169463833754_);">
							<defs>
								<rect id="SVGID_00000029020731543765849590000001612728134808238988_" x="2.237" y="5.738" width="29.24" height="18.58"/>
							</defs>
							<clipPath id="SVGID_00000044896148972896005040000013248403055529471151_">
								<use xlink:href="#SVGID_00000029020731543765849590000001612728134808238988_"  style="overflow:visible;"/>
							</clipPath>
							<path style="clip-path:url(#SVGID_00000044896148972896005040000013248403055529471151_);fill:#F26C2B;" d="M24.107,5.868
								c1.83,1.51,6.55,11.63,7.37,15.83c-4.91,1.28-9.88,2.16-15.23,2.62c0.59-1.59,1.06-2.84,1.63-4.35
								c-2.49-1.01-4.56-1.8-7.13-2.21c-2.25-0.36-4.64-0.3-7.04,0.74c-1.43-3.05-1.47-11.95-1.47-11.95
								c2.4-1.03,2.52-0.48,5.88-0.81c0.13-0.01,2.18,0.17,2.31,0.15c0.73-0.12,6.36,0.42,10,2.73c0.54,0.34,1.15,0.55,1.79,0.86
								C22.866,8.239,23.476,7.069,24.107,5.868"/>
						</g>
					</g>
				</g>
				<g style="clip-path:url(#SVGID_00000116214680102530423210000001468027495940396958_);">
					<defs>
						<polygon id="SVGID_00000057828215637104610620000006015681738883942287_" points="11.557,98.479 30.57,99.335 32.402,65.185 
							13.387,64.33 						"/>
					</defs>
					<clipPath id="SVGID_00000159467110937036906990000017310524640573309117_">
						<use xlink:href="#SVGID_00000057828215637104610620000006015681738883942287_"  style="overflow:visible;"/>
					</clipPath>
					<g style="clip-path:url(#SVGID_00000159467110937036906990000017310524640573309117_);">
						<defs>
							<rect id="SVGID_00000002357308526234889440000003087302672201327550_" x="13.196" y="65.318" width="18.19" height="30.18"/>
						</defs>
						<clipPath id="SVGID_00000131366230694985620520000017628588363909425038_">
							<use xlink:href="#SVGID_00000002357308526234889440000003087302672201327550_"  style="overflow:visible;"/>
						</clipPath>
						<g style="clip-path:url(#SVGID_00000131366230694985620520000017628588363909425038_);">
							<defs>
								
									<rect id="SVGID_00000001655819190158574810000003605140149254508704_" x="13.196" y="65.318" width="18.19" height="30.18"/>
							</defs>
							<clipPath id="SVGID_00000016066739388599352150000013174258768580861108_">
								<use xlink:href="#SVGID_00000001655819190158574810000003605140149254508704_"  style="overflow:visible;"/>
							</clipPath>
							<path style="clip-path:url(#SVGID_00000016066739388599352150000013174258768580861108_);fill:#55C95A;" d="M28.697,65.318
								c1.3,4.96,2.2,9.99,2.69,15.43c-1.57-0.57-2.8-1.01-4.28-1.539c-0.98,2.559-1.74,4.689-2.12,7.319
								c-0.34,2.3-0.26,4.72,0.78,7.141c-2.98,1.54-11.72,1.829-11.72,1.829c-1.04-2.409-0.5-2.539-0.85-5.95
								c-0.01-0.14,0.15-2.23,0.13-2.36c-0.13-0.74,0.36-6.479,2.6-10.26c0.33-0.549,0.54-1.17,0.83-1.839
								c-1.22-0.63-2.38-1.221-3.56-1.821C14.667,71.368,24.567,66.278,28.697,65.318"/>
						</g>
					</g>
				</g>
				<polygon style="clip-path:url(#SVGID_00000116214680102530423210000001468027495940396958_);fill:#523742;" points="
					81.73,77.978 79.842,78.566 77.823,79.22 75.762,80.594 74.314,82.588 73.136,84.78 72.848,87.261 72.848,87.273 73.474,90.582 
					74.588,92.677 76.097,94.493 78.25,95.452 79.959,96.011 81.727,96.27 82.167,96.459 83.071,96.459 83.519,96.305 
					86.016,95.776 88.045,94.944 89.565,93.385 90.842,91.631 91.39,89.52 91.726,87.934 91.726,85.943 91.227,84.094 
					90.073,81.919 88.494,80.089 86.296,79.041 83.464,77.978 				"/>
				<g style="clip-path:url(#SVGID_00000116214680102530423210000001468027495940396958_);">
					<defs>
						
							<rect id="SVGID_00000178882999396150153900000007148434368150656145_" x="42.549" y="73.96" transform="matrix(0.7465 -0.6653 0.6653 0.7465 -40.8566 59.4476)" width="30.098" height="18.779"/>
					</defs>
					<clipPath id="SVGID_00000091734977208064924140000003203641507441660344_">
						<use xlink:href="#SVGID_00000178882999396150153900000007148434368150656145_"  style="overflow:visible;"/>
					</clipPath>
					<path style="clip-path:url(#SVGID_00000091734977208064924140000003203641507441660344_);fill:#9F9EB1;" d="M64.171,73.62
						c0.966-0.915,0.053-3.007,2.027-3.24c2.72,3.457,5.413,6.87,8.278,10.506c-3.606,2.355-7.56,3.856-11.346,5.65
						c-0.391-0.107-0.718-0.204-1.115-0.306c0.187-1.412,0.39-2.852,0.589-4.329c-2.536-1.491-4.782-0.359-6.642,0.829
						c-3.03,1.937-2.111,4.922-1.34,7.396c0.565,0.783,0.959,1.315,1.477,2.033c-2.545,1.398-4.857,2.666-7.211,3.947
						c-0.181-0.173-0.387-0.284-0.435-0.442c-0.688-1.945-1.697-3.859-1.936-5.856c-0.591-5.006,0.683-9.53,4.466-13.129
						c2.427-2.297,5.197-3.774,8.611-3.641C61.092,73.096,62.575,73.408,64.171,73.62"/>
				</g>
			</g>
		</g>
	</g>
</g>
<g id="Layer_2">
	<g id="Layer_3">
	</g>
</g>
</svg>
