<?xml version="1.0" encoding="iso-8859-1"?>
<!-- Generator: Adobe Illustrator 26.0.1, SVG Export Plug-In . SVG Version: 6.00 Build 0)  -->
<svg version="1.1" xmlns="http://www.w3.org/2000/svg" xmlns:xlink="http://www.w3.org/1999/xlink" x="0px" y="0px"
	 viewBox="0 0 100 100" style="enable-background:new 0 0 100 100;" xml:space="preserve">
<g id="Layer_1">
	<g id="G_x28__T1_T1_T1_L1__x29__L3_L1_00000055706993759046379580000009871557480813066393_">
		<g>
			<defs>
				<rect id="SVGID_1_" x="6" width="90.813" height="97.499"/>
			</defs>
			<clipPath id="SVGID_00000099622008674535360050000009113492793612858046_">
				<use xlink:href="#SVGID_1_"  style="overflow:visible;"/>
			</clipPath>
			<polygon style="clip-path:url(#SVGID_00000099622008674535360050000009113492793612858046_);fill:#9F9EB1;" points="
				60.383,32.173 58.797,33.35 57.107,34.634 55.616,36.612 54.908,38.973 54.521,41.431 55.07,43.872 55.072,43.877 56.757,46.796 
				58.499,48.405 60.525,49.621 62.873,49.815 64.67,49.777 66.425,49.437 66.902,49.471 67.755,49.172 68.128,48.877 
				70.311,47.554 71.95,46.099 72.87,44.124 73.496,42.048 73.316,39.874 73.11,38.271 72.449,36.383 71.369,34.807 69.561,33.135 
				67.466,31.931 65.045,31.667 62.026,31.598 			"/>
			<g style="clip-path:url(#SVGID_00000099622008674535360050000009113492793612858046_);">
				<defs>
					
						<rect id="SVGID_00000098917553713787559730000013188477513133492655_" x="24.515" y="36.974" transform="matrix(0.8441 -0.5362 0.5362 0.8441 -18.146 27.9465)" width="28.928" height="16.4"/>
				</defs>
				<clipPath id="SVGID_00000018942412566181457300000000705239724503145859_">
					<use xlink:href="#SVGID_00000098917553713787559730000013188477513133492655_"  style="overflow:visible;"/>
				</clipPath>
				<path style="clip-path:url(#SVGID_00000018942412566181457300000000705239724503145859_);fill:#E1D153;" d="M32.7,53.668
					c-2.535-1.34-7.05-7.369-7.05-7.369c1.152-1.916,1.505-1.605,3.684-3.525c0.089-0.079,1.609-0.993,1.688-1.072
					c0.446-0.455,4.641-2.931,8.346-3.21c0.542-0.042,1.075-0.202,1.682-0.322c-0.175-1.171-0.341-2.278-0.51-3.406
					c2.036,0.098,10.429,4.583,13.128,7.024c-2.779,3.359-5.799,6.47-9.298,9.49c-0.385-1.381-0.688-2.465-1.054-3.777
					c-2.242,0.572-4.086,1.078-6.088,2.105C35.481,50.503,33.852,51.751,32.7,53.668"/>
			</g>
			<g style="clip-path:url(#SVGID_00000099622008674535360050000009113492793612858046_);">
				<defs>
					
						<rect id="SVGID_00000121250582030783077550000007844233569856092070_" x="62.206" y="1.499" transform="matrix(0.9731 -0.2302 0.2302 0.9731 -1.784 16.6347)" width="16.401" height="28.93"/>
				</defs>
				<clipPath id="SVGID_00000144306820459977214230000004421301887346864568_">
					<use xlink:href="#SVGID_00000121250582030783077550000007844233569856092070_"  style="overflow:visible;"/>
				</clipPath>
				<path style="clip-path:url(#SVGID_00000144306820459977214230000004421301887346864568_);fill:#5699DE;" d="M64.439,7.249
					c2.096-1.956,9.271-4.248,9.271-4.248c1.433,1.716,1.024,1.948,2.124,4.636c0.045,0.11,0.411,1.846,0.46,1.946
					c0.284,0.57,1.249,5.345,0.299,8.937c-0.138,0.526-0.161,1.082-0.247,1.694c1.164,0.219,2.264,0.425,3.385,0.634
					c-0.76,1.892-7.746,8.353-10.937,10.104c-2.262-3.726-4.213-7.599-5.92-11.893c1.43,0.087,2.554,0.157,3.915,0.24
					c0.193-2.306,0.319-4.214,0.004-6.441C66.518,10.913,65.873,8.965,64.439,7.249"/>
			</g>
			<g style="clip-path:url(#SVGID_00000099622008674535360050000009113492793612858046_);">
				<defs>
					
						<rect id="SVGID_00000155111692890824599370000000527727413292020099_" x="72.024" y="44.68" transform="matrix(0.4328 -0.9015 0.9015 0.4328 -7.8169 105.865)" width="16.401" height="28.929"/>
				</defs>
				<clipPath id="SVGID_00000005987983941667351240000013120732232117715585_">
					<use xlink:href="#SVGID_00000155111692890824599370000000527727413292020099_"  style="overflow:visible;"/>
				</clipPath>
				<path style="clip-path:url(#SVGID_00000005987983941667351240000013120732232117715585_);fill:#AD70D6;" d="M90.753,59.982
					c0.204,2.86-2.524,9.881-2.524,9.881c-2.236,0.036-2.159-0.429-4.941-1.263c-0.114-0.033-1.693-0.841-1.803-0.865
					c-0.622-0.138-4.942-2.389-7.138-5.386c-0.322-0.438-0.74-0.805-1.162-1.257c-0.902,0.768-1.753,1.494-2.621,2.234
					c-0.994-1.781-1.626-11.275-0.982-14.857c4.319,0.583,8.559,1.5,12.971,2.872c-0.968,1.058-1.728,1.888-2.648,2.893
					c1.671,1.601,3.077,2.898,5.006,4.053C86.597,59.295,88.518,60.018,90.753,59.982"/>
			</g>
			<g style="clip-path:url(#SVGID_00000099622008674535360050000009113492793612858046_);">
				<defs>
					<rect id="SVGID_00000070077108571205445650000018150018579199411330_" x="6.004" y="58.354" width="41.85" height="39.145"/>
				</defs>
				<clipPath id="SVGID_00000083073892166054572030000005165110686181277112_">
					<use xlink:href="#SVGID_00000070077108571205445650000018150018579199411330_"  style="overflow:visible;"/>
				</clipPath>
				<path style="clip-path:url(#SVGID_00000083073892166054572030000005165110686181277112_);fill:#F26C2B;" d="M47.854,76.824v4.32
					c-0.1,0.32-0.19,0.64-0.29,0.96c-0.62,1.94-1.1,3.94-1.9,5.8c-0.42,0.98-1.25,1.9-2.11,2.56c-1.74,1.34-3.62,2.48-5.54,3.76
					c0.54,0.92,1.13,1.93,1.74,2.96c-2.67,0.91-14.34-0.29-15.63-1.61c1-2.61,1.86-5.28,2.93-7.97c0.65-1.6,1.37-3.22,2.23-4.82
					c0.95,1.17,1.73,2.13,2.53,3.12c1.82-1.3,3.59-2.57,5.43-3.89c0.22-2.01,2.57-3.46,1.4-6.06c0.8,0.07,1.35,0.13,1.9,0.17
					c2.21,0.17,4.42,0.33,6.63,0.5C47.404,76.644,47.634,76.754,47.854,76.824"/>
				<path style="clip-path:url(#SVGID_00000083073892166054572030000005165110686181277112_);fill:#55C95A;" d="M40.364,58.354
					c1.67,1.17,6.35,9.46,7.32,12.97c-3.08,1-6.21,1.81-9.48,2.43c-1.14,0.22-2.29,0.42-3.46,0.59c0.42-1.37,0.74-2.45,1.14-3.75
					c-2.2-0.72-4.36-1.83-6.6-2.04c-1.95-0.18-4.27-0.29-5.84,1.66c-0.3-0.53-0.6-1.05-0.89-1.56c-1.1-1.92-2.15-3.76-3.23-5.65
					c2.19-1.64,4.45-3.27,7.31-3.72c0.12-0.02,0.26,0.01,0.36-0.03c3.83-1.81,7.11-0.14,10.39,1.62c0.48,0.25,1.01,0.4,1.59,0.63
					C39.454,60.414,39.904,59.394,40.364,58.354"/>
				<path style="clip-path:url(#SVGID_00000083073892166054572030000005165110686181277112_);fill:#E33A3A;" d="M9.644,83.114
					c-0.24-1.57-0.1-3.21-0.13-4.83c-0.01-0.46,0-0.93,0-1.41c-1.28-0.07-2.4-0.13-3.51-0.18c0.2-2.35,7.28-11.86,9.39-12.58
					c1.59,1.92,3.26,3.81,4.83,5.87c1.22,1.59,2.37,3.29,3.39,5.19c-1.51,0.21-2.62,0.36-3.9,0.54c0.17,2.13-0.06,4.4,0.64,6.32
					c0.68,1.86,1.82,3.79,4.25,4.78c-1.79,2.52-3.45,4.86-5.18,7.3c-2.62-1.48-5.19-2.85-6.86-5.41c-0.32-0.49-0.78-0.89-1.2-1.3
					C10.154,86.224,9.884,84.634,9.644,83.114"/>
			</g>
			<polygon style="clip-path:url(#SVGID_00000099622008674535360050000009113492793612858046_);fill:#523742;" points="
				78.961,77.352 77.077,77.939 75.056,78.593 72.996,79.967 71.548,81.962 70.371,84.154 70.082,86.634 70.082,86.647 
				70.708,89.956 71.822,92.05 73.332,93.867 75.484,94.825 77.193,95.384 78.961,95.643 79.399,95.832 80.306,95.832 
				80.753,95.678 83.251,95.15 85.278,94.318 86.799,92.758 88.076,91.005 88.625,88.893 88.96,87.308 88.96,85.315 88.462,83.467 
				87.306,81.293 85.728,79.463 83.53,78.415 80.7,77.352 			"/>
		</g>
	</g>
</g>
<g id="Layer_2">
	<g id="Layer_3">
	</g>
</g>
</svg>
