<?xml version="1.0" encoding="iso-8859-1"?>
<!-- Generator: Adobe Illustrator 26.0.1, SVG Export Plug-In . SVG Version: 6.00 Build 0)  -->
<svg version="1.1" xmlns="http://www.w3.org/2000/svg" xmlns:xlink="http://www.w3.org/1999/xlink" x="0px" y="0px"
	 viewBox="0 0 100 100" style="enable-background:new 0 0 100 100;" xml:space="preserve">
<g id="Layer_1">
	<g id="G_x28__T1_L1__x29___L1_L1_L1_L1_L1_00000065795686759741353370000013667672345411932808_">
		<g>
			<defs>
				<rect id="SVGID_1_" x="8" y="11" width="83.96" height="82.743"/>
			</defs>
			<clipPath id="SVGID_00000054945016395532803750000007540883758477239191_">
				<use xlink:href="#SVGID_1_"  style="overflow:visible;"/>
			</clipPath>
			<polygon style="clip-path:url(#SVGID_00000054945016395532803750000007540883758477239191_);fill:#E33A3A;" points="16.961,11 
				15.077,11.587 13.056,12.24 10.996,13.615 9.548,15.61 8.37,17.801 8.082,20.282 8.082,20.295 8.708,23.604 9.822,25.698 
				11.331,27.515 13.484,28.473 15.192,29.032 16.961,29.291 17.399,29.48 18.306,29.48 18.753,29.326 21.251,28.798 23.278,27.966 
				24.799,26.405 26.076,24.653 26.625,22.541 26.96,20.956 26.96,18.965 26.462,17.115 25.306,14.94 23.728,13.111 21.53,12.063 
				18.7,11 			"/>
			<polygon style="clip-path:url(#SVGID_00000054945016395532803750000007540883758477239191_);fill:#55C95A;" points="16.961,39 
				15.077,39.587 13.056,40.241 10.996,41.615 9.548,43.61 8.37,45.801 8.082,48.282 8.082,48.295 8.708,51.604 9.822,53.698 
				11.331,55.515 13.484,56.474 15.192,57.032 16.961,57.291 17.399,57.48 18.306,57.48 18.753,57.326 21.251,56.798 23.278,55.966 
				24.799,54.405 26.076,52.653 26.625,50.541 26.96,48.956 26.96,46.965 26.462,45.116 25.306,42.941 23.728,41.111 21.53,40.063 
				18.7,39 			"/>
			<polygon style="clip-path:url(#SVGID_00000054945016395532803750000007540883758477239191_);fill:#5699DE;" points="48.96,40 
				47.076,40.587 45.056,41.241 42.996,42.615 41.548,44.61 40.37,46.802 40.081,49.29 40.708,52.604 41.821,54.698 43.331,56.515 
				45.483,57.473 47.192,58.032 48.961,58.291 49.399,58.48 50.306,58.48 50.753,58.326 53.25,57.798 55.277,56.966 56.798,55.406 
				58.075,53.653 58.624,51.541 58.959,49.96 58.959,47.963 58.461,46.115 57.306,43.941 55.727,42.111 53.529,41.063 50.699,40 			
				"/>
			<polygon style="clip-path:url(#SVGID_00000054945016395532803750000007540883758477239191_);fill:#AD70D6;" points="16.961,69 
				15.077,69.587 13.056,70.241 10.996,71.616 9.548,73.61 8.37,75.802 8.082,78.282 8.082,78.295 8.708,81.604 9.822,83.698 
				11.331,85.515 13.484,86.474 15.192,87.033 16.961,87.291 17.4,87.481 18.305,87.481 18.753,87.326 21.251,86.798 23.278,85.966 
				24.799,84.406 26.076,82.653 26.625,80.541 26.96,78.956 26.96,76.965 26.462,75.116 25.306,72.941 23.728,71.112 21.53,70.063 
				18.7,69 			"/>
			<polygon style="clip-path:url(#SVGID_00000054945016395532803750000007540883758477239191_);fill:#F26C2B;" points="48.96,11 
				47.076,11.587 45.056,12.24 42.996,13.615 41.548,15.61 40.37,17.801 40.081,20.29 40.708,23.604 41.821,25.698 43.331,27.515 
				45.483,28.473 47.192,29.032 48.961,29.291 49.399,29.48 50.306,29.48 50.753,29.326 53.25,28.798 55.277,27.966 56.798,26.405 
				58.075,24.653 58.624,22.541 58.959,20.96 58.959,18.963 58.461,17.115 57.306,14.94 55.727,13.111 53.529,12.063 50.699,11 			
				"/>
			<polygon style="clip-path:url(#SVGID_00000054945016395532803750000007540883758477239191_);fill:#523742;" points="78.964,70 
				77.076,70.588 75.056,71.242 72.996,72.616 71.548,74.61 70.37,76.802 70.082,79.283 70.082,79.295 70.708,82.604 71.821,84.699 
				73.331,86.515 75.483,87.474 77.192,88.033 78.961,88.292 79.4,88.481 80.305,88.481 80.752,88.327 83.25,87.798 85.279,86.966 
				86.799,85.407 88.075,83.653 88.624,81.542 88.96,79.96 88.96,77.961 88.461,76.116 87.306,73.941 85.728,72.111 83.529,71.063 
				80.698,70 			"/>
			<g style="clip-path:url(#SVGID_00000054945016395532803750000007540883758477239191_);">
				<defs>
					
						<rect id="SVGID_00000168810300545574884120000018106852309274192023_" x="39.783" y="65.982" transform="matrix(0.7465 -0.6653 0.6653 0.7465 -36.2496 55.5848)" width="30.098" height="18.779"/>
				</defs>
				<clipPath id="SVGID_00000149381688861519901060000008881302090669923978_">
					<use xlink:href="#SVGID_00000168810300545574884120000018106852309274192023_"  style="overflow:visible;"/>
				</clipPath>
				<path style="clip-path:url(#SVGID_00000149381688861519901060000008881302090669923978_);fill:#9F9EB1;" d="M61.404,65.642
					c0.966-0.915,0.053-3.007,2.027-3.24c2.72,3.457,5.413,6.87,8.278,10.506c-3.606,2.355-7.56,3.856-11.346,5.65
					c-0.391-0.107-0.718-0.204-1.115-0.306c0.187-1.412,0.39-2.852,0.589-4.329c-2.536-1.491-4.782-0.359-6.642,0.829
					c-3.03,1.937-2.111,4.922-1.34,7.396c0.565,0.783,0.959,1.315,1.477,2.033c-2.545,1.398-4.857,2.666-7.211,3.947
					c-0.181-0.173-0.387-0.284-0.435-0.442c-0.688-1.945-1.697-3.859-1.936-5.856c-0.591-5.006,0.683-9.53,4.466-13.129
					c2.427-2.297,5.197-3.774,8.611-3.641C58.325,65.118,59.808,65.43,61.404,65.642"/>
			</g>
			<polygon style="clip-path:url(#SVGID_00000054945016395532803750000007540883758477239191_);fill:#E1D153;" points="81.961,11 
				80.077,11.587 78.056,12.24 75.996,13.615 74.549,15.61 73.371,17.801 73.082,20.29 73.708,23.604 74.822,25.698 76.332,27.515 
				78.484,28.473 80.193,29.032 81.961,29.291 82.399,29.48 83.306,29.48 83.753,29.326 86.251,28.798 88.278,27.966 89.799,26.405 
				91.076,24.653 91.625,22.541 91.96,20.956 91.96,18.963 91.462,17.115 90.306,14.94 88.728,13.111 86.53,12.063 83.7,11 			"/>
		</g>
	</g>
</g>
<g id="Layer_2">
	<g id="Layer_3">
	</g>
</g>
</svg>
