<?xml version="1.0" encoding="iso-8859-1"?>
<!-- Generator: Adobe Illustrator 26.0.1, SVG Export Plug-In . SVG Version: 6.00 Build 0)  -->
<svg version="1.1" xmlns="http://www.w3.org/2000/svg" xmlns:xlink="http://www.w3.org/1999/xlink" x="0px" y="0px"
	 viewBox="0 0 100 100" style="enable-background:new 0 0 100 100;" xml:space="preserve">
<g id="Layer_1">
	<g id="L2_L2_L2_G_x28__T1_L1__x29__00000003827946538589155080000011152394045827379132_">
		<g>
			<defs>
				<rect id="SVGID_1_" x="9" y="11" width="82" height="81.48"/>
			</defs>
			<clipPath id="SVGID_00000074409109047670621910000009155321525323240104_">
				<use xlink:href="#SVGID_1_"  style="overflow:visible;"/>
			</clipPath>
			<g style="clip-path:url(#SVGID_00000074409109047670621910000009155321525323240104_);">
				<defs>
					<rect id="SVGID_00000070829784771222790360000013166156977896249256_" x="9" y="11" width="82" height="81.48"/>
				</defs>
				<clipPath id="SVGID_00000037675787264556758540000015366711040598927506_">
					<use xlink:href="#SVGID_00000070829784771222790360000013166156977896249256_"  style="overflow:visible;"/>
				</clipPath>
				<g style="clip-path:url(#SVGID_00000037675787264556758540000015366711040598927506_);">
					<defs>
						<rect id="SVGID_00000107569815411539112080000008161110297309225360_" x="9" y="11" width="79.96" height="81.48"/>
					</defs>
					<clipPath id="SVGID_00000177461996842669329630000005799035286777797265_">
						<use xlink:href="#SVGID_00000107569815411539112080000008161110297309225360_"  style="overflow:visible;"/>
					</clipPath>
					<g style="opacity:0.96;clip-path:url(#SVGID_00000177461996842669329630000005799035286777797265_);">
						<g>
							<defs>
								<rect id="SVGID_00000000942575215104663830000006594187303992744878_" x="10" y="10.997" width="31.363" height="34.872"/>
							</defs>
							<clipPath id="SVGID_00000036245256647082722170000014679977901336829348_">
								<use xlink:href="#SVGID_00000000942575215104663830000006594187303992744878_"  style="overflow:visible;"/>
							</clipPath>
							<g style="clip-path:url(#SVGID_00000036245256647082722170000014679977901336829348_);">
								<defs>
									<rect id="SVGID_00000178922981448641911220000001733509724734455982_" x="11.264" y="11" width="30.093" height="18.776"/>
								</defs>
								<clipPath id="SVGID_00000070839592251176895080000018096175654539990678_">
									<use xlink:href="#SVGID_00000178922981448641911220000001733509724734455982_"  style="overflow:visible;"/>
								</clipPath>
								<path style="clip-path:url(#SVGID_00000070839592251176895080000018096175654539990678_);fill:#E1D153;" d="M37.693,17.496
									c1.33-0.04,2.04-2.21,3.67-1.07c-0.27,4.39-0.53,8.73-0.81,13.35c-4.26-0.64-8.21-2.15-12.23-3.33
									c-0.22-0.34-0.4-0.63-0.63-0.97c1.08-0.93,2.19-1.87,3.32-2.84c-0.9-2.8-3.33-3.45-5.51-3.8c-3.55-0.57-4.85,2.27-5.92,4.63
									c-0.1,0.96-0.16,1.62-0.25,2.5c-2.83-0.65-5.4-1.24-8.01-1.85c-0.02-0.25-0.1-0.47-0.03-0.62c0.78-1.91,1.3-4.01,2.45-5.66
									c2.89-4.13,6.85-6.66,12.07-6.83c3.34-0.1,6.39,0.64,8.85,3.01C35.743,15.056,36.643,16.276,37.693,17.496"/>
							</g>
							<g style="clip-path:url(#SVGID_00000036245256647082722170000014679977901336829348_);">
								<defs>
									
										<rect id="SVGID_00000034051365987093970520000016308240216164542630_" x="10.003" y="27.656" width="29.361" height="18.213"/>
								</defs>
								<clipPath id="SVGID_00000183221908874767931670000012502736402926903681_">
									<use xlink:href="#SVGID_00000034051365987093970520000016308240216164542630_"  style="overflow:visible;"/>
								</clipPath>
								<path style="clip-path:url(#SVGID_00000183221908874767931670000012502736402926903681_);fill:#55C95A;" d="M39.363,33.446
									c-0.1,0.3-0.17,0.6-0.29,0.87c-1.52,3.45-3.13,6.93-6.51,8.9c-1.9,1.11-4.16,1.59-6.26,2.36c-2.15,0.78-4.14-0.2-6.16-0.61
									c-1.67-0.33-2.86-1.56-4-2.76c-0.82-0.86-1.62-1.74-2.62-2.83c-1.02,0.3-2.14,0.63-3.52,1.04c0.24-4.15,0.49-8.3,0.76-12.76
									c4,1.19,7.88,2.35,12.16,3.63c-1.18,1.02-2.12,1.83-3.03,2.63v1.59c1.49,2.59,3.87,3.08,6.63,3.14
									c3.42,0.08,4.13-2.66,5.59-4.93v-1.92C34.563,32.356,36.923,32.886,39.363,33.446"/>
							</g>
						</g>
					</g>
					<g style="opacity:0.96;clip-path:url(#SVGID_00000177461996842669329630000005799035286777797265_);">
						<g>
							<defs>
								<rect id="SVGID_00000046330272191452891580000004418769950823103889_" x="55" y="10.997" width="31.363" height="34.872"/>
							</defs>
							<clipPath id="SVGID_00000119095405714750022520000001396126401309512324_">
								<use xlink:href="#SVGID_00000046330272191452891580000004418769950823103889_"  style="overflow:visible;"/>
							</clipPath>
							<g style="clip-path:url(#SVGID_00000119095405714750022520000001396126401309512324_);">
								<defs>
									<rect id="SVGID_00000016766756424306621080000008234900209041869209_" x="56.264" y="11" width="30.094" height="18.776"/>
								</defs>
								<clipPath id="SVGID_00000072239367410014905680000004775260969085864872_">
									<use xlink:href="#SVGID_00000016766756424306621080000008234900209041869209_"  style="overflow:visible;"/>
								</clipPath>
								<path style="clip-path:url(#SVGID_00000072239367410014905680000004775260969085864872_);fill:#5699DE;" d="M82.692,17.496
									c1.33-0.04,2.04-2.21,3.67-1.07c-0.27,4.39-0.529,8.73-0.81,13.35c-4.259-0.64-8.21-2.15-12.23-3.33
									c-0.22-0.34-0.4-0.63-0.63-0.97c1.08-0.93,2.19-1.87,3.32-2.84c-0.9-2.8-3.33-3.45-5.509-3.8
									c-3.55-0.57-4.851,2.27-5.92,4.63c-0.101,0.96-0.161,1.62-0.25,2.5c-2.83-0.65-5.401-1.24-8.011-1.85
									c-0.02-0.25-0.1-0.47-0.029-0.62c0.779-1.91,1.299-4.01,2.45-5.66c2.889-4.13,6.849-6.66,12.069-6.83
									c3.34-0.1,6.391,0.64,8.851,3.01C80.743,15.056,81.642,16.276,82.692,17.496"/>
							</g>
							<g style="clip-path:url(#SVGID_00000119095405714750022520000001396126401309512324_);">
								<defs>
									
										<rect id="SVGID_00000029741043065445711690000000797720892772783009_" x="55.003" y="27.656" width="29.361" height="18.213"/>
								</defs>
								<clipPath id="SVGID_00000060727611771196006530000015400635246183956390_">
									<use xlink:href="#SVGID_00000029741043065445711690000000797720892772783009_"  style="overflow:visible;"/>
								</clipPath>
								<path style="clip-path:url(#SVGID_00000060727611771196006530000015400635246183956390_);fill:#F26C2B;" d="M84.362,33.446
									c-0.1,0.3-0.17,0.6-0.29,0.87c-1.52,3.45-3.13,6.93-6.51,8.9c-1.899,1.11-4.16,1.59-6.26,2.36
									c-2.15,0.78-4.139-0.2-6.16-0.61c-1.67-0.33-2.86-1.56-4-2.76c-0.82-0.86-1.62-1.74-2.62-2.83
									c-1.019,0.3-2.139,0.63-3.519,1.04c0.239-4.15,0.489-8.3,0.759-12.76c4,1.19,7.88,2.35,12.161,3.63
									c-1.181,1.02-2.121,1.83-3.031,2.63v1.59c1.491,2.59,3.87,3.08,6.63,3.14c3.42,0.08,4.13-2.66,5.59-4.93v-1.92
									C79.562,32.356,81.923,32.886,84.362,33.446"/>
							</g>
						</g>
					</g>
					<g style="opacity:0.96;clip-path:url(#SVGID_00000177461996842669329630000005799035286777797265_);">
						<g>
							<defs>
								<rect id="SVGID_00000052822354464178420090000010059006993635997860_" x="9" y="54.997" width="31.363" height="34.872"/>
							</defs>
							<clipPath id="SVGID_00000066494460526047591150000017302682429979734440_">
								<use xlink:href="#SVGID_00000052822354464178420090000010059006993635997860_"  style="overflow:visible;"/>
							</clipPath>
							<g style="clip-path:url(#SVGID_00000066494460526047591150000017302682429979734440_);">
								<defs>
									
										<rect id="SVGID_00000088102381977883809780000008407467941259593910_" x="10.264" y="55.001" width="30.094" height="18.775"/>
								</defs>
								<clipPath id="SVGID_00000101799811450616261610000002095033061759125662_">
									<use xlink:href="#SVGID_00000088102381977883809780000008407467941259593910_"  style="overflow:visible;"/>
								</clipPath>
								<path style="clip-path:url(#SVGID_00000101799811450616261610000002095033061759125662_);fill:#E33A3A;" d="M36.693,61.496
									c1.33-0.04,2.04-2.21,3.67-1.07c-0.27,4.389-0.53,8.73-0.81,13.349c-4.26-0.639-8.21-2.149-12.23-3.33
									c-0.22-0.34-0.4-0.63-0.63-0.97c1.08-0.929,2.19-1.87,3.32-2.839c-0.9-2.8-3.33-3.451-5.51-3.8
									c-3.55-0.57-4.85,2.269-5.92,4.63c-0.1,0.96-0.16,1.62-0.25,2.5c-2.83-0.651-5.4-1.241-8.01-1.85
									c-0.02-0.25-0.1-0.471-0.03-0.62c0.78-1.91,1.3-4.011,2.45-5.66c2.89-4.13,6.85-6.66,12.07-6.83
									c3.34-0.1,6.39,0.639,8.85,3.01C34.743,59.056,35.643,60.275,36.693,61.496"/>
							</g>
							<g style="clip-path:url(#SVGID_00000066494460526047591150000017302682429979734440_);">
								<defs>
									
										<rect id="SVGID_00000168077338481243478160000013344928074276445089_" x="9.003" y="71.656" width="29.361" height="18.212"/>
								</defs>
								<clipPath id="SVGID_00000041272541205279056460000011374330524409195175_">
									<use xlink:href="#SVGID_00000168077338481243478160000013344928074276445089_"  style="overflow:visible;"/>
								</clipPath>
								<path style="clip-path:url(#SVGID_00000041272541205279056460000011374330524409195175_);fill:#AD70D6;" d="M38.363,77.446
									c-0.1,0.3-0.17,0.6-0.29,0.87c-1.52,3.449-3.13,6.93-6.51,8.9c-1.9,1.11-4.16,1.589-6.26,2.36
									c-2.15,0.78-4.14-0.2-6.16-0.61c-1.67-0.331-2.86-1.56-4-2.76c-0.82-0.861-1.62-1.74-2.62-2.83
									c-1.02,0.299-2.14,0.63-3.52,1.04c0.24-4.151,0.49-8.3,0.76-12.76c4,1.189,7.88,2.35,12.16,3.63
									c-1.18,1.019-2.12,1.83-3.03,2.63v1.59c1.49,2.589,3.87,3.08,6.63,3.14c3.42,0.079,4.13-2.66,5.59-4.93v-1.92
									C33.563,76.356,35.923,76.885,38.363,77.446"/>
							</g>
						</g>
					</g>
					<g style="opacity:0.96;clip-path:url(#SVGID_00000177461996842669329630000005799035286777797265_);">
						<g>
							<defs>
								<rect id="SVGID_00000067195522966734768960000005290811117976250270_" x="70" y="50.948" width="19.135" height="18.706"/>
							</defs>
							<clipPath id="SVGID_00000086677662636827004130000012971729536759440012_">
								<use xlink:href="#SVGID_00000067195522966734768960000005290811117976250270_"  style="overflow:visible;"/>
							</clipPath>
						</g>
					</g>
					<g style="opacity:0.96;clip-path:url(#SVGID_00000177461996842669329630000005799035286777797265_);">
						<g>
							<defs>
								<rect id="SVGID_00000165223406024565286880000010452304413330813356_" x="52" y="73.948" width="19.135" height="18.706"/>
							</defs>
							<clipPath id="SVGID_00000098906709201383086060000007351350886252318854_">
								<use xlink:href="#SVGID_00000165223406024565286880000010452304413330813356_"  style="overflow:visible;"/>
							</clipPath>
						</g>
					</g>
				</g>
				<polygon style="clip-path:url(#SVGID_00000037675787264556758540000015366711040598927506_);fill:#9F9EB1;" points="
					81.766,65.398 80.022,65.956 78.156,66.577 76.253,67.882 74.915,69.776 73.827,71.858 73.561,74.215 73.561,74.226 
					74.139,77.37 75.167,79.36 76.562,81.084 78.55,81.995 80.129,82.526 81.763,82.772 82.169,82.952 83.004,82.952 83.418,82.806 
					85.725,82.303 87.6,81.512 89.004,80.032 90.183,78.366 90.69,76.361 91,74.858 91,72.959 90.539,71.207 89.472,69.141 
					88.015,67.402 85.983,66.407 83.368,65.398 				"/>
				<g style="clip-path:url(#SVGID_00000037675787264556758540000015366711040598927506_);">
					<defs>
						<polygon id="SVGID_00000054957491038028482720000018182307468089910424_" points="43.323,73.351 54.865,86.668 75.622,67.648 
							64.081,54.332 						"/>
					</defs>
					<clipPath id="SVGID_00000139283240578958512970000006254330417453666963_">
						<use xlink:href="#SVGID_00000054957491038028482720000018182307468089910424_"  style="overflow:visible;"/>
					</clipPath>
					<path style="clip-path:url(#SVGID_00000139283240578958512970000006254330417453666963_);fill:#523742;" d="M65.544,61.258
						c0.892-0.869,0.049-2.856,1.873-3.077c2.512,3.283,5,6.525,7.647,9.979c-3.332,2.236-6.984,3.662-10.482,5.366
						c-0.361-0.101-0.663-0.194-1.03-0.29c0.173-1.342,0.361-2.709,0.544-4.112c-2.342-1.417-4.417-0.341-6.135,0.787
						c-2.799,1.84-1.95,4.675-1.238,7.025c0.522,0.744,0.886,1.249,1.364,1.931c-2.351,1.328-4.487,2.532-6.661,3.749
						c-0.167-0.164-0.358-0.27-0.402-0.42c-0.636-1.847-1.568-3.665-1.789-5.562c-0.546-4.755,0.631-9.052,4.126-12.47
						c2.242-2.182,4.801-3.585,7.955-3.459C62.7,60.76,64.07,61.057,65.544,61.258"/>
				</g>
			</g>
		</g>
	</g>
</g>
<g id="Layer_2">
	<g id="Layer_3">
	</g>
</g>
</svg>
